M48
; DRILL file {KiCad 9.0.6} date 2025-12-19T09:34:34-0500
; FORMAT={-:-/ absolute / metric / decimal}
; #@! TF.CreationDate,2025-12-19T09:34:34-05:00
; #@! TF.GenerationSoftware,Kicad,Pcbnew,9.0.6
; #@! TF.FileFunction,Plated,1,4,PTH
FMAT,2
METRIC
; #@! TA.AperFunction,Plated,PTH,ViaDrill
T1C0.450
; #@! TA.AperFunction,Plated,PTH,ComponentDrill
T2C0.650
; #@! TA.AperFunction,Plated,PTH,ComponentDrill
T3C0.750
; #@! TA.AperFunction,Plated,PTH,ComponentDrill
T4C1.000
; #@! TA.AperFunction,Plated,PTH,ComponentDrill
T5C1.200
; #@! TA.AperFunction,Plated,PTH,ComponentDrill
T6C2.400
; #@! TA.AperFunction,Plated,PTH,ComponentDrill
T7C2.500
%
G90
G05
T1
X144.5Y-73.5
X145.0Y-122.0
X145.0Y-132.0
X147.0Y-56.5
X149.0Y-87.0
X150.5Y-105.5
X150.5Y-113.5
X150.5Y-126.5
X151.0Y-96.5
X151.0Y-135.0
X151.5Y-47.0
X153.5Y-55.5
X153.5Y-68.5
X153.5Y-122.5
X155.0Y-108.5
X157.0Y-78.0
X157.0Y-118.5
X157.0Y-130.0
X157.5Y-90.0
X159.0Y-75.0
X159.0Y-105.0
X159.0Y-135.0
X160.0Y-47.5
X163.5Y-61.5
X163.5Y-125.5
X164.0Y-102.0
X164.0Y-130.0
X165.5Y-118.0
X166.0Y-52.5
X166.5Y-111.5
X167.5Y-94.0
X170.5Y-74.5
X173.0Y-108.5
X174.5Y-132.0
X179.0Y-126.0
X182.0Y-74.5
X182.5Y-66.0
X186.0Y-78.5
X186.5Y-60.5
X191.0Y-139.5
X195.0Y-67.5
X197.5Y-72.5
X198.0Y-129.5
X200.0Y-101.5
X200.5Y-83.0
X200.5Y-117.0
X202.5Y-120.5
X203.5Y-131.0
X204.0Y-91.5
X204.5Y-124.5
X205.5Y-56.0
X207.5Y-137.5
X209.5Y-103.0
X209.5Y-124.0
X211.0Y-61.5
X211.0Y-95.0
X211.5Y-67.5
X211.5Y-139.0
X212.0Y-129.0
X219.0Y-139.5
X219.5Y-55.5
X221.0Y-123.0
X223.0Y-124.5
X227.5Y-101.5
X227.5Y-131.0
X230.0Y-84.5
X230.5Y-62.5
X231.5Y-119.5
X238.0Y-138.5
X239.0Y-122.5
T2
X142.74Y-138.445
X142.74Y-139.715
X185.22Y-99.65
X185.22Y-100.92
X185.22Y-102.19
X185.22Y-103.46
X185.22Y-104.73
X185.22Y-106.0
X185.22Y-107.27
X185.22Y-108.54
T3
X164.36Y-138.68
X165.63Y-138.68
X166.9Y-138.68
T4
X189.77Y-60.985
X189.77Y-63.525
X189.77Y-66.065
X189.77Y-68.605
X189.77Y-71.145
X189.77Y-73.685
X189.77Y-76.225
X189.77Y-78.765
X189.77Y-81.305
X189.77Y-83.845
X189.77Y-87.905
X189.77Y-90.445
X189.77Y-92.985
X189.77Y-95.525
X189.77Y-98.065
X189.77Y-100.605
X189.77Y-103.145
X189.77Y-105.685
X238.03Y-70.125
X238.03Y-72.665
X238.03Y-75.205
X238.03Y-77.745
X238.03Y-80.285
X238.03Y-82.825
X238.03Y-85.365
X238.03Y-87.905
X238.03Y-92.985
X238.03Y-95.525
X238.03Y-98.065
X238.03Y-100.605
X238.03Y-103.145
X238.03Y-105.685
T5
X175.5Y-50.07
X175.5Y-52.61
X175.5Y-55.15
X175.5Y-57.69
X175.5Y-60.23
X175.5Y-62.77
X175.5Y-65.31
X175.5Y-67.85
X175.5Y-70.39
X175.5Y-72.93
X175.5Y-75.47
X175.5Y-78.01
X175.5Y-80.55
X175.5Y-83.09
X175.5Y-85.63
X175.5Y-88.17
T6
X189.25Y-120.65
X189.25Y-133.35
T7
X144.499Y-44.571
X144.499Y-119.569
X175.5Y-44.571
X175.5Y-119.57
M30
