%TF.GenerationSoftware,KiCad,Pcbnew,9.0.6*%
%TF.CreationDate,2025-12-19T09:34:32-05:00*%
%TF.ProjectId,hardware,68617264-7761-4726-952e-6b696361645f,rev?*%
%TF.SameCoordinates,Original*%
%TF.FileFunction,Legend,Top*%
%TF.FilePolarity,Positive*%
%FSLAX46Y46*%
G04 Gerber Fmt 4.6, Leading zero omitted, Abs format (unit mm)*
G04 Created by KiCad (PCBNEW 9.0.6) date 2025-12-19 09:34:32*
%MOMM*%
%LPD*%
G01*
G04 APERTURE LIST*
%ADD10C,0.150000*%
%ADD11C,0.120000*%
G04 APERTURE END LIST*
D10*
X184886666Y-109739819D02*
X184886666Y-110454104D01*
X184886666Y-110454104D02*
X184839047Y-110596961D01*
X184839047Y-110596961D02*
X184743809Y-110692200D01*
X184743809Y-110692200D02*
X184600952Y-110739819D01*
X184600952Y-110739819D02*
X184505714Y-110739819D01*
X185315238Y-109835057D02*
X185362857Y-109787438D01*
X185362857Y-109787438D02*
X185458095Y-109739819D01*
X185458095Y-109739819D02*
X185696190Y-109739819D01*
X185696190Y-109739819D02*
X185791428Y-109787438D01*
X185791428Y-109787438D02*
X185839047Y-109835057D01*
X185839047Y-109835057D02*
X185886666Y-109930295D01*
X185886666Y-109930295D02*
X185886666Y-110025533D01*
X185886666Y-110025533D02*
X185839047Y-110168390D01*
X185839047Y-110168390D02*
X185267619Y-110739819D01*
X185267619Y-110739819D02*
X185886666Y-110739819D01*
X179764819Y-45464285D02*
X178764819Y-45464285D01*
X178764819Y-45464285D02*
X178764819Y-45226190D01*
X178764819Y-45226190D02*
X178812438Y-45083333D01*
X178812438Y-45083333D02*
X178907676Y-44988095D01*
X178907676Y-44988095D02*
X179002914Y-44940476D01*
X179002914Y-44940476D02*
X179193390Y-44892857D01*
X179193390Y-44892857D02*
X179336247Y-44892857D01*
X179336247Y-44892857D02*
X179526723Y-44940476D01*
X179526723Y-44940476D02*
X179621961Y-44988095D01*
X179621961Y-44988095D02*
X179717200Y-45083333D01*
X179717200Y-45083333D02*
X179764819Y-45226190D01*
X179764819Y-45226190D02*
X179764819Y-45464285D01*
X179717200Y-44511904D02*
X179764819Y-44369047D01*
X179764819Y-44369047D02*
X179764819Y-44130952D01*
X179764819Y-44130952D02*
X179717200Y-44035714D01*
X179717200Y-44035714D02*
X179669580Y-43988095D01*
X179669580Y-43988095D02*
X179574342Y-43940476D01*
X179574342Y-43940476D02*
X179479104Y-43940476D01*
X179479104Y-43940476D02*
X179383866Y-43988095D01*
X179383866Y-43988095D02*
X179336247Y-44035714D01*
X179336247Y-44035714D02*
X179288628Y-44130952D01*
X179288628Y-44130952D02*
X179241009Y-44321428D01*
X179241009Y-44321428D02*
X179193390Y-44416666D01*
X179193390Y-44416666D02*
X179145771Y-44464285D01*
X179145771Y-44464285D02*
X179050533Y-44511904D01*
X179050533Y-44511904D02*
X178955295Y-44511904D01*
X178955295Y-44511904D02*
X178860057Y-44464285D01*
X178860057Y-44464285D02*
X178812438Y-44416666D01*
X178812438Y-44416666D02*
X178764819Y-44321428D01*
X178764819Y-44321428D02*
X178764819Y-44083333D01*
X178764819Y-44083333D02*
X178812438Y-43940476D01*
X179764819Y-42988095D02*
X179764819Y-43559523D01*
X179764819Y-43273809D02*
X178764819Y-43273809D01*
X178764819Y-43273809D02*
X178907676Y-43369047D01*
X178907676Y-43369047D02*
X179002914Y-43464285D01*
X179002914Y-43464285D02*
X179050533Y-43559523D01*
X236169104Y-72214285D02*
X236169104Y-71738095D01*
X236454819Y-72309523D02*
X235454819Y-71976190D01*
X235454819Y-71976190D02*
X236454819Y-71642857D01*
X236454819Y-70785714D02*
X236454819Y-71357142D01*
X236454819Y-71071428D02*
X235454819Y-71071428D01*
X235454819Y-71071428D02*
X235597676Y-71166666D01*
X235597676Y-71166666D02*
X235692914Y-71261904D01*
X235692914Y-71261904D02*
X235740533Y-71357142D01*
X142406666Y-136154819D02*
X142406666Y-136869104D01*
X142406666Y-136869104D02*
X142359047Y-137011961D01*
X142359047Y-137011961D02*
X142263809Y-137107200D01*
X142263809Y-137107200D02*
X142120952Y-137154819D01*
X142120952Y-137154819D02*
X142025714Y-137154819D01*
X143406666Y-137154819D02*
X142835238Y-137154819D01*
X143120952Y-137154819D02*
X143120952Y-136154819D01*
X143120952Y-136154819D02*
X143025714Y-136297676D01*
X143025714Y-136297676D02*
X142930476Y-136392914D01*
X142930476Y-136392914D02*
X142835238Y-136440533D01*
X179373333Y-142364819D02*
X179040000Y-141888628D01*
X178801905Y-142364819D02*
X178801905Y-141364819D01*
X178801905Y-141364819D02*
X179182857Y-141364819D01*
X179182857Y-141364819D02*
X179278095Y-141412438D01*
X179278095Y-141412438D02*
X179325714Y-141460057D01*
X179325714Y-141460057D02*
X179373333Y-141555295D01*
X179373333Y-141555295D02*
X179373333Y-141698152D01*
X179373333Y-141698152D02*
X179325714Y-141793390D01*
X179325714Y-141793390D02*
X179278095Y-141841009D01*
X179278095Y-141841009D02*
X179182857Y-141888628D01*
X179182857Y-141888628D02*
X178801905Y-141888628D01*
X180325714Y-142364819D02*
X179754286Y-142364819D01*
X180040000Y-142364819D02*
X180040000Y-141364819D01*
X180040000Y-141364819D02*
X179944762Y-141507676D01*
X179944762Y-141507676D02*
X179849524Y-141602914D01*
X179849524Y-141602914D02*
X179754286Y-141650533D01*
X165534761Y-142790057D02*
X165439523Y-142742438D01*
X165439523Y-142742438D02*
X165344285Y-142647200D01*
X165344285Y-142647200D02*
X165201428Y-142504342D01*
X165201428Y-142504342D02*
X165106190Y-142456723D01*
X165106190Y-142456723D02*
X165010952Y-142456723D01*
X165058571Y-142694819D02*
X164963333Y-142647200D01*
X164963333Y-142647200D02*
X164868095Y-142551961D01*
X164868095Y-142551961D02*
X164820476Y-142361485D01*
X164820476Y-142361485D02*
X164820476Y-142028152D01*
X164820476Y-142028152D02*
X164868095Y-141837676D01*
X164868095Y-141837676D02*
X164963333Y-141742438D01*
X164963333Y-141742438D02*
X165058571Y-141694819D01*
X165058571Y-141694819D02*
X165249047Y-141694819D01*
X165249047Y-141694819D02*
X165344285Y-141742438D01*
X165344285Y-141742438D02*
X165439523Y-141837676D01*
X165439523Y-141837676D02*
X165487142Y-142028152D01*
X165487142Y-142028152D02*
X165487142Y-142361485D01*
X165487142Y-142361485D02*
X165439523Y-142551961D01*
X165439523Y-142551961D02*
X165344285Y-142647200D01*
X165344285Y-142647200D02*
X165249047Y-142694819D01*
X165249047Y-142694819D02*
X165058571Y-142694819D01*
X166439523Y-142694819D02*
X165868095Y-142694819D01*
X166153809Y-142694819D02*
X166153809Y-141694819D01*
X166153809Y-141694819D02*
X166058571Y-141837676D01*
X166058571Y-141837676D02*
X165963333Y-141932914D01*
X165963333Y-141932914D02*
X165868095Y-141980533D01*
X212594285Y-144711009D02*
X212737142Y-144758628D01*
X212737142Y-144758628D02*
X212784761Y-144806247D01*
X212784761Y-144806247D02*
X212832380Y-144901485D01*
X212832380Y-144901485D02*
X212832380Y-145044342D01*
X212832380Y-145044342D02*
X212784761Y-145139580D01*
X212784761Y-145139580D02*
X212737142Y-145187200D01*
X212737142Y-145187200D02*
X212641904Y-145234819D01*
X212641904Y-145234819D02*
X212260952Y-145234819D01*
X212260952Y-145234819D02*
X212260952Y-144234819D01*
X212260952Y-144234819D02*
X212594285Y-144234819D01*
X212594285Y-144234819D02*
X212689523Y-144282438D01*
X212689523Y-144282438D02*
X212737142Y-144330057D01*
X212737142Y-144330057D02*
X212784761Y-144425295D01*
X212784761Y-144425295D02*
X212784761Y-144520533D01*
X212784761Y-144520533D02*
X212737142Y-144615771D01*
X212737142Y-144615771D02*
X212689523Y-144663390D01*
X212689523Y-144663390D02*
X212594285Y-144711009D01*
X212594285Y-144711009D02*
X212260952Y-144711009D01*
X213118095Y-144234819D02*
X213689523Y-144234819D01*
X213403809Y-145234819D02*
X213403809Y-144234819D01*
X214546666Y-145234819D02*
X213975238Y-145234819D01*
X214260952Y-145234819D02*
X214260952Y-144234819D01*
X214260952Y-144234819D02*
X214165714Y-144377676D01*
X214165714Y-144377676D02*
X214070476Y-144472914D01*
X214070476Y-144472914D02*
X213975238Y-144520533D01*
D11*
%TO.C,J2*%
X186380000Y-109350000D02*
X185220000Y-109350000D01*
X186380000Y-108540000D02*
X186380000Y-109350000D01*
X186380000Y-107730000D02*
X186380000Y-98905000D01*
X186380000Y-107730000D02*
X185886708Y-107730000D01*
X186380000Y-98905000D02*
X185537923Y-98905000D01*
X184902077Y-98905000D02*
X184060000Y-98905000D01*
X184553292Y-107730000D02*
X184060000Y-107730000D01*
X184060000Y-107730000D02*
X184060000Y-98905000D01*
%TO.C,DS1*%
X178140000Y-41930000D02*
X141860000Y-41930000D01*
X141860000Y-41930000D02*
X141860000Y-122210000D01*
X178140000Y-41940000D02*
X178140000Y-42730000D01*
X172500000Y-45070000D02*
X172500000Y-118070000D01*
X147500000Y-45070000D02*
X172500000Y-45070000D01*
X178500000Y-48570000D02*
X178500000Y-51570000D01*
X153000680Y-49770280D02*
X167000000Y-49770280D01*
X167500000Y-50270000D02*
X167500000Y-113770000D01*
X152500000Y-113770660D02*
X152500000Y-50270000D01*
X167000000Y-114270000D02*
X153000000Y-114270000D01*
X172500000Y-118070000D02*
X147500000Y-118070000D01*
X147500000Y-118070000D02*
X147500000Y-45070000D01*
X178140000Y-122210000D02*
X178140000Y-42730000D01*
X141860000Y-122210000D02*
X178140000Y-122210000D01*
X167001160Y-49770280D02*
G75*
G02*
X167501540Y-50270660I0J-500380D01*
G01*
X152500300Y-50270660D02*
G75*
G02*
X153000680Y-49770280I500380J0D01*
G01*
X167500000Y-113770000D02*
G75*
G02*
X167000000Y-114270000I-500000J0D01*
G01*
X153000680Y-114271040D02*
G75*
G02*
X152500360Y-113770660I20J500340D01*
G01*
%TO.C,A1*%
X187100000Y-42055000D02*
X187100000Y-106705000D01*
X187100000Y-106705000D02*
X188750000Y-108355000D01*
X188750000Y-108355000D02*
X200180000Y-108355000D01*
X196630000Y-35705000D02*
X196630000Y-42055000D01*
X196630000Y-42055000D02*
X187100000Y-42055000D01*
X200180000Y-108355000D02*
X202720000Y-110895000D01*
X202720000Y-110895000D02*
X235490000Y-110895000D01*
X208310000Y-35705000D02*
X196630000Y-35705000D01*
X208310000Y-42055000D02*
X208310000Y-35705000D01*
X228380000Y-40155000D02*
X228380000Y-42055000D01*
X228380000Y-42055000D02*
X208310000Y-42055000D01*
X235490000Y-110895000D02*
X238030000Y-108355000D01*
X237520000Y-40155000D02*
X228380000Y-40155000D01*
X237520000Y-42055000D02*
X237520000Y-40155000D01*
X238030000Y-108355000D02*
X240700000Y-108355000D01*
X240700000Y-42055000D02*
X237520000Y-42055000D01*
X240700000Y-108355000D02*
X240700000Y-42055000D01*
%TO.C,J1*%
X141580000Y-137635000D02*
X142740000Y-137635000D01*
X141580000Y-138445000D02*
X141580000Y-137635000D01*
X141580000Y-139255000D02*
X141580000Y-140460000D01*
X141580000Y-139255000D02*
X142073292Y-139255000D01*
X141580000Y-140460000D02*
X142422077Y-140460000D01*
X143057923Y-140460000D02*
X143900000Y-140460000D01*
X143406708Y-139255000D02*
X143900000Y-139255000D01*
X143900000Y-139255000D02*
X143900000Y-140460000D01*
%TO.C,R1*%
X181717064Y-137570000D02*
X177362936Y-137570000D01*
X181717064Y-140990000D02*
X177362936Y-140990000D01*
%TO.C,Q1*%
X167430000Y-136830000D02*
X163830000Y-136830000D01*
X165630000Y-141280000D02*
G75*
G02*
X163791522Y-136841522I0J2600000D01*
G01*
X167468478Y-136841522D02*
G75*
G02*
X165630000Y-141280001I-1838478J-1838478D01*
G01*
%TO.C,BT1*%
X186150000Y-111900000D02*
X240650000Y-111900000D01*
X186150000Y-142100000D02*
X186150000Y-111900000D01*
X240650000Y-111900000D02*
X240650000Y-142100000D01*
X240650000Y-142100000D02*
X186150000Y-142100000D01*
%TD*%
M02*
