%TF.GenerationSoftware,KiCad,Pcbnew,9.0.6*%
%TF.CreationDate,2025-12-19T09:34:31-05:00*%
%TF.ProjectId,hardware,68617264-7761-4726-952e-6b696361645f,rev?*%
%TF.SameCoordinates,Original*%
%TF.FileFunction,Copper,L3,Inr*%
%TF.FilePolarity,Positive*%
%FSLAX46Y46*%
G04 Gerber Fmt 4.6, Leading zero omitted, Abs format (unit mm)*
G04 Created by KiCad (PCBNEW 9.0.6) date 2025-12-19 09:34:31*
%MOMM*%
%LPD*%
G01*
G04 APERTURE LIST*
%TA.AperFunction,ComponentPad*%
%ADD10R,1.000000X1.000000*%
%TD*%
%TA.AperFunction,ComponentPad*%
%ADD11C,1.000000*%
%TD*%
%TA.AperFunction,ComponentPad*%
%ADD12C,3.000000*%
%TD*%
%TA.AperFunction,ComponentPad*%
%ADD13R,2.600000X1.800000*%
%TD*%
%TA.AperFunction,ComponentPad*%
%ADD14O,2.600000X1.800000*%
%TD*%
%TA.AperFunction,ComponentPad*%
%ADD15R,1.600000X1.600000*%
%TD*%
%TA.AperFunction,ComponentPad*%
%ADD16O,1.600000X1.600000*%
%TD*%
%TA.AperFunction,ComponentPad*%
%ADD17R,1.050000X1.500000*%
%TD*%
%TA.AperFunction,ComponentPad*%
%ADD18O,1.050000X1.500000*%
%TD*%
%TA.AperFunction,ComponentPad*%
%ADD19R,3.000000X3.000000*%
%TD*%
%TA.AperFunction,ViaPad*%
%ADD20C,0.800000*%
%TD*%
%TA.AperFunction,Conductor*%
%ADD21C,0.500000*%
%TD*%
G04 APERTURE END LIST*
D10*
%TO.N,pin6*%
%TO.C,J2*%
X185220000Y-108540000D03*
D11*
%TO.N,pin7*%
X185220000Y-107270000D03*
%TO.N,pin8*%
X185220000Y-106000000D03*
%TO.N,pin9*%
X185220000Y-104730000D03*
%TO.N,a4*%
X185220000Y-103460000D03*
%TO.N,a3*%
X185220000Y-102190000D03*
%TO.N,a2*%
X185220000Y-100920000D03*
%TO.N,a1*%
X185220000Y-99650000D03*
%TD*%
D12*
%TO.N,*%
%TO.C,DS1*%
X175500000Y-44570900D03*
X144499300Y-44570900D03*
X144499300Y-119569480D03*
X175500000Y-119570000D03*
D13*
%TO.N,GND*%
X175500000Y-50070000D03*
D14*
%TO.N,+5V*%
X175500000Y-52610000D03*
%TO.N,GND*%
X175500000Y-55150000D03*
%TO.N,pin12*%
X175500000Y-57690000D03*
%TO.N,GND*%
X175500000Y-60230000D03*
%TO.N,pin11*%
X175500000Y-62770000D03*
%TO.N,unconnected-(DS1-D0-Pad7)*%
X175500000Y-65310000D03*
%TO.N,unconnected-(DS1-D1-Pad8)*%
X175500000Y-67850000D03*
%TO.N,unconnected-(DS1-D2-Pad9)*%
X175500000Y-70390000D03*
%TO.N,unconnected-(DS1-D3-Pad10)*%
X175500000Y-72930000D03*
%TO.N,pin5*%
X175500000Y-75470000D03*
%TO.N,pin4*%
X175500000Y-78010000D03*
%TO.N,pin3*%
X175500000Y-80550000D03*
%TO.N,pin2*%
X175500000Y-83090000D03*
%TO.N,unconnected-(DS1-LED(+)-Pad15)*%
X175500000Y-85630000D03*
%TO.N,unconnected-(DS1-LED(-)-Pad16)*%
X175500000Y-88170000D03*
%TD*%
D15*
%TO.N,unconnected-(A1-NC-Pad1)*%
%TO.C,A1*%
X238030000Y-70125000D03*
D16*
%TO.N,unconnected-(A1-IOREF-Pad2)*%
X238030000Y-72665000D03*
%TO.N,unconnected-(A1-~{RESET}-Pad3)*%
X238030000Y-75205000D03*
%TO.N,unconnected-(A1-3V3-Pad4)*%
X238030000Y-77745000D03*
%TO.N,+5V*%
X238030000Y-80285000D03*
%TO.N,GND*%
X238030000Y-82825000D03*
X238030000Y-85365000D03*
%TO.N,unconnected-(A1-VIN-Pad8)*%
X238030000Y-87905000D03*
%TO.N,unconnected-(A1-A0-Pad9)*%
X238030000Y-92985000D03*
%TO.N,a1*%
X238030000Y-95525000D03*
%TO.N,a2*%
X238030000Y-98065000D03*
%TO.N,a3*%
X238030000Y-100605000D03*
%TO.N,a4*%
X238030000Y-103145000D03*
%TO.N,unconnected-(A1-SCL{slash}A5-Pad14)*%
X238030000Y-105685000D03*
%TO.N,unconnected-(A1-D0{slash}RX-Pad15)*%
X189770000Y-105685000D03*
%TO.N,unconnected-(A1-D1{slash}TX-Pad16)*%
X189770000Y-103145000D03*
%TO.N,pin2*%
X189770000Y-100605000D03*
%TO.N,pin3*%
X189770000Y-98065000D03*
%TO.N,pin4*%
X189770000Y-95525000D03*
%TO.N,pin5*%
X189770000Y-92985000D03*
%TO.N,pin6*%
X189770000Y-90445000D03*
%TO.N,pin7*%
X189770000Y-87905000D03*
%TO.N,pin8*%
X189770000Y-83845000D03*
%TO.N,pin9*%
X189770000Y-81305000D03*
%TO.N,unconnected-(A1-D10-Pad25)*%
X189770000Y-78765000D03*
%TO.N,pin11*%
X189770000Y-76225000D03*
%TO.N,pin12*%
X189770000Y-73685000D03*
%TO.N,Net-(A1-D13)*%
X189770000Y-71145000D03*
%TO.N,GND*%
X189770000Y-68605000D03*
%TO.N,unconnected-(A1-AREF-Pad30)*%
X189770000Y-66065000D03*
%TO.N,unconnected-(A1-SDA{slash}A4-Pad31)*%
X189770000Y-63525000D03*
%TO.N,unconnected-(A1-SCL{slash}A5-Pad32)*%
X189770000Y-60985000D03*
%TD*%
D10*
%TO.N,Net-(J1-Pin_1)*%
%TO.C,J1*%
X142740000Y-138445000D03*
D11*
%TO.N,GND*%
X142740000Y-139715000D03*
%TD*%
D17*
%TO.N,Net-(Q1-C)*%
%TO.C,Q1*%
X166900000Y-138680000D03*
D18*
%TO.N,Net-(A1-D13)*%
X165630000Y-138680000D03*
%TO.N,Net-(J1-Pin_1)*%
X164360000Y-138680000D03*
%TD*%
D19*
%TO.N,+9V*%
%TO.C,BT1*%
X189250000Y-120650000D03*
D12*
%TO.N,GND*%
X189250000Y-133350000D03*
%TD*%
D20*
%TO.N,GND*%
X159000000Y-75000000D03*
X211500000Y-67500000D03*
X211000000Y-61500000D03*
X219500000Y-55500000D03*
X205500000Y-56000000D03*
X186000000Y-78500000D03*
X182000000Y-74500000D03*
X182500000Y-66000000D03*
X186500000Y-60500000D03*
X195000000Y-67500000D03*
X197500000Y-72500000D03*
X200500000Y-83000000D03*
X200000000Y-101500000D03*
X204000000Y-91500000D03*
X211000000Y-95000000D03*
X230500000Y-62500000D03*
X230000000Y-84500000D03*
X209500000Y-103000000D03*
X227500000Y-101500000D03*
X211500000Y-139000000D03*
X191000000Y-139500000D03*
X204500000Y-124500000D03*
X174500000Y-132000000D03*
X179000000Y-126000000D03*
X200500000Y-117000000D03*
X202500000Y-120500000D03*
X209500000Y-124000000D03*
X198000000Y-129500000D03*
X203500000Y-131000000D03*
X207500000Y-137500000D03*
X212000000Y-129000000D03*
X221000000Y-123000000D03*
X223000000Y-124500000D03*
X231500000Y-119500000D03*
X239000000Y-122500000D03*
X227500000Y-131000000D03*
X219000000Y-139500000D03*
X238000000Y-138500000D03*
X157000000Y-118500000D03*
X153500000Y-122500000D03*
X145000000Y-122000000D03*
X145000000Y-132000000D03*
X159000000Y-135000000D03*
X164000000Y-130000000D03*
X157000000Y-130000000D03*
X151000000Y-135000000D03*
X150500000Y-126500000D03*
X163500000Y-125500000D03*
X165500000Y-118000000D03*
X150500000Y-113500000D03*
X150500000Y-105500000D03*
X159000000Y-105000000D03*
X155000000Y-108500000D03*
X166500000Y-111500000D03*
X173000000Y-108500000D03*
X164000000Y-102000000D03*
X151000000Y-96500000D03*
X149000000Y-87000000D03*
X157500000Y-90000000D03*
X167500000Y-94000000D03*
X170500000Y-74500000D03*
X153500000Y-68500000D03*
X144500000Y-73500000D03*
X157000000Y-78000000D03*
X166000000Y-52500000D03*
X163500000Y-61500000D03*
X147000000Y-56500000D03*
X151500000Y-47000000D03*
X160000000Y-47500000D03*
X153500000Y-55500000D03*
%TD*%
D21*
%TO.N,a4*%
X185775818Y-103460000D02*
X189251818Y-106936000D01*
X185220000Y-103460000D02*
X185775818Y-103460000D01*
X189251818Y-106936000D02*
X234239000Y-106936000D01*
X234239000Y-106936000D02*
X238030000Y-103145000D01*
%TO.N,a3*%
X185220000Y-102190000D02*
X185927106Y-102190000D01*
X185927106Y-102190000D02*
X186872000Y-101245106D01*
X186872000Y-101245106D02*
X186872000Y-87336728D01*
X186872000Y-87336728D02*
X187710728Y-86498000D01*
X187710728Y-86498000D02*
X223923000Y-86498000D01*
X223923000Y-86498000D02*
X238030000Y-100605000D01*
%TO.N,a2*%
X185220000Y-100920000D02*
X185294918Y-100920000D01*
X185294918Y-100920000D02*
X186171000Y-100043918D01*
X186171000Y-100043918D02*
X186171000Y-87046364D01*
X186171000Y-87046364D02*
X187420364Y-85797000D01*
X187420364Y-85797000D02*
X225762000Y-85797000D01*
X225762000Y-85797000D02*
X238030000Y-98065000D01*
%TO.N,a1*%
X185220000Y-99650000D02*
X185220000Y-87006000D01*
X227601000Y-85096000D02*
X238030000Y-95525000D01*
X185220000Y-87006000D02*
X187130000Y-85096000D01*
X187130000Y-85096000D02*
X227601000Y-85096000D01*
%TD*%
M02*
