%TF.GenerationSoftware,KiCad,Pcbnew,9.0.6*%
%TF.CreationDate,2025-12-19T09:34:31-05:00*%
%TF.ProjectId,hardware,68617264-7761-4726-952e-6b696361645f,rev?*%
%TF.SameCoordinates,Original*%
%TF.FileFunction,Copper,L1,Top*%
%TF.FilePolarity,Positive*%
%FSLAX46Y46*%
G04 Gerber Fmt 4.6, Leading zero omitted, Abs format (unit mm)*
G04 Created by KiCad (PCBNEW 9.0.6) date 2025-12-19 09:34:31*
%MOMM*%
%LPD*%
G01*
G04 APERTURE LIST*
G04 Aperture macros list*
%AMRoundRect*
0 Rectangle with rounded corners*
0 $1 Rounding radius*
0 $2 $3 $4 $5 $6 $7 $8 $9 X,Y pos of 4 corners*
0 Add a 4 corners polygon primitive as box body*
4,1,4,$2,$3,$4,$5,$6,$7,$8,$9,$2,$3,0*
0 Add four circle primitives for the rounded corners*
1,1,$1+$1,$2,$3*
1,1,$1+$1,$4,$5*
1,1,$1+$1,$6,$7*
1,1,$1+$1,$8,$9*
0 Add four rect primitives between the rounded corners*
20,1,$1+$1,$2,$3,$4,$5,0*
20,1,$1+$1,$4,$5,$6,$7,0*
20,1,$1+$1,$6,$7,$8,$9,0*
20,1,$1+$1,$8,$9,$2,$3,0*%
G04 Aperture macros list end*
%TA.AperFunction,ComponentPad*%
%ADD10R,1.000000X1.000000*%
%TD*%
%TA.AperFunction,ComponentPad*%
%ADD11C,1.000000*%
%TD*%
%TA.AperFunction,ComponentPad*%
%ADD12C,3.000000*%
%TD*%
%TA.AperFunction,ComponentPad*%
%ADD13R,2.600000X1.800000*%
%TD*%
%TA.AperFunction,ComponentPad*%
%ADD14O,2.600000X1.800000*%
%TD*%
%TA.AperFunction,ComponentPad*%
%ADD15R,1.600000X1.600000*%
%TD*%
%TA.AperFunction,ComponentPad*%
%ADD16O,1.600000X1.600000*%
%TD*%
%TA.AperFunction,SMDPad,CuDef*%
%ADD17RoundRect,0.249999X0.450001X1.425001X-0.450001X1.425001X-0.450001X-1.425001X0.450001X-1.425001X0*%
%TD*%
%TA.AperFunction,ComponentPad*%
%ADD18R,1.050000X1.500000*%
%TD*%
%TA.AperFunction,ComponentPad*%
%ADD19O,1.050000X1.500000*%
%TD*%
%TA.AperFunction,ComponentPad*%
%ADD20R,3.000000X3.000000*%
%TD*%
%TA.AperFunction,ViaPad*%
%ADD21C,0.800000*%
%TD*%
%TA.AperFunction,Conductor*%
%ADD22C,0.500000*%
%TD*%
%TA.AperFunction,Conductor*%
%ADD23C,1.000000*%
%TD*%
%TA.AperFunction,Conductor*%
%ADD24C,2.000000*%
%TD*%
G04 APERTURE END LIST*
D10*
%TO.P,J2,1,Pin_1*%
%TO.N,pin6*%
X185220000Y-108540000D03*
D11*
%TO.P,J2,2,Pin_2*%
%TO.N,pin7*%
X185220000Y-107270000D03*
%TO.P,J2,3,Pin_3*%
%TO.N,pin8*%
X185220000Y-106000000D03*
%TO.P,J2,4,Pin_4*%
%TO.N,pin9*%
X185220000Y-104730000D03*
%TO.P,J2,5,Pin_5*%
%TO.N,a4*%
X185220000Y-103460000D03*
%TO.P,J2,6,Pin_6*%
%TO.N,a3*%
X185220000Y-102190000D03*
%TO.P,J2,7,Pin_7*%
%TO.N,a2*%
X185220000Y-100920000D03*
%TO.P,J2,8,Pin_8*%
%TO.N,a1*%
X185220000Y-99650000D03*
%TD*%
D12*
%TO.P,DS1,*%
%TO.N,*%
X175500000Y-44570900D03*
X144499300Y-44570900D03*
X144499300Y-119569480D03*
X175500000Y-119570000D03*
D13*
%TO.P,DS1,1,VSS*%
%TO.N,GND*%
X175500000Y-50070000D03*
D14*
%TO.P,DS1,2,VDD*%
%TO.N,+5V*%
X175500000Y-52610000D03*
%TO.P,DS1,3,VO*%
%TO.N,GND*%
X175500000Y-55150000D03*
%TO.P,DS1,4,RS*%
%TO.N,pin12*%
X175500000Y-57690000D03*
%TO.P,DS1,5,R/W*%
%TO.N,GND*%
X175500000Y-60230000D03*
%TO.P,DS1,6,E*%
%TO.N,pin11*%
X175500000Y-62770000D03*
%TO.P,DS1,7,D0*%
%TO.N,unconnected-(DS1-D0-Pad7)*%
X175500000Y-65310000D03*
%TO.P,DS1,8,D1*%
%TO.N,unconnected-(DS1-D1-Pad8)*%
X175500000Y-67850000D03*
%TO.P,DS1,9,D2*%
%TO.N,unconnected-(DS1-D2-Pad9)*%
X175500000Y-70390000D03*
%TO.P,DS1,10,D3*%
%TO.N,unconnected-(DS1-D3-Pad10)*%
X175500000Y-72930000D03*
%TO.P,DS1,11,D4*%
%TO.N,pin5*%
X175500000Y-75470000D03*
%TO.P,DS1,12,D5*%
%TO.N,pin4*%
X175500000Y-78010000D03*
%TO.P,DS1,13,D6*%
%TO.N,pin3*%
X175500000Y-80550000D03*
%TO.P,DS1,14,D7*%
%TO.N,pin2*%
X175500000Y-83090000D03*
%TO.P,DS1,15,LED(+)*%
%TO.N,unconnected-(DS1-LED(+)-Pad15)*%
X175500000Y-85630000D03*
%TO.P,DS1,16,LED(-)*%
%TO.N,unconnected-(DS1-LED(-)-Pad16)*%
X175500000Y-88170000D03*
%TD*%
D15*
%TO.P,A1,1,NC*%
%TO.N,unconnected-(A1-NC-Pad1)*%
X238030000Y-70125000D03*
D16*
%TO.P,A1,2,IOREF*%
%TO.N,unconnected-(A1-IOREF-Pad2)*%
X238030000Y-72665000D03*
%TO.P,A1,3,~{RESET}*%
%TO.N,unconnected-(A1-~{RESET}-Pad3)*%
X238030000Y-75205000D03*
%TO.P,A1,4,3V3*%
%TO.N,unconnected-(A1-3V3-Pad4)*%
X238030000Y-77745000D03*
%TO.P,A1,5,+5V*%
%TO.N,+5V*%
X238030000Y-80285000D03*
%TO.P,A1,6,GND*%
%TO.N,GND*%
X238030000Y-82825000D03*
%TO.P,A1,7,GND*%
X238030000Y-85365000D03*
%TO.P,A1,8,VIN*%
%TO.N,unconnected-(A1-VIN-Pad8)*%
X238030000Y-87905000D03*
%TO.P,A1,9,A0*%
%TO.N,unconnected-(A1-A0-Pad9)*%
X238030000Y-92985000D03*
%TO.P,A1,10,A1*%
%TO.N,a1*%
X238030000Y-95525000D03*
%TO.P,A1,11,A2*%
%TO.N,a2*%
X238030000Y-98065000D03*
%TO.P,A1,12,A3*%
%TO.N,a3*%
X238030000Y-100605000D03*
%TO.P,A1,13,SDA/A4*%
%TO.N,a4*%
X238030000Y-103145000D03*
%TO.P,A1,14,SCL/A5*%
%TO.N,unconnected-(A1-SCL{slash}A5-Pad14)*%
X238030000Y-105685000D03*
%TO.P,A1,15,D0/RX*%
%TO.N,unconnected-(A1-D0{slash}RX-Pad15)*%
X189770000Y-105685000D03*
%TO.P,A1,16,D1/TX*%
%TO.N,unconnected-(A1-D1{slash}TX-Pad16)*%
X189770000Y-103145000D03*
%TO.P,A1,17,D2*%
%TO.N,pin2*%
X189770000Y-100605000D03*
%TO.P,A1,18,D3*%
%TO.N,pin3*%
X189770000Y-98065000D03*
%TO.P,A1,19,D4*%
%TO.N,pin4*%
X189770000Y-95525000D03*
%TO.P,A1,20,D5*%
%TO.N,pin5*%
X189770000Y-92985000D03*
%TO.P,A1,21,D6*%
%TO.N,pin6*%
X189770000Y-90445000D03*
%TO.P,A1,22,D7*%
%TO.N,pin7*%
X189770000Y-87905000D03*
%TO.P,A1,23,D8*%
%TO.N,pin8*%
X189770000Y-83845000D03*
%TO.P,A1,24,D9*%
%TO.N,pin9*%
X189770000Y-81305000D03*
%TO.P,A1,25,D10*%
%TO.N,unconnected-(A1-D10-Pad25)*%
X189770000Y-78765000D03*
%TO.P,A1,26,D11*%
%TO.N,pin11*%
X189770000Y-76225000D03*
%TO.P,A1,27,D12*%
%TO.N,pin12*%
X189770000Y-73685000D03*
%TO.P,A1,28,D13*%
%TO.N,Net-(A1-D13)*%
X189770000Y-71145000D03*
%TO.P,A1,29,GND*%
%TO.N,GND*%
X189770000Y-68605000D03*
%TO.P,A1,30,AREF*%
%TO.N,unconnected-(A1-AREF-Pad30)*%
X189770000Y-66065000D03*
%TO.P,A1,31,SDA/A4*%
%TO.N,unconnected-(A1-SDA{slash}A4-Pad31)*%
X189770000Y-63525000D03*
%TO.P,A1,32,SCL/A5*%
%TO.N,unconnected-(A1-SCL{slash}A5-Pad32)*%
X189770000Y-60985000D03*
%TD*%
D10*
%TO.P,J1,1,Pin_1*%
%TO.N,Net-(J1-Pin_1)*%
X142740000Y-138445000D03*
D11*
%TO.P,J1,2,Pin_2*%
%TO.N,GND*%
X142740000Y-139715000D03*
%TD*%
D17*
%TO.P,R1,1*%
%TO.N,+9V*%
X182590000Y-139280000D03*
%TO.P,R1,2*%
%TO.N,Net-(Q1-C)*%
X176490000Y-139280000D03*
%TD*%
D18*
%TO.P,Q1,1,C*%
%TO.N,Net-(Q1-C)*%
X166900000Y-138680000D03*
D19*
%TO.P,Q1,2,B*%
%TO.N,Net-(A1-D13)*%
X165630000Y-138680000D03*
%TO.P,Q1,3,E*%
%TO.N,Net-(J1-Pin_1)*%
X164360000Y-138680000D03*
%TD*%
D20*
%TO.P,BT1,1,+*%
%TO.N,+9V*%
X189250000Y-120650000D03*
D12*
%TO.P,BT1,2,-*%
%TO.N,GND*%
X189250000Y-133350000D03*
%TD*%
D21*
%TO.N,GND*%
X159000000Y-75000000D03*
X211500000Y-67500000D03*
X211000000Y-61500000D03*
X219500000Y-55500000D03*
X205500000Y-56000000D03*
X186000000Y-78500000D03*
X182000000Y-74500000D03*
X182500000Y-66000000D03*
X186500000Y-60500000D03*
X195000000Y-67500000D03*
X197500000Y-72500000D03*
X200500000Y-83000000D03*
X200000000Y-101500000D03*
X204000000Y-91500000D03*
X211000000Y-95000000D03*
X230500000Y-62500000D03*
X230000000Y-84500000D03*
X209500000Y-103000000D03*
X227500000Y-101500000D03*
X211500000Y-139000000D03*
X191000000Y-139500000D03*
X204500000Y-124500000D03*
X174500000Y-132000000D03*
X179000000Y-126000000D03*
X200500000Y-117000000D03*
X202500000Y-120500000D03*
X209500000Y-124000000D03*
X198000000Y-129500000D03*
X203500000Y-131000000D03*
X207500000Y-137500000D03*
X212000000Y-129000000D03*
X221000000Y-123000000D03*
X223000000Y-124500000D03*
X231500000Y-119500000D03*
X239000000Y-122500000D03*
X227500000Y-131000000D03*
X219000000Y-139500000D03*
X238000000Y-138500000D03*
X157000000Y-118500000D03*
X153500000Y-122500000D03*
X145000000Y-122000000D03*
X145000000Y-132000000D03*
X159000000Y-135000000D03*
X164000000Y-130000000D03*
X157000000Y-130000000D03*
X151000000Y-135000000D03*
X150500000Y-126500000D03*
X163500000Y-125500000D03*
X165500000Y-118000000D03*
X150500000Y-113500000D03*
X150500000Y-105500000D03*
X159000000Y-105000000D03*
X155000000Y-108500000D03*
X166500000Y-111500000D03*
X173000000Y-108500000D03*
X164000000Y-102000000D03*
X151000000Y-96500000D03*
X149000000Y-87000000D03*
X157500000Y-90000000D03*
X167500000Y-94000000D03*
X170500000Y-74500000D03*
X153500000Y-68500000D03*
X144500000Y-73500000D03*
X157000000Y-78000000D03*
X166000000Y-52500000D03*
X163500000Y-61500000D03*
X147000000Y-56500000D03*
X151500000Y-47000000D03*
X160000000Y-47500000D03*
X153500000Y-55500000D03*
%TD*%
D22*
%TO.N,GND*%
X187500000Y-66335000D02*
X187500000Y-63250000D01*
X189770000Y-68605000D02*
X187500000Y-66335000D01*
D23*
%TO.N,+5V*%
X186890000Y-52610000D02*
X214565000Y-80285000D01*
X214565000Y-80285000D02*
X238030000Y-80285000D01*
X186890000Y-52610000D02*
X175500000Y-52610000D01*
%TO.N,pin2*%
X175500000Y-83090000D02*
X175624156Y-83090000D01*
X175624156Y-83090000D02*
X184666000Y-92131844D01*
X184666000Y-92131844D02*
X184666000Y-95501000D01*
X184666000Y-95501000D02*
X189770000Y-100605000D01*
%TO.N,pin3*%
X175500000Y-80550000D02*
X175624156Y-80550000D01*
X175624156Y-80550000D02*
X185867000Y-90792844D01*
X185867000Y-90792844D02*
X185867000Y-94162000D01*
X185867000Y-94162000D02*
X189770000Y-98065000D01*
%TO.N,pin4*%
X175500000Y-78010000D02*
X175624156Y-78010000D01*
X187068000Y-89453844D02*
X187068000Y-92823000D01*
X175624156Y-78010000D02*
X187068000Y-89453844D01*
X187068000Y-92823000D02*
X189770000Y-95525000D01*
%TO.N,pin5*%
X175500000Y-75470000D02*
X177000000Y-75470000D01*
X177000000Y-75470000D02*
X188269000Y-86739000D01*
X188269000Y-86739000D02*
X188269000Y-91484000D01*
X188269000Y-91484000D02*
X189770000Y-92985000D01*
%TO.N,pin11*%
X175500000Y-62770000D02*
X176315000Y-62770000D01*
X176315000Y-62770000D02*
X189770000Y-76225000D01*
%TO.N,pin12*%
X175500000Y-57690000D02*
X177000000Y-57690000D01*
X177000000Y-57690000D02*
X188269000Y-68959000D01*
X188269000Y-68959000D02*
X188269000Y-72184000D01*
X188269000Y-72184000D02*
X189770000Y-73685000D01*
%TO.N,Net-(A1-D13)*%
X165630000Y-138680000D02*
X165630000Y-135370000D01*
X165630000Y-135370000D02*
X193000000Y-108000000D01*
X193000000Y-108000000D02*
X193000000Y-74375000D01*
X193000000Y-74375000D02*
X189770000Y-71145000D01*
%TO.N,Net-(J1-Pin_1)*%
X142740000Y-138445000D02*
X164125000Y-138445000D01*
X164125000Y-138445000D02*
X164360000Y-138680000D01*
D24*
%TO.N,Net-(Q1-C)*%
X176490000Y-139280000D02*
X167956000Y-139280000D01*
X167956000Y-139280000D02*
X167356000Y-138680000D01*
%TO.N,+9V*%
X189250000Y-120650000D02*
X182590000Y-127310000D01*
X182590000Y-127310000D02*
X182590000Y-139280000D01*
%TD*%
%TA.AperFunction,Conductor*%
%TO.N,GND*%
G36*
X241242539Y-51690185D02*
G01*
X241288294Y-51742989D01*
X241299500Y-51794500D01*
X241299500Y-142175500D01*
X241279815Y-142242539D01*
X241227011Y-142288294D01*
X241175500Y-142299500D01*
X141824500Y-142299500D01*
X141757461Y-142279815D01*
X141711706Y-142227011D01*
X141700500Y-142175500D01*
X141700500Y-140577572D01*
X142230979Y-140577572D01*
X142266328Y-140601192D01*
X142448306Y-140676569D01*
X142448318Y-140676572D01*
X142641504Y-140714999D01*
X142641508Y-140715000D01*
X142838492Y-140715000D01*
X142838495Y-140714999D01*
X143031681Y-140676572D01*
X143031693Y-140676569D01*
X143213676Y-140601190D01*
X143213680Y-140601187D01*
X143249019Y-140577573D01*
X143249020Y-140577572D01*
X142740001Y-140068553D01*
X142740000Y-140068553D01*
X142230979Y-140577572D01*
X141700500Y-140577572D01*
X141700500Y-140343407D01*
X141720185Y-140276368D01*
X141772989Y-140230613D01*
X141836654Y-140220004D01*
X141877426Y-140224019D01*
X142415000Y-139686445D01*
X142415000Y-139757787D01*
X142437149Y-139840445D01*
X142479936Y-139914554D01*
X142540446Y-139975064D01*
X142614555Y-140017851D01*
X142697213Y-140040000D01*
X142782787Y-140040000D01*
X142865445Y-140017851D01*
X142939554Y-139975064D01*
X143000064Y-139914554D01*
X143042851Y-139840445D01*
X143065000Y-139757787D01*
X143065000Y-139686447D01*
X143602572Y-140224020D01*
X143602573Y-140224019D01*
X143626187Y-140188680D01*
X143626190Y-140188676D01*
X143701569Y-140006693D01*
X143701572Y-140006681D01*
X143739999Y-139813495D01*
X143740000Y-139813492D01*
X143740000Y-139616510D01*
X143735461Y-139593690D01*
X143741690Y-139524099D01*
X143784553Y-139468922D01*
X143850443Y-139445678D01*
X143857079Y-139445500D01*
X163421513Y-139445500D01*
X163488552Y-139465185D01*
X163524615Y-139500609D01*
X163563443Y-139558720D01*
X163706281Y-139701558D01*
X163874237Y-139813782D01*
X163874241Y-139813784D01*
X163874244Y-139813786D01*
X164060873Y-139891091D01*
X164226777Y-139924091D01*
X164258992Y-139930499D01*
X164258996Y-139930500D01*
X164258997Y-139930500D01*
X164461004Y-139930500D01*
X164461005Y-139930499D01*
X164659127Y-139891091D01*
X164845756Y-139813786D01*
X164926110Y-139760094D01*
X164992786Y-139739217D01*
X165060166Y-139757701D01*
X165063865Y-139760078D01*
X165144244Y-139813786D01*
X165330873Y-139891091D01*
X165496777Y-139924091D01*
X165528992Y-139930499D01*
X165528996Y-139930500D01*
X165528997Y-139930500D01*
X165731004Y-139930500D01*
X165731005Y-139930499D01*
X165929127Y-139891091D01*
X166009798Y-139857674D01*
X166079267Y-139850205D01*
X166124658Y-139869962D01*
X166124886Y-139869546D01*
X166129540Y-139872087D01*
X166131562Y-139872967D01*
X166132669Y-139873796D01*
X166132670Y-139873796D01*
X166132671Y-139873797D01*
X166177618Y-139890561D01*
X166267517Y-139924091D01*
X166327127Y-139930500D01*
X166433110Y-139930499D01*
X166500149Y-139950183D01*
X166520791Y-139966818D01*
X166978490Y-140424517D01*
X167169566Y-140563343D01*
X167380008Y-140670568D01*
X167604631Y-140743553D01*
X167676931Y-140755004D01*
X167837903Y-140780500D01*
X167837908Y-140780500D01*
X168074092Y-140780500D01*
X175184846Y-140780500D01*
X175251885Y-140800185D01*
X175297640Y-140852989D01*
X175302551Y-140865493D01*
X175355186Y-141024335D01*
X175447288Y-141173656D01*
X175571344Y-141297712D01*
X175720665Y-141389814D01*
X175887202Y-141444999D01*
X175989990Y-141455500D01*
X175989995Y-141455500D01*
X176990005Y-141455500D01*
X176990010Y-141455500D01*
X177092798Y-141444999D01*
X177259335Y-141389814D01*
X177408656Y-141297712D01*
X177532712Y-141173656D01*
X177624814Y-141024335D01*
X177679999Y-140857798D01*
X177690500Y-140755010D01*
X177690500Y-140220746D01*
X177710185Y-140153707D01*
X177714173Y-140147871D01*
X177773343Y-140066433D01*
X177880568Y-139855992D01*
X177953553Y-139631368D01*
X177956570Y-139612321D01*
X177990500Y-139398097D01*
X177990500Y-139161902D01*
X177953553Y-138928631D01*
X177880566Y-138704003D01*
X177841666Y-138627659D01*
X177773343Y-138493567D01*
X177714182Y-138412138D01*
X177690702Y-138346332D01*
X177690500Y-138339253D01*
X177690500Y-137804995D01*
X177690499Y-137804982D01*
X177687821Y-137778772D01*
X177679999Y-137702202D01*
X177624814Y-137535665D01*
X177532712Y-137386344D01*
X177408656Y-137262288D01*
X177288999Y-137188483D01*
X177259337Y-137170187D01*
X177259332Y-137170185D01*
X177250740Y-137167338D01*
X177092798Y-137115001D01*
X177092796Y-137115000D01*
X176990017Y-137104500D01*
X176990010Y-137104500D01*
X175989990Y-137104500D01*
X175989982Y-137104500D01*
X175887203Y-137115000D01*
X175887202Y-137115001D01*
X175804669Y-137142349D01*
X175720667Y-137170185D01*
X175720662Y-137170187D01*
X175571342Y-137262289D01*
X175447289Y-137386342D01*
X175355187Y-137535662D01*
X175355185Y-137535667D01*
X175302552Y-137694504D01*
X175262779Y-137751949D01*
X175198263Y-137778772D01*
X175184846Y-137779500D01*
X168628889Y-137779500D01*
X168561850Y-137759815D01*
X168541208Y-137743181D01*
X168333511Y-137535484D01*
X168286326Y-137501202D01*
X168142434Y-137396657D01*
X167931996Y-137289433D01*
X167707368Y-137216446D01*
X167474097Y-137179500D01*
X167474092Y-137179500D01*
X167237908Y-137179500D01*
X167237903Y-137179500D01*
X167004630Y-137216447D01*
X167004627Y-137216447D01*
X166792818Y-137285269D01*
X166722977Y-137287264D01*
X166663144Y-137251184D01*
X166632316Y-137188483D01*
X166630500Y-137167338D01*
X166630500Y-135835781D01*
X166650185Y-135768742D01*
X166666814Y-135748105D01*
X175223017Y-127191902D01*
X181089500Y-127191902D01*
X181089500Y-139398097D01*
X181126446Y-139631368D01*
X181199433Y-139855996D01*
X181260102Y-139975064D01*
X181306657Y-140066433D01*
X181365818Y-140147861D01*
X181389298Y-140213666D01*
X181389500Y-140220746D01*
X181389500Y-140755017D01*
X181400000Y-140857796D01*
X181400001Y-140857798D01*
X181455186Y-141024335D01*
X181547288Y-141173656D01*
X181671344Y-141297712D01*
X181820665Y-141389814D01*
X181987202Y-141444999D01*
X182089990Y-141455500D01*
X182089995Y-141455500D01*
X183090005Y-141455500D01*
X183090010Y-141455500D01*
X183192798Y-141444999D01*
X183359335Y-141389814D01*
X183508656Y-141297712D01*
X183632712Y-141173656D01*
X183724814Y-141024335D01*
X183779999Y-140857798D01*
X183790500Y-140755010D01*
X183790500Y-140220746D01*
X183810185Y-140153707D01*
X183814173Y-140147871D01*
X183873343Y-140066433D01*
X183980568Y-139855992D01*
X184053553Y-139631368D01*
X184056570Y-139612321D01*
X184090500Y-139398097D01*
X184090500Y-137977973D01*
X198599500Y-137977973D01*
X198599500Y-138222027D01*
X198637679Y-138463076D01*
X198663824Y-138543543D01*
X198713097Y-138695187D01*
X198823896Y-138912642D01*
X198967339Y-139110076D01*
X198967343Y-139110081D01*
X199139918Y-139282656D01*
X199139923Y-139282660D01*
X199286008Y-139388796D01*
X199337361Y-139426106D01*
X199554815Y-139536904D01*
X199786924Y-139612321D01*
X200027973Y-139650500D01*
X200027974Y-139650500D01*
X200272026Y-139650500D01*
X200272027Y-139650500D01*
X200513076Y-139612321D01*
X200745185Y-139536904D01*
X200962639Y-139426106D01*
X201160083Y-139282655D01*
X201332655Y-139110083D01*
X201476106Y-138912639D01*
X201586904Y-138695185D01*
X201662321Y-138463076D01*
X201700500Y-138222027D01*
X201700500Y-137977973D01*
X226599500Y-137977973D01*
X226599500Y-138222027D01*
X226637679Y-138463076D01*
X226663824Y-138543543D01*
X226713097Y-138695187D01*
X226823896Y-138912642D01*
X226967339Y-139110076D01*
X226967343Y-139110081D01*
X227139918Y-139282656D01*
X227139923Y-139282660D01*
X227286008Y-139388796D01*
X227337361Y-139426106D01*
X227554815Y-139536904D01*
X227786924Y-139612321D01*
X228027973Y-139650500D01*
X228027974Y-139650500D01*
X228272026Y-139650500D01*
X228272027Y-139650500D01*
X228513076Y-139612321D01*
X228745185Y-139536904D01*
X228962639Y-139426106D01*
X229160083Y-139282655D01*
X229332655Y-139110083D01*
X229476106Y-138912639D01*
X229586904Y-138695185D01*
X229662321Y-138463076D01*
X229700500Y-138222027D01*
X229700500Y-137977973D01*
X229662321Y-137736924D01*
X229586904Y-137504815D01*
X229476106Y-137287361D01*
X229424584Y-137216447D01*
X229332660Y-137089923D01*
X229332656Y-137089918D01*
X229160081Y-136917343D01*
X229160076Y-136917339D01*
X228962642Y-136773896D01*
X228962641Y-136773895D01*
X228962639Y-136773894D01*
X228745185Y-136663096D01*
X228513076Y-136587679D01*
X228513074Y-136587678D01*
X228513072Y-136587678D01*
X228344769Y-136561021D01*
X228272027Y-136549500D01*
X228027973Y-136549500D01*
X227972093Y-136558350D01*
X227786927Y-136587678D01*
X227554812Y-136663097D01*
X227337357Y-136773896D01*
X227139923Y-136917339D01*
X227139918Y-136917343D01*
X226967343Y-137089918D01*
X226967339Y-137089923D01*
X226823896Y-137287357D01*
X226713097Y-137504812D01*
X226637678Y-137736927D01*
X226626898Y-137804990D01*
X226599500Y-137977973D01*
X201700500Y-137977973D01*
X201662321Y-137736924D01*
X201586904Y-137504815D01*
X201476106Y-137287361D01*
X201424584Y-137216447D01*
X201332660Y-137089923D01*
X201332656Y-137089918D01*
X201160081Y-136917343D01*
X201160076Y-136917339D01*
X200962642Y-136773896D01*
X200962641Y-136773895D01*
X200962639Y-136773894D01*
X200745185Y-136663096D01*
X200513076Y-136587679D01*
X200513074Y-136587678D01*
X200513072Y-136587678D01*
X200344769Y-136561021D01*
X200272027Y-136549500D01*
X200027973Y-136549500D01*
X199972093Y-136558350D01*
X199786927Y-136587678D01*
X199554812Y-136663097D01*
X199337357Y-136773896D01*
X199139923Y-136917339D01*
X199139918Y-136917343D01*
X198967343Y-137089918D01*
X198967339Y-137089923D01*
X198823896Y-137287357D01*
X198713097Y-137504812D01*
X198637678Y-137736927D01*
X198626898Y-137804990D01*
X198599500Y-137977973D01*
X184090500Y-137977973D01*
X184090500Y-133218905D01*
X187250000Y-133218905D01*
X187250000Y-133481094D01*
X187284220Y-133741009D01*
X187284222Y-133741020D01*
X187352075Y-133994255D01*
X187452404Y-134236471D01*
X187452409Y-134236482D01*
X187583488Y-134463516D01*
X187583494Y-134463524D01*
X187670080Y-134576365D01*
X188242116Y-134004329D01*
X188334691Y-134131748D01*
X188468252Y-134265309D01*
X188595669Y-134357882D01*
X188023633Y-134929917D01*
X188023633Y-134929918D01*
X188136475Y-135016505D01*
X188136483Y-135016511D01*
X188363517Y-135147590D01*
X188363528Y-135147595D01*
X188605744Y-135247924D01*
X188858979Y-135315777D01*
X188858990Y-135315779D01*
X189118905Y-135349999D01*
X189118920Y-135350000D01*
X189381080Y-135350000D01*
X189381094Y-135349999D01*
X189641009Y-135315779D01*
X189641020Y-135315777D01*
X189894255Y-135247924D01*
X190136471Y-135147595D01*
X190136482Y-135147590D01*
X190363516Y-135016511D01*
X190363534Y-135016499D01*
X190476365Y-134929919D01*
X190476365Y-134929917D01*
X189904330Y-134357882D01*
X190031748Y-134265309D01*
X190165309Y-134131748D01*
X190257882Y-134004330D01*
X190829917Y-134576365D01*
X190829919Y-134576365D01*
X190916499Y-134463534D01*
X190916511Y-134463516D01*
X191047590Y-134236482D01*
X191047595Y-134236471D01*
X191147924Y-133994255D01*
X191215777Y-133741020D01*
X191215779Y-133741009D01*
X191249999Y-133481094D01*
X191250000Y-133481080D01*
X191250000Y-133218919D01*
X191249999Y-133218905D01*
X191215779Y-132958990D01*
X191215777Y-132958979D01*
X191147924Y-132705744D01*
X191047595Y-132463528D01*
X191047590Y-132463517D01*
X190916511Y-132236483D01*
X190916505Y-132236475D01*
X190829918Y-132123633D01*
X190829917Y-132123633D01*
X190257881Y-132695668D01*
X190165309Y-132568252D01*
X190031748Y-132434691D01*
X189904328Y-132342116D01*
X190476365Y-131770080D01*
X190363524Y-131683494D01*
X190363516Y-131683488D01*
X190136482Y-131552409D01*
X190136471Y-131552404D01*
X189894255Y-131452075D01*
X189641020Y-131384222D01*
X189641009Y-131384220D01*
X189381094Y-131350000D01*
X189118905Y-131350000D01*
X188858990Y-131384220D01*
X188858979Y-131384222D01*
X188605744Y-131452075D01*
X188363528Y-131552404D01*
X188363517Y-131552409D01*
X188136471Y-131683496D01*
X188023633Y-131770079D01*
X188023633Y-131770080D01*
X188595669Y-132342116D01*
X188468252Y-132434691D01*
X188334691Y-132568252D01*
X188242116Y-132695669D01*
X187670080Y-132123633D01*
X187670079Y-132123633D01*
X187583496Y-132236471D01*
X187452409Y-132463517D01*
X187452404Y-132463528D01*
X187352075Y-132705744D01*
X187284222Y-132958979D01*
X187284220Y-132958990D01*
X187250000Y-133218905D01*
X184090500Y-133218905D01*
X184090500Y-127982888D01*
X184110185Y-127915849D01*
X184126814Y-127895212D01*
X189335208Y-122686817D01*
X189396531Y-122653333D01*
X189422889Y-122650499D01*
X190797871Y-122650499D01*
X190797872Y-122650499D01*
X190857483Y-122644091D01*
X190992331Y-122593796D01*
X191107546Y-122507546D01*
X191193796Y-122392331D01*
X191244091Y-122257483D01*
X191250500Y-122197873D01*
X191250499Y-119102128D01*
X191244091Y-119042517D01*
X191193796Y-118907669D01*
X191193795Y-118907668D01*
X191193793Y-118907664D01*
X191107547Y-118792455D01*
X191107544Y-118792452D01*
X190992335Y-118706206D01*
X190992328Y-118706202D01*
X190857482Y-118655908D01*
X190857483Y-118655908D01*
X190797883Y-118649501D01*
X190797881Y-118649500D01*
X190797873Y-118649500D01*
X190797864Y-118649500D01*
X187702129Y-118649500D01*
X187702123Y-118649501D01*
X187642516Y-118655908D01*
X187507671Y-118706202D01*
X187507664Y-118706206D01*
X187392455Y-118792452D01*
X187392452Y-118792455D01*
X187306206Y-118907664D01*
X187306202Y-118907671D01*
X187255908Y-119042517D01*
X187249501Y-119102116D01*
X187249501Y-119102123D01*
X187249500Y-119102135D01*
X187249500Y-120477110D01*
X187229815Y-120544149D01*
X187213181Y-120564791D01*
X181445484Y-126332488D01*
X181306657Y-126523565D01*
X181199433Y-126734003D01*
X181126446Y-126958631D01*
X181089500Y-127191902D01*
X175223017Y-127191902D01*
X186636946Y-115777973D01*
X211849500Y-115777973D01*
X211849500Y-116022026D01*
X211887678Y-116263072D01*
X211963097Y-116495187D01*
X212073896Y-116712642D01*
X212217339Y-116910076D01*
X212217343Y-116910081D01*
X212389918Y-117082656D01*
X212389923Y-117082660D01*
X212562136Y-117207779D01*
X212587361Y-117226106D01*
X212804815Y-117336904D01*
X213036924Y-117412321D01*
X213277973Y-117450500D01*
X213277974Y-117450500D01*
X213522026Y-117450500D01*
X213522027Y-117450500D01*
X213763076Y-117412321D01*
X213995185Y-117336904D01*
X214212639Y-117226106D01*
X214410083Y-117082655D01*
X214582655Y-116910083D01*
X214726106Y-116712639D01*
X214836904Y-116495185D01*
X214912321Y-116263076D01*
X214950500Y-116022027D01*
X214950500Y-115777973D01*
X214912321Y-115536924D01*
X214836904Y-115304815D01*
X214726106Y-115087361D01*
X214707779Y-115062136D01*
X214582660Y-114889923D01*
X214582656Y-114889918D01*
X214410081Y-114717343D01*
X214410076Y-114717339D01*
X214212642Y-114573896D01*
X214212641Y-114573895D01*
X214212639Y-114573894D01*
X213995185Y-114463096D01*
X213763076Y-114387679D01*
X213763074Y-114387678D01*
X213763072Y-114387678D01*
X213594769Y-114361021D01*
X213522027Y-114349500D01*
X213277973Y-114349500D01*
X213222093Y-114358350D01*
X213036927Y-114387678D01*
X212804812Y-114463097D01*
X212587357Y-114573896D01*
X212389923Y-114717339D01*
X212389918Y-114717343D01*
X212217343Y-114889918D01*
X212217339Y-114889923D01*
X212073896Y-115087357D01*
X211963097Y-115304812D01*
X211887678Y-115536927D01*
X211849500Y-115777973D01*
X186636946Y-115777973D01*
X193637778Y-108777141D01*
X193637782Y-108777139D01*
X193777139Y-108637782D01*
X193886632Y-108473914D01*
X193962051Y-108291835D01*
X194000500Y-108098541D01*
X194000500Y-92882648D01*
X236729500Y-92882648D01*
X236729500Y-93087351D01*
X236761522Y-93289534D01*
X236824781Y-93484223D01*
X236917715Y-93666613D01*
X237038028Y-93832213D01*
X237182786Y-93976971D01*
X237337749Y-94089556D01*
X237348390Y-94097287D01*
X237439840Y-94143883D01*
X237441080Y-94144515D01*
X237491876Y-94192490D01*
X237508671Y-94260311D01*
X237486134Y-94326446D01*
X237441080Y-94365485D01*
X237348386Y-94412715D01*
X237182786Y-94533028D01*
X237038028Y-94677786D01*
X236917715Y-94843386D01*
X236824781Y-95025776D01*
X236761522Y-95220465D01*
X236729500Y-95422648D01*
X236729500Y-95627351D01*
X236761522Y-95829534D01*
X236824781Y-96024223D01*
X236917715Y-96206613D01*
X237038028Y-96372213D01*
X237182786Y-96516971D01*
X237337749Y-96629556D01*
X237348390Y-96637287D01*
X237439840Y-96683883D01*
X237441080Y-96684515D01*
X237491876Y-96732490D01*
X237508671Y-96800311D01*
X237486134Y-96866446D01*
X237441080Y-96905485D01*
X237348386Y-96952715D01*
X237182786Y-97073028D01*
X237038028Y-97217786D01*
X236917715Y-97383386D01*
X236824781Y-97565776D01*
X236761522Y-97760465D01*
X236729500Y-97962648D01*
X236729500Y-98167351D01*
X236761522Y-98369534D01*
X236824781Y-98564223D01*
X236917715Y-98746613D01*
X237038028Y-98912213D01*
X237182786Y-99056971D01*
X237337749Y-99169556D01*
X237348390Y-99177287D01*
X237439840Y-99223883D01*
X237441080Y-99224515D01*
X237491876Y-99272490D01*
X237508671Y-99340311D01*
X237486134Y-99406446D01*
X237441080Y-99445485D01*
X237348386Y-99492715D01*
X237182786Y-99613028D01*
X237038028Y-99757786D01*
X236917715Y-99923386D01*
X236824781Y-100105776D01*
X236761522Y-100300465D01*
X236729500Y-100502648D01*
X236729500Y-100707351D01*
X236761522Y-100909534D01*
X236824781Y-101104223D01*
X236917715Y-101286613D01*
X237038028Y-101452213D01*
X237182786Y-101596971D01*
X237337749Y-101709556D01*
X237348390Y-101717287D01*
X237439840Y-101763883D01*
X237441080Y-101764515D01*
X237491876Y-101812490D01*
X237508671Y-101880311D01*
X237486134Y-101946446D01*
X237441080Y-101985485D01*
X237348386Y-102032715D01*
X237182786Y-102153028D01*
X237038028Y-102297786D01*
X236917715Y-102463386D01*
X236824781Y-102645776D01*
X236761522Y-102840465D01*
X236729500Y-103042648D01*
X236729500Y-103247351D01*
X236761522Y-103449534D01*
X236824781Y-103644223D01*
X236917715Y-103826613D01*
X237038028Y-103992213D01*
X237182786Y-104136971D01*
X237337749Y-104249556D01*
X237348390Y-104257287D01*
X237439840Y-104303883D01*
X237441080Y-104304515D01*
X237491876Y-104352490D01*
X237508671Y-104420311D01*
X237486134Y-104486446D01*
X237441080Y-104525485D01*
X237348386Y-104572715D01*
X237182786Y-104693028D01*
X237038028Y-104837786D01*
X236917715Y-105003386D01*
X236824781Y-105185776D01*
X236761522Y-105380465D01*
X236729500Y-105582648D01*
X236729500Y-105787351D01*
X236761522Y-105989534D01*
X236824781Y-106184223D01*
X236917715Y-106366613D01*
X237038028Y-106532213D01*
X237182786Y-106676971D01*
X237337749Y-106789556D01*
X237348390Y-106797287D01*
X237464607Y-106856503D01*
X237530776Y-106890218D01*
X237530778Y-106890218D01*
X237530781Y-106890220D01*
X237635137Y-106924127D01*
X237725465Y-106953477D01*
X237826557Y-106969488D01*
X237927648Y-106985500D01*
X237927649Y-106985500D01*
X238132351Y-106985500D01*
X238132352Y-106985500D01*
X238334534Y-106953477D01*
X238529219Y-106890220D01*
X238711610Y-106797287D01*
X238840161Y-106703890D01*
X238877213Y-106676971D01*
X238877215Y-106676968D01*
X238877219Y-106676966D01*
X239021966Y-106532219D01*
X239021968Y-106532215D01*
X239021971Y-106532213D01*
X239074732Y-106459590D01*
X239142287Y-106366610D01*
X239235220Y-106184219D01*
X239298477Y-105989534D01*
X239330500Y-105787352D01*
X239330500Y-105582648D01*
X239298477Y-105380466D01*
X239235220Y-105185781D01*
X239235218Y-105185778D01*
X239235218Y-105185776D01*
X239201503Y-105119607D01*
X239142287Y-105003390D01*
X239134556Y-104992749D01*
X239021971Y-104837786D01*
X238877213Y-104693028D01*
X238711614Y-104572715D01*
X238705006Y-104569348D01*
X238618917Y-104525483D01*
X238568123Y-104477511D01*
X238551328Y-104409690D01*
X238573865Y-104343555D01*
X238618917Y-104304516D01*
X238711610Y-104257287D01*
X238840160Y-104163891D01*
X238877213Y-104136971D01*
X238877215Y-104136968D01*
X238877219Y-104136966D01*
X239021966Y-103992219D01*
X239021968Y-103992215D01*
X239021971Y-103992213D01*
X239074732Y-103919590D01*
X239142287Y-103826610D01*
X239235220Y-103644219D01*
X239298477Y-103449534D01*
X239330500Y-103247352D01*
X239330500Y-103042648D01*
X239298477Y-102840466D01*
X239235220Y-102645781D01*
X239235218Y-102645778D01*
X239235218Y-102645776D01*
X239201503Y-102579607D01*
X239142287Y-102463390D01*
X239134556Y-102452749D01*
X239021971Y-102297786D01*
X238877213Y-102153028D01*
X238711614Y-102032715D01*
X238705006Y-102029348D01*
X238618917Y-101985483D01*
X238568123Y-101937511D01*
X238551328Y-101869690D01*
X238573865Y-101803555D01*
X238618917Y-101764516D01*
X238711610Y-101717287D01*
X238840160Y-101623891D01*
X238877213Y-101596971D01*
X238877215Y-101596968D01*
X238877219Y-101596966D01*
X239021966Y-101452219D01*
X239021968Y-101452215D01*
X239021971Y-101452213D01*
X239074732Y-101379590D01*
X239142287Y-101286610D01*
X239235220Y-101104219D01*
X239298477Y-100909534D01*
X239330500Y-100707352D01*
X239330500Y-100502648D01*
X239298477Y-100300466D01*
X239235220Y-100105781D01*
X239235218Y-100105778D01*
X239235218Y-100105776D01*
X239201503Y-100039607D01*
X239142287Y-99923390D01*
X239134556Y-99912749D01*
X239021971Y-99757786D01*
X238877213Y-99613028D01*
X238711614Y-99492715D01*
X238705006Y-99489348D01*
X238618917Y-99445483D01*
X238568123Y-99397511D01*
X238551328Y-99329690D01*
X238573865Y-99263555D01*
X238618917Y-99224516D01*
X238711610Y-99177287D01*
X238732770Y-99161913D01*
X238877213Y-99056971D01*
X238877215Y-99056968D01*
X238877219Y-99056966D01*
X239021966Y-98912219D01*
X239021968Y-98912215D01*
X239021971Y-98912213D01*
X239074732Y-98839590D01*
X239142287Y-98746610D01*
X239235220Y-98564219D01*
X239298477Y-98369534D01*
X239330500Y-98167352D01*
X239330500Y-97962648D01*
X239298477Y-97760466D01*
X239235220Y-97565781D01*
X239235218Y-97565778D01*
X239235218Y-97565776D01*
X239201503Y-97499607D01*
X239142287Y-97383390D01*
X239134556Y-97372749D01*
X239021971Y-97217786D01*
X238877213Y-97073028D01*
X238711614Y-96952715D01*
X238705006Y-96949348D01*
X238618917Y-96905483D01*
X238568123Y-96857511D01*
X238551328Y-96789690D01*
X238573865Y-96723555D01*
X238618917Y-96684516D01*
X238711610Y-96637287D01*
X238732770Y-96621913D01*
X238877213Y-96516971D01*
X238877215Y-96516968D01*
X238877219Y-96516966D01*
X239021966Y-96372219D01*
X239021968Y-96372215D01*
X239021971Y-96372213D01*
X239090317Y-96278141D01*
X239142287Y-96206610D01*
X239235220Y-96024219D01*
X239298477Y-95829534D01*
X239330500Y-95627352D01*
X239330500Y-95422648D01*
X239298477Y-95220466D01*
X239235220Y-95025781D01*
X239235218Y-95025778D01*
X239235218Y-95025776D01*
X239201503Y-94959607D01*
X239142287Y-94843390D01*
X239134556Y-94832749D01*
X239021971Y-94677786D01*
X238877213Y-94533028D01*
X238711614Y-94412715D01*
X238705006Y-94409348D01*
X238618917Y-94365483D01*
X238568123Y-94317511D01*
X238551328Y-94249690D01*
X238573865Y-94183555D01*
X238618917Y-94144516D01*
X238711610Y-94097287D01*
X238732770Y-94081913D01*
X238877213Y-93976971D01*
X238877215Y-93976968D01*
X238877219Y-93976966D01*
X239021966Y-93832219D01*
X239021968Y-93832215D01*
X239021971Y-93832213D01*
X239074732Y-93759590D01*
X239142287Y-93666610D01*
X239235220Y-93484219D01*
X239298477Y-93289534D01*
X239330500Y-93087352D01*
X239330500Y-92882648D01*
X239298477Y-92680466D01*
X239235220Y-92485781D01*
X239235218Y-92485778D01*
X239235218Y-92485776D01*
X239201503Y-92419607D01*
X239142287Y-92303390D01*
X239134556Y-92292749D01*
X239021971Y-92137786D01*
X238877213Y-91993028D01*
X238711613Y-91872715D01*
X238711612Y-91872714D01*
X238711610Y-91872713D01*
X238654653Y-91843691D01*
X238529223Y-91779781D01*
X238334534Y-91716522D01*
X238159995Y-91688878D01*
X238132352Y-91684500D01*
X237927648Y-91684500D01*
X237903329Y-91688351D01*
X237725465Y-91716522D01*
X237530776Y-91779781D01*
X237348386Y-91872715D01*
X237182786Y-91993028D01*
X237038028Y-92137786D01*
X236917715Y-92303386D01*
X236824781Y-92485776D01*
X236761522Y-92680465D01*
X236729500Y-92882648D01*
X194000500Y-92882648D01*
X194000500Y-74276459D01*
X193970933Y-74127815D01*
X193962051Y-74083164D01*
X193918008Y-73976835D01*
X193915327Y-73970363D01*
X193886635Y-73901092D01*
X193886628Y-73901079D01*
X193777139Y-73737218D01*
X193777136Y-73737214D01*
X193634686Y-73594764D01*
X193634655Y-73594735D01*
X191096717Y-71056797D01*
X191063232Y-70995474D01*
X191061925Y-70988513D01*
X191059449Y-70972883D01*
X191038477Y-70840466D01*
X190975220Y-70645781D01*
X190975218Y-70645778D01*
X190975218Y-70645776D01*
X190941503Y-70579607D01*
X190882287Y-70463390D01*
X190874556Y-70452749D01*
X190761971Y-70297786D01*
X190617213Y-70153028D01*
X190451611Y-70032713D01*
X190358369Y-69985203D01*
X190307574Y-69937229D01*
X190290779Y-69869407D01*
X190313317Y-69803273D01*
X190358371Y-69764234D01*
X190451347Y-69716861D01*
X190616894Y-69596582D01*
X190616895Y-69596582D01*
X190761582Y-69451895D01*
X190761582Y-69451894D01*
X190881859Y-69286349D01*
X190974755Y-69104029D01*
X191037990Y-68909413D01*
X191046609Y-68855000D01*
X190203012Y-68855000D01*
X190235925Y-68797993D01*
X190270000Y-68670826D01*
X190270000Y-68539174D01*
X190235925Y-68412007D01*
X190203012Y-68355000D01*
X191046609Y-68355000D01*
X191037990Y-68300586D01*
X190974755Y-68105970D01*
X190881859Y-67923650D01*
X190761582Y-67758105D01*
X190761582Y-67758104D01*
X190616895Y-67613417D01*
X190451349Y-67493140D01*
X190358370Y-67445765D01*
X190307574Y-67397790D01*
X190290779Y-67329969D01*
X190313316Y-67263835D01*
X190358370Y-67224795D01*
X190451610Y-67177287D01*
X190472770Y-67161913D01*
X190617213Y-67056971D01*
X190617215Y-67056968D01*
X190617219Y-67056966D01*
X190761966Y-66912219D01*
X190761968Y-66912215D01*
X190761971Y-66912213D01*
X190814732Y-66839590D01*
X190882287Y-66746610D01*
X190975220Y-66564219D01*
X191038477Y-66369534D01*
X191070500Y-66167352D01*
X191070500Y-65962648D01*
X191038477Y-65760466D01*
X190975220Y-65565781D01*
X190975218Y-65565778D01*
X190975218Y-65565776D01*
X190913649Y-65444942D01*
X190882287Y-65383390D01*
X190855030Y-65345873D01*
X190761971Y-65217786D01*
X190617213Y-65073028D01*
X190451614Y-64952715D01*
X190445006Y-64949348D01*
X190358917Y-64905483D01*
X190308123Y-64857511D01*
X190291328Y-64789690D01*
X190313865Y-64723555D01*
X190358917Y-64684516D01*
X190451610Y-64637287D01*
X190472770Y-64621913D01*
X190617213Y-64516971D01*
X190617215Y-64516968D01*
X190617219Y-64516966D01*
X190761966Y-64372219D01*
X190761968Y-64372215D01*
X190761971Y-64372213D01*
X190814732Y-64299590D01*
X190882287Y-64206610D01*
X190975220Y-64024219D01*
X191038477Y-63829534D01*
X191070500Y-63627352D01*
X191070500Y-63422648D01*
X191038477Y-63220466D01*
X190975220Y-63025781D01*
X190975218Y-63025778D01*
X190975218Y-63025776D01*
X190941503Y-62959607D01*
X190882287Y-62843390D01*
X190874556Y-62832749D01*
X190761971Y-62677786D01*
X190617213Y-62533028D01*
X190451614Y-62412715D01*
X190445006Y-62409348D01*
X190358917Y-62365483D01*
X190308123Y-62317511D01*
X190291328Y-62249690D01*
X190313865Y-62183555D01*
X190358917Y-62144516D01*
X190451610Y-62097287D01*
X190472770Y-62081913D01*
X190617213Y-61976971D01*
X190617215Y-61976968D01*
X190617219Y-61976966D01*
X190761966Y-61832219D01*
X190761968Y-61832215D01*
X190761971Y-61832213D01*
X190814732Y-61759590D01*
X190882287Y-61666610D01*
X190975220Y-61484219D01*
X191038477Y-61289534D01*
X191070500Y-61087352D01*
X191070500Y-60882648D01*
X191038477Y-60680466D01*
X190975220Y-60485781D01*
X190975218Y-60485778D01*
X190975218Y-60485776D01*
X190941503Y-60419607D01*
X190882287Y-60303390D01*
X190874556Y-60292749D01*
X190761971Y-60137786D01*
X190617213Y-59993028D01*
X190451613Y-59872715D01*
X190451612Y-59872714D01*
X190451610Y-59872713D01*
X190394653Y-59843691D01*
X190269223Y-59779781D01*
X190074534Y-59716522D01*
X189899995Y-59688878D01*
X189872352Y-59684500D01*
X189667648Y-59684500D01*
X189643329Y-59688351D01*
X189465465Y-59716522D01*
X189270776Y-59779781D01*
X189088386Y-59872715D01*
X188922786Y-59993028D01*
X188778028Y-60137786D01*
X188657715Y-60303386D01*
X188564781Y-60485776D01*
X188501522Y-60680465D01*
X188469500Y-60882648D01*
X188469500Y-61087351D01*
X188501522Y-61289534D01*
X188564781Y-61484223D01*
X188657715Y-61666613D01*
X188778028Y-61832213D01*
X188922786Y-61976971D01*
X189077749Y-62089556D01*
X189088390Y-62097287D01*
X189179840Y-62143883D01*
X189181080Y-62144515D01*
X189231876Y-62192490D01*
X189248671Y-62260311D01*
X189226134Y-62326446D01*
X189181080Y-62365485D01*
X189088386Y-62412715D01*
X188922786Y-62533028D01*
X188778028Y-62677786D01*
X188657715Y-62843386D01*
X188564781Y-63025776D01*
X188501522Y-63220465D01*
X188469500Y-63422648D01*
X188469500Y-63627351D01*
X188501522Y-63829534D01*
X188564781Y-64024223D01*
X188657715Y-64206613D01*
X188778028Y-64372213D01*
X188922786Y-64516971D01*
X189077749Y-64629556D01*
X189088390Y-64637287D01*
X189179840Y-64683883D01*
X189181080Y-64684515D01*
X189231876Y-64732490D01*
X189248671Y-64800311D01*
X189226134Y-64866446D01*
X189181080Y-64905485D01*
X189088386Y-64952715D01*
X188922786Y-65073028D01*
X188778028Y-65217786D01*
X188657715Y-65383386D01*
X188564781Y-65565776D01*
X188501522Y-65760465D01*
X188469500Y-65962648D01*
X188469500Y-66167351D01*
X188501522Y-66369534D01*
X188564781Y-66564223D01*
X188657715Y-66746613D01*
X188778028Y-66912213D01*
X188922786Y-67056971D01*
X189077749Y-67169556D01*
X189088390Y-67177287D01*
X189160424Y-67213990D01*
X189181629Y-67224795D01*
X189232425Y-67272770D01*
X189249220Y-67340591D01*
X189226682Y-67406726D01*
X189181629Y-67445765D01*
X189088650Y-67493140D01*
X188923105Y-67613417D01*
X188923104Y-67613417D01*
X188778417Y-67758104D01*
X188778410Y-67758113D01*
X188739450Y-67811736D01*
X188684120Y-67854402D01*
X188614506Y-67860380D01*
X188552712Y-67827773D01*
X188551452Y-67826531D01*
X177784209Y-57059289D01*
X177784206Y-57059285D01*
X177784206Y-57059286D01*
X177777139Y-57052219D01*
X177777139Y-57052218D01*
X177637782Y-56912861D01*
X177637781Y-56912860D01*
X177637780Y-56912859D01*
X177473920Y-56803371D01*
X177473907Y-56803364D01*
X177349135Y-56751683D01*
X177349133Y-56751682D01*
X177342097Y-56748768D01*
X177291836Y-56727949D01*
X177195188Y-56708724D01*
X177190699Y-56707831D01*
X177098544Y-56689500D01*
X177098541Y-56689500D01*
X176931469Y-56689500D01*
X176908980Y-56682896D01*
X176885639Y-56680720D01*
X176872803Y-56672273D01*
X176864430Y-56669815D01*
X176855035Y-56663141D01*
X176849109Y-56658502D01*
X176812365Y-56621758D01*
X176670542Y-56518718D01*
X176668770Y-56517331D01*
X176649686Y-56490658D01*
X176629653Y-56464678D01*
X176629455Y-56462380D01*
X176628115Y-56460507D01*
X176626481Y-56427754D01*
X176623674Y-56395065D01*
X176624749Y-56393026D01*
X176624635Y-56390724D01*
X176640971Y-56362281D01*
X176656279Y-56333270D01*
X176658978Y-56330930D01*
X176659434Y-56330138D01*
X176660578Y-56329544D01*
X176672319Y-56319372D01*
X176812035Y-56217862D01*
X176812041Y-56217857D01*
X176967857Y-56062041D01*
X177097386Y-55883760D01*
X177197432Y-55687410D01*
X177265526Y-55477838D01*
X177265526Y-55477835D01*
X177277855Y-55400000D01*
X176048482Y-55400000D01*
X176059111Y-55381591D01*
X176100000Y-55228991D01*
X176100000Y-55071009D01*
X176059111Y-54918409D01*
X176048482Y-54900000D01*
X177277855Y-54900000D01*
X177265526Y-54822164D01*
X177265526Y-54822161D01*
X177197432Y-54612589D01*
X177097386Y-54416239D01*
X176967857Y-54237958D01*
X176812041Y-54082142D01*
X176672318Y-53980627D01*
X176656447Y-53960044D01*
X176637679Y-53942069D01*
X176635458Y-53932825D01*
X176629653Y-53925297D01*
X176627429Y-53899403D01*
X176621358Y-53874133D01*
X176624487Y-53865155D01*
X176623674Y-53855684D01*
X176635801Y-53832700D01*
X176644357Y-53808157D01*
X176653737Y-53798707D01*
X176656280Y-53793889D01*
X176668770Y-53782668D01*
X176670525Y-53781294D01*
X176812365Y-53678242D01*
X176849109Y-53641497D01*
X176855035Y-53636859D01*
X176880789Y-53626614D01*
X176905111Y-53613334D01*
X176917535Y-53611998D01*
X176919957Y-53611035D01*
X176922279Y-53611488D01*
X176931469Y-53610500D01*
X186424218Y-53610500D01*
X186491257Y-53630185D01*
X186511898Y-53646818D01*
X213787860Y-80922781D01*
X213787861Y-80922782D01*
X213865544Y-81000465D01*
X213927219Y-81062140D01*
X213965332Y-81087606D01*
X214091086Y-81171632D01*
X214197745Y-81215811D01*
X214273164Y-81247051D01*
X214459029Y-81284022D01*
X214466454Y-81285499D01*
X214466457Y-81285500D01*
X214466459Y-81285500D01*
X237154238Y-81285500D01*
X237221277Y-81305185D01*
X237227119Y-81309179D01*
X237348390Y-81397287D01*
X237420424Y-81433990D01*
X237441629Y-81444795D01*
X237492425Y-81492770D01*
X237509220Y-81560591D01*
X237486682Y-81626726D01*
X237441629Y-81665765D01*
X237348650Y-81713140D01*
X237183105Y-81833417D01*
X237183104Y-81833417D01*
X237038417Y-81978104D01*
X237038417Y-81978105D01*
X236918140Y-82143650D01*
X236825244Y-82325970D01*
X236762009Y-82520586D01*
X236753391Y-82575000D01*
X237596988Y-82575000D01*
X237564075Y-82632007D01*
X237530000Y-82759174D01*
X237530000Y-82890826D01*
X237564075Y-83017993D01*
X237596988Y-83075000D01*
X236753391Y-83075000D01*
X236762009Y-83129413D01*
X236825244Y-83324029D01*
X236918140Y-83506349D01*
X237038417Y-83671894D01*
X237038417Y-83671895D01*
X237183104Y-83816582D01*
X237348650Y-83936859D01*
X237442179Y-83984515D01*
X237492975Y-84032490D01*
X237509770Y-84100311D01*
X237487232Y-84166446D01*
X237442179Y-84205485D01*
X237348650Y-84253140D01*
X237183105Y-84373417D01*
X237183104Y-84373417D01*
X237038417Y-84518104D01*
X237038417Y-84518105D01*
X236918140Y-84683650D01*
X236825244Y-84865970D01*
X236762009Y-85060586D01*
X236753391Y-85115000D01*
X237596988Y-85115000D01*
X237564075Y-85172007D01*
X237530000Y-85299174D01*
X237530000Y-85430826D01*
X237564075Y-85557993D01*
X237596988Y-85615000D01*
X236753391Y-85615000D01*
X236762009Y-85669413D01*
X236825244Y-85864029D01*
X236918140Y-86046349D01*
X237038417Y-86211894D01*
X237038417Y-86211895D01*
X237183104Y-86356582D01*
X237348652Y-86476861D01*
X237441628Y-86524234D01*
X237492425Y-86572208D01*
X237509220Y-86640029D01*
X237486683Y-86706164D01*
X237441630Y-86745203D01*
X237348388Y-86792713D01*
X237182786Y-86913028D01*
X237038028Y-87057786D01*
X236917715Y-87223386D01*
X236824781Y-87405776D01*
X236761522Y-87600465D01*
X236729500Y-87802648D01*
X236729500Y-88007351D01*
X236761522Y-88209534D01*
X236824781Y-88404223D01*
X236917715Y-88586613D01*
X237038028Y-88752213D01*
X237182786Y-88896971D01*
X237337749Y-89009556D01*
X237348390Y-89017287D01*
X237441080Y-89064515D01*
X237530776Y-89110218D01*
X237530778Y-89110218D01*
X237530781Y-89110220D01*
X237635137Y-89144127D01*
X237725465Y-89173477D01*
X237744697Y-89176523D01*
X237927648Y-89205500D01*
X237927649Y-89205500D01*
X238132351Y-89205500D01*
X238132352Y-89205500D01*
X238334534Y-89173477D01*
X238529219Y-89110220D01*
X238711610Y-89017287D01*
X238804590Y-88949732D01*
X238877213Y-88896971D01*
X238877215Y-88896968D01*
X238877219Y-88896966D01*
X239021966Y-88752219D01*
X239021968Y-88752215D01*
X239021971Y-88752213D01*
X239074732Y-88679590D01*
X239142287Y-88586610D01*
X239235220Y-88404219D01*
X239298477Y-88209534D01*
X239330500Y-88007352D01*
X239330500Y-87802648D01*
X239298477Y-87600466D01*
X239235220Y-87405781D01*
X239235218Y-87405778D01*
X239235218Y-87405776D01*
X239201503Y-87339607D01*
X239142287Y-87223390D01*
X239109618Y-87178424D01*
X239021971Y-87057786D01*
X238877213Y-86913028D01*
X238711611Y-86792713D01*
X238618369Y-86745203D01*
X238567574Y-86697229D01*
X238550779Y-86629407D01*
X238573317Y-86563273D01*
X238618371Y-86524234D01*
X238711347Y-86476861D01*
X238876894Y-86356582D01*
X238876895Y-86356582D01*
X239021582Y-86211895D01*
X239021582Y-86211894D01*
X239141859Y-86046349D01*
X239234755Y-85864029D01*
X239297990Y-85669413D01*
X239306609Y-85615000D01*
X238463012Y-85615000D01*
X238495925Y-85557993D01*
X238530000Y-85430826D01*
X238530000Y-85299174D01*
X238495925Y-85172007D01*
X238463012Y-85115000D01*
X239306609Y-85115000D01*
X239297990Y-85060586D01*
X239234755Y-84865970D01*
X239141859Y-84683650D01*
X239021582Y-84518105D01*
X239021582Y-84518104D01*
X238876895Y-84373417D01*
X238711349Y-84253140D01*
X238617820Y-84205485D01*
X238567024Y-84157511D01*
X238550229Y-84089690D01*
X238572766Y-84023555D01*
X238617820Y-83984515D01*
X238711349Y-83936859D01*
X238876894Y-83816582D01*
X238876895Y-83816582D01*
X239021582Y-83671895D01*
X239021582Y-83671894D01*
X239141859Y-83506349D01*
X239234755Y-83324029D01*
X239297990Y-83129413D01*
X239306609Y-83075000D01*
X238463012Y-83075000D01*
X238495925Y-83017993D01*
X238530000Y-82890826D01*
X238530000Y-82759174D01*
X238495925Y-82632007D01*
X238463012Y-82575000D01*
X239306609Y-82575000D01*
X239297990Y-82520586D01*
X239234755Y-82325970D01*
X239141859Y-82143650D01*
X239021582Y-81978105D01*
X239021582Y-81978104D01*
X238876895Y-81833417D01*
X238711349Y-81713140D01*
X238618370Y-81665765D01*
X238567574Y-81617790D01*
X238550779Y-81549969D01*
X238573316Y-81483835D01*
X238618370Y-81444795D01*
X238711610Y-81397287D01*
X238732770Y-81381913D01*
X238877213Y-81276971D01*
X238877215Y-81276968D01*
X238877219Y-81276966D01*
X239021966Y-81132219D01*
X239021968Y-81132215D01*
X239021971Y-81132213D01*
X239117690Y-81000465D01*
X239142287Y-80966610D01*
X239235220Y-80784219D01*
X239298477Y-80589534D01*
X239330500Y-80387352D01*
X239330500Y-80182648D01*
X239307356Y-80036523D01*
X239298477Y-79980465D01*
X239264951Y-79877284D01*
X239235220Y-79785781D01*
X239235218Y-79785778D01*
X239235218Y-79785776D01*
X239201503Y-79719607D01*
X239142287Y-79603390D01*
X239134556Y-79592749D01*
X239021971Y-79437786D01*
X238877213Y-79293028D01*
X238711614Y-79172715D01*
X238705006Y-79169348D01*
X238618917Y-79125483D01*
X238568123Y-79077511D01*
X238551328Y-79009690D01*
X238573865Y-78943555D01*
X238618917Y-78904516D01*
X238711610Y-78857287D01*
X238732770Y-78841913D01*
X238877213Y-78736971D01*
X238877215Y-78736968D01*
X238877219Y-78736966D01*
X239021966Y-78592219D01*
X239021968Y-78592215D01*
X239021971Y-78592213D01*
X239117690Y-78460465D01*
X239142287Y-78426610D01*
X239235220Y-78244219D01*
X239298477Y-78049534D01*
X239330500Y-77847352D01*
X239330500Y-77642648D01*
X239307356Y-77496523D01*
X239298477Y-77440465D01*
X239264951Y-77337284D01*
X239235220Y-77245781D01*
X239235218Y-77245778D01*
X239235218Y-77245776D01*
X239201503Y-77179607D01*
X239142287Y-77063390D01*
X239134556Y-77052749D01*
X239021971Y-76897786D01*
X238877213Y-76753028D01*
X238711614Y-76632715D01*
X238705006Y-76629348D01*
X238618917Y-76585483D01*
X238568123Y-76537511D01*
X238551328Y-76469690D01*
X238573865Y-76403555D01*
X238618917Y-76364516D01*
X238711610Y-76317287D01*
X238732770Y-76301913D01*
X238877213Y-76196971D01*
X238877215Y-76196968D01*
X238877219Y-76196966D01*
X239021966Y-76052219D01*
X239021968Y-76052215D01*
X239021971Y-76052213D01*
X239117690Y-75920465D01*
X239142287Y-75886610D01*
X239235220Y-75704219D01*
X239298477Y-75509534D01*
X239330500Y-75307352D01*
X239330500Y-75102648D01*
X239307356Y-74956523D01*
X239298477Y-74900465D01*
X239250595Y-74753101D01*
X239235220Y-74705781D01*
X239235218Y-74705778D01*
X239235218Y-74705776D01*
X239201503Y-74639607D01*
X239142287Y-74523390D01*
X239117101Y-74488724D01*
X239021971Y-74357786D01*
X238877213Y-74213028D01*
X238711614Y-74092715D01*
X238692869Y-74083164D01*
X238618917Y-74045483D01*
X238568123Y-73997511D01*
X238551328Y-73929690D01*
X238573865Y-73863555D01*
X238618917Y-73824516D01*
X238711610Y-73777287D01*
X238766766Y-73737214D01*
X238877213Y-73656971D01*
X238877215Y-73656968D01*
X238877219Y-73656966D01*
X239021966Y-73512219D01*
X239021968Y-73512215D01*
X239021971Y-73512213D01*
X239074732Y-73439590D01*
X239142287Y-73346610D01*
X239235220Y-73164219D01*
X239298477Y-72969534D01*
X239330500Y-72767352D01*
X239330500Y-72562648D01*
X239298477Y-72360466D01*
X239283718Y-72315044D01*
X239269127Y-72270137D01*
X239235220Y-72165781D01*
X239235218Y-72165778D01*
X239235218Y-72165776D01*
X239200122Y-72096898D01*
X239142287Y-71983390D01*
X239134556Y-71972749D01*
X239021971Y-71817786D01*
X238877219Y-71673034D01*
X238840930Y-71646669D01*
X238798264Y-71591339D01*
X238792285Y-71521726D01*
X238824890Y-71459931D01*
X238885728Y-71425573D01*
X238900562Y-71423060D01*
X238937483Y-71419091D01*
X239072328Y-71368797D01*
X239072327Y-71368797D01*
X239072331Y-71368796D01*
X239187546Y-71282546D01*
X239273796Y-71167331D01*
X239324091Y-71032483D01*
X239330500Y-70972873D01*
X239330499Y-69277128D01*
X239324091Y-69217517D01*
X239304499Y-69164989D01*
X239273797Y-69082671D01*
X239273793Y-69082664D01*
X239187547Y-68967455D01*
X239187544Y-68967452D01*
X239072335Y-68881206D01*
X239072328Y-68881202D01*
X238937482Y-68830908D01*
X238937483Y-68830908D01*
X238877883Y-68824501D01*
X238877881Y-68824500D01*
X238877873Y-68824500D01*
X238877864Y-68824500D01*
X237182129Y-68824500D01*
X237182123Y-68824501D01*
X237122516Y-68830908D01*
X236987671Y-68881202D01*
X236987664Y-68881206D01*
X236872455Y-68967452D01*
X236872452Y-68967455D01*
X236786206Y-69082664D01*
X236786202Y-69082671D01*
X236735908Y-69217517D01*
X236729501Y-69277116D01*
X236729501Y-69277123D01*
X236729500Y-69277135D01*
X236729500Y-70972870D01*
X236729501Y-70972876D01*
X236735908Y-71032483D01*
X236786202Y-71167328D01*
X236786206Y-71167335D01*
X236872452Y-71282544D01*
X236872455Y-71282547D01*
X236987664Y-71368793D01*
X236987671Y-71368797D01*
X237032618Y-71385561D01*
X237122517Y-71419091D01*
X237159441Y-71423060D01*
X237223989Y-71449796D01*
X237263838Y-71507188D01*
X237266333Y-71577013D01*
X237230681Y-71637102D01*
X237219071Y-71646666D01*
X237182784Y-71673030D01*
X237038028Y-71817786D01*
X236917715Y-71983386D01*
X236824781Y-72165776D01*
X236761522Y-72360465D01*
X236729500Y-72562648D01*
X236729500Y-72767351D01*
X236761522Y-72969534D01*
X236824781Y-73164223D01*
X236917715Y-73346613D01*
X237038028Y-73512213D01*
X237182786Y-73656971D01*
X237293239Y-73737218D01*
X237348390Y-73777287D01*
X237439840Y-73823883D01*
X237441080Y-73824515D01*
X237491876Y-73872490D01*
X237508671Y-73940311D01*
X237486134Y-74006446D01*
X237441080Y-74045485D01*
X237348386Y-74092715D01*
X237182786Y-74213028D01*
X237038028Y-74357786D01*
X236917715Y-74523386D01*
X236824781Y-74705776D01*
X236761522Y-74900465D01*
X236729500Y-75102648D01*
X236729500Y-75307351D01*
X236761522Y-75509534D01*
X236824781Y-75704223D01*
X236917715Y-75886613D01*
X237038028Y-76052213D01*
X237182786Y-76196971D01*
X237337749Y-76309556D01*
X237348390Y-76317287D01*
X237439840Y-76363883D01*
X237441080Y-76364515D01*
X237491876Y-76412490D01*
X237508671Y-76480311D01*
X237486134Y-76546446D01*
X237441080Y-76585485D01*
X237348386Y-76632715D01*
X237182786Y-76753028D01*
X237038028Y-76897786D01*
X236917715Y-77063386D01*
X236824781Y-77245776D01*
X236761522Y-77440465D01*
X236729500Y-77642648D01*
X236729500Y-77847351D01*
X236761522Y-78049534D01*
X236824781Y-78244223D01*
X236917715Y-78426613D01*
X237038028Y-78592213D01*
X237182786Y-78736971D01*
X237337749Y-78849556D01*
X237348390Y-78857287D01*
X237439840Y-78903883D01*
X237441080Y-78904515D01*
X237491876Y-78952490D01*
X237508671Y-79020311D01*
X237486134Y-79086446D01*
X237441080Y-79125485D01*
X237348386Y-79172715D01*
X237227123Y-79260818D01*
X237161317Y-79284298D01*
X237154238Y-79284500D01*
X215030783Y-79284500D01*
X214963744Y-79264815D01*
X214943102Y-79248181D01*
X187667141Y-51972220D01*
X187667139Y-51972218D01*
X187577102Y-51882181D01*
X187543618Y-51820857D01*
X187548602Y-51751166D01*
X187590474Y-51695232D01*
X187655939Y-51670816D01*
X187664784Y-51670500D01*
X241175500Y-51670500D01*
X241242539Y-51690185D01*
G37*
%TD.AperFunction*%
%TA.AperFunction,Conductor*%
G36*
X186642539Y-41720185D02*
G01*
X186688294Y-41772989D01*
X186699500Y-41824500D01*
X186699500Y-51235892D01*
X186723962Y-51327187D01*
X186733609Y-51363188D01*
X186733609Y-51363189D01*
X186768430Y-51423500D01*
X186784903Y-51491400D01*
X186762051Y-51557427D01*
X186707130Y-51600617D01*
X186661043Y-51609500D01*
X177152627Y-51609500D01*
X177085588Y-51589815D01*
X177039833Y-51537011D01*
X177029889Y-51467853D01*
X177058914Y-51404297D01*
X177078316Y-51386234D01*
X177157187Y-51327190D01*
X177157190Y-51327187D01*
X177243350Y-51212093D01*
X177243354Y-51212086D01*
X177293596Y-51077379D01*
X177293598Y-51077372D01*
X177299999Y-51017844D01*
X177300000Y-51017827D01*
X177300000Y-50320000D01*
X176048482Y-50320000D01*
X176059111Y-50301591D01*
X176100000Y-50148991D01*
X176100000Y-49991009D01*
X176059111Y-49838409D01*
X176048482Y-49820000D01*
X177300000Y-49820000D01*
X177300000Y-49122172D01*
X177299999Y-49122155D01*
X177293598Y-49062627D01*
X177293596Y-49062620D01*
X177243354Y-48927913D01*
X177243350Y-48927906D01*
X177157190Y-48812812D01*
X177157187Y-48812809D01*
X177042093Y-48726649D01*
X177042086Y-48726645D01*
X176907379Y-48676403D01*
X176907372Y-48676401D01*
X176847844Y-48670000D01*
X175750000Y-48670000D01*
X175750000Y-49521517D01*
X175731591Y-49510889D01*
X175578991Y-49470000D01*
X175421009Y-49470000D01*
X175268409Y-49510889D01*
X175250000Y-49521517D01*
X175250000Y-48670000D01*
X174152155Y-48670000D01*
X174092627Y-48676401D01*
X174092620Y-48676403D01*
X173957913Y-48726645D01*
X173957906Y-48726649D01*
X173842812Y-48812809D01*
X173842809Y-48812812D01*
X173756649Y-48927906D01*
X173756645Y-48927913D01*
X173706403Y-49062620D01*
X173706401Y-49062627D01*
X173700000Y-49122155D01*
X173700000Y-49820000D01*
X174951518Y-49820000D01*
X174940889Y-49838409D01*
X174900000Y-49991009D01*
X174900000Y-50148991D01*
X174940889Y-50301591D01*
X174951518Y-50320000D01*
X173700000Y-50320000D01*
X173700000Y-51017844D01*
X173706401Y-51077372D01*
X173706403Y-51077379D01*
X173756645Y-51212086D01*
X173756649Y-51212093D01*
X173842809Y-51327187D01*
X173842812Y-51327190D01*
X173957906Y-51413350D01*
X173957913Y-51413354D01*
X174037968Y-51443213D01*
X174093902Y-51485084D01*
X174118319Y-51550549D01*
X174103467Y-51618822D01*
X174082317Y-51647075D01*
X174031756Y-51697636D01*
X174031752Y-51697641D01*
X173902187Y-51875974D01*
X173802104Y-52072393D01*
X173802103Y-52072396D01*
X173733985Y-52282047D01*
X173699500Y-52499778D01*
X173699500Y-52720221D01*
X173733985Y-52937952D01*
X173802103Y-53147603D01*
X173802104Y-53147606D01*
X173902187Y-53344025D01*
X174031752Y-53522358D01*
X174031756Y-53522363D01*
X174187636Y-53678243D01*
X174187641Y-53678247D01*
X174327680Y-53779991D01*
X174370346Y-53835320D01*
X174376325Y-53904934D01*
X174343720Y-53966729D01*
X174327681Y-53980627D01*
X174187959Y-54082142D01*
X174187958Y-54082142D01*
X174032142Y-54237958D01*
X173902613Y-54416239D01*
X173802567Y-54612589D01*
X173734473Y-54822161D01*
X173734473Y-54822164D01*
X173722145Y-54900000D01*
X174951518Y-54900000D01*
X174940889Y-54918409D01*
X174900000Y-55071009D01*
X174900000Y-55228991D01*
X174940889Y-55381591D01*
X174951518Y-55400000D01*
X173722145Y-55400000D01*
X173734473Y-55477835D01*
X173734473Y-55477838D01*
X173802567Y-55687410D01*
X173902613Y-55883760D01*
X174032142Y-56062041D01*
X174187958Y-56217857D01*
X174187964Y-56217862D01*
X174327680Y-56319372D01*
X174370346Y-56374702D01*
X174376325Y-56444315D01*
X174343719Y-56506110D01*
X174327681Y-56520008D01*
X174187636Y-56621756D01*
X174031756Y-56777636D01*
X174031752Y-56777641D01*
X173902187Y-56955974D01*
X173802104Y-57152393D01*
X173802103Y-57152396D01*
X173733985Y-57362047D01*
X173699500Y-57579778D01*
X173699500Y-57800221D01*
X173733985Y-58017952D01*
X173802103Y-58227603D01*
X173802104Y-58227606D01*
X173902187Y-58424025D01*
X174031752Y-58602358D01*
X174031756Y-58602363D01*
X174187636Y-58758243D01*
X174187641Y-58758247D01*
X174327680Y-58859991D01*
X174370346Y-58915320D01*
X174376325Y-58984934D01*
X174343720Y-59046729D01*
X174327681Y-59060627D01*
X174187959Y-59162142D01*
X174187958Y-59162142D01*
X174032142Y-59317958D01*
X173902613Y-59496239D01*
X173802567Y-59692589D01*
X173734473Y-59902161D01*
X173734473Y-59902164D01*
X173722145Y-59980000D01*
X174951518Y-59980000D01*
X174940889Y-59998409D01*
X174900000Y-60151009D01*
X174900000Y-60308991D01*
X174940889Y-60461591D01*
X174951518Y-60480000D01*
X173722145Y-60480000D01*
X173734473Y-60557835D01*
X173734473Y-60557838D01*
X173802567Y-60767410D01*
X173902613Y-60963760D01*
X174032142Y-61142041D01*
X174187958Y-61297857D01*
X174187964Y-61297862D01*
X174327680Y-61399372D01*
X174370346Y-61454702D01*
X174376325Y-61524315D01*
X174343719Y-61586110D01*
X174327681Y-61600008D01*
X174187636Y-61701756D01*
X174031756Y-61857636D01*
X174031752Y-61857641D01*
X173902187Y-62035974D01*
X173802104Y-62232393D01*
X173802103Y-62232396D01*
X173733985Y-62442047D01*
X173699500Y-62659778D01*
X173699500Y-62880221D01*
X173733985Y-63097952D01*
X173802103Y-63307603D01*
X173802104Y-63307606D01*
X173902187Y-63504025D01*
X174031752Y-63682358D01*
X174031756Y-63682363D01*
X174187636Y-63838243D01*
X174187641Y-63838247D01*
X174327254Y-63939682D01*
X174369920Y-63995012D01*
X174375899Y-64064625D01*
X174343293Y-64126420D01*
X174327254Y-64140318D01*
X174187641Y-64241752D01*
X174187636Y-64241756D01*
X174031756Y-64397636D01*
X174031752Y-64397641D01*
X173902187Y-64575974D01*
X173802104Y-64772393D01*
X173802103Y-64772396D01*
X173733985Y-64982047D01*
X173699500Y-65199778D01*
X173699500Y-65420221D01*
X173733985Y-65637952D01*
X173802103Y-65847603D01*
X173802104Y-65847606D01*
X173902187Y-66044025D01*
X174031752Y-66222358D01*
X174031756Y-66222363D01*
X174187636Y-66378243D01*
X174187641Y-66378247D01*
X174327254Y-66479682D01*
X174369920Y-66535012D01*
X174375899Y-66604625D01*
X174343293Y-66666420D01*
X174327254Y-66680318D01*
X174187641Y-66781752D01*
X174187636Y-66781756D01*
X174031756Y-66937636D01*
X174031752Y-66937641D01*
X173902187Y-67115974D01*
X173802104Y-67312393D01*
X173802103Y-67312396D01*
X173733985Y-67522047D01*
X173699500Y-67739778D01*
X173699500Y-67960221D01*
X173733985Y-68177952D01*
X173802103Y-68387603D01*
X173802104Y-68387606D01*
X173902187Y-68584025D01*
X174031752Y-68762358D01*
X174031756Y-68762363D01*
X174187636Y-68918243D01*
X174187641Y-68918247D01*
X174327254Y-69019682D01*
X174369920Y-69075012D01*
X174375899Y-69144625D01*
X174343293Y-69206420D01*
X174327254Y-69220318D01*
X174187641Y-69321752D01*
X174187636Y-69321756D01*
X174031756Y-69477636D01*
X174031752Y-69477641D01*
X173902187Y-69655974D01*
X173802104Y-69852393D01*
X173802103Y-69852396D01*
X173733985Y-70062047D01*
X173699500Y-70279778D01*
X173699500Y-70500221D01*
X173733985Y-70717952D01*
X173802103Y-70927603D01*
X173802104Y-70927606D01*
X173902187Y-71124025D01*
X174031752Y-71302358D01*
X174031756Y-71302363D01*
X174187636Y-71458243D01*
X174187641Y-71458247D01*
X174327254Y-71559682D01*
X174369920Y-71615012D01*
X174375899Y-71684625D01*
X174343293Y-71746420D01*
X174327254Y-71760318D01*
X174187641Y-71861752D01*
X174187636Y-71861756D01*
X174031756Y-72017636D01*
X174031752Y-72017641D01*
X173902187Y-72195974D01*
X173802104Y-72392393D01*
X173802103Y-72392396D01*
X173733985Y-72602047D01*
X173699500Y-72819778D01*
X173699500Y-73040221D01*
X173733985Y-73257952D01*
X173802103Y-73467603D01*
X173802104Y-73467606D01*
X173866881Y-73594735D01*
X173898592Y-73656971D01*
X173902187Y-73664025D01*
X174031752Y-73842358D01*
X174031756Y-73842363D01*
X174187636Y-73998243D01*
X174187641Y-73998247D01*
X174327254Y-74099682D01*
X174369920Y-74155012D01*
X174375899Y-74224625D01*
X174343293Y-74286420D01*
X174327254Y-74300318D01*
X174187641Y-74401752D01*
X174187636Y-74401756D01*
X174031756Y-74557636D01*
X174031752Y-74557641D01*
X173902187Y-74735974D01*
X173802104Y-74932393D01*
X173802103Y-74932396D01*
X173733985Y-75142047D01*
X173699500Y-75359778D01*
X173699500Y-75580221D01*
X173733985Y-75797952D01*
X173802103Y-76007603D01*
X173802104Y-76007606D01*
X173860722Y-76122648D01*
X173898592Y-76196971D01*
X173902187Y-76204025D01*
X174031752Y-76382358D01*
X174031756Y-76382363D01*
X174187636Y-76538243D01*
X174187641Y-76538247D01*
X174327254Y-76639682D01*
X174369920Y-76695012D01*
X174375899Y-76764625D01*
X174343293Y-76826420D01*
X174327254Y-76840318D01*
X174187641Y-76941752D01*
X174187636Y-76941756D01*
X174031756Y-77097636D01*
X174031752Y-77097641D01*
X173902187Y-77275974D01*
X173802104Y-77472393D01*
X173802103Y-77472396D01*
X173733985Y-77682047D01*
X173699500Y-77899778D01*
X173699500Y-78120221D01*
X173733985Y-78337952D01*
X173802103Y-78547603D01*
X173802104Y-78547606D01*
X173860722Y-78662648D01*
X173898592Y-78736971D01*
X173902187Y-78744025D01*
X174031752Y-78922358D01*
X174031756Y-78922363D01*
X174187636Y-79078243D01*
X174187641Y-79078247D01*
X174327254Y-79179682D01*
X174369920Y-79235012D01*
X174375899Y-79304625D01*
X174343293Y-79366420D01*
X174327254Y-79380318D01*
X174187641Y-79481752D01*
X174187636Y-79481756D01*
X174031756Y-79637636D01*
X174031752Y-79637641D01*
X173902187Y-79815974D01*
X173802104Y-80012393D01*
X173802103Y-80012396D01*
X173733985Y-80222047D01*
X173699500Y-80439778D01*
X173699500Y-80660221D01*
X173733985Y-80877952D01*
X173802103Y-81087603D01*
X173802104Y-81087606D01*
X173860722Y-81202648D01*
X173898592Y-81276971D01*
X173902187Y-81284025D01*
X174031752Y-81462358D01*
X174031756Y-81462363D01*
X174187636Y-81618243D01*
X174187641Y-81618247D01*
X174327254Y-81719682D01*
X174369920Y-81775012D01*
X174375899Y-81844625D01*
X174343293Y-81906420D01*
X174327254Y-81920318D01*
X174187641Y-82021752D01*
X174187636Y-82021756D01*
X174031756Y-82177636D01*
X174031752Y-82177641D01*
X173902187Y-82355974D01*
X173802104Y-82552393D01*
X173802103Y-82552396D01*
X173733985Y-82762047D01*
X173699500Y-82979778D01*
X173699500Y-83200221D01*
X173733985Y-83417952D01*
X173802103Y-83627603D01*
X173802104Y-83627606D01*
X173860722Y-83742648D01*
X173898394Y-83816582D01*
X173902187Y-83824025D01*
X174031752Y-84002358D01*
X174031756Y-84002363D01*
X174187636Y-84158243D01*
X174187641Y-84158247D01*
X174327254Y-84259682D01*
X174369920Y-84315012D01*
X174375899Y-84384625D01*
X174343293Y-84446420D01*
X174327254Y-84460318D01*
X174187641Y-84561752D01*
X174187636Y-84561756D01*
X174031756Y-84717636D01*
X174031752Y-84717641D01*
X173902187Y-84895974D01*
X173802104Y-85092393D01*
X173802103Y-85092396D01*
X173733985Y-85302047D01*
X173699500Y-85519778D01*
X173699500Y-85740221D01*
X173733985Y-85957952D01*
X173802103Y-86167603D01*
X173802104Y-86167606D01*
X173833573Y-86229365D01*
X173898394Y-86356582D01*
X173902187Y-86364025D01*
X174031752Y-86542358D01*
X174031753Y-86542360D01*
X174187636Y-86698243D01*
X174187641Y-86698247D01*
X174327254Y-86799682D01*
X174369920Y-86855012D01*
X174375899Y-86924625D01*
X174343293Y-86986420D01*
X174327254Y-87000318D01*
X174187641Y-87101752D01*
X174187636Y-87101756D01*
X174031756Y-87257636D01*
X174031752Y-87257641D01*
X173902187Y-87435974D01*
X173802104Y-87632393D01*
X173802103Y-87632396D01*
X173733985Y-87842047D01*
X173699500Y-88059778D01*
X173699500Y-88280221D01*
X173733985Y-88497952D01*
X173802103Y-88707603D01*
X173802104Y-88707606D01*
X173870122Y-88841096D01*
X173898592Y-88896971D01*
X173902187Y-88904025D01*
X174031752Y-89082358D01*
X174031756Y-89082363D01*
X174187636Y-89238243D01*
X174187641Y-89238247D01*
X174317664Y-89332713D01*
X174365978Y-89367815D01*
X174494375Y-89433237D01*
X174562393Y-89467895D01*
X174562396Y-89467896D01*
X174667221Y-89501955D01*
X174772049Y-89536015D01*
X174989778Y-89570500D01*
X174989779Y-89570500D01*
X176010221Y-89570500D01*
X176010222Y-89570500D01*
X176227951Y-89536015D01*
X176437606Y-89467895D01*
X176634022Y-89367815D01*
X176812365Y-89238242D01*
X176968242Y-89082365D01*
X177097815Y-88904022D01*
X177197895Y-88707606D01*
X177266015Y-88497951D01*
X177300500Y-88280222D01*
X177300500Y-88059778D01*
X177266015Y-87842049D01*
X177197895Y-87632394D01*
X177197895Y-87632393D01*
X177163237Y-87564375D01*
X177097815Y-87435978D01*
X177075872Y-87405776D01*
X176968247Y-87257641D01*
X176968243Y-87257636D01*
X176812363Y-87101756D01*
X176812358Y-87101752D01*
X176672745Y-87000318D01*
X176630079Y-86944989D01*
X176624100Y-86875375D01*
X176656705Y-86813580D01*
X176672745Y-86799682D01*
X176812358Y-86698247D01*
X176812356Y-86698247D01*
X176812365Y-86698242D01*
X176968242Y-86542365D01*
X176968242Y-86542364D01*
X176968247Y-86542360D01*
X176968247Y-86542358D01*
X177097812Y-86364026D01*
X177097813Y-86364025D01*
X177097815Y-86364022D01*
X177150435Y-86260749D01*
X177198409Y-86209955D01*
X177266229Y-86193160D01*
X177332364Y-86215697D01*
X177348600Y-86229365D01*
X183629181Y-92509945D01*
X183662666Y-92571268D01*
X183665500Y-92597626D01*
X183665500Y-95599541D01*
X183665500Y-95599543D01*
X183665499Y-95599543D01*
X183703947Y-95792829D01*
X183703950Y-95792839D01*
X183779364Y-95974907D01*
X183779371Y-95974920D01*
X183888860Y-96138781D01*
X183888863Y-96138785D01*
X184032537Y-96282459D01*
X184032559Y-96282479D01*
X188443281Y-100693201D01*
X188476766Y-100754524D01*
X188478073Y-100761483D01*
X188501523Y-100909535D01*
X188564781Y-101104223D01*
X188657715Y-101286613D01*
X188778028Y-101452213D01*
X188922786Y-101596971D01*
X189077749Y-101709556D01*
X189088390Y-101717287D01*
X189179840Y-101763883D01*
X189181080Y-101764515D01*
X189231876Y-101812490D01*
X189248671Y-101880311D01*
X189226134Y-101946446D01*
X189181080Y-101985485D01*
X189088386Y-102032715D01*
X188922786Y-102153028D01*
X188778028Y-102297786D01*
X188657715Y-102463386D01*
X188564781Y-102645776D01*
X188501522Y-102840465D01*
X188469500Y-103042648D01*
X188469500Y-103247351D01*
X188501522Y-103449534D01*
X188564781Y-103644223D01*
X188657715Y-103826613D01*
X188778028Y-103992213D01*
X188922786Y-104136971D01*
X189077749Y-104249556D01*
X189088390Y-104257287D01*
X189179840Y-104303883D01*
X189181080Y-104304515D01*
X189231876Y-104352490D01*
X189248671Y-104420311D01*
X189226134Y-104486446D01*
X189181080Y-104525485D01*
X189088386Y-104572715D01*
X188922786Y-104693028D01*
X188778028Y-104837786D01*
X188657715Y-105003386D01*
X188564781Y-105185776D01*
X188501522Y-105380465D01*
X188469500Y-105582648D01*
X188469500Y-105787351D01*
X188501522Y-105989534D01*
X188564781Y-106184223D01*
X188657715Y-106366613D01*
X188778028Y-106532213D01*
X188922786Y-106676971D01*
X189077749Y-106789556D01*
X189088390Y-106797287D01*
X189204607Y-106856503D01*
X189270776Y-106890218D01*
X189270778Y-106890218D01*
X189270781Y-106890220D01*
X189375137Y-106924127D01*
X189465465Y-106953477D01*
X189566557Y-106969488D01*
X189667648Y-106985500D01*
X189667649Y-106985500D01*
X189872351Y-106985500D01*
X189872352Y-106985500D01*
X190074534Y-106953477D01*
X190269219Y-106890220D01*
X190451610Y-106797287D01*
X190580161Y-106703890D01*
X190617213Y-106676971D01*
X190617215Y-106676968D01*
X190617219Y-106676966D01*
X190761966Y-106532219D01*
X190761968Y-106532215D01*
X190761971Y-106532213D01*
X190814732Y-106459590D01*
X190882287Y-106366610D01*
X190975220Y-106184219D01*
X191038477Y-105989534D01*
X191070500Y-105787352D01*
X191070500Y-105582648D01*
X191038477Y-105380466D01*
X190975220Y-105185781D01*
X190975218Y-105185778D01*
X190975218Y-105185776D01*
X190941503Y-105119607D01*
X190882287Y-105003390D01*
X190874556Y-104992749D01*
X190761971Y-104837786D01*
X190617213Y-104693028D01*
X190451614Y-104572715D01*
X190445006Y-104569348D01*
X190358917Y-104525483D01*
X190308123Y-104477511D01*
X190291328Y-104409690D01*
X190313865Y-104343555D01*
X190358917Y-104304516D01*
X190451610Y-104257287D01*
X190580160Y-104163891D01*
X190617213Y-104136971D01*
X190617215Y-104136968D01*
X190617219Y-104136966D01*
X190761966Y-103992219D01*
X190761968Y-103992215D01*
X190761971Y-103992213D01*
X190814732Y-103919590D01*
X190882287Y-103826610D01*
X190975220Y-103644219D01*
X191038477Y-103449534D01*
X191070500Y-103247352D01*
X191070500Y-103042648D01*
X191038477Y-102840466D01*
X190975220Y-102645781D01*
X190975218Y-102645778D01*
X190975218Y-102645776D01*
X190941503Y-102579607D01*
X190882287Y-102463390D01*
X190874556Y-102452749D01*
X190761971Y-102297786D01*
X190617213Y-102153028D01*
X190451614Y-102032715D01*
X190445006Y-102029348D01*
X190358917Y-101985483D01*
X190308123Y-101937511D01*
X190291328Y-101869690D01*
X190313865Y-101803555D01*
X190358917Y-101764516D01*
X190451610Y-101717287D01*
X190580160Y-101623891D01*
X190617213Y-101596971D01*
X190617215Y-101596968D01*
X190617219Y-101596966D01*
X190761966Y-101452219D01*
X190761968Y-101452215D01*
X190761971Y-101452213D01*
X190814732Y-101379590D01*
X190882287Y-101286610D01*
X190975220Y-101104219D01*
X191038477Y-100909534D01*
X191070500Y-100707352D01*
X191070500Y-100502648D01*
X191038477Y-100300466D01*
X190975220Y-100105781D01*
X190975218Y-100105778D01*
X190975218Y-100105776D01*
X190941503Y-100039607D01*
X190882287Y-99923390D01*
X190874556Y-99912749D01*
X190761971Y-99757786D01*
X190617213Y-99613028D01*
X190451614Y-99492715D01*
X190445006Y-99489348D01*
X190358917Y-99445483D01*
X190308123Y-99397511D01*
X190291328Y-99329690D01*
X190313865Y-99263555D01*
X190358917Y-99224516D01*
X190451610Y-99177287D01*
X190472770Y-99161913D01*
X190617213Y-99056971D01*
X190617215Y-99056968D01*
X190617219Y-99056966D01*
X190761966Y-98912219D01*
X190761968Y-98912215D01*
X190761971Y-98912213D01*
X190814732Y-98839590D01*
X190882287Y-98746610D01*
X190975220Y-98564219D01*
X191038477Y-98369534D01*
X191070500Y-98167352D01*
X191070500Y-97962648D01*
X191038477Y-97760466D01*
X190975220Y-97565781D01*
X190975218Y-97565778D01*
X190975218Y-97565776D01*
X190941503Y-97499607D01*
X190882287Y-97383390D01*
X190874556Y-97372749D01*
X190761971Y-97217786D01*
X190617213Y-97073028D01*
X190451614Y-96952715D01*
X190445006Y-96949348D01*
X190358917Y-96905483D01*
X190308123Y-96857511D01*
X190291328Y-96789690D01*
X190313865Y-96723555D01*
X190358917Y-96684516D01*
X190451610Y-96637287D01*
X190472770Y-96621913D01*
X190617213Y-96516971D01*
X190617215Y-96516968D01*
X190617219Y-96516966D01*
X190761966Y-96372219D01*
X190761968Y-96372215D01*
X190761971Y-96372213D01*
X190830317Y-96278141D01*
X190882287Y-96206610D01*
X190975220Y-96024219D01*
X191038477Y-95829534D01*
X191070500Y-95627352D01*
X191070500Y-95422648D01*
X191038477Y-95220466D01*
X190975220Y-95025781D01*
X190975218Y-95025778D01*
X190975218Y-95025776D01*
X190941503Y-94959607D01*
X190882287Y-94843390D01*
X190874556Y-94832749D01*
X190761971Y-94677786D01*
X190617213Y-94533028D01*
X190451614Y-94412715D01*
X190445006Y-94409348D01*
X190358917Y-94365483D01*
X190308123Y-94317511D01*
X190291328Y-94249690D01*
X190313865Y-94183555D01*
X190358917Y-94144516D01*
X190451610Y-94097287D01*
X190472770Y-94081913D01*
X190617213Y-93976971D01*
X190617215Y-93976968D01*
X190617219Y-93976966D01*
X190761966Y-93832219D01*
X190761968Y-93832215D01*
X190761971Y-93832213D01*
X190814732Y-93759590D01*
X190882287Y-93666610D01*
X190975220Y-93484219D01*
X191038477Y-93289534D01*
X191070500Y-93087352D01*
X191070500Y-92882648D01*
X191038477Y-92680466D01*
X190975220Y-92485781D01*
X190975218Y-92485778D01*
X190975218Y-92485776D01*
X190941503Y-92419607D01*
X190882287Y-92303390D01*
X190874556Y-92292749D01*
X190761971Y-92137786D01*
X190617213Y-91993028D01*
X190451614Y-91872715D01*
X190445006Y-91869348D01*
X190358917Y-91825483D01*
X190308123Y-91777511D01*
X190291328Y-91709690D01*
X190313865Y-91643555D01*
X190358917Y-91604516D01*
X190451610Y-91557287D01*
X190472770Y-91541913D01*
X190617213Y-91436971D01*
X190617215Y-91436968D01*
X190617219Y-91436966D01*
X190761966Y-91292219D01*
X190761968Y-91292215D01*
X190761971Y-91292213D01*
X190814732Y-91219590D01*
X190882287Y-91126610D01*
X190975220Y-90944219D01*
X191038477Y-90749534D01*
X191070500Y-90547352D01*
X191070500Y-90342648D01*
X191038477Y-90140466D01*
X190975220Y-89945781D01*
X190975218Y-89945778D01*
X190975218Y-89945776D01*
X190941503Y-89879607D01*
X190882287Y-89763390D01*
X190874556Y-89752749D01*
X190761971Y-89597786D01*
X190617213Y-89453028D01*
X190451614Y-89332715D01*
X190445006Y-89329348D01*
X190358917Y-89285483D01*
X190308123Y-89237511D01*
X190291328Y-89169690D01*
X190313865Y-89103555D01*
X190358917Y-89064516D01*
X190451610Y-89017287D01*
X190472770Y-89001913D01*
X190617213Y-88896971D01*
X190617215Y-88896968D01*
X190617219Y-88896966D01*
X190761966Y-88752219D01*
X190761968Y-88752215D01*
X190761971Y-88752213D01*
X190814732Y-88679590D01*
X190882287Y-88586610D01*
X190975220Y-88404219D01*
X191038477Y-88209534D01*
X191070500Y-88007352D01*
X191070500Y-87802648D01*
X191038477Y-87600466D01*
X190975220Y-87405781D01*
X190975218Y-87405778D01*
X190975218Y-87405776D01*
X190941503Y-87339607D01*
X190882287Y-87223390D01*
X190849618Y-87178424D01*
X190761971Y-87057786D01*
X190617213Y-86913028D01*
X190451613Y-86792715D01*
X190451612Y-86792714D01*
X190451610Y-86792713D01*
X190358367Y-86745203D01*
X190269223Y-86699781D01*
X190074534Y-86636522D01*
X189899995Y-86608878D01*
X189872352Y-86604500D01*
X189667648Y-86604500D01*
X189600254Y-86615174D01*
X189465464Y-86636523D01*
X189465457Y-86636524D01*
X189413371Y-86653448D01*
X189343530Y-86655443D01*
X189283697Y-86619362D01*
X189253437Y-86559705D01*
X189249988Y-86542365D01*
X189231052Y-86447165D01*
X189155632Y-86265086D01*
X189155631Y-86265085D01*
X189155628Y-86265079D01*
X189046140Y-86101219D01*
X189046137Y-86101215D01*
X177784209Y-74839289D01*
X177784206Y-74839285D01*
X177784206Y-74839286D01*
X177777139Y-74832219D01*
X177777139Y-74832218D01*
X177637782Y-74692861D01*
X177637781Y-74692860D01*
X177637780Y-74692859D01*
X177473917Y-74583369D01*
X177336757Y-74526556D01*
X177336755Y-74526555D01*
X177329113Y-74523390D01*
X177291836Y-74507949D01*
X177195188Y-74488724D01*
X177191352Y-74487961D01*
X177191341Y-74487958D01*
X177098544Y-74469500D01*
X177098541Y-74469500D01*
X176931469Y-74469500D01*
X176908972Y-74462894D01*
X176885630Y-74460716D01*
X176872799Y-74452272D01*
X176864430Y-74449815D01*
X176855027Y-74443135D01*
X176849107Y-74438500D01*
X176812365Y-74401758D01*
X176670951Y-74299015D01*
X176669188Y-74297635D01*
X176650106Y-74270960D01*
X176630079Y-74244989D01*
X176629881Y-74242687D01*
X176628537Y-74240808D01*
X176626905Y-74208045D01*
X176624100Y-74175375D01*
X176625177Y-74173332D01*
X176625063Y-74171025D01*
X176641395Y-74142595D01*
X176656705Y-74113580D01*
X176659412Y-74111234D01*
X176659868Y-74110441D01*
X176661012Y-74109848D01*
X176672745Y-74099682D01*
X176812358Y-73998247D01*
X176812356Y-73998247D01*
X176812365Y-73998242D01*
X176968242Y-73842365D01*
X177097815Y-73664022D01*
X177197895Y-73467606D01*
X177266015Y-73257951D01*
X177300500Y-73040222D01*
X177300500Y-72819778D01*
X177266015Y-72602049D01*
X177197895Y-72392394D01*
X177197895Y-72392393D01*
X177158483Y-72315044D01*
X177097815Y-72195978D01*
X177025830Y-72096898D01*
X176968247Y-72017641D01*
X176968243Y-72017636D01*
X176812363Y-71861756D01*
X176812358Y-71861752D01*
X176672745Y-71760318D01*
X176630079Y-71704989D01*
X176624100Y-71635375D01*
X176656705Y-71573580D01*
X176672745Y-71559682D01*
X176812358Y-71458247D01*
X176812356Y-71458247D01*
X176812365Y-71458242D01*
X176968242Y-71302365D01*
X177097815Y-71124022D01*
X177197895Y-70927606D01*
X177266015Y-70717951D01*
X177300500Y-70500222D01*
X177300500Y-70279778D01*
X177266015Y-70062049D01*
X177197895Y-69852394D01*
X177197895Y-69852393D01*
X177152975Y-69764234D01*
X177097815Y-69655978D01*
X177054662Y-69596582D01*
X176968247Y-69477641D01*
X176968243Y-69477636D01*
X176812363Y-69321756D01*
X176812358Y-69321752D01*
X176672745Y-69220318D01*
X176630079Y-69164989D01*
X176624100Y-69095375D01*
X176656705Y-69033580D01*
X176672745Y-69019682D01*
X176812358Y-68918247D01*
X176812356Y-68918247D01*
X176812365Y-68918242D01*
X176968242Y-68762365D01*
X177097815Y-68584022D01*
X177197895Y-68387606D01*
X177266015Y-68177951D01*
X177300500Y-67960222D01*
X177300500Y-67739778D01*
X177266015Y-67522049D01*
X177204745Y-67333477D01*
X177197896Y-67312396D01*
X177197895Y-67312393D01*
X177163237Y-67244375D01*
X177097815Y-67115978D01*
X177054941Y-67056966D01*
X176968247Y-66937641D01*
X176968243Y-66937636D01*
X176812363Y-66781756D01*
X176812358Y-66781752D01*
X176672745Y-66680318D01*
X176630079Y-66624989D01*
X176624100Y-66555375D01*
X176656705Y-66493580D01*
X176672745Y-66479682D01*
X176812358Y-66378247D01*
X176812356Y-66378247D01*
X176812365Y-66378242D01*
X176968242Y-66222365D01*
X177097815Y-66044022D01*
X177197895Y-65847606D01*
X177266015Y-65637951D01*
X177296585Y-65444939D01*
X177326513Y-65381807D01*
X177385824Y-65344875D01*
X177455687Y-65345873D01*
X177506737Y-65376657D01*
X183057682Y-70927603D01*
X188443281Y-76313202D01*
X188476766Y-76374525D01*
X188478073Y-76381484D01*
X188501522Y-76529531D01*
X188501523Y-76529534D01*
X188564780Y-76724219D01*
X188653214Y-76897781D01*
X188657715Y-76906613D01*
X188778028Y-77072213D01*
X188922786Y-77216971D01*
X189077749Y-77329556D01*
X189088390Y-77337287D01*
X189163735Y-77375677D01*
X189181080Y-77384515D01*
X189231876Y-77432490D01*
X189248671Y-77500311D01*
X189226134Y-77566446D01*
X189181080Y-77605485D01*
X189088386Y-77652715D01*
X188922786Y-77773028D01*
X188778028Y-77917786D01*
X188657715Y-78083386D01*
X188564781Y-78265776D01*
X188501522Y-78460465D01*
X188469500Y-78662648D01*
X188469500Y-78867351D01*
X188501522Y-79069531D01*
X188564781Y-79264223D01*
X188609601Y-79352185D01*
X188653214Y-79437781D01*
X188657715Y-79446613D01*
X188778028Y-79612213D01*
X188922786Y-79756971D01*
X189077749Y-79869556D01*
X189088390Y-79877287D01*
X189179840Y-79923883D01*
X189181080Y-79924515D01*
X189231876Y-79972490D01*
X189248671Y-80040311D01*
X189226134Y-80106446D01*
X189181080Y-80145485D01*
X189088386Y-80192715D01*
X188922786Y-80313028D01*
X188778028Y-80457786D01*
X188657715Y-80623386D01*
X188564781Y-80805776D01*
X188501522Y-81000465D01*
X188469500Y-81202648D01*
X188469500Y-81407351D01*
X188501522Y-81609534D01*
X188564781Y-81804223D01*
X188609601Y-81892185D01*
X188653379Y-81978105D01*
X188657715Y-81986613D01*
X188778028Y-82152213D01*
X188922786Y-82296971D01*
X189008267Y-82359075D01*
X189088390Y-82417287D01*
X189179840Y-82463883D01*
X189181080Y-82464515D01*
X189231876Y-82512490D01*
X189248671Y-82580311D01*
X189226134Y-82646446D01*
X189181080Y-82685485D01*
X189088386Y-82732715D01*
X188922786Y-82853028D01*
X188778028Y-82997786D01*
X188657715Y-83163386D01*
X188564781Y-83345776D01*
X188501522Y-83540465D01*
X188469500Y-83742648D01*
X188469500Y-83947351D01*
X188501522Y-84149534D01*
X188564781Y-84344223D01*
X188609601Y-84432185D01*
X188653379Y-84518105D01*
X188657715Y-84526613D01*
X188778028Y-84692213D01*
X188922786Y-84836971D01*
X189008267Y-84899075D01*
X189088390Y-84957287D01*
X189204607Y-85016503D01*
X189270776Y-85050218D01*
X189270778Y-85050218D01*
X189270781Y-85050220D01*
X189375137Y-85084127D01*
X189465465Y-85113477D01*
X189566557Y-85129488D01*
X189667648Y-85145500D01*
X189667649Y-85145500D01*
X189872351Y-85145500D01*
X189872352Y-85145500D01*
X190074534Y-85113477D01*
X190269219Y-85050220D01*
X190451610Y-84957287D01*
X190577298Y-84865970D01*
X190617213Y-84836971D01*
X190617215Y-84836968D01*
X190617219Y-84836966D01*
X190761966Y-84692219D01*
X190761968Y-84692215D01*
X190761971Y-84692213D01*
X190814732Y-84619590D01*
X190882287Y-84526610D01*
X190975220Y-84344219D01*
X191038477Y-84149534D01*
X191070500Y-83947352D01*
X191070500Y-83742648D01*
X191059294Y-83671895D01*
X191038477Y-83540465D01*
X190975218Y-83345776D01*
X190913729Y-83225099D01*
X190882287Y-83163390D01*
X190859486Y-83132007D01*
X190761971Y-82997786D01*
X190617213Y-82853028D01*
X190451614Y-82732715D01*
X190445006Y-82729348D01*
X190358917Y-82685483D01*
X190308123Y-82637511D01*
X190291328Y-82569690D01*
X190313865Y-82503555D01*
X190358917Y-82464516D01*
X190451610Y-82417287D01*
X190531733Y-82359075D01*
X190617213Y-82296971D01*
X190617215Y-82296968D01*
X190617219Y-82296966D01*
X190761966Y-82152219D01*
X190761968Y-82152215D01*
X190761971Y-82152213D01*
X190814732Y-82079590D01*
X190882287Y-81986610D01*
X190975220Y-81804219D01*
X191038477Y-81609534D01*
X191070500Y-81407352D01*
X191070500Y-81202648D01*
X191038477Y-81000466D01*
X191027477Y-80966613D01*
X190975218Y-80805776D01*
X190941503Y-80739607D01*
X190882287Y-80623390D01*
X190874556Y-80612749D01*
X190761971Y-80457786D01*
X190617213Y-80313028D01*
X190451614Y-80192715D01*
X190431856Y-80182648D01*
X190358917Y-80145483D01*
X190308123Y-80097511D01*
X190291328Y-80029690D01*
X190313865Y-79963555D01*
X190358917Y-79924516D01*
X190451610Y-79877287D01*
X190472770Y-79861913D01*
X190617213Y-79756971D01*
X190617215Y-79756968D01*
X190617219Y-79756966D01*
X190761966Y-79612219D01*
X190761968Y-79612215D01*
X190761971Y-79612213D01*
X190814732Y-79539590D01*
X190882287Y-79446610D01*
X190975220Y-79264219D01*
X191038477Y-79069534D01*
X191038476Y-79069534D01*
X191038478Y-79069531D01*
X191070500Y-78867351D01*
X191070500Y-78662648D01*
X191038477Y-78460465D01*
X190975218Y-78265776D01*
X190935764Y-78188344D01*
X190882287Y-78083390D01*
X190874556Y-78072749D01*
X190761971Y-77917786D01*
X190617213Y-77773028D01*
X190451614Y-77652715D01*
X190431856Y-77642648D01*
X190358917Y-77605483D01*
X190308123Y-77557511D01*
X190291328Y-77489690D01*
X190313865Y-77423555D01*
X190358917Y-77384516D01*
X190451610Y-77337287D01*
X190493287Y-77307007D01*
X190617213Y-77216971D01*
X190617215Y-77216968D01*
X190617219Y-77216966D01*
X190761966Y-77072219D01*
X190761968Y-77072215D01*
X190761971Y-77072213D01*
X190814732Y-76999590D01*
X190882287Y-76906610D01*
X190975220Y-76724219D01*
X191038477Y-76529534D01*
X191038476Y-76529534D01*
X191038478Y-76529531D01*
X191070500Y-76327351D01*
X191070500Y-76122648D01*
X191038477Y-75920465D01*
X190975218Y-75725776D01*
X190941503Y-75659607D01*
X190882287Y-75543390D01*
X190874556Y-75532749D01*
X190761971Y-75377786D01*
X190617213Y-75233028D01*
X190451614Y-75112715D01*
X190431856Y-75102648D01*
X190358917Y-75065483D01*
X190308123Y-75017511D01*
X190291328Y-74949690D01*
X190313865Y-74883555D01*
X190358917Y-74844516D01*
X190451610Y-74797287D01*
X190472770Y-74781913D01*
X190617213Y-74676971D01*
X190617215Y-74676968D01*
X190617219Y-74676966D01*
X190761966Y-74532219D01*
X190761968Y-74532215D01*
X190761971Y-74532213D01*
X190820050Y-74452272D01*
X190882287Y-74366610D01*
X190975220Y-74184219D01*
X191015465Y-74060357D01*
X191054901Y-74002684D01*
X191119260Y-73975485D01*
X191188106Y-73987400D01*
X191221076Y-74010996D01*
X191963181Y-74753101D01*
X191996666Y-74814424D01*
X191999500Y-74840782D01*
X191999500Y-107534217D01*
X191979815Y-107601256D01*
X191963181Y-107621898D01*
X178348675Y-121236404D01*
X164992221Y-134592858D01*
X164992218Y-134592861D01*
X164922538Y-134662540D01*
X164852859Y-134732219D01*
X164743371Y-134896079D01*
X164743364Y-134896092D01*
X164667950Y-135078160D01*
X164667947Y-135078170D01*
X164629500Y-135271456D01*
X164629500Y-137311921D01*
X164609815Y-137378960D01*
X164557011Y-137424715D01*
X164487853Y-137434659D01*
X164481312Y-137433539D01*
X164461004Y-137429500D01*
X164461003Y-137429500D01*
X164258997Y-137429500D01*
X164258996Y-137429500D01*
X164221811Y-137436896D01*
X164195565Y-137442117D01*
X164171375Y-137444500D01*
X142192129Y-137444500D01*
X142192123Y-137444501D01*
X142132516Y-137450908D01*
X141997671Y-137501202D01*
X141997669Y-137501204D01*
X141898811Y-137575209D01*
X141833347Y-137599626D01*
X141765074Y-137584774D01*
X141715668Y-137535369D01*
X141700500Y-137475942D01*
X141700500Y-119438352D01*
X142498800Y-119438352D01*
X142498800Y-119700607D01*
X142525423Y-119902819D01*
X142533030Y-119960596D01*
X142600902Y-120213898D01*
X142600905Y-120213908D01*
X142701253Y-120456170D01*
X142701258Y-120456180D01*
X142832375Y-120683283D01*
X142992018Y-120891331D01*
X142992026Y-120891340D01*
X143177440Y-121076754D01*
X143177448Y-121076761D01*
X143177449Y-121076762D01*
X143178127Y-121077282D01*
X143385496Y-121236404D01*
X143612599Y-121367521D01*
X143612609Y-121367526D01*
X143854871Y-121467874D01*
X143854881Y-121467878D01*
X144108184Y-121535750D01*
X144368180Y-121569980D01*
X144368187Y-121569980D01*
X144630413Y-121569980D01*
X144630420Y-121569980D01*
X144890416Y-121535750D01*
X145143719Y-121467878D01*
X145320640Y-121394594D01*
X145385990Y-121367526D01*
X145385991Y-121367525D01*
X145385997Y-121367523D01*
X145613103Y-121236404D01*
X145821151Y-121076762D01*
X145821155Y-121076757D01*
X145821160Y-121076754D01*
X146006574Y-120891340D01*
X146006577Y-120891335D01*
X146006582Y-120891331D01*
X146166224Y-120683283D01*
X146297343Y-120456177D01*
X146397698Y-120213899D01*
X146465570Y-119960596D01*
X146499800Y-119700600D01*
X146499800Y-119438872D01*
X173499500Y-119438872D01*
X173499500Y-119701127D01*
X173526123Y-119903339D01*
X173533730Y-119961116D01*
X173601463Y-120213899D01*
X173601602Y-120214418D01*
X173601605Y-120214428D01*
X173701953Y-120456690D01*
X173701958Y-120456700D01*
X173833075Y-120683803D01*
X173992718Y-120891851D01*
X173992726Y-120891860D01*
X174178140Y-121077274D01*
X174178148Y-121077281D01*
X174386196Y-121236924D01*
X174613299Y-121368041D01*
X174613309Y-121368046D01*
X174855571Y-121468394D01*
X174855581Y-121468398D01*
X175108884Y-121536270D01*
X175357188Y-121568960D01*
X175364922Y-121569979D01*
X175368880Y-121570500D01*
X175368887Y-121570500D01*
X175631113Y-121570500D01*
X175631120Y-121570500D01*
X175891116Y-121536270D01*
X176144419Y-121468398D01*
X176386697Y-121368043D01*
X176613803Y-121236924D01*
X176821851Y-121077282D01*
X176821855Y-121077277D01*
X176821860Y-121077274D01*
X177007274Y-120891860D01*
X177007277Y-120891855D01*
X177007282Y-120891851D01*
X177166924Y-120683803D01*
X177298043Y-120456697D01*
X177398398Y-120214419D01*
X177466270Y-119961116D01*
X177500500Y-119701120D01*
X177500500Y-119438880D01*
X177500430Y-119438352D01*
X177498960Y-119427188D01*
X177466270Y-119178884D01*
X177398398Y-118925581D01*
X177398183Y-118925061D01*
X177298046Y-118683309D01*
X177298041Y-118683299D01*
X177166924Y-118456196D01*
X177007281Y-118248148D01*
X177007274Y-118248140D01*
X176821860Y-118062726D01*
X176821851Y-118062718D01*
X176613803Y-117903075D01*
X176386700Y-117771958D01*
X176386690Y-117771953D01*
X176144428Y-117671605D01*
X176144421Y-117671603D01*
X176144419Y-117671602D01*
X175891116Y-117603730D01*
X175833339Y-117596123D01*
X175631127Y-117569500D01*
X175631120Y-117569500D01*
X175368880Y-117569500D01*
X175368872Y-117569500D01*
X175137772Y-117599926D01*
X175108884Y-117603730D01*
X174857522Y-117671082D01*
X174855581Y-117671602D01*
X174855571Y-117671605D01*
X174613309Y-117771953D01*
X174613299Y-117771958D01*
X174386196Y-117903075D01*
X174178148Y-118062718D01*
X173992718Y-118248148D01*
X173833075Y-118456196D01*
X173701958Y-118683299D01*
X173701953Y-118683309D01*
X173601605Y-118925571D01*
X173601602Y-118925581D01*
X173533870Y-119178364D01*
X173533730Y-119178885D01*
X173499500Y-119438872D01*
X146499800Y-119438872D01*
X146499800Y-119438360D01*
X146465570Y-119178364D01*
X146397698Y-118925061D01*
X146342771Y-118792455D01*
X146297346Y-118682789D01*
X146297341Y-118682779D01*
X146166224Y-118455676D01*
X146006581Y-118247628D01*
X146006574Y-118247620D01*
X145821160Y-118062206D01*
X145821151Y-118062198D01*
X145613103Y-117902555D01*
X145386000Y-117771438D01*
X145385990Y-117771433D01*
X145143728Y-117671085D01*
X145143721Y-117671083D01*
X145143719Y-117671082D01*
X144890416Y-117603210D01*
X144832639Y-117595603D01*
X144630427Y-117568980D01*
X144630420Y-117568980D01*
X144368180Y-117568980D01*
X144368172Y-117568980D01*
X144137072Y-117599406D01*
X144108184Y-117603210D01*
X143854881Y-117671082D01*
X143854871Y-117671085D01*
X143612609Y-117771433D01*
X143612599Y-117771438D01*
X143385496Y-117902555D01*
X143177448Y-118062198D01*
X142992018Y-118247628D01*
X142832375Y-118455676D01*
X142701258Y-118682779D01*
X142701253Y-118682789D01*
X142600905Y-118925051D01*
X142600902Y-118925061D01*
X142533030Y-119178364D01*
X142529226Y-119207252D01*
X142498800Y-119438352D01*
X141700500Y-119438352D01*
X141700500Y-99748543D01*
X184219499Y-99748543D01*
X184257947Y-99941829D01*
X184257950Y-99941839D01*
X184325855Y-100105776D01*
X184333368Y-100123914D01*
X184377352Y-100189740D01*
X184394971Y-100216110D01*
X184415848Y-100282787D01*
X184397363Y-100350167D01*
X184394971Y-100353890D01*
X184333366Y-100446089D01*
X184257950Y-100628160D01*
X184257947Y-100628170D01*
X184219500Y-100821456D01*
X184219500Y-100821459D01*
X184219500Y-101018541D01*
X184219500Y-101018543D01*
X184219499Y-101018543D01*
X184257947Y-101211829D01*
X184257950Y-101211839D01*
X184333365Y-101393907D01*
X184333368Y-101393914D01*
X184372322Y-101452213D01*
X184394971Y-101486110D01*
X184415848Y-101552787D01*
X184397363Y-101620167D01*
X184394971Y-101623890D01*
X184333366Y-101716089D01*
X184257950Y-101898160D01*
X184257947Y-101898170D01*
X184219500Y-102091456D01*
X184219500Y-102091459D01*
X184219500Y-102288541D01*
X184219500Y-102288543D01*
X184219499Y-102288543D01*
X184257947Y-102481829D01*
X184257950Y-102481839D01*
X184325855Y-102645776D01*
X184333368Y-102663914D01*
X184377352Y-102729740D01*
X184394971Y-102756110D01*
X184415848Y-102822787D01*
X184397363Y-102890167D01*
X184394971Y-102893890D01*
X184333366Y-102986089D01*
X184257950Y-103168160D01*
X184257947Y-103168170D01*
X184219500Y-103361456D01*
X184219500Y-103361459D01*
X184219500Y-103558541D01*
X184219500Y-103558543D01*
X184219499Y-103558543D01*
X184257947Y-103751829D01*
X184257950Y-103751839D01*
X184333365Y-103933907D01*
X184333368Y-103933914D01*
X184372322Y-103992213D01*
X184394971Y-104026110D01*
X184415848Y-104092787D01*
X184397363Y-104160167D01*
X184394971Y-104163890D01*
X184333366Y-104256089D01*
X184257950Y-104438160D01*
X184257947Y-104438170D01*
X184219500Y-104631456D01*
X184219500Y-104631459D01*
X184219500Y-104828541D01*
X184219500Y-104828543D01*
X184219499Y-104828543D01*
X184257947Y-105021829D01*
X184257950Y-105021839D01*
X184325855Y-105185776D01*
X184333368Y-105203914D01*
X184377352Y-105269740D01*
X184394971Y-105296110D01*
X184415848Y-105362787D01*
X184397363Y-105430167D01*
X184394971Y-105433890D01*
X184333366Y-105526089D01*
X184257950Y-105708160D01*
X184257947Y-105708170D01*
X184219500Y-105901456D01*
X184219500Y-105901459D01*
X184219500Y-106098541D01*
X184219500Y-106098543D01*
X184219499Y-106098543D01*
X184257947Y-106291829D01*
X184257950Y-106291839D01*
X184333365Y-106473907D01*
X184333368Y-106473914D01*
X184372322Y-106532213D01*
X184394971Y-106566110D01*
X184415848Y-106632787D01*
X184397363Y-106700167D01*
X184394971Y-106703890D01*
X184333366Y-106796089D01*
X184257950Y-106978160D01*
X184257947Y-106978170D01*
X184219500Y-107171456D01*
X184219500Y-107171459D01*
X184219500Y-107368541D01*
X184219500Y-107368543D01*
X184219499Y-107368543D01*
X184257947Y-107561828D01*
X184257949Y-107561836D01*
X184300318Y-107664124D01*
X184307787Y-107733593D01*
X184285026Y-107785884D01*
X184276203Y-107797670D01*
X184276202Y-107797671D01*
X184225908Y-107932517D01*
X184219501Y-107992116D01*
X184219501Y-107992123D01*
X184219500Y-107992135D01*
X184219500Y-109087870D01*
X184219501Y-109087876D01*
X184225908Y-109147483D01*
X184276202Y-109282328D01*
X184276206Y-109282335D01*
X184362452Y-109397544D01*
X184362455Y-109397547D01*
X184477664Y-109483793D01*
X184477671Y-109483797D01*
X184612517Y-109534091D01*
X184612516Y-109534091D01*
X184619444Y-109534835D01*
X184672127Y-109540500D01*
X185767872Y-109540499D01*
X185827483Y-109534091D01*
X185962331Y-109483796D01*
X186077546Y-109397546D01*
X186163796Y-109282331D01*
X186214091Y-109147483D01*
X186220500Y-109087873D01*
X186220499Y-107992128D01*
X186214091Y-107932517D01*
X186163796Y-107797669D01*
X186154975Y-107785886D01*
X186130558Y-107720423D01*
X186139679Y-107664128D01*
X186182051Y-107561835D01*
X186220500Y-107368541D01*
X186220500Y-107171459D01*
X186220500Y-107171456D01*
X186182052Y-106978170D01*
X186182051Y-106978169D01*
X186182051Y-106978165D01*
X186171825Y-106953477D01*
X186106635Y-106796092D01*
X186106633Y-106796088D01*
X186106632Y-106796086D01*
X186045029Y-106703891D01*
X186024151Y-106637214D01*
X186042635Y-106569834D01*
X186045029Y-106566109D01*
X186057872Y-106546887D01*
X186106632Y-106473914D01*
X186182051Y-106291835D01*
X186203457Y-106184223D01*
X186220500Y-106098543D01*
X186220500Y-105901456D01*
X186182052Y-105708170D01*
X186182051Y-105708169D01*
X186182051Y-105708165D01*
X186130061Y-105582648D01*
X186106635Y-105526092D01*
X186106633Y-105526088D01*
X186106632Y-105526086D01*
X186045029Y-105433891D01*
X186024151Y-105367214D01*
X186042635Y-105299834D01*
X186045029Y-105296109D01*
X186057872Y-105276887D01*
X186106632Y-105203914D01*
X186182051Y-105021835D01*
X186220500Y-104828541D01*
X186220500Y-104631459D01*
X186220500Y-104631456D01*
X186182052Y-104438170D01*
X186182051Y-104438169D01*
X186182051Y-104438165D01*
X186171825Y-104413477D01*
X186106635Y-104256092D01*
X186106633Y-104256088D01*
X186106632Y-104256086D01*
X186045029Y-104163891D01*
X186024151Y-104097214D01*
X186042635Y-104029834D01*
X186045029Y-104026109D01*
X186057872Y-104006887D01*
X186106632Y-103933914D01*
X186182051Y-103751835D01*
X186203457Y-103644223D01*
X186220500Y-103558543D01*
X186220500Y-103361456D01*
X186182052Y-103168170D01*
X186182051Y-103168169D01*
X186182051Y-103168165D01*
X186130061Y-103042648D01*
X186106635Y-102986092D01*
X186106633Y-102986088D01*
X186106632Y-102986086D01*
X186045029Y-102893891D01*
X186024151Y-102827214D01*
X186042635Y-102759834D01*
X186045029Y-102756109D01*
X186057872Y-102736887D01*
X186106632Y-102663914D01*
X186182051Y-102481835D01*
X186220500Y-102288541D01*
X186220500Y-102091459D01*
X186220500Y-102091456D01*
X186182052Y-101898170D01*
X186182051Y-101898169D01*
X186182051Y-101898165D01*
X186171825Y-101873477D01*
X186106635Y-101716092D01*
X186106633Y-101716088D01*
X186106632Y-101716086D01*
X186045029Y-101623891D01*
X186024151Y-101557214D01*
X186042635Y-101489834D01*
X186045029Y-101486109D01*
X186057872Y-101466887D01*
X186106632Y-101393914D01*
X186182051Y-101211835D01*
X186203457Y-101104223D01*
X186220500Y-101018543D01*
X186220500Y-100821456D01*
X186182052Y-100628170D01*
X186182051Y-100628169D01*
X186182051Y-100628165D01*
X186130061Y-100502648D01*
X186106635Y-100446092D01*
X186106633Y-100446088D01*
X186106632Y-100446086D01*
X186045029Y-100353891D01*
X186024151Y-100287214D01*
X186042635Y-100219834D01*
X186045029Y-100216109D01*
X186057872Y-100196887D01*
X186106632Y-100123914D01*
X186182051Y-99941835D01*
X186220500Y-99748541D01*
X186220500Y-99551459D01*
X186220500Y-99551456D01*
X186182052Y-99358170D01*
X186182051Y-99358169D01*
X186182051Y-99358165D01*
X186171825Y-99333477D01*
X186106635Y-99176092D01*
X186106628Y-99176079D01*
X185997139Y-99012218D01*
X185997136Y-99012214D01*
X185857785Y-98872863D01*
X185857781Y-98872860D01*
X185693920Y-98763371D01*
X185693907Y-98763364D01*
X185511839Y-98687950D01*
X185511829Y-98687947D01*
X185318543Y-98649500D01*
X185318541Y-98649500D01*
X185121459Y-98649500D01*
X185121457Y-98649500D01*
X184928170Y-98687947D01*
X184928160Y-98687950D01*
X184746092Y-98763364D01*
X184746079Y-98763371D01*
X184582218Y-98872860D01*
X184582214Y-98872863D01*
X184442863Y-99012214D01*
X184442860Y-99012218D01*
X184333371Y-99176079D01*
X184333364Y-99176092D01*
X184257950Y-99358160D01*
X184257947Y-99358170D01*
X184219500Y-99551456D01*
X184219500Y-99551459D01*
X184219500Y-99748541D01*
X184219500Y-99748543D01*
X184219499Y-99748543D01*
X141700500Y-99748543D01*
X141700500Y-44439772D01*
X142498800Y-44439772D01*
X142498800Y-44702027D01*
X142525423Y-44904239D01*
X142533030Y-44962016D01*
X142600902Y-45215318D01*
X142600905Y-45215328D01*
X142701253Y-45457590D01*
X142701258Y-45457600D01*
X142832375Y-45684703D01*
X142992018Y-45892751D01*
X142992026Y-45892760D01*
X143177440Y-46078174D01*
X143177448Y-46078181D01*
X143385496Y-46237824D01*
X143612599Y-46368941D01*
X143612609Y-46368946D01*
X143854871Y-46469294D01*
X143854881Y-46469298D01*
X144108184Y-46537170D01*
X144368180Y-46571400D01*
X144368187Y-46571400D01*
X144630413Y-46571400D01*
X144630420Y-46571400D01*
X144890416Y-46537170D01*
X145143719Y-46469298D01*
X145385997Y-46368943D01*
X145613103Y-46237824D01*
X145821151Y-46078182D01*
X145821155Y-46078177D01*
X145821160Y-46078174D01*
X146006574Y-45892760D01*
X146006577Y-45892755D01*
X146006582Y-45892751D01*
X146166224Y-45684703D01*
X146297343Y-45457597D01*
X146397698Y-45215319D01*
X146465570Y-44962016D01*
X146499800Y-44702020D01*
X146499800Y-44439780D01*
X146499799Y-44439772D01*
X173499500Y-44439772D01*
X173499500Y-44702027D01*
X173526123Y-44904239D01*
X173533730Y-44962016D01*
X173601602Y-45215318D01*
X173601605Y-45215328D01*
X173701953Y-45457590D01*
X173701958Y-45457600D01*
X173833075Y-45684703D01*
X173992718Y-45892751D01*
X173992726Y-45892760D01*
X174178140Y-46078174D01*
X174178148Y-46078181D01*
X174386196Y-46237824D01*
X174613299Y-46368941D01*
X174613309Y-46368946D01*
X174855571Y-46469294D01*
X174855581Y-46469298D01*
X175108884Y-46537170D01*
X175368880Y-46571400D01*
X175368887Y-46571400D01*
X175631113Y-46571400D01*
X175631120Y-46571400D01*
X175891116Y-46537170D01*
X176144419Y-46469298D01*
X176386697Y-46368943D01*
X176613803Y-46237824D01*
X176821851Y-46078182D01*
X176821855Y-46078177D01*
X176821860Y-46078174D01*
X177007274Y-45892760D01*
X177007277Y-45892755D01*
X177007282Y-45892751D01*
X177166924Y-45684703D01*
X177298043Y-45457597D01*
X177398398Y-45215319D01*
X177466270Y-44962016D01*
X177500500Y-44702020D01*
X177500500Y-44439780D01*
X177466270Y-44179784D01*
X177398398Y-43926481D01*
X177398394Y-43926471D01*
X177298046Y-43684209D01*
X177298041Y-43684199D01*
X177166924Y-43457096D01*
X177007281Y-43249048D01*
X177007274Y-43249040D01*
X176821860Y-43063626D01*
X176821851Y-43063618D01*
X176613803Y-42903975D01*
X176386700Y-42772858D01*
X176386690Y-42772853D01*
X176144428Y-42672505D01*
X176144421Y-42672503D01*
X176144419Y-42672502D01*
X175891116Y-42604630D01*
X175833339Y-42597023D01*
X175631127Y-42570400D01*
X175631120Y-42570400D01*
X175368880Y-42570400D01*
X175368872Y-42570400D01*
X175137772Y-42600826D01*
X175108884Y-42604630D01*
X174855581Y-42672502D01*
X174855571Y-42672505D01*
X174613309Y-42772853D01*
X174613299Y-42772858D01*
X174386196Y-42903975D01*
X174178148Y-43063618D01*
X173992718Y-43249048D01*
X173833075Y-43457096D01*
X173701958Y-43684199D01*
X173701953Y-43684209D01*
X173601605Y-43926471D01*
X173601602Y-43926481D01*
X173533730Y-44179785D01*
X173499500Y-44439772D01*
X146499799Y-44439772D01*
X146465570Y-44179784D01*
X146397698Y-43926481D01*
X146397694Y-43926471D01*
X146297346Y-43684209D01*
X146297341Y-43684199D01*
X146166224Y-43457096D01*
X146006581Y-43249048D01*
X146006574Y-43249040D01*
X145821160Y-43063626D01*
X145821151Y-43063618D01*
X145613103Y-42903975D01*
X145386000Y-42772858D01*
X145385990Y-42772853D01*
X145143728Y-42672505D01*
X145143721Y-42672503D01*
X145143719Y-42672502D01*
X144890416Y-42604630D01*
X144832639Y-42597023D01*
X144630427Y-42570400D01*
X144630420Y-42570400D01*
X144368180Y-42570400D01*
X144368172Y-42570400D01*
X144137072Y-42600826D01*
X144108184Y-42604630D01*
X143854881Y-42672502D01*
X143854871Y-42672505D01*
X143612609Y-42772853D01*
X143612599Y-42772858D01*
X143385496Y-42903975D01*
X143177448Y-43063618D01*
X142992018Y-43249048D01*
X142832375Y-43457096D01*
X142701258Y-43684199D01*
X142701253Y-43684209D01*
X142600905Y-43926471D01*
X142600902Y-43926481D01*
X142533030Y-44179785D01*
X142498800Y-44439772D01*
X141700500Y-44439772D01*
X141700500Y-41824500D01*
X141720185Y-41757461D01*
X141772989Y-41711706D01*
X141824500Y-41700500D01*
X186575500Y-41700500D01*
X186642539Y-41720185D01*
G37*
%TD.AperFunction*%
%TA.AperFunction,Conductor*%
G36*
X238280000Y-84931988D02*
G01*
X238222993Y-84899075D01*
X238095826Y-84865000D01*
X237964174Y-84865000D01*
X237837007Y-84899075D01*
X237780000Y-84931988D01*
X237780000Y-83258012D01*
X237837007Y-83290925D01*
X237964174Y-83325000D01*
X238095826Y-83325000D01*
X238222993Y-83290925D01*
X238280000Y-83258012D01*
X238280000Y-84931988D01*
G37*
%TD.AperFunction*%
%TA.AperFunction,Conductor*%
G36*
X177345634Y-59450554D02*
G01*
X187232181Y-69337101D01*
X187265666Y-69398424D01*
X187268500Y-69424782D01*
X187268500Y-72009217D01*
X187248815Y-72076256D01*
X187196011Y-72122011D01*
X187126853Y-72131955D01*
X187063297Y-72102930D01*
X187056819Y-72096898D01*
X177217581Y-62257661D01*
X177194777Y-62226275D01*
X177097815Y-62035978D01*
X177054941Y-61976966D01*
X176968247Y-61857641D01*
X176968243Y-61857636D01*
X176812363Y-61701756D01*
X176812358Y-61701752D01*
X176672319Y-61600008D01*
X176629653Y-61544678D01*
X176623674Y-61475065D01*
X176656279Y-61413270D01*
X176672319Y-61399372D01*
X176812035Y-61297862D01*
X176812041Y-61297857D01*
X176967857Y-61142041D01*
X177097386Y-60963760D01*
X177197432Y-60767410D01*
X177265526Y-60557838D01*
X177265526Y-60557835D01*
X177277855Y-60480000D01*
X176048482Y-60480000D01*
X176059111Y-60461591D01*
X176100000Y-60308991D01*
X176100000Y-60151009D01*
X176059111Y-59998409D01*
X176048482Y-59980000D01*
X177277855Y-59980000D01*
X177265526Y-59902164D01*
X177265526Y-59902161D01*
X177197432Y-59692589D01*
X177147468Y-59594530D01*
X177134572Y-59525861D01*
X177160848Y-59461121D01*
X177217954Y-59420863D01*
X177287760Y-59417871D01*
X177345634Y-59450554D01*
G37*
%TD.AperFunction*%
%TD*%
M02*
