%TF.GenerationSoftware,KiCad,Pcbnew,9.0.6*%
%TF.CreationDate,2025-11-25T17:36:57-05:00*%
%TF.ProjectId,hardware,68617264-7761-4726-952e-6b696361645f,rev?*%
%TF.SameCoordinates,Original*%
%TF.FileFunction,Paste,Top*%
%TF.FilePolarity,Positive*%
%FSLAX46Y46*%
G04 Gerber Fmt 4.6, Leading zero omitted, Abs format (unit mm)*
G04 Created by KiCad (PCBNEW 9.0.6) date 2025-11-25 17:36:57*
%MOMM*%
%LPD*%
G01*
G04 APERTURE LIST*
G04 Aperture macros list*
%AMRoundRect*
0 Rectangle with rounded corners*
0 $1 Rounding radius*
0 $2 $3 $4 $5 $6 $7 $8 $9 X,Y pos of 4 corners*
0 Add a 4 corners polygon primitive as box body*
4,1,4,$2,$3,$4,$5,$6,$7,$8,$9,$2,$3,0*
0 Add four circle primitives for the rounded corners*
1,1,$1+$1,$2,$3*
1,1,$1+$1,$4,$5*
1,1,$1+$1,$6,$7*
1,1,$1+$1,$8,$9*
0 Add four rect primitives between the rounded corners*
20,1,$1+$1,$2,$3,$4,$5,0*
20,1,$1+$1,$4,$5,$6,$7,0*
20,1,$1+$1,$6,$7,$8,$9,0*
20,1,$1+$1,$8,$9,$2,$3,0*%
G04 Aperture macros list end*
%ADD10RoundRect,0.250000X-0.450000X0.350000X-0.450000X-0.350000X0.450000X-0.350000X0.450000X0.350000X0*%
%ADD11R,0.700000X0.200000*%
%ADD12RoundRect,0.175000X0.175000X0.425000X-0.175000X0.425000X-0.175000X-0.425000X0.175000X-0.425000X0*%
%ADD13RoundRect,0.190000X-0.190000X-0.410000X0.190000X-0.410000X0.190000X0.410000X-0.190000X0.410000X0*%
%ADD14RoundRect,0.200000X-0.200000X-0.400000X0.200000X-0.400000X0.200000X0.400000X-0.200000X0.400000X0*%
%ADD15RoundRect,0.175000X-0.175000X-0.425000X0.175000X-0.425000X0.175000X0.425000X-0.175000X0.425000X0*%
%ADD16RoundRect,0.190000X0.190000X0.410000X-0.190000X0.410000X-0.190000X-0.410000X0.190000X-0.410000X0*%
%ADD17RoundRect,0.200000X0.200000X0.400000X-0.200000X0.400000X-0.200000X-0.400000X0.200000X-0.400000X0*%
%ADD18O,1.100000X1.700000*%
%ADD19RoundRect,0.150000X0.150000X0.425000X-0.150000X0.425000X-0.150000X-0.425000X0.150000X-0.425000X0*%
%ADD20RoundRect,0.075000X0.075000X0.500000X-0.075000X0.500000X-0.075000X-0.500000X0.075000X-0.500000X0*%
%ADD21O,1.000000X2.100000*%
%ADD22O,1.000000X1.800000*%
G04 APERTURE END LIST*
D10*
%TO.C,R2*%
X119450000Y-31940000D03*
X119450000Y-33940000D03*
%TD*%
D11*
%TO.C,Module1*%
X88960000Y-49925000D03*
X92040000Y-49925000D03*
X88960000Y-50325000D03*
X92040000Y-50325000D03*
X88960000Y-50725000D03*
X92040000Y-50725000D03*
X88960000Y-51125000D03*
X92040000Y-51125000D03*
X88960000Y-51525000D03*
X92040000Y-51525000D03*
X88960000Y-51925000D03*
X92040000Y-51925000D03*
X88960000Y-52325000D03*
X92040000Y-52325000D03*
X88960000Y-52725000D03*
X92040000Y-52725000D03*
X88960000Y-53125000D03*
X92040000Y-53125000D03*
X88960000Y-53525000D03*
X92040000Y-53525000D03*
X88960000Y-53925000D03*
X92040000Y-53925000D03*
X88960000Y-54325000D03*
X92040000Y-54325000D03*
X88960000Y-54725000D03*
X92040000Y-54725000D03*
X88960000Y-55125000D03*
X92040000Y-55125000D03*
X88960000Y-55525000D03*
X92040000Y-55525000D03*
X88960000Y-55925000D03*
X92040000Y-55925000D03*
X88960000Y-56325000D03*
X92040000Y-56325000D03*
X88960000Y-56725000D03*
X92040000Y-56725000D03*
X88960000Y-57125000D03*
X92040000Y-57125000D03*
X88960000Y-57525000D03*
X92040000Y-57525000D03*
X88960000Y-57925000D03*
X92040000Y-57925000D03*
X88960000Y-58325000D03*
X92040000Y-58325000D03*
X88960000Y-58725000D03*
X92040000Y-58725000D03*
X88960000Y-59125000D03*
X92040000Y-59125000D03*
X88960000Y-59525000D03*
X92040000Y-59525000D03*
X88960000Y-59925000D03*
X92040000Y-59925000D03*
X88960000Y-60325000D03*
X92040000Y-60325000D03*
X88960000Y-60725000D03*
X92040000Y-60725000D03*
X88960000Y-61125000D03*
X92040000Y-61125000D03*
X88960000Y-61525000D03*
X92040000Y-61525000D03*
X88960000Y-61925000D03*
X92040000Y-61925000D03*
X88960000Y-62325000D03*
X92040000Y-62325000D03*
X88960000Y-62725000D03*
X92040000Y-62725000D03*
X88960000Y-63125000D03*
X92040000Y-63125000D03*
X88960000Y-63525000D03*
X92040000Y-63525000D03*
X88960000Y-63925000D03*
X92040000Y-63925000D03*
X88960000Y-64325000D03*
X92040000Y-64325000D03*
X88960000Y-64725000D03*
X92040000Y-64725000D03*
X88960000Y-65125000D03*
X92040000Y-65125000D03*
X88960000Y-65525000D03*
X92040000Y-65525000D03*
X88960000Y-65925000D03*
X92040000Y-65925000D03*
X88960000Y-66325000D03*
X92040000Y-66325000D03*
X88960000Y-66725000D03*
X92040000Y-66725000D03*
X88960000Y-67125000D03*
X92040000Y-67125000D03*
X88960000Y-67525000D03*
X92040000Y-67525000D03*
X88960000Y-67925000D03*
X92040000Y-67925000D03*
X88960000Y-68325000D03*
X92040000Y-68325000D03*
X88960000Y-68725000D03*
X92040000Y-68725000D03*
X88960000Y-69125000D03*
X92040000Y-69125000D03*
X88960000Y-69525000D03*
X92040000Y-69525000D03*
X122960000Y-49925000D03*
X126040000Y-49925000D03*
X122960000Y-50325000D03*
X126040000Y-50325000D03*
X122960000Y-50725000D03*
X126040000Y-50725000D03*
X122960000Y-51125000D03*
X126040000Y-51125000D03*
X122960000Y-51525000D03*
X126040000Y-51525000D03*
X122960000Y-51925000D03*
X126040000Y-51925000D03*
X122960000Y-52325000D03*
X126040000Y-52325000D03*
X122960000Y-52725000D03*
X126040000Y-52725000D03*
X122960000Y-53125000D03*
X126040000Y-53125000D03*
X122960000Y-53525000D03*
X126040000Y-53525000D03*
X122960000Y-53925000D03*
X126040000Y-53925000D03*
X122960000Y-54325000D03*
X126040000Y-54325000D03*
X122960000Y-54725000D03*
X126040000Y-54725000D03*
X122960000Y-55125000D03*
X126040000Y-55125000D03*
X122960000Y-55525000D03*
X126040000Y-55525000D03*
X122960000Y-55925000D03*
X126040000Y-55925000D03*
X122960000Y-56325000D03*
X126040000Y-56325000D03*
X122960000Y-56725000D03*
X126040000Y-56725000D03*
X122960000Y-57125000D03*
X126040000Y-57125000D03*
X122960000Y-57525000D03*
X126040000Y-57525000D03*
X122960000Y-57925000D03*
X126040000Y-57925000D03*
X122960000Y-58325000D03*
X126040000Y-58325000D03*
X122960000Y-58725000D03*
X126040000Y-58725000D03*
X122960000Y-59125000D03*
X126040000Y-59125000D03*
X122960000Y-59525000D03*
X126040000Y-59525000D03*
X122960000Y-59925000D03*
X126040000Y-59925000D03*
X122960000Y-60325000D03*
X126040000Y-60325000D03*
X122960000Y-60725000D03*
X126040000Y-60725000D03*
X122960000Y-61125000D03*
X126040000Y-61125000D03*
X122960000Y-61525000D03*
X126040000Y-61525000D03*
X122960000Y-61925000D03*
X126040000Y-61925000D03*
X122960000Y-62325000D03*
X126040000Y-62325000D03*
X122960000Y-62725000D03*
X126040000Y-62725000D03*
X122960000Y-63125000D03*
X126040000Y-63125000D03*
X122960000Y-63525000D03*
X126040000Y-63525000D03*
X122960000Y-63925000D03*
X126040000Y-63925000D03*
X122960000Y-64325000D03*
X126040000Y-64325000D03*
X122960000Y-64725000D03*
X126040000Y-64725000D03*
X122960000Y-65125000D03*
X126040000Y-65125000D03*
X122960000Y-65525000D03*
X126040000Y-65525000D03*
X122960000Y-65925000D03*
X126040000Y-65925000D03*
X122960000Y-66325000D03*
X126040000Y-66325000D03*
X122960000Y-66725000D03*
X126040000Y-66725000D03*
X122960000Y-67125000D03*
X126040000Y-67125000D03*
X122960000Y-67525000D03*
X126040000Y-67525000D03*
X122960000Y-67925000D03*
X126040000Y-67925000D03*
X122960000Y-68325000D03*
X126040000Y-68325000D03*
X122960000Y-68725000D03*
X126040000Y-68725000D03*
X122960000Y-69125000D03*
X126040000Y-69125000D03*
X122960000Y-69525000D03*
X126040000Y-69525000D03*
%TD*%
D10*
%TO.C,R1*%
X116450000Y-31950000D03*
X116450000Y-33950000D03*
%TD*%
D12*
%TO.C,J1*%
X108000000Y-27805000D03*
D13*
X105980000Y-27805000D03*
D14*
X104750000Y-27805000D03*
D15*
X107000000Y-27805000D03*
D16*
X109020000Y-27805000D03*
D17*
X110250000Y-27805000D03*
D18*
X111820000Y-27725000D03*
X111820000Y-23925000D03*
X103180000Y-27725000D03*
X103180000Y-23925000D03*
%TD*%
D19*
%TO.C,J2*%
X121400000Y-28680000D03*
X120600000Y-28680000D03*
D20*
X119450000Y-28680000D03*
X118450000Y-28680000D03*
X117950000Y-28680000D03*
X116950000Y-28680000D03*
D19*
X115800000Y-28680000D03*
X115000000Y-28680000D03*
X115000000Y-28680000D03*
X115800000Y-28680000D03*
D20*
X116450000Y-28680000D03*
X117450000Y-28680000D03*
X118950000Y-28680000D03*
X119950000Y-28680000D03*
D19*
X120600000Y-28680000D03*
X121400000Y-28680000D03*
D21*
X122520000Y-28105000D03*
D22*
X122520000Y-23925000D03*
D21*
X113880000Y-28105000D03*
D22*
X113880000Y-23925000D03*
%TD*%
M02*
