M48
; DRILL file {KiCad 9.0.6} date 2025-11-25T17:37:00-0500
; FORMAT={-:-/ absolute / metric / decimal}
; #@! TF.CreationDate,2025-11-25T17:37:00-05:00
; #@! TF.GenerationSoftware,Kicad,Pcbnew,9.0.6
; #@! TF.FileFunction,Plated,1,2,PTH
FMAT,2
METRIC
; #@! TA.AperFunction,Plated,PTH,ViaDrill
T1C0.300
; #@! TA.AperFunction,Plated,PTH,ComponentDrill
T2C0.600
%
G90
G05
T1
X90.4Y-51.125
X90.45Y-56.06
X90.47Y-49.95
X90.47Y-54.19
X90.47Y-57.95
X90.47Y-69.32
X90.5Y-62.725
X90.545Y-60.075
X96.196Y-64.546
X97.044Y-65.394
X115.0Y-31.06
X116.75Y-26.96
X119.96Y-26.92
X121.4Y-30.36
X124.34Y-53.525
X124.53Y-51.125
X124.53Y-55.925
X124.53Y-61.925
X124.56Y-63.12
X124.56Y-64.31
X124.56Y-65.57
X124.57Y-70.29
X124.815Y-57.915
X124.892Y-60.142
T2
X103.18Y-24.225G85X103.18Y-23.625
G05
X103.18Y-28.025G85X103.18Y-27.425
G05
X111.82Y-24.225G85X111.82Y-23.625
G05
X111.82Y-28.025G85X111.82Y-27.425
G05
X113.88Y-24.325G85X113.88Y-23.525
G05
X113.88Y-28.655G85X113.88Y-27.555
G05
X122.52Y-24.325G85X122.52Y-23.525
G05
X122.52Y-28.655G85X122.52Y-27.555
G05
M30
