%TF.GenerationSoftware,KiCad,Pcbnew,9.0.6*%
%TF.CreationDate,2025-11-25T17:36:57-05:00*%
%TF.ProjectId,hardware,68617264-7761-4726-952e-6b696361645f,rev?*%
%TF.SameCoordinates,Original*%
%TF.FileFunction,Copper,L2,Bot*%
%TF.FilePolarity,Positive*%
%FSLAX46Y46*%
G04 Gerber Fmt 4.6, Leading zero omitted, Abs format (unit mm)*
G04 Created by KiCad (PCBNEW 9.0.6) date 2025-11-25 17:36:57*
%MOMM*%
%LPD*%
G01*
G04 APERTURE LIST*
%TA.AperFunction,HeatsinkPad*%
%ADD10O,1.100000X1.700000*%
%TD*%
%TA.AperFunction,HeatsinkPad*%
%ADD11O,1.000000X2.100000*%
%TD*%
%TA.AperFunction,HeatsinkPad*%
%ADD12O,1.000000X1.800000*%
%TD*%
%TA.AperFunction,ViaPad*%
%ADD13C,0.600000*%
%TD*%
%TA.AperFunction,Conductor*%
%ADD14C,0.200000*%
%TD*%
G04 APERTURE END LIST*
D10*
%TO.P,J1,S1,SHIELD*%
%TO.N,GND*%
X111820000Y-27725000D03*
X111820000Y-23925000D03*
X103180000Y-27725000D03*
X103180000Y-23925000D03*
%TD*%
D11*
%TO.P,J2,S1,SHIELD*%
%TO.N,GND*%
X122520000Y-28105000D03*
D12*
X122520000Y-23925000D03*
D11*
X113880000Y-28105000D03*
D12*
X113880000Y-23925000D03*
%TD*%
D13*
%TO.N,GND*%
X90470000Y-57950000D03*
X90470000Y-54190000D03*
X124570000Y-70290000D03*
X90450000Y-56060000D03*
X90470000Y-49950000D03*
X124560000Y-63120000D03*
X124530000Y-55925000D03*
X116750000Y-26960000D03*
X90400000Y-51125000D03*
X124530000Y-61925000D03*
X124530000Y-51125000D03*
X124560000Y-65570000D03*
X124892500Y-60142500D03*
X115000000Y-31060000D03*
X121400000Y-30360000D03*
X119960000Y-26920000D03*
X90545000Y-60075000D03*
X90470000Y-69320000D03*
X90500000Y-62725000D03*
X124340000Y-53525000D03*
X124815000Y-57915000D03*
X124560000Y-64310000D03*
%TO.N,Net-(J1-CC2)*%
X96195735Y-64545735D03*
X97044265Y-65394265D03*
%TD*%
D14*
%TO.N,Net-(J1-CC2)*%
X96195735Y-64545735D02*
X97044265Y-65394265D01*
%TD*%
%TA.AperFunction,Conductor*%
%TO.N,GND*%
G36*
X113580000Y-24175000D02*
G01*
X112120000Y-24175000D01*
X112120000Y-23675000D01*
X113580000Y-23675000D01*
X113580000Y-24175000D01*
G37*
%TD.AperFunction*%
%TA.AperFunction,Conductor*%
G36*
X135942539Y-21840185D02*
G01*
X135988294Y-21892989D01*
X135999500Y-21944500D01*
X135999500Y-84375500D01*
X135979815Y-84442539D01*
X135927011Y-84488294D01*
X135875500Y-84499500D01*
X124391288Y-84499500D01*
X124324249Y-84479815D01*
X124278494Y-84427011D01*
X124268550Y-84357853D01*
X124297575Y-84294297D01*
X124356353Y-84256523D01*
X124377405Y-84252280D01*
X124511768Y-84237141D01*
X124511771Y-84237140D01*
X124511783Y-84237139D01*
X124845817Y-84160897D01*
X125169215Y-84047736D01*
X125477910Y-83899076D01*
X125768018Y-83716789D01*
X126035893Y-83503166D01*
X126278166Y-83260893D01*
X126491789Y-82993018D01*
X126674076Y-82702910D01*
X126822736Y-82394215D01*
X126935897Y-82070817D01*
X127012139Y-81736783D01*
X127050500Y-81396312D01*
X127050500Y-81053688D01*
X127046366Y-81017001D01*
X127031893Y-80888536D01*
X127030786Y-80878711D01*
X130649500Y-80878711D01*
X130649500Y-80878712D01*
X130649500Y-81121288D01*
X130681162Y-81361789D01*
X130690413Y-81396314D01*
X130743947Y-81596104D01*
X130836773Y-81820205D01*
X130836776Y-81820212D01*
X130958064Y-82030289D01*
X130958066Y-82030292D01*
X130958067Y-82030293D01*
X131105733Y-82222736D01*
X131105739Y-82222743D01*
X131277256Y-82394260D01*
X131277262Y-82394265D01*
X131469711Y-82541936D01*
X131679788Y-82663224D01*
X131903900Y-82756054D01*
X132138211Y-82818838D01*
X132318586Y-82842584D01*
X132378711Y-82850500D01*
X132378712Y-82850500D01*
X132621289Y-82850500D01*
X132669388Y-82844167D01*
X132861789Y-82818838D01*
X133096100Y-82756054D01*
X133320212Y-82663224D01*
X133530289Y-82541936D01*
X133722738Y-82394265D01*
X133894265Y-82222738D01*
X134041936Y-82030289D01*
X134163224Y-81820212D01*
X134256054Y-81596100D01*
X134318838Y-81361789D01*
X134350500Y-81121288D01*
X134350500Y-80878712D01*
X134318838Y-80638211D01*
X134256054Y-80403900D01*
X134163224Y-80179788D01*
X134041936Y-79969711D01*
X133894265Y-79777262D01*
X133894260Y-79777256D01*
X133722743Y-79605739D01*
X133722736Y-79605733D01*
X133530293Y-79458067D01*
X133530292Y-79458066D01*
X133530289Y-79458064D01*
X133320212Y-79336776D01*
X133320205Y-79336773D01*
X133096104Y-79243947D01*
X132861785Y-79181161D01*
X132621289Y-79149500D01*
X132621288Y-79149500D01*
X132378712Y-79149500D01*
X132378711Y-79149500D01*
X132138214Y-79181161D01*
X131903895Y-79243947D01*
X131679794Y-79336773D01*
X131679785Y-79336777D01*
X131497851Y-79441817D01*
X131471584Y-79456983D01*
X131469706Y-79458067D01*
X131277263Y-79605733D01*
X131277256Y-79605739D01*
X131105739Y-79777256D01*
X131105733Y-79777263D01*
X130958067Y-79969706D01*
X130836777Y-80179785D01*
X130836773Y-80179794D01*
X130743947Y-80403895D01*
X130681161Y-80638214D01*
X130649500Y-80878711D01*
X127030786Y-80878711D01*
X127012141Y-80713231D01*
X127012140Y-80713226D01*
X127012139Y-80713217D01*
X126935897Y-80379183D01*
X126822736Y-80055785D01*
X126674076Y-79747090D01*
X126491789Y-79456982D01*
X126278166Y-79189107D01*
X126035893Y-78946834D01*
X125768018Y-78733211D01*
X125477910Y-78550924D01*
X125477907Y-78550922D01*
X125169216Y-78402264D01*
X124845818Y-78289103D01*
X124845816Y-78289102D01*
X124588024Y-78230262D01*
X124511783Y-78212861D01*
X124511780Y-78212860D01*
X124511768Y-78212858D01*
X124171318Y-78174500D01*
X124171312Y-78174500D01*
X123828688Y-78174500D01*
X123828681Y-78174500D01*
X123488231Y-78212858D01*
X123488217Y-78212861D01*
X123154183Y-78289102D01*
X123154181Y-78289103D01*
X122830783Y-78402264D01*
X122522092Y-78550922D01*
X122231983Y-78733210D01*
X121964107Y-78946833D01*
X121721833Y-79189107D01*
X121508210Y-79456983D01*
X121325922Y-79747092D01*
X121177264Y-80055783D01*
X121064103Y-80379181D01*
X121064102Y-80379183D01*
X120987861Y-80713217D01*
X120987858Y-80713231D01*
X120949500Y-81053681D01*
X120949500Y-81396318D01*
X120987858Y-81736768D01*
X120987861Y-81736782D01*
X121064102Y-82070816D01*
X121064103Y-82070818D01*
X121177264Y-82394216D01*
X121325922Y-82702907D01*
X121325924Y-82702910D01*
X121508211Y-82993018D01*
X121721834Y-83260893D01*
X121964107Y-83503166D01*
X122231982Y-83716789D01*
X122522090Y-83899076D01*
X122830785Y-84047736D01*
X123154183Y-84160897D01*
X123488217Y-84237139D01*
X123488226Y-84237140D01*
X123488231Y-84237141D01*
X123622595Y-84252280D01*
X123687009Y-84279346D01*
X123726564Y-84336941D01*
X123728702Y-84406778D01*
X123692744Y-84466684D01*
X123630106Y-84497640D01*
X123608712Y-84499500D01*
X120624500Y-84499500D01*
X120557461Y-84479815D01*
X120511706Y-84427011D01*
X120500500Y-84375500D01*
X120500500Y-75934110D01*
X120500500Y-75934108D01*
X120466392Y-75806814D01*
X120400500Y-75692686D01*
X120307314Y-75599500D01*
X120250250Y-75566554D01*
X120193187Y-75533608D01*
X120129539Y-75516554D01*
X120065892Y-75499500D01*
X95065892Y-75499500D01*
X94934108Y-75499500D01*
X94806812Y-75533608D01*
X94692686Y-75599500D01*
X94692683Y-75599502D01*
X94599502Y-75692683D01*
X94599500Y-75692686D01*
X94533608Y-75806812D01*
X94499500Y-75934108D01*
X94499500Y-84375500D01*
X94479815Y-84442539D01*
X94427011Y-84488294D01*
X94375500Y-84499500D01*
X91391288Y-84499500D01*
X91324249Y-84479815D01*
X91278494Y-84427011D01*
X91268550Y-84357853D01*
X91297575Y-84294297D01*
X91356353Y-84256523D01*
X91377405Y-84252280D01*
X91511768Y-84237141D01*
X91511771Y-84237140D01*
X91511783Y-84237139D01*
X91845817Y-84160897D01*
X92169215Y-84047736D01*
X92477910Y-83899076D01*
X92768018Y-83716789D01*
X93035893Y-83503166D01*
X93278166Y-83260893D01*
X93491789Y-82993018D01*
X93674076Y-82702910D01*
X93822736Y-82394215D01*
X93935897Y-82070817D01*
X94012139Y-81736783D01*
X94050500Y-81396312D01*
X94050500Y-81053688D01*
X94031892Y-80888536D01*
X94012141Y-80713231D01*
X94012140Y-80713226D01*
X94012139Y-80713217D01*
X93935897Y-80379183D01*
X93822736Y-80055785D01*
X93674076Y-79747090D01*
X93491789Y-79456982D01*
X93278166Y-79189107D01*
X93035893Y-78946834D01*
X92768018Y-78733211D01*
X92477910Y-78550924D01*
X92477907Y-78550922D01*
X92169216Y-78402264D01*
X91845818Y-78289103D01*
X91845816Y-78289102D01*
X91588024Y-78230262D01*
X91511783Y-78212861D01*
X91511780Y-78212860D01*
X91511768Y-78212858D01*
X91171318Y-78174500D01*
X91171312Y-78174500D01*
X90828688Y-78174500D01*
X90828681Y-78174500D01*
X90488231Y-78212858D01*
X90488217Y-78212861D01*
X90154183Y-78289102D01*
X90154181Y-78289103D01*
X89830783Y-78402264D01*
X89522092Y-78550922D01*
X89231983Y-78733210D01*
X88964107Y-78946833D01*
X88721833Y-79189107D01*
X88508210Y-79456983D01*
X88325922Y-79747092D01*
X88177264Y-80055783D01*
X88064103Y-80379181D01*
X88064102Y-80379183D01*
X87987861Y-80713217D01*
X87987858Y-80713231D01*
X87949500Y-81053681D01*
X87949500Y-81396318D01*
X87987858Y-81736768D01*
X87987861Y-81736782D01*
X88064102Y-82070816D01*
X88064103Y-82070818D01*
X88177264Y-82394216D01*
X88325922Y-82702907D01*
X88325924Y-82702910D01*
X88508211Y-82993018D01*
X88721834Y-83260893D01*
X88964107Y-83503166D01*
X89231982Y-83716789D01*
X89522090Y-83899076D01*
X89830785Y-84047736D01*
X90154183Y-84160897D01*
X90488217Y-84237139D01*
X90488226Y-84237140D01*
X90488231Y-84237141D01*
X90622595Y-84252280D01*
X90687009Y-84279346D01*
X90726564Y-84336941D01*
X90728702Y-84406778D01*
X90692744Y-84466684D01*
X90630106Y-84497640D01*
X90608712Y-84499500D01*
X80124500Y-84499500D01*
X80057461Y-84479815D01*
X80011706Y-84427011D01*
X80000500Y-84375500D01*
X80000500Y-80878711D01*
X81649500Y-80878711D01*
X81649500Y-80878712D01*
X81649500Y-81121288D01*
X81681162Y-81361789D01*
X81690413Y-81396314D01*
X81743947Y-81596104D01*
X81836773Y-81820205D01*
X81836776Y-81820212D01*
X81958064Y-82030289D01*
X81958066Y-82030292D01*
X81958067Y-82030293D01*
X82105733Y-82222736D01*
X82105739Y-82222743D01*
X82277256Y-82394260D01*
X82277262Y-82394265D01*
X82469711Y-82541936D01*
X82679788Y-82663224D01*
X82903900Y-82756054D01*
X83138211Y-82818838D01*
X83318586Y-82842584D01*
X83378711Y-82850500D01*
X83378712Y-82850500D01*
X83621289Y-82850500D01*
X83669388Y-82844167D01*
X83861789Y-82818838D01*
X84096100Y-82756054D01*
X84320212Y-82663224D01*
X84530289Y-82541936D01*
X84722738Y-82394265D01*
X84894265Y-82222738D01*
X85041936Y-82030289D01*
X85163224Y-81820212D01*
X85256054Y-81596100D01*
X85318838Y-81361789D01*
X85350500Y-81121288D01*
X85350500Y-80878712D01*
X85318838Y-80638211D01*
X85256054Y-80403900D01*
X85163224Y-80179788D01*
X85041936Y-79969711D01*
X84894265Y-79777262D01*
X84894260Y-79777256D01*
X84722743Y-79605739D01*
X84722736Y-79605733D01*
X84530293Y-79458067D01*
X84530292Y-79458066D01*
X84530289Y-79458064D01*
X84320212Y-79336776D01*
X84320205Y-79336773D01*
X84096104Y-79243947D01*
X83861785Y-79181161D01*
X83621289Y-79149500D01*
X83621288Y-79149500D01*
X83378712Y-79149500D01*
X83378711Y-79149500D01*
X83138214Y-79181161D01*
X82903895Y-79243947D01*
X82679794Y-79336773D01*
X82679785Y-79336777D01*
X82497851Y-79441817D01*
X82471584Y-79456983D01*
X82469706Y-79458067D01*
X82277263Y-79605733D01*
X82277256Y-79605739D01*
X82105739Y-79777256D01*
X82105733Y-79777263D01*
X81958067Y-79969706D01*
X81836777Y-80179785D01*
X81836773Y-80179794D01*
X81743947Y-80403895D01*
X81681161Y-80638214D01*
X81649500Y-80878711D01*
X80000500Y-80878711D01*
X80000500Y-64466888D01*
X95395235Y-64466888D01*
X95395235Y-64624581D01*
X95425996Y-64779224D01*
X95425999Y-64779236D01*
X95486337Y-64924907D01*
X95486344Y-64924920D01*
X95573945Y-65056023D01*
X95573948Y-65056027D01*
X95685442Y-65167521D01*
X95685446Y-65167524D01*
X95816549Y-65255125D01*
X95816562Y-65255132D01*
X95962112Y-65315420D01*
X95962238Y-65315472D01*
X96026882Y-65328330D01*
X96117584Y-65346373D01*
X96134340Y-65355137D01*
X96152820Y-65359158D01*
X96177858Y-65377902D01*
X96179495Y-65378758D01*
X96181074Y-65380309D01*
X96209690Y-65408925D01*
X96243175Y-65470248D01*
X96243626Y-65472414D01*
X96274526Y-65627756D01*
X96274529Y-65627766D01*
X96334867Y-65773437D01*
X96334874Y-65773450D01*
X96422475Y-65904553D01*
X96422478Y-65904557D01*
X96533972Y-66016051D01*
X96533976Y-66016054D01*
X96665079Y-66103655D01*
X96665092Y-66103662D01*
X96810763Y-66164000D01*
X96810768Y-66164002D01*
X96965418Y-66194764D01*
X96965421Y-66194765D01*
X96965423Y-66194765D01*
X97123109Y-66194765D01*
X97123110Y-66194764D01*
X97277762Y-66164002D01*
X97423444Y-66103659D01*
X97554554Y-66016054D01*
X97666054Y-65904554D01*
X97753659Y-65773444D01*
X97814002Y-65627762D01*
X97844765Y-65473107D01*
X97844765Y-65315423D01*
X97844765Y-65315420D01*
X97844764Y-65315418D01*
X97832771Y-65255125D01*
X97814002Y-65160768D01*
X97814000Y-65160763D01*
X97753662Y-65015092D01*
X97753655Y-65015079D01*
X97666054Y-64883976D01*
X97666051Y-64883972D01*
X97554557Y-64772478D01*
X97554553Y-64772475D01*
X97423450Y-64684874D01*
X97423437Y-64684867D01*
X97277766Y-64624529D01*
X97277756Y-64624526D01*
X97122416Y-64593627D01*
X97105659Y-64584861D01*
X97087181Y-64580842D01*
X97062142Y-64562097D01*
X97060506Y-64561242D01*
X97058927Y-64559691D01*
X97030308Y-64531072D01*
X96996823Y-64469749D01*
X96996372Y-64467582D01*
X96965473Y-64312245D01*
X96965472Y-64312238D01*
X96965470Y-64312233D01*
X96905132Y-64166562D01*
X96905125Y-64166549D01*
X96817524Y-64035446D01*
X96817521Y-64035442D01*
X96706027Y-63923948D01*
X96706023Y-63923945D01*
X96574920Y-63836344D01*
X96574907Y-63836337D01*
X96429236Y-63775999D01*
X96429224Y-63775996D01*
X96274580Y-63745235D01*
X96274577Y-63745235D01*
X96116893Y-63745235D01*
X96116890Y-63745235D01*
X95962245Y-63775996D01*
X95962233Y-63775999D01*
X95816562Y-63836337D01*
X95816549Y-63836344D01*
X95685446Y-63923945D01*
X95685442Y-63923948D01*
X95573948Y-64035442D01*
X95573945Y-64035446D01*
X95486344Y-64166549D01*
X95486337Y-64166562D01*
X95425999Y-64312233D01*
X95425996Y-64312245D01*
X95395235Y-64466888D01*
X80000500Y-64466888D01*
X80000500Y-33053681D01*
X87949500Y-33053681D01*
X87949500Y-33396318D01*
X87987858Y-33736768D01*
X87987861Y-33736782D01*
X88064102Y-34070816D01*
X88064103Y-34070818D01*
X88177264Y-34394216D01*
X88325922Y-34702907D01*
X88325924Y-34702910D01*
X88508211Y-34993018D01*
X88721834Y-35260893D01*
X88964107Y-35503166D01*
X89231982Y-35716789D01*
X89522090Y-35899076D01*
X89830785Y-36047736D01*
X90154183Y-36160897D01*
X90488217Y-36237139D01*
X90488226Y-36237140D01*
X90488231Y-36237141D01*
X90715197Y-36262713D01*
X90828682Y-36275499D01*
X90828685Y-36275500D01*
X90828688Y-36275500D01*
X91171315Y-36275500D01*
X91171316Y-36275499D01*
X91345311Y-36255895D01*
X91511768Y-36237141D01*
X91511771Y-36237140D01*
X91511783Y-36237139D01*
X91845817Y-36160897D01*
X92169215Y-36047736D01*
X92477910Y-35899076D01*
X92768018Y-35716789D01*
X93035893Y-35503166D01*
X93278166Y-35260893D01*
X93491789Y-34993018D01*
X93674076Y-34702910D01*
X93822736Y-34394215D01*
X93935897Y-34070817D01*
X94012139Y-33736783D01*
X94050500Y-33396312D01*
X94050500Y-33053688D01*
X94050499Y-33053681D01*
X120949500Y-33053681D01*
X120949500Y-33396318D01*
X120987858Y-33736768D01*
X120987861Y-33736782D01*
X121064102Y-34070816D01*
X121064103Y-34070818D01*
X121177264Y-34394216D01*
X121325922Y-34702907D01*
X121325924Y-34702910D01*
X121508211Y-34993018D01*
X121721834Y-35260893D01*
X121964107Y-35503166D01*
X122231982Y-35716789D01*
X122522090Y-35899076D01*
X122830785Y-36047736D01*
X123154183Y-36160897D01*
X123488217Y-36237139D01*
X123488226Y-36237140D01*
X123488231Y-36237141D01*
X123715197Y-36262713D01*
X123828682Y-36275499D01*
X123828685Y-36275500D01*
X123828688Y-36275500D01*
X124171315Y-36275500D01*
X124171316Y-36275499D01*
X124345311Y-36255895D01*
X124511768Y-36237141D01*
X124511771Y-36237140D01*
X124511783Y-36237139D01*
X124845817Y-36160897D01*
X125169215Y-36047736D01*
X125477910Y-35899076D01*
X125768018Y-35716789D01*
X126035893Y-35503166D01*
X126278166Y-35260893D01*
X126491789Y-34993018D01*
X126674076Y-34702910D01*
X126822736Y-34394215D01*
X126935897Y-34070817D01*
X127012139Y-33736783D01*
X127050500Y-33396312D01*
X127050500Y-33053688D01*
X127012139Y-32713217D01*
X126935897Y-32379183D01*
X126822736Y-32055785D01*
X126674076Y-31747090D01*
X126491789Y-31456982D01*
X126278166Y-31189107D01*
X126035893Y-30946834D01*
X125768018Y-30733211D01*
X125477910Y-30550924D01*
X125477907Y-30550922D01*
X125169216Y-30402264D01*
X124845818Y-30289103D01*
X124845816Y-30289102D01*
X124588024Y-30230262D01*
X124511783Y-30212861D01*
X124511780Y-30212860D01*
X124511768Y-30212858D01*
X124171318Y-30174500D01*
X124171312Y-30174500D01*
X123828688Y-30174500D01*
X123828681Y-30174500D01*
X123488231Y-30212858D01*
X123488217Y-30212861D01*
X123154183Y-30289102D01*
X123154181Y-30289103D01*
X122830783Y-30402264D01*
X122522092Y-30550922D01*
X122231983Y-30733210D01*
X121964107Y-30946833D01*
X121721833Y-31189107D01*
X121508210Y-31456983D01*
X121325922Y-31747092D01*
X121177264Y-32055783D01*
X121064103Y-32379181D01*
X121064102Y-32379183D01*
X120987861Y-32713217D01*
X120987858Y-32713231D01*
X120949500Y-33053681D01*
X94050499Y-33053681D01*
X94012139Y-32713217D01*
X93935897Y-32379183D01*
X93822736Y-32055785D01*
X93674076Y-31747090D01*
X93491789Y-31456982D01*
X93278166Y-31189107D01*
X93035893Y-30946834D01*
X92768018Y-30733211D01*
X92477910Y-30550924D01*
X92477907Y-30550922D01*
X92169216Y-30402264D01*
X91845818Y-30289103D01*
X91845816Y-30289102D01*
X91588024Y-30230262D01*
X91511783Y-30212861D01*
X91511780Y-30212860D01*
X91511768Y-30212858D01*
X91171318Y-30174500D01*
X91171312Y-30174500D01*
X90828688Y-30174500D01*
X90828681Y-30174500D01*
X90488231Y-30212858D01*
X90488217Y-30212861D01*
X90154183Y-30289102D01*
X90154181Y-30289103D01*
X89830783Y-30402264D01*
X89522092Y-30550922D01*
X89231983Y-30733210D01*
X88964107Y-30946833D01*
X88721833Y-31189107D01*
X88508210Y-31456983D01*
X88325922Y-31747092D01*
X88177264Y-32055783D01*
X88064103Y-32379181D01*
X88064102Y-32379183D01*
X87987861Y-32713217D01*
X87987858Y-32713231D01*
X87949500Y-33053681D01*
X80000500Y-33053681D01*
X80000500Y-25378711D01*
X81649500Y-25378711D01*
X81649500Y-25621288D01*
X81681161Y-25861785D01*
X81743947Y-26096104D01*
X81836773Y-26320205D01*
X81836776Y-26320212D01*
X81958064Y-26530289D01*
X81958066Y-26530292D01*
X81958067Y-26530293D01*
X82105733Y-26722736D01*
X82105739Y-26722743D01*
X82277256Y-26894260D01*
X82277263Y-26894266D01*
X82390321Y-26981018D01*
X82469711Y-27041936D01*
X82679788Y-27163224D01*
X82867061Y-27240795D01*
X82893231Y-27251635D01*
X82903900Y-27256054D01*
X83138211Y-27318838D01*
X83318586Y-27342584D01*
X83378711Y-27350500D01*
X83378712Y-27350500D01*
X83621289Y-27350500D01*
X83669388Y-27344167D01*
X83840968Y-27321579D01*
X102130000Y-27321579D01*
X102130000Y-27475000D01*
X102880000Y-27475000D01*
X102880000Y-27975000D01*
X102130000Y-27975000D01*
X102130000Y-28128420D01*
X102170348Y-28331266D01*
X102170350Y-28331274D01*
X102249500Y-28522358D01*
X102249505Y-28522368D01*
X102364410Y-28694335D01*
X102364413Y-28694339D01*
X102510660Y-28840586D01*
X102510664Y-28840589D01*
X102682631Y-28955494D01*
X102682641Y-28955499D01*
X102873723Y-29034648D01*
X102873725Y-29034649D01*
X102930000Y-29045842D01*
X102930000Y-28191988D01*
X102939940Y-28209205D01*
X102995795Y-28265060D01*
X103064204Y-28304556D01*
X103140504Y-28325000D01*
X103219496Y-28325000D01*
X103295796Y-28304556D01*
X103364205Y-28265060D01*
X103420060Y-28209205D01*
X103430000Y-28191988D01*
X103430000Y-29045842D01*
X103486274Y-29034649D01*
X103486276Y-29034648D01*
X103677358Y-28955499D01*
X103677368Y-28955494D01*
X103849335Y-28840589D01*
X103849339Y-28840586D01*
X103995586Y-28694339D01*
X103995589Y-28694335D01*
X104110494Y-28522368D01*
X104110499Y-28522358D01*
X104189649Y-28331274D01*
X104189651Y-28331266D01*
X104229999Y-28128420D01*
X104230000Y-28128417D01*
X104230000Y-27975000D01*
X103480000Y-27975000D01*
X103480000Y-27475000D01*
X104230000Y-27475000D01*
X104230000Y-27321583D01*
X104229999Y-27321579D01*
X110770000Y-27321579D01*
X110770000Y-27475000D01*
X111520000Y-27475000D01*
X111520000Y-27975000D01*
X110770000Y-27975000D01*
X110770000Y-28128420D01*
X110810348Y-28331266D01*
X110810350Y-28331274D01*
X110889500Y-28522358D01*
X110889505Y-28522368D01*
X111004410Y-28694335D01*
X111004413Y-28694339D01*
X111150660Y-28840586D01*
X111150664Y-28840589D01*
X111322631Y-28955494D01*
X111322641Y-28955499D01*
X111513723Y-29034648D01*
X111513725Y-29034649D01*
X111570000Y-29045842D01*
X111570000Y-28191988D01*
X111579940Y-28209205D01*
X111635795Y-28265060D01*
X111704204Y-28304556D01*
X111780504Y-28325000D01*
X111859496Y-28325000D01*
X111935796Y-28304556D01*
X112004205Y-28265060D01*
X112060060Y-28209205D01*
X112070000Y-28191988D01*
X112070000Y-29045842D01*
X112126274Y-29034649D01*
X112126276Y-29034648D01*
X112317358Y-28955499D01*
X112317368Y-28955494D01*
X112489335Y-28840589D01*
X112489339Y-28840586D01*
X112635587Y-28694338D01*
X112652897Y-28668432D01*
X112706509Y-28623627D01*
X112775834Y-28614918D01*
X112838861Y-28645072D01*
X112875581Y-28704515D01*
X112880000Y-28737322D01*
X112880000Y-28753495D01*
X112918427Y-28946681D01*
X112918430Y-28946693D01*
X112993807Y-29128671D01*
X112993814Y-29128684D01*
X113103248Y-29292462D01*
X113103251Y-29292466D01*
X113242533Y-29431748D01*
X113242537Y-29431751D01*
X113406315Y-29541185D01*
X113406328Y-29541192D01*
X113588308Y-29616569D01*
X113630000Y-29624862D01*
X113630000Y-28821988D01*
X113639940Y-28839205D01*
X113695795Y-28895060D01*
X113764204Y-28934556D01*
X113840504Y-28955000D01*
X113919496Y-28955000D01*
X113995796Y-28934556D01*
X114064205Y-28895060D01*
X114120060Y-28839205D01*
X114130000Y-28821988D01*
X114130000Y-29624862D01*
X114171690Y-29616569D01*
X114171692Y-29616569D01*
X114353671Y-29541192D01*
X114353684Y-29541185D01*
X114517462Y-29431751D01*
X114517466Y-29431748D01*
X114656748Y-29292466D01*
X114656751Y-29292462D01*
X114766185Y-29128684D01*
X114766192Y-29128671D01*
X114841569Y-28946693D01*
X114841572Y-28946681D01*
X114879999Y-28753495D01*
X114880000Y-28753492D01*
X114880000Y-28355000D01*
X114180000Y-28355000D01*
X114180000Y-27855000D01*
X114718216Y-27855000D01*
X114785255Y-27874685D01*
X114825602Y-27916999D01*
X114849485Y-27958365D01*
X114956635Y-28065515D01*
X115087865Y-28141281D01*
X115234234Y-28180500D01*
X115234236Y-28180500D01*
X115385764Y-28180500D01*
X115385766Y-28180500D01*
X115532135Y-28141281D01*
X115663365Y-28065515D01*
X115770515Y-27958365D01*
X115846281Y-27827135D01*
X115885500Y-27680766D01*
X115885500Y-27529234D01*
X120514500Y-27529234D01*
X120514500Y-27680765D01*
X120553719Y-27827136D01*
X120569807Y-27855000D01*
X120629485Y-27958365D01*
X120736635Y-28065515D01*
X120867865Y-28141281D01*
X121014234Y-28180500D01*
X121014236Y-28180500D01*
X121165763Y-28180500D01*
X121165766Y-28180500D01*
X121312135Y-28141281D01*
X121443365Y-28065515D01*
X121550515Y-27958365D01*
X121574397Y-27916999D01*
X121624964Y-27868784D01*
X121681784Y-27855000D01*
X122220000Y-27855000D01*
X122220000Y-28355000D01*
X121520000Y-28355000D01*
X121520000Y-28753495D01*
X121558427Y-28946681D01*
X121558430Y-28946693D01*
X121633807Y-29128671D01*
X121633814Y-29128684D01*
X121743248Y-29292462D01*
X121743251Y-29292466D01*
X121882533Y-29431748D01*
X121882537Y-29431751D01*
X122046315Y-29541185D01*
X122046328Y-29541192D01*
X122228308Y-29616569D01*
X122270000Y-29624862D01*
X122270000Y-28821988D01*
X122279940Y-28839205D01*
X122335795Y-28895060D01*
X122404204Y-28934556D01*
X122480504Y-28955000D01*
X122559496Y-28955000D01*
X122635796Y-28934556D01*
X122704205Y-28895060D01*
X122760060Y-28839205D01*
X122770000Y-28821988D01*
X122770000Y-29624862D01*
X122811690Y-29616569D01*
X122811692Y-29616569D01*
X122993671Y-29541192D01*
X122993684Y-29541185D01*
X123157462Y-29431751D01*
X123157466Y-29431748D01*
X123296748Y-29292466D01*
X123296751Y-29292462D01*
X123406185Y-29128684D01*
X123406192Y-29128671D01*
X123481569Y-28946693D01*
X123481572Y-28946681D01*
X123519999Y-28753495D01*
X123520000Y-28753492D01*
X123520000Y-28355000D01*
X122820000Y-28355000D01*
X122820000Y-27855000D01*
X123520000Y-27855000D01*
X123520000Y-27456508D01*
X123519999Y-27456504D01*
X123481572Y-27263318D01*
X123481569Y-27263306D01*
X123406192Y-27081328D01*
X123406185Y-27081315D01*
X123296751Y-26917537D01*
X123296748Y-26917533D01*
X123157466Y-26778251D01*
X123157462Y-26778248D01*
X122993684Y-26668814D01*
X122993671Y-26668807D01*
X122811691Y-26593429D01*
X122811683Y-26593427D01*
X122770000Y-26585135D01*
X122770000Y-27388011D01*
X122760060Y-27370795D01*
X122704205Y-27314940D01*
X122635796Y-27275444D01*
X122559496Y-27255000D01*
X122480504Y-27255000D01*
X122404204Y-27275444D01*
X122335795Y-27314940D01*
X122279940Y-27370795D01*
X122270000Y-27388011D01*
X122270000Y-26585136D01*
X122269999Y-26585135D01*
X122228316Y-26593427D01*
X122228308Y-26593429D01*
X122046328Y-26668807D01*
X122046315Y-26668814D01*
X121882537Y-26778248D01*
X121882533Y-26778251D01*
X121743251Y-26917533D01*
X121743248Y-26917537D01*
X121633814Y-27081315D01*
X121633809Y-27081324D01*
X121629866Y-27090845D01*
X121586023Y-27145247D01*
X121519728Y-27167310D01*
X121452030Y-27150029D01*
X121446597Y-27146351D01*
X121312136Y-27068719D01*
X121212163Y-27041932D01*
X121165766Y-27029500D01*
X121014234Y-27029500D01*
X120867863Y-27068719D01*
X120736635Y-27144485D01*
X120736632Y-27144487D01*
X120629487Y-27251632D01*
X120629485Y-27251635D01*
X120553719Y-27382863D01*
X120514500Y-27529234D01*
X115885500Y-27529234D01*
X115846281Y-27382865D01*
X115770515Y-27251635D01*
X115663365Y-27144485D01*
X115593406Y-27104094D01*
X115532136Y-27068719D01*
X115432163Y-27041932D01*
X115385766Y-27029500D01*
X115234234Y-27029500D01*
X115087863Y-27068719D01*
X114996428Y-27121510D01*
X114956635Y-27144485D01*
X114956633Y-27144486D01*
X114949597Y-27148549D01*
X114948327Y-27146349D01*
X114894995Y-27166960D01*
X114826552Y-27152914D01*
X114776568Y-27104094D01*
X114770131Y-27090838D01*
X114766192Y-27081328D01*
X114766185Y-27081315D01*
X114656751Y-26917537D01*
X114656748Y-26917533D01*
X114517466Y-26778251D01*
X114517462Y-26778248D01*
X114353684Y-26668814D01*
X114353671Y-26668807D01*
X114171691Y-26593429D01*
X114171683Y-26593427D01*
X114130000Y-26585135D01*
X114130000Y-27388011D01*
X114120060Y-27370795D01*
X114064205Y-27314940D01*
X113995796Y-27275444D01*
X113919496Y-27255000D01*
X113840504Y-27255000D01*
X113764204Y-27275444D01*
X113695795Y-27314940D01*
X113639940Y-27370795D01*
X113630000Y-27388011D01*
X113630000Y-26585136D01*
X113629999Y-26585135D01*
X113588316Y-26593427D01*
X113588308Y-26593429D01*
X113406328Y-26668807D01*
X113406315Y-26668814D01*
X113242537Y-26778248D01*
X113242533Y-26778251D01*
X113103251Y-26917533D01*
X113103248Y-26917537D01*
X113011792Y-27054410D01*
X112958179Y-27099215D01*
X112888854Y-27107922D01*
X112825827Y-27077767D01*
X112794129Y-27032972D01*
X112750499Y-26927640D01*
X112750494Y-26927631D01*
X112635589Y-26755664D01*
X112635586Y-26755660D01*
X112489339Y-26609413D01*
X112489335Y-26609410D01*
X112317368Y-26494505D01*
X112317358Y-26494500D01*
X112126272Y-26415349D01*
X112126267Y-26415347D01*
X112070000Y-26404155D01*
X112070000Y-27258011D01*
X112060060Y-27240795D01*
X112004205Y-27184940D01*
X111935796Y-27145444D01*
X111859496Y-27125000D01*
X111780504Y-27125000D01*
X111704204Y-27145444D01*
X111635795Y-27184940D01*
X111579940Y-27240795D01*
X111570000Y-27258011D01*
X111570000Y-26404156D01*
X111569999Y-26404155D01*
X111513732Y-26415347D01*
X111513727Y-26415349D01*
X111322641Y-26494500D01*
X111322631Y-26494505D01*
X111150664Y-26609410D01*
X111150660Y-26609413D01*
X111004413Y-26755660D01*
X111004410Y-26755664D01*
X110889505Y-26927631D01*
X110889500Y-26927641D01*
X110810350Y-27118725D01*
X110810348Y-27118733D01*
X110770000Y-27321579D01*
X104229999Y-27321579D01*
X104189651Y-27118733D01*
X104189649Y-27118725D01*
X104110499Y-26927641D01*
X104110494Y-26927631D01*
X103995589Y-26755664D01*
X103995586Y-26755660D01*
X103849339Y-26609413D01*
X103849335Y-26609410D01*
X103677368Y-26494505D01*
X103677358Y-26494500D01*
X103486272Y-26415349D01*
X103486267Y-26415347D01*
X103430000Y-26404155D01*
X103430000Y-27258011D01*
X103420060Y-27240795D01*
X103364205Y-27184940D01*
X103295796Y-27145444D01*
X103219496Y-27125000D01*
X103140504Y-27125000D01*
X103064204Y-27145444D01*
X102995795Y-27184940D01*
X102939940Y-27240795D01*
X102930000Y-27258011D01*
X102930000Y-26404156D01*
X102929999Y-26404155D01*
X102873732Y-26415347D01*
X102873727Y-26415349D01*
X102682641Y-26494500D01*
X102682631Y-26494505D01*
X102510664Y-26609410D01*
X102510660Y-26609413D01*
X102364413Y-26755660D01*
X102364410Y-26755664D01*
X102249505Y-26927631D01*
X102249500Y-26927641D01*
X102170350Y-27118725D01*
X102170348Y-27118733D01*
X102130000Y-27321579D01*
X83840968Y-27321579D01*
X83861789Y-27318838D01*
X84096100Y-27256054D01*
X84157192Y-27230748D01*
X84229180Y-27200931D01*
X84257409Y-27189237D01*
X84320212Y-27163224D01*
X84530289Y-27041936D01*
X84722738Y-26894265D01*
X84894265Y-26722738D01*
X85041936Y-26530289D01*
X85163224Y-26320212D01*
X85256054Y-26096100D01*
X85318838Y-25861789D01*
X85350500Y-25621288D01*
X85350500Y-25378712D01*
X85350500Y-25378711D01*
X130649500Y-25378711D01*
X130649500Y-25621288D01*
X130681161Y-25861785D01*
X130743947Y-26096104D01*
X130836773Y-26320205D01*
X130836776Y-26320212D01*
X130958064Y-26530289D01*
X130958066Y-26530292D01*
X130958067Y-26530293D01*
X131105733Y-26722736D01*
X131105739Y-26722743D01*
X131277256Y-26894260D01*
X131277263Y-26894266D01*
X131390321Y-26981018D01*
X131469711Y-27041936D01*
X131679788Y-27163224D01*
X131867061Y-27240795D01*
X131893231Y-27251635D01*
X131903900Y-27256054D01*
X132138211Y-27318838D01*
X132318586Y-27342584D01*
X132378711Y-27350500D01*
X132378712Y-27350500D01*
X132621289Y-27350500D01*
X132669388Y-27344167D01*
X132861789Y-27318838D01*
X133096100Y-27256054D01*
X133320212Y-27163224D01*
X133530289Y-27041936D01*
X133722738Y-26894265D01*
X133894265Y-26722738D01*
X134041936Y-26530289D01*
X134163224Y-26320212D01*
X134256054Y-26096100D01*
X134318838Y-25861789D01*
X134350500Y-25621288D01*
X134350500Y-25378712D01*
X134318838Y-25138211D01*
X134256054Y-24903900D01*
X134163224Y-24679788D01*
X134041936Y-24469711D01*
X133894265Y-24277262D01*
X133894260Y-24277256D01*
X133722743Y-24105739D01*
X133722736Y-24105733D01*
X133530293Y-23958067D01*
X133530292Y-23958066D01*
X133530289Y-23958064D01*
X133320212Y-23836776D01*
X133320205Y-23836773D01*
X133096104Y-23743947D01*
X132861785Y-23681161D01*
X132621289Y-23649500D01*
X132621288Y-23649500D01*
X132378712Y-23649500D01*
X132378711Y-23649500D01*
X132138214Y-23681161D01*
X131903895Y-23743947D01*
X131679794Y-23836773D01*
X131679785Y-23836777D01*
X131469706Y-23958067D01*
X131277263Y-24105733D01*
X131277256Y-24105739D01*
X131105739Y-24277256D01*
X131105733Y-24277263D01*
X130958067Y-24469706D01*
X130836777Y-24679785D01*
X130836773Y-24679794D01*
X130743947Y-24903895D01*
X130681161Y-25138214D01*
X130649500Y-25378711D01*
X85350500Y-25378711D01*
X85318838Y-25138211D01*
X85256054Y-24903900D01*
X85163224Y-24679788D01*
X85041936Y-24469711D01*
X84894265Y-24277262D01*
X84894260Y-24277256D01*
X84722743Y-24105739D01*
X84722736Y-24105733D01*
X84530293Y-23958067D01*
X84530292Y-23958066D01*
X84530289Y-23958064D01*
X84320212Y-23836776D01*
X84320205Y-23836773D01*
X84096104Y-23743947D01*
X83861785Y-23681161D01*
X83621289Y-23649500D01*
X83621288Y-23649500D01*
X83378712Y-23649500D01*
X83378711Y-23649500D01*
X83138214Y-23681161D01*
X82903895Y-23743947D01*
X82679794Y-23836773D01*
X82679785Y-23836777D01*
X82469706Y-23958067D01*
X82277263Y-24105733D01*
X82277256Y-24105739D01*
X82105739Y-24277256D01*
X82105733Y-24277263D01*
X81958067Y-24469706D01*
X81836777Y-24679785D01*
X81836773Y-24679794D01*
X81743947Y-24903895D01*
X81681161Y-25138214D01*
X81649500Y-25378711D01*
X80000500Y-25378711D01*
X80000500Y-23521579D01*
X102130000Y-23521579D01*
X102130000Y-23675000D01*
X102880000Y-23675000D01*
X102880000Y-24175000D01*
X102130000Y-24175000D01*
X102130000Y-24328420D01*
X102170348Y-24531266D01*
X102170350Y-24531274D01*
X102249500Y-24722358D01*
X102249505Y-24722368D01*
X102364410Y-24894335D01*
X102364413Y-24894339D01*
X102510660Y-25040586D01*
X102510664Y-25040589D01*
X102682631Y-25155494D01*
X102682641Y-25155499D01*
X102873723Y-25234648D01*
X102873725Y-25234649D01*
X102930000Y-25245842D01*
X102930000Y-24391988D01*
X102939940Y-24409205D01*
X102995795Y-24465060D01*
X103064204Y-24504556D01*
X103140504Y-24525000D01*
X103219496Y-24525000D01*
X103295796Y-24504556D01*
X103364205Y-24465060D01*
X103420060Y-24409205D01*
X103430000Y-24391988D01*
X103430000Y-25245842D01*
X103486274Y-25234649D01*
X103486276Y-25234648D01*
X103677358Y-25155499D01*
X103677368Y-25155494D01*
X103849335Y-25040589D01*
X103849339Y-25040586D01*
X103995586Y-24894339D01*
X103995589Y-24894335D01*
X104110494Y-24722368D01*
X104110499Y-24722358D01*
X104189649Y-24531274D01*
X104189651Y-24531266D01*
X104229999Y-24328420D01*
X104230000Y-24328417D01*
X104230000Y-24175000D01*
X103480000Y-24175000D01*
X103480000Y-23675000D01*
X104230000Y-23675000D01*
X104230000Y-23521583D01*
X104229999Y-23521579D01*
X110770000Y-23521579D01*
X110770000Y-23675000D01*
X111520000Y-23675000D01*
X111520000Y-24175000D01*
X110770000Y-24175000D01*
X110770000Y-24328420D01*
X110810348Y-24531266D01*
X110810350Y-24531274D01*
X110889500Y-24722358D01*
X110889505Y-24722368D01*
X111004410Y-24894335D01*
X111004413Y-24894339D01*
X111150660Y-25040586D01*
X111150664Y-25040589D01*
X111322631Y-25155494D01*
X111322641Y-25155499D01*
X111513723Y-25234648D01*
X111513725Y-25234649D01*
X111570000Y-25245842D01*
X111570000Y-24391988D01*
X111579940Y-24409205D01*
X111635795Y-24465060D01*
X111704204Y-24504556D01*
X111780504Y-24525000D01*
X111859496Y-24525000D01*
X111935796Y-24504556D01*
X112004205Y-24465060D01*
X112060060Y-24409205D01*
X112070000Y-24391988D01*
X112070000Y-25245842D01*
X112126274Y-25234649D01*
X112126276Y-25234648D01*
X112317358Y-25155499D01*
X112317368Y-25155494D01*
X112489335Y-25040589D01*
X112489339Y-25040586D01*
X112635586Y-24894339D01*
X112635592Y-24894331D01*
X112752300Y-24719666D01*
X112805912Y-24674860D01*
X112875237Y-24666153D01*
X112938264Y-24696307D01*
X112969963Y-24741104D01*
X112993807Y-24798671D01*
X112993814Y-24798684D01*
X113103248Y-24962462D01*
X113103251Y-24962466D01*
X113242533Y-25101748D01*
X113242537Y-25101751D01*
X113406315Y-25211185D01*
X113406328Y-25211192D01*
X113588308Y-25286569D01*
X113630000Y-25294862D01*
X113630000Y-24491988D01*
X113639940Y-24509205D01*
X113695795Y-24565060D01*
X113764204Y-24604556D01*
X113840504Y-24625000D01*
X113919496Y-24625000D01*
X113995796Y-24604556D01*
X114064205Y-24565060D01*
X114120060Y-24509205D01*
X114130000Y-24491988D01*
X114130000Y-25294862D01*
X114171690Y-25286569D01*
X114171692Y-25286569D01*
X114353671Y-25211192D01*
X114353684Y-25211185D01*
X114517462Y-25101751D01*
X114517466Y-25101748D01*
X114656748Y-24962466D01*
X114656751Y-24962462D01*
X114766185Y-24798684D01*
X114766192Y-24798671D01*
X114841569Y-24616693D01*
X114841572Y-24616681D01*
X114879999Y-24423495D01*
X114880000Y-24423492D01*
X114880000Y-24175000D01*
X114180000Y-24175000D01*
X114180000Y-23675000D01*
X114880000Y-23675000D01*
X114880000Y-23426508D01*
X114879999Y-23426504D01*
X121520000Y-23426504D01*
X121520000Y-23675000D01*
X122220000Y-23675000D01*
X122220000Y-24175000D01*
X121520000Y-24175000D01*
X121520000Y-24423495D01*
X121558427Y-24616681D01*
X121558430Y-24616693D01*
X121633807Y-24798671D01*
X121633814Y-24798684D01*
X121743248Y-24962462D01*
X121743251Y-24962466D01*
X121882533Y-25101748D01*
X121882537Y-25101751D01*
X122046315Y-25211185D01*
X122046328Y-25211192D01*
X122228308Y-25286569D01*
X122270000Y-25294862D01*
X122270000Y-24491988D01*
X122279940Y-24509205D01*
X122335795Y-24565060D01*
X122404204Y-24604556D01*
X122480504Y-24625000D01*
X122559496Y-24625000D01*
X122635796Y-24604556D01*
X122704205Y-24565060D01*
X122760060Y-24509205D01*
X122770000Y-24491988D01*
X122770000Y-25294862D01*
X122811690Y-25286569D01*
X122811692Y-25286569D01*
X122875615Y-25260092D01*
X122993671Y-25211192D01*
X122993684Y-25211185D01*
X123157462Y-25101751D01*
X123157466Y-25101748D01*
X123296748Y-24962466D01*
X123296751Y-24962462D01*
X123406185Y-24798684D01*
X123406192Y-24798671D01*
X123481569Y-24616693D01*
X123481572Y-24616681D01*
X123519999Y-24423495D01*
X123520000Y-24423492D01*
X123520000Y-24175000D01*
X122820000Y-24175000D01*
X122820000Y-23675000D01*
X123520000Y-23675000D01*
X123520000Y-23426508D01*
X123519999Y-23426504D01*
X123481572Y-23233318D01*
X123481569Y-23233306D01*
X123406192Y-23051328D01*
X123406185Y-23051315D01*
X123296751Y-22887537D01*
X123296748Y-22887533D01*
X123157466Y-22748251D01*
X123157462Y-22748248D01*
X122993684Y-22638814D01*
X122993671Y-22638807D01*
X122811691Y-22563429D01*
X122811683Y-22563427D01*
X122770000Y-22555135D01*
X122770000Y-23358011D01*
X122760060Y-23340795D01*
X122704205Y-23284940D01*
X122635796Y-23245444D01*
X122559496Y-23225000D01*
X122480504Y-23225000D01*
X122404204Y-23245444D01*
X122335795Y-23284940D01*
X122279940Y-23340795D01*
X122270000Y-23358011D01*
X122270000Y-22555136D01*
X122269999Y-22555135D01*
X122228316Y-22563427D01*
X122228308Y-22563429D01*
X122046328Y-22638807D01*
X122046315Y-22638814D01*
X121882537Y-22748248D01*
X121882533Y-22748251D01*
X121743251Y-22887533D01*
X121743248Y-22887537D01*
X121633814Y-23051315D01*
X121633807Y-23051328D01*
X121558430Y-23233306D01*
X121558427Y-23233318D01*
X121520000Y-23426504D01*
X114879999Y-23426504D01*
X114841572Y-23233318D01*
X114841569Y-23233306D01*
X114766192Y-23051328D01*
X114766185Y-23051315D01*
X114656751Y-22887537D01*
X114656748Y-22887533D01*
X114517466Y-22748251D01*
X114517462Y-22748248D01*
X114353684Y-22638814D01*
X114353671Y-22638807D01*
X114171691Y-22563429D01*
X114171683Y-22563427D01*
X114130000Y-22555135D01*
X114130000Y-23358011D01*
X114120060Y-23340795D01*
X114064205Y-23284940D01*
X113995796Y-23245444D01*
X113919496Y-23225000D01*
X113840504Y-23225000D01*
X113764204Y-23245444D01*
X113695795Y-23284940D01*
X113639940Y-23340795D01*
X113630000Y-23358011D01*
X113630000Y-22555136D01*
X113629999Y-22555135D01*
X113588316Y-22563427D01*
X113588308Y-22563429D01*
X113406328Y-22638807D01*
X113406315Y-22638814D01*
X113242537Y-22748248D01*
X113242533Y-22748251D01*
X113103251Y-22887533D01*
X113103248Y-22887537D01*
X112993814Y-23051315D01*
X112993809Y-23051324D01*
X112969963Y-23108896D01*
X112926122Y-23163299D01*
X112859828Y-23185364D01*
X112792129Y-23168085D01*
X112752300Y-23130334D01*
X112635589Y-22955664D01*
X112635586Y-22955660D01*
X112489339Y-22809413D01*
X112489335Y-22809410D01*
X112317368Y-22694505D01*
X112317358Y-22694500D01*
X112126272Y-22615349D01*
X112126267Y-22615347D01*
X112070000Y-22604155D01*
X112070000Y-23458011D01*
X112060060Y-23440795D01*
X112004205Y-23384940D01*
X111935796Y-23345444D01*
X111859496Y-23325000D01*
X111780504Y-23325000D01*
X111704204Y-23345444D01*
X111635795Y-23384940D01*
X111579940Y-23440795D01*
X111570000Y-23458011D01*
X111570000Y-22604156D01*
X111569999Y-22604155D01*
X111513732Y-22615347D01*
X111513727Y-22615349D01*
X111322641Y-22694500D01*
X111322631Y-22694505D01*
X111150664Y-22809410D01*
X111150660Y-22809413D01*
X111004413Y-22955660D01*
X111004410Y-22955664D01*
X110889505Y-23127631D01*
X110889500Y-23127641D01*
X110810350Y-23318725D01*
X110810348Y-23318733D01*
X110770000Y-23521579D01*
X104229999Y-23521579D01*
X104189651Y-23318733D01*
X104189649Y-23318725D01*
X104110499Y-23127641D01*
X104110494Y-23127631D01*
X103995589Y-22955664D01*
X103995586Y-22955660D01*
X103849339Y-22809413D01*
X103849335Y-22809410D01*
X103677368Y-22694505D01*
X103677358Y-22694500D01*
X103486272Y-22615349D01*
X103486267Y-22615347D01*
X103430000Y-22604155D01*
X103430000Y-23458011D01*
X103420060Y-23440795D01*
X103364205Y-23384940D01*
X103295796Y-23345444D01*
X103219496Y-23325000D01*
X103140504Y-23325000D01*
X103064204Y-23345444D01*
X102995795Y-23384940D01*
X102939940Y-23440795D01*
X102930000Y-23458011D01*
X102930000Y-22604156D01*
X102929999Y-22604155D01*
X102873732Y-22615347D01*
X102873727Y-22615349D01*
X102682641Y-22694500D01*
X102682631Y-22694505D01*
X102510664Y-22809410D01*
X102510660Y-22809413D01*
X102364413Y-22955660D01*
X102364410Y-22955664D01*
X102249505Y-23127631D01*
X102249500Y-23127641D01*
X102170350Y-23318725D01*
X102170348Y-23318733D01*
X102130000Y-23521579D01*
X80000500Y-23521579D01*
X80000500Y-21944500D01*
X80020185Y-21877461D01*
X80072989Y-21831706D01*
X80124500Y-21820500D01*
X123544108Y-21820500D01*
X135875500Y-21820500D01*
X135942539Y-21840185D01*
G37*
%TD.AperFunction*%
%TD*%
M02*
