%TF.GenerationSoftware,KiCad,Pcbnew,9.0.6*%
%TF.CreationDate,2025-11-25T17:36:57-05:00*%
%TF.ProjectId,hardware,68617264-7761-4726-952e-6b696361645f,rev?*%
%TF.SameCoordinates,Original*%
%TF.FileFunction,Copper,L1,Top*%
%TF.FilePolarity,Positive*%
%FSLAX46Y46*%
G04 Gerber Fmt 4.6, Leading zero omitted, Abs format (unit mm)*
G04 Created by KiCad (PCBNEW 9.0.6) date 2025-11-25 17:36:57*
%MOMM*%
%LPD*%
G01*
G04 APERTURE LIST*
G04 Aperture macros list*
%AMRoundRect*
0 Rectangle with rounded corners*
0 $1 Rounding radius*
0 $2 $3 $4 $5 $6 $7 $8 $9 X,Y pos of 4 corners*
0 Add a 4 corners polygon primitive as box body*
4,1,4,$2,$3,$4,$5,$6,$7,$8,$9,$2,$3,0*
0 Add four circle primitives for the rounded corners*
1,1,$1+$1,$2,$3*
1,1,$1+$1,$4,$5*
1,1,$1+$1,$6,$7*
1,1,$1+$1,$8,$9*
0 Add four rect primitives between the rounded corners*
20,1,$1+$1,$2,$3,$4,$5,0*
20,1,$1+$1,$4,$5,$6,$7,0*
20,1,$1+$1,$6,$7,$8,$9,0*
20,1,$1+$1,$8,$9,$2,$3,0*%
G04 Aperture macros list end*
%TA.AperFunction,SMDPad,CuDef*%
%ADD10RoundRect,0.250000X-0.450000X0.350000X-0.450000X-0.350000X0.450000X-0.350000X0.450000X0.350000X0*%
%TD*%
%TA.AperFunction,SMDPad,CuDef*%
%ADD11R,0.700000X0.200000*%
%TD*%
%TA.AperFunction,SMDPad,CuDef*%
%ADD12RoundRect,0.175000X0.175000X0.425000X-0.175000X0.425000X-0.175000X-0.425000X0.175000X-0.425000X0*%
%TD*%
%TA.AperFunction,SMDPad,CuDef*%
%ADD13RoundRect,0.190000X-0.190000X-0.410000X0.190000X-0.410000X0.190000X0.410000X-0.190000X0.410000X0*%
%TD*%
%TA.AperFunction,SMDPad,CuDef*%
%ADD14RoundRect,0.200000X-0.200000X-0.400000X0.200000X-0.400000X0.200000X0.400000X-0.200000X0.400000X0*%
%TD*%
%TA.AperFunction,SMDPad,CuDef*%
%ADD15RoundRect,0.175000X-0.175000X-0.425000X0.175000X-0.425000X0.175000X0.425000X-0.175000X0.425000X0*%
%TD*%
%TA.AperFunction,SMDPad,CuDef*%
%ADD16RoundRect,0.190000X0.190000X0.410000X-0.190000X0.410000X-0.190000X-0.410000X0.190000X-0.410000X0*%
%TD*%
%TA.AperFunction,SMDPad,CuDef*%
%ADD17RoundRect,0.200000X0.200000X0.400000X-0.200000X0.400000X-0.200000X-0.400000X0.200000X-0.400000X0*%
%TD*%
%TA.AperFunction,HeatsinkPad*%
%ADD18O,1.100000X1.700000*%
%TD*%
%TA.AperFunction,SMDPad,CuDef*%
%ADD19RoundRect,0.150000X0.150000X0.425000X-0.150000X0.425000X-0.150000X-0.425000X0.150000X-0.425000X0*%
%TD*%
%TA.AperFunction,SMDPad,CuDef*%
%ADD20RoundRect,0.075000X0.075000X0.500000X-0.075000X0.500000X-0.075000X-0.500000X0.075000X-0.500000X0*%
%TD*%
%TA.AperFunction,HeatsinkPad*%
%ADD21O,1.000000X2.100000*%
%TD*%
%TA.AperFunction,HeatsinkPad*%
%ADD22O,1.000000X1.800000*%
%TD*%
%TA.AperFunction,ViaPad*%
%ADD23C,0.600000*%
%TD*%
%TA.AperFunction,Conductor*%
%ADD24C,0.200000*%
%TD*%
%TA.AperFunction,Conductor*%
%ADD25C,2.000000*%
%TD*%
%TA.AperFunction,Conductor*%
%ADD26C,0.900000*%
%TD*%
%TA.AperFunction,Conductor*%
%ADD27C,1.500000*%
%TD*%
%TA.AperFunction,Conductor*%
%ADD28C,1.000000*%
%TD*%
G04 APERTURE END LIST*
D10*
%TO.P,R2,1*%
%TO.N,Net-(J2-CC1)*%
X119450000Y-31940000D03*
%TO.P,R2,2*%
%TO.N,GND*%
X119450000Y-33940000D03*
%TD*%
D11*
%TO.P,Module1,1,GND*%
%TO.N,GND*%
X88960000Y-49925000D03*
%TO.P,Module1,2,GND*%
X92040000Y-49925000D03*
%TO.P,Module1,3,Ethernet_Pair3_P*%
%TO.N,unconnected-(Module1A-Ethernet_Pair3_P-Pad3)*%
X88960000Y-50325000D03*
%TO.P,Module1,4,Ethernet_Pair1_P*%
%TO.N,unconnected-(Module1A-Ethernet_Pair1_P-Pad4)*%
X92040000Y-50325000D03*
%TO.P,Module1,5,Ethernet_Pair3_N*%
%TO.N,unconnected-(Module1A-Ethernet_Pair3_N-Pad5)*%
X88960000Y-50725000D03*
%TO.P,Module1,6,Ethernet_Pair1_N*%
%TO.N,unconnected-(Module1A-Ethernet_Pair1_N-Pad6)*%
X92040000Y-50725000D03*
%TO.P,Module1,7,GND*%
%TO.N,GND*%
X88960000Y-51125000D03*
%TO.P,Module1,8,GND*%
X92040000Y-51125000D03*
%TO.P,Module1,9,Ethernet_Pair2_N*%
%TO.N,unconnected-(Module1A-Ethernet_Pair2_N-Pad9)*%
X88960000Y-51525000D03*
%TO.P,Module1,10,Ethernet_Pair0_N*%
%TO.N,unconnected-(Module1A-Ethernet_Pair0_N-Pad10)*%
X92040000Y-51525000D03*
%TO.P,Module1,11,Ethernet_Pair2_P*%
%TO.N,unconnected-(Module1A-Ethernet_Pair2_P-Pad11)*%
X88960000Y-51925000D03*
%TO.P,Module1,12,Ethernet_Pair0_P*%
%TO.N,unconnected-(Module1A-Ethernet_Pair0_P-Pad12)*%
X92040000Y-51925000D03*
%TO.P,Module1,13,GND*%
%TO.N,GND*%
X88960000Y-52325000D03*
%TO.P,Module1,14,GND*%
X92040000Y-52325000D03*
%TO.P,Module1,15,Ethernet_nLED3(3.3v)*%
%TO.N,unconnected-(Module1A-Ethernet_nLED3(3.3v)-Pad15)*%
X88960000Y-52725000D03*
%TO.P,Module1,16,FAN_TACHO*%
%TO.N,unconnected-(Module1A-FAN_TACHO-Pad16)*%
X92040000Y-52725000D03*
%TO.P,Module1,17,Ethernet_nLED2(3.3v)*%
%TO.N,unconnected-(Module1A-Ethernet_nLED2(3.3v)-Pad17)*%
X88960000Y-53125000D03*
%TO.P,Module1,18,Ethernet_SYNC_OUT(3.3v)*%
%TO.N,unconnected-(Module1A-Ethernet_SYNC_OUT(3.3v)-Pad18)*%
X92040000Y-53125000D03*
%TO.P,Module1,19,FAN_PWM*%
%TO.N,unconnected-(Module1A-FAN_PWM-Pad19)*%
X88960000Y-53525000D03*
%TO.P,Module1,20,EEPROM_nWP*%
%TO.N,unconnected-(Module1A-EEPROM_nWP-Pad20)*%
X92040000Y-53525000D03*
%TO.P,Module1,21,LED_nACT*%
%TO.N,unconnected-(Module1A-LED_nACT-Pad21)*%
X88960000Y-53925000D03*
%TO.P,Module1,22,GND*%
%TO.N,GND*%
X92040000Y-53925000D03*
%TO.P,Module1,23,GND*%
X88960000Y-54325000D03*
%TO.P,Module1,24,GPIO26*%
%TO.N,unconnected-(Module1A-GPIO26-Pad24)*%
X92040000Y-54325000D03*
%TO.P,Module1,25,GPIO21*%
%TO.N,unconnected-(Module1A-GPIO21-Pad25)*%
X88960000Y-54725000D03*
%TO.P,Module1,26,GPIO19*%
%TO.N,unconnected-(Module1A-GPIO19-Pad26)*%
X92040000Y-54725000D03*
%TO.P,Module1,27,GPIO20*%
%TO.N,unconnected-(Module1A-GPIO20-Pad27)*%
X88960000Y-55125000D03*
%TO.P,Module1,28,GPIO13*%
%TO.N,unconnected-(Module1A-GPIO13-Pad28)*%
X92040000Y-55125000D03*
%TO.P,Module1,29,GPIO16*%
%TO.N,unconnected-(Module1A-GPIO16-Pad29)*%
X88960000Y-55525000D03*
%TO.P,Module1,30,GPIO6*%
%TO.N,unconnected-(Module1A-GPIO6-Pad30)*%
X92040000Y-55525000D03*
%TO.P,Module1,31,GPIO12*%
%TO.N,unconnected-(Module1A-GPIO12-Pad31)*%
X88960000Y-55925000D03*
%TO.P,Module1,32,GND*%
%TO.N,GND*%
X92040000Y-55925000D03*
%TO.P,Module1,33,GND*%
X88960000Y-56325000D03*
%TO.P,Module1,34,GPIO5*%
%TO.N,unconnected-(Module1A-GPIO5-Pad34)*%
X92040000Y-56325000D03*
%TO.P,Module1,35,ID_SC*%
%TO.N,unconnected-(Module1A-ID_SC-Pad35)*%
X88960000Y-56725000D03*
%TO.P,Module1,36,ID_SD*%
%TO.N,unconnected-(Module1A-ID_SD-Pad36)*%
X92040000Y-56725000D03*
%TO.P,Module1,37,GPIO7*%
%TO.N,unconnected-(Module1A-GPIO7-Pad37)*%
X88960000Y-57125000D03*
%TO.P,Module1,38,GPIO11*%
%TO.N,unconnected-(Module1A-GPIO11-Pad38)*%
X92040000Y-57125000D03*
%TO.P,Module1,39,GPIO8*%
%TO.N,unconnected-(Module1A-GPIO8-Pad39)*%
X88960000Y-57525000D03*
%TO.P,Module1,40,GPIO9*%
%TO.N,unconnected-(Module1A-GPIO9-Pad40)*%
X92040000Y-57525000D03*
%TO.P,Module1,41,GPIO25*%
%TO.N,unconnected-(Module1A-GPIO25-Pad41)*%
X88960000Y-57925000D03*
%TO.P,Module1,42,GND*%
%TO.N,GND*%
X92040000Y-57925000D03*
%TO.P,Module1,43,GND*%
X88960000Y-58325000D03*
%TO.P,Module1,44,GPIO10*%
%TO.N,unconnected-(Module1A-GPIO10-Pad44)*%
X92040000Y-58325000D03*
%TO.P,Module1,45,GPIO24*%
%TO.N,unconnected-(Module1A-GPIO24-Pad45)*%
X88960000Y-58725000D03*
%TO.P,Module1,46,GPIO22*%
%TO.N,unconnected-(Module1A-GPIO22-Pad46)*%
X92040000Y-58725000D03*
%TO.P,Module1,47,GPIO23*%
%TO.N,unconnected-(Module1A-GPIO23-Pad47)*%
X88960000Y-59125000D03*
%TO.P,Module1,48,GPIO27*%
%TO.N,unconnected-(Module1A-GPIO27-Pad48)*%
X92040000Y-59125000D03*
%TO.P,Module1,49,GPIO18*%
%TO.N,unconnected-(Module1A-GPIO18-Pad49)*%
X88960000Y-59525000D03*
%TO.P,Module1,50,GPIO17*%
%TO.N,unconnected-(Module1A-GPIO17-Pad50)*%
X92040000Y-59525000D03*
%TO.P,Module1,51,GPIO15*%
%TO.N,unconnected-(Module1A-GPIO15-Pad51)*%
X88960000Y-59925000D03*
%TO.P,Module1,52,GND*%
%TO.N,GND*%
X92040000Y-59925000D03*
%TO.P,Module1,53,GND*%
X88960000Y-60325000D03*
%TO.P,Module1,54,GPIO4*%
%TO.N,unconnected-(Module1A-GPIO4-Pad54)*%
X92040000Y-60325000D03*
%TO.P,Module1,55,GPIO14*%
%TO.N,unconnected-(Module1A-GPIO14-Pad55)*%
X88960000Y-60725000D03*
%TO.P,Module1,56,GPIO3*%
%TO.N,unconnected-(Module1A-GPIO3-Pad56)*%
X92040000Y-60725000D03*
%TO.P,Module1,57,SD_CLK*%
%TO.N,unconnected-(Module1A-SD_CLK-Pad57)*%
X88960000Y-61125000D03*
%TO.P,Module1,58,GPIO2*%
%TO.N,unconnected-(Module1A-GPIO2-Pad58)*%
X92040000Y-61125000D03*
%TO.P,Module1,59,GND*%
%TO.N,GND*%
X88960000Y-61525000D03*
%TO.P,Module1,60,GND*%
X92040000Y-61525000D03*
%TO.P,Module1,61,SD_DAT3*%
%TO.N,unconnected-(Module1A-SD_DAT3-Pad61)*%
X88960000Y-61925000D03*
%TO.P,Module1,62,SD_CMD*%
%TO.N,unconnected-(Module1A-SD_CMD-Pad62)*%
X92040000Y-61925000D03*
%TO.P,Module1,63,SD_DAT0*%
%TO.N,unconnected-(Module1A-SD_DAT0-Pad63)*%
X88960000Y-62325000D03*
%TO.P,Module1,64,SD_DAT5*%
%TO.N,unconnected-(Module1A-SD_DAT5-Pad64)*%
X92040000Y-62325000D03*
%TO.P,Module1,65,GND*%
%TO.N,GND*%
X88960000Y-62725000D03*
%TO.P,Module1,66,GND*%
X92040000Y-62725000D03*
%TO.P,Module1,67,SD_DAT1*%
%TO.N,unconnected-(Module1A-SD_DAT1-Pad67)*%
X88960000Y-63125000D03*
%TO.P,Module1,68,SD_DAT4*%
%TO.N,unconnected-(Module1A-SD_DAT4-Pad68)*%
X92040000Y-63125000D03*
%TO.P,Module1,69,SD_DAT2*%
%TO.N,unconnected-(Module1A-SD_DAT2-Pad69)*%
X88960000Y-63525000D03*
%TO.P,Module1,70,SD_DAT7*%
%TO.N,unconnected-(Module1A-SD_DAT7-Pad70)*%
X92040000Y-63525000D03*
%TO.P,Module1,71,GND*%
%TO.N,GND*%
X88960000Y-63925000D03*
%TO.P,Module1,72,SD_DAT6*%
%TO.N,unconnected-(Module1A-SD_DAT6-Pad72)*%
X92040000Y-63925000D03*
%TO.P,Module1,73,SD_VDD_Override*%
%TO.N,unconnected-(Module1A-SD_VDD_Override-Pad73)*%
X88960000Y-64325000D03*
%TO.P,Module1,74,GND*%
%TO.N,GND*%
X92040000Y-64325000D03*
%TO.P,Module1,75,SD_PWR_ON*%
%TO.N,unconnected-(Module1A-SD_PWR_ON-Pad75)*%
X88960000Y-64725000D03*
%TO.P,Module1,76,VBAT*%
%TO.N,unconnected-(Module1A-VBAT-Pad76)*%
X92040000Y-64725000D03*
%TO.P,Module1,77,+5v_(Input)*%
%TO.N,+5V*%
X88960000Y-65125000D03*
%TO.P,Module1,78,GPIO_VREF(1.8v/3.3v_Input)*%
%TO.N,unconnected-(Module1A-GPIO_VREF(1.8v{slash}3.3v_Input)-Pad78)*%
X92040000Y-65125000D03*
%TO.P,Module1,79,+5v_(Input)*%
%TO.N,+5V*%
X88960000Y-65525000D03*
%TO.P,Module1,80,SCL0*%
%TO.N,unconnected-(Module1A-SCL0-Pad80)*%
X92040000Y-65525000D03*
%TO.P,Module1,81,+5v_(Input)*%
%TO.N,+5V*%
X88960000Y-65925000D03*
%TO.P,Module1,82,SDA0*%
%TO.N,unconnected-(Module1A-SDA0-Pad82)*%
X92040000Y-65925000D03*
%TO.P,Module1,83,+5v_(Input)*%
%TO.N,+5V*%
X88960000Y-66325000D03*
%TO.P,Module1,84,+3.3v_(Output)*%
%TO.N,unconnected-(Module1A-+3.3v_(Output)-Pad84)*%
X92040000Y-66325000D03*
%TO.P,Module1,85,+5v_(Input)*%
%TO.N,+5V*%
X88960000Y-66725000D03*
%TO.P,Module1,86,+3.3v_(Output)*%
%TO.N,unconnected-(Module1A-+3.3v_(Output)-Pad86)*%
X92040000Y-66725000D03*
%TO.P,Module1,87,+5v_(Input)*%
%TO.N,+5V*%
X88960000Y-67125000D03*
%TO.P,Module1,88,+1.8v_(Output)*%
%TO.N,unconnected-(Module1A-+1.8v_(Output)-Pad88)*%
X92040000Y-67125000D03*
%TO.P,Module1,89,WiFi_nDisable*%
%TO.N,unconnected-(Module1A-WiFi_nDisable-Pad89)*%
X88960000Y-67525000D03*
%TO.P,Module1,90,+1.8v_(Output)*%
%TO.N,unconnected-(Module1A-+1.8v_(Output)-Pad90)*%
X92040000Y-67525000D03*
%TO.P,Module1,91,BT_nDisable*%
%TO.N,unconnected-(Module1A-BT_nDisable-Pad91)*%
X88960000Y-67925000D03*
%TO.P,Module1,92,PWR_BUT*%
%TO.N,unconnected-(Module1A-PWR_BUT-Pad92)*%
X92040000Y-67925000D03*
%TO.P,Module1,93,nRPIBOOT*%
%TO.N,unconnected-(Module1A-nRPIBOOT-Pad93)*%
X88960000Y-68325000D03*
%TO.P,Module1,94,CC1*%
%TO.N,Net-(J1-CC1)*%
X92040000Y-68325000D03*
%TO.P,Module1,95,LED_nPWR*%
%TO.N,unconnected-(Module1A-LED_nPWR-Pad95)*%
X88960000Y-68725000D03*
%TO.P,Module1,96,CC2*%
%TO.N,Net-(J1-CC2)*%
X92040000Y-68725000D03*
%TO.P,Module1,97,CAM_GPIO0*%
%TO.N,unconnected-(Module1A-CAM_GPIO0-Pad97)*%
X88960000Y-69125000D03*
%TO.P,Module1,98,GND*%
%TO.N,GND*%
X92040000Y-69125000D03*
%TO.P,Module1,99,PMIC_ENABLE*%
%TO.N,unconnected-(Module1A-PMIC_ENABLE-Pad99)*%
X88960000Y-69525000D03*
%TO.P,Module1,100,CAM_GPIO1*%
%TO.N,unconnected-(Module1A-CAM_GPIO1-Pad100)*%
X92040000Y-69525000D03*
%TO.P,Module1,101,USB_OTG_ID*%
%TO.N,unconnected-(Module1B-USB_OTG_ID-Pad101)*%
X122960000Y-49925000D03*
%TO.P,Module1,102,PCIe_nCLKREQ*%
%TO.N,unconnected-(Module1B-PCIe_nCLKREQ-Pad102)*%
X126040000Y-49925000D03*
%TO.P,Module1,103,USB2_N*%
%TO.N,USB_N*%
X122960000Y-50325000D03*
%TO.P,Module1,104,PCIE_nWAKE*%
%TO.N,unconnected-(Module1B-PCIE_nWAKE-Pad104)*%
X126040000Y-50325000D03*
%TO.P,Module1,105,USB2_P*%
%TO.N,USB_P*%
X122960000Y-50725000D03*
%TO.P,Module1,106,PCIE_PWR_EN*%
%TO.N,unconnected-(Module1B-PCIE_PWR_EN-Pad106)*%
X126040000Y-50725000D03*
%TO.P,Module1,107,GND*%
%TO.N,GND*%
X122960000Y-51125000D03*
%TO.P,Module1,108,GND*%
X126040000Y-51125000D03*
%TO.P,Module1,109,PCIe_nRST*%
%TO.N,unconnected-(Module1B-PCIe_nRST-Pad109)*%
X122960000Y-51525000D03*
%TO.P,Module1,110,PCIe_CLK_P*%
%TO.N,unconnected-(Module1B-PCIe_CLK_P-Pad110)*%
X126040000Y-51525000D03*
%TO.P,Module1,111,VBUS_EN*%
%TO.N,unconnected-(Module1B-VBUS_EN-Pad111)*%
X122960000Y-51925000D03*
%TO.P,Module1,112,PCIe_CLK_N*%
%TO.N,unconnected-(Module1B-PCIe_CLK_N-Pad112)*%
X126040000Y-51925000D03*
%TO.P,Module1,113,GND*%
%TO.N,GND*%
X122960000Y-52325000D03*
%TO.P,Module1,114,GND*%
X126040000Y-52325000D03*
%TO.P,Module1,115,MIPI0_D0_N*%
%TO.N,unconnected-(Module1B-MIPI0_D0_N-Pad115)*%
X122960000Y-52725000D03*
%TO.P,Module1,116,PCIe_RX_P*%
%TO.N,unconnected-(Module1B-PCIe_RX_P-Pad116)*%
X126040000Y-52725000D03*
%TO.P,Module1,117,MIPI0_D0_P*%
%TO.N,unconnected-(Module1B-MIPI0_D0_P-Pad117)*%
X122960000Y-53125000D03*
%TO.P,Module1,118,PCIe_RX_N*%
%TO.N,unconnected-(Module1B-PCIe_RX_N-Pad118)*%
X126040000Y-53125000D03*
%TO.P,Module1,119,GND*%
%TO.N,GND*%
X122960000Y-53525000D03*
%TO.P,Module1,120,GND*%
X126040000Y-53525000D03*
%TO.P,Module1,121,MIPI0_D1_N*%
%TO.N,unconnected-(Module1B-MIPI0_D1_N-Pad121)*%
X122960000Y-53925000D03*
%TO.P,Module1,122,PCIe_TX_P*%
%TO.N,unconnected-(Module1B-PCIe_TX_P-Pad122)*%
X126040000Y-53925000D03*
%TO.P,Module1,123,MIPI0_D1_P*%
%TO.N,unconnected-(Module1B-MIPI0_D1_P-Pad123)*%
X122960000Y-54325000D03*
%TO.P,Module1,124,PCIe_TX_N*%
%TO.N,unconnected-(Module1B-PCIe_TX_N-Pad124)*%
X126040000Y-54325000D03*
%TO.P,Module1,125,GND*%
%TO.N,GND*%
X122960000Y-54725000D03*
%TO.P,Module1,126,GND*%
X126040000Y-54725000D03*
%TO.P,Module1,127,MIPI0_C_N*%
%TO.N,unconnected-(Module1B-MIPI0_C_N-Pad127)*%
X122960000Y-55125000D03*
%TO.P,Module1,128,USB3-0-RX_N*%
%TO.N,unconnected-(Module1B-USB3-0-RX_N-Pad128)*%
X126040000Y-55125000D03*
%TO.P,Module1,129,MIPI0_C_P*%
%TO.N,unconnected-(Module1B-MIPI0_C_P-Pad129)*%
X122960000Y-55525000D03*
%TO.P,Module1,130,USB3-0-RX_P*%
%TO.N,unconnected-(Module1B-USB3-0-RX_P-Pad130)*%
X126040000Y-55525000D03*
%TO.P,Module1,131,GND*%
%TO.N,GND*%
X122960000Y-55925000D03*
%TO.P,Module1,132,GND*%
X126040000Y-55925000D03*
%TO.P,Module1,133,MIPI0_D2_N*%
%TO.N,unconnected-(Module1B-MIPI0_D2_N-Pad133)*%
X122960000Y-56325000D03*
%TO.P,Module1,134,USB3-0-D_P*%
%TO.N,unconnected-(Module1B-USB3-0-D_P-Pad134)*%
X126040000Y-56325000D03*
%TO.P,Module1,135,MIPI0_D2_P*%
%TO.N,unconnected-(Module1B-MIPI0_D2_P-Pad135)*%
X122960000Y-56725000D03*
%TO.P,Module1,136,USB3-0-D_N*%
%TO.N,unconnected-(Module1B-USB3-0-D_N-Pad136)*%
X126040000Y-56725000D03*
%TO.P,Module1,137,GND*%
%TO.N,GND*%
X122960000Y-57125000D03*
%TO.P,Module1,138,GND*%
X126040000Y-57125000D03*
%TO.P,Module1,139,MIPI0_D3_N*%
%TO.N,unconnected-(Module1B-MIPI0_D3_N-Pad139)*%
X122960000Y-57525000D03*
%TO.P,Module1,140,USB3-0-TX_N*%
%TO.N,unconnected-(Module1B-USB3-0-TX_N-Pad140)*%
X126040000Y-57525000D03*
%TO.P,Module1,141,MIPI0_D3_P*%
%TO.N,unconnected-(Module1B-MIPI0_D3_P-Pad141)*%
X122960000Y-57925000D03*
%TO.P,Module1,142,USB3-0-TX_P*%
%TO.N,unconnected-(Module1B-USB3-0-TX_P-Pad142)*%
X126040000Y-57925000D03*
%TO.P,Module1,143,HDMI1_HOTPLUG*%
%TO.N,unconnected-(Module1B-HDMI1_HOTPLUG-Pad143)*%
X122960000Y-58325000D03*
%TO.P,Module1,144,GND*%
%TO.N,GND*%
X126040000Y-58325000D03*
%TO.P,Module1,145,HDMI1_SDA*%
%TO.N,unconnected-(Module1B-HDMI1_SDA-Pad145)*%
X122960000Y-58725000D03*
%TO.P,Module1,146,HDMI1_TX2_P*%
%TO.N,unconnected-(Module1B-HDMI1_TX2_P-Pad146)*%
X126040000Y-58725000D03*
%TO.P,Module1,147,HDMI1_SCL*%
%TO.N,unconnected-(Module1B-HDMI1_SCL-Pad147)*%
X122960000Y-59125000D03*
%TO.P,Module1,148,HDMI1_TX2_N*%
%TO.N,unconnected-(Module1B-HDMI1_TX2_N-Pad148)*%
X126040000Y-59125000D03*
%TO.P,Module1,149,HDMI1_CEC*%
%TO.N,unconnected-(Module1B-HDMI1_CEC-Pad149)*%
X122960000Y-59525000D03*
%TO.P,Module1,150,GND*%
%TO.N,GND*%
X126040000Y-59525000D03*
%TO.P,Module1,151,HDMI0_CEC*%
%TO.N,unconnected-(Module1B-HDMI0_CEC-Pad151)*%
X122960000Y-59925000D03*
%TO.P,Module1,152,HDMI1_TX1_P*%
%TO.N,unconnected-(Module1B-HDMI1_TX1_P-Pad152)*%
X126040000Y-59925000D03*
%TO.P,Module1,153,HDMI0_HOTPLUG*%
%TO.N,unconnected-(Module1B-HDMI0_HOTPLUG-Pad153)*%
X122960000Y-60325000D03*
%TO.P,Module1,154,HDMI1_TX1_N*%
%TO.N,unconnected-(Module1B-HDMI1_TX1_N-Pad154)*%
X126040000Y-60325000D03*
%TO.P,Module1,155,GND*%
%TO.N,GND*%
X122960000Y-60725000D03*
%TO.P,Module1,156,GND*%
X126040000Y-60725000D03*
%TO.P,Module1,157,USB3-1-RX_N*%
%TO.N,unconnected-(Module1B-USB3-1-RX_N-Pad157)*%
X122960000Y-61125000D03*
%TO.P,Module1,158,HDMI1_TX0_P*%
%TO.N,unconnected-(Module1B-HDMI1_TX0_P-Pad158)*%
X126040000Y-61125000D03*
%TO.P,Module1,159,USB3-1-RX_P*%
%TO.N,unconnected-(Module1B-USB3-1-RX_P-Pad159)*%
X122960000Y-61525000D03*
%TO.P,Module1,160,HDMI1_TX0_N*%
%TO.N,unconnected-(Module1B-HDMI1_TX0_N-Pad160)*%
X126040000Y-61525000D03*
%TO.P,Module1,161,GND*%
%TO.N,GND*%
X122960000Y-61925000D03*
%TO.P,Module1,162,GND*%
X126040000Y-61925000D03*
%TO.P,Module1,163,USB3-1-D_P*%
%TO.N,unconnected-(Module1B-USB3-1-D_P-Pad163)*%
X122960000Y-62325000D03*
%TO.P,Module1,164,HDMI1_CLK_P*%
%TO.N,unconnected-(Module1B-HDMI1_CLK_P-Pad164)*%
X126040000Y-62325000D03*
%TO.P,Module1,165,USB3-1-D_N*%
%TO.N,unconnected-(Module1B-USB3-1-D_N-Pad165)*%
X122960000Y-62725000D03*
%TO.P,Module1,166,HDMI1_CLK_N*%
%TO.N,unconnected-(Module1B-HDMI1_CLK_N-Pad166)*%
X126040000Y-62725000D03*
%TO.P,Module1,167,GND*%
%TO.N,GND*%
X122960000Y-63125000D03*
%TO.P,Module1,168,GND*%
X126040000Y-63125000D03*
%TO.P,Module1,169,USB3-1-TX_N*%
%TO.N,unconnected-(Module1B-USB3-1-TX_N-Pad169)*%
X122960000Y-63525000D03*
%TO.P,Module1,170,HDMI0_TX2_P*%
%TO.N,unconnected-(Module1B-HDMI0_TX2_P-Pad170)*%
X126040000Y-63525000D03*
%TO.P,Module1,171,USB3-1-TX_P*%
%TO.N,unconnected-(Module1B-USB3-1-TX_P-Pad171)*%
X122960000Y-63925000D03*
%TO.P,Module1,172,HDMI0_TX2_N*%
%TO.N,unconnected-(Module1B-HDMI0_TX2_N-Pad172)*%
X126040000Y-63925000D03*
%TO.P,Module1,173,GND*%
%TO.N,GND*%
X122960000Y-64325000D03*
%TO.P,Module1,174,GND*%
X126040000Y-64325000D03*
%TO.P,Module1,175,MIPI1_D0_N*%
%TO.N,unconnected-(Module1B-MIPI1_D0_N-Pad175)*%
X122960000Y-64725000D03*
%TO.P,Module1,176,HDMI0_TX1_P*%
%TO.N,unconnected-(Module1B-HDMI0_TX1_P-Pad176)*%
X126040000Y-64725000D03*
%TO.P,Module1,177,MIPI1_D0_P*%
%TO.N,unconnected-(Module1B-MIPI1_D0_P-Pad177)*%
X122960000Y-65125000D03*
%TO.P,Module1,178,HDMI0_TX1_N*%
%TO.N,unconnected-(Module1B-HDMI0_TX1_N-Pad178)*%
X126040000Y-65125000D03*
%TO.P,Module1,179,GND*%
%TO.N,GND*%
X122960000Y-65525000D03*
%TO.P,Module1,180,GND*%
X126040000Y-65525000D03*
%TO.P,Module1,181,MIPI1_D1_N*%
%TO.N,unconnected-(Module1B-MIPI1_D1_N-Pad181)*%
X122960000Y-65925000D03*
%TO.P,Module1,182,HDMI0_TX0_P*%
%TO.N,unconnected-(Module1B-HDMI0_TX0_P-Pad182)*%
X126040000Y-65925000D03*
%TO.P,Module1,183,MIPI1_D1_P*%
%TO.N,unconnected-(Module1B-MIPI1_D1_P-Pad183)*%
X122960000Y-66325000D03*
%TO.P,Module1,184,HDMI0_TX0_N*%
%TO.N,unconnected-(Module1B-HDMI0_TX0_N-Pad184)*%
X126040000Y-66325000D03*
%TO.P,Module1,185,GND*%
%TO.N,GND*%
X122960000Y-66725000D03*
%TO.P,Module1,186,GND*%
X126040000Y-66725000D03*
%TO.P,Module1,187,MIPI1_C_N*%
%TO.N,unconnected-(Module1B-MIPI1_C_N-Pad187)*%
X122960000Y-67125000D03*
%TO.P,Module1,188,HDMI0_CLK_P*%
%TO.N,unconnected-(Module1B-HDMI0_CLK_P-Pad188)*%
X126040000Y-67125000D03*
%TO.P,Module1,189,MIPI1_C_P*%
%TO.N,unconnected-(Module1B-MIPI1_C_P-Pad189)*%
X122960000Y-67525000D03*
%TO.P,Module1,190,HDMI0_CLK_N*%
%TO.N,unconnected-(Module1B-HDMI0_CLK_N-Pad190)*%
X126040000Y-67525000D03*
%TO.P,Module1,191,GND*%
%TO.N,GND*%
X122960000Y-67925000D03*
%TO.P,Module1,192,GND*%
X126040000Y-67925000D03*
%TO.P,Module1,193,MIPI1_D2_N*%
%TO.N,unconnected-(Module1B-MIPI1_D2_N-Pad193)*%
X122960000Y-68325000D03*
%TO.P,Module1,194,MIPI1_D3_N*%
%TO.N,unconnected-(Module1B-MIPI1_D3_N-Pad194)*%
X126040000Y-68325000D03*
%TO.P,Module1,195,MIPI1_D2_P*%
%TO.N,unconnected-(Module1B-MIPI1_D2_P-Pad195)*%
X122960000Y-68725000D03*
%TO.P,Module1,196,MIPI1_D3_P*%
%TO.N,unconnected-(Module1B-MIPI1_D3_P-Pad196)*%
X126040000Y-68725000D03*
%TO.P,Module1,197,GND*%
%TO.N,GND*%
X122960000Y-69125000D03*
%TO.P,Module1,198,GND*%
X126040000Y-69125000D03*
%TO.P,Module1,199,HDMI0_SDA*%
%TO.N,unconnected-(Module1B-HDMI0_SDA-Pad199)*%
X122960000Y-69525000D03*
%TO.P,Module1,200,HDMI0_SCL*%
%TO.N,unconnected-(Module1B-HDMI0_SCL-Pad200)*%
X126040000Y-69525000D03*
%TD*%
D10*
%TO.P,R1,1*%
%TO.N,Net-(J2-CC2)*%
X116450000Y-31950000D03*
%TO.P,R1,2*%
%TO.N,GND*%
X116450000Y-33950000D03*
%TD*%
D12*
%TO.P,J1,A5,CC1*%
%TO.N,Net-(J1-CC1)*%
X108000000Y-27805000D03*
D13*
%TO.P,J1,A9,VBUS*%
%TO.N,+5V*%
X105980000Y-27805000D03*
D14*
%TO.P,J1,A12,GND*%
%TO.N,GND*%
X104750000Y-27805000D03*
D15*
%TO.P,J1,B5,CC2*%
%TO.N,Net-(J1-CC2)*%
X107000000Y-27805000D03*
D16*
%TO.P,J1,B9,VBUS*%
%TO.N,+5V*%
X109020000Y-27805000D03*
D17*
%TO.P,J1,B12,GND*%
%TO.N,GND*%
X110250000Y-27805000D03*
D18*
%TO.P,J1,S1,SHIELD*%
X111820000Y-27725000D03*
X111820000Y-23925000D03*
X103180000Y-27725000D03*
X103180000Y-23925000D03*
%TD*%
D19*
%TO.P,J2,A1,GND*%
%TO.N,GND*%
X121400000Y-28680000D03*
%TO.P,J2,A4,VBUS*%
%TO.N,unconnected-(J2-VBUS-PadA4)*%
X120600000Y-28680000D03*
D20*
%TO.P,J2,A5,CC1*%
%TO.N,Net-(J2-CC1)*%
X119450000Y-28680000D03*
%TO.P,J2,A6,D+*%
%TO.N,USB_P*%
X118450000Y-28680000D03*
%TO.P,J2,A7,D-*%
%TO.N,USB_N*%
X117950000Y-28680000D03*
%TO.P,J2,A8,SBU1*%
%TO.N,GND*%
X116950000Y-28680000D03*
D19*
%TO.P,J2,A9,VBUS*%
%TO.N,unconnected-(J2-VBUS-PadA4)_3*%
X115800000Y-28680000D03*
%TO.P,J2,A12,GND*%
%TO.N,GND*%
X115000000Y-28680000D03*
%TO.P,J2,B1,GND*%
X115000000Y-28680000D03*
%TO.P,J2,B4,VBUS*%
%TO.N,unconnected-(J2-VBUS-PadA4)_2*%
X115800000Y-28680000D03*
D20*
%TO.P,J2,B5,CC2*%
%TO.N,Net-(J2-CC2)*%
X116450000Y-28680000D03*
%TO.P,J2,B6,D+*%
%TO.N,USB_P*%
X117450000Y-28680000D03*
%TO.P,J2,B7,D-*%
%TO.N,USB_N*%
X118950000Y-28680000D03*
%TO.P,J2,B8,SBU2*%
%TO.N,GND*%
X119950000Y-28680000D03*
D19*
%TO.P,J2,B9,VBUS*%
%TO.N,unconnected-(J2-VBUS-PadA4)_1*%
X120600000Y-28680000D03*
%TO.P,J2,B12,GND*%
%TO.N,GND*%
X121400000Y-28680000D03*
D21*
%TO.P,J2,S1,SHIELD*%
X122520000Y-28105000D03*
D22*
X122520000Y-23925000D03*
D21*
X113880000Y-28105000D03*
D22*
X113880000Y-23925000D03*
%TD*%
D23*
%TO.N,GND*%
X90470000Y-57950000D03*
X90470000Y-54190000D03*
X124570000Y-70290000D03*
X90450000Y-56060000D03*
X90470000Y-49950000D03*
X124560000Y-63120000D03*
X124530000Y-55925000D03*
X116750000Y-26960000D03*
X90400000Y-51125000D03*
X124530000Y-61925000D03*
X124530000Y-51125000D03*
X124560000Y-65570000D03*
X124892500Y-60142500D03*
X115000000Y-31060000D03*
X121400000Y-30360000D03*
X119960000Y-26920000D03*
X90545000Y-60075000D03*
X90470000Y-69320000D03*
X90500000Y-62725000D03*
X124340000Y-53525000D03*
X124815000Y-57915000D03*
X124560000Y-64310000D03*
%TO.N,Net-(J1-CC2)*%
X96195735Y-64545735D03*
X97044265Y-65394265D03*
%TD*%
D24*
%TO.N,Net-(J1-CC1)*%
X92040000Y-68325000D02*
X93265000Y-68325000D01*
X108000000Y-53590000D02*
X108000000Y-27805000D01*
X93265000Y-68325000D02*
X108000000Y-53590000D01*
%TO.N,GND*%
X90585000Y-55925000D02*
X90450000Y-56060000D01*
X124892500Y-60142500D02*
X124310000Y-60725000D01*
X121400000Y-29820000D02*
X121400000Y-30360000D01*
X124560000Y-66725000D02*
X124560000Y-67925000D01*
X126040000Y-67925000D02*
X124560000Y-67925000D01*
X124530000Y-55925000D02*
X126040000Y-55925000D01*
X124560000Y-61925000D02*
X124560000Y-63120000D01*
X119950000Y-28680000D02*
X119950000Y-26930000D01*
X90185000Y-56325000D02*
X88960000Y-56325000D01*
X126040000Y-59525000D02*
X125510000Y-59525000D01*
X90155000Y-58325000D02*
X88960000Y-58325000D01*
X126040000Y-51125000D02*
X124530000Y-51125000D01*
X90435000Y-63925000D02*
X90835000Y-64325000D01*
X122960000Y-52325000D02*
X126040000Y-52325000D01*
X90795000Y-53925000D02*
X90395000Y-54325000D01*
X124560000Y-65570000D02*
X124560000Y-66725000D01*
X120515001Y-29820000D02*
X121400000Y-29820000D01*
X122960000Y-53525000D02*
X124340000Y-53525000D01*
X90835000Y-64325000D02*
X92040000Y-64325000D01*
X90545000Y-60075000D02*
X90295000Y-60325000D01*
X92040000Y-59925000D02*
X90695000Y-59925000D01*
X119950000Y-26930000D02*
X119960000Y-26920000D01*
X124560000Y-65525000D02*
X122960000Y-65525000D01*
X126040000Y-63125000D02*
X124560000Y-63125000D01*
X115000000Y-28680000D02*
X115000000Y-31060000D01*
X124470000Y-57125000D02*
X122960000Y-57125000D01*
X126040000Y-54725000D02*
X122960000Y-54725000D01*
X116950000Y-27160000D02*
X116750000Y-26960000D01*
X90470000Y-49925000D02*
X92040000Y-49925000D01*
X124530000Y-61925000D02*
X122960000Y-61925000D01*
X92040000Y-53925000D02*
X90795000Y-53925000D01*
X88960000Y-49925000D02*
X90470000Y-49925000D01*
X90470000Y-54190000D02*
X90470000Y-49950000D01*
X124470000Y-57570000D02*
X124470000Y-57125000D01*
X124560000Y-63125000D02*
X122960000Y-63125000D01*
X124560000Y-66725000D02*
X122960000Y-66725000D01*
X125225000Y-58325000D02*
X124815000Y-57915000D01*
X124560000Y-69125000D02*
X124560000Y-70280000D01*
X90450000Y-56060000D02*
X90185000Y-56325000D01*
X90470000Y-57950000D02*
X90470000Y-54190000D01*
X124560000Y-67925000D02*
X124560000Y-69125000D01*
X90500000Y-62725000D02*
X92040000Y-62725000D01*
X124560000Y-61925000D02*
X124560000Y-60975000D01*
X90665000Y-69125000D02*
X90470000Y-69320000D01*
X124560000Y-64325000D02*
X124560000Y-65525000D01*
X126040000Y-66725000D02*
X124560000Y-66725000D01*
X124340000Y-53525000D02*
X126040000Y-53525000D01*
X90400000Y-51125000D02*
X88960000Y-51125000D01*
X121400000Y-28680000D02*
X121400000Y-29820000D01*
X88960000Y-63925000D02*
X90435000Y-63925000D01*
X126040000Y-60725000D02*
X124310000Y-60725000D01*
X124560000Y-65525000D02*
X124560000Y-65570000D01*
X88960000Y-52325000D02*
X92040000Y-52325000D01*
X124560000Y-69125000D02*
X122960000Y-69125000D01*
X88960000Y-62725000D02*
X90500000Y-62725000D01*
X125510000Y-59525000D02*
X124892500Y-60142500D01*
X90295000Y-60325000D02*
X88960000Y-60325000D01*
X124560000Y-67925000D02*
X122960000Y-67925000D01*
X92040000Y-51125000D02*
X90400000Y-51125000D01*
X92040000Y-61525000D02*
X88960000Y-61525000D01*
X124530000Y-51125000D02*
X124490000Y-51125000D01*
X124490000Y-51125000D02*
X122960000Y-51125000D01*
X126040000Y-65525000D02*
X124560000Y-65525000D01*
X126040000Y-57125000D02*
X124470000Y-57125000D01*
X124815000Y-57915000D02*
X124470000Y-57570000D01*
X90470000Y-69320000D02*
X90470000Y-57950000D01*
X124560000Y-60975000D02*
X124310000Y-60725000D01*
X90695000Y-59925000D02*
X90545000Y-60075000D01*
X92040000Y-69125000D02*
X90665000Y-69125000D01*
X92040000Y-55925000D02*
X90585000Y-55925000D01*
X122960000Y-55925000D02*
X124530000Y-55925000D01*
X92040000Y-57925000D02*
X90555000Y-57925000D01*
X124490000Y-51125000D02*
X124490000Y-57105000D01*
X119950000Y-29254999D02*
X120515001Y-29820000D01*
X124560000Y-63125000D02*
X124560000Y-64310000D01*
X124560000Y-63120000D02*
X124560000Y-63125000D01*
X124560000Y-64310000D02*
X124560000Y-64325000D01*
X126040000Y-61925000D02*
X124560000Y-61925000D01*
X90395000Y-54325000D02*
X88960000Y-54325000D01*
X126040000Y-58325000D02*
X125225000Y-58325000D01*
X124560000Y-70280000D02*
X124570000Y-70290000D01*
X126040000Y-69125000D02*
X124560000Y-69125000D01*
X119950000Y-28680000D02*
X119950000Y-29254999D01*
X124560000Y-64325000D02*
X126040000Y-64325000D01*
X124490000Y-57105000D02*
X124470000Y-57125000D01*
X90470000Y-49950000D02*
X90470000Y-49925000D01*
X124560000Y-61925000D02*
X124530000Y-61925000D01*
X90555000Y-57925000D02*
X90155000Y-58325000D01*
X116950000Y-28680000D02*
X116950000Y-27160000D01*
X122960000Y-64325000D02*
X124560000Y-64325000D01*
X124310000Y-60725000D02*
X122960000Y-60725000D01*
D25*
%TO.N,+5V*%
X93800000Y-42600000D02*
X90000000Y-42600000D01*
X83800000Y-48800000D02*
X83800000Y-64600000D01*
X83800000Y-64600000D02*
X83800000Y-66600000D01*
X98400000Y-38000000D02*
X93800000Y-42600000D01*
D24*
X88960000Y-66325000D02*
X84075000Y-66325000D01*
D26*
X105980000Y-27052010D02*
X105980000Y-27805000D01*
X108521990Y-26554000D02*
X106478010Y-26554000D01*
D24*
X84075000Y-66325000D02*
X83800000Y-66600000D01*
D26*
X109020000Y-27052010D02*
X108521990Y-26554000D01*
D24*
X88960000Y-65925000D02*
X84475000Y-65925000D01*
D26*
X109020000Y-27805000D02*
X109020000Y-27052010D01*
D24*
X83800000Y-65000000D02*
X83800000Y-64600000D01*
D26*
X106478010Y-26554000D02*
X105980000Y-27052010D01*
D27*
X103600000Y-32800000D02*
X101600000Y-34800000D01*
D25*
X101600000Y-34800000D02*
X98400000Y-38000000D01*
D24*
X88960000Y-66725000D02*
X83925000Y-66725000D01*
X88960000Y-65125000D02*
X84325000Y-65125000D01*
D26*
X105980000Y-27805000D02*
X105980000Y-30420000D01*
D24*
X83925000Y-66725000D02*
X83800000Y-66600000D01*
D25*
X90000000Y-42600000D02*
X83800000Y-48800000D01*
D24*
X88960000Y-65525000D02*
X84725000Y-65525000D01*
X88960000Y-67125000D02*
X84325000Y-67125000D01*
D28*
X105980000Y-30420000D02*
X103600000Y-32800000D01*
D24*
%TO.N,Net-(J1-CC2)*%
X107000000Y-53741470D02*
X96195735Y-64545735D01*
X92040000Y-68725000D02*
X93713530Y-68725000D01*
X107000000Y-27805000D02*
X107000000Y-53741470D01*
X93713530Y-68725000D02*
X97044265Y-65394265D01*
%TO.N,Net-(J2-CC2)*%
X116450000Y-28680000D02*
X116450000Y-31950000D01*
%TO.N,Net-(J2-CC1)*%
X119450000Y-28680000D02*
X119450000Y-31940000D01*
%TO.N,USB_P*%
X117475000Y-47213198D02*
X117475000Y-29567501D01*
X117475000Y-29567501D02*
X117450000Y-29542501D01*
X117450000Y-29542501D02*
X117450000Y-28680000D01*
X118450000Y-28071176D02*
X118450000Y-28680000D01*
X117717176Y-27804000D02*
X118182824Y-27804000D01*
X122960000Y-50725000D02*
X120986802Y-50725000D01*
X117450000Y-28680000D02*
X117450000Y-28071176D01*
X118182824Y-27804000D02*
X118450000Y-28071176D01*
X117450000Y-28071176D02*
X117717176Y-27804000D01*
X120986802Y-50725000D02*
X117475000Y-47213198D01*
%TO.N,USB_N*%
X117925000Y-42450000D02*
X117925000Y-47026802D01*
X118950000Y-29288824D02*
X118682824Y-29556000D01*
X118217176Y-29556000D02*
X117950000Y-29288824D01*
X117925000Y-29567501D02*
X117925000Y-35381567D01*
X117925000Y-38651567D02*
X117925000Y-39921567D01*
X117950000Y-28680000D02*
X117950000Y-29542501D01*
X118950000Y-28680000D02*
X118950000Y-29288824D01*
X122960000Y-50325000D02*
X121223198Y-50325000D01*
X118925000Y-36381567D02*
X118925000Y-37651567D01*
X121223198Y-50325000D02*
X117925000Y-47026802D01*
X117950000Y-29542501D02*
X117925000Y-29567501D01*
X117950000Y-29288824D02*
X117950000Y-28680000D01*
X117925000Y-39921567D02*
X117925000Y-42450000D01*
X118682824Y-29556000D02*
X118217176Y-29556000D01*
X118925000Y-37651567D02*
G75*
G02*
X118425000Y-38151600I-500000J-33D01*
G01*
X118425000Y-38151567D02*
G75*
G03*
X117924967Y-38651567I0J-500033D01*
G01*
X117925000Y-35381567D02*
G75*
G03*
X118425000Y-35881600I500000J-33D01*
G01*
X118425000Y-35881567D02*
G75*
G02*
X118925033Y-36381567I0J-500033D01*
G01*
%TD*%
%TA.AperFunction,Conductor*%
%TO.N,GND*%
G36*
X113580000Y-24175000D02*
G01*
X112120000Y-24175000D01*
X112120000Y-23675000D01*
X113580000Y-23675000D01*
X113580000Y-24175000D01*
G37*
%TD.AperFunction*%
%TA.AperFunction,Conductor*%
G36*
X135942539Y-21840185D02*
G01*
X135988294Y-21892989D01*
X135999500Y-21944500D01*
X135999500Y-84375500D01*
X135979815Y-84442539D01*
X135927011Y-84488294D01*
X135875500Y-84499500D01*
X124391288Y-84499500D01*
X124324249Y-84479815D01*
X124278494Y-84427011D01*
X124268550Y-84357853D01*
X124297575Y-84294297D01*
X124356353Y-84256523D01*
X124377405Y-84252280D01*
X124511768Y-84237141D01*
X124511771Y-84237140D01*
X124511783Y-84237139D01*
X124845817Y-84160897D01*
X125169215Y-84047736D01*
X125477910Y-83899076D01*
X125768018Y-83716789D01*
X126035893Y-83503166D01*
X126278166Y-83260893D01*
X126491789Y-82993018D01*
X126674076Y-82702910D01*
X126822736Y-82394215D01*
X126935897Y-82070817D01*
X127012139Y-81736783D01*
X127050500Y-81396312D01*
X127050500Y-81053688D01*
X127046366Y-81017001D01*
X127031893Y-80888536D01*
X127030786Y-80878711D01*
X130649500Y-80878711D01*
X130649500Y-80878712D01*
X130649500Y-81121288D01*
X130681162Y-81361789D01*
X130690413Y-81396314D01*
X130743947Y-81596104D01*
X130836773Y-81820205D01*
X130836776Y-81820212D01*
X130958064Y-82030289D01*
X130958066Y-82030292D01*
X130958067Y-82030293D01*
X131105733Y-82222736D01*
X131105739Y-82222743D01*
X131277256Y-82394260D01*
X131277262Y-82394265D01*
X131469711Y-82541936D01*
X131679788Y-82663224D01*
X131903900Y-82756054D01*
X132138211Y-82818838D01*
X132318586Y-82842584D01*
X132378711Y-82850500D01*
X132378712Y-82850500D01*
X132621289Y-82850500D01*
X132669388Y-82844167D01*
X132861789Y-82818838D01*
X133096100Y-82756054D01*
X133320212Y-82663224D01*
X133530289Y-82541936D01*
X133722738Y-82394265D01*
X133894265Y-82222738D01*
X134041936Y-82030289D01*
X134163224Y-81820212D01*
X134256054Y-81596100D01*
X134318838Y-81361789D01*
X134350500Y-81121288D01*
X134350500Y-80878712D01*
X134318838Y-80638211D01*
X134256054Y-80403900D01*
X134163224Y-80179788D01*
X134041936Y-79969711D01*
X133894265Y-79777262D01*
X133894260Y-79777256D01*
X133722743Y-79605739D01*
X133722736Y-79605733D01*
X133530293Y-79458067D01*
X133530292Y-79458066D01*
X133530289Y-79458064D01*
X133320212Y-79336776D01*
X133320205Y-79336773D01*
X133096104Y-79243947D01*
X132861785Y-79181161D01*
X132621289Y-79149500D01*
X132621288Y-79149500D01*
X132378712Y-79149500D01*
X132378711Y-79149500D01*
X132138214Y-79181161D01*
X131903895Y-79243947D01*
X131679794Y-79336773D01*
X131679785Y-79336777D01*
X131497851Y-79441817D01*
X131471584Y-79456983D01*
X131469706Y-79458067D01*
X131277263Y-79605733D01*
X131277256Y-79605739D01*
X131105739Y-79777256D01*
X131105733Y-79777263D01*
X130958067Y-79969706D01*
X130836777Y-80179785D01*
X130836773Y-80179794D01*
X130743947Y-80403895D01*
X130681161Y-80638214D01*
X130649500Y-80878711D01*
X127030786Y-80878711D01*
X127012141Y-80713231D01*
X127012140Y-80713226D01*
X127012139Y-80713217D01*
X126935897Y-80379183D01*
X126822736Y-80055785D01*
X126674076Y-79747090D01*
X126491789Y-79456982D01*
X126278166Y-79189107D01*
X126035893Y-78946834D01*
X125768018Y-78733211D01*
X125477910Y-78550924D01*
X125477907Y-78550922D01*
X125169216Y-78402264D01*
X124845818Y-78289103D01*
X124845816Y-78289102D01*
X124588024Y-78230262D01*
X124511783Y-78212861D01*
X124511780Y-78212860D01*
X124511768Y-78212858D01*
X124171318Y-78174500D01*
X124171312Y-78174500D01*
X123828688Y-78174500D01*
X123828681Y-78174500D01*
X123488231Y-78212858D01*
X123488217Y-78212861D01*
X123154183Y-78289102D01*
X123154181Y-78289103D01*
X122830783Y-78402264D01*
X122522092Y-78550922D01*
X122231983Y-78733210D01*
X121964107Y-78946833D01*
X121721833Y-79189107D01*
X121508210Y-79456983D01*
X121325922Y-79747092D01*
X121177264Y-80055783D01*
X121064103Y-80379181D01*
X121064102Y-80379183D01*
X120987861Y-80713217D01*
X120987858Y-80713231D01*
X120949500Y-81053681D01*
X120949500Y-81396318D01*
X120987858Y-81736768D01*
X120987861Y-81736782D01*
X121064102Y-82070816D01*
X121064103Y-82070818D01*
X121177264Y-82394216D01*
X121325922Y-82702907D01*
X121325924Y-82702910D01*
X121508211Y-82993018D01*
X121721834Y-83260893D01*
X121964107Y-83503166D01*
X122231982Y-83716789D01*
X122522090Y-83899076D01*
X122830785Y-84047736D01*
X123154183Y-84160897D01*
X123488217Y-84237139D01*
X123488226Y-84237140D01*
X123488231Y-84237141D01*
X123622595Y-84252280D01*
X123687009Y-84279346D01*
X123726564Y-84336941D01*
X123728702Y-84406778D01*
X123692744Y-84466684D01*
X123630106Y-84497640D01*
X123608712Y-84499500D01*
X120624500Y-84499500D01*
X120557461Y-84479815D01*
X120511706Y-84427011D01*
X120500500Y-84375500D01*
X120500500Y-75934110D01*
X120500500Y-75934108D01*
X120466392Y-75806814D01*
X120400500Y-75692686D01*
X120307314Y-75599500D01*
X120250250Y-75566554D01*
X120193187Y-75533608D01*
X120129539Y-75516554D01*
X120065892Y-75499500D01*
X95065892Y-75499500D01*
X94934108Y-75499500D01*
X94806812Y-75533608D01*
X94692686Y-75599500D01*
X94692683Y-75599502D01*
X94599502Y-75692683D01*
X94599500Y-75692686D01*
X94533608Y-75806812D01*
X94499500Y-75934108D01*
X94499500Y-84375500D01*
X94479815Y-84442539D01*
X94427011Y-84488294D01*
X94375500Y-84499500D01*
X91391288Y-84499500D01*
X91324249Y-84479815D01*
X91278494Y-84427011D01*
X91268550Y-84357853D01*
X91297575Y-84294297D01*
X91356353Y-84256523D01*
X91377405Y-84252280D01*
X91511768Y-84237141D01*
X91511771Y-84237140D01*
X91511783Y-84237139D01*
X91845817Y-84160897D01*
X92169215Y-84047736D01*
X92477910Y-83899076D01*
X92768018Y-83716789D01*
X93035893Y-83503166D01*
X93278166Y-83260893D01*
X93491789Y-82993018D01*
X93674076Y-82702910D01*
X93822736Y-82394215D01*
X93935897Y-82070817D01*
X94012139Y-81736783D01*
X94050500Y-81396312D01*
X94050500Y-81053688D01*
X94031892Y-80888536D01*
X94012141Y-80713231D01*
X94012140Y-80713226D01*
X94012139Y-80713217D01*
X93935897Y-80379183D01*
X93822736Y-80055785D01*
X93674076Y-79747090D01*
X93491789Y-79456982D01*
X93278166Y-79189107D01*
X93035893Y-78946834D01*
X92768018Y-78733211D01*
X92477910Y-78550924D01*
X92477907Y-78550922D01*
X92169216Y-78402264D01*
X91845818Y-78289103D01*
X91845816Y-78289102D01*
X91588024Y-78230262D01*
X91511783Y-78212861D01*
X91511780Y-78212860D01*
X91511768Y-78212858D01*
X91171318Y-78174500D01*
X91171312Y-78174500D01*
X90828688Y-78174500D01*
X90828681Y-78174500D01*
X90488231Y-78212858D01*
X90488217Y-78212861D01*
X90154183Y-78289102D01*
X90154181Y-78289103D01*
X89830783Y-78402264D01*
X89522092Y-78550922D01*
X89231983Y-78733210D01*
X88964107Y-78946833D01*
X88721833Y-79189107D01*
X88508210Y-79456983D01*
X88325922Y-79747092D01*
X88177264Y-80055783D01*
X88064103Y-80379181D01*
X88064102Y-80379183D01*
X87987861Y-80713217D01*
X87987858Y-80713231D01*
X87949500Y-81053681D01*
X87949500Y-81396318D01*
X87987858Y-81736768D01*
X87987861Y-81736782D01*
X88064102Y-82070816D01*
X88064103Y-82070818D01*
X88177264Y-82394216D01*
X88325922Y-82702907D01*
X88325924Y-82702910D01*
X88508211Y-82993018D01*
X88721834Y-83260893D01*
X88964107Y-83503166D01*
X89231982Y-83716789D01*
X89522090Y-83899076D01*
X89830785Y-84047736D01*
X90154183Y-84160897D01*
X90488217Y-84237139D01*
X90488226Y-84237140D01*
X90488231Y-84237141D01*
X90622595Y-84252280D01*
X90687009Y-84279346D01*
X90726564Y-84336941D01*
X90728702Y-84406778D01*
X90692744Y-84466684D01*
X90630106Y-84497640D01*
X90608712Y-84499500D01*
X80124500Y-84499500D01*
X80057461Y-84479815D01*
X80011706Y-84427011D01*
X80000500Y-84375500D01*
X80000500Y-80878711D01*
X81649500Y-80878711D01*
X81649500Y-80878712D01*
X81649500Y-81121288D01*
X81681162Y-81361789D01*
X81690413Y-81396314D01*
X81743947Y-81596104D01*
X81836773Y-81820205D01*
X81836776Y-81820212D01*
X81958064Y-82030289D01*
X81958066Y-82030292D01*
X81958067Y-82030293D01*
X82105733Y-82222736D01*
X82105739Y-82222743D01*
X82277256Y-82394260D01*
X82277262Y-82394265D01*
X82469711Y-82541936D01*
X82679788Y-82663224D01*
X82903900Y-82756054D01*
X83138211Y-82818838D01*
X83318586Y-82842584D01*
X83378711Y-82850500D01*
X83378712Y-82850500D01*
X83621289Y-82850500D01*
X83669388Y-82844167D01*
X83861789Y-82818838D01*
X84096100Y-82756054D01*
X84320212Y-82663224D01*
X84530289Y-82541936D01*
X84722738Y-82394265D01*
X84894265Y-82222738D01*
X85041936Y-82030289D01*
X85163224Y-81820212D01*
X85256054Y-81596100D01*
X85318838Y-81361789D01*
X85350500Y-81121288D01*
X85350500Y-80878712D01*
X85318838Y-80638211D01*
X85256054Y-80403900D01*
X85163224Y-80179788D01*
X85041936Y-79969711D01*
X84894265Y-79777262D01*
X84894260Y-79777256D01*
X84722743Y-79605739D01*
X84722736Y-79605733D01*
X84530293Y-79458067D01*
X84530292Y-79458066D01*
X84530289Y-79458064D01*
X84320212Y-79336776D01*
X84320205Y-79336773D01*
X84096104Y-79243947D01*
X83861785Y-79181161D01*
X83621289Y-79149500D01*
X83621288Y-79149500D01*
X83378712Y-79149500D01*
X83378711Y-79149500D01*
X83138214Y-79181161D01*
X82903895Y-79243947D01*
X82679794Y-79336773D01*
X82679785Y-79336777D01*
X82497851Y-79441817D01*
X82471584Y-79456983D01*
X82469706Y-79458067D01*
X82277263Y-79605733D01*
X82277256Y-79605739D01*
X82105739Y-79777256D01*
X82105733Y-79777263D01*
X81958067Y-79969706D01*
X81836777Y-80179785D01*
X81836773Y-80179794D01*
X81743947Y-80403895D01*
X81681161Y-80638214D01*
X81649500Y-80878711D01*
X80000500Y-80878711D01*
X80000500Y-48681902D01*
X82299500Y-48681902D01*
X82299500Y-66718097D01*
X82336446Y-66951368D01*
X82409433Y-67175996D01*
X82492108Y-67338253D01*
X82516657Y-67386433D01*
X82655483Y-67577510D01*
X82822490Y-67744517D01*
X83013567Y-67883343D01*
X83095324Y-67925000D01*
X83224003Y-67990566D01*
X83224005Y-67990566D01*
X83224008Y-67990568D01*
X83344412Y-68029689D01*
X83448631Y-68063553D01*
X83681903Y-68100500D01*
X83681908Y-68100500D01*
X83918097Y-68100500D01*
X84151368Y-68063553D01*
X84375992Y-67990568D01*
X84586433Y-67883343D01*
X84771090Y-67749181D01*
X84836894Y-67725702D01*
X84843974Y-67725500D01*
X87985500Y-67725500D01*
X88052539Y-67745185D01*
X88098294Y-67797989D01*
X88109500Y-67849499D01*
X88109500Y-68072868D01*
X88109501Y-68072878D01*
X88113679Y-68111745D01*
X88113679Y-68138250D01*
X88109500Y-68177122D01*
X88109500Y-68472868D01*
X88109501Y-68472878D01*
X88113679Y-68511745D01*
X88113679Y-68538250D01*
X88109500Y-68577122D01*
X88109500Y-68872868D01*
X88109501Y-68872878D01*
X88113679Y-68911745D01*
X88113679Y-68938250D01*
X88109500Y-68977122D01*
X88109500Y-69272868D01*
X88109501Y-69272878D01*
X88113679Y-69311745D01*
X88113679Y-69338250D01*
X88109500Y-69377122D01*
X88109500Y-69672869D01*
X88109501Y-69672876D01*
X88115908Y-69732483D01*
X88166202Y-69867328D01*
X88166206Y-69867335D01*
X88252452Y-69982544D01*
X88252455Y-69982547D01*
X88367664Y-70068793D01*
X88367671Y-70068797D01*
X88502517Y-70119091D01*
X88502516Y-70119091D01*
X88509444Y-70119835D01*
X88562127Y-70125500D01*
X89357872Y-70125499D01*
X89417483Y-70119091D01*
X89552331Y-70068796D01*
X89667546Y-69982546D01*
X89753796Y-69867331D01*
X89804091Y-69732483D01*
X89810500Y-69672873D01*
X89810499Y-69377128D01*
X89810499Y-69377127D01*
X89810498Y-69377111D01*
X89806320Y-69338253D01*
X89806320Y-69311745D01*
X89810500Y-69272873D01*
X89810499Y-68977128D01*
X89810499Y-68977127D01*
X89810498Y-68977111D01*
X89806320Y-68938253D01*
X89806320Y-68911745D01*
X89810500Y-68872873D01*
X89810499Y-68577128D01*
X89810499Y-68577127D01*
X89810498Y-68577111D01*
X89806320Y-68538253D01*
X89806320Y-68511745D01*
X89810500Y-68472873D01*
X89810499Y-68177128D01*
X89810499Y-68177127D01*
X89810498Y-68177111D01*
X89806320Y-68138253D01*
X89806320Y-68111745D01*
X89810500Y-68072873D01*
X89810499Y-67777128D01*
X89810499Y-67777127D01*
X89810498Y-67777111D01*
X89806320Y-67738253D01*
X89806320Y-67711745D01*
X89810500Y-67672873D01*
X89810499Y-67377128D01*
X89810499Y-67377127D01*
X89810498Y-67377111D01*
X89806320Y-67338253D01*
X89806320Y-67311745D01*
X89810500Y-67272873D01*
X89810499Y-66977128D01*
X89810499Y-66977127D01*
X89810498Y-66977111D01*
X89806320Y-66938253D01*
X89806320Y-66911745D01*
X89810500Y-66872873D01*
X89810499Y-66577128D01*
X89810499Y-66577127D01*
X89810498Y-66577111D01*
X89806320Y-66538253D01*
X89806320Y-66511745D01*
X89810500Y-66472873D01*
X89810499Y-66177128D01*
X89810499Y-66177127D01*
X89810498Y-66177111D01*
X89806320Y-66138253D01*
X89806320Y-66111745D01*
X89810500Y-66072873D01*
X89810499Y-65777128D01*
X89810499Y-65777127D01*
X89810498Y-65777111D01*
X89806320Y-65738253D01*
X89806320Y-65711745D01*
X89810500Y-65672873D01*
X89810499Y-65377128D01*
X89810499Y-65377127D01*
X89810498Y-65377111D01*
X89806320Y-65338253D01*
X89806320Y-65311745D01*
X89810500Y-65272873D01*
X89810499Y-64977128D01*
X89810499Y-64977127D01*
X89810498Y-64977111D01*
X89806320Y-64938253D01*
X89806320Y-64911745D01*
X89810500Y-64872873D01*
X89810499Y-64577128D01*
X89810499Y-64577127D01*
X89810498Y-64577111D01*
X89806320Y-64538253D01*
X89806320Y-64511747D01*
X89810500Y-64472873D01*
X89810499Y-64177128D01*
X89806067Y-64135898D01*
X89806068Y-64109393D01*
X89809999Y-64072833D01*
X89810000Y-64072819D01*
X89810000Y-63777182D01*
X89809999Y-63777164D01*
X89806068Y-63740602D01*
X89806068Y-63714093D01*
X89810500Y-63672873D01*
X89810499Y-63377128D01*
X89810499Y-63377127D01*
X89810498Y-63377111D01*
X89806320Y-63338253D01*
X89806320Y-63311745D01*
X89810500Y-63272873D01*
X89810499Y-62977128D01*
X89806067Y-62935898D01*
X89806068Y-62909393D01*
X89809999Y-62872833D01*
X89810000Y-62872819D01*
X89810000Y-62577182D01*
X89809999Y-62577164D01*
X89806068Y-62540602D01*
X89806068Y-62514093D01*
X89810500Y-62472873D01*
X89810499Y-62177128D01*
X89810499Y-62177127D01*
X89810498Y-62177111D01*
X89806320Y-62138253D01*
X89806320Y-62111745D01*
X89810500Y-62072873D01*
X89810499Y-61777128D01*
X89806067Y-61735898D01*
X89806068Y-61709393D01*
X89809999Y-61672833D01*
X89810000Y-61672819D01*
X89810000Y-61377182D01*
X89809999Y-61377164D01*
X89806068Y-61340602D01*
X89806068Y-61314093D01*
X89810500Y-61272873D01*
X89810499Y-60977128D01*
X89810499Y-60977127D01*
X89810498Y-60977111D01*
X89806320Y-60938253D01*
X89806320Y-60911745D01*
X89810500Y-60872873D01*
X89810499Y-60577128D01*
X89806067Y-60535898D01*
X89806068Y-60509393D01*
X89809999Y-60472833D01*
X89810000Y-60472819D01*
X89810000Y-60177182D01*
X89809999Y-60177164D01*
X89806068Y-60140602D01*
X89806068Y-60114093D01*
X89810500Y-60072873D01*
X89810499Y-59777128D01*
X89810499Y-59777127D01*
X89810498Y-59777111D01*
X89806320Y-59738253D01*
X89806320Y-59711745D01*
X89810500Y-59672873D01*
X89810499Y-59377128D01*
X89810499Y-59377127D01*
X89810498Y-59377111D01*
X89806320Y-59338253D01*
X89806320Y-59311745D01*
X89810500Y-59272873D01*
X89810499Y-58977128D01*
X89810499Y-58977127D01*
X89810498Y-58977111D01*
X89806320Y-58938253D01*
X89806320Y-58911745D01*
X89810500Y-58872873D01*
X89810499Y-58577128D01*
X89806067Y-58535898D01*
X89806068Y-58509393D01*
X89809999Y-58472833D01*
X89810000Y-58472819D01*
X89810000Y-58177182D01*
X89809999Y-58177164D01*
X89806068Y-58140602D01*
X89806068Y-58114093D01*
X89810500Y-58072873D01*
X89810499Y-57777128D01*
X89810499Y-57777127D01*
X89810498Y-57777111D01*
X89806320Y-57738253D01*
X89806320Y-57711745D01*
X89810500Y-57672873D01*
X89810499Y-57377128D01*
X89810499Y-57377127D01*
X89810498Y-57377111D01*
X89806320Y-57338253D01*
X89806320Y-57311745D01*
X89810500Y-57272873D01*
X89810499Y-56977128D01*
X89810499Y-56977127D01*
X89810498Y-56977111D01*
X89806320Y-56938253D01*
X89806320Y-56911745D01*
X89810500Y-56872873D01*
X89810499Y-56577128D01*
X89806067Y-56535898D01*
X89806068Y-56509393D01*
X89809999Y-56472833D01*
X89810000Y-56472819D01*
X89810000Y-56177182D01*
X89809999Y-56177164D01*
X89806068Y-56140602D01*
X89806068Y-56114093D01*
X89810500Y-56072873D01*
X89810499Y-55777128D01*
X89810499Y-55777127D01*
X89810498Y-55777111D01*
X89806320Y-55738253D01*
X89806320Y-55711745D01*
X89810500Y-55672873D01*
X89810499Y-55377128D01*
X89810499Y-55377127D01*
X89810498Y-55377111D01*
X89806320Y-55338253D01*
X89806320Y-55311745D01*
X89810500Y-55272873D01*
X89810499Y-54977128D01*
X89810499Y-54977127D01*
X89810498Y-54977111D01*
X89806320Y-54938253D01*
X89806320Y-54911745D01*
X89810500Y-54872873D01*
X89810499Y-54577128D01*
X89806067Y-54535898D01*
X89806068Y-54509393D01*
X89809999Y-54472833D01*
X89810000Y-54472819D01*
X89810000Y-54177182D01*
X89809999Y-54177164D01*
X89806068Y-54140602D01*
X89806068Y-54114093D01*
X89810500Y-54072873D01*
X89810499Y-53777128D01*
X89810499Y-53777127D01*
X89810498Y-53777111D01*
X89806320Y-53738253D01*
X89806320Y-53711745D01*
X89810500Y-53672873D01*
X89810499Y-53377128D01*
X89810499Y-53377127D01*
X89810498Y-53377111D01*
X89806320Y-53338253D01*
X89806320Y-53311745D01*
X89810500Y-53272873D01*
X89810499Y-52977128D01*
X89810499Y-52977127D01*
X89810498Y-52977111D01*
X89806320Y-52938253D01*
X89806320Y-52911745D01*
X89810500Y-52872873D01*
X89810499Y-52577128D01*
X89806067Y-52535898D01*
X89806068Y-52509393D01*
X89809999Y-52472833D01*
X89810000Y-52472819D01*
X89810000Y-52177182D01*
X89809999Y-52177164D01*
X89806068Y-52140602D01*
X89806068Y-52114093D01*
X89810500Y-52072873D01*
X89810499Y-51777128D01*
X89810499Y-51777127D01*
X89810498Y-51777111D01*
X89806320Y-51738253D01*
X89806320Y-51711745D01*
X89810500Y-51672873D01*
X89810499Y-51377128D01*
X89806067Y-51335898D01*
X89806068Y-51309393D01*
X89809999Y-51272833D01*
X89810000Y-51272819D01*
X89810000Y-50977182D01*
X89809999Y-50977164D01*
X89806068Y-50940602D01*
X89806068Y-50914093D01*
X89810500Y-50872873D01*
X89810499Y-50577128D01*
X89810499Y-50577127D01*
X89810498Y-50577111D01*
X89806320Y-50538253D01*
X89806320Y-50511745D01*
X89810500Y-50472873D01*
X89810499Y-50177128D01*
X89806067Y-50135898D01*
X89806068Y-50109393D01*
X89809999Y-50072833D01*
X89810000Y-50072819D01*
X89810000Y-49777172D01*
X89809999Y-49777155D01*
X89803598Y-49717627D01*
X89803596Y-49717620D01*
X89753354Y-49582913D01*
X89753350Y-49582906D01*
X89667190Y-49467812D01*
X89667187Y-49467809D01*
X89552093Y-49381649D01*
X89552086Y-49381645D01*
X89417379Y-49331403D01*
X89417372Y-49331401D01*
X89357844Y-49325000D01*
X88562155Y-49325000D01*
X88502627Y-49331401D01*
X88502620Y-49331403D01*
X88367913Y-49381645D01*
X88367906Y-49381649D01*
X88252812Y-49467809D01*
X88252809Y-49467812D01*
X88166649Y-49582906D01*
X88166645Y-49582913D01*
X88116403Y-49717620D01*
X88116401Y-49717627D01*
X88110000Y-49777155D01*
X88110000Y-50072832D01*
X88113931Y-50109399D01*
X88113931Y-50135905D01*
X88109500Y-50177122D01*
X88109500Y-50472868D01*
X88109501Y-50472878D01*
X88113679Y-50511745D01*
X88113679Y-50538250D01*
X88109500Y-50577122D01*
X88109500Y-50872868D01*
X88109501Y-50872880D01*
X88113931Y-50914093D01*
X88113931Y-50940596D01*
X88110000Y-50977165D01*
X88110000Y-51272832D01*
X88113931Y-51309399D01*
X88113931Y-51335905D01*
X88109500Y-51377122D01*
X88109500Y-51672868D01*
X88109501Y-51672878D01*
X88113679Y-51711745D01*
X88113679Y-51738250D01*
X88109500Y-51777122D01*
X88109500Y-52072868D01*
X88109501Y-52072880D01*
X88113931Y-52114093D01*
X88113931Y-52140596D01*
X88110000Y-52177165D01*
X88110000Y-52472832D01*
X88113931Y-52509399D01*
X88113931Y-52535905D01*
X88109500Y-52577122D01*
X88109500Y-52872868D01*
X88109501Y-52872878D01*
X88113679Y-52911745D01*
X88113679Y-52938250D01*
X88109500Y-52977122D01*
X88109500Y-53272868D01*
X88109501Y-53272878D01*
X88113679Y-53311745D01*
X88113679Y-53338250D01*
X88109500Y-53377122D01*
X88109500Y-53672868D01*
X88109501Y-53672878D01*
X88113679Y-53711745D01*
X88113679Y-53738250D01*
X88109500Y-53777122D01*
X88109500Y-54072868D01*
X88109501Y-54072880D01*
X88113931Y-54114093D01*
X88113931Y-54140596D01*
X88110000Y-54177165D01*
X88110000Y-54472832D01*
X88113931Y-54509399D01*
X88113931Y-54535905D01*
X88109500Y-54577122D01*
X88109500Y-54872868D01*
X88109501Y-54872878D01*
X88113679Y-54911745D01*
X88113679Y-54938250D01*
X88109500Y-54977122D01*
X88109500Y-55272868D01*
X88109501Y-55272878D01*
X88113679Y-55311745D01*
X88113679Y-55338250D01*
X88109500Y-55377122D01*
X88109500Y-55672868D01*
X88109501Y-55672878D01*
X88113679Y-55711745D01*
X88113679Y-55738250D01*
X88109500Y-55777122D01*
X88109500Y-56072868D01*
X88109501Y-56072880D01*
X88113931Y-56114093D01*
X88113931Y-56140596D01*
X88110000Y-56177165D01*
X88110000Y-56472832D01*
X88113931Y-56509399D01*
X88113931Y-56535905D01*
X88109500Y-56577122D01*
X88109500Y-56872868D01*
X88109501Y-56872878D01*
X88113679Y-56911745D01*
X88113679Y-56938250D01*
X88109500Y-56977122D01*
X88109500Y-57272868D01*
X88109501Y-57272878D01*
X88113679Y-57311745D01*
X88113679Y-57338250D01*
X88109500Y-57377122D01*
X88109500Y-57672868D01*
X88109501Y-57672878D01*
X88113679Y-57711745D01*
X88113679Y-57738250D01*
X88109500Y-57777122D01*
X88109500Y-58072868D01*
X88109501Y-58072880D01*
X88113931Y-58114093D01*
X88113931Y-58140596D01*
X88110000Y-58177165D01*
X88110000Y-58472832D01*
X88113931Y-58509399D01*
X88113931Y-58535905D01*
X88109500Y-58577122D01*
X88109500Y-58872868D01*
X88109501Y-58872878D01*
X88113679Y-58911745D01*
X88113679Y-58938250D01*
X88109500Y-58977122D01*
X88109500Y-59272868D01*
X88109501Y-59272878D01*
X88113679Y-59311745D01*
X88113679Y-59338250D01*
X88109500Y-59377122D01*
X88109500Y-59672868D01*
X88109501Y-59672878D01*
X88113679Y-59711745D01*
X88113679Y-59738250D01*
X88109500Y-59777122D01*
X88109500Y-60072868D01*
X88109501Y-60072880D01*
X88113931Y-60114093D01*
X88113931Y-60140596D01*
X88110000Y-60177165D01*
X88110000Y-60472832D01*
X88113931Y-60509399D01*
X88113931Y-60535905D01*
X88109500Y-60577122D01*
X88109500Y-60872868D01*
X88109501Y-60872878D01*
X88113679Y-60911745D01*
X88113679Y-60938250D01*
X88109500Y-60977122D01*
X88109500Y-61272868D01*
X88109501Y-61272880D01*
X88113931Y-61314093D01*
X88113931Y-61340596D01*
X88110000Y-61377165D01*
X88110000Y-61672832D01*
X88113931Y-61709399D01*
X88113931Y-61735905D01*
X88109500Y-61777122D01*
X88109500Y-62072868D01*
X88109501Y-62072878D01*
X88113679Y-62111745D01*
X88113679Y-62138250D01*
X88109500Y-62177122D01*
X88109500Y-62472868D01*
X88109501Y-62472880D01*
X88113931Y-62514093D01*
X88113931Y-62540596D01*
X88110000Y-62577165D01*
X88110000Y-62872832D01*
X88113931Y-62909399D01*
X88113931Y-62935905D01*
X88109500Y-62977122D01*
X88109500Y-63272868D01*
X88109501Y-63272878D01*
X88113679Y-63311745D01*
X88113679Y-63338250D01*
X88109500Y-63377122D01*
X88109500Y-63672868D01*
X88109501Y-63672880D01*
X88113931Y-63714093D01*
X88113931Y-63740596D01*
X88110000Y-63777165D01*
X88110000Y-64072832D01*
X88113931Y-64109399D01*
X88113931Y-64135905D01*
X88109500Y-64177122D01*
X88109500Y-64177127D01*
X88109500Y-64312245D01*
X88109501Y-64400499D01*
X88089817Y-64467539D01*
X88037013Y-64513294D01*
X87985501Y-64524500D01*
X85424500Y-64524500D01*
X85357461Y-64504815D01*
X85311706Y-64452011D01*
X85300500Y-64400500D01*
X85300500Y-49472889D01*
X85320185Y-49405850D01*
X85336819Y-49385208D01*
X90585208Y-44136819D01*
X90646531Y-44103334D01*
X90672889Y-44100500D01*
X93918097Y-44100500D01*
X94151368Y-44063553D01*
X94375992Y-43990568D01*
X94586434Y-43883343D01*
X94777510Y-43744517D01*
X99544517Y-38977510D01*
X102744517Y-35777510D01*
X102883343Y-35586434D01*
X102990568Y-35375992D01*
X103063552Y-35151369D01*
X103065989Y-35135977D01*
X103095914Y-35072844D01*
X103100764Y-35067708D01*
X104553828Y-33614646D01*
X104669524Y-33455405D01*
X104758884Y-33280026D01*
X104819709Y-33092826D01*
X104831776Y-33016631D01*
X104861704Y-32953499D01*
X104866550Y-32948368D01*
X106187820Y-31627098D01*
X106249142Y-31593615D01*
X106318834Y-31598599D01*
X106374767Y-31640471D01*
X106399184Y-31705935D01*
X106399500Y-31714781D01*
X106399500Y-53441373D01*
X106379815Y-53508412D01*
X106363181Y-53529054D01*
X96181074Y-63711160D01*
X96119751Y-63744645D01*
X96117585Y-63745096D01*
X95962243Y-63775996D01*
X95962233Y-63775999D01*
X95816562Y-63836337D01*
X95816549Y-63836344D01*
X95685446Y-63923945D01*
X95685442Y-63923948D01*
X95573948Y-64035442D01*
X95573945Y-64035446D01*
X95486344Y-64166549D01*
X95486337Y-64166562D01*
X95425999Y-64312233D01*
X95425996Y-64312245D01*
X95395235Y-64466888D01*
X95395235Y-64624581D01*
X95425996Y-64779224D01*
X95425999Y-64779236D01*
X95486337Y-64924907D01*
X95486344Y-64924920D01*
X95561786Y-65037826D01*
X95582664Y-65104504D01*
X95564180Y-65171884D01*
X95546365Y-65194398D01*
X93102180Y-67638584D01*
X93083889Y-67648571D01*
X93068439Y-67662556D01*
X93053842Y-67664978D01*
X93040857Y-67672069D01*
X93020070Y-67670582D01*
X92999512Y-67673994D01*
X92985923Y-67668140D01*
X92971165Y-67667085D01*
X92954481Y-67654595D01*
X92935343Y-67646351D01*
X92927076Y-67634079D01*
X92915232Y-67625213D01*
X92907949Y-67605687D01*
X92896306Y-67588404D01*
X92892616Y-67564579D01*
X92890815Y-67559749D01*
X92890528Y-67553586D01*
X92890499Y-67552273D01*
X92890499Y-67377128D01*
X92885752Y-67332978D01*
X92885638Y-67327680D01*
X92886320Y-67325156D01*
X92886320Y-67311745D01*
X92890500Y-67272873D01*
X92890499Y-66977128D01*
X92890499Y-66977127D01*
X92890498Y-66977111D01*
X92886320Y-66938253D01*
X92886320Y-66911745D01*
X92890500Y-66872873D01*
X92890499Y-66577128D01*
X92890499Y-66577127D01*
X92890498Y-66577111D01*
X92886320Y-66538253D01*
X92886320Y-66511745D01*
X92890500Y-66472873D01*
X92890499Y-66177128D01*
X92890499Y-66177127D01*
X92890498Y-66177111D01*
X92886320Y-66138253D01*
X92886320Y-66111745D01*
X92890500Y-66072873D01*
X92890499Y-65777128D01*
X92890499Y-65777127D01*
X92890498Y-65777111D01*
X92886320Y-65738253D01*
X92886320Y-65711745D01*
X92890500Y-65672873D01*
X92890499Y-65377128D01*
X92890499Y-65377127D01*
X92890498Y-65377111D01*
X92886320Y-65338253D01*
X92886320Y-65311745D01*
X92890500Y-65272873D01*
X92890499Y-64977128D01*
X92890499Y-64977127D01*
X92890498Y-64977111D01*
X92886320Y-64938253D01*
X92886320Y-64911745D01*
X92890500Y-64872873D01*
X92890499Y-64577128D01*
X92886067Y-64535898D01*
X92886068Y-64509393D01*
X92889999Y-64472833D01*
X92890000Y-64472819D01*
X92890000Y-64177182D01*
X92889999Y-64177164D01*
X92886068Y-64140602D01*
X92886068Y-64114093D01*
X92890500Y-64072873D01*
X92890499Y-63777128D01*
X92890499Y-63777127D01*
X92890498Y-63777111D01*
X92886320Y-63738253D01*
X92886320Y-63711745D01*
X92890500Y-63672873D01*
X92890499Y-63377128D01*
X92890499Y-63377127D01*
X92890498Y-63377111D01*
X92886320Y-63338253D01*
X92886320Y-63311745D01*
X92890500Y-63272873D01*
X92890499Y-62977128D01*
X92886067Y-62935898D01*
X92886068Y-62909393D01*
X92889999Y-62872833D01*
X92890000Y-62872819D01*
X92890000Y-62577182D01*
X92889999Y-62577164D01*
X92886068Y-62540602D01*
X92886068Y-62514093D01*
X92890500Y-62472873D01*
X92890499Y-62177128D01*
X92890499Y-62177127D01*
X92890498Y-62177111D01*
X92886320Y-62138253D01*
X92886320Y-62111745D01*
X92890500Y-62072873D01*
X92890499Y-61777128D01*
X92886067Y-61735898D01*
X92886068Y-61709393D01*
X92889999Y-61672833D01*
X92890000Y-61672819D01*
X92890000Y-61377182D01*
X92889999Y-61377164D01*
X92886068Y-61340602D01*
X92886068Y-61314093D01*
X92890500Y-61272873D01*
X92890499Y-60977128D01*
X92890499Y-60977127D01*
X92890498Y-60977111D01*
X92886320Y-60938253D01*
X92886320Y-60911745D01*
X92890500Y-60872873D01*
X92890499Y-60577128D01*
X92890499Y-60577127D01*
X92890498Y-60577111D01*
X92886320Y-60538253D01*
X92886320Y-60511745D01*
X92890500Y-60472873D01*
X92890499Y-60177128D01*
X92886067Y-60135898D01*
X92886068Y-60109393D01*
X92889999Y-60072833D01*
X92890000Y-60072819D01*
X92890000Y-59777182D01*
X92889999Y-59777164D01*
X92886068Y-59740602D01*
X92886068Y-59714093D01*
X92890500Y-59672873D01*
X92890499Y-59377128D01*
X92890499Y-59377127D01*
X92890498Y-59377111D01*
X92886320Y-59338253D01*
X92886320Y-59311745D01*
X92890500Y-59272873D01*
X92890499Y-58977128D01*
X92890499Y-58977127D01*
X92890498Y-58977111D01*
X92886320Y-58938253D01*
X92886320Y-58911745D01*
X92890500Y-58872873D01*
X92890499Y-58577128D01*
X92890499Y-58577127D01*
X92890498Y-58577111D01*
X92886320Y-58538253D01*
X92886320Y-58511745D01*
X92890500Y-58472873D01*
X92890499Y-58177128D01*
X92886067Y-58135898D01*
X92886068Y-58109393D01*
X92889999Y-58072833D01*
X92890000Y-58072819D01*
X92890000Y-57777182D01*
X92889999Y-57777164D01*
X92886068Y-57740602D01*
X92886068Y-57714093D01*
X92890500Y-57672873D01*
X92890499Y-57377128D01*
X92890499Y-57377127D01*
X92890498Y-57377111D01*
X92886320Y-57338253D01*
X92886320Y-57311745D01*
X92890500Y-57272873D01*
X92890499Y-56977128D01*
X92890499Y-56977127D01*
X92890498Y-56977111D01*
X92886320Y-56938253D01*
X92886320Y-56911745D01*
X92890500Y-56872873D01*
X92890499Y-56577128D01*
X92890499Y-56577127D01*
X92890498Y-56577111D01*
X92886320Y-56538253D01*
X92886320Y-56511745D01*
X92890500Y-56472873D01*
X92890499Y-56177128D01*
X92886067Y-56135898D01*
X92886068Y-56109393D01*
X92889999Y-56072833D01*
X92890000Y-56072819D01*
X92890000Y-55777182D01*
X92889999Y-55777164D01*
X92886068Y-55740602D01*
X92886068Y-55714093D01*
X92890500Y-55672873D01*
X92890499Y-55377128D01*
X92890499Y-55377127D01*
X92890498Y-55377111D01*
X92886320Y-55338253D01*
X92886320Y-55311745D01*
X92890500Y-55272873D01*
X92890499Y-54977128D01*
X92890499Y-54977127D01*
X92890498Y-54977111D01*
X92886320Y-54938253D01*
X92886320Y-54911745D01*
X92890500Y-54872873D01*
X92890499Y-54577128D01*
X92890499Y-54577127D01*
X92890498Y-54577111D01*
X92886320Y-54538253D01*
X92886320Y-54511745D01*
X92890500Y-54472873D01*
X92890499Y-54177128D01*
X92886067Y-54135898D01*
X92886068Y-54109393D01*
X92889999Y-54072833D01*
X92890000Y-54072819D01*
X92890000Y-53777182D01*
X92889999Y-53777164D01*
X92886068Y-53740602D01*
X92886068Y-53714093D01*
X92890500Y-53672873D01*
X92890499Y-53377128D01*
X92890499Y-53377127D01*
X92890498Y-53377111D01*
X92886320Y-53338253D01*
X92886320Y-53311745D01*
X92890500Y-53272873D01*
X92890499Y-52977128D01*
X92890499Y-52977127D01*
X92890498Y-52977111D01*
X92886320Y-52938253D01*
X92886320Y-52911745D01*
X92890500Y-52872873D01*
X92890499Y-52577128D01*
X92886067Y-52535898D01*
X92886068Y-52509393D01*
X92889999Y-52472833D01*
X92890000Y-52472819D01*
X92890000Y-52177182D01*
X92889999Y-52177164D01*
X92886068Y-52140602D01*
X92886068Y-52114093D01*
X92890500Y-52072873D01*
X92890499Y-51777128D01*
X92890499Y-51777127D01*
X92890498Y-51777111D01*
X92886320Y-51738253D01*
X92886320Y-51711745D01*
X92890500Y-51672873D01*
X92890499Y-51377128D01*
X92886067Y-51335898D01*
X92886068Y-51309393D01*
X92889999Y-51272833D01*
X92890000Y-51272819D01*
X92890000Y-50977182D01*
X92889999Y-50977164D01*
X92886068Y-50940602D01*
X92886068Y-50914093D01*
X92890500Y-50872873D01*
X92890499Y-50577128D01*
X92890499Y-50577127D01*
X92890498Y-50577111D01*
X92886320Y-50538253D01*
X92886320Y-50511745D01*
X92890500Y-50472873D01*
X92890499Y-50177128D01*
X92886067Y-50135898D01*
X92886068Y-50109393D01*
X92889999Y-50072833D01*
X92890000Y-50072819D01*
X92890000Y-49777172D01*
X92889999Y-49777155D01*
X92883598Y-49717627D01*
X92883596Y-49717620D01*
X92833354Y-49582913D01*
X92833350Y-49582906D01*
X92747190Y-49467812D01*
X92747187Y-49467809D01*
X92632093Y-49381649D01*
X92632086Y-49381645D01*
X92497379Y-49331403D01*
X92497372Y-49331401D01*
X92437844Y-49325000D01*
X91642155Y-49325000D01*
X91582627Y-49331401D01*
X91582620Y-49331403D01*
X91447913Y-49381645D01*
X91447906Y-49381649D01*
X91332812Y-49467809D01*
X91332809Y-49467812D01*
X91246649Y-49582906D01*
X91246645Y-49582913D01*
X91196403Y-49717620D01*
X91196401Y-49717627D01*
X91190000Y-49777155D01*
X91190000Y-50072832D01*
X91193931Y-50109399D01*
X91193931Y-50135905D01*
X91189500Y-50177122D01*
X91189500Y-50472868D01*
X91189501Y-50472878D01*
X91193679Y-50511745D01*
X91193679Y-50538250D01*
X91189500Y-50577122D01*
X91189500Y-50872868D01*
X91189501Y-50872880D01*
X91193931Y-50914093D01*
X91193931Y-50940596D01*
X91190000Y-50977165D01*
X91190000Y-51272832D01*
X91193931Y-51309399D01*
X91193931Y-51335905D01*
X91189500Y-51377122D01*
X91189500Y-51672868D01*
X91189501Y-51672878D01*
X91193679Y-51711745D01*
X91193679Y-51738250D01*
X91189500Y-51777122D01*
X91189500Y-52072868D01*
X91189501Y-52072880D01*
X91193931Y-52114093D01*
X91193931Y-52140596D01*
X91190000Y-52177165D01*
X91190000Y-52472832D01*
X91193931Y-52509399D01*
X91193931Y-52535905D01*
X91189500Y-52577122D01*
X91189500Y-52872868D01*
X91189501Y-52872878D01*
X91193679Y-52911745D01*
X91193679Y-52938250D01*
X91189500Y-52977122D01*
X91189500Y-53272868D01*
X91189501Y-53272878D01*
X91193679Y-53311745D01*
X91193679Y-53338250D01*
X91189500Y-53377122D01*
X91189500Y-53672868D01*
X91189501Y-53672880D01*
X91193931Y-53714093D01*
X91193931Y-53740596D01*
X91190000Y-53777165D01*
X91190000Y-54072832D01*
X91193931Y-54109399D01*
X91193931Y-54135905D01*
X91189500Y-54177122D01*
X91189500Y-54472868D01*
X91189501Y-54472878D01*
X91193679Y-54511745D01*
X91193679Y-54538250D01*
X91189500Y-54577122D01*
X91189500Y-54872868D01*
X91189501Y-54872878D01*
X91193679Y-54911745D01*
X91193679Y-54938250D01*
X91189500Y-54977122D01*
X91189500Y-55272868D01*
X91189501Y-55272878D01*
X91193679Y-55311745D01*
X91193679Y-55338250D01*
X91189500Y-55377122D01*
X91189500Y-55672868D01*
X91189501Y-55672880D01*
X91193931Y-55714093D01*
X91193931Y-55740596D01*
X91190000Y-55777165D01*
X91190000Y-56072832D01*
X91193931Y-56109399D01*
X91193931Y-56135905D01*
X91189500Y-56177122D01*
X91189500Y-56472868D01*
X91189501Y-56472878D01*
X91193679Y-56511745D01*
X91193679Y-56538250D01*
X91189500Y-56577122D01*
X91189500Y-56872868D01*
X91189501Y-56872878D01*
X91193679Y-56911745D01*
X91193679Y-56938250D01*
X91189500Y-56977122D01*
X91189500Y-57272868D01*
X91189501Y-57272878D01*
X91193679Y-57311745D01*
X91193679Y-57338250D01*
X91189500Y-57377122D01*
X91189500Y-57672868D01*
X91189501Y-57672880D01*
X91193931Y-57714093D01*
X91193931Y-57740596D01*
X91190000Y-57777165D01*
X91190000Y-58072832D01*
X91193931Y-58109399D01*
X91193931Y-58135905D01*
X91189500Y-58177122D01*
X91189500Y-58472868D01*
X91189501Y-58472878D01*
X91193679Y-58511745D01*
X91193679Y-58538250D01*
X91189500Y-58577122D01*
X91189500Y-58872868D01*
X91189501Y-58872878D01*
X91193679Y-58911745D01*
X91193679Y-58938250D01*
X91189500Y-58977122D01*
X91189500Y-59272868D01*
X91189501Y-59272878D01*
X91193679Y-59311745D01*
X91193679Y-59338250D01*
X91189500Y-59377122D01*
X91189500Y-59672868D01*
X91189501Y-59672880D01*
X91193931Y-59714093D01*
X91193931Y-59740596D01*
X91190000Y-59777165D01*
X91190000Y-60072832D01*
X91193931Y-60109399D01*
X91193931Y-60135905D01*
X91189500Y-60177122D01*
X91189500Y-60472868D01*
X91189501Y-60472878D01*
X91193679Y-60511745D01*
X91193679Y-60538250D01*
X91189500Y-60577122D01*
X91189500Y-60872868D01*
X91189501Y-60872878D01*
X91193679Y-60911745D01*
X91193679Y-60938250D01*
X91189500Y-60977122D01*
X91189500Y-61272868D01*
X91189501Y-61272880D01*
X91193931Y-61314093D01*
X91193931Y-61340596D01*
X91190000Y-61377165D01*
X91190000Y-61672832D01*
X91193931Y-61709399D01*
X91193931Y-61735905D01*
X91189500Y-61777122D01*
X91189500Y-62072868D01*
X91189501Y-62072878D01*
X91193679Y-62111745D01*
X91193679Y-62138250D01*
X91189500Y-62177122D01*
X91189500Y-62472868D01*
X91189501Y-62472880D01*
X91193931Y-62514093D01*
X91193931Y-62540596D01*
X91190000Y-62577165D01*
X91190000Y-62872832D01*
X91193931Y-62909399D01*
X91193931Y-62935905D01*
X91189500Y-62977122D01*
X91189500Y-63272868D01*
X91189501Y-63272878D01*
X91193679Y-63311745D01*
X91193679Y-63338250D01*
X91189500Y-63377122D01*
X91189500Y-63672868D01*
X91189501Y-63672878D01*
X91193679Y-63711745D01*
X91193679Y-63738250D01*
X91189500Y-63777122D01*
X91189500Y-64072868D01*
X91189501Y-64072880D01*
X91193931Y-64114093D01*
X91193931Y-64140596D01*
X91190000Y-64177165D01*
X91190000Y-64472832D01*
X91193931Y-64509399D01*
X91193931Y-64535905D01*
X91189500Y-64577122D01*
X91189500Y-64872868D01*
X91189501Y-64872878D01*
X91193679Y-64911745D01*
X91193679Y-64938250D01*
X91189500Y-64977122D01*
X91189500Y-65272868D01*
X91189501Y-65272878D01*
X91193679Y-65311745D01*
X91193679Y-65338250D01*
X91189500Y-65377122D01*
X91189500Y-65672868D01*
X91189501Y-65672878D01*
X91193679Y-65711745D01*
X91193679Y-65738250D01*
X91189500Y-65777122D01*
X91189500Y-66072868D01*
X91189501Y-66072878D01*
X91193679Y-66111745D01*
X91193679Y-66138250D01*
X91189500Y-66177122D01*
X91189500Y-66472868D01*
X91189501Y-66472878D01*
X91193679Y-66511745D01*
X91193679Y-66538250D01*
X91189500Y-66577122D01*
X91189500Y-66872868D01*
X91189501Y-66872878D01*
X91193679Y-66911745D01*
X91193679Y-66938250D01*
X91189500Y-66977122D01*
X91189500Y-67272868D01*
X91189501Y-67272878D01*
X91193679Y-67311745D01*
X91193679Y-67338250D01*
X91189500Y-67377122D01*
X91189500Y-67672868D01*
X91189501Y-67672878D01*
X91193679Y-67711745D01*
X91193679Y-67738250D01*
X91189500Y-67777122D01*
X91189500Y-68072868D01*
X91189501Y-68072878D01*
X91193679Y-68111745D01*
X91193679Y-68138250D01*
X91189500Y-68177122D01*
X91189500Y-68472868D01*
X91189501Y-68472878D01*
X91193679Y-68511745D01*
X91193679Y-68538250D01*
X91189500Y-68577122D01*
X91189500Y-68872868D01*
X91189501Y-68872880D01*
X91193931Y-68914093D01*
X91193931Y-68940596D01*
X91190000Y-68977165D01*
X91190000Y-69272832D01*
X91193931Y-69309399D01*
X91193931Y-69335905D01*
X91189500Y-69377122D01*
X91189500Y-69672869D01*
X91189501Y-69672876D01*
X91195908Y-69732483D01*
X91246202Y-69867328D01*
X91246206Y-69867335D01*
X91332452Y-69982544D01*
X91332455Y-69982547D01*
X91447664Y-70068793D01*
X91447671Y-70068797D01*
X91582517Y-70119091D01*
X91582516Y-70119091D01*
X91589444Y-70119835D01*
X91642127Y-70125500D01*
X92437872Y-70125499D01*
X92497483Y-70119091D01*
X92632331Y-70068796D01*
X92747546Y-69982546D01*
X92833796Y-69867331D01*
X92884091Y-69732483D01*
X92890500Y-69672873D01*
X92890499Y-69449500D01*
X92910183Y-69382461D01*
X92962987Y-69336706D01*
X93014499Y-69325500D01*
X93626861Y-69325500D01*
X93626877Y-69325501D01*
X93634473Y-69325501D01*
X93792584Y-69325501D01*
X93792587Y-69325501D01*
X93945315Y-69284577D01*
X93995434Y-69255639D01*
X94082246Y-69205520D01*
X94194050Y-69093716D01*
X94194050Y-69093714D01*
X94204258Y-69083507D01*
X94204259Y-69083504D01*
X97058929Y-66228836D01*
X97120250Y-66195353D01*
X97122417Y-66194902D01*
X97123106Y-66194765D01*
X97123107Y-66194765D01*
X97277762Y-66164002D01*
X97403923Y-66111745D01*
X97423437Y-66103662D01*
X97423437Y-66103661D01*
X97423444Y-66103659D01*
X97554554Y-66016054D01*
X97666054Y-65904554D01*
X97753659Y-65773444D01*
X97814002Y-65627762D01*
X97844765Y-65473107D01*
X97844765Y-65315423D01*
X97844765Y-65315420D01*
X97844764Y-65315418D01*
X97814003Y-65160775D01*
X97814002Y-65160768D01*
X97770616Y-65056024D01*
X97753662Y-65015092D01*
X97753660Y-65015088D01*
X97753659Y-65015086D01*
X97678211Y-64902171D01*
X97657334Y-64835495D01*
X97675818Y-64768115D01*
X97693629Y-64745604D01*
X108358506Y-54080728D01*
X108358511Y-54080724D01*
X108368714Y-54070520D01*
X108368716Y-54070520D01*
X108480520Y-53958716D01*
X108533281Y-53867331D01*
X108559577Y-53821785D01*
X108600501Y-53669057D01*
X108600501Y-53510943D01*
X108600501Y-53503348D01*
X108600500Y-53503330D01*
X108600500Y-34349986D01*
X115250001Y-34349986D01*
X115260494Y-34452697D01*
X115315641Y-34619119D01*
X115315643Y-34619124D01*
X115407684Y-34768345D01*
X115531654Y-34892315D01*
X115680875Y-34984356D01*
X115680880Y-34984358D01*
X115847302Y-35039505D01*
X115847309Y-35039506D01*
X115950019Y-35049999D01*
X116199999Y-35049999D01*
X116200000Y-35049998D01*
X116200000Y-34200000D01*
X115250001Y-34200000D01*
X115250001Y-34349986D01*
X108600500Y-34349986D01*
X108600500Y-29025494D01*
X108620185Y-28958455D01*
X108672989Y-28912700D01*
X108735721Y-28902003D01*
X108774199Y-28905500D01*
X109265800Y-28905499D01*
X109265808Y-28905499D01*
X109335376Y-28899178D01*
X109335383Y-28899176D01*
X109495471Y-28849291D01*
X109564941Y-28807294D01*
X109632491Y-28789459D01*
X109693238Y-28807295D01*
X109760604Y-28848019D01*
X109760603Y-28848019D01*
X109922894Y-28898590D01*
X109922893Y-28898590D01*
X109993408Y-28904998D01*
X109993426Y-28904999D01*
X109999999Y-28904998D01*
X110000000Y-28904998D01*
X110000000Y-26728050D01*
X109956766Y-26705000D01*
X110500000Y-26705000D01*
X110500000Y-27555000D01*
X110640000Y-27555000D01*
X110658290Y-27536709D01*
X110659685Y-27531961D01*
X110712489Y-27486206D01*
X110764000Y-27475000D01*
X111520000Y-27475000D01*
X111520000Y-27975000D01*
X111280000Y-27975000D01*
X111261709Y-27993290D01*
X111260315Y-27998039D01*
X111207511Y-28043794D01*
X111156000Y-28055000D01*
X110500000Y-28055000D01*
X110500000Y-28904999D01*
X110506581Y-28904999D01*
X110577102Y-28898591D01*
X110577107Y-28898590D01*
X110739396Y-28848018D01*
X110884872Y-28760075D01*
X110889821Y-28755126D01*
X110951141Y-28721635D01*
X111020833Y-28726613D01*
X111065192Y-28755118D01*
X111150660Y-28840586D01*
X111150664Y-28840589D01*
X111322631Y-28955494D01*
X111322641Y-28955499D01*
X111513723Y-29034648D01*
X111513725Y-29034649D01*
X111570000Y-29045842D01*
X111570000Y-28191988D01*
X111579940Y-28209205D01*
X111635795Y-28265060D01*
X111704204Y-28304556D01*
X111780504Y-28325000D01*
X111859496Y-28325000D01*
X111935796Y-28304556D01*
X112004205Y-28265060D01*
X112060060Y-28209205D01*
X112070000Y-28191988D01*
X112070000Y-29045842D01*
X112126274Y-29034649D01*
X112126276Y-29034648D01*
X112317358Y-28955499D01*
X112317368Y-28955494D01*
X112489335Y-28840589D01*
X112489339Y-28840586D01*
X112635587Y-28694338D01*
X112652897Y-28668432D01*
X112706509Y-28623627D01*
X112775834Y-28614918D01*
X112838861Y-28645072D01*
X112875581Y-28704515D01*
X112880000Y-28737322D01*
X112880000Y-28753495D01*
X112918427Y-28946681D01*
X112918430Y-28946693D01*
X112993807Y-29128671D01*
X112993814Y-29128684D01*
X113103248Y-29292462D01*
X113103251Y-29292466D01*
X113242533Y-29431748D01*
X113242537Y-29431751D01*
X113406315Y-29541185D01*
X113406328Y-29541192D01*
X113588308Y-29616569D01*
X113630000Y-29624862D01*
X114130000Y-29624862D01*
X114171689Y-29616570D01*
X114286514Y-29569008D01*
X114355983Y-29561539D01*
X114418463Y-29592814D01*
X114421648Y-29595888D01*
X114448438Y-29622678D01*
X114448447Y-29622685D01*
X114589801Y-29706281D01*
X114747514Y-29752100D01*
X114747511Y-29752100D01*
X114749998Y-29752295D01*
X114750000Y-29752295D01*
X114750000Y-28930000D01*
X114130000Y-28930000D01*
X114130000Y-29624862D01*
X113630000Y-29624862D01*
X113630000Y-28821988D01*
X113639940Y-28839205D01*
X113695795Y-28895060D01*
X113764204Y-28934556D01*
X113840504Y-28955000D01*
X113919496Y-28955000D01*
X113995796Y-28934556D01*
X114064205Y-28895060D01*
X114120060Y-28839205D01*
X114159556Y-28770796D01*
X114180000Y-28694496D01*
X114180000Y-28430000D01*
X114875500Y-28430000D01*
X114942539Y-28449685D01*
X114988294Y-28502489D01*
X114999500Y-28554000D01*
X114999500Y-29170701D01*
X115002401Y-29207567D01*
X115002402Y-29207573D01*
X115048254Y-29365393D01*
X115048255Y-29365396D01*
X115048256Y-29365398D01*
X115131919Y-29506865D01*
X115213682Y-29588628D01*
X115247166Y-29649949D01*
X115250000Y-29676308D01*
X115250000Y-29752295D01*
X115250001Y-29752295D01*
X115252490Y-29752100D01*
X115364507Y-29719555D01*
X115433697Y-29719555D01*
X115547431Y-29752598D01*
X115584306Y-29755500D01*
X115725500Y-29755500D01*
X115792539Y-29775185D01*
X115838294Y-29827989D01*
X115849500Y-29879500D01*
X115849500Y-30769699D01*
X115829815Y-30836738D01*
X115777011Y-30882493D01*
X115764507Y-30887403D01*
X115731962Y-30898188D01*
X115680668Y-30915185D01*
X115680663Y-30915187D01*
X115531342Y-31007289D01*
X115407289Y-31131342D01*
X115315187Y-31280663D01*
X115315186Y-31280666D01*
X115260001Y-31447203D01*
X115260001Y-31447204D01*
X115260000Y-31447204D01*
X115249500Y-31549983D01*
X115249500Y-32350001D01*
X115249501Y-32350019D01*
X115260000Y-32452796D01*
X115260001Y-32452799D01*
X115315185Y-32619331D01*
X115315187Y-32619336D01*
X115407289Y-32768657D01*
X115501304Y-32862672D01*
X115534789Y-32923995D01*
X115529805Y-32993687D01*
X115501305Y-33038034D01*
X115407682Y-33131657D01*
X115315643Y-33280875D01*
X115315641Y-33280880D01*
X115260494Y-33447302D01*
X115260493Y-33447309D01*
X115250000Y-33550013D01*
X115250000Y-33700000D01*
X116326000Y-33700000D01*
X116393039Y-33719685D01*
X116438794Y-33772489D01*
X116450000Y-33824000D01*
X116450000Y-33950000D01*
X116576000Y-33950000D01*
X116643039Y-33969685D01*
X116688794Y-34022489D01*
X116700000Y-34074000D01*
X116700000Y-35049999D01*
X116750500Y-35049999D01*
X116817539Y-35069684D01*
X116863294Y-35122488D01*
X116874500Y-35173999D01*
X116874500Y-47126528D01*
X116874499Y-47126546D01*
X116874499Y-47292252D01*
X116874498Y-47292252D01*
X116915423Y-47444983D01*
X116944358Y-47495098D01*
X116944359Y-47495102D01*
X116944360Y-47495102D01*
X116994479Y-47581912D01*
X116994481Y-47581915D01*
X117113349Y-47700783D01*
X117113355Y-47700788D01*
X120501941Y-51089374D01*
X120501951Y-51089385D01*
X120506281Y-51093715D01*
X120506282Y-51093716D01*
X120618086Y-51205520D01*
X120704897Y-51255639D01*
X120704899Y-51255641D01*
X120742953Y-51277611D01*
X120755017Y-51284577D01*
X120907745Y-51325501D01*
X120907748Y-51325501D01*
X121073455Y-51325501D01*
X121073471Y-51325500D01*
X121985500Y-51325500D01*
X122052539Y-51345185D01*
X122098294Y-51397989D01*
X122109500Y-51449499D01*
X122109500Y-51672868D01*
X122109501Y-51672878D01*
X122113679Y-51711745D01*
X122113679Y-51738250D01*
X122109500Y-51777122D01*
X122109500Y-52072868D01*
X122109501Y-52072880D01*
X122113931Y-52114093D01*
X122113931Y-52140596D01*
X122110000Y-52177165D01*
X122110000Y-52472832D01*
X122113931Y-52509399D01*
X122113931Y-52535905D01*
X122109500Y-52577122D01*
X122109500Y-52872868D01*
X122109501Y-52872878D01*
X122113679Y-52911745D01*
X122113679Y-52938250D01*
X122109500Y-52977122D01*
X122109500Y-53272868D01*
X122109501Y-53272880D01*
X122113931Y-53314093D01*
X122113931Y-53340596D01*
X122110000Y-53377165D01*
X122110000Y-53672832D01*
X122113931Y-53709399D01*
X122113931Y-53735905D01*
X122109500Y-53777122D01*
X122109500Y-54072868D01*
X122109501Y-54072878D01*
X122113679Y-54111745D01*
X122113679Y-54138250D01*
X122109500Y-54177122D01*
X122109500Y-54472868D01*
X122109501Y-54472880D01*
X122113931Y-54514093D01*
X122113931Y-54540596D01*
X122110000Y-54577165D01*
X122110000Y-54872832D01*
X122113931Y-54909399D01*
X122113931Y-54935905D01*
X122109500Y-54977122D01*
X122109500Y-55272868D01*
X122109501Y-55272878D01*
X122113679Y-55311745D01*
X122113679Y-55338250D01*
X122109500Y-55377122D01*
X122109500Y-55672868D01*
X122109501Y-55672880D01*
X122113931Y-55714093D01*
X122113931Y-55740596D01*
X122110000Y-55777165D01*
X122110000Y-56072832D01*
X122113931Y-56109399D01*
X122113931Y-56135905D01*
X122109500Y-56177122D01*
X122109500Y-56472868D01*
X122109501Y-56472878D01*
X122113679Y-56511745D01*
X122113679Y-56538250D01*
X122109500Y-56577122D01*
X122109500Y-56872868D01*
X122109501Y-56872880D01*
X122113931Y-56914093D01*
X122113931Y-56940596D01*
X122110000Y-56977165D01*
X122110000Y-57272832D01*
X122113931Y-57309399D01*
X122113931Y-57335905D01*
X122109500Y-57377122D01*
X122109500Y-57672868D01*
X122109501Y-57672878D01*
X122113679Y-57711745D01*
X122113679Y-57738250D01*
X122109500Y-57777122D01*
X122109500Y-58072868D01*
X122109501Y-58072878D01*
X122113679Y-58111745D01*
X122113679Y-58138250D01*
X122109500Y-58177122D01*
X122109500Y-58472868D01*
X122109501Y-58472878D01*
X122113679Y-58511745D01*
X122113679Y-58538250D01*
X122109500Y-58577122D01*
X122109500Y-58872868D01*
X122109501Y-58872878D01*
X122113679Y-58911745D01*
X122113679Y-58938250D01*
X122109500Y-58977122D01*
X122109500Y-59272868D01*
X122109501Y-59272878D01*
X122113679Y-59311745D01*
X122113679Y-59338250D01*
X122109500Y-59377122D01*
X122109500Y-59672868D01*
X122109501Y-59672878D01*
X122113679Y-59711745D01*
X122113679Y-59738250D01*
X122109500Y-59777122D01*
X122109500Y-60072868D01*
X122109501Y-60072878D01*
X122113679Y-60111745D01*
X122113679Y-60138250D01*
X122109500Y-60177122D01*
X122109500Y-60472868D01*
X122109501Y-60472880D01*
X122113931Y-60514093D01*
X122113931Y-60540596D01*
X122110000Y-60577165D01*
X122110000Y-60872832D01*
X122113931Y-60909399D01*
X122113931Y-60935905D01*
X122109500Y-60977122D01*
X122109500Y-61272868D01*
X122109501Y-61272878D01*
X122113679Y-61311745D01*
X122113679Y-61338250D01*
X122109500Y-61377122D01*
X122109500Y-61672868D01*
X122109501Y-61672880D01*
X122113931Y-61714093D01*
X122113931Y-61740596D01*
X122110000Y-61777165D01*
X122110000Y-62072832D01*
X122113931Y-62109399D01*
X122113931Y-62135905D01*
X122109500Y-62177122D01*
X122109500Y-62472868D01*
X122109501Y-62472878D01*
X122113679Y-62511745D01*
X122113679Y-62538250D01*
X122109500Y-62577122D01*
X122109500Y-62872868D01*
X122109501Y-62872880D01*
X122113931Y-62914093D01*
X122113931Y-62940596D01*
X122110000Y-62977165D01*
X122110000Y-63272832D01*
X122113931Y-63309399D01*
X122113931Y-63335905D01*
X122109500Y-63377122D01*
X122109500Y-63672868D01*
X122109501Y-63672878D01*
X122113679Y-63711745D01*
X122113679Y-63738250D01*
X122109500Y-63777122D01*
X122109500Y-64072868D01*
X122109501Y-64072880D01*
X122113931Y-64114093D01*
X122113931Y-64140596D01*
X122110000Y-64177165D01*
X122110000Y-64472832D01*
X122113931Y-64509399D01*
X122113931Y-64535905D01*
X122109500Y-64577122D01*
X122109500Y-64872868D01*
X122109501Y-64872878D01*
X122113679Y-64911745D01*
X122113679Y-64938250D01*
X122109500Y-64977122D01*
X122109500Y-65272868D01*
X122109501Y-65272880D01*
X122113931Y-65314093D01*
X122113931Y-65340596D01*
X122110000Y-65377165D01*
X122110000Y-65672832D01*
X122113931Y-65709399D01*
X122113931Y-65735905D01*
X122109500Y-65777122D01*
X122109500Y-66072868D01*
X122109501Y-66072878D01*
X122113679Y-66111745D01*
X122113679Y-66138250D01*
X122109500Y-66177122D01*
X122109500Y-66472868D01*
X122109501Y-66472880D01*
X122113931Y-66514093D01*
X122113931Y-66540596D01*
X122110000Y-66577165D01*
X122110000Y-66872832D01*
X122113931Y-66909399D01*
X122113931Y-66935905D01*
X122109500Y-66977122D01*
X122109500Y-67272868D01*
X122109501Y-67272878D01*
X122113679Y-67311745D01*
X122113679Y-67338250D01*
X122109500Y-67377122D01*
X122109500Y-67672868D01*
X122109501Y-67672880D01*
X122113931Y-67714093D01*
X122113931Y-67740596D01*
X122110000Y-67777165D01*
X122110000Y-68072832D01*
X122113931Y-68109399D01*
X122113931Y-68135905D01*
X122109500Y-68177122D01*
X122109500Y-68472868D01*
X122109501Y-68472878D01*
X122113679Y-68511745D01*
X122113679Y-68538250D01*
X122109500Y-68577122D01*
X122109500Y-68872868D01*
X122109501Y-68872880D01*
X122113931Y-68914093D01*
X122113931Y-68940596D01*
X122110000Y-68977165D01*
X122110000Y-69272832D01*
X122113931Y-69309399D01*
X122113931Y-69335905D01*
X122109500Y-69377122D01*
X122109500Y-69672869D01*
X122109501Y-69672876D01*
X122115908Y-69732483D01*
X122166202Y-69867328D01*
X122166206Y-69867335D01*
X122252452Y-69982544D01*
X122252455Y-69982547D01*
X122367664Y-70068793D01*
X122367671Y-70068797D01*
X122502517Y-70119091D01*
X122502516Y-70119091D01*
X122509444Y-70119835D01*
X122562127Y-70125500D01*
X123357872Y-70125499D01*
X123417483Y-70119091D01*
X123552331Y-70068796D01*
X123667546Y-69982546D01*
X123753796Y-69867331D01*
X123804091Y-69732483D01*
X123810500Y-69672873D01*
X123810499Y-69377128D01*
X123806067Y-69335898D01*
X123806068Y-69309393D01*
X123809999Y-69272833D01*
X123810000Y-69272819D01*
X123810000Y-68977182D01*
X123809999Y-68977164D01*
X123806068Y-68940602D01*
X123806068Y-68914093D01*
X123810500Y-68872873D01*
X123810499Y-68577128D01*
X123810499Y-68577127D01*
X123810498Y-68577111D01*
X123806320Y-68538253D01*
X123806320Y-68511745D01*
X123810500Y-68472873D01*
X123810499Y-68177128D01*
X123806067Y-68135898D01*
X123806068Y-68109393D01*
X123809999Y-68072833D01*
X123810000Y-68072819D01*
X123810000Y-67777182D01*
X123809999Y-67777164D01*
X123806068Y-67740602D01*
X123806068Y-67714093D01*
X123810500Y-67672873D01*
X123810499Y-67377128D01*
X123810499Y-67377127D01*
X123810498Y-67377111D01*
X123806320Y-67338253D01*
X123806320Y-67311745D01*
X123810500Y-67272873D01*
X123810499Y-66977128D01*
X123806067Y-66935898D01*
X123806068Y-66909393D01*
X123809999Y-66872833D01*
X123810000Y-66872819D01*
X123810000Y-66577182D01*
X123809999Y-66577164D01*
X123806068Y-66540602D01*
X123806068Y-66514093D01*
X123810500Y-66472873D01*
X123810499Y-66177128D01*
X123810499Y-66177127D01*
X123810498Y-66177111D01*
X123806320Y-66138253D01*
X123806320Y-66111745D01*
X123810500Y-66072873D01*
X123810499Y-65777128D01*
X123806067Y-65735898D01*
X123806068Y-65709393D01*
X123809999Y-65672833D01*
X123810000Y-65672819D01*
X123810000Y-65377182D01*
X123809999Y-65377164D01*
X123806068Y-65340602D01*
X123806068Y-65314093D01*
X123810500Y-65272873D01*
X123810499Y-64977128D01*
X123810499Y-64977127D01*
X123810498Y-64977111D01*
X123806320Y-64938253D01*
X123806320Y-64911745D01*
X123810500Y-64872873D01*
X123810499Y-64577128D01*
X123806067Y-64535898D01*
X123806068Y-64509393D01*
X123809999Y-64472833D01*
X123810000Y-64472819D01*
X123810000Y-64177182D01*
X123809999Y-64177164D01*
X123806068Y-64140602D01*
X123806068Y-64114093D01*
X123810500Y-64072873D01*
X123810499Y-63777128D01*
X123810499Y-63777127D01*
X123810498Y-63777111D01*
X123806320Y-63738253D01*
X123806320Y-63711745D01*
X123810500Y-63672873D01*
X123810499Y-63377128D01*
X123806067Y-63335898D01*
X123806068Y-63309393D01*
X123809999Y-63272833D01*
X123810000Y-63272819D01*
X123810000Y-62977182D01*
X123809999Y-62977164D01*
X123806068Y-62940602D01*
X123806068Y-62914093D01*
X123810500Y-62872873D01*
X123810499Y-62577128D01*
X123810499Y-62577127D01*
X123810498Y-62577111D01*
X123806320Y-62538253D01*
X123806320Y-62511745D01*
X123810500Y-62472873D01*
X123810499Y-62177128D01*
X123806067Y-62135898D01*
X123806068Y-62109393D01*
X123809999Y-62072833D01*
X123810000Y-62072819D01*
X123810000Y-61777182D01*
X123809999Y-61777164D01*
X123806068Y-61740602D01*
X123806068Y-61714093D01*
X123810500Y-61672873D01*
X123810499Y-61377128D01*
X123810499Y-61377127D01*
X123810498Y-61377111D01*
X123806320Y-61338253D01*
X123806320Y-61311745D01*
X123810500Y-61272873D01*
X123810499Y-60977128D01*
X123806067Y-60935898D01*
X123806068Y-60909393D01*
X123809999Y-60872833D01*
X123810000Y-60872819D01*
X123810000Y-60577182D01*
X123809999Y-60577164D01*
X123806068Y-60540602D01*
X123806068Y-60514093D01*
X123810500Y-60472873D01*
X123810499Y-60177128D01*
X123810499Y-60177127D01*
X123810498Y-60177111D01*
X123806320Y-60138253D01*
X123806320Y-60111745D01*
X123810500Y-60072873D01*
X123810499Y-59777128D01*
X123810499Y-59777127D01*
X123810498Y-59777111D01*
X123806320Y-59738253D01*
X123806320Y-59711745D01*
X123810500Y-59672873D01*
X123810499Y-59377128D01*
X123810499Y-59377127D01*
X123810498Y-59377111D01*
X123806320Y-59338253D01*
X123806320Y-59311745D01*
X123810500Y-59272873D01*
X123810499Y-58977128D01*
X123810499Y-58977127D01*
X123810498Y-58977111D01*
X123806320Y-58938253D01*
X123806320Y-58911745D01*
X123810500Y-58872873D01*
X123810499Y-58577128D01*
X123810499Y-58577127D01*
X123810498Y-58577111D01*
X123806320Y-58538253D01*
X123806320Y-58511745D01*
X123810500Y-58472873D01*
X123810499Y-58177128D01*
X123810499Y-58177127D01*
X123810498Y-58177111D01*
X123806320Y-58138253D01*
X123806320Y-58111745D01*
X123810500Y-58072873D01*
X123810499Y-57777128D01*
X123810499Y-57777127D01*
X123810498Y-57777111D01*
X123806320Y-57738253D01*
X123806320Y-57711745D01*
X123810500Y-57672873D01*
X123810499Y-57377128D01*
X123806067Y-57335898D01*
X123806068Y-57309393D01*
X123809999Y-57272833D01*
X123810000Y-57272819D01*
X123810000Y-56977182D01*
X123809999Y-56977164D01*
X123806068Y-56940602D01*
X123806068Y-56914093D01*
X123810500Y-56872873D01*
X123810499Y-56577128D01*
X123810499Y-56577127D01*
X123810498Y-56577111D01*
X123806320Y-56538253D01*
X123806320Y-56511745D01*
X123810500Y-56472873D01*
X123810499Y-56177128D01*
X123806067Y-56135898D01*
X123806068Y-56109393D01*
X123809999Y-56072833D01*
X123810000Y-56072819D01*
X123810000Y-55777182D01*
X123809999Y-55777164D01*
X123806068Y-55740602D01*
X123806068Y-55714093D01*
X123810500Y-55672873D01*
X123810499Y-55377128D01*
X123810499Y-55377127D01*
X123810498Y-55377111D01*
X123806320Y-55338253D01*
X123806320Y-55311745D01*
X123810500Y-55272873D01*
X123810499Y-54977128D01*
X123806067Y-54935898D01*
X123806068Y-54909393D01*
X123809999Y-54872833D01*
X123810000Y-54872819D01*
X123810000Y-54577182D01*
X123809999Y-54577164D01*
X123806068Y-54540602D01*
X123806068Y-54514093D01*
X123810500Y-54472873D01*
X123810499Y-54177128D01*
X123810499Y-54177127D01*
X123810498Y-54177111D01*
X123806320Y-54138253D01*
X123806320Y-54111745D01*
X123810500Y-54072873D01*
X123810499Y-53777128D01*
X123806067Y-53735898D01*
X123806068Y-53709393D01*
X123809999Y-53672833D01*
X123810000Y-53672819D01*
X123810000Y-53377182D01*
X123809999Y-53377164D01*
X123806068Y-53340602D01*
X123806068Y-53314093D01*
X123810500Y-53272873D01*
X123810499Y-52977128D01*
X123810499Y-52977127D01*
X123810498Y-52977111D01*
X123806320Y-52938253D01*
X123806320Y-52911745D01*
X123810500Y-52872873D01*
X123810499Y-52577128D01*
X123806067Y-52535898D01*
X123806068Y-52509393D01*
X123809999Y-52472833D01*
X123810000Y-52472819D01*
X123810000Y-52177182D01*
X123809999Y-52177164D01*
X123806068Y-52140602D01*
X123806068Y-52114093D01*
X123810500Y-52072873D01*
X123810499Y-51777128D01*
X123810499Y-51777127D01*
X123810498Y-51777111D01*
X123806320Y-51738253D01*
X123806320Y-51711745D01*
X123810500Y-51672873D01*
X123810499Y-51377128D01*
X123806067Y-51335898D01*
X123806068Y-51309393D01*
X123809999Y-51272833D01*
X123810000Y-51272819D01*
X123810000Y-50977182D01*
X123809999Y-50977164D01*
X123806068Y-50940602D01*
X123806068Y-50914093D01*
X123810500Y-50872873D01*
X123810499Y-50577128D01*
X123810499Y-50577127D01*
X123810498Y-50577111D01*
X123806320Y-50538253D01*
X123806320Y-50511745D01*
X123810500Y-50472873D01*
X123810499Y-50177128D01*
X123810499Y-50177127D01*
X123810498Y-50177111D01*
X123806320Y-50138253D01*
X123806320Y-50111745D01*
X123810500Y-50072873D01*
X123810499Y-49777128D01*
X123810499Y-49777127D01*
X125189500Y-49777127D01*
X125189500Y-49777134D01*
X125189500Y-49777135D01*
X125189500Y-50072868D01*
X125189501Y-50072878D01*
X125193679Y-50111745D01*
X125193679Y-50138250D01*
X125189500Y-50177122D01*
X125189500Y-50472868D01*
X125189501Y-50472878D01*
X125193679Y-50511745D01*
X125193679Y-50538250D01*
X125189500Y-50577122D01*
X125189500Y-50872868D01*
X125189501Y-50872880D01*
X125193931Y-50914093D01*
X125193931Y-50940596D01*
X125190000Y-50977165D01*
X125190000Y-51272832D01*
X125193931Y-51309399D01*
X125193931Y-51335905D01*
X125189500Y-51377122D01*
X125189500Y-51672868D01*
X125189501Y-51672878D01*
X125193679Y-51711745D01*
X125193679Y-51738250D01*
X125189500Y-51777122D01*
X125189500Y-52072868D01*
X125189501Y-52072880D01*
X125193931Y-52114093D01*
X125193931Y-52140596D01*
X125190000Y-52177165D01*
X125190000Y-52472832D01*
X125193931Y-52509399D01*
X125193931Y-52535905D01*
X125189500Y-52577122D01*
X125189500Y-52872868D01*
X125189501Y-52872878D01*
X125193679Y-52911745D01*
X125193679Y-52938250D01*
X125189500Y-52977122D01*
X125189500Y-53272868D01*
X125189501Y-53272880D01*
X125193931Y-53314093D01*
X125193931Y-53340596D01*
X125190000Y-53377165D01*
X125190000Y-53672832D01*
X125193931Y-53709399D01*
X125193931Y-53735905D01*
X125189500Y-53777122D01*
X125189500Y-54072868D01*
X125189501Y-54072878D01*
X125193679Y-54111745D01*
X125193679Y-54138250D01*
X125189500Y-54177122D01*
X125189500Y-54472868D01*
X125189501Y-54472880D01*
X125193931Y-54514093D01*
X125193931Y-54540596D01*
X125190000Y-54577165D01*
X125190000Y-54872832D01*
X125193931Y-54909399D01*
X125193931Y-54935905D01*
X125189500Y-54977122D01*
X125189500Y-55272868D01*
X125189501Y-55272878D01*
X125193679Y-55311745D01*
X125193679Y-55338250D01*
X125189500Y-55377122D01*
X125189500Y-55672868D01*
X125189501Y-55672880D01*
X125193931Y-55714093D01*
X125193931Y-55740596D01*
X125190000Y-55777165D01*
X125190000Y-56072832D01*
X125193931Y-56109399D01*
X125193931Y-56135905D01*
X125189500Y-56177122D01*
X125189500Y-56472868D01*
X125189501Y-56472878D01*
X125193679Y-56511745D01*
X125193679Y-56538250D01*
X125189500Y-56577122D01*
X125189500Y-56872868D01*
X125189501Y-56872880D01*
X125193931Y-56914093D01*
X125193931Y-56940596D01*
X125190000Y-56977165D01*
X125190000Y-57272832D01*
X125193931Y-57309399D01*
X125193931Y-57335905D01*
X125189500Y-57377122D01*
X125189500Y-57672868D01*
X125189501Y-57672878D01*
X125193679Y-57711745D01*
X125193679Y-57738250D01*
X125189500Y-57777122D01*
X125189500Y-58072868D01*
X125189501Y-58072880D01*
X125193931Y-58114093D01*
X125193931Y-58140596D01*
X125190000Y-58177165D01*
X125190000Y-58472832D01*
X125193931Y-58509399D01*
X125193931Y-58535905D01*
X125189500Y-58577122D01*
X125189500Y-58872868D01*
X125189501Y-58872878D01*
X125193679Y-58911745D01*
X125193679Y-58938250D01*
X125189500Y-58977122D01*
X125189500Y-59272868D01*
X125189501Y-59272880D01*
X125193931Y-59314093D01*
X125193931Y-59340596D01*
X125190000Y-59377165D01*
X125190000Y-59672832D01*
X125193931Y-59709399D01*
X125193931Y-59735905D01*
X125189500Y-59777122D01*
X125189500Y-60072868D01*
X125189501Y-60072878D01*
X125193679Y-60111745D01*
X125193679Y-60138250D01*
X125189500Y-60177122D01*
X125189500Y-60472868D01*
X125189501Y-60472880D01*
X125193931Y-60514093D01*
X125193931Y-60540596D01*
X125190000Y-60577165D01*
X125190000Y-60872832D01*
X125193931Y-60909399D01*
X125193931Y-60935905D01*
X125189500Y-60977122D01*
X125189500Y-61272868D01*
X125189501Y-61272878D01*
X125193679Y-61311745D01*
X125193679Y-61338250D01*
X125189500Y-61377122D01*
X125189500Y-61672868D01*
X125189501Y-61672880D01*
X125193931Y-61714093D01*
X125193931Y-61740596D01*
X125190000Y-61777165D01*
X125190000Y-62072832D01*
X125193931Y-62109399D01*
X125193931Y-62135905D01*
X125189500Y-62177122D01*
X125189500Y-62472868D01*
X125189501Y-62472878D01*
X125193679Y-62511745D01*
X125193679Y-62538250D01*
X125189500Y-62577122D01*
X125189500Y-62872868D01*
X125189501Y-62872880D01*
X125193931Y-62914093D01*
X125193931Y-62940596D01*
X125190000Y-62977165D01*
X125190000Y-63272832D01*
X125193931Y-63309399D01*
X125193931Y-63335905D01*
X125189500Y-63377122D01*
X125189500Y-63672868D01*
X125189501Y-63672878D01*
X125193679Y-63711745D01*
X125193679Y-63738250D01*
X125189500Y-63777122D01*
X125189500Y-64072868D01*
X125189501Y-64072880D01*
X125193931Y-64114093D01*
X125193931Y-64140596D01*
X125190000Y-64177165D01*
X125190000Y-64472832D01*
X125193931Y-64509399D01*
X125193931Y-64535905D01*
X125189500Y-64577122D01*
X125189500Y-64872868D01*
X125189501Y-64872878D01*
X125193679Y-64911745D01*
X125193679Y-64938250D01*
X125189500Y-64977122D01*
X125189500Y-65272868D01*
X125189501Y-65272880D01*
X125193931Y-65314093D01*
X125193931Y-65340596D01*
X125190000Y-65377165D01*
X125190000Y-65672832D01*
X125193931Y-65709399D01*
X125193931Y-65735905D01*
X125189500Y-65777122D01*
X125189500Y-66072868D01*
X125189501Y-66072878D01*
X125193679Y-66111745D01*
X125193679Y-66138250D01*
X125189500Y-66177122D01*
X125189500Y-66472868D01*
X125189501Y-66472880D01*
X125193931Y-66514093D01*
X125193931Y-66540596D01*
X125190000Y-66577165D01*
X125190000Y-66872832D01*
X125193931Y-66909399D01*
X125193931Y-66935905D01*
X125189500Y-66977122D01*
X125189500Y-67272868D01*
X125189501Y-67272878D01*
X125193679Y-67311745D01*
X125193679Y-67338250D01*
X125189500Y-67377122D01*
X125189500Y-67672868D01*
X125189501Y-67672880D01*
X125193931Y-67714093D01*
X125193931Y-67740596D01*
X125190000Y-67777165D01*
X125190000Y-68072832D01*
X125193931Y-68109399D01*
X125193931Y-68135905D01*
X125189500Y-68177122D01*
X125189500Y-68472868D01*
X125189501Y-68472878D01*
X125193679Y-68511745D01*
X125193679Y-68538250D01*
X125189500Y-68577122D01*
X125189500Y-68872868D01*
X125189501Y-68872880D01*
X125193931Y-68914093D01*
X125193931Y-68940596D01*
X125190000Y-68977165D01*
X125190000Y-69272832D01*
X125193931Y-69309399D01*
X125193931Y-69335905D01*
X125189500Y-69377122D01*
X125189500Y-69672869D01*
X125189501Y-69672876D01*
X125195908Y-69732483D01*
X125246202Y-69867328D01*
X125246206Y-69867335D01*
X125332452Y-69982544D01*
X125332455Y-69982547D01*
X125447664Y-70068793D01*
X125447671Y-70068797D01*
X125582517Y-70119091D01*
X125582516Y-70119091D01*
X125589444Y-70119835D01*
X125642127Y-70125500D01*
X126437872Y-70125499D01*
X126497483Y-70119091D01*
X126632331Y-70068796D01*
X126747546Y-69982546D01*
X126833796Y-69867331D01*
X126884091Y-69732483D01*
X126890500Y-69672873D01*
X126890499Y-69377128D01*
X126886067Y-69335898D01*
X126886068Y-69309393D01*
X126889999Y-69272833D01*
X126890000Y-69272819D01*
X126890000Y-68977182D01*
X126889999Y-68977164D01*
X126886068Y-68940602D01*
X126886068Y-68914093D01*
X126890500Y-68872873D01*
X126890499Y-68577128D01*
X126890499Y-68577127D01*
X126890498Y-68577111D01*
X126886320Y-68538253D01*
X126886320Y-68511745D01*
X126890500Y-68472873D01*
X126890499Y-68177128D01*
X126886067Y-68135898D01*
X126886068Y-68109393D01*
X126889999Y-68072833D01*
X126890000Y-68072819D01*
X126890000Y-67777182D01*
X126889999Y-67777164D01*
X126886068Y-67740602D01*
X126886068Y-67714093D01*
X126890500Y-67672873D01*
X126890499Y-67377128D01*
X126890499Y-67377127D01*
X126890498Y-67377111D01*
X126886320Y-67338253D01*
X126886320Y-67311745D01*
X126890500Y-67272873D01*
X126890499Y-66977128D01*
X126886067Y-66935898D01*
X126886068Y-66909393D01*
X126889999Y-66872833D01*
X126890000Y-66872819D01*
X126890000Y-66577182D01*
X126889999Y-66577164D01*
X126886068Y-66540602D01*
X126886068Y-66514093D01*
X126890500Y-66472873D01*
X126890499Y-66177128D01*
X126890499Y-66177127D01*
X126890498Y-66177111D01*
X126886320Y-66138253D01*
X126886320Y-66111745D01*
X126890500Y-66072873D01*
X126890499Y-65777128D01*
X126886067Y-65735898D01*
X126886068Y-65709393D01*
X126889999Y-65672833D01*
X126890000Y-65672819D01*
X126890000Y-65377182D01*
X126889999Y-65377164D01*
X126886068Y-65340602D01*
X126886068Y-65314093D01*
X126890500Y-65272873D01*
X126890499Y-64977128D01*
X126890499Y-64977127D01*
X126890498Y-64977111D01*
X126886320Y-64938253D01*
X126886320Y-64911745D01*
X126890500Y-64872873D01*
X126890499Y-64577128D01*
X126886067Y-64535898D01*
X126886068Y-64509393D01*
X126889999Y-64472833D01*
X126890000Y-64472819D01*
X126890000Y-64177182D01*
X126889999Y-64177164D01*
X126886068Y-64140602D01*
X126886068Y-64114093D01*
X126890500Y-64072873D01*
X126890499Y-63777128D01*
X126890499Y-63777127D01*
X126890498Y-63777111D01*
X126886320Y-63738253D01*
X126886320Y-63711745D01*
X126890500Y-63672873D01*
X126890499Y-63377128D01*
X126886067Y-63335898D01*
X126886068Y-63309393D01*
X126889999Y-63272833D01*
X126890000Y-63272819D01*
X126890000Y-62977182D01*
X126889999Y-62977164D01*
X126886068Y-62940602D01*
X126886068Y-62914093D01*
X126890500Y-62872873D01*
X126890499Y-62577128D01*
X126890499Y-62577127D01*
X126890498Y-62577111D01*
X126886320Y-62538253D01*
X126886320Y-62511745D01*
X126890500Y-62472873D01*
X126890499Y-62177128D01*
X126886067Y-62135898D01*
X126886068Y-62109393D01*
X126889999Y-62072833D01*
X126890000Y-62072819D01*
X126890000Y-61777182D01*
X126889999Y-61777164D01*
X126886068Y-61740602D01*
X126886068Y-61714093D01*
X126890500Y-61672873D01*
X126890499Y-61377128D01*
X126890499Y-61377127D01*
X126890498Y-61377111D01*
X126886320Y-61338253D01*
X126886320Y-61311745D01*
X126890500Y-61272873D01*
X126890499Y-60977128D01*
X126886067Y-60935898D01*
X126886068Y-60909393D01*
X126889999Y-60872833D01*
X126890000Y-60872819D01*
X126890000Y-60577182D01*
X126889999Y-60577164D01*
X126886068Y-60540602D01*
X126886068Y-60514093D01*
X126890500Y-60472873D01*
X126890499Y-60177128D01*
X126890499Y-60177127D01*
X126890498Y-60177111D01*
X126886320Y-60138253D01*
X126886320Y-60111745D01*
X126890500Y-60072873D01*
X126890499Y-59777128D01*
X126886067Y-59735898D01*
X126886068Y-59709393D01*
X126889999Y-59672833D01*
X126890000Y-59672819D01*
X126890000Y-59377182D01*
X126889999Y-59377164D01*
X126886068Y-59340602D01*
X126886068Y-59314093D01*
X126890500Y-59272873D01*
X126890499Y-58977128D01*
X126890499Y-58977127D01*
X126890498Y-58977111D01*
X126886320Y-58938253D01*
X126886320Y-58911745D01*
X126890500Y-58872873D01*
X126890499Y-58577128D01*
X126886067Y-58535898D01*
X126886068Y-58509393D01*
X126889999Y-58472833D01*
X126890000Y-58472819D01*
X126890000Y-58177182D01*
X126889999Y-58177164D01*
X126886068Y-58140602D01*
X126886068Y-58114093D01*
X126890500Y-58072873D01*
X126890499Y-57777128D01*
X126890499Y-57777127D01*
X126890498Y-57777111D01*
X126886320Y-57738253D01*
X126886320Y-57711745D01*
X126890500Y-57672873D01*
X126890499Y-57377128D01*
X126886067Y-57335898D01*
X126886068Y-57309393D01*
X126889999Y-57272833D01*
X126890000Y-57272819D01*
X126890000Y-56977182D01*
X126889999Y-56977164D01*
X126886068Y-56940602D01*
X126886068Y-56914093D01*
X126890500Y-56872873D01*
X126890499Y-56577128D01*
X126890499Y-56577127D01*
X126890498Y-56577111D01*
X126886320Y-56538253D01*
X126886320Y-56511745D01*
X126890500Y-56472873D01*
X126890499Y-56177128D01*
X126886067Y-56135898D01*
X126886068Y-56109393D01*
X126889999Y-56072833D01*
X126890000Y-56072819D01*
X126890000Y-55777182D01*
X126889999Y-55777164D01*
X126886068Y-55740602D01*
X126886068Y-55714093D01*
X126890500Y-55672873D01*
X126890499Y-55377128D01*
X126890499Y-55377127D01*
X126890498Y-55377111D01*
X126886320Y-55338253D01*
X126886320Y-55311745D01*
X126890500Y-55272873D01*
X126890499Y-54977128D01*
X126886067Y-54935898D01*
X126886068Y-54909393D01*
X126889999Y-54872833D01*
X126890000Y-54872819D01*
X126890000Y-54577182D01*
X126889999Y-54577164D01*
X126886068Y-54540602D01*
X126886068Y-54514093D01*
X126890500Y-54472873D01*
X126890499Y-54177128D01*
X126890499Y-54177127D01*
X126890498Y-54177111D01*
X126886320Y-54138253D01*
X126886320Y-54111745D01*
X126890500Y-54072873D01*
X126890499Y-53777128D01*
X126886067Y-53735898D01*
X126886068Y-53709393D01*
X126889999Y-53672833D01*
X126890000Y-53672819D01*
X126890000Y-53377182D01*
X126889999Y-53377164D01*
X126886068Y-53340602D01*
X126886068Y-53314093D01*
X126890500Y-53272873D01*
X126890499Y-52977128D01*
X126890499Y-52977127D01*
X126890498Y-52977111D01*
X126886320Y-52938253D01*
X126886320Y-52911745D01*
X126890500Y-52872873D01*
X126890499Y-52577128D01*
X126886067Y-52535898D01*
X126886068Y-52509393D01*
X126889999Y-52472833D01*
X126890000Y-52472819D01*
X126890000Y-52177182D01*
X126889999Y-52177164D01*
X126886068Y-52140602D01*
X126886068Y-52114093D01*
X126890500Y-52072873D01*
X126890499Y-51777128D01*
X126890499Y-51777127D01*
X126890498Y-51777111D01*
X126886320Y-51738253D01*
X126886320Y-51711745D01*
X126890500Y-51672873D01*
X126890499Y-51377128D01*
X126886067Y-51335898D01*
X126886068Y-51309393D01*
X126889999Y-51272833D01*
X126890000Y-51272819D01*
X126890000Y-50977182D01*
X126889999Y-50977164D01*
X126886068Y-50940602D01*
X126886068Y-50914093D01*
X126890500Y-50872873D01*
X126890499Y-50577128D01*
X126890499Y-50577127D01*
X126890498Y-50577111D01*
X126886320Y-50538253D01*
X126886320Y-50511745D01*
X126890500Y-50472873D01*
X126890499Y-50177128D01*
X126890499Y-50177127D01*
X126890498Y-50177111D01*
X126886320Y-50138253D01*
X126886320Y-50111745D01*
X126890500Y-50072873D01*
X126890499Y-49777128D01*
X126884091Y-49717517D01*
X126879353Y-49704815D01*
X126833797Y-49582671D01*
X126833793Y-49582664D01*
X126747547Y-49467455D01*
X126747544Y-49467452D01*
X126632335Y-49381206D01*
X126632328Y-49381202D01*
X126497482Y-49330908D01*
X126497483Y-49330908D01*
X126437883Y-49324501D01*
X126437881Y-49324500D01*
X126437873Y-49324500D01*
X126437864Y-49324500D01*
X125642129Y-49324500D01*
X125642123Y-49324501D01*
X125582516Y-49330908D01*
X125447671Y-49381202D01*
X125447664Y-49381206D01*
X125332455Y-49467452D01*
X125332452Y-49467455D01*
X125246206Y-49582664D01*
X125246202Y-49582671D01*
X125195910Y-49717513D01*
X125195909Y-49717517D01*
X125189500Y-49777127D01*
X123810499Y-49777127D01*
X123804091Y-49717517D01*
X123799353Y-49704815D01*
X123753797Y-49582671D01*
X123753793Y-49582664D01*
X123667547Y-49467455D01*
X123667544Y-49467452D01*
X123552335Y-49381206D01*
X123552328Y-49381202D01*
X123417482Y-49330908D01*
X123417483Y-49330908D01*
X123357883Y-49324501D01*
X123357881Y-49324500D01*
X123357873Y-49324500D01*
X123357864Y-49324500D01*
X122562129Y-49324500D01*
X122562123Y-49324501D01*
X122502516Y-49330908D01*
X122367671Y-49381202D01*
X122367664Y-49381206D01*
X122252455Y-49467452D01*
X122252452Y-49467455D01*
X122166206Y-49582664D01*
X122166202Y-49582671D01*
X122143391Y-49643833D01*
X122101520Y-49699767D01*
X122036056Y-49724184D01*
X122027209Y-49724500D01*
X121523295Y-49724500D01*
X121456256Y-49704815D01*
X121435614Y-49688181D01*
X118561819Y-46814386D01*
X118528334Y-46753063D01*
X118525500Y-46726705D01*
X118525500Y-38855404D01*
X118545185Y-38788365D01*
X118597989Y-38742610D01*
X118627967Y-38733288D01*
X118653159Y-38728845D01*
X118710930Y-38718659D01*
X118891886Y-38652793D01*
X119058655Y-38556504D01*
X119206169Y-38432718D01*
X119329946Y-38285196D01*
X119426224Y-38118420D01*
X119492078Y-37937460D01*
X119525506Y-37747813D01*
X119525500Y-37651527D01*
X119525500Y-37648632D01*
X119525500Y-36462063D01*
X119525500Y-36454454D01*
X119525504Y-36454441D01*
X119525502Y-36432905D01*
X119525535Y-36432792D01*
X119525532Y-36381527D01*
X119525533Y-36381527D01*
X119525527Y-36285247D01*
X119492078Y-36095614D01*
X119426209Y-35914670D01*
X119329922Y-35747912D01*
X119206141Y-35600407D01*
X119206138Y-35600404D01*
X119206136Y-35600402D01*
X119058633Y-35476639D01*
X119058628Y-35476636D01*
X118891864Y-35380360D01*
X118710915Y-35314503D01*
X118710910Y-35314502D01*
X118627969Y-35299878D01*
X118598372Y-35285209D01*
X118568297Y-35271475D01*
X118567193Y-35269757D01*
X118565366Y-35268852D01*
X118548398Y-35240512D01*
X118530523Y-35212697D01*
X118530136Y-35210010D01*
X118529475Y-35208905D01*
X118525500Y-35177762D01*
X118525500Y-35094590D01*
X118545185Y-35027551D01*
X118597989Y-34981796D01*
X118667147Y-34971852D01*
X118688504Y-34976884D01*
X118847302Y-35029505D01*
X118847309Y-35029506D01*
X118950019Y-35039999D01*
X119199999Y-35039999D01*
X119700000Y-35039999D01*
X119949972Y-35039999D01*
X119949986Y-35039998D01*
X120052697Y-35029505D01*
X120219119Y-34974358D01*
X120219124Y-34974356D01*
X120368345Y-34882315D01*
X120492315Y-34758345D01*
X120584356Y-34609124D01*
X120584358Y-34609119D01*
X120639505Y-34442697D01*
X120639506Y-34442690D01*
X120649999Y-34339986D01*
X120650000Y-34339973D01*
X120650000Y-34190000D01*
X119700000Y-34190000D01*
X119700000Y-35039999D01*
X119199999Y-35039999D01*
X119200000Y-35039998D01*
X119200000Y-34064000D01*
X119219685Y-33996961D01*
X119272489Y-33951206D01*
X119324000Y-33940000D01*
X119450000Y-33940000D01*
X119450000Y-33814000D01*
X119469685Y-33746961D01*
X119522489Y-33701206D01*
X119574000Y-33690000D01*
X120649999Y-33690000D01*
X120649999Y-33540028D01*
X120649998Y-33540013D01*
X120639505Y-33437302D01*
X120584358Y-33270880D01*
X120584356Y-33270875D01*
X120495716Y-33127168D01*
X120423787Y-33053681D01*
X120949500Y-33053681D01*
X120949500Y-33396318D01*
X120987858Y-33736768D01*
X120987861Y-33736782D01*
X121064102Y-34070816D01*
X121064103Y-34070818D01*
X121177264Y-34394216D01*
X121325922Y-34702907D01*
X121325924Y-34702910D01*
X121508211Y-34993018D01*
X121721834Y-35260893D01*
X121964107Y-35503166D01*
X122231982Y-35716789D01*
X122522090Y-35899076D01*
X122830785Y-36047736D01*
X123154183Y-36160897D01*
X123488217Y-36237139D01*
X123488226Y-36237140D01*
X123488231Y-36237141D01*
X123715197Y-36262713D01*
X123828682Y-36275499D01*
X123828685Y-36275500D01*
X123828688Y-36275500D01*
X124171315Y-36275500D01*
X124171316Y-36275499D01*
X124345311Y-36255895D01*
X124511768Y-36237141D01*
X124511771Y-36237140D01*
X124511783Y-36237139D01*
X124845817Y-36160897D01*
X125169215Y-36047736D01*
X125477910Y-35899076D01*
X125768018Y-35716789D01*
X126035893Y-35503166D01*
X126278166Y-35260893D01*
X126491789Y-34993018D01*
X126674076Y-34702910D01*
X126822736Y-34394215D01*
X126935897Y-34070817D01*
X127012139Y-33736783D01*
X127014066Y-33719685D01*
X127044755Y-33447302D01*
X127050500Y-33396312D01*
X127050500Y-33053688D01*
X127027851Y-32852671D01*
X127012141Y-32713231D01*
X127012140Y-32713226D01*
X127012139Y-32713217D01*
X126935897Y-32379183D01*
X126822736Y-32055785D01*
X126674076Y-31747090D01*
X126491789Y-31456982D01*
X126278166Y-31189107D01*
X126035893Y-30946834D01*
X125983423Y-30904991D01*
X125860219Y-30806739D01*
X125768018Y-30733211D01*
X125477910Y-30550924D01*
X125477907Y-30550922D01*
X125169216Y-30402264D01*
X124845818Y-30289103D01*
X124845816Y-30289102D01*
X124582448Y-30228990D01*
X124511783Y-30212861D01*
X124511780Y-30212860D01*
X124511768Y-30212858D01*
X124171318Y-30174500D01*
X124171312Y-30174500D01*
X123828688Y-30174500D01*
X123828681Y-30174500D01*
X123488231Y-30212858D01*
X123488217Y-30212861D01*
X123154183Y-30289102D01*
X123154181Y-30289103D01*
X122830783Y-30402264D01*
X122522092Y-30550922D01*
X122231983Y-30733210D01*
X121964107Y-30946833D01*
X121721833Y-31189107D01*
X121508210Y-31456983D01*
X121325922Y-31747092D01*
X121177264Y-32055783D01*
X121064103Y-32379181D01*
X121064102Y-32379183D01*
X120987861Y-32713217D01*
X120987858Y-32713231D01*
X120949500Y-33053681D01*
X120423787Y-33053681D01*
X120397760Y-33027090D01*
X120381612Y-32996749D01*
X120365210Y-32966711D01*
X120365259Y-32966023D01*
X120364934Y-32965412D01*
X120367748Y-32931210D01*
X120370194Y-32897019D01*
X120370616Y-32896360D01*
X120370665Y-32895777D01*
X120372704Y-32893111D01*
X120398691Y-32852676D01*
X120492712Y-32758656D01*
X120584814Y-32609334D01*
X120639999Y-32442797D01*
X120650500Y-32340009D01*
X120650499Y-31539992D01*
X120639999Y-31437203D01*
X120584814Y-31270666D01*
X120492712Y-31121344D01*
X120368656Y-30997288D01*
X120275888Y-30940069D01*
X120219336Y-30905187D01*
X120219331Y-30905185D01*
X120211497Y-30902589D01*
X120135495Y-30877404D01*
X120078051Y-30837632D01*
X120051228Y-30773116D01*
X120050500Y-30759699D01*
X120050500Y-29865349D01*
X120058435Y-29838323D01*
X120063258Y-29810565D01*
X120068149Y-29805242D01*
X120070185Y-29798310D01*
X120091470Y-29779866D01*
X120110536Y-29759120D01*
X120118712Y-29756260D01*
X120122989Y-29752555D01*
X120143055Y-29745402D01*
X120204331Y-29729338D01*
X120231130Y-29730121D01*
X120257788Y-29727254D01*
X120270348Y-29730203D01*
X120347431Y-29752598D01*
X120384306Y-29755500D01*
X120384314Y-29755500D01*
X120815686Y-29755500D01*
X120815694Y-29755500D01*
X120852569Y-29752598D01*
X120966303Y-29719555D01*
X121035491Y-29719555D01*
X121147508Y-29752100D01*
X121149998Y-29752295D01*
X121150000Y-29752295D01*
X121150000Y-29676308D01*
X121169685Y-29609269D01*
X121186314Y-29588631D01*
X121268081Y-29506865D01*
X121351744Y-29365398D01*
X121397598Y-29207569D01*
X121400500Y-29170694D01*
X121400500Y-28804000D01*
X121403050Y-28795314D01*
X121401762Y-28786353D01*
X121412740Y-28762312D01*
X121420185Y-28736961D01*
X121427025Y-28731033D01*
X121430787Y-28722797D01*
X121453021Y-28708507D01*
X121472989Y-28691206D01*
X121483503Y-28688918D01*
X121489565Y-28685023D01*
X121524500Y-28680000D01*
X121526000Y-28680000D01*
X121593039Y-28699685D01*
X121638794Y-28752489D01*
X121650000Y-28804000D01*
X121650000Y-29752295D01*
X121650001Y-29752295D01*
X121652486Y-29752100D01*
X121810198Y-29706281D01*
X121951550Y-29622686D01*
X121951553Y-29622683D01*
X121978348Y-29595889D01*
X122039671Y-29562403D01*
X122109363Y-29567387D01*
X122113483Y-29569008D01*
X122228308Y-29616569D01*
X122270000Y-29624862D01*
X122270000Y-28821988D01*
X122279940Y-28839205D01*
X122335795Y-28895060D01*
X122404204Y-28934556D01*
X122480504Y-28955000D01*
X122559496Y-28955000D01*
X122635796Y-28934556D01*
X122704205Y-28895060D01*
X122760060Y-28839205D01*
X122770000Y-28821988D01*
X122770000Y-29624862D01*
X122811690Y-29616569D01*
X122811692Y-29616569D01*
X122993671Y-29541192D01*
X122993684Y-29541185D01*
X123157462Y-29431751D01*
X123157466Y-29431748D01*
X123296748Y-29292466D01*
X123296751Y-29292462D01*
X123406185Y-29128684D01*
X123406192Y-29128671D01*
X123481569Y-28946693D01*
X123481572Y-28946681D01*
X123519999Y-28753495D01*
X123520000Y-28753492D01*
X123520000Y-28355000D01*
X122820000Y-28355000D01*
X122820000Y-27855000D01*
X123520000Y-27855000D01*
X123520000Y-27456508D01*
X123519999Y-27456504D01*
X123481572Y-27263318D01*
X123481569Y-27263306D01*
X123406192Y-27081328D01*
X123406185Y-27081315D01*
X123296751Y-26917537D01*
X123296748Y-26917533D01*
X123157466Y-26778251D01*
X123157462Y-26778248D01*
X122993684Y-26668814D01*
X122993671Y-26668807D01*
X122811691Y-26593429D01*
X122811683Y-26593427D01*
X122770000Y-26585135D01*
X122770000Y-27388011D01*
X122760060Y-27370795D01*
X122704205Y-27314940D01*
X122635796Y-27275444D01*
X122559496Y-27255000D01*
X122480504Y-27255000D01*
X122404204Y-27275444D01*
X122335795Y-27314940D01*
X122279940Y-27370795D01*
X122270000Y-27388011D01*
X122270000Y-26585136D01*
X122269999Y-26585135D01*
X122228316Y-26593427D01*
X122228308Y-26593429D01*
X122046328Y-26668807D01*
X122046315Y-26668814D01*
X121882537Y-26778248D01*
X121882533Y-26778251D01*
X121743251Y-26917533D01*
X121743248Y-26917537D01*
X121633814Y-27081315D01*
X121633809Y-27081324D01*
X121629866Y-27090845D01*
X121586023Y-27145247D01*
X121519728Y-27167310D01*
X121452030Y-27150029D01*
X121446597Y-27146351D01*
X121312136Y-27068719D01*
X121212163Y-27041932D01*
X121165766Y-27029500D01*
X121014234Y-27029500D01*
X120867863Y-27068719D01*
X120736635Y-27144485D01*
X120736632Y-27144487D01*
X120629487Y-27251632D01*
X120629485Y-27251635D01*
X120553719Y-27382863D01*
X120518959Y-27512593D01*
X120482594Y-27572254D01*
X120421729Y-27602433D01*
X120410550Y-27604500D01*
X120384306Y-27604500D01*
X120347431Y-27607402D01*
X120264420Y-27631519D01*
X120258320Y-27632647D01*
X120229485Y-27629673D01*
X120200501Y-27629591D01*
X120188933Y-27625491D01*
X120188819Y-27625480D01*
X120188754Y-27625428D01*
X120188322Y-27625275D01*
X120175104Y-27619800D01*
X120100000Y-27609911D01*
X120100000Y-27635941D01*
X120099019Y-27639281D01*
X120099817Y-27642669D01*
X120089247Y-27672560D01*
X120080315Y-27702980D01*
X120077342Y-27706228D01*
X120076524Y-27708542D01*
X120051998Y-27733922D01*
X120046538Y-27738157D01*
X119981501Y-27763691D01*
X119912984Y-27750009D01*
X119895060Y-27738555D01*
X119848511Y-27702837D01*
X119807310Y-27646408D01*
X119801120Y-27610894D01*
X119799999Y-27609911D01*
X119717270Y-27620804D01*
X119683527Y-27618593D01*
X119683293Y-27620374D01*
X119675236Y-27619313D01*
X119655451Y-27616708D01*
X119562727Y-27604500D01*
X119562720Y-27604500D01*
X119337280Y-27604500D01*
X119337272Y-27604500D01*
X119250393Y-27615938D01*
X119224764Y-27619313D01*
X119224762Y-27619313D01*
X119216708Y-27620374D01*
X119216316Y-27617399D01*
X119183684Y-27617399D01*
X119183292Y-27620374D01*
X119175237Y-27619313D01*
X119175236Y-27619313D01*
X119146271Y-27615499D01*
X119062727Y-27604500D01*
X119062720Y-27604500D01*
X118883921Y-27604500D01*
X118854480Y-27595855D01*
X118824494Y-27589332D01*
X118819478Y-27585577D01*
X118816882Y-27584815D01*
X118796240Y-27568181D01*
X118670414Y-27442355D01*
X118670412Y-27442352D01*
X118551541Y-27323481D01*
X118551540Y-27323480D01*
X118458251Y-27269620D01*
X118458249Y-27269618D01*
X118414612Y-27244424D01*
X118414611Y-27244423D01*
X118353517Y-27228053D01*
X118261881Y-27203499D01*
X118103767Y-27203499D01*
X118096171Y-27203499D01*
X118096155Y-27203500D01*
X117803845Y-27203500D01*
X117803829Y-27203499D01*
X117796233Y-27203499D01*
X117638119Y-27203499D01*
X117561755Y-27223961D01*
X117485388Y-27244423D01*
X117485387Y-27244424D01*
X117441748Y-27269620D01*
X117348463Y-27323477D01*
X117348458Y-27323481D01*
X117011681Y-27660259D01*
X116950358Y-27693744D01*
X116884594Y-27690150D01*
X116683686Y-27622813D01*
X116675236Y-27619313D01*
X116660698Y-27617399D01*
X116562727Y-27604500D01*
X116562720Y-27604500D01*
X116337280Y-27604500D01*
X116337272Y-27604500D01*
X116224766Y-27619312D01*
X116222026Y-27620446D01*
X116210905Y-27625053D01*
X116192949Y-27626983D01*
X116176236Y-27633831D01*
X116150662Y-27631529D01*
X116141438Y-27632521D01*
X116140969Y-27632435D01*
X116134847Y-27631306D01*
X116052569Y-27607402D01*
X116015694Y-27604500D01*
X115989479Y-27604500D01*
X115978329Y-27602444D01*
X115956856Y-27591591D01*
X115933777Y-27584815D01*
X115926243Y-27576120D01*
X115915971Y-27570929D01*
X115903773Y-27550189D01*
X115888022Y-27532011D01*
X115881041Y-27512593D01*
X115846280Y-27382863D01*
X115810897Y-27321579D01*
X115770515Y-27251635D01*
X115663365Y-27144485D01*
X115593406Y-27104094D01*
X115532136Y-27068719D01*
X115432163Y-27041932D01*
X115385766Y-27029500D01*
X115234234Y-27029500D01*
X115087863Y-27068719D01*
X114996428Y-27121510D01*
X114956635Y-27144485D01*
X114956633Y-27144486D01*
X114949597Y-27148549D01*
X114948327Y-27146349D01*
X114894995Y-27166960D01*
X114826552Y-27152914D01*
X114776568Y-27104094D01*
X114770131Y-27090838D01*
X114766192Y-27081328D01*
X114766185Y-27081315D01*
X114656751Y-26917537D01*
X114656748Y-26917533D01*
X114517466Y-26778251D01*
X114517462Y-26778248D01*
X114353684Y-26668814D01*
X114353671Y-26668807D01*
X114171691Y-26593429D01*
X114171683Y-26593427D01*
X114130000Y-26585135D01*
X114130000Y-27388011D01*
X114120060Y-27370795D01*
X114064205Y-27314940D01*
X113995796Y-27275444D01*
X113919496Y-27255000D01*
X113840504Y-27255000D01*
X113764204Y-27275444D01*
X113695795Y-27314940D01*
X113639940Y-27370795D01*
X113630000Y-27388011D01*
X113630000Y-26585136D01*
X113629999Y-26585135D01*
X113588316Y-26593427D01*
X113588308Y-26593429D01*
X113406328Y-26668807D01*
X113406315Y-26668814D01*
X113242537Y-26778248D01*
X113242533Y-26778251D01*
X113103251Y-26917533D01*
X113103248Y-26917537D01*
X113011792Y-27054410D01*
X112958179Y-27099215D01*
X112888854Y-27107922D01*
X112825827Y-27077767D01*
X112794129Y-27032972D01*
X112750499Y-26927640D01*
X112750494Y-26927631D01*
X112635589Y-26755664D01*
X112635586Y-26755660D01*
X112489339Y-26609413D01*
X112489335Y-26609410D01*
X112317368Y-26494505D01*
X112317358Y-26494500D01*
X112126272Y-26415349D01*
X112126267Y-26415347D01*
X112070000Y-26404155D01*
X112070000Y-27258011D01*
X112060060Y-27240795D01*
X112004205Y-27184940D01*
X111935796Y-27145444D01*
X111859496Y-27125000D01*
X111780504Y-27125000D01*
X111704204Y-27145444D01*
X111635795Y-27184940D01*
X111579940Y-27240795D01*
X111570000Y-27258011D01*
X111570000Y-26404156D01*
X111569999Y-26404155D01*
X111513732Y-26415347D01*
X111513727Y-26415349D01*
X111322641Y-26494500D01*
X111322631Y-26494505D01*
X111150664Y-26609410D01*
X111150660Y-26609413D01*
X111004413Y-26755660D01*
X111004409Y-26755665D01*
X110990991Y-26775746D01*
X110937377Y-26820550D01*
X110868052Y-26829255D01*
X110823741Y-26812969D01*
X110739395Y-26761980D01*
X110739396Y-26761980D01*
X110577105Y-26711409D01*
X110577106Y-26711409D01*
X110506572Y-26705000D01*
X110500000Y-26705000D01*
X109956766Y-26705000D01*
X109929644Y-26690540D01*
X109927990Y-26688919D01*
X109925740Y-26688368D01*
X109903162Y-26664582D01*
X109879748Y-26641631D01*
X109879232Y-26639372D01*
X109877638Y-26637692D01*
X109873425Y-26628584D01*
X109862322Y-26601779D01*
X109862320Y-26601776D01*
X109862318Y-26601772D01*
X109758303Y-26446103D01*
X109716355Y-26404155D01*
X109625908Y-26313708D01*
X109408300Y-26096100D01*
X109127901Y-25815700D01*
X109127897Y-25815697D01*
X108972226Y-25711680D01*
X108972217Y-25711675D01*
X108870893Y-25669706D01*
X108799239Y-25640026D01*
X108758813Y-25631985D01*
X108705033Y-25621288D01*
X108675224Y-25615358D01*
X108615609Y-25603500D01*
X108615607Y-25603500D01*
X108615606Y-25603500D01*
X106571626Y-25603500D01*
X106384393Y-25603500D01*
X106384388Y-25603500D01*
X106200766Y-25640025D01*
X106200758Y-25640027D01*
X106027781Y-25711676D01*
X106027772Y-25711681D01*
X105872101Y-25815698D01*
X105872097Y-25815701D01*
X105241700Y-26446098D01*
X105241697Y-26446102D01*
X105137678Y-26601776D01*
X105137677Y-26601778D01*
X105126578Y-26628574D01*
X105082736Y-26682976D01*
X105016442Y-26705040D01*
X105007912Y-26705000D01*
X105000000Y-26705000D01*
X105000000Y-28910668D01*
X105026666Y-28959503D01*
X105029500Y-28985861D01*
X105029500Y-29904217D01*
X105009815Y-29971256D01*
X104993181Y-29991898D01*
X103451647Y-31533431D01*
X103390324Y-31566916D01*
X103383365Y-31568223D01*
X103307172Y-31580291D01*
X103119969Y-31641117D01*
X102944594Y-31730476D01*
X102853741Y-31796485D01*
X102785354Y-31846172D01*
X102785352Y-31846174D01*
X102785351Y-31846174D01*
X101332307Y-33299217D01*
X101270984Y-33332702D01*
X101264029Y-33334009D01*
X101248624Y-33336449D01*
X101024010Y-33409430D01*
X101024007Y-33409432D01*
X100813565Y-33516657D01*
X100622488Y-33655484D01*
X100622487Y-33655485D01*
X93214792Y-41063181D01*
X93153469Y-41096666D01*
X93127111Y-41099500D01*
X89881903Y-41099500D01*
X89648631Y-41136446D01*
X89424003Y-41209433D01*
X89213565Y-41316657D01*
X89022488Y-41455484D01*
X82655484Y-47822488D01*
X82516657Y-48013565D01*
X82409433Y-48224003D01*
X82336446Y-48448631D01*
X82299500Y-48681902D01*
X80000500Y-48681902D01*
X80000500Y-33053681D01*
X87949500Y-33053681D01*
X87949500Y-33396318D01*
X87987858Y-33736768D01*
X87987861Y-33736782D01*
X88064102Y-34070816D01*
X88064103Y-34070818D01*
X88177264Y-34394216D01*
X88325922Y-34702907D01*
X88325924Y-34702910D01*
X88508211Y-34993018D01*
X88721834Y-35260893D01*
X88964107Y-35503166D01*
X89231982Y-35716789D01*
X89522090Y-35899076D01*
X89830785Y-36047736D01*
X90154183Y-36160897D01*
X90488217Y-36237139D01*
X90488226Y-36237140D01*
X90488231Y-36237141D01*
X90715197Y-36262713D01*
X90828682Y-36275499D01*
X90828685Y-36275500D01*
X90828688Y-36275500D01*
X91171315Y-36275500D01*
X91171316Y-36275499D01*
X91345311Y-36255895D01*
X91511768Y-36237141D01*
X91511771Y-36237140D01*
X91511783Y-36237139D01*
X91845817Y-36160897D01*
X92169215Y-36047736D01*
X92477910Y-35899076D01*
X92768018Y-35716789D01*
X93035893Y-35503166D01*
X93278166Y-35260893D01*
X93491789Y-34993018D01*
X93674076Y-34702910D01*
X93822736Y-34394215D01*
X93935897Y-34070817D01*
X94012139Y-33736783D01*
X94014066Y-33719685D01*
X94044755Y-33447302D01*
X94050500Y-33396312D01*
X94050500Y-33053688D01*
X94027851Y-32852671D01*
X94012141Y-32713231D01*
X94012140Y-32713226D01*
X94012139Y-32713217D01*
X93935897Y-32379183D01*
X93822736Y-32055785D01*
X93674076Y-31747090D01*
X93491789Y-31456982D01*
X93278166Y-31189107D01*
X93035893Y-30946834D01*
X92983423Y-30904991D01*
X92860219Y-30806739D01*
X92768018Y-30733211D01*
X92477910Y-30550924D01*
X92477907Y-30550922D01*
X92169216Y-30402264D01*
X91845818Y-30289103D01*
X91845816Y-30289102D01*
X91582448Y-30228990D01*
X91511783Y-30212861D01*
X91511780Y-30212860D01*
X91511768Y-30212858D01*
X91171318Y-30174500D01*
X91171312Y-30174500D01*
X90828688Y-30174500D01*
X90828681Y-30174500D01*
X90488231Y-30212858D01*
X90488217Y-30212861D01*
X90154183Y-30289102D01*
X90154181Y-30289103D01*
X89830783Y-30402264D01*
X89522092Y-30550922D01*
X89231983Y-30733210D01*
X88964107Y-30946833D01*
X88721833Y-31189107D01*
X88508210Y-31456983D01*
X88325922Y-31747092D01*
X88177264Y-32055783D01*
X88064103Y-32379181D01*
X88064102Y-32379183D01*
X87987861Y-32713217D01*
X87987858Y-32713231D01*
X87949500Y-33053681D01*
X80000500Y-33053681D01*
X80000500Y-25378711D01*
X81649500Y-25378711D01*
X81649500Y-25621288D01*
X81681161Y-25861785D01*
X81743947Y-26096104D01*
X81834082Y-26313708D01*
X81836776Y-26320212D01*
X81958064Y-26530289D01*
X81958066Y-26530292D01*
X81958067Y-26530293D01*
X82105733Y-26722736D01*
X82105739Y-26722743D01*
X82277256Y-26894260D01*
X82277263Y-26894266D01*
X82360837Y-26958394D01*
X82469711Y-27041936D01*
X82679788Y-27163224D01*
X82867061Y-27240795D01*
X82893231Y-27251635D01*
X82903900Y-27256054D01*
X83138211Y-27318838D01*
X83318586Y-27342584D01*
X83378711Y-27350500D01*
X83378712Y-27350500D01*
X83621289Y-27350500D01*
X83669388Y-27344167D01*
X83840968Y-27321579D01*
X102130000Y-27321579D01*
X102130000Y-27475000D01*
X102880000Y-27475000D01*
X102880000Y-27975000D01*
X102130000Y-27975000D01*
X102130000Y-28128420D01*
X102170348Y-28331266D01*
X102170350Y-28331274D01*
X102249500Y-28522358D01*
X102249505Y-28522368D01*
X102364410Y-28694335D01*
X102364413Y-28694339D01*
X102510660Y-28840586D01*
X102510664Y-28840589D01*
X102682631Y-28955494D01*
X102682641Y-28955499D01*
X102873723Y-29034648D01*
X102873725Y-29034649D01*
X102930000Y-29045842D01*
X102930000Y-28191988D01*
X102939940Y-28209205D01*
X102995795Y-28265060D01*
X103064204Y-28304556D01*
X103140504Y-28325000D01*
X103219496Y-28325000D01*
X103295796Y-28304556D01*
X103364205Y-28265060D01*
X103420060Y-28209205D01*
X103430000Y-28191988D01*
X103430000Y-29045842D01*
X103486274Y-29034649D01*
X103486276Y-29034648D01*
X103677358Y-28955499D01*
X103677368Y-28955494D01*
X103849335Y-28840589D01*
X103849339Y-28840586D01*
X103934805Y-28755119D01*
X103996128Y-28721633D01*
X104065819Y-28726617D01*
X104110168Y-28755118D01*
X104115122Y-28760072D01*
X104260604Y-28848019D01*
X104260603Y-28848019D01*
X104422894Y-28898590D01*
X104422893Y-28898590D01*
X104493408Y-28904998D01*
X104493426Y-28904999D01*
X104499999Y-28904998D01*
X104500000Y-28904998D01*
X104500000Y-28055000D01*
X103844000Y-28055000D01*
X103776961Y-28035315D01*
X103755190Y-28010190D01*
X103720000Y-27975000D01*
X103480000Y-27975000D01*
X103480000Y-27475000D01*
X104236000Y-27475000D01*
X104303039Y-27494685D01*
X104324809Y-27519809D01*
X104360000Y-27555000D01*
X104500000Y-27555000D01*
X104500000Y-26705000D01*
X104499999Y-26704999D01*
X104493436Y-26705000D01*
X104493417Y-26705001D01*
X104422897Y-26711408D01*
X104422892Y-26711409D01*
X104260601Y-26761981D01*
X104260599Y-26761982D01*
X104176256Y-26812969D01*
X104108701Y-26830805D01*
X104042228Y-26809287D01*
X104009003Y-26775741D01*
X103995585Y-26755659D01*
X103849339Y-26609413D01*
X103849335Y-26609410D01*
X103677368Y-26494505D01*
X103677358Y-26494500D01*
X103486272Y-26415349D01*
X103486267Y-26415347D01*
X103430000Y-26404155D01*
X103430000Y-27258011D01*
X103420060Y-27240795D01*
X103364205Y-27184940D01*
X103295796Y-27145444D01*
X103219496Y-27125000D01*
X103140504Y-27125000D01*
X103064204Y-27145444D01*
X102995795Y-27184940D01*
X102939940Y-27240795D01*
X102930000Y-27258011D01*
X102930000Y-26404156D01*
X102929999Y-26404155D01*
X102873732Y-26415347D01*
X102873727Y-26415349D01*
X102682641Y-26494500D01*
X102682631Y-26494505D01*
X102510664Y-26609410D01*
X102510660Y-26609413D01*
X102364413Y-26755660D01*
X102364410Y-26755664D01*
X102249505Y-26927631D01*
X102249500Y-26927641D01*
X102170350Y-27118725D01*
X102170348Y-27118733D01*
X102130000Y-27321579D01*
X83840968Y-27321579D01*
X83861789Y-27318838D01*
X84096100Y-27256054D01*
X84157192Y-27230748D01*
X84229180Y-27200931D01*
X84257409Y-27189237D01*
X84320212Y-27163224D01*
X84530289Y-27041936D01*
X84722738Y-26894265D01*
X84894265Y-26722738D01*
X85041936Y-26530289D01*
X85163224Y-26320212D01*
X85256054Y-26096100D01*
X85318838Y-25861789D01*
X85350500Y-25621288D01*
X85350500Y-25378712D01*
X85350500Y-25378711D01*
X130649500Y-25378711D01*
X130649500Y-25621288D01*
X130681161Y-25861785D01*
X130743947Y-26096104D01*
X130834082Y-26313708D01*
X130836776Y-26320212D01*
X130958064Y-26530289D01*
X130958066Y-26530292D01*
X130958067Y-26530293D01*
X131105733Y-26722736D01*
X131105739Y-26722743D01*
X131277256Y-26894260D01*
X131277263Y-26894266D01*
X131360837Y-26958394D01*
X131469711Y-27041936D01*
X131679788Y-27163224D01*
X131867061Y-27240795D01*
X131893231Y-27251635D01*
X131903900Y-27256054D01*
X132138211Y-27318838D01*
X132318586Y-27342584D01*
X132378711Y-27350500D01*
X132378712Y-27350500D01*
X132621289Y-27350500D01*
X132669388Y-27344167D01*
X132861789Y-27318838D01*
X133096100Y-27256054D01*
X133320212Y-27163224D01*
X133530289Y-27041936D01*
X133722738Y-26894265D01*
X133894265Y-26722738D01*
X134041936Y-26530289D01*
X134163224Y-26320212D01*
X134256054Y-26096100D01*
X134318838Y-25861789D01*
X134350500Y-25621288D01*
X134350500Y-25378712D01*
X134318838Y-25138211D01*
X134256054Y-24903900D01*
X134163224Y-24679788D01*
X134041936Y-24469711D01*
X133894265Y-24277262D01*
X133894260Y-24277256D01*
X133722743Y-24105739D01*
X133722736Y-24105733D01*
X133530293Y-23958067D01*
X133530292Y-23958066D01*
X133530289Y-23958064D01*
X133320212Y-23836776D01*
X133320205Y-23836773D01*
X133096104Y-23743947D01*
X132861785Y-23681161D01*
X132621289Y-23649500D01*
X132621288Y-23649500D01*
X132378712Y-23649500D01*
X132378711Y-23649500D01*
X132138214Y-23681161D01*
X131903895Y-23743947D01*
X131679794Y-23836773D01*
X131679785Y-23836777D01*
X131469706Y-23958067D01*
X131277263Y-24105733D01*
X131277256Y-24105739D01*
X131105739Y-24277256D01*
X131105733Y-24277263D01*
X130958067Y-24469706D01*
X130836777Y-24679785D01*
X130836773Y-24679794D01*
X130743947Y-24903895D01*
X130681161Y-25138214D01*
X130649500Y-25378711D01*
X85350500Y-25378711D01*
X85318838Y-25138211D01*
X85256054Y-24903900D01*
X85163224Y-24679788D01*
X85041936Y-24469711D01*
X84894265Y-24277262D01*
X84894260Y-24277256D01*
X84722743Y-24105739D01*
X84722736Y-24105733D01*
X84530293Y-23958067D01*
X84530292Y-23958066D01*
X84530289Y-23958064D01*
X84320212Y-23836776D01*
X84320205Y-23836773D01*
X84096104Y-23743947D01*
X83861785Y-23681161D01*
X83621289Y-23649500D01*
X83621288Y-23649500D01*
X83378712Y-23649500D01*
X83378711Y-23649500D01*
X83138214Y-23681161D01*
X82903895Y-23743947D01*
X82679794Y-23836773D01*
X82679785Y-23836777D01*
X82469706Y-23958067D01*
X82277263Y-24105733D01*
X82277256Y-24105739D01*
X82105739Y-24277256D01*
X82105733Y-24277263D01*
X81958067Y-24469706D01*
X81836777Y-24679785D01*
X81836773Y-24679794D01*
X81743947Y-24903895D01*
X81681161Y-25138214D01*
X81649500Y-25378711D01*
X80000500Y-25378711D01*
X80000500Y-23521579D01*
X102130000Y-23521579D01*
X102130000Y-23675000D01*
X102880000Y-23675000D01*
X102880000Y-24175000D01*
X102130000Y-24175000D01*
X102130000Y-24328420D01*
X102170348Y-24531266D01*
X102170350Y-24531274D01*
X102249500Y-24722358D01*
X102249505Y-24722368D01*
X102364410Y-24894335D01*
X102364413Y-24894339D01*
X102510660Y-25040586D01*
X102510664Y-25040589D01*
X102682631Y-25155494D01*
X102682641Y-25155499D01*
X102873723Y-25234648D01*
X102873725Y-25234649D01*
X102930000Y-25245842D01*
X102930000Y-24391988D01*
X102939940Y-24409205D01*
X102995795Y-24465060D01*
X103064204Y-24504556D01*
X103140504Y-24525000D01*
X103219496Y-24525000D01*
X103295796Y-24504556D01*
X103364205Y-24465060D01*
X103420060Y-24409205D01*
X103430000Y-24391988D01*
X103430000Y-25245842D01*
X103486274Y-25234649D01*
X103486276Y-25234648D01*
X103677358Y-25155499D01*
X103677368Y-25155494D01*
X103849335Y-25040589D01*
X103849339Y-25040586D01*
X103995586Y-24894339D01*
X103995589Y-24894335D01*
X104110494Y-24722368D01*
X104110499Y-24722358D01*
X104189649Y-24531274D01*
X104189651Y-24531266D01*
X104229999Y-24328420D01*
X104230000Y-24328417D01*
X104230000Y-24175000D01*
X103480000Y-24175000D01*
X103480000Y-23675000D01*
X104230000Y-23675000D01*
X104230000Y-23521583D01*
X104229999Y-23521579D01*
X110770000Y-23521579D01*
X110770000Y-23675000D01*
X111520000Y-23675000D01*
X111520000Y-24175000D01*
X110770000Y-24175000D01*
X110770000Y-24328420D01*
X110810348Y-24531266D01*
X110810350Y-24531274D01*
X110889500Y-24722358D01*
X110889505Y-24722368D01*
X111004410Y-24894335D01*
X111004413Y-24894339D01*
X111150660Y-25040586D01*
X111150664Y-25040589D01*
X111322631Y-25155494D01*
X111322641Y-25155499D01*
X111513723Y-25234648D01*
X111513725Y-25234649D01*
X111570000Y-25245842D01*
X111570000Y-24391988D01*
X111579940Y-24409205D01*
X111635795Y-24465060D01*
X111704204Y-24504556D01*
X111780504Y-24525000D01*
X111859496Y-24525000D01*
X111935796Y-24504556D01*
X112004205Y-24465060D01*
X112060060Y-24409205D01*
X112070000Y-24391988D01*
X112070000Y-25245842D01*
X112126274Y-25234649D01*
X112126276Y-25234648D01*
X112317358Y-25155499D01*
X112317368Y-25155494D01*
X112489335Y-25040589D01*
X112489339Y-25040586D01*
X112635586Y-24894339D01*
X112635592Y-24894331D01*
X112752300Y-24719666D01*
X112805912Y-24674860D01*
X112875237Y-24666153D01*
X112938264Y-24696307D01*
X112969963Y-24741104D01*
X112993807Y-24798671D01*
X112993814Y-24798684D01*
X113103248Y-24962462D01*
X113103251Y-24962466D01*
X113242533Y-25101748D01*
X113242537Y-25101751D01*
X113406315Y-25211185D01*
X113406328Y-25211192D01*
X113588308Y-25286569D01*
X113630000Y-25294862D01*
X113630000Y-24491988D01*
X113639940Y-24509205D01*
X113695795Y-24565060D01*
X113764204Y-24604556D01*
X113840504Y-24625000D01*
X113919496Y-24625000D01*
X113995796Y-24604556D01*
X114064205Y-24565060D01*
X114120060Y-24509205D01*
X114130000Y-24491988D01*
X114130000Y-25294862D01*
X114171690Y-25286569D01*
X114171692Y-25286569D01*
X114353671Y-25211192D01*
X114353684Y-25211185D01*
X114517462Y-25101751D01*
X114517466Y-25101748D01*
X114656748Y-24962466D01*
X114656751Y-24962462D01*
X114766185Y-24798684D01*
X114766192Y-24798671D01*
X114841569Y-24616693D01*
X114841572Y-24616681D01*
X114879999Y-24423495D01*
X114880000Y-24423492D01*
X114880000Y-24175000D01*
X114180000Y-24175000D01*
X114180000Y-23675000D01*
X114880000Y-23675000D01*
X114880000Y-23426508D01*
X114879999Y-23426504D01*
X121520000Y-23426504D01*
X121520000Y-23675000D01*
X122220000Y-23675000D01*
X122220000Y-24175000D01*
X121520000Y-24175000D01*
X121520000Y-24423495D01*
X121558427Y-24616681D01*
X121558430Y-24616693D01*
X121633807Y-24798671D01*
X121633814Y-24798684D01*
X121743248Y-24962462D01*
X121743251Y-24962466D01*
X121882533Y-25101748D01*
X121882537Y-25101751D01*
X122046315Y-25211185D01*
X122046328Y-25211192D01*
X122228308Y-25286569D01*
X122270000Y-25294862D01*
X122270000Y-24491988D01*
X122279940Y-24509205D01*
X122335795Y-24565060D01*
X122404204Y-24604556D01*
X122480504Y-24625000D01*
X122559496Y-24625000D01*
X122635796Y-24604556D01*
X122704205Y-24565060D01*
X122760060Y-24509205D01*
X122770000Y-24491988D01*
X122770000Y-25294862D01*
X122811690Y-25286569D01*
X122811692Y-25286569D01*
X122875615Y-25260092D01*
X122993671Y-25211192D01*
X122993684Y-25211185D01*
X123157462Y-25101751D01*
X123157466Y-25101748D01*
X123296748Y-24962466D01*
X123296751Y-24962462D01*
X123406185Y-24798684D01*
X123406192Y-24798671D01*
X123481569Y-24616693D01*
X123481572Y-24616681D01*
X123519999Y-24423495D01*
X123520000Y-24423492D01*
X123520000Y-24175000D01*
X122820000Y-24175000D01*
X122820000Y-23675000D01*
X123520000Y-23675000D01*
X123520000Y-23426508D01*
X123519999Y-23426504D01*
X123481572Y-23233318D01*
X123481569Y-23233306D01*
X123406192Y-23051328D01*
X123406185Y-23051315D01*
X123296751Y-22887537D01*
X123296748Y-22887533D01*
X123157466Y-22748251D01*
X123157462Y-22748248D01*
X122993684Y-22638814D01*
X122993671Y-22638807D01*
X122811691Y-22563429D01*
X122811683Y-22563427D01*
X122770000Y-22555135D01*
X122770000Y-23358011D01*
X122760060Y-23340795D01*
X122704205Y-23284940D01*
X122635796Y-23245444D01*
X122559496Y-23225000D01*
X122480504Y-23225000D01*
X122404204Y-23245444D01*
X122335795Y-23284940D01*
X122279940Y-23340795D01*
X122270000Y-23358011D01*
X122270000Y-22555136D01*
X122269999Y-22555135D01*
X122228316Y-22563427D01*
X122228308Y-22563429D01*
X122046328Y-22638807D01*
X122046315Y-22638814D01*
X121882537Y-22748248D01*
X121882533Y-22748251D01*
X121743251Y-22887533D01*
X121743248Y-22887537D01*
X121633814Y-23051315D01*
X121633807Y-23051328D01*
X121558430Y-23233306D01*
X121558427Y-23233318D01*
X121520000Y-23426504D01*
X114879999Y-23426504D01*
X114841572Y-23233318D01*
X114841569Y-23233306D01*
X114766192Y-23051328D01*
X114766185Y-23051315D01*
X114656751Y-22887537D01*
X114656748Y-22887533D01*
X114517466Y-22748251D01*
X114517462Y-22748248D01*
X114353684Y-22638814D01*
X114353671Y-22638807D01*
X114171691Y-22563429D01*
X114171683Y-22563427D01*
X114130000Y-22555135D01*
X114130000Y-23358011D01*
X114120060Y-23340795D01*
X114064205Y-23284940D01*
X113995796Y-23245444D01*
X113919496Y-23225000D01*
X113840504Y-23225000D01*
X113764204Y-23245444D01*
X113695795Y-23284940D01*
X113639940Y-23340795D01*
X113630000Y-23358011D01*
X113630000Y-22555136D01*
X113629999Y-22555135D01*
X113588316Y-22563427D01*
X113588308Y-22563429D01*
X113406328Y-22638807D01*
X113406315Y-22638814D01*
X113242537Y-22748248D01*
X113242533Y-22748251D01*
X113103251Y-22887533D01*
X113103248Y-22887537D01*
X112993814Y-23051315D01*
X112993809Y-23051324D01*
X112969963Y-23108896D01*
X112926122Y-23163299D01*
X112859828Y-23185364D01*
X112792129Y-23168085D01*
X112752300Y-23130334D01*
X112635589Y-22955664D01*
X112635586Y-22955660D01*
X112489339Y-22809413D01*
X112489335Y-22809410D01*
X112317368Y-22694505D01*
X112317358Y-22694500D01*
X112126272Y-22615349D01*
X112126267Y-22615347D01*
X112070000Y-22604155D01*
X112070000Y-23458011D01*
X112060060Y-23440795D01*
X112004205Y-23384940D01*
X111935796Y-23345444D01*
X111859496Y-23325000D01*
X111780504Y-23325000D01*
X111704204Y-23345444D01*
X111635795Y-23384940D01*
X111579940Y-23440795D01*
X111570000Y-23458011D01*
X111570000Y-22604156D01*
X111569999Y-22604155D01*
X111513732Y-22615347D01*
X111513727Y-22615349D01*
X111322641Y-22694500D01*
X111322631Y-22694505D01*
X111150664Y-22809410D01*
X111150660Y-22809413D01*
X111004413Y-22955660D01*
X111004410Y-22955664D01*
X110889505Y-23127631D01*
X110889500Y-23127641D01*
X110810350Y-23318725D01*
X110810348Y-23318733D01*
X110770000Y-23521579D01*
X104229999Y-23521579D01*
X104189651Y-23318733D01*
X104189649Y-23318725D01*
X104110499Y-23127641D01*
X104110494Y-23127631D01*
X103995589Y-22955664D01*
X103995586Y-22955660D01*
X103849339Y-22809413D01*
X103849335Y-22809410D01*
X103677368Y-22694505D01*
X103677358Y-22694500D01*
X103486272Y-22615349D01*
X103486267Y-22615347D01*
X103430000Y-22604155D01*
X103430000Y-23458011D01*
X103420060Y-23440795D01*
X103364205Y-23384940D01*
X103295796Y-23345444D01*
X103219496Y-23325000D01*
X103140504Y-23325000D01*
X103064204Y-23345444D01*
X102995795Y-23384940D01*
X102939940Y-23440795D01*
X102930000Y-23458011D01*
X102930000Y-22604156D01*
X102929999Y-22604155D01*
X102873732Y-22615347D01*
X102873727Y-22615349D01*
X102682641Y-22694500D01*
X102682631Y-22694505D01*
X102510664Y-22809410D01*
X102510660Y-22809413D01*
X102364413Y-22955660D01*
X102364410Y-22955664D01*
X102249505Y-23127631D01*
X102249500Y-23127641D01*
X102170350Y-23318725D01*
X102170348Y-23318733D01*
X102130000Y-23521579D01*
X80000500Y-23521579D01*
X80000500Y-21944500D01*
X80020185Y-21877461D01*
X80072989Y-21831706D01*
X80124500Y-21820500D01*
X123544108Y-21820500D01*
X135875500Y-21820500D01*
X135942539Y-21840185D01*
G37*
%TD.AperFunction*%
%TD*%
M02*
