%TF.GenerationSoftware,KiCad,Pcbnew,9.0.6*%
%TF.CreationDate,2025-11-25T17:36:57-05:00*%
%TF.ProjectId,hardware,68617264-7761-4726-952e-6b696361645f,rev?*%
%TF.SameCoordinates,Original*%
%TF.FileFunction,Legend,Top*%
%TF.FilePolarity,Positive*%
%FSLAX46Y46*%
G04 Gerber Fmt 4.6, Leading zero omitted, Abs format (unit mm)*
G04 Created by KiCad (PCBNEW 9.0.6) date 2025-11-25 17:36:57*
%MOMM*%
%LPD*%
G01*
G04 APERTURE LIST*
%ADD10C,0.100000*%
%ADD11C,0.150000*%
%ADD12C,0.120000*%
G04 APERTURE END LIST*
D10*
X124756265Y-22824800D02*
X124899122Y-22872419D01*
X124899122Y-22872419D02*
X125137217Y-22872419D01*
X125137217Y-22872419D02*
X125232455Y-22824800D01*
X125232455Y-22824800D02*
X125280074Y-22777180D01*
X125280074Y-22777180D02*
X125327693Y-22681942D01*
X125327693Y-22681942D02*
X125327693Y-22586704D01*
X125327693Y-22586704D02*
X125280074Y-22491466D01*
X125280074Y-22491466D02*
X125232455Y-22443847D01*
X125232455Y-22443847D02*
X125137217Y-22396228D01*
X125137217Y-22396228D02*
X124946741Y-22348609D01*
X124946741Y-22348609D02*
X124851503Y-22300990D01*
X124851503Y-22300990D02*
X124803884Y-22253371D01*
X124803884Y-22253371D02*
X124756265Y-22158133D01*
X124756265Y-22158133D02*
X124756265Y-22062895D01*
X124756265Y-22062895D02*
X124803884Y-21967657D01*
X124803884Y-21967657D02*
X124851503Y-21920038D01*
X124851503Y-21920038D02*
X124946741Y-21872419D01*
X124946741Y-21872419D02*
X125184836Y-21872419D01*
X125184836Y-21872419D02*
X125327693Y-21920038D01*
X126232455Y-22872419D02*
X125756265Y-22872419D01*
X125756265Y-22872419D02*
X125756265Y-21872419D01*
X126518170Y-22586704D02*
X126994360Y-22586704D01*
X126422932Y-22872419D02*
X126756265Y-21872419D01*
X126756265Y-21872419D02*
X127089598Y-22872419D01*
X127280075Y-21872419D02*
X127613408Y-22872419D01*
X127613408Y-22872419D02*
X127946741Y-21872419D01*
X128280075Y-22348609D02*
X128613408Y-22348609D01*
X128756265Y-22872419D02*
X128280075Y-22872419D01*
X128280075Y-22872419D02*
X128280075Y-21872419D01*
X128280075Y-21872419D02*
X128756265Y-21872419D01*
X96303884Y-22872419D02*
X96303884Y-21872419D01*
X96303884Y-21872419D02*
X96684836Y-21872419D01*
X96684836Y-21872419D02*
X96780074Y-21920038D01*
X96780074Y-21920038D02*
X96827693Y-21967657D01*
X96827693Y-21967657D02*
X96875312Y-22062895D01*
X96875312Y-22062895D02*
X96875312Y-22205752D01*
X96875312Y-22205752D02*
X96827693Y-22300990D01*
X96827693Y-22300990D02*
X96780074Y-22348609D01*
X96780074Y-22348609D02*
X96684836Y-22396228D01*
X96684836Y-22396228D02*
X96303884Y-22396228D01*
X97494360Y-21872419D02*
X97684836Y-21872419D01*
X97684836Y-21872419D02*
X97780074Y-21920038D01*
X97780074Y-21920038D02*
X97875312Y-22015276D01*
X97875312Y-22015276D02*
X97922931Y-22205752D01*
X97922931Y-22205752D02*
X97922931Y-22539085D01*
X97922931Y-22539085D02*
X97875312Y-22729561D01*
X97875312Y-22729561D02*
X97780074Y-22824800D01*
X97780074Y-22824800D02*
X97684836Y-22872419D01*
X97684836Y-22872419D02*
X97494360Y-22872419D01*
X97494360Y-22872419D02*
X97399122Y-22824800D01*
X97399122Y-22824800D02*
X97303884Y-22729561D01*
X97303884Y-22729561D02*
X97256265Y-22539085D01*
X97256265Y-22539085D02*
X97256265Y-22205752D01*
X97256265Y-22205752D02*
X97303884Y-22015276D01*
X97303884Y-22015276D02*
X97399122Y-21920038D01*
X97399122Y-21920038D02*
X97494360Y-21872419D01*
X98256265Y-21872419D02*
X98494360Y-22872419D01*
X98494360Y-22872419D02*
X98684836Y-22158133D01*
X98684836Y-22158133D02*
X98875312Y-22872419D01*
X98875312Y-22872419D02*
X99113408Y-21872419D01*
X99494360Y-22348609D02*
X99827693Y-22348609D01*
X99970550Y-22872419D02*
X99494360Y-22872419D01*
X99494360Y-22872419D02*
X99494360Y-21872419D01*
X99494360Y-21872419D02*
X99970550Y-21872419D01*
X100970550Y-22872419D02*
X100637217Y-22396228D01*
X100399122Y-22872419D02*
X100399122Y-21872419D01*
X100399122Y-21872419D02*
X100780074Y-21872419D01*
X100780074Y-21872419D02*
X100875312Y-21920038D01*
X100875312Y-21920038D02*
X100922931Y-21967657D01*
X100922931Y-21967657D02*
X100970550Y-22062895D01*
X100970550Y-22062895D02*
X100970550Y-22205752D01*
X100970550Y-22205752D02*
X100922931Y-22300990D01*
X100922931Y-22300990D02*
X100875312Y-22348609D01*
X100875312Y-22348609D02*
X100780074Y-22396228D01*
X100780074Y-22396228D02*
X100399122Y-22396228D01*
D11*
X131738095Y-77304819D02*
X131738095Y-76304819D01*
X131738095Y-76781009D02*
X132309523Y-76781009D01*
X132309523Y-77304819D02*
X132309523Y-76304819D01*
X133214285Y-76638152D02*
X133214285Y-77304819D01*
X132976190Y-76257200D02*
X132738095Y-76971485D01*
X132738095Y-76971485D02*
X133357142Y-76971485D01*
X127238095Y-25954819D02*
X127238095Y-24954819D01*
X127238095Y-25431009D02*
X127809523Y-25431009D01*
X127809523Y-25954819D02*
X127809523Y-24954819D01*
X128190476Y-24954819D02*
X128809523Y-24954819D01*
X128809523Y-24954819D02*
X128476190Y-25335771D01*
X128476190Y-25335771D02*
X128619047Y-25335771D01*
X128619047Y-25335771D02*
X128714285Y-25383390D01*
X128714285Y-25383390D02*
X128761904Y-25431009D01*
X128761904Y-25431009D02*
X128809523Y-25526247D01*
X128809523Y-25526247D02*
X128809523Y-25764342D01*
X128809523Y-25764342D02*
X128761904Y-25859580D01*
X128761904Y-25859580D02*
X128714285Y-25907200D01*
X128714285Y-25907200D02*
X128619047Y-25954819D01*
X128619047Y-25954819D02*
X128333333Y-25954819D01*
X128333333Y-25954819D02*
X128238095Y-25907200D01*
X128238095Y-25907200D02*
X128190476Y-25859580D01*
X82738095Y-77304819D02*
X82738095Y-76304819D01*
X82738095Y-76781009D02*
X83309523Y-76781009D01*
X83309523Y-77304819D02*
X83309523Y-76304819D01*
X83738095Y-76400057D02*
X83785714Y-76352438D01*
X83785714Y-76352438D02*
X83880952Y-76304819D01*
X83880952Y-76304819D02*
X84119047Y-76304819D01*
X84119047Y-76304819D02*
X84214285Y-76352438D01*
X84214285Y-76352438D02*
X84261904Y-76400057D01*
X84261904Y-76400057D02*
X84309523Y-76495295D01*
X84309523Y-76495295D02*
X84309523Y-76590533D01*
X84309523Y-76590533D02*
X84261904Y-76733390D01*
X84261904Y-76733390D02*
X83690476Y-77304819D01*
X83690476Y-77304819D02*
X84309523Y-77304819D01*
X87238095Y-25954819D02*
X87238095Y-24954819D01*
X87238095Y-25431009D02*
X87809523Y-25431009D01*
X87809523Y-25954819D02*
X87809523Y-24954819D01*
X88809523Y-25954819D02*
X88238095Y-25954819D01*
X88523809Y-25954819D02*
X88523809Y-24954819D01*
X88523809Y-24954819D02*
X88428571Y-25097676D01*
X88428571Y-25097676D02*
X88333333Y-25192914D01*
X88333333Y-25192914D02*
X88238095Y-25240533D01*
X121554819Y-33106666D02*
X121078628Y-33439999D01*
X121554819Y-33678094D02*
X120554819Y-33678094D01*
X120554819Y-33678094D02*
X120554819Y-33297142D01*
X120554819Y-33297142D02*
X120602438Y-33201904D01*
X120602438Y-33201904D02*
X120650057Y-33154285D01*
X120650057Y-33154285D02*
X120745295Y-33106666D01*
X120745295Y-33106666D02*
X120888152Y-33106666D01*
X120888152Y-33106666D02*
X120983390Y-33154285D01*
X120983390Y-33154285D02*
X121031009Y-33201904D01*
X121031009Y-33201904D02*
X121078628Y-33297142D01*
X121078628Y-33297142D02*
X121078628Y-33678094D01*
X120650057Y-32725713D02*
X120602438Y-32678094D01*
X120602438Y-32678094D02*
X120554819Y-32582856D01*
X120554819Y-32582856D02*
X120554819Y-32344761D01*
X120554819Y-32344761D02*
X120602438Y-32249523D01*
X120602438Y-32249523D02*
X120650057Y-32201904D01*
X120650057Y-32201904D02*
X120745295Y-32154285D01*
X120745295Y-32154285D02*
X120840533Y-32154285D01*
X120840533Y-32154285D02*
X120983390Y-32201904D01*
X120983390Y-32201904D02*
X121554819Y-32773332D01*
X121554819Y-32773332D02*
X121554819Y-32154285D01*
X109834819Y-79002142D02*
X108834819Y-79002142D01*
X108834819Y-79002142D02*
X109549104Y-78668809D01*
X109549104Y-78668809D02*
X108834819Y-78335476D01*
X108834819Y-78335476D02*
X109834819Y-78335476D01*
X109834819Y-77716428D02*
X109787200Y-77811666D01*
X109787200Y-77811666D02*
X109739580Y-77859285D01*
X109739580Y-77859285D02*
X109644342Y-77906904D01*
X109644342Y-77906904D02*
X109358628Y-77906904D01*
X109358628Y-77906904D02*
X109263390Y-77859285D01*
X109263390Y-77859285D02*
X109215771Y-77811666D01*
X109215771Y-77811666D02*
X109168152Y-77716428D01*
X109168152Y-77716428D02*
X109168152Y-77573571D01*
X109168152Y-77573571D02*
X109215771Y-77478333D01*
X109215771Y-77478333D02*
X109263390Y-77430714D01*
X109263390Y-77430714D02*
X109358628Y-77383095D01*
X109358628Y-77383095D02*
X109644342Y-77383095D01*
X109644342Y-77383095D02*
X109739580Y-77430714D01*
X109739580Y-77430714D02*
X109787200Y-77478333D01*
X109787200Y-77478333D02*
X109834819Y-77573571D01*
X109834819Y-77573571D02*
X109834819Y-77716428D01*
X109834819Y-76525952D02*
X108834819Y-76525952D01*
X109787200Y-76525952D02*
X109834819Y-76621190D01*
X109834819Y-76621190D02*
X109834819Y-76811666D01*
X109834819Y-76811666D02*
X109787200Y-76906904D01*
X109787200Y-76906904D02*
X109739580Y-76954523D01*
X109739580Y-76954523D02*
X109644342Y-77002142D01*
X109644342Y-77002142D02*
X109358628Y-77002142D01*
X109358628Y-77002142D02*
X109263390Y-76954523D01*
X109263390Y-76954523D02*
X109215771Y-76906904D01*
X109215771Y-76906904D02*
X109168152Y-76811666D01*
X109168152Y-76811666D02*
X109168152Y-76621190D01*
X109168152Y-76621190D02*
X109215771Y-76525952D01*
X109168152Y-75621190D02*
X109834819Y-75621190D01*
X109168152Y-76049761D02*
X109691961Y-76049761D01*
X109691961Y-76049761D02*
X109787200Y-76002142D01*
X109787200Y-76002142D02*
X109834819Y-75906904D01*
X109834819Y-75906904D02*
X109834819Y-75764047D01*
X109834819Y-75764047D02*
X109787200Y-75668809D01*
X109787200Y-75668809D02*
X109739580Y-75621190D01*
X109834819Y-75002142D02*
X109787200Y-75097380D01*
X109787200Y-75097380D02*
X109691961Y-75144999D01*
X109691961Y-75144999D02*
X108834819Y-75144999D01*
X109787200Y-74240237D02*
X109834819Y-74335475D01*
X109834819Y-74335475D02*
X109834819Y-74525951D01*
X109834819Y-74525951D02*
X109787200Y-74621189D01*
X109787200Y-74621189D02*
X109691961Y-74668808D01*
X109691961Y-74668808D02*
X109311009Y-74668808D01*
X109311009Y-74668808D02*
X109215771Y-74621189D01*
X109215771Y-74621189D02*
X109168152Y-74525951D01*
X109168152Y-74525951D02*
X109168152Y-74335475D01*
X109168152Y-74335475D02*
X109215771Y-74240237D01*
X109215771Y-74240237D02*
X109311009Y-74192618D01*
X109311009Y-74192618D02*
X109406247Y-74192618D01*
X109406247Y-74192618D02*
X109501485Y-74668808D01*
X109834819Y-73240237D02*
X109834819Y-73811665D01*
X109834819Y-73525951D02*
X108834819Y-73525951D01*
X108834819Y-73525951D02*
X108977676Y-73621189D01*
X108977676Y-73621189D02*
X109072914Y-73716427D01*
X109072914Y-73716427D02*
X109120533Y-73811665D01*
X118554819Y-33116666D02*
X118078628Y-33449999D01*
X118554819Y-33688094D02*
X117554819Y-33688094D01*
X117554819Y-33688094D02*
X117554819Y-33307142D01*
X117554819Y-33307142D02*
X117602438Y-33211904D01*
X117602438Y-33211904D02*
X117650057Y-33164285D01*
X117650057Y-33164285D02*
X117745295Y-33116666D01*
X117745295Y-33116666D02*
X117888152Y-33116666D01*
X117888152Y-33116666D02*
X117983390Y-33164285D01*
X117983390Y-33164285D02*
X118031009Y-33211904D01*
X118031009Y-33211904D02*
X118078628Y-33307142D01*
X118078628Y-33307142D02*
X118078628Y-33688094D01*
X118554819Y-32164285D02*
X118554819Y-32735713D01*
X118554819Y-32449999D02*
X117554819Y-32449999D01*
X117554819Y-32449999D02*
X117697676Y-32545237D01*
X117697676Y-32545237D02*
X117792914Y-32640475D01*
X117792914Y-32640475D02*
X117840533Y-32735713D01*
X107833333Y-30370180D02*
X107833333Y-29655895D01*
X107833333Y-29655895D02*
X107880952Y-29513038D01*
X107880952Y-29513038D02*
X107976190Y-29417800D01*
X107976190Y-29417800D02*
X108119047Y-29370180D01*
X108119047Y-29370180D02*
X108214285Y-29370180D01*
X106833333Y-29370180D02*
X107404761Y-29370180D01*
X107119047Y-29370180D02*
X107119047Y-30370180D01*
X107119047Y-30370180D02*
X107214285Y-30227323D01*
X107214285Y-30227323D02*
X107309523Y-30132085D01*
X107309523Y-30132085D02*
X107404761Y-30084466D01*
X118533333Y-31045180D02*
X118533333Y-30330895D01*
X118533333Y-30330895D02*
X118580952Y-30188038D01*
X118580952Y-30188038D02*
X118676190Y-30092800D01*
X118676190Y-30092800D02*
X118819047Y-30045180D01*
X118819047Y-30045180D02*
X118914285Y-30045180D01*
X118104761Y-30949942D02*
X118057142Y-30997561D01*
X118057142Y-30997561D02*
X117961904Y-31045180D01*
X117961904Y-31045180D02*
X117723809Y-31045180D01*
X117723809Y-31045180D02*
X117628571Y-30997561D01*
X117628571Y-30997561D02*
X117580952Y-30949942D01*
X117580952Y-30949942D02*
X117533333Y-30854704D01*
X117533333Y-30854704D02*
X117533333Y-30759466D01*
X117533333Y-30759466D02*
X117580952Y-30616609D01*
X117580952Y-30616609D02*
X118152380Y-30045180D01*
X118152380Y-30045180D02*
X117533333Y-30045180D01*
D12*
%TO.C,R2*%
X118715000Y-32712936D02*
X118715000Y-33167064D01*
X120185000Y-32712936D02*
X120185000Y-33167064D01*
%TO.C,Module1*%
X87500000Y-33225000D02*
X87500000Y-81225000D01*
X89140000Y-48325000D02*
X89140000Y-49325000D01*
X89140000Y-48325000D02*
X91940000Y-48325000D01*
X89140000Y-71125000D02*
X89140000Y-70125000D01*
X89140000Y-71125000D02*
X91940000Y-71125000D01*
X91000000Y-84725000D02*
X124000000Y-84725000D01*
X91940000Y-48325000D02*
X91940000Y-49325000D01*
X91940000Y-71125000D02*
X91940000Y-70125000D01*
X123060000Y-48325000D02*
X123060000Y-49325000D01*
X123060000Y-48325000D02*
X125940000Y-48325000D01*
X123060000Y-71125000D02*
X123060000Y-70125000D01*
X123060000Y-71125000D02*
X125940000Y-71125000D01*
X124000000Y-29725000D02*
X91000000Y-29725000D01*
X125940000Y-48325000D02*
X125940000Y-49325000D01*
X125940000Y-71125000D02*
X125940000Y-70125000D01*
X127500000Y-81225000D02*
X127500000Y-33225000D01*
X87500000Y-33225000D02*
G75*
G02*
X91000000Y-29725000I3499999J1D01*
G01*
X91000000Y-84725000D02*
G75*
G02*
X87500000Y-81225000I-1J3499999D01*
G01*
X124000000Y-29725000D02*
G75*
G02*
X127500000Y-33225000I0J-3500000D01*
G01*
X127500000Y-81225000D02*
G75*
G02*
X124000000Y-84725000I-3500000J0D01*
G01*
%TO.C,R1*%
X115715000Y-32722936D02*
X115715000Y-33177064D01*
X117185000Y-32722936D02*
X117185000Y-33177064D01*
%TO.C,J1*%
X102830000Y-24975000D02*
X102830000Y-26675000D01*
X112170000Y-24975000D02*
X112170000Y-26675000D01*
%TO.C,J2*%
X113530000Y-25100000D02*
X113530000Y-26800000D01*
X122870000Y-25100000D02*
X122870000Y-26800000D01*
%TD*%
M02*
