%TF.GenerationSoftware,KiCad,Pcbnew,9.0.7*%
%TF.CreationDate,2026-01-06T09:49:31-05:00*%
%TF.ProjectId,hardware,68617264-7761-4726-952e-6b696361645f,rev?*%
%TF.SameCoordinates,Original*%
%TF.FileFunction,Soldermask,Top*%
%TF.FilePolarity,Negative*%
%FSLAX46Y46*%
G04 Gerber Fmt 4.6, Leading zero omitted, Abs format (unit mm)*
G04 Created by KiCad (PCBNEW 9.0.7) date 2026-01-06 09:49:31*
%MOMM*%
%LPD*%
G01*
G04 APERTURE LIST*
G04 Aperture macros list*
%AMRoundRect*
0 Rectangle with rounded corners*
0 $1 Rounding radius*
0 $2 $3 $4 $5 $6 $7 $8 $9 X,Y pos of 4 corners*
0 Add a 4 corners polygon primitive as box body*
4,1,4,$2,$3,$4,$5,$6,$7,$8,$9,$2,$3,0*
0 Add four circle primitives for the rounded corners*
1,1,$1+$1,$2,$3*
1,1,$1+$1,$4,$5*
1,1,$1+$1,$6,$7*
1,1,$1+$1,$8,$9*
0 Add four rect primitives between the rounded corners*
20,1,$1+$1,$2,$3,$4,$5,0*
20,1,$1+$1,$4,$5,$6,$7,0*
20,1,$1+$1,$6,$7,$8,$9,0*
20,1,$1+$1,$8,$9,$2,$3,0*%
G04 Aperture macros list end*
%ADD10RoundRect,0.249999X1.425001X-0.450001X1.425001X0.450001X-1.425001X0.450001X-1.425001X-0.450001X0*%
%ADD11RoundRect,0.150000X0.625000X-0.150000X0.625000X0.150000X-0.625000X0.150000X-0.625000X-0.150000X0*%
%ADD12RoundRect,0.250000X0.650000X-0.350000X0.650000X0.350000X-0.650000X0.350000X-0.650000X-0.350000X0*%
%ADD13RoundRect,0.175000X-0.425000X0.175000X-0.425000X-0.175000X0.425000X-0.175000X0.425000X0.175000X0*%
%ADD14RoundRect,0.190000X0.410000X-0.190000X0.410000X0.190000X-0.410000X0.190000X-0.410000X-0.190000X0*%
%ADD15RoundRect,0.200000X0.400000X-0.200000X0.400000X0.200000X-0.400000X0.200000X-0.400000X-0.200000X0*%
%ADD16RoundRect,0.175000X0.425000X-0.175000X0.425000X0.175000X-0.425000X0.175000X-0.425000X-0.175000X0*%
%ADD17RoundRect,0.190000X-0.410000X0.190000X-0.410000X-0.190000X0.410000X-0.190000X0.410000X0.190000X0*%
%ADD18RoundRect,0.200000X-0.400000X0.200000X-0.400000X-0.200000X0.400000X-0.200000X0.400000X0.200000X0*%
%ADD19O,1.700000X1.100000*%
%ADD20C,2.000000*%
%ADD21RoundRect,0.150000X-0.150000X0.512500X-0.150000X-0.512500X0.150000X-0.512500X0.150000X0.512500X0*%
%ADD22R,0.400000X1.650000*%
%ADD23R,1.825000X0.700000*%
%ADD24R,2.000000X1.500000*%
%ADD25R,1.350000X2.000000*%
%ADD26O,1.350000X1.700000*%
%ADD27O,1.100000X1.500000*%
%ADD28R,1.430000X2.500000*%
%ADD29C,6.100000*%
%ADD30R,0.700000X0.200000*%
G04 APERTURE END LIST*
D10*
%TO.C,R1*%
X118190000Y-90030000D03*
X118190000Y-83930000D03*
%TD*%
D11*
%TO.C,J3*%
X114985000Y-84910000D03*
X114985000Y-83910000D03*
X114985000Y-82910000D03*
X114985000Y-81910000D03*
D12*
X112460000Y-86210000D03*
X112460000Y-80610000D03*
%TD*%
D13*
%TO.C,J1*%
X99505000Y-95620000D03*
D14*
X99505000Y-97640000D03*
D15*
X99505000Y-98870000D03*
D16*
X99505000Y-96620000D03*
D17*
X99505000Y-94600000D03*
D18*
X99505000Y-93370000D03*
D19*
X99425000Y-91800000D03*
X95625000Y-91800000D03*
X99425000Y-100440000D03*
X95625000Y-100440000D03*
%TD*%
D20*
%TO.C,SW1*%
X107500000Y-99500000D03*
X114000000Y-99500000D03*
X107500000Y-104000000D03*
X114000000Y-104000000D03*
%TD*%
D21*
%TO.C,U1*%
X149642500Y-61092500D03*
X148692500Y-61092500D03*
X147742500Y-61092500D03*
X147742500Y-63367500D03*
X148692500Y-63367500D03*
X149642500Y-63367500D03*
%TD*%
D22*
%TO.C,J2*%
X149695000Y-58935000D03*
X149045000Y-58935000D03*
X148395000Y-58935000D03*
X147745000Y-58935000D03*
X147095000Y-58935000D03*
D23*
X151345000Y-57735000D03*
D24*
X151245000Y-59035000D03*
D25*
X151125000Y-56985000D03*
D26*
X151125000Y-56055000D03*
D27*
X150815000Y-59055000D03*
D28*
X149355000Y-55785000D03*
X147435000Y-55785000D03*
D27*
X145975000Y-59055000D03*
D26*
X145665000Y-56055000D03*
D25*
X145645000Y-56985000D03*
D24*
X145495000Y-59055000D03*
D23*
X145395000Y-57735000D03*
%TD*%
D29*
%TO.C,Module1*%
X122500000Y-63610000D03*
X122500000Y-111610000D03*
X155500000Y-63610000D03*
X155500000Y-111610000D03*
D30*
X120460000Y-80310000D03*
X123540000Y-80310000D03*
X120460000Y-80710000D03*
X123540000Y-80710000D03*
X120460000Y-81110000D03*
X123540000Y-81110000D03*
X120460000Y-81510000D03*
X123540000Y-81510000D03*
X120460000Y-81910000D03*
X123540000Y-81910000D03*
X120460000Y-82310000D03*
X123540000Y-82310000D03*
X120460000Y-82710000D03*
X123540000Y-82710000D03*
X120460000Y-83110000D03*
X123540000Y-83110000D03*
X120460000Y-83510000D03*
X123540000Y-83510000D03*
X120460000Y-83910000D03*
X123540000Y-83910000D03*
X120460000Y-84310000D03*
X123540000Y-84310000D03*
X120460000Y-84710000D03*
X123540000Y-84710000D03*
X120460000Y-85110000D03*
X123540000Y-85110000D03*
X120460000Y-85510000D03*
X123540000Y-85510000D03*
X120460000Y-85910000D03*
X123540000Y-85910000D03*
X120460000Y-86310000D03*
X123540000Y-86310000D03*
X120460000Y-86710000D03*
X123540000Y-86710000D03*
X120460000Y-87110000D03*
X123540000Y-87110000D03*
X120460000Y-87510000D03*
X123540000Y-87510000D03*
X120460000Y-87910000D03*
X123540000Y-87910000D03*
X120460000Y-88310000D03*
X123540000Y-88310000D03*
X120460000Y-88710000D03*
X123540000Y-88710000D03*
X120460000Y-89110000D03*
X123540000Y-89110000D03*
X120460000Y-89510000D03*
X123540000Y-89510000D03*
X120460000Y-89910000D03*
X123540000Y-89910000D03*
X120460000Y-90310000D03*
X123540000Y-90310000D03*
X120460000Y-90710000D03*
X123540000Y-90710000D03*
X120460000Y-91110000D03*
X123540000Y-91110000D03*
X120460000Y-91510000D03*
X123540000Y-91510000D03*
X120460000Y-91910000D03*
X123540000Y-91910000D03*
X120460000Y-92310000D03*
X123540000Y-92310000D03*
X120460000Y-92710000D03*
X123540000Y-92710000D03*
X120460000Y-93110000D03*
X123540000Y-93110000D03*
X120460000Y-93510000D03*
X123540000Y-93510000D03*
X120460000Y-93910000D03*
X123540000Y-93910000D03*
X120460000Y-94310000D03*
X123540000Y-94310000D03*
X120460000Y-94710000D03*
X123540000Y-94710000D03*
X120460000Y-95110000D03*
X123540000Y-95110000D03*
X120460000Y-95510000D03*
X123540000Y-95510000D03*
X120460000Y-95910000D03*
X123540000Y-95910000D03*
X120460000Y-96310000D03*
X123540000Y-96310000D03*
X120460000Y-96710000D03*
X123540000Y-96710000D03*
X120460000Y-97110000D03*
X123540000Y-97110000D03*
X120460000Y-97510000D03*
X123540000Y-97510000D03*
X120460000Y-97910000D03*
X123540000Y-97910000D03*
X120460000Y-98310000D03*
X123540000Y-98310000D03*
X120460000Y-98710000D03*
X123540000Y-98710000D03*
X120460000Y-99110000D03*
X123540000Y-99110000D03*
X120460000Y-99510000D03*
X123540000Y-99510000D03*
X120460000Y-99910000D03*
X123540000Y-99910000D03*
X154460000Y-80310000D03*
X157540000Y-80310000D03*
X154460000Y-80710000D03*
X157540000Y-80710000D03*
X154460000Y-81110000D03*
X157540000Y-81110000D03*
X154460000Y-81510000D03*
X157540000Y-81510000D03*
X154460000Y-81910000D03*
X157540000Y-81910000D03*
X154460000Y-82310000D03*
X157540000Y-82310000D03*
X154460000Y-82710000D03*
X157540000Y-82710000D03*
X154460000Y-83110000D03*
X157540000Y-83110000D03*
X154460000Y-83510000D03*
X157540000Y-83510000D03*
X154460000Y-83910000D03*
X157540000Y-83910000D03*
X154460000Y-84310000D03*
X157540000Y-84310000D03*
X154460000Y-84710000D03*
X157540000Y-84710000D03*
X154460000Y-85110000D03*
X157540000Y-85110000D03*
X154460000Y-85510000D03*
X157540000Y-85510000D03*
X154460000Y-85910000D03*
X157540000Y-85910000D03*
X154460000Y-86310000D03*
X157540000Y-86310000D03*
X154460000Y-86710000D03*
X157540000Y-86710000D03*
X154460000Y-87110000D03*
X157540000Y-87110000D03*
X154460000Y-87510000D03*
X157540000Y-87510000D03*
X154460000Y-87910000D03*
X157540000Y-87910000D03*
X154460000Y-88310000D03*
X157540000Y-88310000D03*
X154460000Y-88710000D03*
X157540000Y-88710000D03*
X154460000Y-89110000D03*
X157540000Y-89110000D03*
X154460000Y-89510000D03*
X157540000Y-89510000D03*
X154460000Y-89910000D03*
X157540000Y-89910000D03*
X154460000Y-90310000D03*
X157540000Y-90310000D03*
X154460000Y-90710000D03*
X157540000Y-90710000D03*
X154460000Y-91110000D03*
X157540000Y-91110000D03*
X154460000Y-91510000D03*
X157540000Y-91510000D03*
X154460000Y-91910000D03*
X157540000Y-91910000D03*
X154460000Y-92310000D03*
X157540000Y-92310000D03*
X154460000Y-92710000D03*
X157540000Y-92710000D03*
X154460000Y-93110000D03*
X157540000Y-93110000D03*
X154460000Y-93510000D03*
X157540000Y-93510000D03*
X154460000Y-93910000D03*
X157540000Y-93910000D03*
X154460000Y-94310000D03*
X157540000Y-94310000D03*
X154460000Y-94710000D03*
X157540000Y-94710000D03*
X154460000Y-95110000D03*
X157540000Y-95110000D03*
X154460000Y-95510000D03*
X157540000Y-95510000D03*
X154460000Y-95910000D03*
X157540000Y-95910000D03*
X154460000Y-96310000D03*
X157540000Y-96310000D03*
X154460000Y-96710000D03*
X157540000Y-96710000D03*
X154460000Y-97110000D03*
X157540000Y-97110000D03*
X154460000Y-97510000D03*
X157540000Y-97510000D03*
X154460000Y-97910000D03*
X157540000Y-97910000D03*
X154460000Y-98310000D03*
X157540000Y-98310000D03*
X154460000Y-98710000D03*
X157540000Y-98710000D03*
X154460000Y-99110000D03*
X157540000Y-99110000D03*
X154460000Y-99510000D03*
X157540000Y-99510000D03*
X154460000Y-99910000D03*
X157540000Y-99910000D03*
%TD*%
M02*
