M48
; DRILL file {KiCad 9.0.7} date 2026-01-06T09:49:36-0500
; FORMAT={-:-/ absolute / metric / decimal}
; #@! TF.CreationDate,2026-01-06T09:49:36-05:00
; #@! TF.GenerationSoftware,Kicad,Pcbnew,9.0.7
; #@! TF.FileFunction,Plated,1,2,PTH
FMAT,2
METRIC
; #@! TA.AperFunction,Plated,PTH,ViaDrill
T1C0.300
; #@! TA.AperFunction,Plated,PTH,ComponentDrill
T2C0.600
; #@! TA.AperFunction,Plated,PTH,ComponentDrill
T3C0.650
; #@! TA.AperFunction,Plated,PTH,ComponentDrill
T4C0.700
; #@! TA.AperFunction,Plated,PTH,ComponentDrill
T5C1.100
%
G90
G05
T1
X118.19Y-90.03
X119.0Y-99.0
X121.96Y-85.38
X122.02Y-97.27
X122.1Y-79.69
X122.12Y-89.35
X122.5Y-101.72
X125.54Y-96.93
T5
X107.5Y-99.5
X107.5Y-104.0
X114.0Y-99.5
X114.0Y-104.0
T2
G00X95.925Y-91.8
M15
G01X95.325Y-91.8
M16
G05
G00X95.925Y-100.44
M15
G01X95.325Y-100.44
M16
G05
G00X99.725Y-91.8
M15
G01X99.125Y-91.8
M16
G05
G00X99.725Y-100.44
M15
G01X99.125Y-100.44
M16
G05
T3
G00X145.975Y-58.855
M15
G01X145.975Y-59.255
M16
G05
G00X150.815Y-58.855
M15
G01X150.815Y-59.255
M16
G05
T4
G00X145.665Y-55.805
M15
G01X145.665Y-56.305
M16
G05
G00X151.125Y-55.805
M15
G01X151.125Y-56.305
M16
G05
M30
