%TF.GenerationSoftware,KiCad,Pcbnew,9.0.7*%
%TF.CreationDate,2026-01-06T09:49:30-05:00*%
%TF.ProjectId,hardware,68617264-7761-4726-952e-6b696361645f,rev?*%
%TF.SameCoordinates,Original*%
%TF.FileFunction,Copper,L2,Bot*%
%TF.FilePolarity,Positive*%
%FSLAX46Y46*%
G04 Gerber Fmt 4.6, Leading zero omitted, Abs format (unit mm)*
G04 Created by KiCad (PCBNEW 9.0.7) date 2026-01-06 09:49:30*
%MOMM*%
%LPD*%
G01*
G04 APERTURE LIST*
%TA.AperFunction,HeatsinkPad*%
%ADD10O,1.700000X1.100000*%
%TD*%
%TA.AperFunction,ComponentPad*%
%ADD11C,2.000000*%
%TD*%
%TA.AperFunction,HeatsinkPad*%
%ADD12O,1.350000X1.700000*%
%TD*%
%TA.AperFunction,HeatsinkPad*%
%ADD13O,1.100000X1.500000*%
%TD*%
%TA.AperFunction,ViaPad*%
%ADD14C,0.600000*%
%TD*%
%TA.AperFunction,Conductor*%
%ADD15C,1.200000*%
%TD*%
%TA.AperFunction,Conductor*%
%ADD16C,0.200000*%
%TD*%
G04 APERTURE END LIST*
D10*
%TO.P,J1,S1,SHIELD*%
%TO.N,GND*%
X99425000Y-91800000D03*
X95625000Y-91800000D03*
X99425000Y-100440000D03*
X95625000Y-100440000D03*
%TD*%
D11*
%TO.P,SW1,1,1*%
%TO.N,Net-(Module1A-nRPIBOOT)*%
X107500000Y-99500000D03*
X114000000Y-99500000D03*
%TO.P,SW1,2,2*%
%TO.N,GND*%
X107500000Y-104000000D03*
X114000000Y-104000000D03*
%TD*%
D12*
%TO.P,J2,6,Shield*%
%TO.N,GND*%
X151125000Y-56055000D03*
D13*
X150815000Y-59055000D03*
X145975000Y-59055000D03*
D12*
X145665000Y-56055000D03*
%TD*%
D14*
%TO.N,GND*%
X122100000Y-79690000D03*
X121960000Y-85380000D03*
X122120000Y-89350000D03*
X122020000Y-97270000D03*
%TO.N,+3V3*%
X125540000Y-96930000D03*
X118190000Y-90030000D03*
%TO.N,GND*%
X122500000Y-101720000D03*
%TO.N,Net-(Module1A-nRPIBOOT)*%
X119000000Y-99000000D03*
%TD*%
D15*
%TO.N,+3V3*%
X118640000Y-90030000D02*
X125540000Y-96930000D01*
X118190000Y-90030000D02*
X118640000Y-90030000D01*
D16*
%TO.N,Net-(Module1A-nRPIBOOT)*%
X107500000Y-99500000D02*
X114000000Y-99500000D01*
X118500000Y-99500000D02*
X114000000Y-99500000D01*
X119000000Y-99000000D02*
X118500000Y-99500000D01*
%TD*%
%TA.AperFunction,Conductor*%
%TO.N,GND*%
G36*
X145392420Y-54520185D02*
G01*
X145438175Y-54572989D01*
X145448119Y-54642147D01*
X145419094Y-54705703D01*
X145363699Y-54742431D01*
X145213959Y-54791083D01*
X145213956Y-54791084D01*
X145049162Y-54875052D01*
X144899545Y-54983754D01*
X144899540Y-54983758D01*
X144768758Y-55114540D01*
X144768754Y-55114545D01*
X144660052Y-55264162D01*
X144576084Y-55428956D01*
X144576083Y-55428959D01*
X144518933Y-55604852D01*
X144490000Y-55787526D01*
X144490000Y-55805000D01*
X145315000Y-55805000D01*
X145315000Y-56305000D01*
X144490000Y-56305000D01*
X144490000Y-56322473D01*
X144518933Y-56505147D01*
X144576083Y-56681040D01*
X144576084Y-56681043D01*
X144660052Y-56845837D01*
X144768754Y-56995454D01*
X144768758Y-56995459D01*
X144899540Y-57126241D01*
X144899545Y-57126245D01*
X145049162Y-57234947D01*
X145213956Y-57318915D01*
X145213959Y-57318916D01*
X145389845Y-57376064D01*
X145389858Y-57376067D01*
X145415000Y-57380049D01*
X145415000Y-56549975D01*
X145450095Y-56585070D01*
X145529905Y-56631148D01*
X145618922Y-56655000D01*
X145711078Y-56655000D01*
X145800095Y-56631148D01*
X145879905Y-56585070D01*
X145915000Y-56549975D01*
X145915000Y-57380048D01*
X145940141Y-57376067D01*
X145940154Y-57376064D01*
X146116040Y-57318916D01*
X146116043Y-57318915D01*
X146280837Y-57234947D01*
X146430454Y-57126245D01*
X146430459Y-57126241D01*
X146561241Y-56995459D01*
X146561245Y-56995454D01*
X146669947Y-56845837D01*
X146753915Y-56681043D01*
X146753916Y-56681040D01*
X146811066Y-56505147D01*
X146840000Y-56322473D01*
X146840000Y-56305000D01*
X146015000Y-56305000D01*
X146015000Y-55805000D01*
X146840000Y-55805000D01*
X146840000Y-55787526D01*
X146811066Y-55604852D01*
X146753916Y-55428959D01*
X146753915Y-55428956D01*
X146669947Y-55264162D01*
X146561245Y-55114545D01*
X146561241Y-55114540D01*
X146430459Y-54983758D01*
X146430454Y-54983754D01*
X146280837Y-54875052D01*
X146116043Y-54791084D01*
X146116040Y-54791083D01*
X145966301Y-54742431D01*
X145908626Y-54702994D01*
X145881427Y-54638635D01*
X145893341Y-54569789D01*
X145940585Y-54518313D01*
X146004619Y-54500500D01*
X150785381Y-54500500D01*
X150852420Y-54520185D01*
X150898175Y-54572989D01*
X150908119Y-54642147D01*
X150879094Y-54705703D01*
X150823699Y-54742431D01*
X150673959Y-54791083D01*
X150673956Y-54791084D01*
X150509162Y-54875052D01*
X150359545Y-54983754D01*
X150359540Y-54983758D01*
X150228758Y-55114540D01*
X150228754Y-55114545D01*
X150120052Y-55264162D01*
X150036084Y-55428956D01*
X150036083Y-55428959D01*
X149978933Y-55604852D01*
X149950000Y-55787526D01*
X149950000Y-55805000D01*
X150775000Y-55805000D01*
X150775000Y-56305000D01*
X149950000Y-56305000D01*
X149950000Y-56322473D01*
X149978933Y-56505147D01*
X150036083Y-56681040D01*
X150036084Y-56681043D01*
X150120052Y-56845837D01*
X150228754Y-56995454D01*
X150228758Y-56995459D01*
X150359540Y-57126241D01*
X150359545Y-57126245D01*
X150509162Y-57234947D01*
X150673956Y-57318915D01*
X150673959Y-57318916D01*
X150849845Y-57376064D01*
X150849858Y-57376067D01*
X150875000Y-57380049D01*
X150875000Y-56549975D01*
X150910095Y-56585070D01*
X150989905Y-56631148D01*
X151078922Y-56655000D01*
X151171078Y-56655000D01*
X151260095Y-56631148D01*
X151339905Y-56585070D01*
X151375000Y-56549975D01*
X151375000Y-57380048D01*
X151400141Y-57376067D01*
X151400154Y-57376064D01*
X151576040Y-57318916D01*
X151576043Y-57318915D01*
X151740837Y-57234947D01*
X151890454Y-57126245D01*
X151890459Y-57126241D01*
X152021241Y-56995459D01*
X152021245Y-56995454D01*
X152129947Y-56845837D01*
X152213915Y-56681043D01*
X152213916Y-56681040D01*
X152271066Y-56505147D01*
X152300000Y-56322473D01*
X152300000Y-56305000D01*
X151475000Y-56305000D01*
X151475000Y-55805000D01*
X152300000Y-55805000D01*
X152300000Y-55787526D01*
X152271066Y-55604852D01*
X152213916Y-55428959D01*
X152213915Y-55428956D01*
X152129947Y-55264162D01*
X152021245Y-55114545D01*
X152021241Y-55114540D01*
X151890459Y-54983758D01*
X151890454Y-54983754D01*
X151740837Y-54875052D01*
X151576043Y-54791084D01*
X151576040Y-54791083D01*
X151426301Y-54742431D01*
X151368626Y-54702994D01*
X151341427Y-54638635D01*
X151353341Y-54569789D01*
X151400585Y-54518313D01*
X151464619Y-54500500D01*
X164375500Y-54500500D01*
X164442539Y-54520185D01*
X164488294Y-54572989D01*
X164499500Y-54624500D01*
X164499500Y-120375500D01*
X164479815Y-120442539D01*
X164427011Y-120488294D01*
X164375500Y-120499500D01*
X151624500Y-120499500D01*
X151557461Y-120479815D01*
X151511706Y-120427011D01*
X151500500Y-120375500D01*
X151500500Y-111438681D01*
X152449500Y-111438681D01*
X152449500Y-111781318D01*
X152487858Y-112121768D01*
X152487861Y-112121782D01*
X152564102Y-112455816D01*
X152564103Y-112455818D01*
X152677264Y-112779216D01*
X152825922Y-113087907D01*
X152825924Y-113087910D01*
X153008211Y-113378018D01*
X153221834Y-113645893D01*
X153464107Y-113888166D01*
X153731982Y-114101789D01*
X154022090Y-114284076D01*
X154330785Y-114432736D01*
X154654183Y-114545897D01*
X154988217Y-114622139D01*
X154988226Y-114622140D01*
X154988231Y-114622141D01*
X155215197Y-114647713D01*
X155328682Y-114660499D01*
X155328685Y-114660500D01*
X155328688Y-114660500D01*
X155671315Y-114660500D01*
X155671316Y-114660499D01*
X155845311Y-114640895D01*
X156011768Y-114622141D01*
X156011771Y-114622140D01*
X156011783Y-114622139D01*
X156345817Y-114545897D01*
X156669215Y-114432736D01*
X156977910Y-114284076D01*
X157268018Y-114101789D01*
X157535893Y-113888166D01*
X157778166Y-113645893D01*
X157991789Y-113378018D01*
X158174076Y-113087910D01*
X158322736Y-112779215D01*
X158435897Y-112455817D01*
X158512139Y-112121783D01*
X158550500Y-111781312D01*
X158550500Y-111438688D01*
X158512139Y-111098217D01*
X158435897Y-110764183D01*
X158322736Y-110440785D01*
X158174076Y-110132090D01*
X157991789Y-109841982D01*
X157778166Y-109574107D01*
X157535893Y-109331834D01*
X157268018Y-109118211D01*
X156977910Y-108935924D01*
X156977907Y-108935922D01*
X156669216Y-108787264D01*
X156345818Y-108674103D01*
X156345816Y-108674102D01*
X156088024Y-108615262D01*
X156011783Y-108597861D01*
X156011780Y-108597860D01*
X156011768Y-108597858D01*
X155671318Y-108559500D01*
X155671312Y-108559500D01*
X155328688Y-108559500D01*
X155328681Y-108559500D01*
X154988231Y-108597858D01*
X154988217Y-108597861D01*
X154654183Y-108674102D01*
X154654181Y-108674103D01*
X154330783Y-108787264D01*
X154022092Y-108935922D01*
X153731983Y-109118210D01*
X153464107Y-109331833D01*
X153221833Y-109574107D01*
X153008210Y-109841983D01*
X152825922Y-110132092D01*
X152677264Y-110440783D01*
X152564103Y-110764181D01*
X152564102Y-110764183D01*
X152487861Y-111098217D01*
X152487858Y-111098231D01*
X152449500Y-111438681D01*
X151500500Y-111438681D01*
X151500500Y-104934110D01*
X151500500Y-104934108D01*
X151466392Y-104806814D01*
X151400500Y-104692686D01*
X151307314Y-104599500D01*
X151221578Y-104550000D01*
X151193187Y-104533608D01*
X151114476Y-104512518D01*
X151065892Y-104499500D01*
X128065892Y-104499500D01*
X127934108Y-104499500D01*
X127806812Y-104533608D01*
X127692686Y-104599500D01*
X127692683Y-104599502D01*
X127599502Y-104692683D01*
X127599500Y-104692686D01*
X127533608Y-104806812D01*
X127499500Y-104934108D01*
X127499500Y-120375500D01*
X127479815Y-120442539D01*
X127427011Y-120488294D01*
X127375500Y-120499500D01*
X94624500Y-120499500D01*
X94557461Y-120479815D01*
X94511706Y-120427011D01*
X94500500Y-120375500D01*
X94500500Y-111438681D01*
X119449500Y-111438681D01*
X119449500Y-111781318D01*
X119487858Y-112121768D01*
X119487861Y-112121782D01*
X119564102Y-112455816D01*
X119564103Y-112455818D01*
X119677264Y-112779216D01*
X119825922Y-113087907D01*
X119825924Y-113087910D01*
X120008211Y-113378018D01*
X120221834Y-113645893D01*
X120464107Y-113888166D01*
X120731982Y-114101789D01*
X121022090Y-114284076D01*
X121330785Y-114432736D01*
X121654183Y-114545897D01*
X121988217Y-114622139D01*
X121988226Y-114622140D01*
X121988231Y-114622141D01*
X122215197Y-114647713D01*
X122328682Y-114660499D01*
X122328685Y-114660500D01*
X122328688Y-114660500D01*
X122671315Y-114660500D01*
X122671316Y-114660499D01*
X122845311Y-114640895D01*
X123011768Y-114622141D01*
X123011771Y-114622140D01*
X123011783Y-114622139D01*
X123345817Y-114545897D01*
X123669215Y-114432736D01*
X123977910Y-114284076D01*
X124268018Y-114101789D01*
X124535893Y-113888166D01*
X124778166Y-113645893D01*
X124991789Y-113378018D01*
X125174076Y-113087910D01*
X125322736Y-112779215D01*
X125435897Y-112455817D01*
X125512139Y-112121783D01*
X125550500Y-111781312D01*
X125550500Y-111438688D01*
X125512139Y-111098217D01*
X125435897Y-110764183D01*
X125322736Y-110440785D01*
X125174076Y-110132090D01*
X124991789Y-109841982D01*
X124778166Y-109574107D01*
X124535893Y-109331834D01*
X124268018Y-109118211D01*
X123977910Y-108935924D01*
X123977907Y-108935922D01*
X123669216Y-108787264D01*
X123345818Y-108674103D01*
X123345816Y-108674102D01*
X123088024Y-108615262D01*
X123011783Y-108597861D01*
X123011780Y-108597860D01*
X123011768Y-108597858D01*
X122671318Y-108559500D01*
X122671312Y-108559500D01*
X122328688Y-108559500D01*
X122328681Y-108559500D01*
X121988231Y-108597858D01*
X121988217Y-108597861D01*
X121654183Y-108674102D01*
X121654181Y-108674103D01*
X121330783Y-108787264D01*
X121022092Y-108935922D01*
X120731983Y-109118210D01*
X120464107Y-109331833D01*
X120221833Y-109574107D01*
X120008210Y-109841983D01*
X119825922Y-110132092D01*
X119677264Y-110440783D01*
X119564103Y-110764181D01*
X119564102Y-110764183D01*
X119487861Y-111098217D01*
X119487858Y-111098231D01*
X119449500Y-111438681D01*
X94500500Y-111438681D01*
X94500500Y-103881947D01*
X106000000Y-103881947D01*
X106000000Y-104118052D01*
X106036934Y-104351247D01*
X106109897Y-104575802D01*
X106217087Y-104786174D01*
X106277338Y-104869104D01*
X106277340Y-104869105D01*
X106976212Y-104170233D01*
X106987482Y-104212292D01*
X107059890Y-104337708D01*
X107162292Y-104440110D01*
X107287708Y-104512518D01*
X107329765Y-104523787D01*
X106630893Y-105222658D01*
X106713828Y-105282914D01*
X106924197Y-105390102D01*
X107148752Y-105463065D01*
X107148751Y-105463065D01*
X107381948Y-105500000D01*
X107618052Y-105500000D01*
X107851247Y-105463065D01*
X108075802Y-105390102D01*
X108286163Y-105282918D01*
X108286169Y-105282914D01*
X108369104Y-105222658D01*
X108369105Y-105222658D01*
X107670233Y-104523787D01*
X107712292Y-104512518D01*
X107837708Y-104440110D01*
X107940110Y-104337708D01*
X108012518Y-104212292D01*
X108023787Y-104170234D01*
X108722658Y-104869105D01*
X108722658Y-104869104D01*
X108782914Y-104786169D01*
X108782918Y-104786163D01*
X108890102Y-104575802D01*
X108963065Y-104351247D01*
X109000000Y-104118052D01*
X109000000Y-103881947D01*
X112500000Y-103881947D01*
X112500000Y-104118052D01*
X112536934Y-104351247D01*
X112609897Y-104575802D01*
X112717087Y-104786174D01*
X112777338Y-104869104D01*
X112777340Y-104869105D01*
X113476212Y-104170233D01*
X113487482Y-104212292D01*
X113559890Y-104337708D01*
X113662292Y-104440110D01*
X113787708Y-104512518D01*
X113829765Y-104523787D01*
X113130893Y-105222658D01*
X113213828Y-105282914D01*
X113424197Y-105390102D01*
X113648752Y-105463065D01*
X113648751Y-105463065D01*
X113881948Y-105500000D01*
X114118052Y-105500000D01*
X114351247Y-105463065D01*
X114575802Y-105390102D01*
X114786163Y-105282918D01*
X114786169Y-105282914D01*
X114869104Y-105222658D01*
X114869105Y-105222658D01*
X114170233Y-104523787D01*
X114212292Y-104512518D01*
X114337708Y-104440110D01*
X114440110Y-104337708D01*
X114512518Y-104212292D01*
X114523787Y-104170234D01*
X115222658Y-104869105D01*
X115222658Y-104869104D01*
X115282914Y-104786169D01*
X115282918Y-104786163D01*
X115390102Y-104575802D01*
X115463065Y-104351247D01*
X115500000Y-104118052D01*
X115500000Y-103881947D01*
X115463065Y-103648752D01*
X115390102Y-103424197D01*
X115282914Y-103213828D01*
X115222658Y-103130894D01*
X115222658Y-103130893D01*
X114523787Y-103829765D01*
X114512518Y-103787708D01*
X114440110Y-103662292D01*
X114337708Y-103559890D01*
X114212292Y-103487482D01*
X114170234Y-103476212D01*
X114869105Y-102777340D01*
X114869104Y-102777338D01*
X114786174Y-102717087D01*
X114575802Y-102609897D01*
X114351247Y-102536934D01*
X114351248Y-102536934D01*
X114118052Y-102500000D01*
X113881948Y-102500000D01*
X113648752Y-102536934D01*
X113424197Y-102609897D01*
X113213830Y-102717084D01*
X113130894Y-102777340D01*
X113829766Y-103476212D01*
X113787708Y-103487482D01*
X113662292Y-103559890D01*
X113559890Y-103662292D01*
X113487482Y-103787708D01*
X113476212Y-103829766D01*
X112777340Y-103130894D01*
X112717084Y-103213830D01*
X112609897Y-103424197D01*
X112536934Y-103648752D01*
X112500000Y-103881947D01*
X109000000Y-103881947D01*
X108963065Y-103648752D01*
X108890102Y-103424197D01*
X108782914Y-103213828D01*
X108722658Y-103130894D01*
X108722658Y-103130893D01*
X108023787Y-103829765D01*
X108012518Y-103787708D01*
X107940110Y-103662292D01*
X107837708Y-103559890D01*
X107712292Y-103487482D01*
X107670234Y-103476212D01*
X108369105Y-102777340D01*
X108369104Y-102777339D01*
X108286174Y-102717087D01*
X108075802Y-102609897D01*
X107851247Y-102536934D01*
X107851248Y-102536934D01*
X107618052Y-102500000D01*
X107381948Y-102500000D01*
X107148752Y-102536934D01*
X106924197Y-102609897D01*
X106713830Y-102717084D01*
X106630894Y-102777340D01*
X107329766Y-103476212D01*
X107287708Y-103487482D01*
X107162292Y-103559890D01*
X107059890Y-103662292D01*
X106987482Y-103787708D01*
X106976212Y-103829766D01*
X106277340Y-103130894D01*
X106217084Y-103213830D01*
X106109897Y-103424197D01*
X106036934Y-103648752D01*
X106000000Y-103881947D01*
X94500500Y-103881947D01*
X94500500Y-101383899D01*
X94520185Y-101316860D01*
X94572989Y-101271105D01*
X94642147Y-101261161D01*
X94693391Y-101280797D01*
X94827631Y-101370494D01*
X94827641Y-101370499D01*
X95018725Y-101449649D01*
X95018733Y-101449651D01*
X95221579Y-101489999D01*
X95221583Y-101490000D01*
X95375000Y-101490000D01*
X95375000Y-100740000D01*
X95875000Y-100740000D01*
X95875000Y-101490000D01*
X96028417Y-101490000D01*
X96028420Y-101489999D01*
X96231266Y-101449651D01*
X96231274Y-101449649D01*
X96422358Y-101370499D01*
X96422368Y-101370494D01*
X96594335Y-101255589D01*
X96594339Y-101255586D01*
X96740586Y-101109339D01*
X96740589Y-101109335D01*
X96855494Y-100937368D01*
X96855499Y-100937358D01*
X96934648Y-100746276D01*
X96934649Y-100746274D01*
X96945843Y-100690000D01*
X96091988Y-100690000D01*
X96109205Y-100680060D01*
X96165060Y-100624205D01*
X96204556Y-100555796D01*
X96225000Y-100479496D01*
X96225000Y-100400504D01*
X96204556Y-100324204D01*
X96165060Y-100255795D01*
X96109205Y-100199940D01*
X96091988Y-100190000D01*
X96945843Y-100190000D01*
X98104157Y-100190000D01*
X98958012Y-100190000D01*
X98940795Y-100199940D01*
X98884940Y-100255795D01*
X98845444Y-100324204D01*
X98825000Y-100400504D01*
X98825000Y-100479496D01*
X98845444Y-100555796D01*
X98884940Y-100624205D01*
X98940795Y-100680060D01*
X98958012Y-100690000D01*
X98104157Y-100690000D01*
X98115350Y-100746274D01*
X98115351Y-100746276D01*
X98194500Y-100937358D01*
X98194505Y-100937368D01*
X98309410Y-101109335D01*
X98309413Y-101109339D01*
X98455660Y-101255586D01*
X98455664Y-101255589D01*
X98627631Y-101370494D01*
X98627641Y-101370499D01*
X98818725Y-101449649D01*
X98818733Y-101449651D01*
X99021579Y-101489999D01*
X99021583Y-101490000D01*
X99175000Y-101490000D01*
X99175000Y-100740000D01*
X99675000Y-100740000D01*
X99675000Y-101490000D01*
X99828417Y-101490000D01*
X99828420Y-101489999D01*
X100031266Y-101449651D01*
X100031274Y-101449649D01*
X100222358Y-101370499D01*
X100222368Y-101370494D01*
X100394335Y-101255589D01*
X100394339Y-101255586D01*
X100540586Y-101109339D01*
X100540589Y-101109335D01*
X100655494Y-100937368D01*
X100655499Y-100937358D01*
X100734648Y-100746276D01*
X100734649Y-100746274D01*
X100745843Y-100690000D01*
X99891988Y-100690000D01*
X99909205Y-100680060D01*
X99965060Y-100624205D01*
X100004556Y-100555796D01*
X100025000Y-100479496D01*
X100025000Y-100400504D01*
X100004556Y-100324204D01*
X99965060Y-100255795D01*
X99909205Y-100199940D01*
X99891988Y-100190000D01*
X100745843Y-100190000D01*
X100734649Y-100133725D01*
X100734648Y-100133723D01*
X100655499Y-99942641D01*
X100655494Y-99942631D01*
X100540589Y-99770664D01*
X100540586Y-99770660D01*
X100394339Y-99624413D01*
X100394335Y-99624410D01*
X100222368Y-99509505D01*
X100222359Y-99509500D01*
X100179136Y-99491597D01*
X100031274Y-99430350D01*
X100031266Y-99430348D01*
X99828420Y-99390000D01*
X99675000Y-99390000D01*
X99675000Y-100140000D01*
X99175000Y-100140000D01*
X99175000Y-99390000D01*
X99021579Y-99390000D01*
X98818733Y-99430348D01*
X98818725Y-99430350D01*
X98627641Y-99509500D01*
X98627631Y-99509505D01*
X98455664Y-99624410D01*
X98455660Y-99624413D01*
X98309413Y-99770660D01*
X98309410Y-99770664D01*
X98194505Y-99942631D01*
X98194500Y-99942641D01*
X98115351Y-100133723D01*
X98115350Y-100133725D01*
X98104157Y-100190000D01*
X96945843Y-100190000D01*
X96934649Y-100133725D01*
X96934648Y-100133723D01*
X96855499Y-99942641D01*
X96855494Y-99942631D01*
X96740589Y-99770664D01*
X96740586Y-99770660D01*
X96594339Y-99624413D01*
X96594335Y-99624410D01*
X96422368Y-99509505D01*
X96422358Y-99509500D01*
X96231274Y-99430350D01*
X96231266Y-99430348D01*
X96028420Y-99390000D01*
X95875000Y-99390000D01*
X95875000Y-100140000D01*
X95375000Y-100140000D01*
X95375000Y-99390000D01*
X95221579Y-99390000D01*
X95018733Y-99430348D01*
X95018725Y-99430350D01*
X94827641Y-99509500D01*
X94827631Y-99509505D01*
X94693391Y-99599202D01*
X94626713Y-99620080D01*
X94559333Y-99601595D01*
X94512643Y-99549616D01*
X94500500Y-99496100D01*
X94500500Y-99381902D01*
X105999500Y-99381902D01*
X105999500Y-99618097D01*
X106036446Y-99851368D01*
X106109433Y-100075996D01*
X106201046Y-100255795D01*
X106216657Y-100286433D01*
X106355483Y-100477510D01*
X106522490Y-100644517D01*
X106713567Y-100783343D01*
X106812991Y-100834002D01*
X106924003Y-100890566D01*
X106924005Y-100890566D01*
X106924008Y-100890568D01*
X107044412Y-100929689D01*
X107148631Y-100963553D01*
X107381903Y-101000500D01*
X107381908Y-101000500D01*
X107618097Y-101000500D01*
X107851368Y-100963553D01*
X108075992Y-100890568D01*
X108286433Y-100783343D01*
X108477510Y-100644517D01*
X108644517Y-100477510D01*
X108783343Y-100286433D01*
X108843583Y-100168204D01*
X108891558Y-100117409D01*
X108954068Y-100100500D01*
X112545932Y-100100500D01*
X112612971Y-100120185D01*
X112656416Y-100168203D01*
X112716657Y-100286433D01*
X112855483Y-100477510D01*
X113022490Y-100644517D01*
X113213567Y-100783343D01*
X113312991Y-100834002D01*
X113424003Y-100890566D01*
X113424005Y-100890566D01*
X113424008Y-100890568D01*
X113544412Y-100929689D01*
X113648631Y-100963553D01*
X113881903Y-101000500D01*
X113881908Y-101000500D01*
X114118097Y-101000500D01*
X114351368Y-100963553D01*
X114575992Y-100890568D01*
X114786433Y-100783343D01*
X114977510Y-100644517D01*
X115144517Y-100477510D01*
X115283343Y-100286433D01*
X115343583Y-100168204D01*
X115391558Y-100117409D01*
X115454068Y-100100500D01*
X118413331Y-100100500D01*
X118413347Y-100100501D01*
X118420943Y-100100501D01*
X118579054Y-100100501D01*
X118579057Y-100100501D01*
X118731785Y-100059577D01*
X118781904Y-100030639D01*
X118868716Y-99980520D01*
X118980520Y-99868716D01*
X118980521Y-99868714D01*
X119014662Y-99834572D01*
X119075983Y-99801089D01*
X119078150Y-99800638D01*
X119136085Y-99789113D01*
X119233497Y-99769737D01*
X119379179Y-99709394D01*
X119510289Y-99621789D01*
X119621789Y-99510289D01*
X119709394Y-99379179D01*
X119769737Y-99233497D01*
X119800500Y-99078842D01*
X119800500Y-98921158D01*
X119800500Y-98921155D01*
X119800499Y-98921153D01*
X119782724Y-98831795D01*
X119769737Y-98766503D01*
X119769735Y-98766498D01*
X119709397Y-98620827D01*
X119709390Y-98620814D01*
X119621789Y-98489711D01*
X119621786Y-98489707D01*
X119510292Y-98378213D01*
X119510288Y-98378210D01*
X119379185Y-98290609D01*
X119379172Y-98290602D01*
X119233501Y-98230264D01*
X119233489Y-98230261D01*
X119078845Y-98199500D01*
X119078842Y-98199500D01*
X118921158Y-98199500D01*
X118921155Y-98199500D01*
X118766510Y-98230261D01*
X118766498Y-98230264D01*
X118620827Y-98290602D01*
X118620814Y-98290609D01*
X118489711Y-98378210D01*
X118489707Y-98378213D01*
X118378213Y-98489707D01*
X118378210Y-98489711D01*
X118290609Y-98620814D01*
X118290602Y-98620827D01*
X118230264Y-98766498D01*
X118230261Y-98766510D01*
X118223661Y-98799691D01*
X118191276Y-98861602D01*
X118130561Y-98896176D01*
X118102044Y-98899500D01*
X115454068Y-98899500D01*
X115387029Y-98879815D01*
X115343583Y-98831795D01*
X115283343Y-98713567D01*
X115144517Y-98522490D01*
X114977510Y-98355483D01*
X114786433Y-98216657D01*
X114575996Y-98109433D01*
X114351368Y-98036446D01*
X114118097Y-97999500D01*
X114118092Y-97999500D01*
X113881908Y-97999500D01*
X113881903Y-97999500D01*
X113648631Y-98036446D01*
X113424003Y-98109433D01*
X113213566Y-98216657D01*
X113111791Y-98290602D01*
X113022490Y-98355483D01*
X113022488Y-98355485D01*
X113022487Y-98355485D01*
X112855485Y-98522487D01*
X112855485Y-98522488D01*
X112855483Y-98522490D01*
X112795862Y-98604550D01*
X112716657Y-98713566D01*
X112689687Y-98766498D01*
X112672775Y-98799691D01*
X112656417Y-98831795D01*
X112608442Y-98882591D01*
X112545932Y-98899500D01*
X108954068Y-98899500D01*
X108887029Y-98879815D01*
X108843583Y-98831795D01*
X108783343Y-98713567D01*
X108644517Y-98522490D01*
X108477510Y-98355483D01*
X108286433Y-98216657D01*
X108075996Y-98109433D01*
X107851368Y-98036446D01*
X107618097Y-97999500D01*
X107618092Y-97999500D01*
X107381908Y-97999500D01*
X107381903Y-97999500D01*
X107148631Y-98036446D01*
X106924003Y-98109433D01*
X106713566Y-98216657D01*
X106611791Y-98290602D01*
X106522490Y-98355483D01*
X106522488Y-98355485D01*
X106522487Y-98355485D01*
X106355485Y-98522487D01*
X106355485Y-98522488D01*
X106355483Y-98522490D01*
X106295862Y-98604550D01*
X106216657Y-98713566D01*
X106109433Y-98924003D01*
X106036446Y-99148631D01*
X105999500Y-99381902D01*
X94500500Y-99381902D01*
X94500500Y-92743899D01*
X94520185Y-92676860D01*
X94572989Y-92631105D01*
X94642147Y-92621161D01*
X94693391Y-92640797D01*
X94827631Y-92730494D01*
X94827641Y-92730499D01*
X95018725Y-92809649D01*
X95018733Y-92809651D01*
X95221579Y-92849999D01*
X95221583Y-92850000D01*
X95375000Y-92850000D01*
X95375000Y-92100000D01*
X95875000Y-92100000D01*
X95875000Y-92850000D01*
X96028417Y-92850000D01*
X96028420Y-92849999D01*
X96231266Y-92809651D01*
X96231274Y-92809649D01*
X96422358Y-92730499D01*
X96422368Y-92730494D01*
X96594335Y-92615589D01*
X96594339Y-92615586D01*
X96740586Y-92469339D01*
X96740589Y-92469335D01*
X96855494Y-92297368D01*
X96855499Y-92297358D01*
X96934648Y-92106276D01*
X96934649Y-92106274D01*
X96945843Y-92050000D01*
X96091988Y-92050000D01*
X96109205Y-92040060D01*
X96165060Y-91984205D01*
X96204556Y-91915796D01*
X96225000Y-91839496D01*
X96225000Y-91760504D01*
X96204556Y-91684204D01*
X96165060Y-91615795D01*
X96109205Y-91559940D01*
X96091988Y-91550000D01*
X96945843Y-91550000D01*
X98104157Y-91550000D01*
X98958012Y-91550000D01*
X98940795Y-91559940D01*
X98884940Y-91615795D01*
X98845444Y-91684204D01*
X98825000Y-91760504D01*
X98825000Y-91839496D01*
X98845444Y-91915796D01*
X98884940Y-91984205D01*
X98940795Y-92040060D01*
X98958012Y-92050000D01*
X98104157Y-92050000D01*
X98115350Y-92106274D01*
X98115351Y-92106276D01*
X98194500Y-92297358D01*
X98194505Y-92297368D01*
X98309410Y-92469335D01*
X98309413Y-92469339D01*
X98455660Y-92615586D01*
X98455664Y-92615589D01*
X98627631Y-92730494D01*
X98627641Y-92730499D01*
X98818725Y-92809649D01*
X98818733Y-92809651D01*
X99021579Y-92849999D01*
X99021583Y-92850000D01*
X99175000Y-92850000D01*
X99175000Y-92100000D01*
X99675000Y-92100000D01*
X99675000Y-92850000D01*
X99828417Y-92850000D01*
X99828420Y-92849999D01*
X100031266Y-92809651D01*
X100031274Y-92809649D01*
X100222358Y-92730499D01*
X100222368Y-92730494D01*
X100394335Y-92615589D01*
X100394339Y-92615586D01*
X100540586Y-92469339D01*
X100540589Y-92469335D01*
X100655494Y-92297368D01*
X100655499Y-92297358D01*
X100734648Y-92106276D01*
X100734649Y-92106274D01*
X100745843Y-92050000D01*
X99891988Y-92050000D01*
X99909205Y-92040060D01*
X99965060Y-91984205D01*
X100004556Y-91915796D01*
X100025000Y-91839496D01*
X100025000Y-91760504D01*
X100004556Y-91684204D01*
X99965060Y-91615795D01*
X99909205Y-91559940D01*
X99891988Y-91550000D01*
X100745843Y-91550000D01*
X100734649Y-91493725D01*
X100734648Y-91493723D01*
X100655499Y-91302641D01*
X100655494Y-91302631D01*
X100540589Y-91130664D01*
X100540586Y-91130660D01*
X100394339Y-90984413D01*
X100394335Y-90984410D01*
X100222368Y-90869505D01*
X100222358Y-90869500D01*
X100031274Y-90790350D01*
X100031266Y-90790348D01*
X99828420Y-90750000D01*
X99675000Y-90750000D01*
X99675000Y-91500000D01*
X99175000Y-91500000D01*
X99175000Y-90750000D01*
X99021579Y-90750000D01*
X98818733Y-90790348D01*
X98818725Y-90790350D01*
X98627641Y-90869500D01*
X98627631Y-90869505D01*
X98455664Y-90984410D01*
X98455660Y-90984413D01*
X98309413Y-91130660D01*
X98309410Y-91130664D01*
X98194505Y-91302631D01*
X98194500Y-91302641D01*
X98115351Y-91493723D01*
X98115350Y-91493725D01*
X98104157Y-91550000D01*
X96945843Y-91550000D01*
X96934649Y-91493725D01*
X96934648Y-91493723D01*
X96855499Y-91302641D01*
X96855494Y-91302631D01*
X96740589Y-91130664D01*
X96740586Y-91130660D01*
X96594339Y-90984413D01*
X96594335Y-90984410D01*
X96422368Y-90869505D01*
X96422358Y-90869500D01*
X96231274Y-90790350D01*
X96231266Y-90790348D01*
X96028420Y-90750000D01*
X95875000Y-90750000D01*
X95875000Y-91500000D01*
X95375000Y-91500000D01*
X95375000Y-90750000D01*
X95221579Y-90750000D01*
X95018733Y-90790348D01*
X95018725Y-90790350D01*
X94827641Y-90869500D01*
X94827631Y-90869505D01*
X94693391Y-90959202D01*
X94626713Y-90980080D01*
X94559333Y-90961595D01*
X94512643Y-90909616D01*
X94500500Y-90856100D01*
X94500500Y-89943389D01*
X117089500Y-89943389D01*
X117089500Y-90116611D01*
X117116598Y-90287701D01*
X117170127Y-90452445D01*
X117248768Y-90606788D01*
X117350586Y-90746928D01*
X117473072Y-90869414D01*
X117613212Y-90971232D01*
X117767555Y-91049873D01*
X117932299Y-91103402D01*
X118103389Y-91130500D01*
X118132796Y-91130500D01*
X118199835Y-91150185D01*
X118220477Y-91166819D01*
X124823078Y-97769420D01*
X124963208Y-97871229D01*
X124963210Y-97871230D01*
X124963213Y-97871232D01*
X125033029Y-97906804D01*
X125117550Y-97949871D01*
X125117552Y-97949871D01*
X125117555Y-97949873D01*
X125282299Y-98003403D01*
X125282305Y-98003404D01*
X125282303Y-98003404D01*
X125453384Y-98030500D01*
X125453390Y-98030500D01*
X125626615Y-98030500D01*
X125695047Y-98019661D01*
X125797701Y-98003403D01*
X125962446Y-97949873D01*
X126116788Y-97871232D01*
X126134693Y-97858222D01*
X126256922Y-97769420D01*
X126256924Y-97769417D01*
X126256928Y-97769415D01*
X126379415Y-97646928D01*
X126379417Y-97646924D01*
X126379420Y-97646922D01*
X126481229Y-97506792D01*
X126481228Y-97506792D01*
X126481232Y-97506788D01*
X126559873Y-97352446D01*
X126613403Y-97187701D01*
X126629661Y-97085047D01*
X126640500Y-97016615D01*
X126640500Y-96843384D01*
X126613404Y-96672305D01*
X126613403Y-96672304D01*
X126613403Y-96672299D01*
X126559873Y-96507555D01*
X126559871Y-96507552D01*
X126559871Y-96507550D01*
X126481229Y-96353208D01*
X126379420Y-96213078D01*
X119356930Y-89190588D01*
X119356928Y-89190586D01*
X119216788Y-89088768D01*
X119062445Y-89010127D01*
X118897701Y-88956598D01*
X118897699Y-88956597D01*
X118897698Y-88956597D01*
X118766271Y-88935781D01*
X118726611Y-88929500D01*
X118103389Y-88929500D01*
X118063728Y-88935781D01*
X117932302Y-88956597D01*
X117767552Y-89010128D01*
X117613211Y-89088768D01*
X117533256Y-89146859D01*
X117473072Y-89190586D01*
X117473070Y-89190588D01*
X117473069Y-89190588D01*
X117350588Y-89313069D01*
X117350588Y-89313070D01*
X117350586Y-89313072D01*
X117306859Y-89373256D01*
X117248768Y-89453211D01*
X117170128Y-89607552D01*
X117116597Y-89772302D01*
X117089500Y-89943389D01*
X94500500Y-89943389D01*
X94500500Y-63438681D01*
X119449500Y-63438681D01*
X119449500Y-63781318D01*
X119487858Y-64121768D01*
X119487861Y-64121782D01*
X119564102Y-64455816D01*
X119564103Y-64455818D01*
X119677264Y-64779216D01*
X119825922Y-65087907D01*
X119825924Y-65087910D01*
X120008211Y-65378018D01*
X120221834Y-65645893D01*
X120464107Y-65888166D01*
X120731982Y-66101789D01*
X121022090Y-66284076D01*
X121330785Y-66432736D01*
X121654183Y-66545897D01*
X121988217Y-66622139D01*
X121988226Y-66622140D01*
X121988231Y-66622141D01*
X122215197Y-66647713D01*
X122328682Y-66660499D01*
X122328685Y-66660500D01*
X122328688Y-66660500D01*
X122671315Y-66660500D01*
X122671316Y-66660499D01*
X122845311Y-66640895D01*
X123011768Y-66622141D01*
X123011771Y-66622140D01*
X123011783Y-66622139D01*
X123345817Y-66545897D01*
X123669215Y-66432736D01*
X123977910Y-66284076D01*
X124268018Y-66101789D01*
X124535893Y-65888166D01*
X124778166Y-65645893D01*
X124991789Y-65378018D01*
X125174076Y-65087910D01*
X125322736Y-64779215D01*
X125435897Y-64455817D01*
X125512139Y-64121783D01*
X125550500Y-63781312D01*
X125550500Y-63438688D01*
X125550499Y-63438681D01*
X152449500Y-63438681D01*
X152449500Y-63781318D01*
X152487858Y-64121768D01*
X152487861Y-64121782D01*
X152564102Y-64455816D01*
X152564103Y-64455818D01*
X152677264Y-64779216D01*
X152825922Y-65087907D01*
X152825924Y-65087910D01*
X153008211Y-65378018D01*
X153221834Y-65645893D01*
X153464107Y-65888166D01*
X153731982Y-66101789D01*
X154022090Y-66284076D01*
X154330785Y-66432736D01*
X154654183Y-66545897D01*
X154988217Y-66622139D01*
X154988226Y-66622140D01*
X154988231Y-66622141D01*
X155215197Y-66647713D01*
X155328682Y-66660499D01*
X155328685Y-66660500D01*
X155328688Y-66660500D01*
X155671315Y-66660500D01*
X155671316Y-66660499D01*
X155845311Y-66640895D01*
X156011768Y-66622141D01*
X156011771Y-66622140D01*
X156011783Y-66622139D01*
X156345817Y-66545897D01*
X156669215Y-66432736D01*
X156977910Y-66284076D01*
X157268018Y-66101789D01*
X157535893Y-65888166D01*
X157778166Y-65645893D01*
X157991789Y-65378018D01*
X158174076Y-65087910D01*
X158322736Y-64779215D01*
X158435897Y-64455817D01*
X158512139Y-64121783D01*
X158550500Y-63781312D01*
X158550500Y-63438688D01*
X158512139Y-63098217D01*
X158435897Y-62764183D01*
X158322736Y-62440785D01*
X158174076Y-62132090D01*
X157991789Y-61841982D01*
X157778166Y-61574107D01*
X157535893Y-61331834D01*
X157268018Y-61118211D01*
X156977910Y-60935924D01*
X156977907Y-60935922D01*
X156669216Y-60787264D01*
X156345818Y-60674103D01*
X156345816Y-60674102D01*
X156088024Y-60615262D01*
X156011783Y-60597861D01*
X156011780Y-60597860D01*
X156011768Y-60597858D01*
X155671318Y-60559500D01*
X155671312Y-60559500D01*
X155328688Y-60559500D01*
X155328681Y-60559500D01*
X154988231Y-60597858D01*
X154988217Y-60597861D01*
X154654183Y-60674102D01*
X154654181Y-60674103D01*
X154330783Y-60787264D01*
X154022092Y-60935922D01*
X153731983Y-61118210D01*
X153464107Y-61331833D01*
X153221833Y-61574107D01*
X153008210Y-61841983D01*
X152825922Y-62132092D01*
X152677264Y-62440783D01*
X152564103Y-62764181D01*
X152564102Y-62764183D01*
X152487861Y-63098217D01*
X152487858Y-63098231D01*
X152449500Y-63438681D01*
X125550499Y-63438681D01*
X125512139Y-63098217D01*
X125435897Y-62764183D01*
X125322736Y-62440785D01*
X125174076Y-62132090D01*
X124991789Y-61841982D01*
X124778166Y-61574107D01*
X124535893Y-61331834D01*
X124268018Y-61118211D01*
X123977910Y-60935924D01*
X123977907Y-60935922D01*
X123669216Y-60787264D01*
X123345818Y-60674103D01*
X123345816Y-60674102D01*
X123088024Y-60615262D01*
X123011783Y-60597861D01*
X123011780Y-60597860D01*
X123011768Y-60597858D01*
X122671318Y-60559500D01*
X122671312Y-60559500D01*
X122328688Y-60559500D01*
X122328681Y-60559500D01*
X121988231Y-60597858D01*
X121988217Y-60597861D01*
X121654183Y-60674102D01*
X121654181Y-60674103D01*
X121330783Y-60787264D01*
X121022092Y-60935922D01*
X120731983Y-61118210D01*
X120464107Y-61331833D01*
X120221833Y-61574107D01*
X120008210Y-61841983D01*
X119825922Y-62132092D01*
X119677264Y-62440783D01*
X119564103Y-62764181D01*
X119564102Y-62764183D01*
X119487861Y-63098217D01*
X119487858Y-63098231D01*
X119449500Y-63438681D01*
X94500500Y-63438681D01*
X94500500Y-58751579D01*
X144925000Y-58751579D01*
X144925000Y-58805000D01*
X145651933Y-58805000D01*
X145650000Y-58812213D01*
X145650000Y-59297787D01*
X145651933Y-59305000D01*
X144925000Y-59305000D01*
X144925000Y-59358420D01*
X144965348Y-59561266D01*
X144965350Y-59561274D01*
X145044500Y-59752358D01*
X145044505Y-59752368D01*
X145159410Y-59924335D01*
X145159413Y-59924339D01*
X145305660Y-60070586D01*
X145305664Y-60070589D01*
X145477631Y-60185494D01*
X145477641Y-60185499D01*
X145668723Y-60264648D01*
X145668725Y-60264649D01*
X145725000Y-60275842D01*
X145725000Y-59464618D01*
X145775446Y-59515064D01*
X145849555Y-59557851D01*
X145932213Y-59580000D01*
X146017787Y-59580000D01*
X146100445Y-59557851D01*
X146174554Y-59515064D01*
X146225000Y-59464618D01*
X146225000Y-60275842D01*
X146281274Y-60264649D01*
X146281276Y-60264648D01*
X146472358Y-60185499D01*
X146472368Y-60185494D01*
X146644335Y-60070589D01*
X146644339Y-60070586D01*
X146790586Y-59924339D01*
X146790589Y-59924335D01*
X146905494Y-59752368D01*
X146905499Y-59752358D01*
X146984649Y-59561274D01*
X146984651Y-59561266D01*
X147024999Y-59358420D01*
X147025000Y-59358417D01*
X147025000Y-59305000D01*
X146298067Y-59305000D01*
X146300000Y-59297787D01*
X146300000Y-58812213D01*
X146298067Y-58805000D01*
X147025000Y-58805000D01*
X147025000Y-58751583D01*
X147024999Y-58751579D01*
X149765000Y-58751579D01*
X149765000Y-58805000D01*
X150491933Y-58805000D01*
X150490000Y-58812213D01*
X150490000Y-59297787D01*
X150491933Y-59305000D01*
X149765000Y-59305000D01*
X149765000Y-59358420D01*
X149805348Y-59561266D01*
X149805350Y-59561274D01*
X149884500Y-59752358D01*
X149884505Y-59752368D01*
X149999410Y-59924335D01*
X149999413Y-59924339D01*
X150145660Y-60070586D01*
X150145664Y-60070589D01*
X150317631Y-60185494D01*
X150317641Y-60185499D01*
X150508723Y-60264648D01*
X150508725Y-60264649D01*
X150565000Y-60275842D01*
X150565000Y-59464618D01*
X150615446Y-59515064D01*
X150689555Y-59557851D01*
X150772213Y-59580000D01*
X150857787Y-59580000D01*
X150940445Y-59557851D01*
X151014554Y-59515064D01*
X151065000Y-59464618D01*
X151065000Y-60275842D01*
X151121274Y-60264649D01*
X151121276Y-60264648D01*
X151312358Y-60185499D01*
X151312368Y-60185494D01*
X151484335Y-60070589D01*
X151484339Y-60070586D01*
X151630586Y-59924339D01*
X151630589Y-59924335D01*
X151745494Y-59752368D01*
X151745499Y-59752358D01*
X151824649Y-59561274D01*
X151824651Y-59561266D01*
X151864999Y-59358420D01*
X151865000Y-59358417D01*
X151865000Y-59305000D01*
X151138067Y-59305000D01*
X151140000Y-59297787D01*
X151140000Y-58812213D01*
X151138067Y-58805000D01*
X151865000Y-58805000D01*
X151865000Y-58751583D01*
X151864999Y-58751579D01*
X151824651Y-58548733D01*
X151824649Y-58548725D01*
X151745499Y-58357641D01*
X151745494Y-58357631D01*
X151630589Y-58185664D01*
X151630586Y-58185660D01*
X151484339Y-58039413D01*
X151484335Y-58039410D01*
X151312368Y-57924505D01*
X151312358Y-57924500D01*
X151121272Y-57845349D01*
X151121267Y-57845347D01*
X151065000Y-57834155D01*
X151065000Y-58645382D01*
X151014554Y-58594936D01*
X150940445Y-58552149D01*
X150857787Y-58530000D01*
X150772213Y-58530000D01*
X150689555Y-58552149D01*
X150615446Y-58594936D01*
X150565000Y-58645382D01*
X150565000Y-57834156D01*
X150564999Y-57834155D01*
X150508732Y-57845347D01*
X150508727Y-57845349D01*
X150317641Y-57924500D01*
X150317631Y-57924505D01*
X150145664Y-58039410D01*
X150145660Y-58039413D01*
X149999413Y-58185660D01*
X149999410Y-58185664D01*
X149884505Y-58357631D01*
X149884500Y-58357641D01*
X149805350Y-58548725D01*
X149805348Y-58548733D01*
X149765000Y-58751579D01*
X147024999Y-58751579D01*
X146984651Y-58548733D01*
X146984649Y-58548725D01*
X146905499Y-58357641D01*
X146905494Y-58357631D01*
X146790589Y-58185664D01*
X146790586Y-58185660D01*
X146644339Y-58039413D01*
X146644335Y-58039410D01*
X146472368Y-57924505D01*
X146472358Y-57924500D01*
X146281272Y-57845349D01*
X146281267Y-57845347D01*
X146225000Y-57834155D01*
X146225000Y-58645382D01*
X146174554Y-58594936D01*
X146100445Y-58552149D01*
X146017787Y-58530000D01*
X145932213Y-58530000D01*
X145849555Y-58552149D01*
X145775446Y-58594936D01*
X145725000Y-58645382D01*
X145725000Y-57834156D01*
X145724999Y-57834155D01*
X145668732Y-57845347D01*
X145668727Y-57845349D01*
X145477641Y-57924500D01*
X145477631Y-57924505D01*
X145305664Y-58039410D01*
X145305660Y-58039413D01*
X145159413Y-58185660D01*
X145159410Y-58185664D01*
X145044505Y-58357631D01*
X145044500Y-58357641D01*
X144965350Y-58548725D01*
X144965348Y-58548733D01*
X144925000Y-58751579D01*
X94500500Y-58751579D01*
X94500500Y-54624500D01*
X94520185Y-54557461D01*
X94572989Y-54511706D01*
X94624500Y-54500500D01*
X145325381Y-54500500D01*
X145392420Y-54520185D01*
G37*
%TD.AperFunction*%
%TD*%
M02*
