M48
; DRILL file {KiCad 9.0.5} date 2025-10-04T16:28:29-0400
; FORMAT={-:-/ absolute / metric / decimal}
; #@! TF.CreationDate,2025-10-04T16:28:29-04:00
; #@! TF.GenerationSoftware,Kicad,Pcbnew,9.0.5
; #@! TF.FileFunction,Plated,1,2,PTH
FMAT,2
METRIC
; #@! TA.AperFunction,Plated,PTH,ViaDrill
T1C0.300
; #@! TA.AperFunction,Plated,PTH,ComponentDrill
T2C0.800
; #@! TA.AperFunction,Plated,PTH,ComponentDrill
T3C0.900
; #@! TA.AperFunction,Plated,PTH,ComponentDrill
T4C1.000
; #@! TA.AperFunction,Plated,PTH,ComponentDrill
T5C1.100
; #@! TA.AperFunction,Plated,PTH,ComponentDrill
T6C1.500
%
G90
G05
T1
X93.237Y-41.95
X109.0Y-49.75
X115.25Y-52.0
X115.65Y-50.507
X115.65Y-51.307
X134.152Y-58.348
T2
X149.0Y-41.0
X149.0Y-43.0
X149.0Y-45.0
T3
X82.0Y-34.0
X83.0Y-44.0
X83.27Y-34.0
X84.27Y-44.0
X84.54Y-34.0
X85.54Y-44.0
X85.81Y-34.0
X86.81Y-44.0
X89.0Y-28.0
X89.095Y-54.0
X90.27Y-28.0
X90.365Y-54.0
X91.54Y-28.0
X91.635Y-54.0
X92.81Y-28.0
X92.905Y-54.0
X96.0Y-34.0
X96.095Y-63.0
X97.27Y-34.0
X97.365Y-63.0
X98.54Y-34.0
X98.635Y-63.0
X99.81Y-34.0
X99.905Y-63.0
X103.095Y-28.0
X103.095Y-54.0
X104.365Y-28.0
X104.365Y-54.0
X105.635Y-28.0
X105.635Y-54.0
X106.905Y-28.0
X106.905Y-54.0
X109.095Y-44.0
X110.0Y-34.0
X110.365Y-44.0
X111.27Y-34.0
X111.635Y-44.0
X112.54Y-34.0
X112.905Y-44.0
X113.81Y-34.0
T4
X124.11Y-24.157
X124.11Y-26.697
X124.11Y-29.237
X124.11Y-31.777
X124.11Y-34.317
X124.11Y-36.858
X124.11Y-39.398
X124.11Y-41.938
X124.11Y-44.477
X124.11Y-47.017
X124.11Y-49.557
X124.11Y-52.097
X124.11Y-54.637
X124.11Y-57.177
X124.11Y-59.717
X124.11Y-62.258
X124.11Y-64.797
X124.11Y-67.337
X124.11Y-69.877
X124.11Y-72.417
X141.89Y-24.157
X141.89Y-26.697
X141.89Y-29.237
X141.89Y-31.777
X141.89Y-34.317
X141.89Y-36.858
X141.89Y-39.398
X141.89Y-41.938
X141.89Y-44.477
X141.89Y-47.017
X141.89Y-49.557
X141.89Y-52.097
X141.89Y-54.637
X141.89Y-57.177
X141.89Y-59.717
X141.89Y-62.258
X141.89Y-64.797
X141.89Y-67.337
X141.89Y-69.877
X141.89Y-72.417
T5
X146.75Y-29.0
X146.75Y-35.5
X151.25Y-29.0
X151.25Y-35.5
T6
X149.0Y-38.9
X149.0Y-47.1
M30
