%TF.GenerationSoftware,KiCad,Pcbnew,9.0.5*%
%TF.CreationDate,2025-10-04T16:27:51-04:00*%
%TF.ProjectId,LightBoard-Gift,4c696768-7442-46f6-9172-642d47696674,rev?*%
%TF.SameCoordinates,Original*%
%TF.FileFunction,Copper,L1,Top*%
%TF.FilePolarity,Positive*%
%FSLAX46Y46*%
G04 Gerber Fmt 4.6, Leading zero omitted, Abs format (unit mm)*
G04 Created by KiCad (PCBNEW 9.0.5) date 2025-10-04 16:27:51*
%MOMM*%
%LPD*%
G01*
G04 APERTURE LIST*
G04 Aperture macros list*
%AMRoundRect*
0 Rectangle with rounded corners*
0 $1 Rounding radius*
0 $2 $3 $4 $5 $6 $7 $8 $9 X,Y pos of 4 corners*
0 Add a 4 corners polygon primitive as box body*
4,1,4,$2,$3,$4,$5,$6,$7,$8,$9,$2,$3,0*
0 Add four circle primitives for the rounded corners*
1,1,$1+$1,$2,$3*
1,1,$1+$1,$4,$5*
1,1,$1+$1,$6,$7*
1,1,$1+$1,$8,$9*
0 Add four rect primitives between the rounded corners*
20,1,$1+$1,$2,$3,$4,$5,0*
20,1,$1+$1,$4,$5,$6,$7,0*
20,1,$1+$1,$6,$7,$8,$9,0*
20,1,$1+$1,$8,$9,$2,$3,0*%
%AMFreePoly0*
4,1,37,0.603843,0.796157,0.639018,0.796157,0.711114,0.766294,0.766294,0.711114,0.796157,0.639018,0.796157,0.603843,0.800000,0.600000,0.800000,-0.600000,0.796157,-0.603843,0.796157,-0.639018,0.766294,-0.711114,0.711114,-0.766294,0.639018,-0.796157,0.603843,-0.796157,0.600000,-0.800000,0.000000,-0.800000,0.000000,-0.796148,-0.078414,-0.796148,-0.232228,-0.765552,-0.377117,-0.705537,
-0.507515,-0.618408,-0.618408,-0.507515,-0.705537,-0.377117,-0.765552,-0.232228,-0.796148,-0.078414,-0.796148,0.078414,-0.765552,0.232228,-0.705537,0.377117,-0.618408,0.507515,-0.507515,0.618408,-0.377117,0.705537,-0.232228,0.765552,-0.078414,0.796148,0.000000,0.796148,0.000000,0.800000,0.600000,0.800000,0.603843,0.796157,0.603843,0.796157,$1*%
%AMFreePoly1*
4,1,37,0.000000,0.796148,0.078414,0.796148,0.232228,0.765552,0.377117,0.705537,0.507515,0.618408,0.618408,0.507515,0.705537,0.377117,0.765552,0.232228,0.796148,0.078414,0.796148,-0.078414,0.765552,-0.232228,0.705537,-0.377117,0.618408,-0.507515,0.507515,-0.618408,0.377117,-0.705537,0.232228,-0.765552,0.078414,-0.796148,0.000000,-0.796148,0.000000,-0.800000,-0.600000,-0.800000,
-0.603843,-0.796157,-0.639018,-0.796157,-0.711114,-0.766294,-0.766294,-0.711114,-0.796157,-0.639018,-0.796157,-0.603843,-0.800000,-0.600000,-0.800000,0.600000,-0.796157,0.603843,-0.796157,0.639018,-0.766294,0.711114,-0.711114,0.766294,-0.639018,0.796157,-0.603843,0.796157,-0.600000,0.800000,0.000000,0.800000,0.000000,0.796148,0.000000,0.796148,$1*%
G04 Aperture macros list end*
%TA.AperFunction,ComponentPad*%
%ADD10R,1.070000X1.800000*%
%TD*%
%TA.AperFunction,ComponentPad*%
%ADD11O,1.070000X1.800000*%
%TD*%
%TA.AperFunction,ComponentPad*%
%ADD12C,2.000000*%
%TD*%
%TA.AperFunction,ComponentPad*%
%ADD13O,3.500000X2.200000*%
%TD*%
%TA.AperFunction,ComponentPad*%
%ADD14R,2.500000X1.500000*%
%TD*%
%TA.AperFunction,ComponentPad*%
%ADD15O,2.500000X1.500000*%
%TD*%
%TA.AperFunction,ComponentPad*%
%ADD16RoundRect,0.200000X0.600000X0.600000X-0.600000X0.600000X-0.600000X-0.600000X0.600000X-0.600000X0*%
%TD*%
%TA.AperFunction,ComponentPad*%
%ADD17C,1.600000*%
%TD*%
%TA.AperFunction,ComponentPad*%
%ADD18FreePoly0,180.000000*%
%TD*%
%TA.AperFunction,ComponentPad*%
%ADD19FreePoly1,180.000000*%
%TD*%
%TA.AperFunction,ViaPad*%
%ADD20C,0.600000*%
%TD*%
%TA.AperFunction,Conductor*%
%ADD21C,0.200000*%
%TD*%
G04 APERTURE END LIST*
D10*
%TO.P,D5,1,RA*%
%TO.N,Net-(D5-RA)*%
X96095000Y-63000000D03*
D11*
%TO.P,D5,2,K*%
%TO.N,GND*%
X97365000Y-63000000D03*
%TO.P,D5,3,GA*%
%TO.N,unconnected-(D5-GA-Pad3)*%
X98635000Y-63000000D03*
%TO.P,D5,4,BA*%
%TO.N,unconnected-(D5-BA-Pad4)*%
X99905000Y-63000000D03*
%TD*%
D10*
%TO.P,D6,1,RA*%
%TO.N,Net-(D6-RA)*%
X89095000Y-54000000D03*
D11*
%TO.P,D6,2,K*%
%TO.N,GND*%
X90365000Y-54000000D03*
%TO.P,D6,3,GA*%
%TO.N,unconnected-(D6-GA-Pad3)*%
X91635000Y-54000000D03*
%TO.P,D6,4,BA*%
%TO.N,unconnected-(D6-BA-Pad4)*%
X92905000Y-54000000D03*
%TD*%
D10*
%TO.P,D7,1,RA*%
%TO.N,Net-(D7-RA)*%
X83000000Y-44000000D03*
D11*
%TO.P,D7,2,K*%
%TO.N,GND*%
X84270000Y-44000000D03*
%TO.P,D7,3,GA*%
%TO.N,unconnected-(D7-GA-Pad3)*%
X85540000Y-44000000D03*
%TO.P,D7,4,BA*%
%TO.N,unconnected-(D7-BA-Pad4)*%
X86810000Y-44000000D03*
%TD*%
D12*
%TO.P,SW1,1,1*%
%TO.N,Net-(A1-GPIO0)*%
X151250000Y-29000000D03*
X151250000Y-35500000D03*
%TO.P,SW1,2,2*%
%TO.N,GND*%
X146750000Y-29000000D03*
X146750000Y-35500000D03*
%TD*%
D10*
%TO.P,D8,1,RA*%
%TO.N,Net-(D8-RA)*%
X82000000Y-34000000D03*
D11*
%TO.P,D8,2,K*%
%TO.N,GND*%
X83270000Y-34000000D03*
%TO.P,D8,3,GA*%
%TO.N,unconnected-(D8-GA-Pad3)*%
X84540000Y-34000000D03*
%TO.P,D8,4,BA*%
%TO.N,unconnected-(D8-BA-Pad4)*%
X85810000Y-34000000D03*
%TD*%
D10*
%TO.P,D2,1,RA*%
%TO.N,Net-(D2-RA)*%
X110000000Y-34000000D03*
D11*
%TO.P,D2,2,K*%
%TO.N,GND*%
X111270000Y-34000000D03*
%TO.P,D2,3,GA*%
%TO.N,unconnected-(D2-GA-Pad3)*%
X112540000Y-34000000D03*
%TO.P,D2,4,BA*%
%TO.N,unconnected-(D2-BA-Pad4)*%
X113810000Y-34000000D03*
%TD*%
D10*
%TO.P,D1,1,RA*%
%TO.N,Net-(D1-RA)*%
X103095000Y-28000000D03*
D11*
%TO.P,D1,2,K*%
%TO.N,GND*%
X104365000Y-28000000D03*
%TO.P,D1,3,GA*%
%TO.N,unconnected-(D1-GA-Pad3)*%
X105635000Y-28000000D03*
%TO.P,D1,4,BA*%
%TO.N,unconnected-(D1-BA-Pad4)*%
X106905000Y-28000000D03*
%TD*%
D13*
%TO.P,SW2,*%
%TO.N,*%
X149000000Y-47100000D03*
X149000000Y-38900000D03*
D14*
%TO.P,SW2,1,1*%
%TO.N,GND*%
X149000000Y-45000000D03*
D15*
%TO.P,SW2,2,2*%
%TO.N,Net-(A1-GPIO4)*%
X149000000Y-43000000D03*
%TO.P,SW2,3*%
%TO.N,N/C*%
X149000000Y-41000000D03*
%TD*%
D10*
%TO.P,D9,1,RA*%
%TO.N,Net-(D9-RA)*%
X89000000Y-28000000D03*
D11*
%TO.P,D9,2,K*%
%TO.N,GND*%
X90270000Y-28000000D03*
%TO.P,D9,3,GA*%
%TO.N,unconnected-(D9-GA-Pad3)*%
X91540000Y-28000000D03*
%TO.P,D9,4,BA*%
%TO.N,unconnected-(D9-BA-Pad4)*%
X92810000Y-28000000D03*
%TD*%
D10*
%TO.P,D0,1,RA*%
%TO.N,Net-(D0-RA)*%
X96000000Y-34000000D03*
D11*
%TO.P,D0,2,K*%
%TO.N,GND*%
X97270000Y-34000000D03*
%TO.P,D0,3,GA*%
%TO.N,unconnected-(D0-GA-Pad3)*%
X98540000Y-34000000D03*
%TO.P,D0,4,BA*%
%TO.N,unconnected-(D0-BA-Pad4)*%
X99810000Y-34000000D03*
%TD*%
D10*
%TO.P,D3,1,RA*%
%TO.N,Net-(D3-RA)*%
X109095000Y-44000000D03*
D11*
%TO.P,D3,2,K*%
%TO.N,GND*%
X110365000Y-44000000D03*
%TO.P,D3,3,GA*%
%TO.N,unconnected-(D3-GA-Pad3)*%
X111635000Y-44000000D03*
%TO.P,D3,4,BA*%
%TO.N,unconnected-(D3-BA-Pad4)*%
X112905000Y-44000000D03*
%TD*%
D10*
%TO.P,D4,1,RA*%
%TO.N,Net-(D4-RA)*%
X103095000Y-54000000D03*
D11*
%TO.P,D4,2,K*%
%TO.N,GND*%
X104365000Y-54000000D03*
%TO.P,D4,3,GA*%
%TO.N,unconnected-(D4-GA-Pad3)*%
X105635000Y-54000000D03*
%TO.P,D4,4,BA*%
%TO.N,unconnected-(D4-BA-Pad4)*%
X106905000Y-54000000D03*
%TD*%
D16*
%TO.P,A1,1,GPIO0*%
%TO.N,Net-(A1-GPIO0)*%
X141890000Y-24157500D03*
D17*
%TO.P,A1,2,GPIO1*%
%TO.N,unconnected-(A1-GPIO1-Pad2)*%
X141890000Y-26697500D03*
D18*
%TO.P,A1,3,GND*%
%TO.N,GND*%
X141890000Y-29237500D03*
D17*
%TO.P,A1,4,GPIO2*%
%TO.N,unconnected-(A1-GPIO2-Pad4)*%
X141890000Y-31777500D03*
%TO.P,A1,5,GPIO3*%
%TO.N,unconnected-(A1-GPIO3-Pad5)*%
X141890000Y-34317500D03*
%TO.P,A1,6,GPIO4*%
%TO.N,Net-(A1-GPIO4)*%
X141890000Y-36857500D03*
%TO.P,A1,7,GPIO5*%
%TO.N,unconnected-(A1-GPIO5-Pad7)*%
X141890000Y-39397500D03*
D18*
%TO.P,A1,8,GND*%
%TO.N,GND*%
X141890000Y-41937500D03*
D17*
%TO.P,A1,9,GPIO6*%
%TO.N,unconnected-(A1-GPIO6-Pad9)*%
X141890000Y-44477500D03*
%TO.P,A1,10,GPIO7*%
%TO.N,unconnected-(A1-GPIO7-Pad10)*%
X141890000Y-47017500D03*
%TO.P,A1,11,GPIO8*%
%TO.N,unconnected-(A1-GPIO8-Pad11)*%
X141890000Y-49557500D03*
%TO.P,A1,12,GPIO9*%
%TO.N,unconnected-(A1-GPIO9-Pad12)*%
X141890000Y-52097500D03*
D18*
%TO.P,A1,13,GND*%
%TO.N,GND*%
X141890000Y-54637500D03*
D17*
%TO.P,A1,14,GPIO10*%
%TO.N,unconnected-(A1-GPIO10-Pad14)*%
X141890000Y-57177500D03*
%TO.P,A1,15,GPIO11*%
%TO.N,unconnected-(A1-GPIO11-Pad15)*%
X141890000Y-59717500D03*
%TO.P,A1,16,GPIO12*%
%TO.N,unconnected-(A1-GPIO12-Pad16)*%
X141890000Y-62257500D03*
%TO.P,A1,17,GPIO13*%
%TO.N,RED9*%
X141890000Y-64797500D03*
D18*
%TO.P,A1,18,GND*%
%TO.N,GND*%
X141890000Y-67337500D03*
D17*
%TO.P,A1,19,GPIO14*%
%TO.N,RED8*%
X141890000Y-69877500D03*
%TO.P,A1,20,GPIO15*%
%TO.N,RED7*%
X141890000Y-72417500D03*
%TO.P,A1,21,GPIO16*%
%TO.N,RED5*%
X124110000Y-72417500D03*
%TO.P,A1,22,GPIO17*%
%TO.N,RED4*%
X124110000Y-69877500D03*
D19*
%TO.P,A1,23,GND*%
%TO.N,GND*%
X124110000Y-67337500D03*
D17*
%TO.P,A1,24,GPIO18*%
%TO.N,RED3*%
X124110000Y-64797500D03*
%TO.P,A1,25,GPIO19*%
%TO.N,RED2*%
X124110000Y-62257500D03*
%TO.P,A1,26,GPIO20*%
%TO.N,RED1*%
X124110000Y-59717500D03*
%TO.P,A1,27,GPIO21*%
%TO.N,RED0*%
X124110000Y-57177500D03*
D19*
%TO.P,A1,28,GND*%
%TO.N,GND*%
X124110000Y-54637500D03*
D17*
%TO.P,A1,29,GPIO22*%
%TO.N,RED6*%
X124110000Y-52097500D03*
%TO.P,A1,30,RUN*%
%TO.N,unconnected-(A1-RUN-Pad30)*%
X124110000Y-49557500D03*
%TO.P,A1,31,GPIO26_ADC0*%
%TO.N,unconnected-(A1-GPIO26_ADC0-Pad31)*%
X124110000Y-47017500D03*
%TO.P,A1,32,GPIO27_ADC1*%
%TO.N,unconnected-(A1-GPIO27_ADC1-Pad32)*%
X124110000Y-44477500D03*
D19*
%TO.P,A1,33,AGND*%
%TO.N,unconnected-(A1-AGND-Pad33)*%
X124110000Y-41937500D03*
D17*
%TO.P,A1,34,GPIO28_ADC2*%
%TO.N,unconnected-(A1-GPIO28_ADC2-Pad34)*%
X124110000Y-39397500D03*
%TO.P,A1,35,ADC_VREF*%
%TO.N,unconnected-(A1-ADC_VREF-Pad35)*%
X124110000Y-36857500D03*
%TO.P,A1,36,3V3*%
%TO.N,unconnected-(A1-3V3-Pad36)*%
X124110000Y-34317500D03*
%TO.P,A1,37,3V3_EN*%
%TO.N,unconnected-(A1-3V3_EN-Pad37)*%
X124110000Y-31777500D03*
D19*
%TO.P,A1,38,GND*%
%TO.N,GND*%
X124110000Y-29237500D03*
D17*
%TO.P,A1,39,VSYS*%
%TO.N,unconnected-(A1-VSYS-Pad39)*%
X124110000Y-26697500D03*
%TO.P,A1,40,VBUS*%
%TO.N,unconnected-(A1-VBUS-Pad40)*%
X124110000Y-24157500D03*
%TD*%
D20*
%TO.N,RED7*%
X115650000Y-51307179D03*
%TO.N,RED6*%
X115250000Y-52000000D03*
%TO.N,RED0*%
X109000000Y-49750000D03*
%TO.N,RED8*%
X134151933Y-58348067D03*
X115650000Y-50507176D03*
%TO.N,RED9*%
X93237497Y-41949997D03*
%TD*%
D21*
%TO.N,RED7*%
X140784000Y-65828664D02*
X140784000Y-71311500D01*
X123653950Y-50996500D02*
X125951836Y-50996500D01*
X125951836Y-50996500D02*
X140784000Y-65828664D01*
X115650000Y-51307179D02*
X123343271Y-51307179D01*
X140784000Y-71311500D02*
X141890000Y-72417500D01*
X123343271Y-51307179D02*
X123653950Y-50996500D01*
%TO.N,RED6*%
X115347500Y-52097500D02*
X124110000Y-52097500D01*
X115250000Y-52000000D02*
X115347500Y-52097500D01*
%TO.N,RED0*%
X116427500Y-57177500D02*
X124110000Y-57177500D01*
X109000000Y-49750000D02*
X116427500Y-57177500D01*
%TO.N,GND*%
X146750000Y-29000000D02*
X142127500Y-29000000D01*
X97365000Y-58000000D02*
X97365000Y-56912717D01*
X104365000Y-28365000D02*
X108799000Y-32799000D01*
X146262500Y-29237500D02*
X146500000Y-29000000D01*
X97270000Y-34000000D02*
X97270000Y-32000000D01*
X86646000Y-30646000D02*
X86452500Y-30452500D01*
X104365000Y-55100000D02*
X101465000Y-58000000D01*
X104365000Y-50767000D02*
X110365000Y-44767000D01*
X104365000Y-29100000D02*
X104365000Y-28000000D01*
X97365000Y-56912717D02*
X90452283Y-50000000D01*
X111270000Y-34000000D02*
X111270000Y-33635000D01*
X86452500Y-30452500D02*
X86857500Y-30047500D01*
X90365000Y-50000000D02*
X90365000Y-54000000D01*
X146750000Y-35500000D02*
X146750000Y-29000000D01*
X110365000Y-47964943D02*
X117037557Y-54637500D01*
X111270000Y-33635000D02*
X115925000Y-28980000D01*
X84270000Y-43635000D02*
X86646000Y-41259000D01*
X93905000Y-32000000D02*
X97270000Y-32000000D01*
X84270000Y-44000000D02*
X84270000Y-43635000D01*
X86857500Y-30047500D02*
X91952500Y-30047500D01*
X104264000Y-29201000D02*
X104365000Y-29100000D01*
X90270000Y-28365000D02*
X91952500Y-30047500D01*
X97270000Y-31788000D02*
X99857000Y-29201000D01*
X90452283Y-50000000D02*
X90365000Y-50000000D01*
X110365000Y-44000000D02*
X110365000Y-47964943D01*
X117037557Y-54637500D02*
X124110000Y-54637500D01*
X104365000Y-54000000D02*
X104365000Y-55100000D01*
X110365000Y-44767000D02*
X110365000Y-44000000D01*
X104365000Y-54000000D02*
X104365000Y-50767000D01*
X97365000Y-63000000D02*
X97365000Y-58000000D01*
X97270000Y-32000000D02*
X97270000Y-31788000D01*
X91952500Y-30047500D02*
X93905000Y-32000000D01*
X104365000Y-28000000D02*
X104365000Y-28365000D01*
X90270000Y-28000000D02*
X90270000Y-28365000D01*
X90365000Y-44978000D02*
X90365000Y-50000000D01*
X83270000Y-34000000D02*
X83270000Y-33635000D01*
X111270000Y-32900000D02*
X111270000Y-34000000D01*
X99857000Y-29201000D02*
X104264000Y-29201000D01*
X142127500Y-29000000D02*
X141890000Y-29237500D01*
X86646000Y-41259000D02*
X86646000Y-30646000D01*
X101465000Y-58000000D02*
X97365000Y-58000000D01*
X86646000Y-41259000D02*
X90365000Y-44978000D01*
X83270000Y-33635000D02*
X86452500Y-30452500D01*
X111169000Y-32799000D02*
X111270000Y-32900000D01*
X108799000Y-32799000D02*
X111169000Y-32799000D01*
%TO.N,RED8*%
X124566050Y-48456500D02*
X117700676Y-48456500D01*
X115650000Y-50507176D02*
X115694297Y-50551473D01*
X117700676Y-48456500D02*
X115650000Y-50507176D01*
X134151933Y-58042383D02*
X124566050Y-48456500D01*
X134151933Y-58348067D02*
X134151933Y-58042383D01*
%TO.N,RED9*%
X125211000Y-46561450D02*
X124228050Y-45578500D01*
X119541500Y-45578500D02*
X115912997Y-41949997D01*
X125211000Y-48118500D02*
X125211000Y-46561450D01*
X141890000Y-64797500D02*
X125211000Y-48118500D01*
X115912997Y-41949997D02*
X93237497Y-41949997D01*
X124228050Y-45578500D02*
X119541500Y-45578500D01*
%TO.N,Net-(A1-GPIO0)*%
X151250000Y-29000000D02*
X151250000Y-35500000D01*
X141890000Y-24157500D02*
X146407500Y-24157500D01*
X146407500Y-24157500D02*
X151250000Y-29000000D01*
%TD*%
%TA.AperFunction,Conductor*%
%TO.N,GND*%
G36*
X123557338Y-22770185D02*
G01*
X123603093Y-22822989D01*
X123613037Y-22892147D01*
X123584012Y-22955703D01*
X123546594Y-22984985D01*
X123428385Y-23045215D01*
X123262786Y-23165528D01*
X123118028Y-23310286D01*
X122997715Y-23475886D01*
X122904781Y-23658276D01*
X122841522Y-23852965D01*
X122809500Y-24055148D01*
X122809500Y-24259851D01*
X122841522Y-24462034D01*
X122904781Y-24656723D01*
X122956385Y-24758000D01*
X122984976Y-24814113D01*
X122997715Y-24839113D01*
X123118028Y-25004713D01*
X123262786Y-25149471D01*
X123410630Y-25256884D01*
X123428390Y-25269787D01*
X123513139Y-25312969D01*
X123521080Y-25317015D01*
X123571876Y-25364990D01*
X123588671Y-25432811D01*
X123566134Y-25498946D01*
X123521080Y-25537985D01*
X123428386Y-25585215D01*
X123262786Y-25705528D01*
X123118028Y-25850286D01*
X122997715Y-26015886D01*
X122904781Y-26198276D01*
X122841522Y-26392965D01*
X122809500Y-26595148D01*
X122809500Y-26799851D01*
X122841522Y-27002034D01*
X122904781Y-27196723D01*
X122997715Y-27379113D01*
X123118028Y-27544713D01*
X123262786Y-27689471D01*
X123428388Y-27809786D01*
X123428390Y-27809787D01*
X123514294Y-27853557D01*
X123565090Y-27901531D01*
X123581886Y-27969352D01*
X123559349Y-28035487D01*
X123516455Y-28073399D01*
X123450497Y-28108655D01*
X123381086Y-28155034D01*
X123381085Y-28155034D01*
X123980589Y-28754537D01*
X123917007Y-28771575D01*
X123802993Y-28837401D01*
X123709901Y-28930493D01*
X123644075Y-29044507D01*
X123627037Y-29108088D01*
X123027534Y-28508585D01*
X123027534Y-28508586D01*
X122981158Y-28577993D01*
X122934490Y-28665301D01*
X122874185Y-28810887D01*
X122845444Y-28905635D01*
X122814701Y-29060197D01*
X122814701Y-29060200D01*
X122805000Y-29158710D01*
X122805000Y-29316289D01*
X122814701Y-29414799D01*
X122814701Y-29414802D01*
X122845444Y-29569364D01*
X122874185Y-29664112D01*
X122934490Y-29809698D01*
X122981155Y-29897001D01*
X122981161Y-29897011D01*
X123027534Y-29966412D01*
X123627037Y-29366910D01*
X123644075Y-29430493D01*
X123709901Y-29544507D01*
X123802993Y-29637599D01*
X123917007Y-29703425D01*
X123980589Y-29720462D01*
X123381085Y-30319965D01*
X123450488Y-30366338D01*
X123450498Y-30366344D01*
X123516454Y-30401599D01*
X123566298Y-30450562D01*
X123581758Y-30518700D01*
X123557926Y-30584379D01*
X123514295Y-30621442D01*
X123428386Y-30665215D01*
X123262786Y-30785528D01*
X123118028Y-30930286D01*
X122997715Y-31095886D01*
X122904781Y-31278276D01*
X122841522Y-31472965D01*
X122809500Y-31675148D01*
X122809500Y-31879851D01*
X122841522Y-32082034D01*
X122904781Y-32276723D01*
X122997715Y-32459113D01*
X123118028Y-32624713D01*
X123262786Y-32769471D01*
X123417749Y-32882056D01*
X123428390Y-32889787D01*
X123519840Y-32936383D01*
X123521080Y-32937015D01*
X123571876Y-32984990D01*
X123588671Y-33052811D01*
X123566134Y-33118946D01*
X123521080Y-33157985D01*
X123428386Y-33205215D01*
X123262786Y-33325528D01*
X123118028Y-33470286D01*
X122997715Y-33635886D01*
X122904781Y-33818276D01*
X122841522Y-34012965D01*
X122809500Y-34215148D01*
X122809500Y-34419851D01*
X122841522Y-34622034D01*
X122904781Y-34816723D01*
X122959543Y-34924197D01*
X122991788Y-34987482D01*
X122997715Y-34999113D01*
X123118028Y-35164713D01*
X123262786Y-35309471D01*
X123417749Y-35422056D01*
X123428390Y-35429787D01*
X123519840Y-35476383D01*
X123521080Y-35477015D01*
X123571876Y-35524990D01*
X123588671Y-35592811D01*
X123566134Y-35658946D01*
X123521080Y-35697985D01*
X123428386Y-35745215D01*
X123262786Y-35865528D01*
X123118028Y-36010286D01*
X122997715Y-36175886D01*
X122904781Y-36358276D01*
X122841522Y-36552965D01*
X122809500Y-36755148D01*
X122809500Y-36959851D01*
X122841522Y-37162034D01*
X122904781Y-37356723D01*
X122997715Y-37539113D01*
X123118028Y-37704713D01*
X123262786Y-37849471D01*
X123417749Y-37962056D01*
X123428390Y-37969787D01*
X123519840Y-38016383D01*
X123521080Y-38017015D01*
X123571876Y-38064990D01*
X123588671Y-38132811D01*
X123566134Y-38198946D01*
X123521080Y-38237985D01*
X123428386Y-38285215D01*
X123262786Y-38405528D01*
X123118028Y-38550286D01*
X122997715Y-38715886D01*
X122904781Y-38898276D01*
X122841522Y-39092965D01*
X122809500Y-39295148D01*
X122809500Y-39499851D01*
X122841522Y-39702034D01*
X122904781Y-39896723D01*
X122997715Y-40079113D01*
X123118028Y-40244713D01*
X123262786Y-40389471D01*
X123428385Y-40509784D01*
X123428387Y-40509785D01*
X123428390Y-40509787D01*
X123513754Y-40553282D01*
X123564550Y-40601257D01*
X123581345Y-40669078D01*
X123558808Y-40735212D01*
X123515914Y-40773124D01*
X123450228Y-40808234D01*
X123450200Y-40808251D01*
X123319206Y-40895778D01*
X123319194Y-40895787D01*
X123319189Y-40895790D01*
X123319189Y-40895791D01*
X123242588Y-40958657D01*
X123242585Y-40958660D01*
X123242582Y-40958662D01*
X123131162Y-41070082D01*
X123131160Y-41070085D01*
X123131157Y-41070088D01*
X123102959Y-41104447D01*
X123068287Y-41146694D01*
X123068278Y-41146706D01*
X122980751Y-41277700D01*
X122980734Y-41277728D01*
X122934031Y-41365103D01*
X122934029Y-41365108D01*
X122873722Y-41510700D01*
X122865623Y-41537401D01*
X122844956Y-41605532D01*
X122844955Y-41605536D01*
X122844955Y-41605537D01*
X122814211Y-41760099D01*
X122814211Y-41760102D01*
X122808839Y-41814648D01*
X122804500Y-41858707D01*
X122804500Y-42016293D01*
X122805736Y-42028839D01*
X122814211Y-42114897D01*
X122814211Y-42114900D01*
X122814213Y-42114910D01*
X122844956Y-42269468D01*
X122863066Y-42329169D01*
X122873722Y-42364299D01*
X122934029Y-42509891D01*
X122934031Y-42509896D01*
X122980734Y-42597271D01*
X122980751Y-42597299D01*
X123068278Y-42728293D01*
X123068286Y-42728304D01*
X123068291Y-42728311D01*
X123131157Y-42804912D01*
X123242588Y-42916343D01*
X123319189Y-42979209D01*
X123319198Y-42979215D01*
X123319206Y-42979221D01*
X123450200Y-43066748D01*
X123450205Y-43066751D01*
X123450217Y-43066759D01*
X123450226Y-43066763D01*
X123450228Y-43066765D01*
X123515912Y-43101874D01*
X123565757Y-43150836D01*
X123581217Y-43218974D01*
X123557385Y-43284654D01*
X123513755Y-43321716D01*
X123428388Y-43365213D01*
X123262786Y-43485528D01*
X123118028Y-43630286D01*
X122997715Y-43795886D01*
X122904781Y-43978276D01*
X122841522Y-44172965D01*
X122809500Y-44375148D01*
X122809500Y-44579851D01*
X122841523Y-44782035D01*
X122841524Y-44782042D01*
X122852455Y-44815683D01*
X122854450Y-44885524D01*
X122818369Y-44945356D01*
X122755668Y-44976184D01*
X122734524Y-44978000D01*
X119841597Y-44978000D01*
X119774558Y-44958315D01*
X119753916Y-44941681D01*
X116400587Y-41588352D01*
X116400585Y-41588349D01*
X116281714Y-41469478D01*
X116281713Y-41469477D01*
X116194901Y-41419357D01*
X116194901Y-41419356D01*
X116194897Y-41419355D01*
X116144782Y-41390420D01*
X115992054Y-41349496D01*
X115833940Y-41349496D01*
X115826344Y-41349496D01*
X115826328Y-41349497D01*
X93817263Y-41349497D01*
X93750224Y-41329812D01*
X93748372Y-41328599D01*
X93616682Y-41240606D01*
X93616669Y-41240599D01*
X93470998Y-41180261D01*
X93470986Y-41180258D01*
X93316342Y-41149497D01*
X93316339Y-41149497D01*
X93158655Y-41149497D01*
X93158652Y-41149497D01*
X93004007Y-41180258D01*
X93003995Y-41180261D01*
X92858324Y-41240599D01*
X92858311Y-41240606D01*
X92727208Y-41328207D01*
X92727204Y-41328210D01*
X92615710Y-41439704D01*
X92615707Y-41439708D01*
X92528106Y-41570811D01*
X92528099Y-41570824D01*
X92467761Y-41716495D01*
X92467758Y-41716507D01*
X92436997Y-41871150D01*
X92436997Y-42028843D01*
X92467758Y-42183486D01*
X92467761Y-42183498D01*
X92528099Y-42329169D01*
X92528106Y-42329182D01*
X92615707Y-42460285D01*
X92615710Y-42460289D01*
X92727204Y-42571783D01*
X92727208Y-42571786D01*
X92858311Y-42659387D01*
X92858324Y-42659394D01*
X93003995Y-42719732D01*
X93004000Y-42719734D01*
X93150164Y-42748808D01*
X93158650Y-42750496D01*
X93158653Y-42750497D01*
X93158655Y-42750497D01*
X93316341Y-42750497D01*
X93316342Y-42750496D01*
X93470994Y-42719734D01*
X93583663Y-42673064D01*
X93616669Y-42659394D01*
X93616669Y-42659393D01*
X93616676Y-42659391D01*
X93646035Y-42639774D01*
X93748372Y-42571395D01*
X93815050Y-42550517D01*
X93817263Y-42550497D01*
X108098431Y-42550497D01*
X108165470Y-42570182D01*
X108211225Y-42622986D01*
X108221169Y-42692144D01*
X108197697Y-42748808D01*
X108116206Y-42857664D01*
X108116202Y-42857671D01*
X108065908Y-42992517D01*
X108059501Y-43052116D01*
X108059501Y-43052123D01*
X108059500Y-43052135D01*
X108059500Y-44947870D01*
X108059501Y-44947876D01*
X108065908Y-45007483D01*
X108116202Y-45142328D01*
X108116206Y-45142335D01*
X108202452Y-45257544D01*
X108202455Y-45257547D01*
X108317664Y-45343793D01*
X108317671Y-45343797D01*
X108452517Y-45394091D01*
X108452516Y-45394091D01*
X108459444Y-45394835D01*
X108512127Y-45400500D01*
X109677872Y-45400499D01*
X109737483Y-45394091D01*
X109872331Y-45343796D01*
X109872335Y-45343792D01*
X109880118Y-45339544D01*
X109881190Y-45341507D01*
X109935082Y-45321401D01*
X109991394Y-45330523D01*
X110063101Y-45360225D01*
X110063109Y-45360227D01*
X110114999Y-45370549D01*
X110115000Y-45370549D01*
X110115000Y-45054230D01*
X110122819Y-45010895D01*
X110124089Y-45007488D01*
X110124091Y-45007483D01*
X110130500Y-44947873D01*
X110130499Y-44384226D01*
X110191306Y-44419333D01*
X110305756Y-44450000D01*
X110424244Y-44450000D01*
X110538694Y-44419333D01*
X110599500Y-44384226D01*
X110599500Y-44466989D01*
X110612617Y-44532929D01*
X110615000Y-44557122D01*
X110615000Y-45370549D01*
X110666890Y-45360227D01*
X110666898Y-45360225D01*
X110855252Y-45282206D01*
X110855256Y-45282204D01*
X110930658Y-45231822D01*
X110997336Y-45210944D01*
X111064716Y-45229428D01*
X111068401Y-45231796D01*
X111144507Y-45282648D01*
X111144509Y-45282649D01*
X111144513Y-45282651D01*
X111332951Y-45360704D01*
X111332956Y-45360706D01*
X111332960Y-45360706D01*
X111332961Y-45360707D01*
X111533009Y-45400500D01*
X111533012Y-45400500D01*
X111736990Y-45400500D01*
X111871579Y-45373727D01*
X111937044Y-45360706D01*
X112125493Y-45282648D01*
X112201109Y-45232123D01*
X112267786Y-45211245D01*
X112335166Y-45229729D01*
X112338891Y-45232123D01*
X112414501Y-45282644D01*
X112414507Y-45282648D01*
X112414509Y-45282649D01*
X112414513Y-45282651D01*
X112602951Y-45360704D01*
X112602956Y-45360706D01*
X112602960Y-45360706D01*
X112602961Y-45360707D01*
X112803009Y-45400500D01*
X112803012Y-45400500D01*
X113006990Y-45400500D01*
X113141579Y-45373727D01*
X113207044Y-45360706D01*
X113395493Y-45282648D01*
X113396158Y-45282204D01*
X113471109Y-45232123D01*
X113565093Y-45169325D01*
X113709325Y-45025093D01*
X113822648Y-44855493D01*
X113900706Y-44667044D01*
X113922571Y-44557122D01*
X113940500Y-44466990D01*
X113940500Y-43533009D01*
X113900707Y-43332961D01*
X113900706Y-43332960D01*
X113900706Y-43332956D01*
X113895361Y-43320052D01*
X113822651Y-43144513D01*
X113822644Y-43144500D01*
X113709325Y-42974907D01*
X113709322Y-42974903D01*
X113565096Y-42830677D01*
X113565092Y-42830674D01*
X113485660Y-42777599D01*
X113440855Y-42723987D01*
X113432148Y-42654662D01*
X113462303Y-42591634D01*
X113521746Y-42554915D01*
X113554551Y-42550497D01*
X115612900Y-42550497D01*
X115679939Y-42570182D01*
X115700581Y-42586816D01*
X119056639Y-45942874D01*
X119056649Y-45942885D01*
X119060979Y-45947215D01*
X119060980Y-45947216D01*
X119172784Y-46059020D01*
X119259595Y-46109139D01*
X119259597Y-46109141D01*
X119297651Y-46131111D01*
X119309715Y-46138077D01*
X119462443Y-46179000D01*
X122875303Y-46179000D01*
X122942342Y-46198685D01*
X122988097Y-46251489D01*
X122998041Y-46320647D01*
X122985788Y-46359292D01*
X122967177Y-46395818D01*
X122904781Y-46518276D01*
X122841522Y-46712965D01*
X122809500Y-46915148D01*
X122809500Y-47119851D01*
X122841522Y-47322034D01*
X122904781Y-47516723D01*
X122985788Y-47675705D01*
X122998684Y-47744374D01*
X122972408Y-47809114D01*
X122915302Y-47849372D01*
X122875303Y-47856000D01*
X117787346Y-47856000D01*
X117787330Y-47855999D01*
X117779734Y-47855999D01*
X117621619Y-47855999D01*
X117514263Y-47884765D01*
X117468886Y-47896924D01*
X117468885Y-47896925D01*
X117418772Y-47925859D01*
X117418771Y-47925860D01*
X117396275Y-47938848D01*
X117331961Y-47975979D01*
X117331958Y-47975981D01*
X115635339Y-49672601D01*
X115574016Y-49706086D01*
X115571850Y-49706537D01*
X115416508Y-49737437D01*
X115416498Y-49737440D01*
X115270827Y-49797778D01*
X115270814Y-49797785D01*
X115139711Y-49885386D01*
X115139707Y-49885389D01*
X115028213Y-49996883D01*
X115028210Y-49996887D01*
X114940609Y-50127990D01*
X114940602Y-50128003D01*
X114880264Y-50273674D01*
X114880261Y-50273686D01*
X114849500Y-50428329D01*
X114849500Y-50586022D01*
X114880261Y-50740665D01*
X114880264Y-50740677D01*
X114929575Y-50859725D01*
X114937044Y-50929194D01*
X114929575Y-50954629D01*
X114880264Y-51073677D01*
X114880261Y-51073689D01*
X114849500Y-51228332D01*
X114849500Y-51238572D01*
X114829815Y-51305611D01*
X114794392Y-51341674D01*
X114739707Y-51378213D01*
X114628213Y-51489707D01*
X114628210Y-51489711D01*
X114540609Y-51620814D01*
X114540602Y-51620827D01*
X114480264Y-51766498D01*
X114480261Y-51766510D01*
X114449500Y-51921153D01*
X114449500Y-52078846D01*
X114480261Y-52233489D01*
X114480264Y-52233501D01*
X114540602Y-52379172D01*
X114540609Y-52379185D01*
X114628210Y-52510288D01*
X114628213Y-52510292D01*
X114739707Y-52621786D01*
X114739711Y-52621789D01*
X114870814Y-52709390D01*
X114870827Y-52709397D01*
X115012737Y-52768177D01*
X115016503Y-52769737D01*
X115171153Y-52800499D01*
X115171156Y-52800500D01*
X115171158Y-52800500D01*
X115328844Y-52800500D01*
X115328845Y-52800499D01*
X115483497Y-52769737D01*
X115549362Y-52742455D01*
X115633900Y-52707439D01*
X115681352Y-52698000D01*
X122880398Y-52698000D01*
X122947437Y-52717685D01*
X122990882Y-52765704D01*
X122992143Y-52768178D01*
X122997715Y-52779114D01*
X123118028Y-52944713D01*
X123262786Y-53089471D01*
X123428388Y-53209786D01*
X123428390Y-53209787D01*
X123514294Y-53253557D01*
X123565090Y-53301531D01*
X123581886Y-53369352D01*
X123559349Y-53435487D01*
X123516455Y-53473399D01*
X123450497Y-53508655D01*
X123381086Y-53555034D01*
X123381085Y-53555034D01*
X123980589Y-54154537D01*
X123917007Y-54171575D01*
X123802993Y-54237401D01*
X123709901Y-54330493D01*
X123644075Y-54444507D01*
X123627037Y-54508088D01*
X123027534Y-53908585D01*
X123027534Y-53908586D01*
X122981158Y-53977993D01*
X122934490Y-54065301D01*
X122874185Y-54210887D01*
X122845444Y-54305635D01*
X122814701Y-54460197D01*
X122814701Y-54460200D01*
X122805000Y-54558710D01*
X122805000Y-54716289D01*
X122814701Y-54814799D01*
X122814701Y-54814802D01*
X122845444Y-54969364D01*
X122874185Y-55064112D01*
X122934490Y-55209698D01*
X122981155Y-55297001D01*
X122981161Y-55297011D01*
X123027534Y-55366412D01*
X123627037Y-54766910D01*
X123644075Y-54830493D01*
X123709901Y-54944507D01*
X123802993Y-55037599D01*
X123917007Y-55103425D01*
X123980589Y-55120462D01*
X123381085Y-55719965D01*
X123450488Y-55766338D01*
X123450498Y-55766344D01*
X123516454Y-55801599D01*
X123566298Y-55850562D01*
X123581758Y-55918700D01*
X123557926Y-55984379D01*
X123514295Y-56021442D01*
X123428386Y-56065215D01*
X123262786Y-56185528D01*
X123118028Y-56330286D01*
X122997715Y-56495885D01*
X122990883Y-56509295D01*
X122942909Y-56560091D01*
X122880398Y-56577000D01*
X116727597Y-56577000D01*
X116660558Y-56557315D01*
X116639916Y-56540681D01*
X109834574Y-49735339D01*
X109801089Y-49674016D01*
X109800638Y-49671849D01*
X109769738Y-49516510D01*
X109769737Y-49516503D01*
X109744323Y-49455148D01*
X109709397Y-49370827D01*
X109709390Y-49370814D01*
X109621789Y-49239711D01*
X109621786Y-49239707D01*
X109510292Y-49128213D01*
X109510288Y-49128210D01*
X109379185Y-49040609D01*
X109379172Y-49040602D01*
X109233501Y-48980264D01*
X109233489Y-48980261D01*
X109078845Y-48949500D01*
X109078842Y-48949500D01*
X108921158Y-48949500D01*
X108921155Y-48949500D01*
X108766510Y-48980261D01*
X108766498Y-48980264D01*
X108620827Y-49040602D01*
X108620814Y-49040609D01*
X108489711Y-49128210D01*
X108489707Y-49128213D01*
X108378213Y-49239707D01*
X108378210Y-49239711D01*
X108290609Y-49370814D01*
X108290602Y-49370827D01*
X108230264Y-49516498D01*
X108230261Y-49516510D01*
X108199500Y-49671153D01*
X108199500Y-49828846D01*
X108230261Y-49983489D01*
X108230264Y-49983501D01*
X108290602Y-50129172D01*
X108290609Y-50129185D01*
X108378210Y-50260288D01*
X108378213Y-50260292D01*
X108489707Y-50371786D01*
X108489711Y-50371789D01*
X108620814Y-50459390D01*
X108620827Y-50459397D01*
X108761322Y-50517591D01*
X108766503Y-50519737D01*
X108831147Y-50532595D01*
X108921849Y-50550638D01*
X108983760Y-50583023D01*
X108985339Y-50584574D01*
X115942639Y-57541874D01*
X115942649Y-57541885D01*
X115946979Y-57546215D01*
X115946980Y-57546216D01*
X116058784Y-57658020D01*
X116127282Y-57697567D01*
X116195715Y-57737077D01*
X116348442Y-57778000D01*
X116348443Y-57778000D01*
X122880398Y-57778000D01*
X122947437Y-57797685D01*
X122990883Y-57845705D01*
X122997715Y-57859114D01*
X123118028Y-58024713D01*
X123262786Y-58169471D01*
X123417749Y-58282056D01*
X123428390Y-58289787D01*
X123519840Y-58336383D01*
X123521080Y-58337015D01*
X123571876Y-58384990D01*
X123588671Y-58452811D01*
X123566134Y-58518946D01*
X123521080Y-58557985D01*
X123428386Y-58605215D01*
X123262786Y-58725528D01*
X123118028Y-58870286D01*
X122997715Y-59035886D01*
X122904781Y-59218276D01*
X122841522Y-59412965D01*
X122809500Y-59615148D01*
X122809500Y-59819851D01*
X122841522Y-60022034D01*
X122904781Y-60216723D01*
X122997715Y-60399113D01*
X123118028Y-60564713D01*
X123262786Y-60709471D01*
X123417749Y-60822056D01*
X123428390Y-60829787D01*
X123519840Y-60876383D01*
X123521080Y-60877015D01*
X123571876Y-60924990D01*
X123588671Y-60992811D01*
X123566134Y-61058946D01*
X123521080Y-61097985D01*
X123428386Y-61145215D01*
X123262786Y-61265528D01*
X123118028Y-61410286D01*
X122997715Y-61575886D01*
X122904781Y-61758276D01*
X122841522Y-61952965D01*
X122809500Y-62155148D01*
X122809500Y-62359851D01*
X122841522Y-62562034D01*
X122904781Y-62756723D01*
X122997715Y-62939113D01*
X123118028Y-63104713D01*
X123262786Y-63249471D01*
X123415043Y-63360090D01*
X123428390Y-63369787D01*
X123519840Y-63416383D01*
X123521080Y-63417015D01*
X123571876Y-63464990D01*
X123588671Y-63532811D01*
X123566134Y-63598946D01*
X123521080Y-63637985D01*
X123428386Y-63685215D01*
X123262786Y-63805528D01*
X123118028Y-63950286D01*
X122997715Y-64115886D01*
X122904781Y-64298276D01*
X122841522Y-64492965D01*
X122809500Y-64695148D01*
X122809500Y-64899851D01*
X122841522Y-65102034D01*
X122904781Y-65296723D01*
X122997715Y-65479113D01*
X123118028Y-65644713D01*
X123262786Y-65789471D01*
X123428388Y-65909786D01*
X123428390Y-65909787D01*
X123514294Y-65953557D01*
X123565090Y-66001531D01*
X123581886Y-66069352D01*
X123559349Y-66135487D01*
X123516455Y-66173399D01*
X123450497Y-66208655D01*
X123381086Y-66255034D01*
X123381085Y-66255034D01*
X123980589Y-66854537D01*
X123917007Y-66871575D01*
X123802993Y-66937401D01*
X123709901Y-67030493D01*
X123644075Y-67144507D01*
X123627037Y-67208088D01*
X123027534Y-66608585D01*
X123027534Y-66608586D01*
X122981158Y-66677993D01*
X122934490Y-66765301D01*
X122874185Y-66910887D01*
X122845444Y-67005635D01*
X122814701Y-67160197D01*
X122814701Y-67160200D01*
X122805000Y-67258710D01*
X122805000Y-67416289D01*
X122814701Y-67514799D01*
X122814701Y-67514802D01*
X122845444Y-67669364D01*
X122874185Y-67764112D01*
X122934490Y-67909698D01*
X122981155Y-67997001D01*
X122981161Y-67997011D01*
X123027534Y-68066412D01*
X123627037Y-67466910D01*
X123644075Y-67530493D01*
X123709901Y-67644507D01*
X123802993Y-67737599D01*
X123917007Y-67803425D01*
X123980589Y-67820462D01*
X123381085Y-68419965D01*
X123450488Y-68466338D01*
X123450498Y-68466344D01*
X123516454Y-68501599D01*
X123566298Y-68550562D01*
X123581758Y-68618700D01*
X123557926Y-68684379D01*
X123514295Y-68721442D01*
X123428386Y-68765215D01*
X123262786Y-68885528D01*
X123118028Y-69030286D01*
X122997715Y-69195886D01*
X122904781Y-69378276D01*
X122841522Y-69572965D01*
X122809500Y-69775148D01*
X122809500Y-69979851D01*
X122841522Y-70182034D01*
X122904781Y-70376723D01*
X122997715Y-70559113D01*
X123118028Y-70724713D01*
X123262786Y-70869471D01*
X123401004Y-70969890D01*
X123428390Y-70989787D01*
X123519840Y-71036383D01*
X123521080Y-71037015D01*
X123571876Y-71084990D01*
X123588671Y-71152811D01*
X123566134Y-71218946D01*
X123521080Y-71257985D01*
X123428386Y-71305215D01*
X123262786Y-71425528D01*
X123118028Y-71570286D01*
X122997715Y-71735886D01*
X122904781Y-71918276D01*
X122841522Y-72112965D01*
X122809500Y-72315148D01*
X122809500Y-72519851D01*
X122841522Y-72722034D01*
X122904781Y-72916723D01*
X122997715Y-73099113D01*
X123118028Y-73264713D01*
X123262786Y-73409471D01*
X123417749Y-73522056D01*
X123428390Y-73529787D01*
X123544607Y-73589003D01*
X123610776Y-73622718D01*
X123610778Y-73622718D01*
X123610781Y-73622720D01*
X123715137Y-73656627D01*
X123805465Y-73685977D01*
X123906557Y-73701988D01*
X124007648Y-73718000D01*
X124007649Y-73718000D01*
X124212351Y-73718000D01*
X124212352Y-73718000D01*
X124414534Y-73685977D01*
X124609219Y-73622720D01*
X124791610Y-73529787D01*
X124884590Y-73462232D01*
X124957213Y-73409471D01*
X124957215Y-73409468D01*
X124957219Y-73409466D01*
X125101966Y-73264719D01*
X125101968Y-73264715D01*
X125101971Y-73264713D01*
X125154732Y-73192090D01*
X125222287Y-73099110D01*
X125315220Y-72916719D01*
X125378477Y-72722034D01*
X125410500Y-72519852D01*
X125410500Y-72315148D01*
X125378477Y-72112966D01*
X125315220Y-71918281D01*
X125315218Y-71918278D01*
X125315218Y-71918276D01*
X125254489Y-71799090D01*
X125222287Y-71735890D01*
X125184413Y-71683760D01*
X125101971Y-71570286D01*
X124957213Y-71425528D01*
X124791614Y-71305215D01*
X124766029Y-71292179D01*
X124698917Y-71257983D01*
X124648123Y-71210011D01*
X124631328Y-71142190D01*
X124653865Y-71076055D01*
X124698917Y-71037016D01*
X124791610Y-70989787D01*
X124818996Y-70969890D01*
X124957213Y-70869471D01*
X124957215Y-70869468D01*
X124957219Y-70869466D01*
X125101966Y-70724719D01*
X125101968Y-70724715D01*
X125101971Y-70724713D01*
X125156615Y-70649500D01*
X125222287Y-70559110D01*
X125315220Y-70376719D01*
X125378477Y-70182034D01*
X125410500Y-69979852D01*
X125410500Y-69775148D01*
X125378477Y-69572966D01*
X125315220Y-69378281D01*
X125315218Y-69378278D01*
X125315218Y-69378276D01*
X125281503Y-69312107D01*
X125222287Y-69195890D01*
X125214556Y-69185249D01*
X125101971Y-69030286D01*
X124957217Y-68885532D01*
X124880415Y-68829732D01*
X124837750Y-68774402D01*
X124831771Y-68704788D01*
X124864377Y-68642994D01*
X124922640Y-68609265D01*
X124943039Y-68604059D01*
X124999584Y-68580636D01*
X124999584Y-68580635D01*
X124239410Y-67820462D01*
X124302993Y-67803425D01*
X124417007Y-67737599D01*
X124510099Y-67644507D01*
X124575925Y-67530493D01*
X124592962Y-67466911D01*
X125353135Y-68227084D01*
X125353136Y-68227084D01*
X125376552Y-68170553D01*
X125394544Y-68119553D01*
X125414999Y-67977280D01*
X125415000Y-67977279D01*
X125415000Y-66697714D01*
X125412106Y-66643737D01*
X125412106Y-66643735D01*
X125376561Y-66504469D01*
X125376559Y-66504462D01*
X125353135Y-66447914D01*
X124592962Y-67208088D01*
X124575925Y-67144507D01*
X124510099Y-67030493D01*
X124417007Y-66937401D01*
X124302993Y-66871575D01*
X124239410Y-66854537D01*
X124999584Y-66094362D01*
X124943059Y-66070949D01*
X124943048Y-66070945D01*
X124914374Y-66060829D01*
X124857703Y-66019962D01*
X124832122Y-65954943D01*
X124845754Y-65886416D01*
X124882745Y-65843574D01*
X124957215Y-65789469D01*
X124957215Y-65789468D01*
X124957219Y-65789466D01*
X125101966Y-65644719D01*
X125101968Y-65644715D01*
X125101971Y-65644713D01*
X125154732Y-65572090D01*
X125222287Y-65479110D01*
X125315220Y-65296719D01*
X125378477Y-65102034D01*
X125410500Y-64899852D01*
X125410500Y-64695148D01*
X125390151Y-64566669D01*
X125378477Y-64492965D01*
X125335502Y-64360704D01*
X125315220Y-64298281D01*
X125315218Y-64298278D01*
X125315218Y-64298276D01*
X125270873Y-64211245D01*
X125222287Y-64115890D01*
X125177489Y-64054230D01*
X125101971Y-63950286D01*
X124957213Y-63805528D01*
X124791614Y-63685215D01*
X124755951Y-63667044D01*
X124698917Y-63637983D01*
X124648123Y-63590011D01*
X124631328Y-63522190D01*
X124653865Y-63456055D01*
X124698917Y-63417016D01*
X124791610Y-63369787D01*
X124920277Y-63276306D01*
X124957213Y-63249471D01*
X124957215Y-63249468D01*
X124957219Y-63249466D01*
X125101966Y-63104719D01*
X125101968Y-63104715D01*
X125101971Y-63104713D01*
X125154732Y-63032090D01*
X125222287Y-62939110D01*
X125315220Y-62756719D01*
X125378477Y-62562034D01*
X125410500Y-62359852D01*
X125410500Y-62155148D01*
X125408815Y-62144507D01*
X125378477Y-61952965D01*
X125333294Y-61813908D01*
X125315220Y-61758281D01*
X125315218Y-61758278D01*
X125315218Y-61758276D01*
X125273777Y-61676945D01*
X125222287Y-61575890D01*
X125214556Y-61565249D01*
X125101971Y-61410286D01*
X124957213Y-61265528D01*
X124791614Y-61145215D01*
X124785006Y-61141848D01*
X124698917Y-61097983D01*
X124648123Y-61050011D01*
X124631328Y-60982190D01*
X124653865Y-60916055D01*
X124698917Y-60877016D01*
X124791610Y-60829787D01*
X124812770Y-60814413D01*
X124957213Y-60709471D01*
X124957215Y-60709468D01*
X124957219Y-60709466D01*
X125101966Y-60564719D01*
X125101968Y-60564715D01*
X125101971Y-60564713D01*
X125154732Y-60492090D01*
X125222287Y-60399110D01*
X125315220Y-60216719D01*
X125378477Y-60022034D01*
X125410500Y-59819852D01*
X125410500Y-59615148D01*
X125378477Y-59412966D01*
X125315220Y-59218281D01*
X125315218Y-59218278D01*
X125315218Y-59218276D01*
X125281503Y-59152107D01*
X125222287Y-59035890D01*
X125193837Y-58996731D01*
X125101971Y-58870286D01*
X124957213Y-58725528D01*
X124791614Y-58605215D01*
X124785006Y-58601848D01*
X124698917Y-58557983D01*
X124648123Y-58510011D01*
X124631328Y-58442190D01*
X124653865Y-58376055D01*
X124698917Y-58337016D01*
X124791610Y-58289787D01*
X124812770Y-58274413D01*
X124957213Y-58169471D01*
X124957215Y-58169468D01*
X124957219Y-58169466D01*
X125101966Y-58024719D01*
X125101968Y-58024715D01*
X125101971Y-58024713D01*
X125154732Y-57952090D01*
X125222287Y-57859110D01*
X125315220Y-57676719D01*
X125378477Y-57482034D01*
X125410500Y-57279852D01*
X125410500Y-57075148D01*
X125378477Y-56872966D01*
X125315220Y-56678281D01*
X125315218Y-56678278D01*
X125315218Y-56678276D01*
X125281503Y-56612107D01*
X125222287Y-56495890D01*
X125214556Y-56485249D01*
X125101971Y-56330286D01*
X124957217Y-56185532D01*
X124880415Y-56129732D01*
X124837750Y-56074402D01*
X124831771Y-56004788D01*
X124864377Y-55942994D01*
X124922640Y-55909265D01*
X124943039Y-55904059D01*
X124999584Y-55880636D01*
X124999584Y-55880635D01*
X124239410Y-55120462D01*
X124302993Y-55103425D01*
X124417007Y-55037599D01*
X124510099Y-54944507D01*
X124575925Y-54830493D01*
X124592962Y-54766911D01*
X125353135Y-55527084D01*
X125353136Y-55527084D01*
X125376552Y-55470553D01*
X125394544Y-55419553D01*
X125414999Y-55277280D01*
X125415000Y-55277279D01*
X125415000Y-53997714D01*
X125412106Y-53943737D01*
X125412106Y-53943735D01*
X125376561Y-53804469D01*
X125376559Y-53804462D01*
X125353135Y-53747914D01*
X124592962Y-54508088D01*
X124575925Y-54444507D01*
X124510099Y-54330493D01*
X124417007Y-54237401D01*
X124302993Y-54171575D01*
X124239410Y-54154537D01*
X124999584Y-53394362D01*
X124943059Y-53370949D01*
X124943048Y-53370945D01*
X124914374Y-53360829D01*
X124857703Y-53319962D01*
X124832122Y-53254943D01*
X124845754Y-53186416D01*
X124882745Y-53143574D01*
X124957215Y-53089469D01*
X124957215Y-53089468D01*
X124957219Y-53089466D01*
X125101966Y-52944719D01*
X125101968Y-52944715D01*
X125101971Y-52944713D01*
X125154732Y-52872090D01*
X125222287Y-52779110D01*
X125312872Y-52601327D01*
X125315218Y-52596723D01*
X125315218Y-52596722D01*
X125315220Y-52596719D01*
X125378477Y-52402034D01*
X125410500Y-52199852D01*
X125410500Y-51995148D01*
X125378477Y-51792966D01*
X125378475Y-51792962D01*
X125378475Y-51792957D01*
X125367545Y-51759317D01*
X125366741Y-51731198D01*
X125362738Y-51703353D01*
X125365757Y-51696741D01*
X125365550Y-51689476D01*
X125380076Y-51665387D01*
X125391763Y-51639797D01*
X125397878Y-51635866D01*
X125401631Y-51629644D01*
X125426873Y-51617233D01*
X125450541Y-51602023D01*
X125460813Y-51600546D01*
X125464332Y-51598816D01*
X125485476Y-51597000D01*
X125651739Y-51597000D01*
X125718778Y-51616685D01*
X125739420Y-51633319D01*
X139181920Y-65075819D01*
X139215405Y-65137142D01*
X139210421Y-65206834D01*
X139168549Y-65262767D01*
X139103085Y-65287184D01*
X139094239Y-65287500D01*
X125900000Y-65287500D01*
X125900000Y-69627395D01*
X130552057Y-73240163D01*
X130592931Y-73296827D01*
X130600000Y-73338097D01*
X130600000Y-74287500D01*
X130600319Y-74287819D01*
X130633804Y-74349142D01*
X130628820Y-74418834D01*
X130586948Y-74474767D01*
X130521484Y-74499184D01*
X130512638Y-74499500D01*
X77124500Y-74499500D01*
X77057461Y-74479815D01*
X77011706Y-74427011D01*
X77000500Y-74375500D01*
X77000500Y-71893713D01*
X77649500Y-71893713D01*
X77649500Y-72106286D01*
X77682753Y-72316239D01*
X77748444Y-72518414D01*
X77844951Y-72707820D01*
X77969890Y-72879786D01*
X78120213Y-73030109D01*
X78292179Y-73155048D01*
X78292181Y-73155049D01*
X78292184Y-73155051D01*
X78481588Y-73251557D01*
X78683757Y-73317246D01*
X78893713Y-73350500D01*
X78893714Y-73350500D01*
X79106286Y-73350500D01*
X79106287Y-73350500D01*
X79316243Y-73317246D01*
X79518412Y-73251557D01*
X79707816Y-73155051D01*
X79784813Y-73099110D01*
X79879786Y-73030109D01*
X79879788Y-73030106D01*
X79879792Y-73030104D01*
X80030104Y-72879792D01*
X80030106Y-72879788D01*
X80030109Y-72879786D01*
X80155048Y-72707820D01*
X80155047Y-72707820D01*
X80155051Y-72707816D01*
X80251557Y-72518412D01*
X80317246Y-72316243D01*
X80350500Y-72106287D01*
X80350500Y-71893713D01*
X80317246Y-71683757D01*
X80251557Y-71481588D01*
X80155051Y-71292184D01*
X80155049Y-71292181D01*
X80155048Y-71292179D01*
X80030109Y-71120213D01*
X79879786Y-70969890D01*
X79707820Y-70844951D01*
X79518414Y-70748444D01*
X79518413Y-70748443D01*
X79518412Y-70748443D01*
X79316243Y-70682754D01*
X79316241Y-70682753D01*
X79316240Y-70682753D01*
X79154957Y-70657208D01*
X79106287Y-70649500D01*
X78893713Y-70649500D01*
X78845042Y-70657208D01*
X78683760Y-70682753D01*
X78481585Y-70748444D01*
X78292179Y-70844951D01*
X78120213Y-70969890D01*
X77969890Y-71120213D01*
X77844951Y-71292179D01*
X77748444Y-71481585D01*
X77682753Y-71683760D01*
X77649500Y-71893713D01*
X77000500Y-71893713D01*
X77000500Y-62052135D01*
X95059500Y-62052135D01*
X95059500Y-63947870D01*
X95059501Y-63947876D01*
X95065908Y-64007483D01*
X95116202Y-64142328D01*
X95116206Y-64142335D01*
X95202452Y-64257544D01*
X95202455Y-64257547D01*
X95317664Y-64343793D01*
X95317671Y-64343797D01*
X95452517Y-64394091D01*
X95452516Y-64394091D01*
X95459444Y-64394835D01*
X95512127Y-64400500D01*
X96677872Y-64400499D01*
X96737483Y-64394091D01*
X96872331Y-64343796D01*
X96872335Y-64343792D01*
X96880118Y-64339544D01*
X96881190Y-64341507D01*
X96935082Y-64321401D01*
X96991394Y-64330523D01*
X97063101Y-64360225D01*
X97063109Y-64360227D01*
X97114999Y-64370549D01*
X97115000Y-64370549D01*
X97115000Y-64054230D01*
X97122819Y-64010895D01*
X97124089Y-64007488D01*
X97124091Y-64007483D01*
X97130500Y-63947873D01*
X97130499Y-63384226D01*
X97191306Y-63419333D01*
X97305756Y-63450000D01*
X97424244Y-63450000D01*
X97538694Y-63419333D01*
X97599500Y-63384226D01*
X97599500Y-63466988D01*
X97612593Y-63532811D01*
X97612617Y-63532929D01*
X97615000Y-63557122D01*
X97615000Y-64370549D01*
X97666890Y-64360227D01*
X97666898Y-64360225D01*
X97855252Y-64282206D01*
X97855256Y-64282204D01*
X97930658Y-64231822D01*
X97997336Y-64210944D01*
X98064716Y-64229428D01*
X98068401Y-64231796D01*
X98144507Y-64282648D01*
X98144509Y-64282649D01*
X98144513Y-64282651D01*
X98332075Y-64360341D01*
X98332956Y-64360706D01*
X98332960Y-64360706D01*
X98332961Y-64360707D01*
X98533009Y-64400500D01*
X98533012Y-64400500D01*
X98736990Y-64400500D01*
X98887560Y-64370549D01*
X98937044Y-64360706D01*
X99125493Y-64282648D01*
X99201109Y-64232123D01*
X99267786Y-64211245D01*
X99335166Y-64229729D01*
X99338891Y-64232123D01*
X99414501Y-64282644D01*
X99414507Y-64282648D01*
X99414509Y-64282649D01*
X99414513Y-64282651D01*
X99602075Y-64360341D01*
X99602956Y-64360706D01*
X99602960Y-64360706D01*
X99602961Y-64360707D01*
X99803009Y-64400500D01*
X99803012Y-64400500D01*
X100006990Y-64400500D01*
X100157560Y-64370549D01*
X100207044Y-64360706D01*
X100395493Y-64282648D01*
X100396158Y-64282204D01*
X100471109Y-64232123D01*
X100565093Y-64169325D01*
X100709325Y-64025093D01*
X100822648Y-63855493D01*
X100900706Y-63667044D01*
X100922571Y-63557122D01*
X100940500Y-63466990D01*
X100940500Y-62533009D01*
X100900707Y-62332961D01*
X100900706Y-62332960D01*
X100900706Y-62332956D01*
X100827056Y-62155148D01*
X100822651Y-62144513D01*
X100822644Y-62144500D01*
X100709325Y-61974907D01*
X100709322Y-61974903D01*
X100565096Y-61830677D01*
X100565092Y-61830674D01*
X100395499Y-61717355D01*
X100395486Y-61717348D01*
X100207048Y-61639295D01*
X100207038Y-61639292D01*
X100006990Y-61599500D01*
X100006988Y-61599500D01*
X99803012Y-61599500D01*
X99803010Y-61599500D01*
X99602961Y-61639292D01*
X99602951Y-61639295D01*
X99414509Y-61717350D01*
X99338891Y-61767877D01*
X99272213Y-61788755D01*
X99204833Y-61770270D01*
X99201109Y-61767877D01*
X99126154Y-61717794D01*
X99125493Y-61717352D01*
X99125492Y-61717351D01*
X99125490Y-61717350D01*
X98937048Y-61639295D01*
X98937038Y-61639292D01*
X98736990Y-61599500D01*
X98736988Y-61599500D01*
X98533012Y-61599500D01*
X98533010Y-61599500D01*
X98332961Y-61639292D01*
X98332951Y-61639295D01*
X98144511Y-61717349D01*
X98068438Y-61768178D01*
X98001760Y-61789054D01*
X97934380Y-61770568D01*
X97930659Y-61768177D01*
X97855254Y-61717794D01*
X97666896Y-61639773D01*
X97666893Y-61639772D01*
X97615000Y-61629449D01*
X97615000Y-62442876D01*
X97612617Y-62467068D01*
X97599501Y-62533009D01*
X97599500Y-62533012D01*
X97599500Y-62615773D01*
X97538694Y-62580667D01*
X97424244Y-62550000D01*
X97305756Y-62550000D01*
X97191306Y-62580667D01*
X97130499Y-62615773D01*
X97130499Y-62052128D01*
X97124091Y-61992517D01*
X97122818Y-61989103D01*
X97115000Y-61945771D01*
X97115000Y-61629450D01*
X97114999Y-61629449D01*
X97063106Y-61639772D01*
X97063099Y-61639774D01*
X96991393Y-61669476D01*
X96921924Y-61676945D01*
X96880867Y-61659074D01*
X96880114Y-61660454D01*
X96872328Y-61656202D01*
X96737482Y-61605908D01*
X96737483Y-61605908D01*
X96677883Y-61599501D01*
X96677881Y-61599500D01*
X96677873Y-61599500D01*
X96677864Y-61599500D01*
X95512129Y-61599500D01*
X95512123Y-61599501D01*
X95452516Y-61605908D01*
X95317671Y-61656202D01*
X95317664Y-61656206D01*
X95202455Y-61742452D01*
X95202452Y-61742455D01*
X95116206Y-61857664D01*
X95116202Y-61857671D01*
X95065908Y-61992517D01*
X95059501Y-62052116D01*
X95059501Y-62052123D01*
X95059500Y-62052135D01*
X77000500Y-62052135D01*
X77000500Y-53052135D01*
X88059500Y-53052135D01*
X88059500Y-54947870D01*
X88059501Y-54947876D01*
X88065908Y-55007483D01*
X88116202Y-55142328D01*
X88116206Y-55142335D01*
X88202452Y-55257544D01*
X88202455Y-55257547D01*
X88317664Y-55343793D01*
X88317671Y-55343797D01*
X88452517Y-55394091D01*
X88452516Y-55394091D01*
X88459444Y-55394835D01*
X88512127Y-55400500D01*
X89677872Y-55400499D01*
X89737483Y-55394091D01*
X89872331Y-55343796D01*
X89872335Y-55343792D01*
X89880118Y-55339544D01*
X89881190Y-55341507D01*
X89935082Y-55321401D01*
X89991394Y-55330523D01*
X90063101Y-55360225D01*
X90063109Y-55360227D01*
X90114999Y-55370549D01*
X90115000Y-55370549D01*
X90115000Y-55054230D01*
X90122819Y-55010895D01*
X90124089Y-55007488D01*
X90124091Y-55007483D01*
X90130500Y-54947873D01*
X90130499Y-54384226D01*
X90191306Y-54419333D01*
X90305756Y-54450000D01*
X90424244Y-54450000D01*
X90538694Y-54419333D01*
X90599500Y-54384226D01*
X90599500Y-54466989D01*
X90612617Y-54532929D01*
X90615000Y-54557122D01*
X90615000Y-55370549D01*
X90666890Y-55360227D01*
X90666898Y-55360225D01*
X90855252Y-55282206D01*
X90855256Y-55282204D01*
X90930658Y-55231822D01*
X90997336Y-55210944D01*
X91064716Y-55229428D01*
X91068401Y-55231796D01*
X91144507Y-55282648D01*
X91144509Y-55282649D01*
X91144513Y-55282651D01*
X91332951Y-55360704D01*
X91332956Y-55360706D01*
X91332960Y-55360706D01*
X91332961Y-55360707D01*
X91533009Y-55400500D01*
X91533012Y-55400500D01*
X91736990Y-55400500D01*
X91908358Y-55366412D01*
X91937044Y-55360706D01*
X92125493Y-55282648D01*
X92201109Y-55232123D01*
X92267786Y-55211245D01*
X92335166Y-55229729D01*
X92338891Y-55232123D01*
X92414501Y-55282644D01*
X92414507Y-55282648D01*
X92414509Y-55282649D01*
X92414513Y-55282651D01*
X92602951Y-55360704D01*
X92602956Y-55360706D01*
X92602960Y-55360706D01*
X92602961Y-55360707D01*
X92803009Y-55400500D01*
X92803012Y-55400500D01*
X93006990Y-55400500D01*
X93178358Y-55366412D01*
X93207044Y-55360706D01*
X93395493Y-55282648D01*
X93396158Y-55282204D01*
X93471109Y-55232123D01*
X93565093Y-55169325D01*
X93709325Y-55025093D01*
X93822648Y-54855493D01*
X93900706Y-54667044D01*
X93913727Y-54601579D01*
X93940500Y-54466990D01*
X93940500Y-53533009D01*
X93900707Y-53332961D01*
X93900706Y-53332960D01*
X93900706Y-53332956D01*
X93888182Y-53302720D01*
X93822651Y-53144513D01*
X93822645Y-53144502D01*
X93804734Y-53117696D01*
X93804733Y-53117695D01*
X93760927Y-53052135D01*
X102059500Y-53052135D01*
X102059500Y-54947870D01*
X102059501Y-54947876D01*
X102065908Y-55007483D01*
X102116202Y-55142328D01*
X102116206Y-55142335D01*
X102202452Y-55257544D01*
X102202455Y-55257547D01*
X102317664Y-55343793D01*
X102317671Y-55343797D01*
X102452517Y-55394091D01*
X102452516Y-55394091D01*
X102459444Y-55394835D01*
X102512127Y-55400500D01*
X103677872Y-55400499D01*
X103737483Y-55394091D01*
X103872331Y-55343796D01*
X103872335Y-55343792D01*
X103880118Y-55339544D01*
X103881190Y-55341507D01*
X103935082Y-55321401D01*
X103991394Y-55330523D01*
X104063101Y-55360225D01*
X104063109Y-55360227D01*
X104115000Y-55370549D01*
X104115000Y-55054230D01*
X104122819Y-55010895D01*
X104124089Y-55007488D01*
X104124091Y-55007483D01*
X104130500Y-54947873D01*
X104130499Y-54384226D01*
X104191306Y-54419333D01*
X104305756Y-54450000D01*
X104424244Y-54450000D01*
X104538694Y-54419333D01*
X104599500Y-54384226D01*
X104599500Y-54466989D01*
X104612617Y-54532929D01*
X104615000Y-54557122D01*
X104615000Y-55370549D01*
X104666890Y-55360227D01*
X104666898Y-55360225D01*
X104855252Y-55282206D01*
X104855256Y-55282204D01*
X104930658Y-55231822D01*
X104997336Y-55210944D01*
X105064716Y-55229428D01*
X105068401Y-55231796D01*
X105144507Y-55282648D01*
X105144509Y-55282649D01*
X105144513Y-55282651D01*
X105332951Y-55360704D01*
X105332956Y-55360706D01*
X105332960Y-55360706D01*
X105332961Y-55360707D01*
X105533009Y-55400500D01*
X105533012Y-55400500D01*
X105736990Y-55400500D01*
X105908358Y-55366412D01*
X105937044Y-55360706D01*
X106125493Y-55282648D01*
X106201109Y-55232123D01*
X106267786Y-55211245D01*
X106335166Y-55229729D01*
X106338891Y-55232123D01*
X106414501Y-55282644D01*
X106414507Y-55282648D01*
X106414509Y-55282649D01*
X106414513Y-55282651D01*
X106602951Y-55360704D01*
X106602956Y-55360706D01*
X106602960Y-55360706D01*
X106602961Y-55360707D01*
X106803009Y-55400500D01*
X106803012Y-55400500D01*
X107006990Y-55400500D01*
X107178358Y-55366412D01*
X107207044Y-55360706D01*
X107395493Y-55282648D01*
X107396158Y-55282204D01*
X107471109Y-55232123D01*
X107565093Y-55169325D01*
X107709325Y-55025093D01*
X107822648Y-54855493D01*
X107900706Y-54667044D01*
X107913727Y-54601579D01*
X107940500Y-54466990D01*
X107940500Y-53533009D01*
X107900707Y-53332961D01*
X107900706Y-53332960D01*
X107900706Y-53332956D01*
X107888182Y-53302720D01*
X107822651Y-53144513D01*
X107822644Y-53144500D01*
X107709325Y-52974907D01*
X107709322Y-52974903D01*
X107565096Y-52830677D01*
X107565092Y-52830674D01*
X107395499Y-52717355D01*
X107395486Y-52717348D01*
X107207048Y-52639295D01*
X107207038Y-52639292D01*
X107006990Y-52599500D01*
X107006988Y-52599500D01*
X106803012Y-52599500D01*
X106803010Y-52599500D01*
X106602961Y-52639292D01*
X106602951Y-52639295D01*
X106414509Y-52717350D01*
X106360220Y-52753624D01*
X106342142Y-52765705D01*
X106338891Y-52767877D01*
X106272213Y-52788755D01*
X106204833Y-52770270D01*
X106201109Y-52767877D01*
X106197858Y-52765705D01*
X106125493Y-52717352D01*
X106125492Y-52717351D01*
X106125490Y-52717350D01*
X105937048Y-52639295D01*
X105937038Y-52639292D01*
X105736990Y-52599500D01*
X105736988Y-52599500D01*
X105533012Y-52599500D01*
X105533010Y-52599500D01*
X105332961Y-52639292D01*
X105332951Y-52639295D01*
X105144511Y-52717349D01*
X105068438Y-52768178D01*
X105001760Y-52789054D01*
X104934380Y-52770568D01*
X104930659Y-52768177D01*
X104855254Y-52717794D01*
X104666896Y-52639773D01*
X104666893Y-52639772D01*
X104615000Y-52629449D01*
X104615000Y-53442876D01*
X104612617Y-53467068D01*
X104599500Y-53533010D01*
X104599500Y-53615773D01*
X104538694Y-53580667D01*
X104424244Y-53550000D01*
X104305756Y-53550000D01*
X104191306Y-53580667D01*
X104130499Y-53615773D01*
X104130499Y-53052128D01*
X104124091Y-52992517D01*
X104122818Y-52989103D01*
X104115000Y-52945771D01*
X104115000Y-52629450D01*
X104114999Y-52629449D01*
X104063106Y-52639772D01*
X104063099Y-52639774D01*
X103991393Y-52669476D01*
X103921924Y-52676945D01*
X103880867Y-52659074D01*
X103880114Y-52660454D01*
X103872328Y-52656202D01*
X103737482Y-52605908D01*
X103737483Y-52605908D01*
X103677883Y-52599501D01*
X103677881Y-52599500D01*
X103677873Y-52599500D01*
X103677864Y-52599500D01*
X102512129Y-52599500D01*
X102512123Y-52599501D01*
X102452516Y-52605908D01*
X102317671Y-52656202D01*
X102317664Y-52656206D01*
X102202455Y-52742452D01*
X102202452Y-52742455D01*
X102116206Y-52857664D01*
X102116202Y-52857671D01*
X102065908Y-52992517D01*
X102059501Y-53052116D01*
X102059501Y-53052123D01*
X102059500Y-53052135D01*
X93760927Y-53052135D01*
X93709325Y-52974907D01*
X93709322Y-52974903D01*
X93565096Y-52830677D01*
X93565092Y-52830674D01*
X93395499Y-52717355D01*
X93395486Y-52717348D01*
X93207048Y-52639295D01*
X93207038Y-52639292D01*
X93006990Y-52599500D01*
X93006988Y-52599500D01*
X92803012Y-52599500D01*
X92803010Y-52599500D01*
X92602961Y-52639292D01*
X92602951Y-52639295D01*
X92414509Y-52717350D01*
X92360220Y-52753624D01*
X92342142Y-52765705D01*
X92338891Y-52767877D01*
X92272213Y-52788755D01*
X92204833Y-52770270D01*
X92201109Y-52767877D01*
X92197858Y-52765705D01*
X92125493Y-52717352D01*
X92125492Y-52717351D01*
X92125490Y-52717350D01*
X91937048Y-52639295D01*
X91937038Y-52639292D01*
X91736990Y-52599500D01*
X91736988Y-52599500D01*
X91533012Y-52599500D01*
X91533010Y-52599500D01*
X91332961Y-52639292D01*
X91332951Y-52639295D01*
X91144511Y-52717349D01*
X91068438Y-52768178D01*
X91001760Y-52789054D01*
X90934380Y-52770568D01*
X90930659Y-52768177D01*
X90855254Y-52717794D01*
X90666896Y-52639773D01*
X90666893Y-52639772D01*
X90615000Y-52629449D01*
X90615000Y-53442876D01*
X90612617Y-53467068D01*
X90599500Y-53533010D01*
X90599500Y-53615773D01*
X90538694Y-53580667D01*
X90424244Y-53550000D01*
X90305756Y-53550000D01*
X90191306Y-53580667D01*
X90130499Y-53615773D01*
X90130499Y-53052128D01*
X90124091Y-52992517D01*
X90122818Y-52989103D01*
X90115000Y-52945771D01*
X90115000Y-52629450D01*
X90114999Y-52629449D01*
X90063106Y-52639772D01*
X90063099Y-52639774D01*
X89991393Y-52669476D01*
X89921924Y-52676945D01*
X89880867Y-52659074D01*
X89880114Y-52660454D01*
X89872328Y-52656202D01*
X89737482Y-52605908D01*
X89737483Y-52605908D01*
X89677883Y-52599501D01*
X89677881Y-52599500D01*
X89677873Y-52599500D01*
X89677864Y-52599500D01*
X88512129Y-52599500D01*
X88512123Y-52599501D01*
X88452516Y-52605908D01*
X88317671Y-52656202D01*
X88317664Y-52656206D01*
X88202455Y-52742452D01*
X88202452Y-52742455D01*
X88116206Y-52857664D01*
X88116202Y-52857671D01*
X88065908Y-52992517D01*
X88059501Y-53052116D01*
X88059501Y-53052123D01*
X88059500Y-53052135D01*
X77000500Y-53052135D01*
X77000500Y-43052135D01*
X81964500Y-43052135D01*
X81964500Y-44947870D01*
X81964501Y-44947876D01*
X81970908Y-45007483D01*
X82021202Y-45142328D01*
X82021206Y-45142335D01*
X82107452Y-45257544D01*
X82107455Y-45257547D01*
X82222664Y-45343793D01*
X82222671Y-45343797D01*
X82357517Y-45394091D01*
X82357516Y-45394091D01*
X82364444Y-45394835D01*
X82417127Y-45400500D01*
X83582872Y-45400499D01*
X83642483Y-45394091D01*
X83777331Y-45343796D01*
X83777335Y-45343792D01*
X83785118Y-45339544D01*
X83786190Y-45341507D01*
X83840082Y-45321401D01*
X83896394Y-45330523D01*
X83968101Y-45360225D01*
X83968109Y-45360227D01*
X84019999Y-45370549D01*
X84020000Y-45370549D01*
X84020000Y-45054230D01*
X84027819Y-45010895D01*
X84029089Y-45007488D01*
X84029091Y-45007483D01*
X84035500Y-44947873D01*
X84035499Y-44384226D01*
X84096306Y-44419333D01*
X84210756Y-44450000D01*
X84329244Y-44450000D01*
X84443694Y-44419333D01*
X84504500Y-44384226D01*
X84504500Y-44466989D01*
X84517617Y-44532929D01*
X84520000Y-44557122D01*
X84520000Y-45370549D01*
X84571890Y-45360227D01*
X84571898Y-45360225D01*
X84760252Y-45282206D01*
X84760256Y-45282204D01*
X84835658Y-45231822D01*
X84902336Y-45210944D01*
X84969716Y-45229428D01*
X84973401Y-45231796D01*
X85049507Y-45282648D01*
X85049509Y-45282649D01*
X85049513Y-45282651D01*
X85237951Y-45360704D01*
X85237956Y-45360706D01*
X85237960Y-45360706D01*
X85237961Y-45360707D01*
X85438009Y-45400500D01*
X85438012Y-45400500D01*
X85641990Y-45400500D01*
X85776579Y-45373727D01*
X85842044Y-45360706D01*
X86030493Y-45282648D01*
X86106109Y-45232123D01*
X86172786Y-45211245D01*
X86240166Y-45229729D01*
X86243891Y-45232123D01*
X86319501Y-45282644D01*
X86319507Y-45282648D01*
X86319509Y-45282649D01*
X86319513Y-45282651D01*
X86507951Y-45360704D01*
X86507956Y-45360706D01*
X86507960Y-45360706D01*
X86507961Y-45360707D01*
X86708009Y-45400500D01*
X86708012Y-45400500D01*
X86911990Y-45400500D01*
X87046579Y-45373727D01*
X87112044Y-45360706D01*
X87300493Y-45282648D01*
X87301158Y-45282204D01*
X87376109Y-45232123D01*
X87470093Y-45169325D01*
X87614325Y-45025093D01*
X87727648Y-44855493D01*
X87805706Y-44667044D01*
X87827571Y-44557122D01*
X87845500Y-44466990D01*
X87845500Y-43533009D01*
X87805707Y-43332961D01*
X87805706Y-43332960D01*
X87805706Y-43332956D01*
X87800361Y-43320052D01*
X87727651Y-43144513D01*
X87727644Y-43144500D01*
X87614325Y-42974907D01*
X87614322Y-42974903D01*
X87470096Y-42830677D01*
X87470092Y-42830674D01*
X87300499Y-42717355D01*
X87300486Y-42717348D01*
X87112048Y-42639295D01*
X87112038Y-42639292D01*
X86911990Y-42599500D01*
X86911988Y-42599500D01*
X86708012Y-42599500D01*
X86708010Y-42599500D01*
X86507961Y-42639292D01*
X86507951Y-42639295D01*
X86319509Y-42717350D01*
X86243891Y-42767877D01*
X86177213Y-42788755D01*
X86109833Y-42770270D01*
X86106109Y-42767877D01*
X86080096Y-42750496D01*
X86030493Y-42717352D01*
X86030492Y-42717351D01*
X86030490Y-42717350D01*
X85842048Y-42639295D01*
X85842038Y-42639292D01*
X85641990Y-42599500D01*
X85641988Y-42599500D01*
X85438012Y-42599500D01*
X85438010Y-42599500D01*
X85237961Y-42639292D01*
X85237951Y-42639295D01*
X85049511Y-42717349D01*
X84973438Y-42768178D01*
X84906760Y-42789054D01*
X84839380Y-42770568D01*
X84835659Y-42768177D01*
X84760254Y-42717794D01*
X84571896Y-42639773D01*
X84571893Y-42639772D01*
X84520000Y-42629449D01*
X84520000Y-43442876D01*
X84517617Y-43467068D01*
X84504500Y-43533010D01*
X84504500Y-43615773D01*
X84443694Y-43580667D01*
X84329244Y-43550000D01*
X84210756Y-43550000D01*
X84096306Y-43580667D01*
X84035499Y-43615773D01*
X84035499Y-43052128D01*
X84029091Y-42992517D01*
X84027818Y-42989103D01*
X84020000Y-42945771D01*
X84020000Y-42629450D01*
X84019999Y-42629449D01*
X83968106Y-42639772D01*
X83968099Y-42639774D01*
X83896393Y-42669476D01*
X83826924Y-42676945D01*
X83785867Y-42659074D01*
X83785114Y-42660454D01*
X83777328Y-42656202D01*
X83642482Y-42605908D01*
X83642483Y-42605908D01*
X83582883Y-42599501D01*
X83582881Y-42599500D01*
X83582873Y-42599500D01*
X83582864Y-42599500D01*
X82417129Y-42599500D01*
X82417123Y-42599501D01*
X82357516Y-42605908D01*
X82222671Y-42656202D01*
X82222664Y-42656206D01*
X82107455Y-42742452D01*
X82107452Y-42742455D01*
X82021206Y-42857664D01*
X82021202Y-42857671D01*
X81970908Y-42992517D01*
X81964501Y-43052116D01*
X81964501Y-43052123D01*
X81964500Y-43052135D01*
X77000500Y-43052135D01*
X77000500Y-33052135D01*
X80964500Y-33052135D01*
X80964500Y-34947870D01*
X80964501Y-34947876D01*
X80970908Y-35007483D01*
X81021202Y-35142328D01*
X81021206Y-35142335D01*
X81107452Y-35257544D01*
X81107455Y-35257547D01*
X81222664Y-35343793D01*
X81222671Y-35343797D01*
X81357517Y-35394091D01*
X81357516Y-35394091D01*
X81364444Y-35394835D01*
X81417127Y-35400500D01*
X82582872Y-35400499D01*
X82642483Y-35394091D01*
X82777331Y-35343796D01*
X82777335Y-35343792D01*
X82785118Y-35339544D01*
X82786190Y-35341507D01*
X82840082Y-35321401D01*
X82896394Y-35330523D01*
X82968101Y-35360225D01*
X82968109Y-35360227D01*
X83019999Y-35370549D01*
X83020000Y-35370549D01*
X83020000Y-35054230D01*
X83027819Y-35010895D01*
X83029089Y-35007488D01*
X83029091Y-35007483D01*
X83035500Y-34947873D01*
X83035499Y-34384226D01*
X83096306Y-34419333D01*
X83210756Y-34450000D01*
X83329244Y-34450000D01*
X83443694Y-34419333D01*
X83504500Y-34384226D01*
X83504500Y-34466989D01*
X83517617Y-34532929D01*
X83520000Y-34557122D01*
X83520000Y-35370549D01*
X83571890Y-35360227D01*
X83571898Y-35360225D01*
X83760252Y-35282206D01*
X83760256Y-35282204D01*
X83835658Y-35231822D01*
X83902336Y-35210944D01*
X83969716Y-35229428D01*
X83973401Y-35231796D01*
X84049507Y-35282648D01*
X84049509Y-35282649D01*
X84049513Y-35282651D01*
X84237951Y-35360704D01*
X84237956Y-35360706D01*
X84237960Y-35360706D01*
X84237961Y-35360707D01*
X84438009Y-35400500D01*
X84438012Y-35400500D01*
X84641990Y-35400500D01*
X84792560Y-35370549D01*
X84842044Y-35360706D01*
X85030493Y-35282648D01*
X85106109Y-35232123D01*
X85172786Y-35211245D01*
X85240166Y-35229729D01*
X85243891Y-35232123D01*
X85319501Y-35282644D01*
X85319507Y-35282648D01*
X85319509Y-35282649D01*
X85319513Y-35282651D01*
X85507951Y-35360704D01*
X85507956Y-35360706D01*
X85507960Y-35360706D01*
X85507961Y-35360707D01*
X85708009Y-35400500D01*
X85708012Y-35400500D01*
X85911990Y-35400500D01*
X86062560Y-35370549D01*
X86112044Y-35360706D01*
X86300493Y-35282648D01*
X86301158Y-35282204D01*
X86376109Y-35232123D01*
X86470093Y-35169325D01*
X86614325Y-35025093D01*
X86727648Y-34855493D01*
X86805706Y-34667044D01*
X86827571Y-34557122D01*
X86845500Y-34466990D01*
X86845500Y-33533009D01*
X86805707Y-33332961D01*
X86805706Y-33332960D01*
X86805706Y-33332956D01*
X86752794Y-33205215D01*
X86727651Y-33144513D01*
X86727645Y-33144502D01*
X86709734Y-33117696D01*
X86709733Y-33117695D01*
X86665927Y-33052135D01*
X94964500Y-33052135D01*
X94964500Y-34947870D01*
X94964501Y-34947876D01*
X94970908Y-35007483D01*
X95021202Y-35142328D01*
X95021206Y-35142335D01*
X95107452Y-35257544D01*
X95107455Y-35257547D01*
X95222664Y-35343793D01*
X95222671Y-35343797D01*
X95357517Y-35394091D01*
X95357516Y-35394091D01*
X95364444Y-35394835D01*
X95417127Y-35400500D01*
X96582872Y-35400499D01*
X96642483Y-35394091D01*
X96777331Y-35343796D01*
X96777335Y-35343792D01*
X96785118Y-35339544D01*
X96786190Y-35341507D01*
X96840082Y-35321401D01*
X96896394Y-35330523D01*
X96968101Y-35360225D01*
X96968109Y-35360227D01*
X97020000Y-35370549D01*
X97020000Y-35054230D01*
X97027819Y-35010895D01*
X97029089Y-35007488D01*
X97029091Y-35007483D01*
X97035500Y-34947873D01*
X97035499Y-34384226D01*
X97096306Y-34419333D01*
X97210756Y-34450000D01*
X97329244Y-34450000D01*
X97443694Y-34419333D01*
X97504500Y-34384226D01*
X97504500Y-34466989D01*
X97517617Y-34532929D01*
X97520000Y-34557122D01*
X97520000Y-35370549D01*
X97571890Y-35360227D01*
X97571898Y-35360225D01*
X97760252Y-35282206D01*
X97760256Y-35282204D01*
X97835658Y-35231822D01*
X97902336Y-35210944D01*
X97969716Y-35229428D01*
X97973401Y-35231796D01*
X98049507Y-35282648D01*
X98049509Y-35282649D01*
X98049513Y-35282651D01*
X98237951Y-35360704D01*
X98237956Y-35360706D01*
X98237960Y-35360706D01*
X98237961Y-35360707D01*
X98438009Y-35400500D01*
X98438012Y-35400500D01*
X98641990Y-35400500D01*
X98792560Y-35370549D01*
X98842044Y-35360706D01*
X99030493Y-35282648D01*
X99106109Y-35232123D01*
X99172786Y-35211245D01*
X99240166Y-35229729D01*
X99243891Y-35232123D01*
X99319501Y-35282644D01*
X99319507Y-35282648D01*
X99319509Y-35282649D01*
X99319513Y-35282651D01*
X99507951Y-35360704D01*
X99507956Y-35360706D01*
X99507960Y-35360706D01*
X99507961Y-35360707D01*
X99708009Y-35400500D01*
X99708012Y-35400500D01*
X99911990Y-35400500D01*
X100062560Y-35370549D01*
X100112044Y-35360706D01*
X100300493Y-35282648D01*
X100301158Y-35282204D01*
X100376109Y-35232123D01*
X100470093Y-35169325D01*
X100614325Y-35025093D01*
X100727648Y-34855493D01*
X100805706Y-34667044D01*
X100827571Y-34557122D01*
X100845500Y-34466990D01*
X100845500Y-33533009D01*
X100805707Y-33332961D01*
X100805706Y-33332960D01*
X100805706Y-33332956D01*
X100752794Y-33205215D01*
X100727651Y-33144513D01*
X100727645Y-33144502D01*
X100709734Y-33117696D01*
X100709733Y-33117695D01*
X100665927Y-33052135D01*
X108964500Y-33052135D01*
X108964500Y-34947870D01*
X108964501Y-34947876D01*
X108970908Y-35007483D01*
X109021202Y-35142328D01*
X109021206Y-35142335D01*
X109107452Y-35257544D01*
X109107455Y-35257547D01*
X109222664Y-35343793D01*
X109222671Y-35343797D01*
X109357517Y-35394091D01*
X109357516Y-35394091D01*
X109364444Y-35394835D01*
X109417127Y-35400500D01*
X110582872Y-35400499D01*
X110642483Y-35394091D01*
X110777331Y-35343796D01*
X110777335Y-35343792D01*
X110785118Y-35339544D01*
X110786190Y-35341507D01*
X110840082Y-35321401D01*
X110896394Y-35330523D01*
X110968101Y-35360225D01*
X110968109Y-35360227D01*
X111019999Y-35370549D01*
X111020000Y-35370549D01*
X111020000Y-35054230D01*
X111027819Y-35010895D01*
X111029089Y-35007488D01*
X111029091Y-35007483D01*
X111035500Y-34947873D01*
X111035499Y-34384226D01*
X111096306Y-34419333D01*
X111210756Y-34450000D01*
X111329244Y-34450000D01*
X111443694Y-34419333D01*
X111504500Y-34384226D01*
X111504500Y-34466989D01*
X111517617Y-34532929D01*
X111520000Y-34557122D01*
X111520000Y-35370549D01*
X111571890Y-35360227D01*
X111571898Y-35360225D01*
X111760252Y-35282206D01*
X111760256Y-35282204D01*
X111835658Y-35231822D01*
X111902336Y-35210944D01*
X111969716Y-35229428D01*
X111973401Y-35231796D01*
X112049507Y-35282648D01*
X112049509Y-35282649D01*
X112049513Y-35282651D01*
X112237951Y-35360704D01*
X112237956Y-35360706D01*
X112237960Y-35360706D01*
X112237961Y-35360707D01*
X112438009Y-35400500D01*
X112438012Y-35400500D01*
X112641990Y-35400500D01*
X112792560Y-35370549D01*
X112842044Y-35360706D01*
X113030493Y-35282648D01*
X113106109Y-35232123D01*
X113172786Y-35211245D01*
X113240166Y-35229729D01*
X113243891Y-35232123D01*
X113319501Y-35282644D01*
X113319507Y-35282648D01*
X113319509Y-35282649D01*
X113319513Y-35282651D01*
X113507951Y-35360704D01*
X113507956Y-35360706D01*
X113507960Y-35360706D01*
X113507961Y-35360707D01*
X113708009Y-35400500D01*
X113708012Y-35400500D01*
X113911990Y-35400500D01*
X114062560Y-35370549D01*
X114112044Y-35360706D01*
X114300493Y-35282648D01*
X114301158Y-35282204D01*
X114376109Y-35232123D01*
X114470093Y-35169325D01*
X114614325Y-35025093D01*
X114727648Y-34855493D01*
X114805706Y-34667044D01*
X114827571Y-34557122D01*
X114845500Y-34466990D01*
X114845500Y-33533009D01*
X114805707Y-33332961D01*
X114805706Y-33332960D01*
X114805706Y-33332956D01*
X114752794Y-33205215D01*
X114727651Y-33144513D01*
X114727644Y-33144500D01*
X114614325Y-32974907D01*
X114614322Y-32974903D01*
X114470096Y-32830677D01*
X114470092Y-32830674D01*
X114300499Y-32717355D01*
X114300486Y-32717348D01*
X114112048Y-32639295D01*
X114112038Y-32639292D01*
X113911990Y-32599500D01*
X113911988Y-32599500D01*
X113708012Y-32599500D01*
X113708010Y-32599500D01*
X113507961Y-32639292D01*
X113507951Y-32639295D01*
X113319509Y-32717350D01*
X113243891Y-32767877D01*
X113177213Y-32788755D01*
X113109833Y-32770270D01*
X113106109Y-32767877D01*
X113031154Y-32717794D01*
X113030493Y-32717352D01*
X113030492Y-32717351D01*
X113030490Y-32717350D01*
X112842048Y-32639295D01*
X112842038Y-32639292D01*
X112641990Y-32599500D01*
X112641988Y-32599500D01*
X112438012Y-32599500D01*
X112438010Y-32599500D01*
X112237961Y-32639292D01*
X112237951Y-32639295D01*
X112049511Y-32717349D01*
X111973438Y-32768178D01*
X111906760Y-32789054D01*
X111839380Y-32770568D01*
X111835659Y-32768177D01*
X111760254Y-32717794D01*
X111571896Y-32639773D01*
X111571893Y-32639772D01*
X111520000Y-32629449D01*
X111520000Y-33442876D01*
X111517617Y-33467068D01*
X111504500Y-33533010D01*
X111504500Y-33615773D01*
X111443694Y-33580667D01*
X111329244Y-33550000D01*
X111210756Y-33550000D01*
X111096306Y-33580667D01*
X111035499Y-33615773D01*
X111035499Y-33052128D01*
X111029091Y-32992517D01*
X111027818Y-32989103D01*
X111020000Y-32945771D01*
X111020000Y-32629450D01*
X111019999Y-32629449D01*
X110968106Y-32639772D01*
X110968099Y-32639774D01*
X110896393Y-32669476D01*
X110826924Y-32676945D01*
X110785867Y-32659074D01*
X110785114Y-32660454D01*
X110777328Y-32656202D01*
X110642482Y-32605908D01*
X110642483Y-32605908D01*
X110582883Y-32599501D01*
X110582881Y-32599500D01*
X110582873Y-32599500D01*
X110582864Y-32599500D01*
X109417129Y-32599500D01*
X109417123Y-32599501D01*
X109357516Y-32605908D01*
X109222671Y-32656202D01*
X109222664Y-32656206D01*
X109107455Y-32742452D01*
X109107452Y-32742455D01*
X109021206Y-32857664D01*
X109021202Y-32857671D01*
X108970908Y-32992517D01*
X108965568Y-33042190D01*
X108964501Y-33052123D01*
X108964500Y-33052135D01*
X100665927Y-33052135D01*
X100614325Y-32974907D01*
X100614322Y-32974903D01*
X100470096Y-32830677D01*
X100470092Y-32830674D01*
X100300499Y-32717355D01*
X100300486Y-32717348D01*
X100112048Y-32639295D01*
X100112038Y-32639292D01*
X99911990Y-32599500D01*
X99911988Y-32599500D01*
X99708012Y-32599500D01*
X99708010Y-32599500D01*
X99507961Y-32639292D01*
X99507951Y-32639295D01*
X99319509Y-32717350D01*
X99243891Y-32767877D01*
X99177213Y-32788755D01*
X99109833Y-32770270D01*
X99106109Y-32767877D01*
X99031154Y-32717794D01*
X99030493Y-32717352D01*
X99030492Y-32717351D01*
X99030490Y-32717350D01*
X98842048Y-32639295D01*
X98842038Y-32639292D01*
X98641990Y-32599500D01*
X98641988Y-32599500D01*
X98438012Y-32599500D01*
X98438010Y-32599500D01*
X98237961Y-32639292D01*
X98237951Y-32639295D01*
X98049511Y-32717349D01*
X97973438Y-32768178D01*
X97906760Y-32789054D01*
X97839380Y-32770568D01*
X97835659Y-32768177D01*
X97760254Y-32717794D01*
X97571896Y-32639773D01*
X97571893Y-32639772D01*
X97520000Y-32629449D01*
X97520000Y-33442876D01*
X97517617Y-33467068D01*
X97504500Y-33533010D01*
X97504500Y-33615773D01*
X97443694Y-33580667D01*
X97329244Y-33550000D01*
X97210756Y-33550000D01*
X97096306Y-33580667D01*
X97035499Y-33615773D01*
X97035499Y-33052128D01*
X97029091Y-32992517D01*
X97027818Y-32989103D01*
X97020000Y-32945771D01*
X97020000Y-32629450D01*
X97019999Y-32629449D01*
X96968106Y-32639772D01*
X96968099Y-32639774D01*
X96896393Y-32669476D01*
X96826924Y-32676945D01*
X96785867Y-32659074D01*
X96785114Y-32660454D01*
X96777328Y-32656202D01*
X96642482Y-32605908D01*
X96642483Y-32605908D01*
X96582883Y-32599501D01*
X96582881Y-32599500D01*
X96582873Y-32599500D01*
X96582864Y-32599500D01*
X95417129Y-32599500D01*
X95417123Y-32599501D01*
X95357516Y-32605908D01*
X95222671Y-32656202D01*
X95222664Y-32656206D01*
X95107455Y-32742452D01*
X95107452Y-32742455D01*
X95021206Y-32857664D01*
X95021202Y-32857671D01*
X94970908Y-32992517D01*
X94965568Y-33042190D01*
X94964501Y-33052123D01*
X94964500Y-33052135D01*
X86665927Y-33052135D01*
X86614325Y-32974907D01*
X86614322Y-32974903D01*
X86470096Y-32830677D01*
X86470092Y-32830674D01*
X86300499Y-32717355D01*
X86300486Y-32717348D01*
X86112048Y-32639295D01*
X86112038Y-32639292D01*
X85911990Y-32599500D01*
X85911988Y-32599500D01*
X85708012Y-32599500D01*
X85708010Y-32599500D01*
X85507961Y-32639292D01*
X85507951Y-32639295D01*
X85319509Y-32717350D01*
X85243891Y-32767877D01*
X85177213Y-32788755D01*
X85109833Y-32770270D01*
X85106109Y-32767877D01*
X85031154Y-32717794D01*
X85030493Y-32717352D01*
X85030492Y-32717351D01*
X85030490Y-32717350D01*
X84842048Y-32639295D01*
X84842038Y-32639292D01*
X84641990Y-32599500D01*
X84641988Y-32599500D01*
X84438012Y-32599500D01*
X84438010Y-32599500D01*
X84237961Y-32639292D01*
X84237951Y-32639295D01*
X84049511Y-32717349D01*
X83973438Y-32768178D01*
X83906760Y-32789054D01*
X83839380Y-32770568D01*
X83835659Y-32768177D01*
X83760254Y-32717794D01*
X83571896Y-32639773D01*
X83571893Y-32639772D01*
X83520000Y-32629449D01*
X83520000Y-33442876D01*
X83517617Y-33467068D01*
X83504500Y-33533010D01*
X83504500Y-33615773D01*
X83443694Y-33580667D01*
X83329244Y-33550000D01*
X83210756Y-33550000D01*
X83096306Y-33580667D01*
X83035499Y-33615773D01*
X83035499Y-33052128D01*
X83029091Y-32992517D01*
X83027818Y-32989103D01*
X83020000Y-32945771D01*
X83020000Y-32629450D01*
X83019999Y-32629449D01*
X82968106Y-32639772D01*
X82968099Y-32639774D01*
X82896393Y-32669476D01*
X82826924Y-32676945D01*
X82785867Y-32659074D01*
X82785114Y-32660454D01*
X82777328Y-32656202D01*
X82642482Y-32605908D01*
X82642483Y-32605908D01*
X82582883Y-32599501D01*
X82582881Y-32599500D01*
X82582873Y-32599500D01*
X82582864Y-32599500D01*
X81417129Y-32599500D01*
X81417123Y-32599501D01*
X81357516Y-32605908D01*
X81222671Y-32656202D01*
X81222664Y-32656206D01*
X81107455Y-32742452D01*
X81107452Y-32742455D01*
X81021206Y-32857664D01*
X81021202Y-32857671D01*
X80970908Y-32992517D01*
X80965568Y-33042190D01*
X80964501Y-33052123D01*
X80964500Y-33052135D01*
X77000500Y-33052135D01*
X77000500Y-27052135D01*
X87964500Y-27052135D01*
X87964500Y-28947870D01*
X87964501Y-28947876D01*
X87970908Y-29007483D01*
X88021202Y-29142328D01*
X88021206Y-29142335D01*
X88107452Y-29257544D01*
X88107455Y-29257547D01*
X88222664Y-29343793D01*
X88222671Y-29343797D01*
X88357517Y-29394091D01*
X88357516Y-29394091D01*
X88364444Y-29394835D01*
X88417127Y-29400500D01*
X89582872Y-29400499D01*
X89642483Y-29394091D01*
X89777331Y-29343796D01*
X89777335Y-29343792D01*
X89785118Y-29339544D01*
X89786190Y-29341507D01*
X89840082Y-29321401D01*
X89896394Y-29330523D01*
X89968101Y-29360225D01*
X89968109Y-29360227D01*
X90019999Y-29370549D01*
X90020000Y-29370549D01*
X90020000Y-29054230D01*
X90027819Y-29010895D01*
X90029089Y-29007488D01*
X90029091Y-29007483D01*
X90035500Y-28947873D01*
X90035499Y-28384226D01*
X90096306Y-28419333D01*
X90210756Y-28450000D01*
X90329244Y-28450000D01*
X90443694Y-28419333D01*
X90504500Y-28384226D01*
X90504500Y-28466988D01*
X90512774Y-28508586D01*
X90517617Y-28532929D01*
X90520000Y-28557122D01*
X90520000Y-29370549D01*
X90571890Y-29360227D01*
X90571898Y-29360225D01*
X90760252Y-29282206D01*
X90760256Y-29282204D01*
X90835658Y-29231822D01*
X90902336Y-29210944D01*
X90969716Y-29229428D01*
X90973401Y-29231796D01*
X91049507Y-29282648D01*
X91049509Y-29282649D01*
X91049513Y-29282651D01*
X91237951Y-29360704D01*
X91237956Y-29360706D01*
X91237960Y-29360706D01*
X91237961Y-29360707D01*
X91438009Y-29400500D01*
X91438012Y-29400500D01*
X91641990Y-29400500D01*
X91792560Y-29370549D01*
X91842044Y-29360706D01*
X92030493Y-29282648D01*
X92098060Y-29237501D01*
X92106109Y-29232123D01*
X92172786Y-29211245D01*
X92240166Y-29229729D01*
X92243891Y-29232123D01*
X92319501Y-29282644D01*
X92319507Y-29282648D01*
X92319509Y-29282649D01*
X92319513Y-29282651D01*
X92507951Y-29360704D01*
X92507956Y-29360706D01*
X92507960Y-29360706D01*
X92507961Y-29360707D01*
X92708009Y-29400500D01*
X92708012Y-29400500D01*
X92911990Y-29400500D01*
X93062560Y-29370549D01*
X93112044Y-29360706D01*
X93300493Y-29282648D01*
X93301158Y-29282204D01*
X93368060Y-29237501D01*
X93470093Y-29169325D01*
X93614325Y-29025093D01*
X93727648Y-28855493D01*
X93805706Y-28667044D01*
X93823421Y-28577988D01*
X93845500Y-28466990D01*
X93845500Y-27533009D01*
X93805707Y-27332961D01*
X93805706Y-27332960D01*
X93805706Y-27332956D01*
X93805704Y-27332951D01*
X93727651Y-27144513D01*
X93727645Y-27144502D01*
X93709734Y-27117696D01*
X93709733Y-27117695D01*
X93665927Y-27052135D01*
X102059500Y-27052135D01*
X102059500Y-28947870D01*
X102059501Y-28947876D01*
X102065908Y-29007483D01*
X102116202Y-29142328D01*
X102116206Y-29142335D01*
X102202452Y-29257544D01*
X102202455Y-29257547D01*
X102317664Y-29343793D01*
X102317671Y-29343797D01*
X102452517Y-29394091D01*
X102452516Y-29394091D01*
X102459444Y-29394835D01*
X102512127Y-29400500D01*
X103677872Y-29400499D01*
X103737483Y-29394091D01*
X103872331Y-29343796D01*
X103872335Y-29343792D01*
X103880118Y-29339544D01*
X103881190Y-29341507D01*
X103935082Y-29321401D01*
X103991394Y-29330523D01*
X104063101Y-29360225D01*
X104063109Y-29360227D01*
X104114999Y-29370549D01*
X104115000Y-29370549D01*
X104115000Y-29054230D01*
X104122819Y-29010895D01*
X104124089Y-29007488D01*
X104124091Y-29007483D01*
X104130500Y-28947873D01*
X104130499Y-28384226D01*
X104191306Y-28419333D01*
X104305756Y-28450000D01*
X104424244Y-28450000D01*
X104538694Y-28419333D01*
X104599500Y-28384226D01*
X104599500Y-28466988D01*
X104607774Y-28508586D01*
X104612617Y-28532929D01*
X104615000Y-28557122D01*
X104615000Y-29370549D01*
X104666890Y-29360227D01*
X104666898Y-29360225D01*
X104855252Y-29282206D01*
X104855256Y-29282204D01*
X104930658Y-29231822D01*
X104997336Y-29210944D01*
X105064716Y-29229428D01*
X105068401Y-29231796D01*
X105144507Y-29282648D01*
X105144509Y-29282649D01*
X105144513Y-29282651D01*
X105332951Y-29360704D01*
X105332956Y-29360706D01*
X105332960Y-29360706D01*
X105332961Y-29360707D01*
X105533009Y-29400500D01*
X105533012Y-29400500D01*
X105736990Y-29400500D01*
X105887560Y-29370549D01*
X105937044Y-29360706D01*
X106125493Y-29282648D01*
X106193060Y-29237501D01*
X106201109Y-29232123D01*
X106267786Y-29211245D01*
X106335166Y-29229729D01*
X106338891Y-29232123D01*
X106414501Y-29282644D01*
X106414507Y-29282648D01*
X106414509Y-29282649D01*
X106414513Y-29282651D01*
X106602951Y-29360704D01*
X106602956Y-29360706D01*
X106602960Y-29360706D01*
X106602961Y-29360707D01*
X106803009Y-29400500D01*
X106803012Y-29400500D01*
X107006990Y-29400500D01*
X107157560Y-29370549D01*
X107207044Y-29360706D01*
X107395493Y-29282648D01*
X107396158Y-29282204D01*
X107463060Y-29237501D01*
X107565093Y-29169325D01*
X107592090Y-29142328D01*
X107666437Y-29067982D01*
X107709322Y-29025096D01*
X107709325Y-29025093D01*
X107822648Y-28855493D01*
X107900706Y-28667044D01*
X107918421Y-28577988D01*
X107940500Y-28466990D01*
X107940500Y-27533009D01*
X107900707Y-27332961D01*
X107900706Y-27332960D01*
X107900706Y-27332956D01*
X107900704Y-27332951D01*
X107822651Y-27144513D01*
X107822644Y-27144500D01*
X107709325Y-26974907D01*
X107709322Y-26974903D01*
X107565096Y-26830677D01*
X107565092Y-26830674D01*
X107395499Y-26717355D01*
X107395486Y-26717348D01*
X107207048Y-26639295D01*
X107207038Y-26639292D01*
X107006990Y-26599500D01*
X107006988Y-26599500D01*
X106803012Y-26599500D01*
X106803010Y-26599500D01*
X106602961Y-26639292D01*
X106602951Y-26639295D01*
X106414509Y-26717350D01*
X106338891Y-26767877D01*
X106272213Y-26788755D01*
X106204833Y-26770270D01*
X106201109Y-26767877D01*
X106126154Y-26717794D01*
X106125493Y-26717352D01*
X106125492Y-26717351D01*
X106125490Y-26717350D01*
X105937048Y-26639295D01*
X105937038Y-26639292D01*
X105736990Y-26599500D01*
X105736988Y-26599500D01*
X105533012Y-26599500D01*
X105533010Y-26599500D01*
X105332961Y-26639292D01*
X105332951Y-26639295D01*
X105144511Y-26717349D01*
X105068438Y-26768178D01*
X105001760Y-26789054D01*
X104934380Y-26770568D01*
X104930659Y-26768177D01*
X104855254Y-26717794D01*
X104666896Y-26639773D01*
X104666893Y-26639772D01*
X104615000Y-26629449D01*
X104615000Y-27442876D01*
X104612617Y-27467068D01*
X104599501Y-27533009D01*
X104599500Y-27533012D01*
X104599500Y-27615773D01*
X104538694Y-27580667D01*
X104424244Y-27550000D01*
X104305756Y-27550000D01*
X104191306Y-27580667D01*
X104130499Y-27615773D01*
X104130499Y-27052128D01*
X104124091Y-26992517D01*
X104122818Y-26989103D01*
X104115000Y-26945771D01*
X104115000Y-26629450D01*
X104114999Y-26629449D01*
X104063106Y-26639772D01*
X104063099Y-26639774D01*
X103991393Y-26669476D01*
X103921924Y-26676945D01*
X103880867Y-26659074D01*
X103880114Y-26660454D01*
X103872328Y-26656202D01*
X103737482Y-26605908D01*
X103737483Y-26605908D01*
X103677883Y-26599501D01*
X103677881Y-26599500D01*
X103677873Y-26599500D01*
X103677864Y-26599500D01*
X102512129Y-26599500D01*
X102512123Y-26599501D01*
X102452516Y-26605908D01*
X102317671Y-26656202D01*
X102317664Y-26656206D01*
X102202455Y-26742452D01*
X102202452Y-26742455D01*
X102116206Y-26857664D01*
X102116202Y-26857671D01*
X102065908Y-26992517D01*
X102060563Y-27042236D01*
X102059501Y-27052123D01*
X102059500Y-27052135D01*
X93665927Y-27052135D01*
X93614325Y-26974907D01*
X93614322Y-26974903D01*
X93470096Y-26830677D01*
X93470092Y-26830674D01*
X93300499Y-26717355D01*
X93300486Y-26717348D01*
X93112048Y-26639295D01*
X93112038Y-26639292D01*
X92911990Y-26599500D01*
X92911988Y-26599500D01*
X92708012Y-26599500D01*
X92708010Y-26599500D01*
X92507961Y-26639292D01*
X92507951Y-26639295D01*
X92319509Y-26717350D01*
X92243891Y-26767877D01*
X92177213Y-26788755D01*
X92109833Y-26770270D01*
X92106109Y-26767877D01*
X92031154Y-26717794D01*
X92030493Y-26717352D01*
X92030492Y-26717351D01*
X92030490Y-26717350D01*
X91842048Y-26639295D01*
X91842038Y-26639292D01*
X91641990Y-26599500D01*
X91641988Y-26599500D01*
X91438012Y-26599500D01*
X91438010Y-26599500D01*
X91237961Y-26639292D01*
X91237951Y-26639295D01*
X91049511Y-26717349D01*
X90973438Y-26768178D01*
X90906760Y-26789054D01*
X90839380Y-26770568D01*
X90835659Y-26768177D01*
X90760254Y-26717794D01*
X90571896Y-26639773D01*
X90571893Y-26639772D01*
X90520000Y-26629449D01*
X90520000Y-27442876D01*
X90517617Y-27467068D01*
X90504501Y-27533009D01*
X90504500Y-27533012D01*
X90504500Y-27615773D01*
X90443694Y-27580667D01*
X90329244Y-27550000D01*
X90210756Y-27550000D01*
X90096306Y-27580667D01*
X90035499Y-27615773D01*
X90035499Y-27052128D01*
X90029091Y-26992517D01*
X90027818Y-26989103D01*
X90020000Y-26945771D01*
X90020000Y-26629450D01*
X90019999Y-26629449D01*
X89968106Y-26639772D01*
X89968099Y-26639774D01*
X89896393Y-26669476D01*
X89826924Y-26676945D01*
X89785867Y-26659074D01*
X89785114Y-26660454D01*
X89777328Y-26656202D01*
X89642482Y-26605908D01*
X89642483Y-26605908D01*
X89582883Y-26599501D01*
X89582881Y-26599500D01*
X89582873Y-26599500D01*
X89582864Y-26599500D01*
X88417129Y-26599500D01*
X88417123Y-26599501D01*
X88357516Y-26605908D01*
X88222671Y-26656202D01*
X88222664Y-26656206D01*
X88107455Y-26742452D01*
X88107452Y-26742455D01*
X88021206Y-26857664D01*
X88021202Y-26857671D01*
X87970908Y-26992517D01*
X87965563Y-27042236D01*
X87964501Y-27052123D01*
X87964500Y-27052135D01*
X77000500Y-27052135D01*
X77000500Y-24893713D01*
X77649500Y-24893713D01*
X77649500Y-25106286D01*
X77675395Y-25269784D01*
X77682754Y-25316243D01*
X77739952Y-25492280D01*
X77748444Y-25518414D01*
X77844951Y-25707820D01*
X77969890Y-25879786D01*
X78120213Y-26030109D01*
X78292179Y-26155048D01*
X78292181Y-26155049D01*
X78292184Y-26155051D01*
X78481588Y-26251557D01*
X78683757Y-26317246D01*
X78893713Y-26350500D01*
X78893714Y-26350500D01*
X79106286Y-26350500D01*
X79106287Y-26350500D01*
X79316243Y-26317246D01*
X79518412Y-26251557D01*
X79707816Y-26155051D01*
X79729789Y-26139086D01*
X79879786Y-26030109D01*
X79879788Y-26030106D01*
X79879792Y-26030104D01*
X80030104Y-25879792D01*
X80030106Y-25879788D01*
X80030109Y-25879786D01*
X80155048Y-25707820D01*
X80155047Y-25707820D01*
X80155051Y-25707816D01*
X80251557Y-25518412D01*
X80317246Y-25316243D01*
X80350500Y-25106287D01*
X80350500Y-24893713D01*
X80317246Y-24683757D01*
X80251557Y-24481588D01*
X80155051Y-24292184D01*
X80155049Y-24292181D01*
X80155048Y-24292179D01*
X80030109Y-24120213D01*
X79879786Y-23969890D01*
X79707820Y-23844951D01*
X79518414Y-23748444D01*
X79518413Y-23748443D01*
X79518412Y-23748443D01*
X79316243Y-23682754D01*
X79316241Y-23682753D01*
X79316240Y-23682753D01*
X79154957Y-23657208D01*
X79106287Y-23649500D01*
X78893713Y-23649500D01*
X78845042Y-23657208D01*
X78683760Y-23682753D01*
X78481585Y-23748444D01*
X78292179Y-23844951D01*
X78120213Y-23969890D01*
X77969890Y-24120213D01*
X77844951Y-24292179D01*
X77748444Y-24481585D01*
X77682753Y-24683760D01*
X77649500Y-24893713D01*
X77000500Y-24893713D01*
X77000500Y-22874500D01*
X77020185Y-22807461D01*
X77072989Y-22761706D01*
X77124500Y-22750500D01*
X123490299Y-22750500D01*
X123557338Y-22770185D01*
G37*
%TD.AperFunction*%
%TA.AperFunction,Conductor*%
G36*
X146174442Y-24777685D02*
G01*
X146195084Y-24794319D01*
X149797200Y-28396435D01*
X149830685Y-28457758D01*
X149827450Y-28522433D01*
X149786447Y-28648628D01*
X149749500Y-28881902D01*
X149749500Y-29118097D01*
X149786446Y-29351368D01*
X149859433Y-29575996D01*
X149890822Y-29637599D01*
X149966657Y-29786433D01*
X150105483Y-29977510D01*
X150272490Y-30144517D01*
X150380042Y-30222658D01*
X150463568Y-30283344D01*
X150535442Y-30319965D01*
X150581794Y-30343582D01*
X150632590Y-30391556D01*
X150649500Y-30454067D01*
X150649500Y-34045931D01*
X150629815Y-34112970D01*
X150581796Y-34156415D01*
X150463568Y-34216655D01*
X150380044Y-34277340D01*
X150272490Y-34355483D01*
X150272488Y-34355485D01*
X150272487Y-34355485D01*
X150105485Y-34522487D01*
X150105485Y-34522488D01*
X150105483Y-34522490D01*
X150045862Y-34604550D01*
X149966657Y-34713566D01*
X149859433Y-34924003D01*
X149786446Y-35148631D01*
X149749500Y-35381902D01*
X149749500Y-35618097D01*
X149786446Y-35851368D01*
X149859433Y-36075996D01*
X149966519Y-36286163D01*
X149966657Y-36286433D01*
X150105483Y-36477510D01*
X150272490Y-36644517D01*
X150463567Y-36783343D01*
X150562991Y-36834002D01*
X150674003Y-36890566D01*
X150674005Y-36890566D01*
X150674008Y-36890568D01*
X150794412Y-36929689D01*
X150898631Y-36963553D01*
X151131903Y-37000500D01*
X151131908Y-37000500D01*
X151368097Y-37000500D01*
X151601368Y-36963553D01*
X151612758Y-36959852D01*
X151825992Y-36890568D01*
X152036433Y-36783343D01*
X152227510Y-36644517D01*
X152287819Y-36584208D01*
X152349142Y-36550723D01*
X152418834Y-36555707D01*
X152474767Y-36597579D01*
X152499184Y-36663043D01*
X152499500Y-36671889D01*
X152499500Y-74375500D01*
X152479815Y-74442539D01*
X152427011Y-74488294D01*
X152375500Y-74499500D01*
X135487362Y-74499500D01*
X135420323Y-74479815D01*
X135374568Y-74427011D01*
X135364624Y-74357853D01*
X135393649Y-74294297D01*
X135399681Y-74287819D01*
X135400000Y-74287500D01*
X135400000Y-73338097D01*
X135419685Y-73271058D01*
X135447941Y-73240164D01*
X139983446Y-69717910D01*
X140048465Y-69692339D01*
X140116990Y-69705980D01*
X140167263Y-69754502D01*
X140183500Y-69815847D01*
X140183500Y-71224830D01*
X140183499Y-71224848D01*
X140183499Y-71390554D01*
X140183498Y-71390554D01*
X140192871Y-71425534D01*
X140224423Y-71543285D01*
X140240012Y-71570286D01*
X140253358Y-71593400D01*
X140253359Y-71593404D01*
X140253360Y-71593404D01*
X140303479Y-71680214D01*
X140303481Y-71680217D01*
X140422349Y-71799085D01*
X140422355Y-71799090D01*
X140595922Y-71972657D01*
X140629407Y-72033980D01*
X140626173Y-72098655D01*
X140621522Y-72112968D01*
X140589500Y-72315148D01*
X140589500Y-72519851D01*
X140621522Y-72722034D01*
X140684781Y-72916723D01*
X140777715Y-73099113D01*
X140898028Y-73264713D01*
X141042786Y-73409471D01*
X141197749Y-73522056D01*
X141208390Y-73529787D01*
X141324607Y-73589003D01*
X141390776Y-73622718D01*
X141390778Y-73622718D01*
X141390781Y-73622720D01*
X141495137Y-73656627D01*
X141585465Y-73685977D01*
X141686557Y-73701988D01*
X141787648Y-73718000D01*
X141787649Y-73718000D01*
X141992351Y-73718000D01*
X141992352Y-73718000D01*
X142194534Y-73685977D01*
X142389219Y-73622720D01*
X142571610Y-73529787D01*
X142664590Y-73462232D01*
X142737213Y-73409471D01*
X142737215Y-73409468D01*
X142737219Y-73409466D01*
X142881966Y-73264719D01*
X142881968Y-73264715D01*
X142881971Y-73264713D01*
X142934732Y-73192090D01*
X143002287Y-73099110D01*
X143095220Y-72916719D01*
X143158477Y-72722034D01*
X143190500Y-72519852D01*
X143190500Y-72315148D01*
X143158477Y-72112966D01*
X143095220Y-71918281D01*
X143082702Y-71893713D01*
X148649500Y-71893713D01*
X148649500Y-72106286D01*
X148682753Y-72316239D01*
X148748444Y-72518414D01*
X148844951Y-72707820D01*
X148969890Y-72879786D01*
X149120213Y-73030109D01*
X149292179Y-73155048D01*
X149292181Y-73155049D01*
X149292184Y-73155051D01*
X149481588Y-73251557D01*
X149683757Y-73317246D01*
X149893713Y-73350500D01*
X149893714Y-73350500D01*
X150106286Y-73350500D01*
X150106287Y-73350500D01*
X150316243Y-73317246D01*
X150518412Y-73251557D01*
X150707816Y-73155051D01*
X150784813Y-73099110D01*
X150879786Y-73030109D01*
X150879788Y-73030106D01*
X150879792Y-73030104D01*
X151030104Y-72879792D01*
X151030106Y-72879788D01*
X151030109Y-72879786D01*
X151155048Y-72707820D01*
X151155047Y-72707820D01*
X151155051Y-72707816D01*
X151251557Y-72518412D01*
X151317246Y-72316243D01*
X151350500Y-72106287D01*
X151350500Y-71893713D01*
X151317246Y-71683757D01*
X151251557Y-71481588D01*
X151155051Y-71292184D01*
X151155049Y-71292181D01*
X151155048Y-71292179D01*
X151030109Y-71120213D01*
X150879786Y-70969890D01*
X150707820Y-70844951D01*
X150518414Y-70748444D01*
X150518413Y-70748443D01*
X150518412Y-70748443D01*
X150316243Y-70682754D01*
X150316241Y-70682753D01*
X150316240Y-70682753D01*
X150154957Y-70657208D01*
X150106287Y-70649500D01*
X149893713Y-70649500D01*
X149845042Y-70657208D01*
X149683760Y-70682753D01*
X149481585Y-70748444D01*
X149292179Y-70844951D01*
X149120213Y-70969890D01*
X148969890Y-71120213D01*
X148844951Y-71292179D01*
X148748444Y-71481585D01*
X148682753Y-71683760D01*
X148649500Y-71893713D01*
X143082702Y-71893713D01*
X143002287Y-71735890D01*
X142964413Y-71683760D01*
X142881971Y-71570286D01*
X142737213Y-71425528D01*
X142571614Y-71305215D01*
X142546029Y-71292179D01*
X142478917Y-71257983D01*
X142428123Y-71210011D01*
X142411328Y-71142190D01*
X142433865Y-71076055D01*
X142478917Y-71037016D01*
X142571610Y-70989787D01*
X142598996Y-70969890D01*
X142737213Y-70869471D01*
X142737215Y-70869468D01*
X142737219Y-70869466D01*
X142881966Y-70724719D01*
X142881968Y-70724715D01*
X142881971Y-70724713D01*
X142936615Y-70649500D01*
X143002287Y-70559110D01*
X143095220Y-70376719D01*
X143158477Y-70182034D01*
X143190500Y-69979852D01*
X143190500Y-69775148D01*
X143158477Y-69572966D01*
X143095220Y-69378281D01*
X143095218Y-69378278D01*
X143095218Y-69378276D01*
X143061503Y-69312107D01*
X143002287Y-69195890D01*
X142994556Y-69185249D01*
X142881971Y-69030286D01*
X142737213Y-68885528D01*
X142571614Y-68765215D01*
X142563410Y-68761035D01*
X142485703Y-68721441D01*
X142434908Y-68673468D01*
X142418113Y-68605647D01*
X142440650Y-68539512D01*
X142483546Y-68501599D01*
X142549503Y-68466343D01*
X142549515Y-68466337D01*
X142618913Y-68419965D01*
X142019410Y-67820462D01*
X142082993Y-67803425D01*
X142197007Y-67737599D01*
X142290099Y-67644507D01*
X142355925Y-67530493D01*
X142372962Y-67466910D01*
X142972465Y-68066413D01*
X143018837Y-67997015D01*
X143018838Y-67997011D01*
X143065509Y-67909698D01*
X143125814Y-67764112D01*
X143154555Y-67669364D01*
X143185298Y-67514802D01*
X143185298Y-67514799D01*
X143195000Y-67416289D01*
X143195000Y-67258710D01*
X143185298Y-67160200D01*
X143185298Y-67160197D01*
X143154555Y-67005635D01*
X143125814Y-66910887D01*
X143065509Y-66765301D01*
X143018844Y-66677998D01*
X143018838Y-66677988D01*
X142972465Y-66608585D01*
X142372962Y-67208088D01*
X142355925Y-67144507D01*
X142290099Y-67030493D01*
X142197007Y-66937401D01*
X142082993Y-66871575D01*
X142019408Y-66854537D01*
X142618912Y-66255034D01*
X142549511Y-66208661D01*
X142549500Y-66208655D01*
X142483545Y-66173400D01*
X142433701Y-66124437D01*
X142418241Y-66056299D01*
X142442073Y-65990619D01*
X142485702Y-65953559D01*
X142571610Y-65909787D01*
X142662745Y-65843574D01*
X142737213Y-65789471D01*
X142737215Y-65789468D01*
X142737219Y-65789466D01*
X142881966Y-65644719D01*
X142881968Y-65644715D01*
X142881971Y-65644713D01*
X142934732Y-65572090D01*
X143002287Y-65479110D01*
X143095220Y-65296719D01*
X143158477Y-65102034D01*
X143190500Y-64899852D01*
X143190500Y-64695148D01*
X143170151Y-64566669D01*
X143158477Y-64492965D01*
X143115502Y-64360704D01*
X143095220Y-64298281D01*
X143095218Y-64298278D01*
X143095218Y-64298276D01*
X143050873Y-64211245D01*
X143002287Y-64115890D01*
X142957489Y-64054230D01*
X142881971Y-63950286D01*
X142737213Y-63805528D01*
X142571614Y-63685215D01*
X142535951Y-63667044D01*
X142478917Y-63637983D01*
X142428123Y-63590011D01*
X142411328Y-63522190D01*
X142433865Y-63456055D01*
X142478917Y-63417016D01*
X142571610Y-63369787D01*
X142700277Y-63276306D01*
X142737213Y-63249471D01*
X142737215Y-63249468D01*
X142737219Y-63249466D01*
X142881966Y-63104719D01*
X142881968Y-63104715D01*
X142881971Y-63104713D01*
X142934732Y-63032090D01*
X143002287Y-62939110D01*
X143095220Y-62756719D01*
X143158477Y-62562034D01*
X143190500Y-62359852D01*
X143190500Y-62155148D01*
X143188815Y-62144507D01*
X143158477Y-61952965D01*
X143113294Y-61813908D01*
X143095220Y-61758281D01*
X143095218Y-61758278D01*
X143095218Y-61758276D01*
X143053777Y-61676945D01*
X143002287Y-61575890D01*
X142994556Y-61565249D01*
X142881971Y-61410286D01*
X142737213Y-61265528D01*
X142571614Y-61145215D01*
X142565006Y-61141848D01*
X142478917Y-61097983D01*
X142428123Y-61050011D01*
X142411328Y-60982190D01*
X142433865Y-60916055D01*
X142478917Y-60877016D01*
X142571610Y-60829787D01*
X142592770Y-60814413D01*
X142737213Y-60709471D01*
X142737215Y-60709468D01*
X142737219Y-60709466D01*
X142881966Y-60564719D01*
X142881968Y-60564715D01*
X142881971Y-60564713D01*
X142934732Y-60492090D01*
X143002287Y-60399110D01*
X143095220Y-60216719D01*
X143158477Y-60022034D01*
X143190500Y-59819852D01*
X143190500Y-59615148D01*
X143158477Y-59412966D01*
X143095220Y-59218281D01*
X143095218Y-59218278D01*
X143095218Y-59218276D01*
X143061503Y-59152107D01*
X143002287Y-59035890D01*
X142973837Y-58996731D01*
X142881971Y-58870286D01*
X142737213Y-58725528D01*
X142571614Y-58605215D01*
X142565006Y-58601848D01*
X142478917Y-58557983D01*
X142428123Y-58510011D01*
X142411328Y-58442190D01*
X142433865Y-58376055D01*
X142478917Y-58337016D01*
X142571610Y-58289787D01*
X142592770Y-58274413D01*
X142737213Y-58169471D01*
X142737215Y-58169468D01*
X142737219Y-58169466D01*
X142881966Y-58024719D01*
X142881968Y-58024715D01*
X142881971Y-58024713D01*
X142934732Y-57952090D01*
X143002287Y-57859110D01*
X143095220Y-57676719D01*
X143158477Y-57482034D01*
X143190500Y-57279852D01*
X143190500Y-57075148D01*
X143158477Y-56872966D01*
X143095220Y-56678281D01*
X143095218Y-56678278D01*
X143095218Y-56678276D01*
X143061503Y-56612107D01*
X143002287Y-56495890D01*
X142994556Y-56485249D01*
X142881971Y-56330286D01*
X142737213Y-56185528D01*
X142571614Y-56065215D01*
X142563410Y-56061035D01*
X142485703Y-56021441D01*
X142434908Y-55973468D01*
X142418113Y-55905647D01*
X142440650Y-55839512D01*
X142483546Y-55801599D01*
X142549503Y-55766343D01*
X142549515Y-55766337D01*
X142618913Y-55719965D01*
X142019410Y-55120462D01*
X142082993Y-55103425D01*
X142197007Y-55037599D01*
X142290099Y-54944507D01*
X142355925Y-54830493D01*
X142372962Y-54766910D01*
X142972464Y-55366413D01*
X142972465Y-55366413D01*
X143018837Y-55297015D01*
X143018838Y-55297011D01*
X143065509Y-55209698D01*
X143125814Y-55064112D01*
X143154555Y-54969364D01*
X143185298Y-54814802D01*
X143185298Y-54814799D01*
X143195000Y-54716289D01*
X143195000Y-54558710D01*
X143185298Y-54460200D01*
X143185298Y-54460197D01*
X143154555Y-54305635D01*
X143125814Y-54210887D01*
X143065509Y-54065301D01*
X143018844Y-53977998D01*
X143018838Y-53977988D01*
X142972465Y-53908585D01*
X142372962Y-54508088D01*
X142355925Y-54444507D01*
X142290099Y-54330493D01*
X142197007Y-54237401D01*
X142082993Y-54171575D01*
X142019410Y-54154537D01*
X142618912Y-53555034D01*
X142549511Y-53508661D01*
X142549500Y-53508655D01*
X142483545Y-53473400D01*
X142433701Y-53424437D01*
X142418241Y-53356299D01*
X142442073Y-53290619D01*
X142485702Y-53253559D01*
X142571610Y-53209787D01*
X142662745Y-53143574D01*
X142737213Y-53089471D01*
X142737215Y-53089468D01*
X142737219Y-53089466D01*
X142881966Y-52944719D01*
X142881968Y-52944715D01*
X142881971Y-52944713D01*
X142934732Y-52872090D01*
X143002287Y-52779110D01*
X143092872Y-52601327D01*
X143095218Y-52596723D01*
X143095218Y-52596722D01*
X143095220Y-52596719D01*
X143158477Y-52402034D01*
X143190500Y-52199852D01*
X143190500Y-51995148D01*
X143158477Y-51792966D01*
X143158476Y-51792964D01*
X143107432Y-51635866D01*
X143095220Y-51598281D01*
X143095218Y-51598278D01*
X143095218Y-51598276D01*
X143061503Y-51532107D01*
X143002287Y-51415890D01*
X142994556Y-51405249D01*
X142881971Y-51250286D01*
X142737213Y-51105528D01*
X142571614Y-50985215D01*
X142565006Y-50981848D01*
X142478917Y-50937983D01*
X142428123Y-50890011D01*
X142411328Y-50822190D01*
X142433865Y-50756055D01*
X142478917Y-50717016D01*
X142571610Y-50669787D01*
X142592770Y-50654413D01*
X142737213Y-50549471D01*
X142737215Y-50549468D01*
X142737219Y-50549466D01*
X142881966Y-50404719D01*
X142881968Y-50404715D01*
X142881971Y-50404713D01*
X142977171Y-50273679D01*
X143002287Y-50239110D01*
X143095220Y-50056719D01*
X143158477Y-49862034D01*
X143190500Y-49659852D01*
X143190500Y-49455148D01*
X143158477Y-49252966D01*
X143158476Y-49252964D01*
X143117941Y-49128210D01*
X143095220Y-49058281D01*
X143095218Y-49058278D01*
X143095218Y-49058276D01*
X143039793Y-48949500D01*
X143002287Y-48875890D01*
X142994556Y-48865249D01*
X142881971Y-48710286D01*
X142737213Y-48565528D01*
X142571614Y-48445215D01*
X142565006Y-48441848D01*
X142478917Y-48397983D01*
X142428123Y-48350011D01*
X142411328Y-48282190D01*
X142433865Y-48216055D01*
X142478917Y-48177016D01*
X142571610Y-48129787D01*
X142629423Y-48087784D01*
X142737213Y-48009471D01*
X142737215Y-48009468D01*
X142737219Y-48009466D01*
X142881966Y-47864719D01*
X142881968Y-47864715D01*
X142881971Y-47864713D01*
X142969401Y-47744374D01*
X143002287Y-47699110D01*
X143095220Y-47516719D01*
X143158477Y-47322034D01*
X143190500Y-47119852D01*
X143190500Y-46915148D01*
X143158477Y-46712966D01*
X143095220Y-46518281D01*
X143095218Y-46518278D01*
X143095218Y-46518276D01*
X143061503Y-46452107D01*
X143002287Y-46335890D01*
X142991212Y-46320647D01*
X142881971Y-46170286D01*
X142737213Y-46025528D01*
X142571614Y-45905215D01*
X142490913Y-45864096D01*
X142478917Y-45857983D01*
X142428123Y-45810011D01*
X142411328Y-45742190D01*
X142433865Y-45676055D01*
X142478917Y-45637016D01*
X142571610Y-45589787D01*
X142641637Y-45538910D01*
X142737213Y-45469471D01*
X142737215Y-45469468D01*
X142737219Y-45469466D01*
X142881966Y-45324719D01*
X142881968Y-45324715D01*
X142881971Y-45324713D01*
X142964409Y-45211245D01*
X143002287Y-45159110D01*
X143095220Y-44976719D01*
X143158477Y-44782034D01*
X143190500Y-44579852D01*
X143190500Y-44375148D01*
X143170757Y-44250500D01*
X143158477Y-44172965D01*
X143118858Y-44051032D01*
X143095220Y-43978281D01*
X143095218Y-43978278D01*
X143095218Y-43978276D01*
X143037077Y-43864169D01*
X143002287Y-43795890D01*
X142960623Y-43738544D01*
X142881971Y-43630286D01*
X142737213Y-43485528D01*
X142571614Y-43365215D01*
X142563410Y-43361035D01*
X142485703Y-43321441D01*
X142434908Y-43273468D01*
X142418113Y-43205647D01*
X142440650Y-43139512D01*
X142483546Y-43101599D01*
X142549503Y-43066343D01*
X142549515Y-43066337D01*
X142618913Y-43019965D01*
X142019410Y-42420462D01*
X142082993Y-42403425D01*
X142197007Y-42337599D01*
X142290099Y-42244507D01*
X142355925Y-42130493D01*
X142372962Y-42066910D01*
X142972464Y-42666413D01*
X142972465Y-42666413D01*
X143018837Y-42597015D01*
X143018838Y-42597011D01*
X143065509Y-42509698D01*
X143125814Y-42364112D01*
X143154555Y-42269364D01*
X143185298Y-42114802D01*
X143185298Y-42114799D01*
X143195000Y-42016289D01*
X143195000Y-41858710D01*
X143185298Y-41760200D01*
X143185298Y-41760197D01*
X143154555Y-41605635D01*
X143125814Y-41510887D01*
X143065509Y-41365301D01*
X143018844Y-41277998D01*
X143018838Y-41277988D01*
X142972465Y-41208585D01*
X142372962Y-41808088D01*
X142355925Y-41744507D01*
X142290099Y-41630493D01*
X142197007Y-41537401D01*
X142082993Y-41471575D01*
X142019410Y-41454537D01*
X142618912Y-40855034D01*
X142549511Y-40808661D01*
X142549500Y-40808655D01*
X142483545Y-40773400D01*
X142433701Y-40724437D01*
X142418241Y-40656299D01*
X142442073Y-40590619D01*
X142485702Y-40553559D01*
X142571610Y-40509787D01*
X142660415Y-40445267D01*
X142737213Y-40389471D01*
X142737215Y-40389468D01*
X142737219Y-40389466D01*
X142881966Y-40244719D01*
X142881968Y-40244715D01*
X142881971Y-40244713D01*
X142971999Y-40120798D01*
X143002287Y-40079110D01*
X143095220Y-39896719D01*
X143158477Y-39702034D01*
X143190500Y-39499852D01*
X143190500Y-39295148D01*
X143158477Y-39092966D01*
X143095220Y-38898281D01*
X143095218Y-38898278D01*
X143095218Y-38898276D01*
X143058116Y-38825461D01*
X143031915Y-38774038D01*
X146749500Y-38774038D01*
X146749500Y-39025962D01*
X146788910Y-39274785D01*
X146866760Y-39514383D01*
X146981132Y-39738848D01*
X147129201Y-39942649D01*
X147129205Y-39942654D01*
X147307349Y-40120798D01*
X147394752Y-40184299D01*
X147437418Y-40239628D01*
X147443397Y-40309242D01*
X147432352Y-40340911D01*
X147341118Y-40519967D01*
X147280290Y-40707173D01*
X147249500Y-40901577D01*
X147249500Y-41098422D01*
X147280290Y-41292826D01*
X147341117Y-41480029D01*
X147405067Y-41605537D01*
X147430476Y-41655405D01*
X147546172Y-41814646D01*
X147546174Y-41814648D01*
X147643845Y-41912319D01*
X147677330Y-41973642D01*
X147672346Y-42043334D01*
X147643845Y-42087681D01*
X147546174Y-42185351D01*
X147546174Y-42185352D01*
X147546172Y-42185354D01*
X147503195Y-42244507D01*
X147430476Y-42344594D01*
X147341117Y-42519970D01*
X147280290Y-42707173D01*
X147249500Y-42901577D01*
X147249500Y-43098422D01*
X147280290Y-43292826D01*
X147341117Y-43480029D01*
X147430476Y-43655406D01*
X147457076Y-43692016D01*
X147480557Y-43757822D01*
X147464732Y-43825876D01*
X147431071Y-43864169D01*
X147392809Y-43892812D01*
X147306649Y-44007906D01*
X147306645Y-44007913D01*
X147256403Y-44142620D01*
X147256401Y-44142627D01*
X147250000Y-44202155D01*
X147250000Y-44750000D01*
X148684314Y-44750000D01*
X148679920Y-44754394D01*
X148627259Y-44845606D01*
X148600000Y-44947339D01*
X148600000Y-45052661D01*
X148627259Y-45154394D01*
X148679920Y-45245606D01*
X148684314Y-45250000D01*
X147250000Y-45250000D01*
X147250000Y-45797844D01*
X147257124Y-45864096D01*
X147244719Y-45932856D01*
X147221517Y-45965032D01*
X147129205Y-46057345D01*
X147129201Y-46057350D01*
X146981132Y-46261151D01*
X146866760Y-46485616D01*
X146856147Y-46518281D01*
X146788910Y-46725215D01*
X146749500Y-46974038D01*
X146749500Y-47225962D01*
X146788910Y-47474785D01*
X146866760Y-47714383D01*
X146933192Y-47844761D01*
X146974514Y-47925861D01*
X146981132Y-47938848D01*
X147129201Y-48142649D01*
X147129205Y-48142654D01*
X147307345Y-48320794D01*
X147307350Y-48320798D01*
X147347559Y-48350011D01*
X147511155Y-48468870D01*
X147654184Y-48541747D01*
X147735616Y-48583239D01*
X147735618Y-48583239D01*
X147735621Y-48583241D01*
X147975215Y-48661090D01*
X148224038Y-48700500D01*
X148224039Y-48700500D01*
X149775961Y-48700500D01*
X149775962Y-48700500D01*
X150024785Y-48661090D01*
X150264379Y-48583241D01*
X150488845Y-48468870D01*
X150692656Y-48320793D01*
X150870793Y-48142656D01*
X151018870Y-47938845D01*
X151133241Y-47714379D01*
X151211090Y-47474785D01*
X151250500Y-47225962D01*
X151250500Y-46974038D01*
X151211090Y-46725215D01*
X151133241Y-46485621D01*
X151133239Y-46485618D01*
X151133239Y-46485616D01*
X151079279Y-46379715D01*
X151018870Y-46261155D01*
X150969160Y-46192735D01*
X150870798Y-46057350D01*
X150870794Y-46057345D01*
X150778483Y-45965034D01*
X150744998Y-45903711D01*
X150742875Y-45864096D01*
X150749999Y-45797841D01*
X150750000Y-45797827D01*
X150750000Y-45250000D01*
X149315686Y-45250000D01*
X149320080Y-45245606D01*
X149372741Y-45154394D01*
X149400000Y-45052661D01*
X149400000Y-44947339D01*
X149372741Y-44845606D01*
X149320080Y-44754394D01*
X149315686Y-44750000D01*
X150750000Y-44750000D01*
X150750000Y-44202172D01*
X150749999Y-44202155D01*
X150743598Y-44142627D01*
X150743596Y-44142620D01*
X150693354Y-44007913D01*
X150693350Y-44007906D01*
X150607190Y-43892812D01*
X150607187Y-43892809D01*
X150568929Y-43864169D01*
X150527058Y-43808235D01*
X150522074Y-43738544D01*
X150542924Y-43692016D01*
X150569524Y-43655405D01*
X150658884Y-43480025D01*
X150719709Y-43292826D01*
X150733695Y-43204522D01*
X150750500Y-43098422D01*
X150750500Y-42901577D01*
X150719709Y-42707173D01*
X150683915Y-42597011D01*
X150658884Y-42519975D01*
X150658882Y-42519972D01*
X150658882Y-42519970D01*
X150599499Y-42403425D01*
X150569524Y-42344595D01*
X150453828Y-42185354D01*
X150356155Y-42087681D01*
X150322670Y-42026358D01*
X150327654Y-41956666D01*
X150356155Y-41912319D01*
X150397324Y-41871150D01*
X150453828Y-41814646D01*
X150569524Y-41655405D01*
X150658884Y-41480025D01*
X150719709Y-41292826D01*
X150750500Y-41098422D01*
X150750500Y-40901577D01*
X150719709Y-40707173D01*
X150670129Y-40554584D01*
X150658884Y-40519975D01*
X150658882Y-40519972D01*
X150658882Y-40519970D01*
X150567647Y-40340912D01*
X150554751Y-40272243D01*
X150581027Y-40207502D01*
X150605248Y-40184298D01*
X150692652Y-40120796D01*
X150692652Y-40120795D01*
X150692656Y-40120793D01*
X150870793Y-39942656D01*
X151018870Y-39738845D01*
X151133241Y-39514379D01*
X151211090Y-39274785D01*
X151250500Y-39025962D01*
X151250500Y-38774038D01*
X151211090Y-38525215D01*
X151133241Y-38285621D01*
X151133239Y-38285618D01*
X151133239Y-38285616D01*
X151084525Y-38190011D01*
X151018870Y-38061155D01*
X150999952Y-38035117D01*
X150870798Y-37857350D01*
X150870794Y-37857345D01*
X150692654Y-37679205D01*
X150692649Y-37679201D01*
X150488848Y-37531132D01*
X150488847Y-37531131D01*
X150488845Y-37531130D01*
X150418747Y-37495413D01*
X150264383Y-37416760D01*
X150024785Y-37338910D01*
X149775962Y-37299500D01*
X148224038Y-37299500D01*
X148099626Y-37319205D01*
X147975214Y-37338910D01*
X147735616Y-37416760D01*
X147511151Y-37531132D01*
X147307350Y-37679201D01*
X147307345Y-37679205D01*
X147129205Y-37857345D01*
X147129201Y-37857350D01*
X146981132Y-38061151D01*
X146866760Y-38285616D01*
X146788910Y-38525214D01*
X146788910Y-38525215D01*
X146749500Y-38774038D01*
X143031915Y-38774038D01*
X143002284Y-38715885D01*
X142881971Y-38550286D01*
X142737213Y-38405528D01*
X142571614Y-38285215D01*
X142565006Y-38281848D01*
X142478917Y-38237983D01*
X142428123Y-38190011D01*
X142411328Y-38122190D01*
X142433865Y-38056055D01*
X142478917Y-38017016D01*
X142571610Y-37969787D01*
X142726368Y-37857350D01*
X142737213Y-37849471D01*
X142737215Y-37849468D01*
X142737219Y-37849466D01*
X142881966Y-37704719D01*
X142881968Y-37704715D01*
X142881971Y-37704713D01*
X142934732Y-37632090D01*
X143002287Y-37539110D01*
X143095220Y-37356719D01*
X143158477Y-37162034D01*
X143190500Y-36959852D01*
X143190500Y-36755148D01*
X143158477Y-36552966D01*
X143157748Y-36550723D01*
X143098737Y-36369105D01*
X143095220Y-36358281D01*
X143095218Y-36358278D01*
X143095218Y-36358276D01*
X143058474Y-36286163D01*
X143002287Y-36175890D01*
X142994556Y-36165249D01*
X142881971Y-36010286D01*
X142737213Y-35865528D01*
X142571614Y-35745215D01*
X142565006Y-35741848D01*
X142478917Y-35697983D01*
X142428123Y-35650011D01*
X142411328Y-35582190D01*
X142433865Y-35516055D01*
X142478917Y-35477016D01*
X142571610Y-35429787D01*
X142592770Y-35414413D01*
X142637456Y-35381947D01*
X145250000Y-35381947D01*
X145250000Y-35618052D01*
X145286934Y-35851247D01*
X145359897Y-36075802D01*
X145467087Y-36286174D01*
X145527338Y-36369104D01*
X145527340Y-36369105D01*
X146226212Y-35670233D01*
X146237482Y-35712292D01*
X146309890Y-35837708D01*
X146412292Y-35940110D01*
X146537708Y-36012518D01*
X146579765Y-36023787D01*
X145880893Y-36722658D01*
X145963828Y-36782914D01*
X146174197Y-36890102D01*
X146398752Y-36963065D01*
X146398751Y-36963065D01*
X146631948Y-37000000D01*
X146868052Y-37000000D01*
X147101247Y-36963065D01*
X147325802Y-36890102D01*
X147536163Y-36782918D01*
X147536169Y-36782914D01*
X147619104Y-36722658D01*
X147619105Y-36722658D01*
X146920233Y-36023787D01*
X146962292Y-36012518D01*
X147087708Y-35940110D01*
X147190110Y-35837708D01*
X147262518Y-35712292D01*
X147273787Y-35670234D01*
X147972658Y-36369105D01*
X147972658Y-36369104D01*
X148032914Y-36286169D01*
X148032918Y-36286163D01*
X148140102Y-36075802D01*
X148213065Y-35851247D01*
X148250000Y-35618052D01*
X148250000Y-35381947D01*
X148213065Y-35148752D01*
X148140102Y-34924197D01*
X148032914Y-34713828D01*
X147972658Y-34630894D01*
X147972658Y-34630893D01*
X147273787Y-35329765D01*
X147262518Y-35287708D01*
X147190110Y-35162292D01*
X147087708Y-35059890D01*
X146962292Y-34987482D01*
X146920234Y-34976212D01*
X147619105Y-34277340D01*
X147619104Y-34277338D01*
X147536174Y-34217087D01*
X147325802Y-34109897D01*
X147101247Y-34036934D01*
X147101248Y-34036934D01*
X146868052Y-34000000D01*
X146631948Y-34000000D01*
X146398752Y-34036934D01*
X146174197Y-34109897D01*
X145963830Y-34217084D01*
X145880894Y-34277340D01*
X146579766Y-34976212D01*
X146537708Y-34987482D01*
X146412292Y-35059890D01*
X146309890Y-35162292D01*
X146237482Y-35287708D01*
X146226212Y-35329766D01*
X145527340Y-34630894D01*
X145467084Y-34713830D01*
X145359897Y-34924197D01*
X145286934Y-35148752D01*
X145250000Y-35381947D01*
X142637456Y-35381947D01*
X142737213Y-35309471D01*
X142737215Y-35309468D01*
X142737219Y-35309466D01*
X142881966Y-35164719D01*
X142881968Y-35164715D01*
X142881971Y-35164713D01*
X142983410Y-35025092D01*
X143002287Y-34999110D01*
X143095220Y-34816719D01*
X143158477Y-34622034D01*
X143190500Y-34419852D01*
X143190500Y-34215148D01*
X143183934Y-34173694D01*
X143158477Y-34012965D01*
X143095218Y-33818276D01*
X143047025Y-33723694D01*
X143002287Y-33635890D01*
X142994556Y-33625249D01*
X142881971Y-33470286D01*
X142737213Y-33325528D01*
X142571614Y-33205215D01*
X142565006Y-33201848D01*
X142478917Y-33157983D01*
X142428123Y-33110011D01*
X142411328Y-33042190D01*
X142433865Y-32976055D01*
X142478917Y-32937016D01*
X142571610Y-32889787D01*
X142652969Y-32830677D01*
X142737213Y-32769471D01*
X142737215Y-32769468D01*
X142737219Y-32769466D01*
X142881966Y-32624719D01*
X142881968Y-32624715D01*
X142881971Y-32624713D01*
X142934732Y-32552090D01*
X143002287Y-32459110D01*
X143095220Y-32276719D01*
X143158477Y-32082034D01*
X143190500Y-31879852D01*
X143190500Y-31675148D01*
X143158477Y-31472966D01*
X143095220Y-31278281D01*
X143095218Y-31278278D01*
X143095218Y-31278276D01*
X143061503Y-31212107D01*
X143002287Y-31095890D01*
X142994556Y-31085249D01*
X142881971Y-30930286D01*
X142737213Y-30785528D01*
X142571614Y-30665215D01*
X142563410Y-30661035D01*
X142485703Y-30621441D01*
X142434908Y-30573468D01*
X142418113Y-30505647D01*
X142440650Y-30439512D01*
X142483546Y-30401599D01*
X142549503Y-30366343D01*
X142549515Y-30366337D01*
X142618913Y-30319965D01*
X142019410Y-29720462D01*
X142082993Y-29703425D01*
X142197007Y-29637599D01*
X142290099Y-29544507D01*
X142355925Y-29430493D01*
X142372962Y-29366910D01*
X142972464Y-29966413D01*
X142972465Y-29966413D01*
X143018837Y-29897015D01*
X143018838Y-29897011D01*
X143065509Y-29809698D01*
X143125814Y-29664112D01*
X143154555Y-29569364D01*
X143185298Y-29414802D01*
X143185298Y-29414799D01*
X143195000Y-29316289D01*
X143195000Y-29158710D01*
X143185298Y-29060200D01*
X143185298Y-29060197D01*
X143154556Y-28905643D01*
X143154552Y-28905627D01*
X143147369Y-28881947D01*
X145250000Y-28881947D01*
X145250000Y-29118052D01*
X145286934Y-29351247D01*
X145359897Y-29575802D01*
X145467087Y-29786174D01*
X145527338Y-29869104D01*
X145527340Y-29869105D01*
X146226212Y-29170233D01*
X146237482Y-29212292D01*
X146309890Y-29337708D01*
X146412292Y-29440110D01*
X146537708Y-29512518D01*
X146579765Y-29523787D01*
X145880893Y-30222658D01*
X145963828Y-30282914D01*
X146174197Y-30390102D01*
X146398752Y-30463065D01*
X146398751Y-30463065D01*
X146631948Y-30500000D01*
X146868052Y-30500000D01*
X147101247Y-30463065D01*
X147325802Y-30390102D01*
X147536163Y-30282918D01*
X147536169Y-30282914D01*
X147619104Y-30222658D01*
X147619105Y-30222658D01*
X146920233Y-29523787D01*
X146962292Y-29512518D01*
X147087708Y-29440110D01*
X147190110Y-29337708D01*
X147262518Y-29212292D01*
X147273787Y-29170234D01*
X147972658Y-29869105D01*
X147972658Y-29869104D01*
X148032914Y-29786169D01*
X148032918Y-29786163D01*
X148140102Y-29575802D01*
X148213065Y-29351247D01*
X148250000Y-29118052D01*
X148250000Y-28881947D01*
X148213065Y-28648752D01*
X148140102Y-28424197D01*
X148032914Y-28213828D01*
X147972658Y-28130894D01*
X147972658Y-28130893D01*
X147273787Y-28829765D01*
X147262518Y-28787708D01*
X147190110Y-28662292D01*
X147087708Y-28559890D01*
X146962292Y-28487482D01*
X146920234Y-28476212D01*
X147619105Y-27777340D01*
X147619104Y-27777338D01*
X147536174Y-27717087D01*
X147325802Y-27609897D01*
X147101247Y-27536934D01*
X147101248Y-27536934D01*
X146868052Y-27500000D01*
X146631948Y-27500000D01*
X146398752Y-27536934D01*
X146174197Y-27609897D01*
X145963830Y-27717084D01*
X145880894Y-27777340D01*
X146579766Y-28476212D01*
X146537708Y-28487482D01*
X146412292Y-28559890D01*
X146309890Y-28662292D01*
X146237482Y-28787708D01*
X146226212Y-28829766D01*
X145527340Y-28130894D01*
X145467084Y-28213830D01*
X145359897Y-28424197D01*
X145286934Y-28648752D01*
X145250000Y-28881947D01*
X143147369Y-28881947D01*
X143125814Y-28810887D01*
X143065509Y-28665301D01*
X143018844Y-28577998D01*
X143018838Y-28577988D01*
X142972465Y-28508585D01*
X142372962Y-29108088D01*
X142355925Y-29044507D01*
X142290099Y-28930493D01*
X142197007Y-28837401D01*
X142082993Y-28771575D01*
X142019410Y-28754537D01*
X142618912Y-28155034D01*
X142549511Y-28108661D01*
X142549500Y-28108655D01*
X142483545Y-28073400D01*
X142433701Y-28024437D01*
X142418241Y-27956299D01*
X142442073Y-27890619D01*
X142485702Y-27853559D01*
X142571610Y-27809787D01*
X142737219Y-27689466D01*
X142881966Y-27544719D01*
X142881968Y-27544715D01*
X142881971Y-27544713D01*
X142938382Y-27467068D01*
X143002287Y-27379110D01*
X143095220Y-27196719D01*
X143158477Y-27002034D01*
X143190500Y-26799852D01*
X143190500Y-26595148D01*
X143171546Y-26475478D01*
X143158477Y-26392965D01*
X143112530Y-26251555D01*
X143095220Y-26198281D01*
X143095218Y-26198278D01*
X143095218Y-26198276D01*
X143061503Y-26132107D01*
X143002287Y-26015890D01*
X142994556Y-26005249D01*
X142881971Y-25850286D01*
X142737217Y-25705532D01*
X142737212Y-25705528D01*
X142656440Y-25646844D01*
X142613774Y-25591515D01*
X142607795Y-25521901D01*
X142640400Y-25460106D01*
X142692433Y-25428141D01*
X142779606Y-25400978D01*
X142925185Y-25312972D01*
X143045472Y-25192685D01*
X143133478Y-25047106D01*
X143184086Y-24884696D01*
X143185351Y-24870774D01*
X143211023Y-24805793D01*
X143267752Y-24765006D01*
X143308842Y-24758000D01*
X146107403Y-24758000D01*
X146174442Y-24777685D01*
G37*
%TD.AperFunction*%
%TA.AperFunction,Conductor*%
G36*
X129919226Y-22770185D02*
G01*
X129964981Y-22822989D01*
X129974925Y-22892147D01*
X129945900Y-22955703D01*
X129890506Y-22992430D01*
X129756588Y-23035943D01*
X129756585Y-23035944D01*
X129567179Y-23132451D01*
X129395213Y-23257390D01*
X129244890Y-23407713D01*
X129119951Y-23579679D01*
X129023444Y-23769085D01*
X128957753Y-23971260D01*
X128924500Y-24181213D01*
X128924500Y-24393787D01*
X128957754Y-24603743D01*
X129023404Y-24805793D01*
X129023444Y-24805914D01*
X129119951Y-24995320D01*
X129244890Y-25167286D01*
X129395213Y-25317609D01*
X129567179Y-25442548D01*
X129567181Y-25442549D01*
X129567184Y-25442551D01*
X129756588Y-25539057D01*
X129958757Y-25604746D01*
X130168713Y-25638000D01*
X130168714Y-25638000D01*
X130381286Y-25638000D01*
X130381287Y-25638000D01*
X130591243Y-25604746D01*
X130793412Y-25539057D01*
X130982816Y-25442551D01*
X131069420Y-25379630D01*
X131154786Y-25317609D01*
X131154788Y-25317606D01*
X131154792Y-25317604D01*
X131305104Y-25167292D01*
X131305106Y-25167288D01*
X131305109Y-25167286D01*
X131430048Y-24995320D01*
X131430047Y-24995320D01*
X131430051Y-24995316D01*
X131526557Y-24805912D01*
X131592246Y-24603743D01*
X131625500Y-24393787D01*
X131625500Y-24181213D01*
X131592246Y-23971257D01*
X131526557Y-23769088D01*
X131430051Y-23579684D01*
X131430049Y-23579681D01*
X131430048Y-23579679D01*
X131305109Y-23407713D01*
X131154786Y-23257390D01*
X130982820Y-23132451D01*
X130793414Y-23035944D01*
X130793413Y-23035943D01*
X130793412Y-23035943D01*
X130659493Y-22992430D01*
X130601819Y-22952994D01*
X130574621Y-22888635D01*
X130586536Y-22819789D01*
X130633780Y-22768313D01*
X130697813Y-22750500D01*
X135302187Y-22750500D01*
X135369226Y-22770185D01*
X135414981Y-22822989D01*
X135424925Y-22892147D01*
X135395900Y-22955703D01*
X135340506Y-22992430D01*
X135206588Y-23035943D01*
X135206585Y-23035944D01*
X135017179Y-23132451D01*
X134845213Y-23257390D01*
X134694890Y-23407713D01*
X134569951Y-23579679D01*
X134473444Y-23769085D01*
X134407753Y-23971260D01*
X134374500Y-24181213D01*
X134374500Y-24393787D01*
X134407754Y-24603743D01*
X134473404Y-24805793D01*
X134473444Y-24805914D01*
X134569951Y-24995320D01*
X134694890Y-25167286D01*
X134845213Y-25317609D01*
X135017179Y-25442548D01*
X135017181Y-25442549D01*
X135017184Y-25442551D01*
X135206588Y-25539057D01*
X135408757Y-25604746D01*
X135618713Y-25638000D01*
X135618714Y-25638000D01*
X135831286Y-25638000D01*
X135831287Y-25638000D01*
X136041243Y-25604746D01*
X136243412Y-25539057D01*
X136432816Y-25442551D01*
X136519420Y-25379630D01*
X136604786Y-25317609D01*
X136604788Y-25317606D01*
X136604792Y-25317604D01*
X136755104Y-25167292D01*
X136755106Y-25167288D01*
X136755109Y-25167286D01*
X136880048Y-24995320D01*
X136880047Y-24995320D01*
X136880051Y-24995316D01*
X136976557Y-24805912D01*
X137042246Y-24603743D01*
X137075500Y-24393787D01*
X137075500Y-24181213D01*
X137042246Y-23971257D01*
X136976557Y-23769088D01*
X136880051Y-23579684D01*
X136880049Y-23579681D01*
X136880048Y-23579679D01*
X136755109Y-23407713D01*
X136604786Y-23257390D01*
X136432820Y-23132451D01*
X136243414Y-23035944D01*
X136243413Y-23035943D01*
X136243412Y-23035943D01*
X136109493Y-22992430D01*
X136051819Y-22952994D01*
X136024621Y-22888635D01*
X136036536Y-22819789D01*
X136083780Y-22768313D01*
X136147813Y-22750500D01*
X140826084Y-22750500D01*
X140893123Y-22770185D01*
X140938878Y-22822989D01*
X140948822Y-22892147D01*
X140919797Y-22955703D01*
X140890236Y-22980614D01*
X140870690Y-22992431D01*
X140854811Y-23002030D01*
X140734530Y-23122311D01*
X140646522Y-23267893D01*
X140595913Y-23430307D01*
X140589500Y-23500886D01*
X140589500Y-24814113D01*
X140595913Y-24884692D01*
X140646522Y-25047106D01*
X140734530Y-25192688D01*
X140854811Y-25312969D01*
X140854813Y-25312970D01*
X140854815Y-25312972D01*
X141000394Y-25400978D01*
X141087566Y-25428141D01*
X141145712Y-25466878D01*
X141173686Y-25530903D01*
X141162605Y-25599888D01*
X141123560Y-25646844D01*
X141042782Y-25705532D01*
X140898028Y-25850286D01*
X140777715Y-26015886D01*
X140684781Y-26198276D01*
X140621522Y-26392965D01*
X140589500Y-26595148D01*
X140589500Y-26799851D01*
X140621522Y-27002034D01*
X140684781Y-27196723D01*
X140777715Y-27379113D01*
X140898028Y-27544713D01*
X141042782Y-27689467D01*
X141042787Y-27689471D01*
X141119583Y-27745267D01*
X141162249Y-27800597D01*
X141168228Y-27870210D01*
X141135622Y-27932005D01*
X141077365Y-27965733D01*
X141056973Y-27970937D01*
X141056962Y-27970941D01*
X141000415Y-27994363D01*
X141760589Y-28754537D01*
X141697007Y-28771575D01*
X141582993Y-28837401D01*
X141489901Y-28930493D01*
X141424075Y-29044507D01*
X141407037Y-29108089D01*
X140646863Y-28347915D01*
X140646862Y-28347915D01*
X140623446Y-28404447D01*
X140623431Y-28404487D01*
X140605457Y-28455439D01*
X140605455Y-28455446D01*
X140585000Y-28597719D01*
X140585000Y-29877285D01*
X140587893Y-29931262D01*
X140587893Y-29931264D01*
X140623438Y-30070530D01*
X140623442Y-30070543D01*
X140646862Y-30127084D01*
X141407037Y-29366910D01*
X141424075Y-29430493D01*
X141489901Y-29544507D01*
X141582993Y-29637599D01*
X141697007Y-29703425D01*
X141760589Y-29720462D01*
X141000414Y-30480635D01*
X141056960Y-30504057D01*
X141056986Y-30504067D01*
X141085621Y-30514169D01*
X141142294Y-30555034D01*
X141167876Y-30620052D01*
X141154246Y-30688580D01*
X141117256Y-30731424D01*
X141042782Y-30785532D01*
X140898028Y-30930286D01*
X140777715Y-31095886D01*
X140684781Y-31278276D01*
X140621522Y-31472965D01*
X140589500Y-31675148D01*
X140589500Y-31879851D01*
X140621522Y-32082034D01*
X140684781Y-32276723D01*
X140777715Y-32459113D01*
X140898028Y-32624713D01*
X141042786Y-32769471D01*
X141197749Y-32882056D01*
X141208390Y-32889787D01*
X141299840Y-32936383D01*
X141301080Y-32937015D01*
X141351876Y-32984990D01*
X141368671Y-33052811D01*
X141346134Y-33118946D01*
X141301080Y-33157985D01*
X141208386Y-33205215D01*
X141042786Y-33325528D01*
X140898028Y-33470286D01*
X140777715Y-33635886D01*
X140684781Y-33818276D01*
X140621522Y-34012965D01*
X140589500Y-34215148D01*
X140589500Y-34419851D01*
X140621522Y-34622034D01*
X140684781Y-34816723D01*
X140739543Y-34924197D01*
X140771788Y-34987482D01*
X140777715Y-34999113D01*
X140898028Y-35164713D01*
X141042786Y-35309471D01*
X141197749Y-35422056D01*
X141208390Y-35429787D01*
X141299840Y-35476383D01*
X141301080Y-35477015D01*
X141351876Y-35524990D01*
X141368671Y-35592811D01*
X141346134Y-35658946D01*
X141301080Y-35697985D01*
X141208386Y-35745215D01*
X141042786Y-35865528D01*
X140898028Y-36010286D01*
X140777715Y-36175886D01*
X140684781Y-36358276D01*
X140621522Y-36552965D01*
X140589500Y-36755148D01*
X140589500Y-36959851D01*
X140621522Y-37162034D01*
X140684781Y-37356723D01*
X140777715Y-37539113D01*
X140898028Y-37704713D01*
X141042786Y-37849471D01*
X141197749Y-37962056D01*
X141208390Y-37969787D01*
X141299840Y-38016383D01*
X141301080Y-38017015D01*
X141351876Y-38064990D01*
X141368671Y-38132811D01*
X141346134Y-38198946D01*
X141301080Y-38237985D01*
X141208386Y-38285215D01*
X141042786Y-38405528D01*
X140898028Y-38550286D01*
X140777715Y-38715886D01*
X140684781Y-38898276D01*
X140621522Y-39092965D01*
X140589500Y-39295148D01*
X140589500Y-39499851D01*
X140621522Y-39702034D01*
X140684781Y-39896723D01*
X140777715Y-40079113D01*
X140898028Y-40244713D01*
X141042782Y-40389467D01*
X141042787Y-40389471D01*
X141119583Y-40445267D01*
X141162249Y-40500597D01*
X141168228Y-40570210D01*
X141135622Y-40632005D01*
X141077365Y-40665733D01*
X141056973Y-40670937D01*
X141056962Y-40670941D01*
X141000415Y-40694363D01*
X141760589Y-41454537D01*
X141697007Y-41471575D01*
X141582993Y-41537401D01*
X141489901Y-41630493D01*
X141424075Y-41744507D01*
X141407037Y-41808089D01*
X140646863Y-41047915D01*
X140646862Y-41047915D01*
X140623446Y-41104447D01*
X140623431Y-41104487D01*
X140605457Y-41155439D01*
X140605455Y-41155446D01*
X140585000Y-41297719D01*
X140585000Y-42577285D01*
X140587893Y-42631262D01*
X140587893Y-42631264D01*
X140623438Y-42770530D01*
X140623442Y-42770543D01*
X140646862Y-42827084D01*
X141407037Y-42066910D01*
X141424075Y-42130493D01*
X141489901Y-42244507D01*
X141582993Y-42337599D01*
X141697007Y-42403425D01*
X141760589Y-42420462D01*
X141000414Y-43180635D01*
X141056960Y-43204057D01*
X141056986Y-43204067D01*
X141085621Y-43214169D01*
X141142294Y-43255034D01*
X141167876Y-43320052D01*
X141154246Y-43388580D01*
X141117256Y-43431424D01*
X141042782Y-43485532D01*
X140898028Y-43630286D01*
X140777715Y-43795886D01*
X140684781Y-43978276D01*
X140621522Y-44172965D01*
X140589500Y-44375148D01*
X140589500Y-44579851D01*
X140621522Y-44782034D01*
X140684781Y-44976723D01*
X140748691Y-45102153D01*
X140775310Y-45154394D01*
X140777715Y-45159113D01*
X140898028Y-45324713D01*
X141042786Y-45469471D01*
X141138363Y-45538910D01*
X141208390Y-45589787D01*
X141299840Y-45636383D01*
X141301080Y-45637015D01*
X141351876Y-45684990D01*
X141368671Y-45752811D01*
X141346134Y-45818946D01*
X141301080Y-45857985D01*
X141208386Y-45905215D01*
X141042786Y-46025528D01*
X140898028Y-46170286D01*
X140777715Y-46335886D01*
X140684781Y-46518276D01*
X140621522Y-46712965D01*
X140589500Y-46915148D01*
X140589500Y-47119851D01*
X140621522Y-47322034D01*
X140684781Y-47516723D01*
X140777715Y-47699113D01*
X140898028Y-47864713D01*
X141042786Y-48009471D01*
X141150577Y-48087784D01*
X141208390Y-48129787D01*
X141299840Y-48176383D01*
X141301080Y-48177015D01*
X141351876Y-48224990D01*
X141368671Y-48292811D01*
X141346134Y-48358946D01*
X141301080Y-48397985D01*
X141208386Y-48445215D01*
X141042786Y-48565528D01*
X140898028Y-48710286D01*
X140777715Y-48875886D01*
X140684781Y-49058276D01*
X140621522Y-49252965D01*
X140589500Y-49455148D01*
X140589500Y-49659851D01*
X140621522Y-49862034D01*
X140684781Y-50056723D01*
X140777715Y-50239113D01*
X140898028Y-50404713D01*
X141042786Y-50549471D01*
X141197749Y-50662056D01*
X141208390Y-50669787D01*
X141280795Y-50706679D01*
X141301080Y-50717015D01*
X141351876Y-50764990D01*
X141368671Y-50832811D01*
X141346134Y-50898946D01*
X141301080Y-50937985D01*
X141208386Y-50985215D01*
X141042786Y-51105528D01*
X140898028Y-51250286D01*
X140777715Y-51415886D01*
X140684781Y-51598276D01*
X140621522Y-51792965D01*
X140589500Y-51995148D01*
X140589500Y-52199851D01*
X140621522Y-52402034D01*
X140684781Y-52596723D01*
X140725657Y-52676945D01*
X140772937Y-52769737D01*
X140777715Y-52779113D01*
X140898028Y-52944713D01*
X141042782Y-53089467D01*
X141042787Y-53089471D01*
X141119583Y-53145267D01*
X141162249Y-53200597D01*
X141168228Y-53270210D01*
X141135622Y-53332005D01*
X141077365Y-53365733D01*
X141056973Y-53370937D01*
X141056962Y-53370941D01*
X141000415Y-53394363D01*
X141760589Y-54154537D01*
X141697007Y-54171575D01*
X141582993Y-54237401D01*
X141489901Y-54330493D01*
X141424075Y-54444507D01*
X141407037Y-54508089D01*
X140646863Y-53747915D01*
X140646862Y-53747915D01*
X140623446Y-53804447D01*
X140623431Y-53804487D01*
X140605457Y-53855439D01*
X140605455Y-53855446D01*
X140585000Y-53997719D01*
X140585000Y-55277285D01*
X140587893Y-55331262D01*
X140587893Y-55331264D01*
X140623438Y-55470530D01*
X140623442Y-55470543D01*
X140646862Y-55527084D01*
X141407037Y-54766910D01*
X141424075Y-54830493D01*
X141489901Y-54944507D01*
X141582993Y-55037599D01*
X141697007Y-55103425D01*
X141760589Y-55120462D01*
X141000414Y-55880635D01*
X141056960Y-55904057D01*
X141056986Y-55904067D01*
X141085621Y-55914169D01*
X141142294Y-55955034D01*
X141167876Y-56020052D01*
X141154246Y-56088580D01*
X141117256Y-56131424D01*
X141042782Y-56185532D01*
X140898028Y-56330286D01*
X140777715Y-56495886D01*
X140684781Y-56678276D01*
X140621522Y-56872965D01*
X140589500Y-57075148D01*
X140589500Y-57279851D01*
X140621522Y-57482034D01*
X140684781Y-57676723D01*
X140777715Y-57859113D01*
X140898028Y-58024713D01*
X141042786Y-58169471D01*
X141197749Y-58282056D01*
X141208390Y-58289787D01*
X141299840Y-58336383D01*
X141301080Y-58337015D01*
X141351876Y-58384990D01*
X141368671Y-58452811D01*
X141346134Y-58518946D01*
X141301080Y-58557985D01*
X141208386Y-58605215D01*
X141042786Y-58725528D01*
X140898028Y-58870286D01*
X140777715Y-59035886D01*
X140684781Y-59218276D01*
X140621522Y-59412965D01*
X140589500Y-59615148D01*
X140589500Y-59819851D01*
X140621522Y-60022034D01*
X140684781Y-60216723D01*
X140777715Y-60399113D01*
X140898028Y-60564713D01*
X141042786Y-60709471D01*
X141197749Y-60822056D01*
X141208390Y-60829787D01*
X141299840Y-60876383D01*
X141301080Y-60877015D01*
X141351876Y-60924990D01*
X141368671Y-60992811D01*
X141346134Y-61058946D01*
X141301080Y-61097985D01*
X141208386Y-61145215D01*
X141042786Y-61265528D01*
X140898028Y-61410286D01*
X140777715Y-61575886D01*
X140684781Y-61758276D01*
X140621522Y-61952965D01*
X140589500Y-62155148D01*
X140589500Y-62348403D01*
X140569815Y-62415442D01*
X140517011Y-62461197D01*
X140447853Y-62471141D01*
X140384297Y-62442116D01*
X140377819Y-62436084D01*
X125847819Y-47906084D01*
X125814334Y-47844761D01*
X125811500Y-47818403D01*
X125811500Y-46482395D01*
X125811499Y-46482391D01*
X125783989Y-46379716D01*
X125783989Y-46379715D01*
X125770578Y-46329667D01*
X125770577Y-46329666D01*
X125770577Y-46329665D01*
X125741639Y-46279545D01*
X125691520Y-46192734D01*
X125579716Y-46080930D01*
X125579715Y-46080929D01*
X125575385Y-46076599D01*
X125575374Y-46076589D01*
X125050416Y-45551631D01*
X125016931Y-45490308D01*
X125021915Y-45420616D01*
X125050416Y-45376269D01*
X125066460Y-45360225D01*
X125101966Y-45324719D01*
X125101968Y-45324715D01*
X125101971Y-45324713D01*
X125184409Y-45211245D01*
X125222287Y-45159110D01*
X125315220Y-44976719D01*
X125378477Y-44782034D01*
X125410500Y-44579852D01*
X125410500Y-44375148D01*
X125390757Y-44250500D01*
X125378477Y-44172965D01*
X125338858Y-44051032D01*
X125315220Y-43978281D01*
X125315218Y-43978278D01*
X125315218Y-43978276D01*
X125257077Y-43864169D01*
X125222287Y-43795890D01*
X125180623Y-43738544D01*
X125101971Y-43630286D01*
X124957217Y-43485532D01*
X124957212Y-43485528D01*
X124880936Y-43430110D01*
X124838270Y-43374780D01*
X124832291Y-43305167D01*
X124864897Y-43243372D01*
X124923158Y-43209643D01*
X124943226Y-43204522D01*
X125016735Y-43174074D01*
X125065551Y-43150719D01*
X125180733Y-43064494D01*
X125236994Y-43008233D01*
X125273157Y-42967975D01*
X125346574Y-42844235D01*
X125377022Y-42770726D01*
X125395024Y-42719698D01*
X125415500Y-42577282D01*
X125415500Y-41297718D01*
X125412604Y-41243685D01*
X125377022Y-41104274D01*
X125346574Y-41030765D01*
X125323219Y-40981949D01*
X125236994Y-40866767D01*
X125236989Y-40866762D01*
X125236984Y-40866756D01*
X125180747Y-40810519D01*
X125178222Y-40808251D01*
X125140475Y-40774343D01*
X125140467Y-40774337D01*
X125016736Y-40700926D01*
X125016737Y-40700926D01*
X124948001Y-40672456D01*
X124943226Y-40670478D01*
X124943217Y-40670475D01*
X124943205Y-40670470D01*
X124914863Y-40660471D01*
X124858193Y-40619603D01*
X124832613Y-40554584D01*
X124846246Y-40486058D01*
X124883236Y-40443217D01*
X124957215Y-40389469D01*
X124957215Y-40389468D01*
X124957219Y-40389466D01*
X125101966Y-40244719D01*
X125101968Y-40244715D01*
X125101971Y-40244713D01*
X125191999Y-40120798D01*
X125222287Y-40079110D01*
X125315220Y-39896719D01*
X125378477Y-39702034D01*
X125410500Y-39499852D01*
X125410500Y-39295148D01*
X125378477Y-39092966D01*
X125315220Y-38898281D01*
X125315218Y-38898278D01*
X125315218Y-38898276D01*
X125278116Y-38825461D01*
X125222287Y-38715890D01*
X125214556Y-38705249D01*
X125101971Y-38550286D01*
X124957213Y-38405528D01*
X124791614Y-38285215D01*
X124785006Y-38281848D01*
X124698917Y-38237983D01*
X124648123Y-38190011D01*
X124631328Y-38122190D01*
X124653865Y-38056055D01*
X124698917Y-38017016D01*
X124791610Y-37969787D01*
X124946368Y-37857350D01*
X124957213Y-37849471D01*
X124957215Y-37849468D01*
X124957219Y-37849466D01*
X125101966Y-37704719D01*
X125101968Y-37704715D01*
X125101971Y-37704713D01*
X125154732Y-37632090D01*
X125222287Y-37539110D01*
X125315220Y-37356719D01*
X125378477Y-37162034D01*
X125410500Y-36959852D01*
X125410500Y-36755148D01*
X125395912Y-36663043D01*
X125378477Y-36552965D01*
X125318737Y-36369105D01*
X125315220Y-36358281D01*
X125315218Y-36358278D01*
X125315218Y-36358276D01*
X125278474Y-36286163D01*
X125222287Y-36175890D01*
X125214556Y-36165249D01*
X125101971Y-36010286D01*
X124957213Y-35865528D01*
X124791614Y-35745215D01*
X124785006Y-35741848D01*
X124698917Y-35697983D01*
X124648123Y-35650011D01*
X124631328Y-35582190D01*
X124653865Y-35516055D01*
X124698917Y-35477016D01*
X124791610Y-35429787D01*
X124812770Y-35414413D01*
X124957213Y-35309471D01*
X124957215Y-35309468D01*
X124957219Y-35309466D01*
X125101966Y-35164719D01*
X125101968Y-35164715D01*
X125101971Y-35164713D01*
X125203410Y-35025092D01*
X125222287Y-34999110D01*
X125315220Y-34816719D01*
X125378477Y-34622034D01*
X125410500Y-34419852D01*
X125410500Y-34215148D01*
X125403934Y-34173694D01*
X125378477Y-34012965D01*
X125315218Y-33818276D01*
X125267025Y-33723694D01*
X125222287Y-33635890D01*
X125214556Y-33625249D01*
X125101971Y-33470286D01*
X124957213Y-33325528D01*
X124791614Y-33205215D01*
X124785006Y-33201848D01*
X124698917Y-33157983D01*
X124648123Y-33110011D01*
X124631328Y-33042190D01*
X124653865Y-32976055D01*
X124698917Y-32937016D01*
X124791610Y-32889787D01*
X124872969Y-32830677D01*
X124957213Y-32769471D01*
X124957215Y-32769468D01*
X124957219Y-32769466D01*
X125101966Y-32624719D01*
X125101968Y-32624715D01*
X125101971Y-32624713D01*
X125154732Y-32552090D01*
X125222287Y-32459110D01*
X125315220Y-32276719D01*
X125378477Y-32082034D01*
X125410500Y-31879852D01*
X125410500Y-31675148D01*
X125378477Y-31472966D01*
X125315220Y-31278281D01*
X125315218Y-31278278D01*
X125315218Y-31278276D01*
X125281503Y-31212107D01*
X125222287Y-31095890D01*
X125214556Y-31085249D01*
X125101971Y-30930286D01*
X124957217Y-30785532D01*
X124880415Y-30729732D01*
X124837750Y-30674402D01*
X124831771Y-30604788D01*
X124864377Y-30542994D01*
X124922640Y-30509265D01*
X124943039Y-30504059D01*
X124999584Y-30480636D01*
X124999584Y-30480635D01*
X124239410Y-29720462D01*
X124302993Y-29703425D01*
X124417007Y-29637599D01*
X124510099Y-29544507D01*
X124575925Y-29430493D01*
X124592962Y-29366911D01*
X125353135Y-30127084D01*
X125353136Y-30127084D01*
X125376552Y-30070553D01*
X125394544Y-30019553D01*
X125414999Y-29877280D01*
X125415000Y-29877279D01*
X125415000Y-28597714D01*
X125412106Y-28543737D01*
X125412106Y-28543735D01*
X125376561Y-28404469D01*
X125376559Y-28404462D01*
X125353135Y-28347914D01*
X124592962Y-29108088D01*
X124575925Y-29044507D01*
X124510099Y-28930493D01*
X124417007Y-28837401D01*
X124302993Y-28771575D01*
X124239410Y-28754537D01*
X124999584Y-27994362D01*
X124943059Y-27970949D01*
X124943048Y-27970945D01*
X124914374Y-27960829D01*
X124857703Y-27919962D01*
X124832122Y-27854943D01*
X124845754Y-27786416D01*
X124882745Y-27743574D01*
X124957215Y-27689469D01*
X124957215Y-27689468D01*
X124957219Y-27689466D01*
X125101966Y-27544719D01*
X125101968Y-27544715D01*
X125101971Y-27544713D01*
X125158382Y-27467068D01*
X125222287Y-27379110D01*
X125300817Y-27224986D01*
X129399500Y-27224986D01*
X129399500Y-27410013D01*
X129428445Y-27592765D01*
X129485619Y-27768732D01*
X129485620Y-27768735D01*
X129528840Y-27853557D01*
X129569622Y-27933596D01*
X129678379Y-28083287D01*
X129809213Y-28214121D01*
X129958904Y-28322878D01*
X130008040Y-28347914D01*
X130123764Y-28406879D01*
X130123767Y-28406880D01*
X130211750Y-28435467D01*
X130299736Y-28464055D01*
X130482486Y-28493000D01*
X130482487Y-28493000D01*
X130667513Y-28493000D01*
X130667514Y-28493000D01*
X130850264Y-28464055D01*
X131026235Y-28406879D01*
X131191096Y-28322878D01*
X131340787Y-28214121D01*
X131471621Y-28083287D01*
X131580378Y-27933596D01*
X131664379Y-27768735D01*
X131721555Y-27592764D01*
X131750500Y-27410014D01*
X131750500Y-27224986D01*
X134249500Y-27224986D01*
X134249500Y-27410013D01*
X134278445Y-27592765D01*
X134335619Y-27768732D01*
X134335620Y-27768735D01*
X134378840Y-27853557D01*
X134419622Y-27933596D01*
X134528379Y-28083287D01*
X134659213Y-28214121D01*
X134808904Y-28322878D01*
X134858040Y-28347914D01*
X134973764Y-28406879D01*
X134973767Y-28406880D01*
X135061750Y-28435467D01*
X135149736Y-28464055D01*
X135332486Y-28493000D01*
X135332487Y-28493000D01*
X135517513Y-28493000D01*
X135517514Y-28493000D01*
X135590660Y-28481414D01*
X135657578Y-28470816D01*
X135663847Y-28469822D01*
X135700264Y-28464055D01*
X135876235Y-28406879D01*
X136041096Y-28322878D01*
X136190787Y-28214121D01*
X136321621Y-28083287D01*
X136430378Y-27933596D01*
X136514379Y-27768735D01*
X136571555Y-27592764D01*
X136600500Y-27410014D01*
X136600500Y-27224986D01*
X136571555Y-27042236D01*
X136514379Y-26866265D01*
X136514379Y-26866264D01*
X136464248Y-26767877D01*
X136430378Y-26701404D01*
X136321621Y-26551713D01*
X136190787Y-26420879D01*
X136041096Y-26312122D01*
X135876235Y-26228120D01*
X135876232Y-26228119D01*
X135700265Y-26170945D01*
X135599895Y-26155048D01*
X135517514Y-26142000D01*
X135332486Y-26142000D01*
X135271569Y-26151648D01*
X135149734Y-26170945D01*
X134973767Y-26228119D01*
X134973764Y-26228120D01*
X134808903Y-26312122D01*
X134756081Y-26350500D01*
X134659213Y-26420879D01*
X134659211Y-26420881D01*
X134659210Y-26420881D01*
X134528381Y-26551710D01*
X134528381Y-26551711D01*
X134528379Y-26551713D01*
X134496822Y-26595148D01*
X134419622Y-26701403D01*
X134335620Y-26866264D01*
X134335619Y-26866267D01*
X134278445Y-27042234D01*
X134249500Y-27224986D01*
X131750500Y-27224986D01*
X131721555Y-27042236D01*
X131664379Y-26866265D01*
X131664379Y-26866264D01*
X131614248Y-26767877D01*
X131580378Y-26701404D01*
X131471621Y-26551713D01*
X131340787Y-26420879D01*
X131191096Y-26312122D01*
X131026235Y-26228120D01*
X131026232Y-26228119D01*
X130850265Y-26170945D01*
X130749895Y-26155048D01*
X130667514Y-26142000D01*
X130482486Y-26142000D01*
X130421569Y-26151648D01*
X130299734Y-26170945D01*
X130123767Y-26228119D01*
X130123764Y-26228120D01*
X129958903Y-26312122D01*
X129906081Y-26350500D01*
X129809213Y-26420879D01*
X129809211Y-26420881D01*
X129809210Y-26420881D01*
X129678381Y-26551710D01*
X129678381Y-26551711D01*
X129678379Y-26551713D01*
X129646822Y-26595148D01*
X129569622Y-26701403D01*
X129485620Y-26866264D01*
X129485619Y-26866267D01*
X129428445Y-27042234D01*
X129399500Y-27224986D01*
X125300817Y-27224986D01*
X125315220Y-27196719D01*
X125332185Y-27144507D01*
X125378476Y-27002038D01*
X125378476Y-27002037D01*
X125378477Y-27002034D01*
X125410500Y-26799852D01*
X125410500Y-26595148D01*
X125391546Y-26475478D01*
X125378477Y-26392965D01*
X125332530Y-26251555D01*
X125315220Y-26198281D01*
X125315218Y-26198278D01*
X125315218Y-26198276D01*
X125281503Y-26132107D01*
X125222287Y-26015890D01*
X125214556Y-26005249D01*
X125101971Y-25850286D01*
X124957213Y-25705528D01*
X124791614Y-25585215D01*
X124785006Y-25581848D01*
X124698917Y-25537983D01*
X124648123Y-25490011D01*
X124631328Y-25422190D01*
X124653865Y-25356055D01*
X124698917Y-25317016D01*
X124791610Y-25269787D01*
X124897733Y-25192685D01*
X124957213Y-25149471D01*
X124957215Y-25149468D01*
X124957219Y-25149466D01*
X125101966Y-25004719D01*
X125101968Y-25004715D01*
X125101971Y-25004713D01*
X125199281Y-24870775D01*
X125222287Y-24839110D01*
X125315220Y-24656719D01*
X125378477Y-24462034D01*
X125410500Y-24259852D01*
X125410500Y-24055148D01*
X125378477Y-23852966D01*
X125315220Y-23658281D01*
X125315218Y-23658278D01*
X125315218Y-23658276D01*
X125275170Y-23579679D01*
X125222287Y-23475890D01*
X125199281Y-23444225D01*
X125101971Y-23310286D01*
X124957213Y-23165528D01*
X124791614Y-23045215D01*
X124673406Y-22984985D01*
X124622610Y-22937010D01*
X124605815Y-22869189D01*
X124628352Y-22803054D01*
X124683068Y-22759603D01*
X124729701Y-22750500D01*
X129852187Y-22750500D01*
X129919226Y-22770185D01*
G37*
%TD.AperFunction*%
%TD*%
M02*
