%TF.GenerationSoftware,KiCad,Pcbnew,9.0.5*%
%TF.CreationDate,2025-10-04T16:27:51-04:00*%
%TF.ProjectId,LightBoard-Gift,4c696768-7442-46f6-9172-642d47696674,rev?*%
%TF.SameCoordinates,Original*%
%TF.FileFunction,Legend,Bot*%
%TF.FilePolarity,Positive*%
%FSLAX46Y46*%
G04 Gerber Fmt 4.6, Leading zero omitted, Abs format (unit mm)*
G04 Created by KiCad (PCBNEW 9.0.5) date 2025-10-04 16:27:51*
%MOMM*%
%LPD*%
G01*
G04 APERTURE LIST*
%ADD10C,0.300000*%
%ADD11C,0.150000*%
%ADD12C,0.120000*%
G04 APERTURE END LIST*
D10*
X137048866Y-65412834D02*
X138497755Y-65024605D01*
X136882483Y-64791881D02*
X137641424Y-64588524D01*
X137641424Y-64588524D02*
X137797901Y-64620544D01*
X137797901Y-64620544D02*
X137903870Y-64740047D01*
X137903870Y-64740047D02*
X137959331Y-64947031D01*
X137959331Y-64947031D02*
X137927310Y-65103507D01*
X137927310Y-65103507D02*
X137876803Y-65190989D01*
X137718999Y-64050099D02*
X137571102Y-63498142D01*
X138146501Y-63713706D02*
X136904596Y-64046473D01*
X136904596Y-64046473D02*
X136748120Y-64014453D01*
X136748120Y-64014453D02*
X136642151Y-63894950D01*
X136642151Y-63894950D02*
X136605177Y-63756961D01*
X137497154Y-63222163D02*
X137349257Y-62670205D01*
X137924656Y-62885769D02*
X136682751Y-63218537D01*
X136682751Y-63218537D02*
X136526275Y-63186516D01*
X136526275Y-63186516D02*
X136420306Y-63067014D01*
X136420306Y-63067014D02*
X136383332Y-62929024D01*
X137219848Y-62187242D02*
X135770959Y-62575471D01*
X137150853Y-62205729D02*
X137182874Y-62049253D01*
X137182874Y-62049253D02*
X137108925Y-61773274D01*
X137108925Y-61773274D02*
X137002957Y-61653772D01*
X137002957Y-61653772D02*
X136915475Y-61603264D01*
X136915475Y-61603264D02*
X136758998Y-61571243D01*
X136758998Y-61571243D02*
X136345030Y-61682166D01*
X136345030Y-61682166D02*
X136225528Y-61788135D01*
X136225528Y-61788135D02*
X136175020Y-61875616D01*
X136175020Y-61875616D02*
X136143000Y-62032093D01*
X136143000Y-62032093D02*
X136216948Y-62308072D01*
X136216948Y-62308072D02*
X136322917Y-62427574D01*
X135990149Y-61185669D02*
X135884181Y-61066167D01*
X135884181Y-61066167D02*
X135810232Y-60790188D01*
X135810232Y-60790188D02*
X135842253Y-60633712D01*
X135842253Y-60633712D02*
X135961755Y-60527743D01*
X135961755Y-60527743D02*
X136030750Y-60509256D01*
X136030750Y-60509256D02*
X136187226Y-60541276D01*
X136187226Y-60541276D02*
X136293195Y-60660779D01*
X136293195Y-60660779D02*
X136348656Y-60867763D01*
X136348656Y-60867763D02*
X136454625Y-60987265D01*
X136454625Y-60987265D02*
X136611102Y-61019286D01*
X136611102Y-61019286D02*
X136680096Y-61000799D01*
X136680096Y-61000799D02*
X136799599Y-60894830D01*
X136799599Y-60894830D02*
X136831619Y-60738353D01*
X136831619Y-60738353D02*
X136776158Y-60531369D01*
X136776158Y-60531369D02*
X136670189Y-60411867D01*
X135726377Y-59925277D02*
X135638895Y-59874770D01*
X135638895Y-59874770D02*
X135588387Y-59962252D01*
X135588387Y-59962252D02*
X135675869Y-60012759D01*
X135675869Y-60012759D02*
X135726377Y-59925277D01*
X135726377Y-59925277D02*
X135588387Y-59962252D01*
X136485318Y-59721920D02*
X136397837Y-59671412D01*
X136397837Y-59671412D02*
X136347329Y-59758894D01*
X136347329Y-59758894D02*
X136434811Y-59809401D01*
X136434811Y-59809401D02*
X136485318Y-59721920D01*
X136485318Y-59721920D02*
X136347329Y-59758894D01*
X136644094Y-57830668D02*
X135114004Y-59571724D01*
X136237378Y-56312784D02*
X134707288Y-58053840D01*
X135389627Y-55356765D02*
X134216717Y-55671045D01*
X134216717Y-55671045D02*
X134097215Y-55777014D01*
X134097215Y-55777014D02*
X134046707Y-55864496D01*
X134046707Y-55864496D02*
X134014687Y-56020973D01*
X134014687Y-56020973D02*
X134070148Y-56227957D01*
X134070148Y-56227957D02*
X134176117Y-56347459D01*
X134492696Y-55597097D02*
X134460675Y-55753574D01*
X134460675Y-55753574D02*
X134534624Y-56029552D01*
X134534624Y-56029552D02*
X134640593Y-56149055D01*
X134640593Y-56149055D02*
X134728074Y-56199562D01*
X134728074Y-56199562D02*
X134884551Y-56231583D01*
X134884551Y-56231583D02*
X135298519Y-56120660D01*
X135298519Y-56120660D02*
X135418021Y-56014692D01*
X135418021Y-56014692D02*
X135468529Y-55927210D01*
X135468529Y-55927210D02*
X135500550Y-55770733D01*
X135500550Y-55770733D02*
X135426601Y-55494755D01*
X135426601Y-55494755D02*
X135320632Y-55375252D01*
X134238830Y-54925637D02*
X135204756Y-54666818D01*
X135687719Y-54537408D02*
X135637212Y-54624890D01*
X135637212Y-54624890D02*
X135549730Y-54574383D01*
X135549730Y-54574383D02*
X135600237Y-54486901D01*
X135600237Y-54486901D02*
X135687719Y-54537408D01*
X135687719Y-54537408D02*
X135549730Y-54574383D01*
X135075347Y-54183855D02*
X134927450Y-53631897D01*
X135502848Y-53847461D02*
X134260944Y-54180229D01*
X134260944Y-54180229D02*
X134104467Y-54148208D01*
X134104467Y-54148208D02*
X133998498Y-54028706D01*
X133998498Y-54028706D02*
X133961524Y-53890716D01*
X133832115Y-53407753D02*
X135281003Y-53019525D01*
X133665731Y-52786801D02*
X134424673Y-52583443D01*
X134424673Y-52583443D02*
X134581149Y-52615464D01*
X134581149Y-52615464D02*
X134687118Y-52734966D01*
X134687118Y-52734966D02*
X134742579Y-52941950D01*
X134742579Y-52941950D02*
X134710559Y-53098427D01*
X134710559Y-53098427D02*
X134660051Y-53185908D01*
X134280402Y-51217082D02*
X133314477Y-51475901D01*
X134446786Y-51838035D02*
X133687844Y-52041392D01*
X133687844Y-52041392D02*
X133531368Y-52009372D01*
X133531368Y-52009372D02*
X133425399Y-51889870D01*
X133425399Y-51889870D02*
X133369938Y-51682885D01*
X133369938Y-51682885D02*
X133401958Y-51526409D01*
X133401958Y-51526409D02*
X133452466Y-51438927D01*
X133129606Y-50785954D02*
X134578495Y-50397726D01*
X134026537Y-50545622D02*
X134058557Y-50389146D01*
X134058557Y-50389146D02*
X133984609Y-50113167D01*
X133984609Y-50113167D02*
X133878640Y-49993665D01*
X133878640Y-49993665D02*
X133791159Y-49943157D01*
X133791159Y-49943157D02*
X133634682Y-49911136D01*
X133634682Y-49911136D02*
X133220714Y-50022059D01*
X133220714Y-50022059D02*
X133101212Y-50128028D01*
X133101212Y-50128028D02*
X133050704Y-50215510D01*
X133050704Y-50215510D02*
X133018683Y-50371986D01*
X133018683Y-50371986D02*
X133092632Y-50647965D01*
X133092632Y-50647965D02*
X133198600Y-50767467D01*
X132916341Y-49438081D02*
X132828859Y-49387573D01*
X132828859Y-49387573D02*
X132778351Y-49475055D01*
X132778351Y-49475055D02*
X132865833Y-49525562D01*
X132865833Y-49525562D02*
X132916341Y-49438081D01*
X132916341Y-49438081D02*
X132778351Y-49475055D01*
X132496092Y-48145668D02*
X132464071Y-48302145D01*
X132464071Y-48302145D02*
X132538019Y-48578123D01*
X132538019Y-48578123D02*
X132643988Y-48697626D01*
X132643988Y-48697626D02*
X132731470Y-48748133D01*
X132731470Y-48748133D02*
X132887946Y-48780154D01*
X132887946Y-48780154D02*
X133301915Y-48669231D01*
X133301915Y-48669231D02*
X133421417Y-48563263D01*
X133421417Y-48563263D02*
X133471925Y-48475781D01*
X133471925Y-48475781D02*
X133503945Y-48319304D01*
X133503945Y-48319304D02*
X133429997Y-48043325D01*
X133429997Y-48043325D02*
X133324028Y-47923823D01*
X132205252Y-47336219D02*
X132311221Y-47455721D01*
X132311221Y-47455721D02*
X132398703Y-47506229D01*
X132398703Y-47506229D02*
X132555179Y-47538250D01*
X132555179Y-47538250D02*
X132969147Y-47427327D01*
X132969147Y-47427327D02*
X133088650Y-47321358D01*
X133088650Y-47321358D02*
X133139157Y-47233876D01*
X133139157Y-47233876D02*
X133171178Y-47077400D01*
X133171178Y-47077400D02*
X133115717Y-46870416D01*
X133115717Y-46870416D02*
X133009748Y-46750914D01*
X133009748Y-46750914D02*
X132922266Y-46700406D01*
X132922266Y-46700406D02*
X132765790Y-46668385D01*
X132765790Y-46668385D02*
X132351821Y-46779308D01*
X132351821Y-46779308D02*
X132232319Y-46885277D01*
X132232319Y-46885277D02*
X132181811Y-46972758D01*
X132181811Y-46972758D02*
X132149791Y-47129235D01*
X132149791Y-47129235D02*
X132205252Y-47336219D01*
X131909459Y-46232304D02*
X132875385Y-45973485D01*
X132737395Y-46010459D02*
X132787903Y-45922977D01*
X132787903Y-45922977D02*
X132819923Y-45766500D01*
X132819923Y-45766500D02*
X132764462Y-45559516D01*
X132764462Y-45559516D02*
X132658493Y-45440014D01*
X132658493Y-45440014D02*
X132502017Y-45407993D01*
X132502017Y-45407993D02*
X131743075Y-45611351D01*
X132502017Y-45407993D02*
X132621519Y-45302025D01*
X132621519Y-45302025D02*
X132653540Y-45145548D01*
X132653540Y-45145548D02*
X132598078Y-44938564D01*
X132598078Y-44938564D02*
X132492110Y-44819062D01*
X132492110Y-44819062D02*
X132335633Y-44787041D01*
X132335633Y-44787041D02*
X131576691Y-44990399D01*
X132632398Y-42858816D02*
X131102308Y-44599871D01*
X131072587Y-42833076D02*
X130948131Y-42644579D01*
X130948131Y-42644579D02*
X130855695Y-42299605D01*
X130855695Y-42299605D02*
X130887716Y-42143129D01*
X130887716Y-42143129D02*
X130938224Y-42055647D01*
X130938224Y-42055647D02*
X131057726Y-41949678D01*
X131057726Y-41949678D02*
X131195715Y-41912704D01*
X131195715Y-41912704D02*
X131352192Y-41944725D01*
X131352192Y-41944725D02*
X131439674Y-41995232D01*
X131439674Y-41995232D02*
X131545642Y-42114734D01*
X131545642Y-42114734D02*
X131688585Y-42372226D01*
X131688585Y-42372226D02*
X131794554Y-42491729D01*
X131794554Y-42491729D02*
X131882036Y-42542236D01*
X131882036Y-42542236D02*
X132038513Y-42574257D01*
X132038513Y-42574257D02*
X132176502Y-42537283D01*
X132176502Y-42537283D02*
X132296004Y-42431314D01*
X132296004Y-42431314D02*
X132346512Y-42343832D01*
X132346512Y-42343832D02*
X132378532Y-42187355D01*
X132378532Y-42187355D02*
X132286097Y-41842382D01*
X132286097Y-41842382D02*
X132161641Y-41653885D01*
X130448980Y-40781722D02*
X131207922Y-40578364D01*
X131207922Y-40578364D02*
X131364398Y-40610385D01*
X131364398Y-40610385D02*
X131470367Y-40729887D01*
X131470367Y-40729887D02*
X131544315Y-41005866D01*
X131544315Y-41005866D02*
X131512295Y-41162343D01*
X130517975Y-40763235D02*
X130485954Y-40919712D01*
X130485954Y-40919712D02*
X130578389Y-41264685D01*
X130578389Y-41264685D02*
X130684358Y-41384187D01*
X130684358Y-41384187D02*
X130840835Y-41416208D01*
X130840835Y-41416208D02*
X130978824Y-41379234D01*
X130978824Y-41379234D02*
X131098326Y-41273265D01*
X131098326Y-41273265D02*
X131130347Y-41116788D01*
X131130347Y-41116788D02*
X131037912Y-40771815D01*
X131037912Y-40771815D02*
X131069932Y-40615339D01*
X130208648Y-39884791D02*
X130314617Y-40004293D01*
X130314617Y-40004293D02*
X130471093Y-40036314D01*
X130471093Y-40036314D02*
X131712998Y-39703546D01*
X131082138Y-39280999D02*
X130934242Y-38729041D01*
X131509640Y-38944605D02*
X130267735Y-39277372D01*
X130267735Y-39277372D02*
X130111259Y-39245352D01*
X130111259Y-39245352D02*
X130005290Y-39125849D01*
X130005290Y-39125849D02*
X129968316Y-38987860D01*
X130841806Y-38384067D02*
X129783445Y-38297913D01*
X130656936Y-37694120D02*
X129783445Y-38297913D01*
X129783445Y-38297913D02*
X129475446Y-38528338D01*
X129475446Y-38528338D02*
X129424938Y-38615819D01*
X129424938Y-38615819D02*
X129392918Y-38772296D01*
X129543113Y-37400982D02*
X130992002Y-37012753D01*
X130992002Y-37012753D02*
X129827672Y-36807097D01*
X129827672Y-36807097D02*
X130733183Y-36046828D01*
X130733183Y-36046828D02*
X129284294Y-36435056D01*
X129020522Y-35174664D02*
X128988501Y-35331141D01*
X128988501Y-35331141D02*
X129062449Y-35607119D01*
X129062449Y-35607119D02*
X129168418Y-35726622D01*
X129168418Y-35726622D02*
X129324895Y-35758642D01*
X129324895Y-35758642D02*
X129876852Y-35610746D01*
X129876852Y-35610746D02*
X129996355Y-35504777D01*
X129996355Y-35504777D02*
X130028375Y-35348300D01*
X130028375Y-35348300D02*
X129954427Y-35072322D01*
X129954427Y-35072322D02*
X129848458Y-34952819D01*
X129848458Y-34952819D02*
X129691981Y-34920799D01*
X129691981Y-34920799D02*
X129553992Y-34957773D01*
X129553992Y-34957773D02*
X129600873Y-35684694D01*
X128711195Y-34296220D02*
X128817164Y-34415723D01*
X128817164Y-34415723D02*
X128973640Y-34447743D01*
X128973640Y-34447743D02*
X130215545Y-34114976D01*
X128507837Y-33537279D02*
X128613806Y-33656781D01*
X128613806Y-33656781D02*
X128701288Y-33707289D01*
X128701288Y-33707289D02*
X128857764Y-33739309D01*
X128857764Y-33739309D02*
X129271732Y-33628387D01*
X129271732Y-33628387D02*
X129391235Y-33522418D01*
X129391235Y-33522418D02*
X129441742Y-33434936D01*
X129441742Y-33434936D02*
X129473763Y-33278460D01*
X129473763Y-33278460D02*
X129418302Y-33071476D01*
X129418302Y-33071476D02*
X129312333Y-32951973D01*
X129312333Y-32951973D02*
X129224851Y-32901466D01*
X129224851Y-32901466D02*
X129068375Y-32869445D01*
X129068375Y-32869445D02*
X128654406Y-32980368D01*
X128654406Y-32980368D02*
X128534904Y-33086337D01*
X128534904Y-33086337D02*
X128484396Y-33173818D01*
X128484396Y-33173818D02*
X128452376Y-33330295D01*
X128452376Y-33330295D02*
X128507837Y-33537279D01*
X129177970Y-32174544D02*
X128212044Y-32433364D01*
X129039980Y-32211519D02*
X129090488Y-32124037D01*
X129090488Y-32124037D02*
X129122509Y-31967560D01*
X129122509Y-31967560D02*
X129067047Y-31760576D01*
X129067047Y-31760576D02*
X128961078Y-31641074D01*
X128961078Y-31641074D02*
X128804602Y-31609053D01*
X128804602Y-31609053D02*
X128045660Y-31812411D01*
X128476788Y-30661614D02*
X127786841Y-30846485D01*
X129365139Y-30941220D02*
X128476788Y-30661614D01*
X128476788Y-30661614D02*
X129106320Y-29975294D01*
X129032372Y-29699315D02*
X128810527Y-28871379D01*
X127472561Y-29673576D02*
X128921450Y-29285347D01*
D11*
X78916666Y-43204819D02*
X79249999Y-42728628D01*
X79488094Y-43204819D02*
X79488094Y-42204819D01*
X79488094Y-42204819D02*
X79107142Y-42204819D01*
X79107142Y-42204819D02*
X79011904Y-42252438D01*
X79011904Y-42252438D02*
X78964285Y-42300057D01*
X78964285Y-42300057D02*
X78916666Y-42395295D01*
X78916666Y-42395295D02*
X78916666Y-42538152D01*
X78916666Y-42538152D02*
X78964285Y-42633390D01*
X78964285Y-42633390D02*
X79011904Y-42681009D01*
X79011904Y-42681009D02*
X79107142Y-42728628D01*
X79107142Y-42728628D02*
X79488094Y-42728628D01*
X78440475Y-43204819D02*
X78249999Y-43204819D01*
X78249999Y-43204819D02*
X78154761Y-43157200D01*
X78154761Y-43157200D02*
X78107142Y-43109580D01*
X78107142Y-43109580D02*
X78011904Y-42966723D01*
X78011904Y-42966723D02*
X77964285Y-42776247D01*
X77964285Y-42776247D02*
X77964285Y-42395295D01*
X77964285Y-42395295D02*
X78011904Y-42300057D01*
X78011904Y-42300057D02*
X78059523Y-42252438D01*
X78059523Y-42252438D02*
X78154761Y-42204819D01*
X78154761Y-42204819D02*
X78345237Y-42204819D01*
X78345237Y-42204819D02*
X78440475Y-42252438D01*
X78440475Y-42252438D02*
X78488094Y-42300057D01*
X78488094Y-42300057D02*
X78535713Y-42395295D01*
X78535713Y-42395295D02*
X78535713Y-42633390D01*
X78535713Y-42633390D02*
X78488094Y-42728628D01*
X78488094Y-42728628D02*
X78440475Y-42776247D01*
X78440475Y-42776247D02*
X78345237Y-42823866D01*
X78345237Y-42823866D02*
X78154761Y-42823866D01*
X78154761Y-42823866D02*
X78059523Y-42776247D01*
X78059523Y-42776247D02*
X78011904Y-42728628D01*
X78011904Y-42728628D02*
X77964285Y-42633390D01*
X94324819Y-70333333D02*
X93848628Y-70000000D01*
X94324819Y-69761905D02*
X93324819Y-69761905D01*
X93324819Y-69761905D02*
X93324819Y-70142857D01*
X93324819Y-70142857D02*
X93372438Y-70238095D01*
X93372438Y-70238095D02*
X93420057Y-70285714D01*
X93420057Y-70285714D02*
X93515295Y-70333333D01*
X93515295Y-70333333D02*
X93658152Y-70333333D01*
X93658152Y-70333333D02*
X93753390Y-70285714D01*
X93753390Y-70285714D02*
X93801009Y-70238095D01*
X93801009Y-70238095D02*
X93848628Y-70142857D01*
X93848628Y-70142857D02*
X93848628Y-69761905D01*
X93324819Y-71238095D02*
X93324819Y-70761905D01*
X93324819Y-70761905D02*
X93801009Y-70714286D01*
X93801009Y-70714286D02*
X93753390Y-70761905D01*
X93753390Y-70761905D02*
X93705771Y-70857143D01*
X93705771Y-70857143D02*
X93705771Y-71095238D01*
X93705771Y-71095238D02*
X93753390Y-71190476D01*
X93753390Y-71190476D02*
X93801009Y-71238095D01*
X93801009Y-71238095D02*
X93896247Y-71285714D01*
X93896247Y-71285714D02*
X94134342Y-71285714D01*
X94134342Y-71285714D02*
X94229580Y-71238095D01*
X94229580Y-71238095D02*
X94277200Y-71190476D01*
X94277200Y-71190476D02*
X94324819Y-71095238D01*
X94324819Y-71095238D02*
X94324819Y-70857143D01*
X94324819Y-70857143D02*
X94277200Y-70761905D01*
X94277200Y-70761905D02*
X94229580Y-70714286D01*
X81324819Y-51083333D02*
X80848628Y-50750000D01*
X81324819Y-50511905D02*
X80324819Y-50511905D01*
X80324819Y-50511905D02*
X80324819Y-50892857D01*
X80324819Y-50892857D02*
X80372438Y-50988095D01*
X80372438Y-50988095D02*
X80420057Y-51035714D01*
X80420057Y-51035714D02*
X80515295Y-51083333D01*
X80515295Y-51083333D02*
X80658152Y-51083333D01*
X80658152Y-51083333D02*
X80753390Y-51035714D01*
X80753390Y-51035714D02*
X80801009Y-50988095D01*
X80801009Y-50988095D02*
X80848628Y-50892857D01*
X80848628Y-50892857D02*
X80848628Y-50511905D01*
X80324819Y-51416667D02*
X80324819Y-52083333D01*
X80324819Y-52083333D02*
X81324819Y-51654762D01*
X87324819Y-35083333D02*
X86848628Y-34750000D01*
X87324819Y-34511905D02*
X86324819Y-34511905D01*
X86324819Y-34511905D02*
X86324819Y-34892857D01*
X86324819Y-34892857D02*
X86372438Y-34988095D01*
X86372438Y-34988095D02*
X86420057Y-35035714D01*
X86420057Y-35035714D02*
X86515295Y-35083333D01*
X86515295Y-35083333D02*
X86658152Y-35083333D01*
X86658152Y-35083333D02*
X86753390Y-35035714D01*
X86753390Y-35035714D02*
X86801009Y-34988095D01*
X86801009Y-34988095D02*
X86848628Y-34892857D01*
X86848628Y-34892857D02*
X86848628Y-34511905D01*
X86753390Y-35654762D02*
X86705771Y-35559524D01*
X86705771Y-35559524D02*
X86658152Y-35511905D01*
X86658152Y-35511905D02*
X86562914Y-35464286D01*
X86562914Y-35464286D02*
X86515295Y-35464286D01*
X86515295Y-35464286D02*
X86420057Y-35511905D01*
X86420057Y-35511905D02*
X86372438Y-35559524D01*
X86372438Y-35559524D02*
X86324819Y-35654762D01*
X86324819Y-35654762D02*
X86324819Y-35845238D01*
X86324819Y-35845238D02*
X86372438Y-35940476D01*
X86372438Y-35940476D02*
X86420057Y-35988095D01*
X86420057Y-35988095D02*
X86515295Y-36035714D01*
X86515295Y-36035714D02*
X86562914Y-36035714D01*
X86562914Y-36035714D02*
X86658152Y-35988095D01*
X86658152Y-35988095D02*
X86705771Y-35940476D01*
X86705771Y-35940476D02*
X86753390Y-35845238D01*
X86753390Y-35845238D02*
X86753390Y-35654762D01*
X86753390Y-35654762D02*
X86801009Y-35559524D01*
X86801009Y-35559524D02*
X86848628Y-35511905D01*
X86848628Y-35511905D02*
X86943866Y-35464286D01*
X86943866Y-35464286D02*
X87134342Y-35464286D01*
X87134342Y-35464286D02*
X87229580Y-35511905D01*
X87229580Y-35511905D02*
X87277200Y-35559524D01*
X87277200Y-35559524D02*
X87324819Y-35654762D01*
X87324819Y-35654762D02*
X87324819Y-35845238D01*
X87324819Y-35845238D02*
X87277200Y-35940476D01*
X87277200Y-35940476D02*
X87229580Y-35988095D01*
X87229580Y-35988095D02*
X87134342Y-36035714D01*
X87134342Y-36035714D02*
X86943866Y-36035714D01*
X86943866Y-36035714D02*
X86848628Y-35988095D01*
X86848628Y-35988095D02*
X86801009Y-35940476D01*
X86801009Y-35940476D02*
X86753390Y-35845238D01*
X112416666Y-29834819D02*
X112749999Y-29358628D01*
X112988094Y-29834819D02*
X112988094Y-28834819D01*
X112988094Y-28834819D02*
X112607142Y-28834819D01*
X112607142Y-28834819D02*
X112511904Y-28882438D01*
X112511904Y-28882438D02*
X112464285Y-28930057D01*
X112464285Y-28930057D02*
X112416666Y-29025295D01*
X112416666Y-29025295D02*
X112416666Y-29168152D01*
X112416666Y-29168152D02*
X112464285Y-29263390D01*
X112464285Y-29263390D02*
X112511904Y-29311009D01*
X112511904Y-29311009D02*
X112607142Y-29358628D01*
X112607142Y-29358628D02*
X112988094Y-29358628D01*
X111464285Y-29834819D02*
X112035713Y-29834819D01*
X111749999Y-29834819D02*
X111749999Y-28834819D01*
X111749999Y-28834819D02*
X111845237Y-28977676D01*
X111845237Y-28977676D02*
X111940475Y-29072914D01*
X111940475Y-29072914D02*
X112035713Y-29120533D01*
X109324819Y-52333333D02*
X108848628Y-52000000D01*
X109324819Y-51761905D02*
X108324819Y-51761905D01*
X108324819Y-51761905D02*
X108324819Y-52142857D01*
X108324819Y-52142857D02*
X108372438Y-52238095D01*
X108372438Y-52238095D02*
X108420057Y-52285714D01*
X108420057Y-52285714D02*
X108515295Y-52333333D01*
X108515295Y-52333333D02*
X108658152Y-52333333D01*
X108658152Y-52333333D02*
X108753390Y-52285714D01*
X108753390Y-52285714D02*
X108801009Y-52238095D01*
X108801009Y-52238095D02*
X108848628Y-52142857D01*
X108848628Y-52142857D02*
X108848628Y-51761905D01*
X108324819Y-52666667D02*
X108324819Y-53285714D01*
X108324819Y-53285714D02*
X108705771Y-52952381D01*
X108705771Y-52952381D02*
X108705771Y-53095238D01*
X108705771Y-53095238D02*
X108753390Y-53190476D01*
X108753390Y-53190476D02*
X108801009Y-53238095D01*
X108801009Y-53238095D02*
X108896247Y-53285714D01*
X108896247Y-53285714D02*
X109134342Y-53285714D01*
X109134342Y-53285714D02*
X109229580Y-53238095D01*
X109229580Y-53238095D02*
X109277200Y-53190476D01*
X109277200Y-53190476D02*
X109324819Y-53095238D01*
X109324819Y-53095238D02*
X109324819Y-52809524D01*
X109324819Y-52809524D02*
X109277200Y-52714286D01*
X109277200Y-52714286D02*
X109229580Y-52666667D01*
X87324819Y-61583333D02*
X86848628Y-61250000D01*
X87324819Y-61011905D02*
X86324819Y-61011905D01*
X86324819Y-61011905D02*
X86324819Y-61392857D01*
X86324819Y-61392857D02*
X86372438Y-61488095D01*
X86372438Y-61488095D02*
X86420057Y-61535714D01*
X86420057Y-61535714D02*
X86515295Y-61583333D01*
X86515295Y-61583333D02*
X86658152Y-61583333D01*
X86658152Y-61583333D02*
X86753390Y-61535714D01*
X86753390Y-61535714D02*
X86801009Y-61488095D01*
X86801009Y-61488095D02*
X86848628Y-61392857D01*
X86848628Y-61392857D02*
X86848628Y-61011905D01*
X86324819Y-62440476D02*
X86324819Y-62250000D01*
X86324819Y-62250000D02*
X86372438Y-62154762D01*
X86372438Y-62154762D02*
X86420057Y-62107143D01*
X86420057Y-62107143D02*
X86562914Y-62011905D01*
X86562914Y-62011905D02*
X86753390Y-61964286D01*
X86753390Y-61964286D02*
X87134342Y-61964286D01*
X87134342Y-61964286D02*
X87229580Y-62011905D01*
X87229580Y-62011905D02*
X87277200Y-62059524D01*
X87277200Y-62059524D02*
X87324819Y-62154762D01*
X87324819Y-62154762D02*
X87324819Y-62345238D01*
X87324819Y-62345238D02*
X87277200Y-62440476D01*
X87277200Y-62440476D02*
X87229580Y-62488095D01*
X87229580Y-62488095D02*
X87134342Y-62535714D01*
X87134342Y-62535714D02*
X86896247Y-62535714D01*
X86896247Y-62535714D02*
X86801009Y-62488095D01*
X86801009Y-62488095D02*
X86753390Y-62440476D01*
X86753390Y-62440476D02*
X86705771Y-62345238D01*
X86705771Y-62345238D02*
X86705771Y-62154762D01*
X86705771Y-62154762D02*
X86753390Y-62059524D01*
X86753390Y-62059524D02*
X86801009Y-62011905D01*
X86801009Y-62011905D02*
X86896247Y-61964286D01*
X114074819Y-42583333D02*
X113598628Y-42250000D01*
X114074819Y-42011905D02*
X113074819Y-42011905D01*
X113074819Y-42011905D02*
X113074819Y-42392857D01*
X113074819Y-42392857D02*
X113122438Y-42488095D01*
X113122438Y-42488095D02*
X113170057Y-42535714D01*
X113170057Y-42535714D02*
X113265295Y-42583333D01*
X113265295Y-42583333D02*
X113408152Y-42583333D01*
X113408152Y-42583333D02*
X113503390Y-42535714D01*
X113503390Y-42535714D02*
X113551009Y-42488095D01*
X113551009Y-42488095D02*
X113598628Y-42392857D01*
X113598628Y-42392857D02*
X113598628Y-42011905D01*
X113170057Y-42964286D02*
X113122438Y-43011905D01*
X113122438Y-43011905D02*
X113074819Y-43107143D01*
X113074819Y-43107143D02*
X113074819Y-43345238D01*
X113074819Y-43345238D02*
X113122438Y-43440476D01*
X113122438Y-43440476D02*
X113170057Y-43488095D01*
X113170057Y-43488095D02*
X113265295Y-43535714D01*
X113265295Y-43535714D02*
X113360533Y-43535714D01*
X113360533Y-43535714D02*
X113503390Y-43488095D01*
X113503390Y-43488095D02*
X114074819Y-42916667D01*
X114074819Y-42916667D02*
X114074819Y-43535714D01*
X101574819Y-62083333D02*
X101098628Y-61750000D01*
X101574819Y-61511905D02*
X100574819Y-61511905D01*
X100574819Y-61511905D02*
X100574819Y-61892857D01*
X100574819Y-61892857D02*
X100622438Y-61988095D01*
X100622438Y-61988095D02*
X100670057Y-62035714D01*
X100670057Y-62035714D02*
X100765295Y-62083333D01*
X100765295Y-62083333D02*
X100908152Y-62083333D01*
X100908152Y-62083333D02*
X101003390Y-62035714D01*
X101003390Y-62035714D02*
X101051009Y-61988095D01*
X101051009Y-61988095D02*
X101098628Y-61892857D01*
X101098628Y-61892857D02*
X101098628Y-61511905D01*
X100908152Y-62940476D02*
X101574819Y-62940476D01*
X100527200Y-62702381D02*
X101241485Y-62464286D01*
X101241485Y-62464286D02*
X101241485Y-63083333D01*
X94324819Y-41333333D02*
X93848628Y-41000000D01*
X94324819Y-40761905D02*
X93324819Y-40761905D01*
X93324819Y-40761905D02*
X93324819Y-41142857D01*
X93324819Y-41142857D02*
X93372438Y-41238095D01*
X93372438Y-41238095D02*
X93420057Y-41285714D01*
X93420057Y-41285714D02*
X93515295Y-41333333D01*
X93515295Y-41333333D02*
X93658152Y-41333333D01*
X93658152Y-41333333D02*
X93753390Y-41285714D01*
X93753390Y-41285714D02*
X93801009Y-41238095D01*
X93801009Y-41238095D02*
X93848628Y-41142857D01*
X93848628Y-41142857D02*
X93848628Y-40761905D01*
X93324819Y-41952381D02*
X93324819Y-42047619D01*
X93324819Y-42047619D02*
X93372438Y-42142857D01*
X93372438Y-42142857D02*
X93420057Y-42190476D01*
X93420057Y-42190476D02*
X93515295Y-42238095D01*
X93515295Y-42238095D02*
X93705771Y-42285714D01*
X93705771Y-42285714D02*
X93943866Y-42285714D01*
X93943866Y-42285714D02*
X94134342Y-42238095D01*
X94134342Y-42238095D02*
X94229580Y-42190476D01*
X94229580Y-42190476D02*
X94277200Y-42142857D01*
X94277200Y-42142857D02*
X94324819Y-42047619D01*
X94324819Y-42047619D02*
X94324819Y-41952381D01*
X94324819Y-41952381D02*
X94277200Y-41857143D01*
X94277200Y-41857143D02*
X94229580Y-41809524D01*
X94229580Y-41809524D02*
X94134342Y-41761905D01*
X94134342Y-41761905D02*
X93943866Y-41714286D01*
X93943866Y-41714286D02*
X93705771Y-41714286D01*
X93705771Y-41714286D02*
X93515295Y-41761905D01*
X93515295Y-41761905D02*
X93420057Y-41809524D01*
X93420057Y-41809524D02*
X93372438Y-41857143D01*
X93372438Y-41857143D02*
X93324819Y-41952381D01*
X120963339Y-73221604D02*
X120487149Y-73221604D01*
X121058577Y-73507319D02*
X120725244Y-72507319D01*
X120725244Y-72507319D02*
X120391911Y-73507319D01*
X119534768Y-73507319D02*
X120106196Y-73507319D01*
X119820482Y-73507319D02*
X119820482Y-72507319D01*
X119820482Y-72507319D02*
X119915720Y-72650176D01*
X119915720Y-72650176D02*
X120010958Y-72745414D01*
X120010958Y-72745414D02*
X120106196Y-72793033D01*
D12*
%TO.C,R9*%
X77040000Y-35322936D02*
X77040000Y-39677064D01*
X80460000Y-35322936D02*
X80460000Y-39677064D01*
%TO.C,R5*%
X94790000Y-68322936D02*
X94790000Y-72677064D01*
X98210000Y-68322936D02*
X98210000Y-72677064D01*
%TO.C,R7*%
X81790000Y-49072936D02*
X81790000Y-53427064D01*
X85210000Y-49072936D02*
X85210000Y-53427064D01*
%TO.C,R8*%
X87790000Y-33072936D02*
X87790000Y-37427064D01*
X91210000Y-33072936D02*
X91210000Y-37427064D01*
%TO.C,R1*%
X110072936Y-25040000D02*
X114427064Y-25040000D01*
X110072936Y-28460000D02*
X114427064Y-28460000D01*
%TO.C,R3*%
X109790000Y-50322936D02*
X109790000Y-54677064D01*
X113210000Y-50322936D02*
X113210000Y-54677064D01*
%TO.C,R6*%
X87790000Y-59572936D02*
X87790000Y-63927064D01*
X91210000Y-59572936D02*
X91210000Y-63927064D01*
%TO.C,R2*%
X114540000Y-40572936D02*
X114540000Y-44927064D01*
X117960000Y-40572936D02*
X117960000Y-44927064D01*
%TO.C,R4*%
X102040000Y-60072936D02*
X102040000Y-64427064D01*
X105460000Y-60072936D02*
X105460000Y-64427064D01*
%TO.C,R0*%
X94790000Y-39322936D02*
X94790000Y-43677064D01*
X98210000Y-39322936D02*
X98210000Y-43677064D01*
%TO.C,A1*%
X122390000Y-25217500D02*
X122390000Y-25637500D01*
X122390000Y-27757500D02*
X122390000Y-28177500D01*
X122390000Y-30297500D02*
X122390000Y-30717500D01*
X122390000Y-32837500D02*
X122390000Y-33257500D01*
X122390000Y-35377500D02*
X122390000Y-35797500D01*
X122390000Y-37917500D02*
X122390000Y-38337500D01*
X122390000Y-40457500D02*
X122390000Y-40877500D01*
X122390000Y-42997500D02*
X122390000Y-43417500D01*
X122390000Y-45537500D02*
X122390000Y-45957500D01*
X122390000Y-48077500D02*
X122390000Y-48497500D01*
X122390000Y-50617500D02*
X122390000Y-51037500D01*
X122390000Y-53157500D02*
X122390000Y-53577500D01*
X122390000Y-55697500D02*
X122390000Y-56117500D01*
X122390000Y-58237500D02*
X122390000Y-58657500D01*
X122390000Y-60777500D02*
X122390000Y-61197500D01*
X122390000Y-63317500D02*
X122390000Y-63737500D01*
X122390000Y-65857500D02*
X122390000Y-66277500D01*
X122390000Y-68397500D02*
X122390000Y-68817500D01*
X122390000Y-70937500D02*
X122390000Y-71357500D01*
X122730000Y-23097563D02*
X122730000Y-22740500D01*
X122730000Y-25217500D02*
X122730000Y-25637500D01*
X122730000Y-27757500D02*
X122730000Y-28177500D01*
X122730000Y-30297500D02*
X122730000Y-30717500D01*
X122730000Y-32837500D02*
X122730000Y-33257500D01*
X122730000Y-35377500D02*
X122730000Y-35797500D01*
X122730000Y-37917500D02*
X122730000Y-38337500D01*
X122730000Y-40457500D02*
X122730000Y-40877500D01*
X122730000Y-42997500D02*
X122730000Y-43417500D01*
X122730000Y-45537500D02*
X122730000Y-45957500D01*
X122730000Y-48077500D02*
X122730000Y-48497500D01*
X122730000Y-50617500D02*
X122730000Y-51037500D01*
X122730000Y-53157500D02*
X122730000Y-53577500D01*
X122730000Y-55697500D02*
X122730000Y-56117500D01*
X122730000Y-58237500D02*
X122730000Y-58657500D01*
X122730000Y-60777500D02*
X122730000Y-61197500D01*
X122730000Y-63317500D02*
X122730000Y-63737500D01*
X122730000Y-65857500D02*
X122730000Y-66277500D01*
X122730000Y-68397500D02*
X122730000Y-68817500D01*
X122730000Y-70937500D02*
X122730000Y-71357500D01*
X122730000Y-73477437D02*
X122730000Y-73834500D01*
X123000000Y-22677500D02*
X125490000Y-22677500D01*
X125490000Y-22677500D02*
X125490000Y-23591020D01*
X125490000Y-25983980D02*
X125490000Y-70591020D01*
X125490000Y-72983980D02*
X125490000Y-73897500D01*
X126837939Y-22677500D02*
X125490000Y-22677500D01*
X126837939Y-73897500D02*
X123000000Y-73897500D01*
X127762061Y-73897500D02*
X129400000Y-73897500D01*
X128765000Y-22677500D02*
X127762061Y-22677500D01*
X129100000Y-22677500D02*
X129100000Y-23593500D01*
X129100000Y-25981500D02*
X129100000Y-27197500D01*
X129396090Y-27197500D02*
X129100000Y-27197500D01*
X129400000Y-73897500D02*
X136600000Y-73897500D01*
X134246090Y-27197500D02*
X131753910Y-27197500D01*
X136600000Y-73897500D02*
X138237939Y-73897500D01*
X136900000Y-22677500D02*
X136900000Y-23593500D01*
X136900000Y-25981500D02*
X136900000Y-27197500D01*
X136900000Y-27197500D02*
X136603910Y-27197500D01*
X137235000Y-22677500D02*
X128765000Y-22677500D01*
X138237939Y-22677500D02*
X137235000Y-22677500D01*
X140510000Y-22677500D02*
X139162060Y-22677500D01*
X140510000Y-22677500D02*
X140510000Y-23591020D01*
X140510000Y-25983980D02*
X140510000Y-70591020D01*
X140510000Y-72983980D02*
X140510000Y-73897500D01*
X143000000Y-22677500D02*
X140510000Y-22677500D01*
X143000000Y-73897500D02*
X139162061Y-73897500D01*
X143270000Y-23097563D02*
X143270000Y-22740500D01*
X143270000Y-25217500D02*
X143270000Y-25637500D01*
X143270000Y-27757500D02*
X143270000Y-28177500D01*
X143270000Y-30297500D02*
X143270000Y-30717500D01*
X143270000Y-32837500D02*
X143270000Y-33257500D01*
X143270000Y-35377500D02*
X143270000Y-35797500D01*
X143270000Y-37917500D02*
X143270000Y-38337500D01*
X143270000Y-40457500D02*
X143270000Y-40877500D01*
X143270000Y-42997500D02*
X143270000Y-43417500D01*
X143270000Y-45537500D02*
X143270000Y-45957500D01*
X143270000Y-48077500D02*
X143270000Y-48497500D01*
X143270000Y-50617500D02*
X143270000Y-51037500D01*
X143270000Y-53157500D02*
X143270000Y-53577500D01*
X143270000Y-55697500D02*
X143270000Y-56117500D01*
X143270000Y-58237500D02*
X143270000Y-58657500D01*
X143270000Y-60777500D02*
X143270000Y-61197500D01*
X143270000Y-63317500D02*
X143270000Y-63737500D01*
X143270000Y-65857500D02*
X143270000Y-66277500D01*
X143270000Y-68397500D02*
X143270000Y-68817500D01*
X143270000Y-70937500D02*
X143270000Y-71357500D01*
X143270000Y-73477437D02*
X143270000Y-73834500D01*
X143579676Y-23097500D02*
X144090000Y-23097500D01*
X143610000Y-25217500D02*
X143610000Y-25637500D01*
X143610000Y-25217500D02*
X144090000Y-25217500D01*
X143610000Y-27757500D02*
X143610000Y-28177500D01*
X143610000Y-30297500D02*
X143610000Y-30717500D01*
X143610000Y-32837500D02*
X143610000Y-33257500D01*
X143610000Y-35377500D02*
X143610000Y-35797500D01*
X143610000Y-37917500D02*
X143610000Y-38337500D01*
X143610000Y-40457500D02*
X143610000Y-40877500D01*
X143610000Y-42997500D02*
X143610000Y-43417500D01*
X143610000Y-45537500D02*
X143610000Y-45957500D01*
X143610000Y-48077500D02*
X143610000Y-48497500D01*
X143610000Y-50617500D02*
X143610000Y-51037500D01*
X143610000Y-53157500D02*
X143610000Y-53577500D01*
X143610000Y-55697500D02*
X143610000Y-56117500D01*
X143610000Y-58237500D02*
X143610000Y-58657500D01*
X143610000Y-60777500D02*
X143610000Y-61197500D01*
X143610000Y-63317500D02*
X143610000Y-63737500D01*
X143610000Y-65857500D02*
X143610000Y-66277500D01*
X143610000Y-68397500D02*
X143610000Y-68817500D01*
X143610000Y-70937500D02*
X143610000Y-71357500D01*
X122420324Y-23097563D02*
G75*
G02*
X123000000Y-22677500I579676J-189937D01*
G01*
X123000000Y-73897500D02*
G75*
G02*
X122420349Y-73477429I100J610100D01*
G01*
X143000000Y-22677500D02*
G75*
G02*
X143579676Y-23097500I-16J-610051D01*
G01*
X143579676Y-73477437D02*
G75*
G02*
X143000000Y-73897500I-579677J189939D01*
G01*
%TD*%
M02*
