%TF.GenerationSoftware,KiCad,Pcbnew,9.0.6*%
%TF.CreationDate,2025-11-18T14:04:37-05:00*%
%TF.ProjectId,hardware,68617264-7761-4726-952e-6b696361645f,rev?*%
%TF.SameCoordinates,Original*%
%TF.FileFunction,Soldermask,Top*%
%TF.FilePolarity,Negative*%
%FSLAX46Y46*%
G04 Gerber Fmt 4.6, Leading zero omitted, Abs format (unit mm)*
G04 Created by KiCad (PCBNEW 9.0.6) date 2025-11-18 14:04:37*
%MOMM*%
%LPD*%
G01*
G04 APERTURE LIST*
G04 Aperture macros list*
%AMRoundRect*
0 Rectangle with rounded corners*
0 $1 Rounding radius*
0 $2 $3 $4 $5 $6 $7 $8 $9 X,Y pos of 4 corners*
0 Add a 4 corners polygon primitive as box body*
4,1,4,$2,$3,$4,$5,$6,$7,$8,$9,$2,$3,0*
0 Add four circle primitives for the rounded corners*
1,1,$1+$1,$2,$3*
1,1,$1+$1,$4,$5*
1,1,$1+$1,$6,$7*
1,1,$1+$1,$8,$9*
0 Add four rect primitives between the rounded corners*
20,1,$1+$1,$2,$3,$4,$5,0*
20,1,$1+$1,$4,$5,$6,$7,0*
20,1,$1+$1,$6,$7,$8,$9,0*
20,1,$1+$1,$8,$9,$2,$3,0*%
%AMFreePoly0*
4,1,37,0.603843,0.796157,0.639018,0.796157,0.711114,0.766294,0.766294,0.711114,0.796157,0.639018,0.796157,0.603843,0.800000,0.600000,0.800000,-0.600000,0.796157,-0.603843,0.796157,-0.639018,0.766294,-0.711114,0.711114,-0.766294,0.639018,-0.796157,0.603843,-0.796157,0.600000,-0.800000,0.000000,-0.800000,0.000000,-0.796148,-0.078414,-0.796148,-0.232228,-0.765552,-0.377117,-0.705537,
-0.507515,-0.618408,-0.618408,-0.507515,-0.705537,-0.377117,-0.765552,-0.232228,-0.796148,-0.078414,-0.796148,0.078414,-0.765552,0.232228,-0.705537,0.377117,-0.618408,0.507515,-0.507515,0.618408,-0.377117,0.705537,-0.232228,0.765552,-0.078414,0.796148,0.000000,0.796148,0.000000,0.800000,0.600000,0.800000,0.603843,0.796157,0.603843,0.796157,$1*%
%AMFreePoly1*
4,1,37,0.000000,0.796148,0.078414,0.796148,0.232228,0.765552,0.377117,0.705537,0.507515,0.618408,0.618408,0.507515,0.705537,0.377117,0.765552,0.232228,0.796148,0.078414,0.796148,-0.078414,0.765552,-0.232228,0.705537,-0.377117,0.618408,-0.507515,0.507515,-0.618408,0.377117,-0.705537,0.232228,-0.765552,0.078414,-0.796148,0.000000,-0.796148,0.000000,-0.800000,-0.600000,-0.800000,
-0.603843,-0.796157,-0.639018,-0.796157,-0.711114,-0.766294,-0.766294,-0.711114,-0.796157,-0.639018,-0.796157,-0.603843,-0.800000,-0.600000,-0.800000,0.600000,-0.796157,0.603843,-0.796157,0.639018,-0.766294,0.711114,-0.711114,0.766294,-0.639018,0.796157,-0.603843,0.796157,-0.600000,0.800000,0.000000,0.800000,0.000000,0.796148,0.000000,0.796148,$1*%
G04 Aperture macros list end*
%ADD10R,1.070000X1.800000*%
%ADD11O,1.070000X1.800000*%
%ADD12C,3.200000*%
%ADD13RoundRect,0.250000X-1.450000X0.400000X-1.450000X-0.400000X1.450000X-0.400000X1.450000X0.400000X0*%
%ADD14RoundRect,0.175000X0.175000X0.425000X-0.175000X0.425000X-0.175000X-0.425000X0.175000X-0.425000X0*%
%ADD15RoundRect,0.190000X-0.190000X-0.410000X0.190000X-0.410000X0.190000X0.410000X-0.190000X0.410000X0*%
%ADD16RoundRect,0.200000X-0.200000X-0.400000X0.200000X-0.400000X0.200000X0.400000X-0.200000X0.400000X0*%
%ADD17RoundRect,0.175000X-0.175000X-0.425000X0.175000X-0.425000X0.175000X0.425000X-0.175000X0.425000X0*%
%ADD18RoundRect,0.190000X0.190000X0.410000X-0.190000X0.410000X-0.190000X-0.410000X0.190000X-0.410000X0*%
%ADD19RoundRect,0.200000X0.200000X0.400000X-0.200000X0.400000X-0.200000X-0.400000X0.200000X-0.400000X0*%
%ADD20O,1.100000X1.700000*%
%ADD21C,2.200000*%
%ADD22C,1.850000*%
%ADD23RoundRect,0.200000X-0.600000X-0.600000X0.600000X-0.600000X0.600000X0.600000X-0.600000X0.600000X0*%
%ADD24C,1.600000*%
%ADD25FreePoly0,0.000000*%
%ADD26FreePoly1,0.000000*%
G04 APERTURE END LIST*
D10*
%TO.C,D1*%
X174270000Y-65000000D03*
D11*
X173000000Y-65000000D03*
X171730000Y-65000000D03*
X170460000Y-65000000D03*
%TD*%
D10*
%TO.C,D7*%
X161460000Y-88000000D03*
D11*
X162730000Y-88000000D03*
X164000000Y-88000000D03*
X165270000Y-88000000D03*
%TD*%
D10*
%TO.C,D3*%
X192270000Y-65000000D03*
D11*
X191000000Y-65000000D03*
X189730000Y-65000000D03*
X188460000Y-65000000D03*
%TD*%
D10*
%TO.C,D2*%
X183270000Y-58000000D03*
D11*
X182000000Y-58000000D03*
X180730000Y-58000000D03*
X179460000Y-58000000D03*
%TD*%
D10*
%TO.C,D4*%
X186460000Y-76000000D03*
D11*
X187730000Y-76000000D03*
X189000000Y-76000000D03*
X190270000Y-76000000D03*
%TD*%
D12*
%TO.C,H2*%
X119000000Y-112000000D03*
%TD*%
%TO.C,H3*%
X211000000Y-49000000D03*
%TD*%
D10*
%TO.C,D6*%
X170460000Y-98000000D03*
D11*
X171730000Y-98000000D03*
X173000000Y-98000000D03*
X174270000Y-98000000D03*
%TD*%
D10*
%TO.C,D5*%
X179460000Y-88000000D03*
D11*
X180730000Y-88000000D03*
X182000000Y-88000000D03*
X183270000Y-88000000D03*
%TD*%
D13*
%TO.C,R3*%
X200250000Y-55275000D03*
X200250000Y-59725000D03*
%TD*%
D12*
%TO.C,H1*%
X119000000Y-49000000D03*
%TD*%
%TO.C,H4*%
X211000000Y-112000000D03*
%TD*%
D10*
%TO.C,D10*%
X164270000Y-58000000D03*
D11*
X163000000Y-58000000D03*
X161730000Y-58000000D03*
X160460000Y-58000000D03*
%TD*%
D10*
%TO.C,D9*%
X155270000Y-65000000D03*
D11*
X154000000Y-65000000D03*
X152730000Y-65000000D03*
X151460000Y-65000000D03*
%TD*%
D10*
%TO.C,D8*%
X154460000Y-76000000D03*
D11*
X155730000Y-76000000D03*
X157000000Y-76000000D03*
X158270000Y-76000000D03*
%TD*%
D13*
%TO.C,R2*%
X196250000Y-55275000D03*
X196250000Y-59725000D03*
%TD*%
D14*
%TO.C,J1*%
X198739361Y-51580000D03*
D15*
X196719361Y-51580000D03*
D16*
X195489361Y-51580000D03*
D17*
X197739361Y-51580000D03*
D18*
X199759361Y-51580000D03*
D19*
X200989361Y-51580000D03*
D20*
X202559361Y-51500000D03*
X202559361Y-47700000D03*
X193919361Y-51500000D03*
X193919361Y-47700000D03*
%TD*%
D21*
%TO.C,A1*%
X125385000Y-106010000D03*
D22*
X125685000Y-102980000D03*
X130535000Y-102980000D03*
D21*
X130835000Y-106010000D03*
D23*
X119220000Y-106140000D03*
D24*
X119220000Y-103600000D03*
D25*
X119220000Y-101060000D03*
D24*
X119220000Y-98520000D03*
X119220000Y-95980000D03*
X119220000Y-93440000D03*
X119220000Y-90900000D03*
D25*
X119220000Y-88360000D03*
D24*
X119220000Y-85820000D03*
X119220000Y-83280000D03*
X119220000Y-80740000D03*
X119220000Y-78200000D03*
D25*
X119220000Y-75660000D03*
D24*
X119220000Y-73120000D03*
X119220000Y-70580000D03*
X119220000Y-68040000D03*
X119220000Y-65500000D03*
D25*
X119220000Y-62960000D03*
D24*
X119220000Y-60420000D03*
X119220000Y-57880000D03*
X137000000Y-57880000D03*
X137000000Y-60420000D03*
D26*
X137000000Y-62960000D03*
D24*
X137000000Y-65500000D03*
X137000000Y-68040000D03*
X137000000Y-70580000D03*
X137000000Y-73120000D03*
D26*
X137000000Y-75660000D03*
D24*
X137000000Y-78200000D03*
X137000000Y-80740000D03*
X137000000Y-83280000D03*
X137000000Y-85820000D03*
D26*
X137000000Y-88360000D03*
D24*
X137000000Y-90900000D03*
X137000000Y-93440000D03*
X137000000Y-95980000D03*
X137000000Y-98520000D03*
D26*
X137000000Y-101060000D03*
D24*
X137000000Y-103600000D03*
X137000000Y-106140000D03*
%TD*%
M02*
