%TF.GenerationSoftware,KiCad,Pcbnew,9.0.6*%
%TF.CreationDate,2025-11-18T14:04:37-05:00*%
%TF.ProjectId,hardware,68617264-7761-4726-952e-6b696361645f,rev?*%
%TF.SameCoordinates,Original*%
%TF.FileFunction,Legend,Top*%
%TF.FilePolarity,Positive*%
%FSLAX46Y46*%
G04 Gerber Fmt 4.6, Leading zero omitted, Abs format (unit mm)*
G04 Created by KiCad (PCBNEW 9.0.6) date 2025-11-18 14:04:37*
%MOMM*%
%LPD*%
G01*
G04 APERTURE LIST*
%ADD10C,0.300000*%
%ADD11C,0.150000*%
%ADD12C,0.120000*%
G04 APERTURE END LIST*
D10*
X124268796Y-112800828D02*
X123554510Y-112800828D01*
X123554510Y-112800828D02*
X123554510Y-111300828D01*
X124768796Y-112800828D02*
X124768796Y-111800828D01*
X124768796Y-111300828D02*
X124697368Y-111372257D01*
X124697368Y-111372257D02*
X124768796Y-111443685D01*
X124768796Y-111443685D02*
X124840225Y-111372257D01*
X124840225Y-111372257D02*
X124768796Y-111300828D01*
X124768796Y-111300828D02*
X124768796Y-111443685D01*
X126125940Y-111800828D02*
X126125940Y-113015114D01*
X126125940Y-113015114D02*
X126054511Y-113157971D01*
X126054511Y-113157971D02*
X125983082Y-113229400D01*
X125983082Y-113229400D02*
X125840225Y-113300828D01*
X125840225Y-113300828D02*
X125625940Y-113300828D01*
X125625940Y-113300828D02*
X125483082Y-113229400D01*
X126125940Y-112729400D02*
X125983082Y-112800828D01*
X125983082Y-112800828D02*
X125697368Y-112800828D01*
X125697368Y-112800828D02*
X125554511Y-112729400D01*
X125554511Y-112729400D02*
X125483082Y-112657971D01*
X125483082Y-112657971D02*
X125411654Y-112515114D01*
X125411654Y-112515114D02*
X125411654Y-112086542D01*
X125411654Y-112086542D02*
X125483082Y-111943685D01*
X125483082Y-111943685D02*
X125554511Y-111872257D01*
X125554511Y-111872257D02*
X125697368Y-111800828D01*
X125697368Y-111800828D02*
X125983082Y-111800828D01*
X125983082Y-111800828D02*
X126125940Y-111872257D01*
X126840225Y-112800828D02*
X126840225Y-111300828D01*
X127483083Y-112800828D02*
X127483083Y-112015114D01*
X127483083Y-112015114D02*
X127411654Y-111872257D01*
X127411654Y-111872257D02*
X127268797Y-111800828D01*
X127268797Y-111800828D02*
X127054511Y-111800828D01*
X127054511Y-111800828D02*
X126911654Y-111872257D01*
X126911654Y-111872257D02*
X126840225Y-111943685D01*
X127983083Y-111800828D02*
X128554511Y-111800828D01*
X128197368Y-111300828D02*
X128197368Y-112586542D01*
X128197368Y-112586542D02*
X128268797Y-112729400D01*
X128268797Y-112729400D02*
X128411654Y-112800828D01*
X128411654Y-112800828D02*
X128554511Y-112800828D01*
X129054511Y-112800828D02*
X129054511Y-111300828D01*
X129054511Y-111872257D02*
X129197369Y-111800828D01*
X129197369Y-111800828D02*
X129483083Y-111800828D01*
X129483083Y-111800828D02*
X129625940Y-111872257D01*
X129625940Y-111872257D02*
X129697369Y-111943685D01*
X129697369Y-111943685D02*
X129768797Y-112086542D01*
X129768797Y-112086542D02*
X129768797Y-112515114D01*
X129768797Y-112515114D02*
X129697369Y-112657971D01*
X129697369Y-112657971D02*
X129625940Y-112729400D01*
X129625940Y-112729400D02*
X129483083Y-112800828D01*
X129483083Y-112800828D02*
X129197369Y-112800828D01*
X129197369Y-112800828D02*
X129054511Y-112729400D01*
X130625940Y-112800828D02*
X130483083Y-112729400D01*
X130483083Y-112729400D02*
X130411654Y-112657971D01*
X130411654Y-112657971D02*
X130340226Y-112515114D01*
X130340226Y-112515114D02*
X130340226Y-112086542D01*
X130340226Y-112086542D02*
X130411654Y-111943685D01*
X130411654Y-111943685D02*
X130483083Y-111872257D01*
X130483083Y-111872257D02*
X130625940Y-111800828D01*
X130625940Y-111800828D02*
X130840226Y-111800828D01*
X130840226Y-111800828D02*
X130983083Y-111872257D01*
X130983083Y-111872257D02*
X131054512Y-111943685D01*
X131054512Y-111943685D02*
X131125940Y-112086542D01*
X131125940Y-112086542D02*
X131125940Y-112515114D01*
X131125940Y-112515114D02*
X131054512Y-112657971D01*
X131054512Y-112657971D02*
X130983083Y-112729400D01*
X130983083Y-112729400D02*
X130840226Y-112800828D01*
X130840226Y-112800828D02*
X130625940Y-112800828D01*
X132411655Y-112800828D02*
X132411655Y-112015114D01*
X132411655Y-112015114D02*
X132340226Y-111872257D01*
X132340226Y-111872257D02*
X132197369Y-111800828D01*
X132197369Y-111800828D02*
X131911655Y-111800828D01*
X131911655Y-111800828D02*
X131768797Y-111872257D01*
X132411655Y-112729400D02*
X132268797Y-112800828D01*
X132268797Y-112800828D02*
X131911655Y-112800828D01*
X131911655Y-112800828D02*
X131768797Y-112729400D01*
X131768797Y-112729400D02*
X131697369Y-112586542D01*
X131697369Y-112586542D02*
X131697369Y-112443685D01*
X131697369Y-112443685D02*
X131768797Y-112300828D01*
X131768797Y-112300828D02*
X131911655Y-112229400D01*
X131911655Y-112229400D02*
X132268797Y-112229400D01*
X132268797Y-112229400D02*
X132411655Y-112157971D01*
X133125940Y-112800828D02*
X133125940Y-111800828D01*
X133125940Y-112086542D02*
X133197369Y-111943685D01*
X133197369Y-111943685D02*
X133268798Y-111872257D01*
X133268798Y-111872257D02*
X133411655Y-111800828D01*
X133411655Y-111800828D02*
X133554512Y-111800828D01*
X134697369Y-112800828D02*
X134697369Y-111300828D01*
X134697369Y-112729400D02*
X134554511Y-112800828D01*
X134554511Y-112800828D02*
X134268797Y-112800828D01*
X134268797Y-112800828D02*
X134125940Y-112729400D01*
X134125940Y-112729400D02*
X134054511Y-112657971D01*
X134054511Y-112657971D02*
X133983083Y-112515114D01*
X133983083Y-112515114D02*
X133983083Y-112086542D01*
X133983083Y-112086542D02*
X134054511Y-111943685D01*
X134054511Y-111943685D02*
X134125940Y-111872257D01*
X134125940Y-111872257D02*
X134268797Y-111800828D01*
X134268797Y-111800828D02*
X134554511Y-111800828D01*
X134554511Y-111800828D02*
X134697369Y-111872257D01*
X137197369Y-111800828D02*
X137197369Y-113015114D01*
X137197369Y-113015114D02*
X137125940Y-113157971D01*
X137125940Y-113157971D02*
X137054511Y-113229400D01*
X137054511Y-113229400D02*
X136911654Y-113300828D01*
X136911654Y-113300828D02*
X136697369Y-113300828D01*
X136697369Y-113300828D02*
X136554511Y-113229400D01*
X137197369Y-112729400D02*
X137054511Y-112800828D01*
X137054511Y-112800828D02*
X136768797Y-112800828D01*
X136768797Y-112800828D02*
X136625940Y-112729400D01*
X136625940Y-112729400D02*
X136554511Y-112657971D01*
X136554511Y-112657971D02*
X136483083Y-112515114D01*
X136483083Y-112515114D02*
X136483083Y-112086542D01*
X136483083Y-112086542D02*
X136554511Y-111943685D01*
X136554511Y-111943685D02*
X136625940Y-111872257D01*
X136625940Y-111872257D02*
X136768797Y-111800828D01*
X136768797Y-111800828D02*
X137054511Y-111800828D01*
X137054511Y-111800828D02*
X137197369Y-111872257D01*
X137911654Y-112800828D02*
X137911654Y-111800828D01*
X137911654Y-111300828D02*
X137840226Y-111372257D01*
X137840226Y-111372257D02*
X137911654Y-111443685D01*
X137911654Y-111443685D02*
X137983083Y-111372257D01*
X137983083Y-111372257D02*
X137911654Y-111300828D01*
X137911654Y-111300828D02*
X137911654Y-111443685D01*
X138411655Y-111800828D02*
X138983083Y-111800828D01*
X138625940Y-112800828D02*
X138625940Y-111515114D01*
X138625940Y-111515114D02*
X138697369Y-111372257D01*
X138697369Y-111372257D02*
X138840226Y-111300828D01*
X138840226Y-111300828D02*
X138983083Y-111300828D01*
X139268798Y-111800828D02*
X139840226Y-111800828D01*
X139483083Y-111300828D02*
X139483083Y-112586542D01*
X139483083Y-112586542D02*
X139554512Y-112729400D01*
X139554512Y-112729400D02*
X139697369Y-112800828D01*
X139697369Y-112800828D02*
X139840226Y-112800828D01*
X141268798Y-111300828D02*
X141768798Y-112800828D01*
X141768798Y-112800828D02*
X142268798Y-111300828D01*
X142625940Y-111300828D02*
X143554512Y-111300828D01*
X143554512Y-111300828D02*
X143054512Y-111872257D01*
X143054512Y-111872257D02*
X143268797Y-111872257D01*
X143268797Y-111872257D02*
X143411655Y-111943685D01*
X143411655Y-111943685D02*
X143483083Y-112015114D01*
X143483083Y-112015114D02*
X143554512Y-112157971D01*
X143554512Y-112157971D02*
X143554512Y-112515114D01*
X143554512Y-112515114D02*
X143483083Y-112657971D01*
X143483083Y-112657971D02*
X143411655Y-112729400D01*
X143411655Y-112729400D02*
X143268797Y-112800828D01*
X143268797Y-112800828D02*
X142840226Y-112800828D01*
X142840226Y-112800828D02*
X142697369Y-112729400D01*
X142697369Y-112729400D02*
X142625940Y-112657971D01*
D11*
X171626905Y-69414819D02*
X171626905Y-68414819D01*
X171626905Y-68414819D02*
X171865000Y-68414819D01*
X171865000Y-68414819D02*
X172007857Y-68462438D01*
X172007857Y-68462438D02*
X172103095Y-68557676D01*
X172103095Y-68557676D02*
X172150714Y-68652914D01*
X172150714Y-68652914D02*
X172198333Y-68843390D01*
X172198333Y-68843390D02*
X172198333Y-68986247D01*
X172198333Y-68986247D02*
X172150714Y-69176723D01*
X172150714Y-69176723D02*
X172103095Y-69271961D01*
X172103095Y-69271961D02*
X172007857Y-69367200D01*
X172007857Y-69367200D02*
X171865000Y-69414819D01*
X171865000Y-69414819D02*
X171626905Y-69414819D01*
X173150714Y-69414819D02*
X172579286Y-69414819D01*
X172865000Y-69414819D02*
X172865000Y-68414819D01*
X172865000Y-68414819D02*
X172769762Y-68557676D01*
X172769762Y-68557676D02*
X172674524Y-68652914D01*
X172674524Y-68652914D02*
X172579286Y-68700533D01*
X162626905Y-84494819D02*
X162626905Y-83494819D01*
X162626905Y-83494819D02*
X162865000Y-83494819D01*
X162865000Y-83494819D02*
X163007857Y-83542438D01*
X163007857Y-83542438D02*
X163103095Y-83637676D01*
X163103095Y-83637676D02*
X163150714Y-83732914D01*
X163150714Y-83732914D02*
X163198333Y-83923390D01*
X163198333Y-83923390D02*
X163198333Y-84066247D01*
X163198333Y-84066247D02*
X163150714Y-84256723D01*
X163150714Y-84256723D02*
X163103095Y-84351961D01*
X163103095Y-84351961D02*
X163007857Y-84447200D01*
X163007857Y-84447200D02*
X162865000Y-84494819D01*
X162865000Y-84494819D02*
X162626905Y-84494819D01*
X163531667Y-83494819D02*
X164198333Y-83494819D01*
X164198333Y-83494819D02*
X163769762Y-84494819D01*
X189626905Y-69414819D02*
X189626905Y-68414819D01*
X189626905Y-68414819D02*
X189865000Y-68414819D01*
X189865000Y-68414819D02*
X190007857Y-68462438D01*
X190007857Y-68462438D02*
X190103095Y-68557676D01*
X190103095Y-68557676D02*
X190150714Y-68652914D01*
X190150714Y-68652914D02*
X190198333Y-68843390D01*
X190198333Y-68843390D02*
X190198333Y-68986247D01*
X190198333Y-68986247D02*
X190150714Y-69176723D01*
X190150714Y-69176723D02*
X190103095Y-69271961D01*
X190103095Y-69271961D02*
X190007857Y-69367200D01*
X190007857Y-69367200D02*
X189865000Y-69414819D01*
X189865000Y-69414819D02*
X189626905Y-69414819D01*
X190531667Y-68414819D02*
X191150714Y-68414819D01*
X191150714Y-68414819D02*
X190817381Y-68795771D01*
X190817381Y-68795771D02*
X190960238Y-68795771D01*
X190960238Y-68795771D02*
X191055476Y-68843390D01*
X191055476Y-68843390D02*
X191103095Y-68891009D01*
X191103095Y-68891009D02*
X191150714Y-68986247D01*
X191150714Y-68986247D02*
X191150714Y-69224342D01*
X191150714Y-69224342D02*
X191103095Y-69319580D01*
X191103095Y-69319580D02*
X191055476Y-69367200D01*
X191055476Y-69367200D02*
X190960238Y-69414819D01*
X190960238Y-69414819D02*
X190674524Y-69414819D01*
X190674524Y-69414819D02*
X190579286Y-69367200D01*
X190579286Y-69367200D02*
X190531667Y-69319580D01*
X180626905Y-62414819D02*
X180626905Y-61414819D01*
X180626905Y-61414819D02*
X180865000Y-61414819D01*
X180865000Y-61414819D02*
X181007857Y-61462438D01*
X181007857Y-61462438D02*
X181103095Y-61557676D01*
X181103095Y-61557676D02*
X181150714Y-61652914D01*
X181150714Y-61652914D02*
X181198333Y-61843390D01*
X181198333Y-61843390D02*
X181198333Y-61986247D01*
X181198333Y-61986247D02*
X181150714Y-62176723D01*
X181150714Y-62176723D02*
X181103095Y-62271961D01*
X181103095Y-62271961D02*
X181007857Y-62367200D01*
X181007857Y-62367200D02*
X180865000Y-62414819D01*
X180865000Y-62414819D02*
X180626905Y-62414819D01*
X181579286Y-61510057D02*
X181626905Y-61462438D01*
X181626905Y-61462438D02*
X181722143Y-61414819D01*
X181722143Y-61414819D02*
X181960238Y-61414819D01*
X181960238Y-61414819D02*
X182055476Y-61462438D01*
X182055476Y-61462438D02*
X182103095Y-61510057D01*
X182103095Y-61510057D02*
X182150714Y-61605295D01*
X182150714Y-61605295D02*
X182150714Y-61700533D01*
X182150714Y-61700533D02*
X182103095Y-61843390D01*
X182103095Y-61843390D02*
X181531667Y-62414819D01*
X181531667Y-62414819D02*
X182150714Y-62414819D01*
X187626905Y-72494819D02*
X187626905Y-71494819D01*
X187626905Y-71494819D02*
X187865000Y-71494819D01*
X187865000Y-71494819D02*
X188007857Y-71542438D01*
X188007857Y-71542438D02*
X188103095Y-71637676D01*
X188103095Y-71637676D02*
X188150714Y-71732914D01*
X188150714Y-71732914D02*
X188198333Y-71923390D01*
X188198333Y-71923390D02*
X188198333Y-72066247D01*
X188198333Y-72066247D02*
X188150714Y-72256723D01*
X188150714Y-72256723D02*
X188103095Y-72351961D01*
X188103095Y-72351961D02*
X188007857Y-72447200D01*
X188007857Y-72447200D02*
X187865000Y-72494819D01*
X187865000Y-72494819D02*
X187626905Y-72494819D01*
X189055476Y-71828152D02*
X189055476Y-72494819D01*
X188817381Y-71447200D02*
X188579286Y-72161485D01*
X188579286Y-72161485D02*
X189198333Y-72161485D01*
X118238095Y-108304819D02*
X118238095Y-107304819D01*
X118238095Y-107781009D02*
X118809523Y-107781009D01*
X118809523Y-108304819D02*
X118809523Y-107304819D01*
X119238095Y-107400057D02*
X119285714Y-107352438D01*
X119285714Y-107352438D02*
X119380952Y-107304819D01*
X119380952Y-107304819D02*
X119619047Y-107304819D01*
X119619047Y-107304819D02*
X119714285Y-107352438D01*
X119714285Y-107352438D02*
X119761904Y-107400057D01*
X119761904Y-107400057D02*
X119809523Y-107495295D01*
X119809523Y-107495295D02*
X119809523Y-107590533D01*
X119809523Y-107590533D02*
X119761904Y-107733390D01*
X119761904Y-107733390D02*
X119190476Y-108304819D01*
X119190476Y-108304819D02*
X119809523Y-108304819D01*
X206738095Y-46454819D02*
X206738095Y-45454819D01*
X206738095Y-45931009D02*
X207309523Y-45931009D01*
X207309523Y-46454819D02*
X207309523Y-45454819D01*
X207690476Y-45454819D02*
X208309523Y-45454819D01*
X208309523Y-45454819D02*
X207976190Y-45835771D01*
X207976190Y-45835771D02*
X208119047Y-45835771D01*
X208119047Y-45835771D02*
X208214285Y-45883390D01*
X208214285Y-45883390D02*
X208261904Y-45931009D01*
X208261904Y-45931009D02*
X208309523Y-46026247D01*
X208309523Y-46026247D02*
X208309523Y-46264342D01*
X208309523Y-46264342D02*
X208261904Y-46359580D01*
X208261904Y-46359580D02*
X208214285Y-46407200D01*
X208214285Y-46407200D02*
X208119047Y-46454819D01*
X208119047Y-46454819D02*
X207833333Y-46454819D01*
X207833333Y-46454819D02*
X207738095Y-46407200D01*
X207738095Y-46407200D02*
X207690476Y-46359580D01*
X171626905Y-94494819D02*
X171626905Y-93494819D01*
X171626905Y-93494819D02*
X171865000Y-93494819D01*
X171865000Y-93494819D02*
X172007857Y-93542438D01*
X172007857Y-93542438D02*
X172103095Y-93637676D01*
X172103095Y-93637676D02*
X172150714Y-93732914D01*
X172150714Y-93732914D02*
X172198333Y-93923390D01*
X172198333Y-93923390D02*
X172198333Y-94066247D01*
X172198333Y-94066247D02*
X172150714Y-94256723D01*
X172150714Y-94256723D02*
X172103095Y-94351961D01*
X172103095Y-94351961D02*
X172007857Y-94447200D01*
X172007857Y-94447200D02*
X171865000Y-94494819D01*
X171865000Y-94494819D02*
X171626905Y-94494819D01*
X173055476Y-93494819D02*
X172865000Y-93494819D01*
X172865000Y-93494819D02*
X172769762Y-93542438D01*
X172769762Y-93542438D02*
X172722143Y-93590057D01*
X172722143Y-93590057D02*
X172626905Y-93732914D01*
X172626905Y-93732914D02*
X172579286Y-93923390D01*
X172579286Y-93923390D02*
X172579286Y-94304342D01*
X172579286Y-94304342D02*
X172626905Y-94399580D01*
X172626905Y-94399580D02*
X172674524Y-94447200D01*
X172674524Y-94447200D02*
X172769762Y-94494819D01*
X172769762Y-94494819D02*
X172960238Y-94494819D01*
X172960238Y-94494819D02*
X173055476Y-94447200D01*
X173055476Y-94447200D02*
X173103095Y-94399580D01*
X173103095Y-94399580D02*
X173150714Y-94304342D01*
X173150714Y-94304342D02*
X173150714Y-94066247D01*
X173150714Y-94066247D02*
X173103095Y-93971009D01*
X173103095Y-93971009D02*
X173055476Y-93923390D01*
X173055476Y-93923390D02*
X172960238Y-93875771D01*
X172960238Y-93875771D02*
X172769762Y-93875771D01*
X172769762Y-93875771D02*
X172674524Y-93923390D01*
X172674524Y-93923390D02*
X172626905Y-93971009D01*
X172626905Y-93971009D02*
X172579286Y-94066247D01*
X180626905Y-84494819D02*
X180626905Y-83494819D01*
X180626905Y-83494819D02*
X180865000Y-83494819D01*
X180865000Y-83494819D02*
X181007857Y-83542438D01*
X181007857Y-83542438D02*
X181103095Y-83637676D01*
X181103095Y-83637676D02*
X181150714Y-83732914D01*
X181150714Y-83732914D02*
X181198333Y-83923390D01*
X181198333Y-83923390D02*
X181198333Y-84066247D01*
X181198333Y-84066247D02*
X181150714Y-84256723D01*
X181150714Y-84256723D02*
X181103095Y-84351961D01*
X181103095Y-84351961D02*
X181007857Y-84447200D01*
X181007857Y-84447200D02*
X180865000Y-84494819D01*
X180865000Y-84494819D02*
X180626905Y-84494819D01*
X182103095Y-83494819D02*
X181626905Y-83494819D01*
X181626905Y-83494819D02*
X181579286Y-83971009D01*
X181579286Y-83971009D02*
X181626905Y-83923390D01*
X181626905Y-83923390D02*
X181722143Y-83875771D01*
X181722143Y-83875771D02*
X181960238Y-83875771D01*
X181960238Y-83875771D02*
X182055476Y-83923390D01*
X182055476Y-83923390D02*
X182103095Y-83971009D01*
X182103095Y-83971009D02*
X182150714Y-84066247D01*
X182150714Y-84066247D02*
X182150714Y-84304342D01*
X182150714Y-84304342D02*
X182103095Y-84399580D01*
X182103095Y-84399580D02*
X182055476Y-84447200D01*
X182055476Y-84447200D02*
X181960238Y-84494819D01*
X181960238Y-84494819D02*
X181722143Y-84494819D01*
X181722143Y-84494819D02*
X181626905Y-84447200D01*
X181626905Y-84447200D02*
X181579286Y-84399580D01*
X203354819Y-57666666D02*
X202878628Y-57999999D01*
X203354819Y-58238094D02*
X202354819Y-58238094D01*
X202354819Y-58238094D02*
X202354819Y-57857142D01*
X202354819Y-57857142D02*
X202402438Y-57761904D01*
X202402438Y-57761904D02*
X202450057Y-57714285D01*
X202450057Y-57714285D02*
X202545295Y-57666666D01*
X202545295Y-57666666D02*
X202688152Y-57666666D01*
X202688152Y-57666666D02*
X202783390Y-57714285D01*
X202783390Y-57714285D02*
X202831009Y-57761904D01*
X202831009Y-57761904D02*
X202878628Y-57857142D01*
X202878628Y-57857142D02*
X202878628Y-58238094D01*
X202354819Y-57333332D02*
X202354819Y-56714285D01*
X202354819Y-56714285D02*
X202735771Y-57047618D01*
X202735771Y-57047618D02*
X202735771Y-56904761D01*
X202735771Y-56904761D02*
X202783390Y-56809523D01*
X202783390Y-56809523D02*
X202831009Y-56761904D01*
X202831009Y-56761904D02*
X202926247Y-56714285D01*
X202926247Y-56714285D02*
X203164342Y-56714285D01*
X203164342Y-56714285D02*
X203259580Y-56761904D01*
X203259580Y-56761904D02*
X203307200Y-56809523D01*
X203307200Y-56809523D02*
X203354819Y-56904761D01*
X203354819Y-56904761D02*
X203354819Y-57190475D01*
X203354819Y-57190475D02*
X203307200Y-57285713D01*
X203307200Y-57285713D02*
X203259580Y-57333332D01*
X121738095Y-46454819D02*
X121738095Y-45454819D01*
X121738095Y-45931009D02*
X122309523Y-45931009D01*
X122309523Y-46454819D02*
X122309523Y-45454819D01*
X123309523Y-46454819D02*
X122738095Y-46454819D01*
X123023809Y-46454819D02*
X123023809Y-45454819D01*
X123023809Y-45454819D02*
X122928571Y-45597676D01*
X122928571Y-45597676D02*
X122833333Y-45692914D01*
X122833333Y-45692914D02*
X122738095Y-45740533D01*
X210238095Y-108304819D02*
X210238095Y-107304819D01*
X210238095Y-107781009D02*
X210809523Y-107781009D01*
X210809523Y-108304819D02*
X210809523Y-107304819D01*
X211714285Y-107638152D02*
X211714285Y-108304819D01*
X211476190Y-107257200D02*
X211238095Y-107971485D01*
X211238095Y-107971485D02*
X211857142Y-107971485D01*
X161150714Y-62414819D02*
X161150714Y-61414819D01*
X161150714Y-61414819D02*
X161388809Y-61414819D01*
X161388809Y-61414819D02*
X161531666Y-61462438D01*
X161531666Y-61462438D02*
X161626904Y-61557676D01*
X161626904Y-61557676D02*
X161674523Y-61652914D01*
X161674523Y-61652914D02*
X161722142Y-61843390D01*
X161722142Y-61843390D02*
X161722142Y-61986247D01*
X161722142Y-61986247D02*
X161674523Y-62176723D01*
X161674523Y-62176723D02*
X161626904Y-62271961D01*
X161626904Y-62271961D02*
X161531666Y-62367200D01*
X161531666Y-62367200D02*
X161388809Y-62414819D01*
X161388809Y-62414819D02*
X161150714Y-62414819D01*
X162674523Y-62414819D02*
X162103095Y-62414819D01*
X162388809Y-62414819D02*
X162388809Y-61414819D01*
X162388809Y-61414819D02*
X162293571Y-61557676D01*
X162293571Y-61557676D02*
X162198333Y-61652914D01*
X162198333Y-61652914D02*
X162103095Y-61700533D01*
X163293571Y-61414819D02*
X163388809Y-61414819D01*
X163388809Y-61414819D02*
X163484047Y-61462438D01*
X163484047Y-61462438D02*
X163531666Y-61510057D01*
X163531666Y-61510057D02*
X163579285Y-61605295D01*
X163579285Y-61605295D02*
X163626904Y-61795771D01*
X163626904Y-61795771D02*
X163626904Y-62033866D01*
X163626904Y-62033866D02*
X163579285Y-62224342D01*
X163579285Y-62224342D02*
X163531666Y-62319580D01*
X163531666Y-62319580D02*
X163484047Y-62367200D01*
X163484047Y-62367200D02*
X163388809Y-62414819D01*
X163388809Y-62414819D02*
X163293571Y-62414819D01*
X163293571Y-62414819D02*
X163198333Y-62367200D01*
X163198333Y-62367200D02*
X163150714Y-62319580D01*
X163150714Y-62319580D02*
X163103095Y-62224342D01*
X163103095Y-62224342D02*
X163055476Y-62033866D01*
X163055476Y-62033866D02*
X163055476Y-61795771D01*
X163055476Y-61795771D02*
X163103095Y-61605295D01*
X163103095Y-61605295D02*
X163150714Y-61510057D01*
X163150714Y-61510057D02*
X163198333Y-61462438D01*
X163198333Y-61462438D02*
X163293571Y-61414819D01*
X152626905Y-69414819D02*
X152626905Y-68414819D01*
X152626905Y-68414819D02*
X152865000Y-68414819D01*
X152865000Y-68414819D02*
X153007857Y-68462438D01*
X153007857Y-68462438D02*
X153103095Y-68557676D01*
X153103095Y-68557676D02*
X153150714Y-68652914D01*
X153150714Y-68652914D02*
X153198333Y-68843390D01*
X153198333Y-68843390D02*
X153198333Y-68986247D01*
X153198333Y-68986247D02*
X153150714Y-69176723D01*
X153150714Y-69176723D02*
X153103095Y-69271961D01*
X153103095Y-69271961D02*
X153007857Y-69367200D01*
X153007857Y-69367200D02*
X152865000Y-69414819D01*
X152865000Y-69414819D02*
X152626905Y-69414819D01*
X153674524Y-69414819D02*
X153865000Y-69414819D01*
X153865000Y-69414819D02*
X153960238Y-69367200D01*
X153960238Y-69367200D02*
X154007857Y-69319580D01*
X154007857Y-69319580D02*
X154103095Y-69176723D01*
X154103095Y-69176723D02*
X154150714Y-68986247D01*
X154150714Y-68986247D02*
X154150714Y-68605295D01*
X154150714Y-68605295D02*
X154103095Y-68510057D01*
X154103095Y-68510057D02*
X154055476Y-68462438D01*
X154055476Y-68462438D02*
X153960238Y-68414819D01*
X153960238Y-68414819D02*
X153769762Y-68414819D01*
X153769762Y-68414819D02*
X153674524Y-68462438D01*
X153674524Y-68462438D02*
X153626905Y-68510057D01*
X153626905Y-68510057D02*
X153579286Y-68605295D01*
X153579286Y-68605295D02*
X153579286Y-68843390D01*
X153579286Y-68843390D02*
X153626905Y-68938628D01*
X153626905Y-68938628D02*
X153674524Y-68986247D01*
X153674524Y-68986247D02*
X153769762Y-69033866D01*
X153769762Y-69033866D02*
X153960238Y-69033866D01*
X153960238Y-69033866D02*
X154055476Y-68986247D01*
X154055476Y-68986247D02*
X154103095Y-68938628D01*
X154103095Y-68938628D02*
X154150714Y-68843390D01*
X155626905Y-72494819D02*
X155626905Y-71494819D01*
X155626905Y-71494819D02*
X155865000Y-71494819D01*
X155865000Y-71494819D02*
X156007857Y-71542438D01*
X156007857Y-71542438D02*
X156103095Y-71637676D01*
X156103095Y-71637676D02*
X156150714Y-71732914D01*
X156150714Y-71732914D02*
X156198333Y-71923390D01*
X156198333Y-71923390D02*
X156198333Y-72066247D01*
X156198333Y-72066247D02*
X156150714Y-72256723D01*
X156150714Y-72256723D02*
X156103095Y-72351961D01*
X156103095Y-72351961D02*
X156007857Y-72447200D01*
X156007857Y-72447200D02*
X155865000Y-72494819D01*
X155865000Y-72494819D02*
X155626905Y-72494819D01*
X156769762Y-71923390D02*
X156674524Y-71875771D01*
X156674524Y-71875771D02*
X156626905Y-71828152D01*
X156626905Y-71828152D02*
X156579286Y-71732914D01*
X156579286Y-71732914D02*
X156579286Y-71685295D01*
X156579286Y-71685295D02*
X156626905Y-71590057D01*
X156626905Y-71590057D02*
X156674524Y-71542438D01*
X156674524Y-71542438D02*
X156769762Y-71494819D01*
X156769762Y-71494819D02*
X156960238Y-71494819D01*
X156960238Y-71494819D02*
X157055476Y-71542438D01*
X157055476Y-71542438D02*
X157103095Y-71590057D01*
X157103095Y-71590057D02*
X157150714Y-71685295D01*
X157150714Y-71685295D02*
X157150714Y-71732914D01*
X157150714Y-71732914D02*
X157103095Y-71828152D01*
X157103095Y-71828152D02*
X157055476Y-71875771D01*
X157055476Y-71875771D02*
X156960238Y-71923390D01*
X156960238Y-71923390D02*
X156769762Y-71923390D01*
X156769762Y-71923390D02*
X156674524Y-71971009D01*
X156674524Y-71971009D02*
X156626905Y-72018628D01*
X156626905Y-72018628D02*
X156579286Y-72113866D01*
X156579286Y-72113866D02*
X156579286Y-72304342D01*
X156579286Y-72304342D02*
X156626905Y-72399580D01*
X156626905Y-72399580D02*
X156674524Y-72447200D01*
X156674524Y-72447200D02*
X156769762Y-72494819D01*
X156769762Y-72494819D02*
X156960238Y-72494819D01*
X156960238Y-72494819D02*
X157055476Y-72447200D01*
X157055476Y-72447200D02*
X157103095Y-72399580D01*
X157103095Y-72399580D02*
X157150714Y-72304342D01*
X157150714Y-72304342D02*
X157150714Y-72113866D01*
X157150714Y-72113866D02*
X157103095Y-72018628D01*
X157103095Y-72018628D02*
X157055476Y-71971009D01*
X157055476Y-71971009D02*
X156960238Y-71923390D01*
X199354819Y-57666666D02*
X198878628Y-57999999D01*
X199354819Y-58238094D02*
X198354819Y-58238094D01*
X198354819Y-58238094D02*
X198354819Y-57857142D01*
X198354819Y-57857142D02*
X198402438Y-57761904D01*
X198402438Y-57761904D02*
X198450057Y-57714285D01*
X198450057Y-57714285D02*
X198545295Y-57666666D01*
X198545295Y-57666666D02*
X198688152Y-57666666D01*
X198688152Y-57666666D02*
X198783390Y-57714285D01*
X198783390Y-57714285D02*
X198831009Y-57761904D01*
X198831009Y-57761904D02*
X198878628Y-57857142D01*
X198878628Y-57857142D02*
X198878628Y-58238094D01*
X198450057Y-57285713D02*
X198402438Y-57238094D01*
X198402438Y-57238094D02*
X198354819Y-57142856D01*
X198354819Y-57142856D02*
X198354819Y-56904761D01*
X198354819Y-56904761D02*
X198402438Y-56809523D01*
X198402438Y-56809523D02*
X198450057Y-56761904D01*
X198450057Y-56761904D02*
X198545295Y-56714285D01*
X198545295Y-56714285D02*
X198640533Y-56714285D01*
X198640533Y-56714285D02*
X198783390Y-56761904D01*
X198783390Y-56761904D02*
X199354819Y-57333332D01*
X199354819Y-57333332D02*
X199354819Y-56714285D01*
X198572694Y-54145180D02*
X198572694Y-53430895D01*
X198572694Y-53430895D02*
X198620313Y-53288038D01*
X198620313Y-53288038D02*
X198715551Y-53192800D01*
X198715551Y-53192800D02*
X198858408Y-53145180D01*
X198858408Y-53145180D02*
X198953646Y-53145180D01*
X197572694Y-53145180D02*
X198144122Y-53145180D01*
X197858408Y-53145180D02*
X197858408Y-54145180D01*
X197858408Y-54145180D02*
X197953646Y-54002323D01*
X197953646Y-54002323D02*
X198048884Y-53907085D01*
X198048884Y-53907085D02*
X198144122Y-53859466D01*
D12*
%TO.C,D1*%
X174925000Y-63920000D02*
X174925000Y-63455000D01*
X174925000Y-66545000D02*
X174925000Y-66080000D01*
X169576864Y-63920000D02*
G75*
G02*
X174925000Y-63455170I2788136J-1080000D01*
G01*
X170110316Y-63920000D02*
G75*
G02*
X174619684Y-63920000I2254684J-1080000D01*
G01*
X174619684Y-66080000D02*
G75*
G02*
X170110316Y-66080000I-2254684J1080000D01*
G01*
X174925000Y-66544830D02*
G75*
G02*
X169576864Y-66080000I-2560000J1544830D01*
G01*
%TO.C,D7*%
X160805000Y-86455000D02*
X160805000Y-86920000D01*
X160805000Y-89080000D02*
X160805000Y-89545000D01*
X160805000Y-86455170D02*
G75*
G02*
X166153136Y-86920000I2560000J-1544830D01*
G01*
X161110316Y-86920000D02*
G75*
G02*
X165619684Y-86920000I2254684J-1080000D01*
G01*
X165619684Y-89080000D02*
G75*
G02*
X161110316Y-89080000I-2254684J1080000D01*
G01*
X166153136Y-89080000D02*
G75*
G02*
X160805000Y-89544830I-2788136J1080000D01*
G01*
%TO.C,D3*%
X192925000Y-63920000D02*
X192925000Y-63455000D01*
X192925000Y-66545000D02*
X192925000Y-66080000D01*
X187576864Y-63920000D02*
G75*
G02*
X192925000Y-63455170I2788136J-1080000D01*
G01*
X188110316Y-63920000D02*
G75*
G02*
X192619684Y-63920000I2254684J-1080000D01*
G01*
X192619684Y-66080000D02*
G75*
G02*
X188110316Y-66080000I-2254684J1080000D01*
G01*
X192925000Y-66544830D02*
G75*
G02*
X187576864Y-66080000I-2560000J1544830D01*
G01*
%TO.C,D2*%
X183925000Y-56920000D02*
X183925000Y-56455000D01*
X183925000Y-59545000D02*
X183925000Y-59080000D01*
X178576864Y-56920000D02*
G75*
G02*
X183925000Y-56455170I2788136J-1080000D01*
G01*
X179110316Y-56920000D02*
G75*
G02*
X183619684Y-56920000I2254684J-1080000D01*
G01*
X183619684Y-59080000D02*
G75*
G02*
X179110316Y-59080000I-2254684J1080000D01*
G01*
X183925000Y-59544830D02*
G75*
G02*
X178576864Y-59080000I-2560000J1544830D01*
G01*
%TO.C,D4*%
X185805000Y-74455000D02*
X185805000Y-74920000D01*
X185805000Y-77080000D02*
X185805000Y-77545000D01*
X185805000Y-74455170D02*
G75*
G02*
X191153136Y-74920000I2560000J-1544830D01*
G01*
X186110316Y-74920000D02*
G75*
G02*
X190619684Y-74920000I2254684J-1080000D01*
G01*
X190619684Y-77080000D02*
G75*
G02*
X186110316Y-77080000I-2254684J1080000D01*
G01*
X191153136Y-77080000D02*
G75*
G02*
X185805000Y-77544830I-2788136J1080000D01*
G01*
%TO.C,D6*%
X169805000Y-96455000D02*
X169805000Y-96920000D01*
X169805000Y-99080000D02*
X169805000Y-99545000D01*
X169805000Y-96455170D02*
G75*
G02*
X175153136Y-96920000I2560000J-1544830D01*
G01*
X170110316Y-96920000D02*
G75*
G02*
X174619684Y-96920000I2254684J-1080000D01*
G01*
X174619684Y-99080000D02*
G75*
G02*
X170110316Y-99080000I-2254684J1080000D01*
G01*
X175153136Y-99080000D02*
G75*
G02*
X169805000Y-99544830I-2788136J1080000D01*
G01*
%TO.C,D5*%
X178805000Y-86455000D02*
X178805000Y-86920000D01*
X178805000Y-89080000D02*
X178805000Y-89545000D01*
X178805000Y-86455170D02*
G75*
G02*
X184153136Y-86920000I2560000J-1544830D01*
G01*
X179110316Y-86920000D02*
G75*
G02*
X183619684Y-86920000I2254684J-1080000D01*
G01*
X183619684Y-89080000D02*
G75*
G02*
X179110316Y-89080000I-2254684J1080000D01*
G01*
X184153136Y-89080000D02*
G75*
G02*
X178805000Y-89544830I-2788136J1080000D01*
G01*
%TO.C,R3*%
X198540000Y-56113748D02*
X198540000Y-58886252D01*
X201960000Y-56113748D02*
X201960000Y-58886252D01*
%TO.C,D10*%
X164925000Y-56920000D02*
X164925000Y-56455000D01*
X164925000Y-59545000D02*
X164925000Y-59080000D01*
X159576864Y-56920000D02*
G75*
G02*
X164925000Y-56455170I2788136J-1080000D01*
G01*
X160110316Y-56920000D02*
G75*
G02*
X164619684Y-56920000I2254684J-1080000D01*
G01*
X164619684Y-59080000D02*
G75*
G02*
X160110316Y-59080000I-2254684J1080000D01*
G01*
X164925000Y-59544830D02*
G75*
G02*
X159576864Y-59080000I-2560000J1544830D01*
G01*
%TO.C,D9*%
X155925000Y-63920000D02*
X155925000Y-63455000D01*
X155925000Y-66545000D02*
X155925000Y-66080000D01*
X150576864Y-63920000D02*
G75*
G02*
X155925000Y-63455170I2788136J-1080000D01*
G01*
X151110316Y-63920000D02*
G75*
G02*
X155619684Y-63920000I2254684J-1080000D01*
G01*
X155619684Y-66080000D02*
G75*
G02*
X151110316Y-66080000I-2254684J1080000D01*
G01*
X155925000Y-66544830D02*
G75*
G02*
X150576864Y-66080000I-2560000J1544830D01*
G01*
%TO.C,D8*%
X153805000Y-74455000D02*
X153805000Y-74920000D01*
X153805000Y-77080000D02*
X153805000Y-77545000D01*
X153805000Y-74455170D02*
G75*
G02*
X159153136Y-74920000I2560000J-1544830D01*
G01*
X154110316Y-74920000D02*
G75*
G02*
X158619684Y-74920000I2254684J-1080000D01*
G01*
X158619684Y-77080000D02*
G75*
G02*
X154110316Y-77080000I-2254684J1080000D01*
G01*
X159153136Y-77080000D02*
G75*
G02*
X153805000Y-77544830I-2788136J1080000D01*
G01*
%TO.C,R2*%
X194540000Y-56113748D02*
X194540000Y-58886252D01*
X197960000Y-56113748D02*
X197960000Y-58886252D01*
%TO.C,J1*%
X193569361Y-48750000D02*
X193569361Y-50450000D01*
X202909361Y-48750000D02*
X202909361Y-50450000D01*
%TD*%
M02*
