%TF.GenerationSoftware,KiCad,Pcbnew,9.0.6*%
%TF.CreationDate,2025-11-18T14:04:37-05:00*%
%TF.ProjectId,hardware,68617264-7761-4726-952e-6b696361645f,rev?*%
%TF.SameCoordinates,Original*%
%TF.FileFunction,Copper,L1,Top*%
%TF.FilePolarity,Positive*%
%FSLAX46Y46*%
G04 Gerber Fmt 4.6, Leading zero omitted, Abs format (unit mm)*
G04 Created by KiCad (PCBNEW 9.0.6) date 2025-11-18 14:04:37*
%MOMM*%
%LPD*%
G01*
G04 APERTURE LIST*
G04 Aperture macros list*
%AMRoundRect*
0 Rectangle with rounded corners*
0 $1 Rounding radius*
0 $2 $3 $4 $5 $6 $7 $8 $9 X,Y pos of 4 corners*
0 Add a 4 corners polygon primitive as box body*
4,1,4,$2,$3,$4,$5,$6,$7,$8,$9,$2,$3,0*
0 Add four circle primitives for the rounded corners*
1,1,$1+$1,$2,$3*
1,1,$1+$1,$4,$5*
1,1,$1+$1,$6,$7*
1,1,$1+$1,$8,$9*
0 Add four rect primitives between the rounded corners*
20,1,$1+$1,$2,$3,$4,$5,0*
20,1,$1+$1,$4,$5,$6,$7,0*
20,1,$1+$1,$6,$7,$8,$9,0*
20,1,$1+$1,$8,$9,$2,$3,0*%
%AMFreePoly0*
4,1,37,0.603843,0.796157,0.639018,0.796157,0.711114,0.766294,0.766294,0.711114,0.796157,0.639018,0.796157,0.603843,0.800000,0.600000,0.800000,-0.600000,0.796157,-0.603843,0.796157,-0.639018,0.766294,-0.711114,0.711114,-0.766294,0.639018,-0.796157,0.603843,-0.796157,0.600000,-0.800000,0.000000,-0.800000,0.000000,-0.796148,-0.078414,-0.796148,-0.232228,-0.765552,-0.377117,-0.705537,
-0.507515,-0.618408,-0.618408,-0.507515,-0.705537,-0.377117,-0.765552,-0.232228,-0.796148,-0.078414,-0.796148,0.078414,-0.765552,0.232228,-0.705537,0.377117,-0.618408,0.507515,-0.507515,0.618408,-0.377117,0.705537,-0.232228,0.765552,-0.078414,0.796148,0.000000,0.796148,0.000000,0.800000,0.600000,0.800000,0.603843,0.796157,0.603843,0.796157,$1*%
%AMFreePoly1*
4,1,37,0.000000,0.796148,0.078414,0.796148,0.232228,0.765552,0.377117,0.705537,0.507515,0.618408,0.618408,0.507515,0.705537,0.377117,0.765552,0.232228,0.796148,0.078414,0.796148,-0.078414,0.765552,-0.232228,0.705537,-0.377117,0.618408,-0.507515,0.507515,-0.618408,0.377117,-0.705537,0.232228,-0.765552,0.078414,-0.796148,0.000000,-0.796148,0.000000,-0.800000,-0.600000,-0.800000,
-0.603843,-0.796157,-0.639018,-0.796157,-0.711114,-0.766294,-0.766294,-0.711114,-0.796157,-0.639018,-0.796157,-0.603843,-0.800000,-0.600000,-0.800000,0.600000,-0.796157,0.603843,-0.796157,0.639018,-0.766294,0.711114,-0.711114,0.766294,-0.639018,0.796157,-0.603843,0.796157,-0.600000,0.800000,0.000000,0.800000,0.000000,0.796148,0.000000,0.796148,$1*%
G04 Aperture macros list end*
%TA.AperFunction,ComponentPad*%
%ADD10R,1.070000X1.800000*%
%TD*%
%TA.AperFunction,ComponentPad*%
%ADD11O,1.070000X1.800000*%
%TD*%
%TA.AperFunction,SMDPad,CuDef*%
%ADD12RoundRect,0.250000X-1.450000X0.400000X-1.450000X-0.400000X1.450000X-0.400000X1.450000X0.400000X0*%
%TD*%
%TA.AperFunction,SMDPad,CuDef*%
%ADD13RoundRect,0.175000X0.175000X0.425000X-0.175000X0.425000X-0.175000X-0.425000X0.175000X-0.425000X0*%
%TD*%
%TA.AperFunction,SMDPad,CuDef*%
%ADD14RoundRect,0.190000X-0.190000X-0.410000X0.190000X-0.410000X0.190000X0.410000X-0.190000X0.410000X0*%
%TD*%
%TA.AperFunction,SMDPad,CuDef*%
%ADD15RoundRect,0.200000X-0.200000X-0.400000X0.200000X-0.400000X0.200000X0.400000X-0.200000X0.400000X0*%
%TD*%
%TA.AperFunction,SMDPad,CuDef*%
%ADD16RoundRect,0.175000X-0.175000X-0.425000X0.175000X-0.425000X0.175000X0.425000X-0.175000X0.425000X0*%
%TD*%
%TA.AperFunction,SMDPad,CuDef*%
%ADD17RoundRect,0.190000X0.190000X0.410000X-0.190000X0.410000X-0.190000X-0.410000X0.190000X-0.410000X0*%
%TD*%
%TA.AperFunction,SMDPad,CuDef*%
%ADD18RoundRect,0.200000X0.200000X0.400000X-0.200000X0.400000X-0.200000X-0.400000X0.200000X-0.400000X0*%
%TD*%
%TA.AperFunction,HeatsinkPad*%
%ADD19O,1.100000X1.700000*%
%TD*%
%TA.AperFunction,ComponentPad*%
%ADD20RoundRect,0.200000X-0.600000X-0.600000X0.600000X-0.600000X0.600000X0.600000X-0.600000X0.600000X0*%
%TD*%
%TA.AperFunction,ComponentPad*%
%ADD21C,1.600000*%
%TD*%
%TA.AperFunction,ComponentPad*%
%ADD22FreePoly0,0.000000*%
%TD*%
%TA.AperFunction,ComponentPad*%
%ADD23FreePoly1,0.000000*%
%TD*%
%TA.AperFunction,ViaPad*%
%ADD24C,2.000000*%
%TD*%
%TA.AperFunction,Conductor*%
%ADD25C,0.800000*%
%TD*%
%TA.AperFunction,Conductor*%
%ADD26C,1.500000*%
%TD*%
%TA.AperFunction,Conductor*%
%ADD27C,2.000000*%
%TD*%
%TA.AperFunction,Conductor*%
%ADD28C,1.000000*%
%TD*%
%TA.AperFunction,Conductor*%
%ADD29C,0.700000*%
%TD*%
G04 APERTURE END LIST*
D10*
%TO.P,D1,1,DOUT*%
%TO.N,Net-(D1-DOUT)*%
X174270000Y-65000000D03*
D11*
%TO.P,D1,2,GND*%
%TO.N,GND*%
X173000000Y-65000000D03*
%TO.P,D1,3,VDD*%
%TO.N,Net-(D1-VDD)*%
X171730000Y-65000000D03*
%TO.P,D1,4,DIN*%
%TO.N,Net-(D1-DIN)*%
X170460000Y-65000000D03*
%TD*%
D10*
%TO.P,D7,1,DOUT*%
%TO.N,unconnected-(D7-DOUT-Pad1)*%
X161460000Y-88000000D03*
D11*
%TO.P,D7,2,GND*%
%TO.N,GND*%
X162730000Y-88000000D03*
%TO.P,D7,3,VDD*%
%TO.N,Net-(D1-VDD)*%
X164000000Y-88000000D03*
%TO.P,D7,4,DIN*%
%TO.N,Net-(D6-DOUT)*%
X165270000Y-88000000D03*
%TD*%
D10*
%TO.P,D3,1,DOUT*%
%TO.N,Net-(D3-DOUT)*%
X192270000Y-65000000D03*
D11*
%TO.P,D3,2,GND*%
%TO.N,GND*%
X191000000Y-65000000D03*
%TO.P,D3,3,VDD*%
%TO.N,Net-(D1-VDD)*%
X189730000Y-65000000D03*
%TO.P,D3,4,DIN*%
%TO.N,Net-(D2-DOUT)*%
X188460000Y-65000000D03*
%TD*%
D10*
%TO.P,D2,1,DOUT*%
%TO.N,Net-(D2-DOUT)*%
X183270000Y-58000000D03*
D11*
%TO.P,D2,2,GND*%
%TO.N,GND*%
X182000000Y-58000000D03*
%TO.P,D2,3,VDD*%
%TO.N,Net-(D1-VDD)*%
X180730000Y-58000000D03*
%TO.P,D2,4,DIN*%
%TO.N,Net-(D1-DOUT)*%
X179460000Y-58000000D03*
%TD*%
D10*
%TO.P,D4,1,DOUT*%
%TO.N,Net-(D4-DOUT)*%
X186460000Y-76000000D03*
D11*
%TO.P,D4,2,GND*%
%TO.N,GND*%
X187730000Y-76000000D03*
%TO.P,D4,3,VDD*%
%TO.N,Net-(D1-VDD)*%
X189000000Y-76000000D03*
%TO.P,D4,4,DIN*%
%TO.N,Net-(D3-DOUT)*%
X190270000Y-76000000D03*
%TD*%
D10*
%TO.P,D6,1,DOUT*%
%TO.N,Net-(D6-DOUT)*%
X170460000Y-98000000D03*
D11*
%TO.P,D6,2,GND*%
%TO.N,GND*%
X171730000Y-98000000D03*
%TO.P,D6,3,VDD*%
%TO.N,Net-(D1-VDD)*%
X173000000Y-98000000D03*
%TO.P,D6,4,DIN*%
%TO.N,Net-(D5-DOUT)*%
X174270000Y-98000000D03*
%TD*%
D10*
%TO.P,D5,1,DOUT*%
%TO.N,Net-(D5-DOUT)*%
X179460000Y-88000000D03*
D11*
%TO.P,D5,2,GND*%
%TO.N,GND*%
X180730000Y-88000000D03*
%TO.P,D5,3,VDD*%
%TO.N,Net-(D1-VDD)*%
X182000000Y-88000000D03*
%TO.P,D5,4,DIN*%
%TO.N,Net-(D4-DOUT)*%
X183270000Y-88000000D03*
%TD*%
D12*
%TO.P,R3,1*%
%TO.N,Net-(J1-CC1)*%
X200250000Y-55275000D03*
%TO.P,R3,2*%
%TO.N,GND*%
X200250000Y-59725000D03*
%TD*%
D10*
%TO.P,D10,1,DOUT*%
%TO.N,Net-(D1-DIN)*%
X164270000Y-58000000D03*
D11*
%TO.P,D10,2,GND*%
%TO.N,GND*%
X163000000Y-58000000D03*
%TO.P,D10,3,VDD*%
%TO.N,Net-(D1-VDD)*%
X161730000Y-58000000D03*
%TO.P,D10,4,DIN*%
%TO.N,Net-(D10-DIN)*%
X160460000Y-58000000D03*
%TD*%
D10*
%TO.P,D9,1,DOUT*%
%TO.N,Net-(D10-DIN)*%
X155270000Y-65000000D03*
D11*
%TO.P,D9,2,GND*%
%TO.N,GND*%
X154000000Y-65000000D03*
%TO.P,D9,3,VDD*%
%TO.N,Net-(D1-VDD)*%
X152730000Y-65000000D03*
%TO.P,D9,4,DIN*%
%TO.N,Net-(D8-DOUT)*%
X151460000Y-65000000D03*
%TD*%
D10*
%TO.P,D8,1,DOUT*%
%TO.N,Net-(D8-DOUT)*%
X154460000Y-76000000D03*
D11*
%TO.P,D8,2,GND*%
%TO.N,GND*%
X155730000Y-76000000D03*
%TO.P,D8,3,VDD*%
%TO.N,Net-(D1-VDD)*%
X157000000Y-76000000D03*
%TO.P,D8,4,DIN*%
%TO.N,Net-(D8-DIN)*%
X158270000Y-76000000D03*
%TD*%
D12*
%TO.P,R2,1*%
%TO.N,Net-(J1-CC2)*%
X196250000Y-55275000D03*
%TO.P,R2,2*%
%TO.N,GND*%
X196250000Y-59725000D03*
%TD*%
D13*
%TO.P,J1,A5,CC1*%
%TO.N,Net-(J1-CC1)*%
X198739361Y-51580000D03*
D14*
%TO.P,J1,A9,VBUS*%
%TO.N,VBUS*%
X196719361Y-51580000D03*
D15*
%TO.P,J1,A12,GND*%
%TO.N,GND*%
X195489361Y-51580000D03*
D16*
%TO.P,J1,B5,CC2*%
%TO.N,Net-(J1-CC2)*%
X197739361Y-51580000D03*
D17*
%TO.P,J1,B9,VBUS*%
%TO.N,VBUS*%
X199759361Y-51580000D03*
D18*
%TO.P,J1,B12,GND*%
%TO.N,GND*%
X200989361Y-51580000D03*
D19*
%TO.P,J1,S1,SHIELD*%
X202559361Y-51500000D03*
X202559361Y-47700000D03*
X193919361Y-51500000D03*
X193919361Y-47700000D03*
%TD*%
D20*
%TO.P,A1,1,GPIO0*%
%TO.N,unconnected-(A1-GPIO0-Pad1)*%
X119220000Y-106140000D03*
D21*
%TO.P,A1,2,GPIO1*%
%TO.N,unconnected-(A1-GPIO1-Pad2)*%
X119220000Y-103600000D03*
D22*
%TO.P,A1,3,GND*%
%TO.N,GND*%
X119220000Y-101060000D03*
D21*
%TO.P,A1,4,GPIO2*%
%TO.N,unconnected-(A1-GPIO2-Pad4)*%
X119220000Y-98520000D03*
%TO.P,A1,5,GPIO3*%
%TO.N,unconnected-(A1-GPIO3-Pad5)*%
X119220000Y-95980000D03*
%TO.P,A1,6,GPIO4*%
%TO.N,unconnected-(A1-GPIO4-Pad6)*%
X119220000Y-93440000D03*
%TO.P,A1,7,GPIO5*%
%TO.N,unconnected-(A1-GPIO5-Pad7)*%
X119220000Y-90900000D03*
D22*
%TO.P,A1,8,GND*%
%TO.N,GND*%
X119220000Y-88360000D03*
D21*
%TO.P,A1,9,GPIO6*%
%TO.N,unconnected-(A1-GPIO6-Pad9)*%
X119220000Y-85820000D03*
%TO.P,A1,10,GPIO7*%
%TO.N,unconnected-(A1-GPIO7-Pad10)*%
X119220000Y-83280000D03*
%TO.P,A1,11,GPIO8*%
%TO.N,unconnected-(A1-GPIO8-Pad11)*%
X119220000Y-80740000D03*
%TO.P,A1,12,GPIO9*%
%TO.N,unconnected-(A1-GPIO9-Pad12)*%
X119220000Y-78200000D03*
D22*
%TO.P,A1,13,GND*%
%TO.N,GND*%
X119220000Y-75660000D03*
D21*
%TO.P,A1,14,GPIO10*%
%TO.N,unconnected-(A1-GPIO10-Pad14)*%
X119220000Y-73120000D03*
%TO.P,A1,15,GPIO11*%
%TO.N,unconnected-(A1-GPIO11-Pad15)*%
X119220000Y-70580000D03*
%TO.P,A1,16,GPIO12*%
%TO.N,unconnected-(A1-GPIO12-Pad16)*%
X119220000Y-68040000D03*
%TO.P,A1,17,GPIO13*%
%TO.N,unconnected-(A1-GPIO13-Pad17)*%
X119220000Y-65500000D03*
D22*
%TO.P,A1,18,GND*%
%TO.N,GND*%
X119220000Y-62960000D03*
D21*
%TO.P,A1,19,GPIO14*%
%TO.N,unconnected-(A1-GPIO14-Pad19)*%
X119220000Y-60420000D03*
%TO.P,A1,20,GPIO15*%
%TO.N,unconnected-(A1-GPIO15-Pad20)*%
X119220000Y-57880000D03*
%TO.P,A1,21,GPIO16*%
%TO.N,Net-(A1-GPIO16)*%
X137000000Y-57880000D03*
%TO.P,A1,22,GPIO17*%
%TO.N,unconnected-(A1-GPIO17-Pad22)*%
X137000000Y-60420000D03*
D23*
%TO.P,A1,23,GND*%
%TO.N,GND*%
X137000000Y-62960000D03*
D21*
%TO.P,A1,24,GPIO18*%
%TO.N,unconnected-(A1-GPIO18-Pad24)*%
X137000000Y-65500000D03*
%TO.P,A1,25,GPIO19*%
%TO.N,unconnected-(A1-GPIO19-Pad25)*%
X137000000Y-68040000D03*
%TO.P,A1,26,GPIO20*%
%TO.N,unconnected-(A1-GPIO20-Pad26)*%
X137000000Y-70580000D03*
%TO.P,A1,27,GPIO21*%
%TO.N,unconnected-(A1-GPIO21-Pad27)*%
X137000000Y-73120000D03*
D23*
%TO.P,A1,28,GND*%
%TO.N,GND*%
X137000000Y-75660000D03*
D21*
%TO.P,A1,29,GPIO22*%
%TO.N,unconnected-(A1-GPIO22-Pad29)*%
X137000000Y-78200000D03*
%TO.P,A1,30,RUN*%
%TO.N,unconnected-(A1-RUN-Pad30)*%
X137000000Y-80740000D03*
%TO.P,A1,31,GPIO26_ADC0*%
%TO.N,unconnected-(A1-GPIO26_ADC0-Pad31)*%
X137000000Y-83280000D03*
%TO.P,A1,32,GPIO27_ADC1*%
%TO.N,unconnected-(A1-GPIO27_ADC1-Pad32)*%
X137000000Y-85820000D03*
D23*
%TO.P,A1,33,AGND*%
%TO.N,GND*%
X137000000Y-88360000D03*
D21*
%TO.P,A1,34,GPIO28_ADC2*%
%TO.N,unconnected-(A1-GPIO28_ADC2-Pad34)*%
X137000000Y-90900000D03*
%TO.P,A1,35,ADC_VREF*%
%TO.N,unconnected-(A1-ADC_VREF-Pad35)*%
X137000000Y-93440000D03*
%TO.P,A1,36,3V3*%
%TO.N,unconnected-(A1-3V3-Pad36)*%
X137000000Y-95980000D03*
%TO.P,A1,37,3V3_EN*%
%TO.N,unconnected-(A1-3V3_EN-Pad37)*%
X137000000Y-98520000D03*
D23*
%TO.P,A1,38,GND*%
%TO.N,GND*%
X137000000Y-101060000D03*
D21*
%TO.P,A1,39,VSYS*%
%TO.N,unconnected-(A1-VSYS-Pad39)*%
X137000000Y-103600000D03*
%TO.P,A1,40,VBUS*%
%TO.N,VBUS*%
X137000000Y-106140000D03*
%TD*%
D24*
%TO.N,VBUS*%
X206000000Y-83000000D03*
%TD*%
D25*
%TO.N,VBUS*%
X196719361Y-51580000D02*
X196719361Y-50897722D01*
D26*
X212250000Y-55000000D02*
X212250000Y-59500000D01*
D25*
X199759361Y-52180000D02*
X200579361Y-53000000D01*
D27*
X212250000Y-76750000D02*
X206000000Y-83000000D01*
X212250000Y-59500000D02*
X212250000Y-72000000D01*
D25*
X199759361Y-51580000D02*
X199759361Y-52180000D01*
D28*
X210250000Y-53000000D02*
X212250000Y-55000000D01*
D25*
X200579361Y-53000000D02*
X210250000Y-53000000D01*
X197238083Y-50379000D02*
X199240639Y-50379000D01*
X199240639Y-50379000D02*
X199759361Y-50897722D01*
D27*
X212250000Y-103000000D02*
X212250000Y-76750000D01*
X209110000Y-106140000D02*
X212250000Y-103000000D01*
D25*
X196719361Y-50897722D02*
X197238083Y-50379000D01*
X199759361Y-50897722D02*
X199759361Y-51580000D01*
D27*
X212250000Y-72000000D02*
X212250000Y-76750000D01*
X137000000Y-106140000D02*
X209110000Y-106140000D01*
D29*
%TO.N,Net-(J1-CC2)*%
X197739361Y-53362500D02*
X196239361Y-54862500D01*
X197739361Y-51580000D02*
X197739361Y-53362500D01*
%TO.N,Net-(J1-CC1)*%
X198739361Y-51580000D02*
X198739361Y-53362500D01*
X198739361Y-53362500D02*
X200239361Y-54862500D01*
D28*
%TO.N,Net-(D1-DOUT)*%
X179460000Y-59810000D02*
X174270000Y-65000000D01*
X179460000Y-58000000D02*
X179460000Y-59810000D01*
%TO.N,Net-(D2-DOUT)*%
X188460000Y-65000000D02*
X188460000Y-63190000D01*
X188460000Y-63190000D02*
X183270000Y-58000000D01*
%TO.N,Net-(D3-DOUT)*%
X192270000Y-74000000D02*
X192270000Y-65000000D01*
X190270000Y-76000000D02*
X192270000Y-74000000D01*
%TO.N,Net-(D4-DOUT)*%
X186460000Y-76000000D02*
X186460000Y-84810000D01*
X186460000Y-84810000D02*
X183270000Y-88000000D01*
%TO.N,Net-(D5-DOUT)*%
X179460000Y-88000000D02*
X179460000Y-92810000D01*
X179460000Y-92810000D02*
X174270000Y-98000000D01*
%TO.N,Net-(D6-DOUT)*%
X165270000Y-92810000D02*
X170460000Y-98000000D01*
X165270000Y-88000000D02*
X165270000Y-92810000D01*
%TO.N,Net-(D8-DOUT)*%
X154460000Y-76000000D02*
X151460000Y-73000000D01*
X151460000Y-73000000D02*
X151460000Y-65000000D01*
%TO.N,Net-(D1-DIN)*%
X164270000Y-58000000D02*
X164270000Y-58810000D01*
X164270000Y-58810000D02*
X170460000Y-65000000D01*
%TO.N,Net-(D10-DIN)*%
X155270000Y-63190000D02*
X160460000Y-58000000D01*
X155270000Y-65000000D02*
X155270000Y-63190000D01*
%TD*%
%TA.AperFunction,Conductor*%
%TO.N,GND*%
G36*
X214442539Y-45520185D02*
G01*
X214488294Y-45572989D01*
X214499500Y-45624500D01*
X214499500Y-115375500D01*
X214479815Y-115442539D01*
X214427011Y-115488294D01*
X214375500Y-115499500D01*
X115624500Y-115499500D01*
X115557461Y-115479815D01*
X115511706Y-115427011D01*
X115500500Y-115375500D01*
X115500500Y-111878711D01*
X117149500Y-111878711D01*
X117149500Y-112121288D01*
X117181161Y-112361785D01*
X117243947Y-112596104D01*
X117336773Y-112820205D01*
X117336776Y-112820212D01*
X117458064Y-113030289D01*
X117458066Y-113030292D01*
X117458067Y-113030293D01*
X117605733Y-113222736D01*
X117605739Y-113222743D01*
X117777256Y-113394260D01*
X117777262Y-113394265D01*
X117969711Y-113541936D01*
X118179788Y-113663224D01*
X118403900Y-113756054D01*
X118638211Y-113818838D01*
X118818586Y-113842584D01*
X118878711Y-113850500D01*
X118878712Y-113850500D01*
X119121289Y-113850500D01*
X119169388Y-113844167D01*
X119361789Y-113818838D01*
X119596100Y-113756054D01*
X119820212Y-113663224D01*
X120030289Y-113541936D01*
X120222738Y-113394265D01*
X120394265Y-113222738D01*
X120541936Y-113030289D01*
X120663224Y-112820212D01*
X120756054Y-112596100D01*
X120818838Y-112361789D01*
X120850500Y-112121288D01*
X120850500Y-111878712D01*
X120850500Y-111878711D01*
X209149500Y-111878711D01*
X209149500Y-112121288D01*
X209181161Y-112361785D01*
X209243947Y-112596104D01*
X209336773Y-112820205D01*
X209336776Y-112820212D01*
X209458064Y-113030289D01*
X209458066Y-113030292D01*
X209458067Y-113030293D01*
X209605733Y-113222736D01*
X209605739Y-113222743D01*
X209777256Y-113394260D01*
X209777262Y-113394265D01*
X209969711Y-113541936D01*
X210179788Y-113663224D01*
X210403900Y-113756054D01*
X210638211Y-113818838D01*
X210818586Y-113842584D01*
X210878711Y-113850500D01*
X210878712Y-113850500D01*
X211121289Y-113850500D01*
X211169388Y-113844167D01*
X211361789Y-113818838D01*
X211596100Y-113756054D01*
X211820212Y-113663224D01*
X212030289Y-113541936D01*
X212222738Y-113394265D01*
X212394265Y-113222738D01*
X212541936Y-113030289D01*
X212663224Y-112820212D01*
X212756054Y-112596100D01*
X212818838Y-112361789D01*
X212850500Y-112121288D01*
X212850500Y-111878712D01*
X212818838Y-111638211D01*
X212756054Y-111403900D01*
X212663224Y-111179788D01*
X212541936Y-110969711D01*
X212394265Y-110777262D01*
X212394260Y-110777256D01*
X212222743Y-110605739D01*
X212222736Y-110605733D01*
X212030293Y-110458067D01*
X212030292Y-110458066D01*
X212030289Y-110458064D01*
X211820212Y-110336776D01*
X211820205Y-110336773D01*
X211596104Y-110243947D01*
X211361785Y-110181161D01*
X211121289Y-110149500D01*
X211121288Y-110149500D01*
X210878712Y-110149500D01*
X210878711Y-110149500D01*
X210638214Y-110181161D01*
X210403895Y-110243947D01*
X210179794Y-110336773D01*
X210179785Y-110336777D01*
X209969706Y-110458067D01*
X209777263Y-110605733D01*
X209777256Y-110605739D01*
X209605739Y-110777256D01*
X209605733Y-110777263D01*
X209458067Y-110969706D01*
X209336777Y-111179785D01*
X209336773Y-111179794D01*
X209243947Y-111403895D01*
X209181161Y-111638214D01*
X209149500Y-111878711D01*
X120850500Y-111878711D01*
X120818838Y-111638211D01*
X120756054Y-111403900D01*
X120663224Y-111179788D01*
X120541936Y-110969711D01*
X120394265Y-110777262D01*
X120394260Y-110777256D01*
X120222743Y-110605739D01*
X120222736Y-110605733D01*
X120030293Y-110458067D01*
X120030292Y-110458066D01*
X120030289Y-110458064D01*
X119820212Y-110336776D01*
X119820205Y-110336773D01*
X119596104Y-110243947D01*
X119361785Y-110181161D01*
X119121289Y-110149500D01*
X119121288Y-110149500D01*
X118878712Y-110149500D01*
X118878711Y-110149500D01*
X118638214Y-110181161D01*
X118403895Y-110243947D01*
X118179794Y-110336773D01*
X118179785Y-110336777D01*
X117969706Y-110458067D01*
X117777263Y-110605733D01*
X117777256Y-110605739D01*
X117605739Y-110777256D01*
X117605733Y-110777263D01*
X117458067Y-110969706D01*
X117336777Y-111179785D01*
X117336773Y-111179794D01*
X117243947Y-111403895D01*
X117181161Y-111638214D01*
X117149500Y-111878711D01*
X115500500Y-111878711D01*
X115500500Y-62881210D01*
X117915000Y-62881210D01*
X117915000Y-63038789D01*
X117924701Y-63137299D01*
X117924701Y-63137302D01*
X117955444Y-63291864D01*
X117984185Y-63386612D01*
X118044490Y-63532198D01*
X118091155Y-63619501D01*
X118091161Y-63619511D01*
X118137534Y-63688912D01*
X118737037Y-63089410D01*
X118754075Y-63152993D01*
X118819901Y-63267007D01*
X118912993Y-63360099D01*
X119027007Y-63425925D01*
X119090589Y-63442962D01*
X118491085Y-64042465D01*
X118560488Y-64088838D01*
X118560498Y-64088844D01*
X118626454Y-64124099D01*
X118676298Y-64173062D01*
X118691758Y-64241200D01*
X118667926Y-64306879D01*
X118624295Y-64343942D01*
X118538386Y-64387715D01*
X118372786Y-64508028D01*
X118228028Y-64652786D01*
X118107715Y-64818386D01*
X118014781Y-65000776D01*
X117951522Y-65195465D01*
X117919500Y-65397648D01*
X117919500Y-65602351D01*
X117951522Y-65804534D01*
X118014781Y-65999223D01*
X118047368Y-66063177D01*
X118101453Y-66169325D01*
X118107715Y-66181613D01*
X118228028Y-66347213D01*
X118372786Y-66491971D01*
X118527749Y-66604556D01*
X118538390Y-66612287D01*
X118629840Y-66658883D01*
X118631080Y-66659515D01*
X118681876Y-66707490D01*
X118698671Y-66775311D01*
X118676134Y-66841446D01*
X118631080Y-66880485D01*
X118538386Y-66927715D01*
X118372786Y-67048028D01*
X118228028Y-67192786D01*
X118107715Y-67358386D01*
X118014781Y-67540776D01*
X117951522Y-67735465D01*
X117919500Y-67937648D01*
X117919500Y-68142351D01*
X117951522Y-68344534D01*
X118014781Y-68539223D01*
X118107715Y-68721613D01*
X118228028Y-68887213D01*
X118372786Y-69031971D01*
X118527749Y-69144556D01*
X118538390Y-69152287D01*
X118629840Y-69198883D01*
X118631080Y-69199515D01*
X118681876Y-69247490D01*
X118698671Y-69315311D01*
X118676134Y-69381446D01*
X118631080Y-69420485D01*
X118538386Y-69467715D01*
X118372786Y-69588028D01*
X118228028Y-69732786D01*
X118107715Y-69898386D01*
X118014781Y-70080776D01*
X117951522Y-70275465D01*
X117919500Y-70477648D01*
X117919500Y-70682351D01*
X117951522Y-70884534D01*
X118014781Y-71079223D01*
X118107715Y-71261613D01*
X118228028Y-71427213D01*
X118372786Y-71571971D01*
X118527749Y-71684556D01*
X118538390Y-71692287D01*
X118629840Y-71738883D01*
X118631080Y-71739515D01*
X118681876Y-71787490D01*
X118698671Y-71855311D01*
X118676134Y-71921446D01*
X118631080Y-71960485D01*
X118538386Y-72007715D01*
X118372786Y-72128028D01*
X118228028Y-72272786D01*
X118107715Y-72438386D01*
X118014781Y-72620776D01*
X117951522Y-72815465D01*
X117919500Y-73017648D01*
X117919500Y-73222351D01*
X117951522Y-73424534D01*
X118014781Y-73619223D01*
X118078691Y-73744653D01*
X118098845Y-73784206D01*
X118107715Y-73801613D01*
X118228028Y-73967213D01*
X118372786Y-74111971D01*
X118538388Y-74232286D01*
X118538390Y-74232287D01*
X118624294Y-74276057D01*
X118675090Y-74324031D01*
X118691886Y-74391852D01*
X118669349Y-74457987D01*
X118626455Y-74495899D01*
X118560497Y-74531155D01*
X118491086Y-74577534D01*
X118491085Y-74577534D01*
X119090589Y-75177037D01*
X119027007Y-75194075D01*
X118912993Y-75259901D01*
X118819901Y-75352993D01*
X118754075Y-75467007D01*
X118737037Y-75530588D01*
X118137534Y-74931085D01*
X118137534Y-74931086D01*
X118091158Y-75000493D01*
X118044490Y-75087801D01*
X117984185Y-75233387D01*
X117955444Y-75328135D01*
X117924701Y-75482697D01*
X117924701Y-75482700D01*
X117915000Y-75581210D01*
X117915000Y-75738789D01*
X117924701Y-75837299D01*
X117924701Y-75837302D01*
X117955444Y-75991864D01*
X117984185Y-76086612D01*
X118044490Y-76232198D01*
X118091155Y-76319501D01*
X118091161Y-76319511D01*
X118137534Y-76388912D01*
X118737037Y-75789410D01*
X118754075Y-75852993D01*
X118819901Y-75967007D01*
X118912993Y-76060099D01*
X119027007Y-76125925D01*
X119090589Y-76142962D01*
X118491085Y-76742465D01*
X118560488Y-76788838D01*
X118560498Y-76788844D01*
X118626454Y-76824099D01*
X118676298Y-76873062D01*
X118691758Y-76941200D01*
X118667926Y-77006879D01*
X118624295Y-77043942D01*
X118538386Y-77087715D01*
X118372786Y-77208028D01*
X118228028Y-77352786D01*
X118107715Y-77518386D01*
X118014781Y-77700776D01*
X117951522Y-77895465D01*
X117919500Y-78097648D01*
X117919500Y-78302351D01*
X117951522Y-78504534D01*
X118014781Y-78699223D01*
X118107715Y-78881613D01*
X118228028Y-79047213D01*
X118372786Y-79191971D01*
X118527749Y-79304556D01*
X118538390Y-79312287D01*
X118629840Y-79358883D01*
X118631080Y-79359515D01*
X118681876Y-79407490D01*
X118698671Y-79475311D01*
X118676134Y-79541446D01*
X118631080Y-79580485D01*
X118538386Y-79627715D01*
X118372786Y-79748028D01*
X118228028Y-79892786D01*
X118107715Y-80058386D01*
X118014781Y-80240776D01*
X117951522Y-80435465D01*
X117919500Y-80637648D01*
X117919500Y-80842351D01*
X117951522Y-81044534D01*
X118014781Y-81239223D01*
X118107715Y-81421613D01*
X118228028Y-81587213D01*
X118372786Y-81731971D01*
X118527749Y-81844556D01*
X118538390Y-81852287D01*
X118629840Y-81898883D01*
X118631080Y-81899515D01*
X118681876Y-81947490D01*
X118698671Y-82015311D01*
X118676134Y-82081446D01*
X118631080Y-82120485D01*
X118538386Y-82167715D01*
X118372786Y-82288028D01*
X118228028Y-82432786D01*
X118107715Y-82598386D01*
X118014781Y-82780776D01*
X117951522Y-82975465D01*
X117919500Y-83177648D01*
X117919500Y-83382351D01*
X117951522Y-83584534D01*
X118014781Y-83779223D01*
X118107715Y-83961613D01*
X118228028Y-84127213D01*
X118372786Y-84271971D01*
X118527749Y-84384556D01*
X118538390Y-84392287D01*
X118616131Y-84431898D01*
X118631080Y-84439515D01*
X118681876Y-84487490D01*
X118698671Y-84555311D01*
X118676134Y-84621446D01*
X118631080Y-84660485D01*
X118538386Y-84707715D01*
X118372786Y-84828028D01*
X118228028Y-84972786D01*
X118107715Y-85138386D01*
X118014781Y-85320776D01*
X117951522Y-85515465D01*
X117919500Y-85717648D01*
X117919500Y-85922351D01*
X117951522Y-86124534D01*
X118014781Y-86319223D01*
X118107715Y-86501613D01*
X118228028Y-86667213D01*
X118372786Y-86811971D01*
X118538388Y-86932286D01*
X118538390Y-86932287D01*
X118624294Y-86976057D01*
X118675090Y-87024031D01*
X118691886Y-87091852D01*
X118669349Y-87157987D01*
X118626455Y-87195899D01*
X118560497Y-87231155D01*
X118491086Y-87277534D01*
X118491085Y-87277534D01*
X119090589Y-87877037D01*
X119027007Y-87894075D01*
X118912993Y-87959901D01*
X118819901Y-88052993D01*
X118754075Y-88167007D01*
X118737037Y-88230588D01*
X118137534Y-87631085D01*
X118137534Y-87631086D01*
X118091158Y-87700493D01*
X118044490Y-87787801D01*
X117984185Y-87933387D01*
X117955444Y-88028135D01*
X117924701Y-88182697D01*
X117924701Y-88182700D01*
X117915000Y-88281210D01*
X117915000Y-88438789D01*
X117924701Y-88537299D01*
X117924701Y-88537302D01*
X117955444Y-88691864D01*
X117984185Y-88786612D01*
X118044490Y-88932198D01*
X118091155Y-89019501D01*
X118091161Y-89019511D01*
X118137534Y-89088912D01*
X118737037Y-88489410D01*
X118754075Y-88552993D01*
X118819901Y-88667007D01*
X118912993Y-88760099D01*
X119027007Y-88825925D01*
X119090589Y-88842962D01*
X118491085Y-89442465D01*
X118560488Y-89488838D01*
X118560498Y-89488844D01*
X118626454Y-89524099D01*
X118676298Y-89573062D01*
X118691758Y-89641200D01*
X118667926Y-89706879D01*
X118624295Y-89743942D01*
X118538386Y-89787715D01*
X118372786Y-89908028D01*
X118228028Y-90052786D01*
X118107715Y-90218386D01*
X118014781Y-90400776D01*
X117951522Y-90595465D01*
X117919500Y-90797648D01*
X117919500Y-91002351D01*
X117951522Y-91204534D01*
X118014781Y-91399223D01*
X118107715Y-91581613D01*
X118228028Y-91747213D01*
X118372786Y-91891971D01*
X118527749Y-92004556D01*
X118538390Y-92012287D01*
X118629840Y-92058883D01*
X118631080Y-92059515D01*
X118681876Y-92107490D01*
X118698671Y-92175311D01*
X118676134Y-92241446D01*
X118631080Y-92280485D01*
X118538386Y-92327715D01*
X118372786Y-92448028D01*
X118228028Y-92592786D01*
X118107715Y-92758386D01*
X118014781Y-92940776D01*
X117951522Y-93135465D01*
X117919500Y-93337648D01*
X117919500Y-93542351D01*
X117951522Y-93744534D01*
X118014781Y-93939223D01*
X118107715Y-94121613D01*
X118228028Y-94287213D01*
X118372786Y-94431971D01*
X118527749Y-94544556D01*
X118538390Y-94552287D01*
X118629840Y-94598883D01*
X118631080Y-94599515D01*
X118681876Y-94647490D01*
X118698671Y-94715311D01*
X118676134Y-94781446D01*
X118631080Y-94820485D01*
X118538386Y-94867715D01*
X118372786Y-94988028D01*
X118228028Y-95132786D01*
X118107715Y-95298386D01*
X118014781Y-95480776D01*
X117951522Y-95675465D01*
X117919500Y-95877648D01*
X117919500Y-96082351D01*
X117951522Y-96284534D01*
X118014781Y-96479223D01*
X118066036Y-96579815D01*
X118104957Y-96656202D01*
X118107715Y-96661613D01*
X118228028Y-96827213D01*
X118372786Y-96971971D01*
X118527749Y-97084556D01*
X118538390Y-97092287D01*
X118629840Y-97138883D01*
X118631080Y-97139515D01*
X118681876Y-97187490D01*
X118698671Y-97255311D01*
X118676134Y-97321446D01*
X118631080Y-97360485D01*
X118538386Y-97407715D01*
X118372786Y-97528028D01*
X118228028Y-97672786D01*
X118107715Y-97838386D01*
X118014781Y-98020776D01*
X117951522Y-98215465D01*
X117919500Y-98417648D01*
X117919500Y-98622351D01*
X117951522Y-98824534D01*
X118014781Y-99019223D01*
X118077507Y-99142328D01*
X118091261Y-99169322D01*
X118107715Y-99201613D01*
X118228028Y-99367213D01*
X118372786Y-99511971D01*
X118538388Y-99632286D01*
X118538390Y-99632287D01*
X118624294Y-99676057D01*
X118675090Y-99724031D01*
X118691886Y-99791852D01*
X118669349Y-99857987D01*
X118626455Y-99895899D01*
X118560497Y-99931155D01*
X118491086Y-99977534D01*
X118491085Y-99977534D01*
X119090589Y-100577037D01*
X119027007Y-100594075D01*
X118912993Y-100659901D01*
X118819901Y-100752993D01*
X118754075Y-100867007D01*
X118737037Y-100930588D01*
X118137534Y-100331085D01*
X118137534Y-100331086D01*
X118091158Y-100400493D01*
X118044490Y-100487801D01*
X117984185Y-100633387D01*
X117955444Y-100728135D01*
X117924701Y-100882697D01*
X117924701Y-100882700D01*
X117915000Y-100981210D01*
X117915000Y-101138789D01*
X117924701Y-101237299D01*
X117924701Y-101237302D01*
X117955444Y-101391864D01*
X117984185Y-101486612D01*
X118044490Y-101632198D01*
X118091155Y-101719501D01*
X118091161Y-101719511D01*
X118137534Y-101788912D01*
X118737037Y-101189410D01*
X118754075Y-101252993D01*
X118819901Y-101367007D01*
X118912993Y-101460099D01*
X119027007Y-101525925D01*
X119090589Y-101542962D01*
X118491085Y-102142465D01*
X118560488Y-102188838D01*
X118560498Y-102188844D01*
X118626454Y-102224099D01*
X118676298Y-102273062D01*
X118691758Y-102341200D01*
X118667926Y-102406879D01*
X118624295Y-102443942D01*
X118538386Y-102487715D01*
X118372786Y-102608028D01*
X118228028Y-102752786D01*
X118107715Y-102918386D01*
X118014781Y-103100776D01*
X117951522Y-103295465D01*
X117919500Y-103497648D01*
X117919500Y-103702351D01*
X117951522Y-103904534D01*
X118014781Y-104099223D01*
X118107715Y-104281613D01*
X118228028Y-104447213D01*
X118372786Y-104591971D01*
X118453559Y-104650655D01*
X118496225Y-104705984D01*
X118502204Y-104775598D01*
X118469599Y-104837393D01*
X118417565Y-104869358D01*
X118330396Y-104896521D01*
X118184811Y-104984530D01*
X118064530Y-105104811D01*
X117976522Y-105250393D01*
X117925913Y-105412807D01*
X117919500Y-105483386D01*
X117919500Y-106796613D01*
X117925913Y-106867192D01*
X117976522Y-107029606D01*
X118064530Y-107175188D01*
X118184811Y-107295469D01*
X118184813Y-107295470D01*
X118184815Y-107295472D01*
X118330394Y-107383478D01*
X118492804Y-107434086D01*
X118563384Y-107440500D01*
X118563387Y-107440500D01*
X119876613Y-107440500D01*
X119876616Y-107440500D01*
X119947196Y-107434086D01*
X120109606Y-107383478D01*
X120255185Y-107295472D01*
X120375472Y-107175185D01*
X120463478Y-107029606D01*
X120514086Y-106867196D01*
X120520500Y-106796616D01*
X120520500Y-105903713D01*
X124034500Y-105903713D01*
X124034500Y-106116286D01*
X124067753Y-106326239D01*
X124133444Y-106528414D01*
X124229951Y-106717820D01*
X124354890Y-106889786D01*
X124505213Y-107040109D01*
X124677179Y-107165048D01*
X124677181Y-107165049D01*
X124677184Y-107165051D01*
X124866588Y-107261557D01*
X125068757Y-107327246D01*
X125278713Y-107360500D01*
X125278714Y-107360500D01*
X125491286Y-107360500D01*
X125491287Y-107360500D01*
X125701243Y-107327246D01*
X125903412Y-107261557D01*
X126092816Y-107165051D01*
X126114789Y-107149086D01*
X126264786Y-107040109D01*
X126264788Y-107040106D01*
X126264792Y-107040104D01*
X126415104Y-106889792D01*
X126415106Y-106889788D01*
X126415109Y-106889786D01*
X126540048Y-106717820D01*
X126540047Y-106717820D01*
X126540051Y-106717816D01*
X126636557Y-106528412D01*
X126702246Y-106326243D01*
X126735500Y-106116287D01*
X126735500Y-105903713D01*
X129484500Y-105903713D01*
X129484500Y-106116286D01*
X129517753Y-106326239D01*
X129583444Y-106528414D01*
X129679951Y-106717820D01*
X129804890Y-106889786D01*
X129955213Y-107040109D01*
X130127179Y-107165048D01*
X130127181Y-107165049D01*
X130127184Y-107165051D01*
X130316588Y-107261557D01*
X130518757Y-107327246D01*
X130728713Y-107360500D01*
X130728714Y-107360500D01*
X130941286Y-107360500D01*
X130941287Y-107360500D01*
X131151243Y-107327246D01*
X131353412Y-107261557D01*
X131542816Y-107165051D01*
X131564789Y-107149086D01*
X131714786Y-107040109D01*
X131714788Y-107040106D01*
X131714792Y-107040104D01*
X131865104Y-106889792D01*
X131865106Y-106889788D01*
X131865109Y-106889786D01*
X131990048Y-106717820D01*
X131990047Y-106717820D01*
X131990051Y-106717816D01*
X132086557Y-106528412D01*
X132152246Y-106326243D01*
X132185500Y-106116287D01*
X132185500Y-106021902D01*
X135499500Y-106021902D01*
X135499500Y-106258097D01*
X135536446Y-106491368D01*
X135609433Y-106715996D01*
X135686472Y-106867192D01*
X135716657Y-106926433D01*
X135855483Y-107117510D01*
X136022490Y-107284517D01*
X136213567Y-107423343D01*
X136247240Y-107440500D01*
X136424003Y-107530566D01*
X136424005Y-107530566D01*
X136424008Y-107530568D01*
X136544412Y-107569689D01*
X136648631Y-107603553D01*
X136881903Y-107640500D01*
X136881908Y-107640500D01*
X209228097Y-107640500D01*
X209461368Y-107603553D01*
X209685992Y-107530568D01*
X209896434Y-107423343D01*
X210087510Y-107284517D01*
X213394518Y-103977510D01*
X213533343Y-103786433D01*
X213640568Y-103575992D01*
X213713553Y-103351368D01*
X213728774Y-103255265D01*
X213750500Y-103118096D01*
X213750500Y-59381902D01*
X213713553Y-59148631D01*
X213640566Y-58924003D01*
X213558314Y-58762576D01*
X213533343Y-58713567D01*
X213533339Y-58713561D01*
X213524180Y-58700954D01*
X213500702Y-58635147D01*
X213500500Y-58628072D01*
X213500500Y-54901577D01*
X213469709Y-54707173D01*
X213408882Y-54519970D01*
X213350985Y-54406342D01*
X213319524Y-54344595D01*
X213203828Y-54185354D01*
X213064646Y-54046172D01*
X212905405Y-53930476D01*
X212730025Y-53841116D01*
X212542826Y-53780291D01*
X212542824Y-53780290D01*
X212466632Y-53768222D01*
X212403497Y-53738292D01*
X212398350Y-53733430D01*
X210887784Y-52222863D01*
X210887780Y-52222860D01*
X210723920Y-52113372D01*
X210723910Y-52113367D01*
X210541836Y-52037949D01*
X210541828Y-52037947D01*
X210348543Y-51999500D01*
X210348540Y-51999500D01*
X210151460Y-51999500D01*
X210151457Y-51999500D01*
X209958171Y-52037947D01*
X209958163Y-52037949D01*
X209870263Y-52074359D01*
X209857092Y-52079815D01*
X209832356Y-52090061D01*
X209784903Y-52099500D01*
X203721452Y-52099500D01*
X203654413Y-52079815D01*
X203608658Y-52027011D01*
X203598714Y-51957853D01*
X203599835Y-51951309D01*
X203609360Y-51903419D01*
X203609361Y-51903417D01*
X203609361Y-51750000D01*
X202859361Y-51750000D01*
X202859361Y-51250000D01*
X203609361Y-51250000D01*
X203609361Y-51096583D01*
X203609360Y-51096579D01*
X203569012Y-50893733D01*
X203569010Y-50893725D01*
X203489860Y-50702641D01*
X203489855Y-50702631D01*
X203374950Y-50530664D01*
X203374947Y-50530660D01*
X203228700Y-50384413D01*
X203228696Y-50384410D01*
X203056729Y-50269505D01*
X203056719Y-50269500D01*
X202865633Y-50190349D01*
X202865628Y-50190347D01*
X202809361Y-50179155D01*
X202809361Y-51033011D01*
X202799421Y-51015795D01*
X202743566Y-50959940D01*
X202675157Y-50920444D01*
X202598857Y-50900000D01*
X202519865Y-50900000D01*
X202443565Y-50920444D01*
X202375156Y-50959940D01*
X202319301Y-51015795D01*
X202309361Y-51033011D01*
X202309361Y-50179156D01*
X202309360Y-50179155D01*
X202253093Y-50190347D01*
X202253088Y-50190349D01*
X202062002Y-50269500D01*
X202061992Y-50269505D01*
X201890025Y-50384410D01*
X201890021Y-50384413D01*
X201743774Y-50530660D01*
X201743770Y-50530665D01*
X201730352Y-50550746D01*
X201676738Y-50595550D01*
X201607413Y-50604255D01*
X201563102Y-50587969D01*
X201478756Y-50536980D01*
X201478757Y-50536980D01*
X201316466Y-50486409D01*
X201316467Y-50486409D01*
X201245933Y-50480000D01*
X201239361Y-50480000D01*
X201239361Y-51330000D01*
X201379361Y-51330000D01*
X201397651Y-51311709D01*
X201399046Y-51306961D01*
X201451850Y-51261206D01*
X201503361Y-51250000D01*
X202259361Y-51250000D01*
X202259361Y-51750000D01*
X202019361Y-51750000D01*
X202001070Y-51768290D01*
X201999676Y-51773039D01*
X201946872Y-51818794D01*
X201895361Y-51830000D01*
X201113361Y-51830000D01*
X201046322Y-51810315D01*
X201000567Y-51757511D01*
X200989361Y-51706000D01*
X200989361Y-51580000D01*
X200863361Y-51580000D01*
X200796322Y-51560315D01*
X200750567Y-51507511D01*
X200739361Y-51456000D01*
X200739361Y-50522826D01*
X200602471Y-50484709D01*
X200596880Y-50481225D01*
X200590320Y-50480638D01*
X200567596Y-50462981D01*
X200543169Y-50447763D01*
X200540348Y-50441810D01*
X200535148Y-50437769D01*
X200532632Y-50434145D01*
X200458826Y-50323688D01*
X200404638Y-50269500D01*
X200333396Y-50198258D01*
X200314293Y-50179155D01*
X199814680Y-49679540D01*
X199814679Y-49679539D01*
X199814675Y-49679536D01*
X199755598Y-49640063D01*
X199667186Y-49580987D01*
X199585245Y-49547046D01*
X199503305Y-49513105D01*
X199503297Y-49513103D01*
X199329335Y-49478500D01*
X199329331Y-49478500D01*
X199329330Y-49478500D01*
X197326775Y-49478500D01*
X197149392Y-49478500D01*
X197149387Y-49478500D01*
X196975422Y-49513103D01*
X196975406Y-49513108D01*
X196859536Y-49561102D01*
X196859537Y-49561103D01*
X196811537Y-49580986D01*
X196664048Y-49679535D01*
X196664044Y-49679538D01*
X196019899Y-50323682D01*
X196019898Y-50323683D01*
X195980425Y-50382761D01*
X195980424Y-50382762D01*
X195946090Y-50434146D01*
X195892478Y-50478951D01*
X195823153Y-50487658D01*
X195818806Y-50486874D01*
X195816470Y-50486409D01*
X195745933Y-50480000D01*
X195739361Y-50480000D01*
X195739361Y-52679999D01*
X195745942Y-52679999D01*
X195816463Y-52673591D01*
X195816468Y-52673590D01*
X195978756Y-52623019D01*
X195978759Y-52623018D01*
X196046120Y-52582296D01*
X196113674Y-52564459D01*
X196174418Y-52582294D01*
X196243890Y-52624291D01*
X196403981Y-52674177D01*
X196473560Y-52680500D01*
X196764862Y-52680499D01*
X196773547Y-52683049D01*
X196782508Y-52681761D01*
X196806544Y-52692738D01*
X196831900Y-52700183D01*
X196837828Y-52707025D01*
X196846064Y-52710786D01*
X196860350Y-52733017D01*
X196877655Y-52752987D01*
X196879942Y-52763502D01*
X196883838Y-52769564D01*
X196888861Y-52804499D01*
X196888861Y-52958848D01*
X196869176Y-53025887D01*
X196852542Y-53046529D01*
X195810889Y-54088181D01*
X195749566Y-54121666D01*
X195723208Y-54124500D01*
X194749998Y-54124500D01*
X194749980Y-54124501D01*
X194647203Y-54135000D01*
X194647200Y-54135001D01*
X194480668Y-54190185D01*
X194480663Y-54190187D01*
X194331342Y-54282289D01*
X194207289Y-54406342D01*
X194115187Y-54555663D01*
X194115186Y-54555666D01*
X194060001Y-54722203D01*
X194060001Y-54722204D01*
X194060000Y-54722204D01*
X194049500Y-54824983D01*
X194049500Y-55725001D01*
X194049501Y-55725019D01*
X194060000Y-55827796D01*
X194060001Y-55827799D01*
X194115185Y-55994331D01*
X194115186Y-55994334D01*
X194207288Y-56143656D01*
X194331344Y-56267712D01*
X194480666Y-56359814D01*
X194647203Y-56414999D01*
X194749991Y-56425500D01*
X197750008Y-56425499D01*
X197852797Y-56414999D01*
X198019334Y-56359814D01*
X198168656Y-56267712D01*
X198168664Y-56267703D01*
X198173085Y-56264209D01*
X198237879Y-56238066D01*
X198306522Y-56251103D01*
X198326915Y-56264209D01*
X198331339Y-56267707D01*
X198331344Y-56267712D01*
X198480666Y-56359814D01*
X198647203Y-56414999D01*
X198749991Y-56425500D01*
X201750008Y-56425499D01*
X201852797Y-56414999D01*
X202019334Y-56359814D01*
X202168656Y-56267712D01*
X202292712Y-56143656D01*
X202384814Y-55994334D01*
X202439999Y-55827797D01*
X202450500Y-55725009D01*
X202450499Y-54824992D01*
X202439999Y-54722203D01*
X202384814Y-54555666D01*
X202292712Y-54406344D01*
X202168656Y-54282288D01*
X202019334Y-54190186D01*
X201874537Y-54142205D01*
X201817094Y-54102433D01*
X201790271Y-54037918D01*
X201802586Y-53969142D01*
X201850129Y-53917942D01*
X201913543Y-53900500D01*
X209684218Y-53900500D01*
X209751257Y-53920185D01*
X209771899Y-53936819D01*
X210963181Y-55128101D01*
X210996666Y-55189424D01*
X210999500Y-55215782D01*
X210999500Y-58628072D01*
X210979815Y-58695111D01*
X210975820Y-58700954D01*
X210966660Y-58713561D01*
X210966656Y-58713568D01*
X210859433Y-58924003D01*
X210786446Y-59148631D01*
X210749500Y-59381902D01*
X210749500Y-76077110D01*
X210729815Y-76144149D01*
X210713181Y-76164791D01*
X204855484Y-82022488D01*
X204716657Y-82213565D01*
X204609433Y-82424003D01*
X204536446Y-82648631D01*
X204499500Y-82881902D01*
X204499500Y-83118097D01*
X204536446Y-83351368D01*
X204609433Y-83575996D01*
X204712981Y-83779219D01*
X204716657Y-83786434D01*
X204855483Y-83977510D01*
X205022490Y-84144517D01*
X205149874Y-84237067D01*
X205213567Y-84283344D01*
X205265323Y-84309714D01*
X205317081Y-84336086D01*
X205424003Y-84390566D01*
X205424005Y-84390566D01*
X205424008Y-84390568D01*
X205487679Y-84411256D01*
X205648631Y-84463553D01*
X205881903Y-84500500D01*
X205881908Y-84500500D01*
X206118097Y-84500500D01*
X206351368Y-84463553D01*
X206575992Y-84390568D01*
X206682919Y-84336086D01*
X206786434Y-84283343D01*
X206977510Y-84144517D01*
X210537819Y-80584208D01*
X210599142Y-80550723D01*
X210668834Y-80555707D01*
X210724767Y-80597579D01*
X210749184Y-80663043D01*
X210749500Y-80671889D01*
X210749500Y-102327110D01*
X210729815Y-102394149D01*
X210713181Y-102414791D01*
X208524792Y-104603181D01*
X208463469Y-104636666D01*
X208437111Y-104639500D01*
X138095630Y-104639500D01*
X138028591Y-104619815D01*
X137982836Y-104567011D01*
X137972892Y-104497853D01*
X137995312Y-104442615D01*
X138060296Y-104353169D01*
X138112287Y-104281610D01*
X138205220Y-104099219D01*
X138268477Y-103904534D01*
X138300500Y-103702352D01*
X138300500Y-103497648D01*
X138268477Y-103295466D01*
X138205220Y-103100781D01*
X138205218Y-103100778D01*
X138205218Y-103100776D01*
X138171503Y-103034607D01*
X138112287Y-102918390D01*
X138089834Y-102887486D01*
X137991971Y-102752786D01*
X137847213Y-102608028D01*
X137681614Y-102487715D01*
X137673410Y-102483535D01*
X137595703Y-102443941D01*
X137544908Y-102395968D01*
X137528113Y-102328147D01*
X137550650Y-102262012D01*
X137593546Y-102224099D01*
X137659503Y-102188843D01*
X137659515Y-102188837D01*
X137728913Y-102142465D01*
X137129410Y-101542962D01*
X137192993Y-101525925D01*
X137307007Y-101460099D01*
X137400099Y-101367007D01*
X137465925Y-101252993D01*
X137482962Y-101189410D01*
X138082464Y-101788913D01*
X138082465Y-101788913D01*
X138128837Y-101719515D01*
X138128838Y-101719511D01*
X138175509Y-101632198D01*
X138235814Y-101486612D01*
X138264555Y-101391864D01*
X138295298Y-101237302D01*
X138295298Y-101237299D01*
X138305000Y-101138789D01*
X138305000Y-100981210D01*
X138295298Y-100882700D01*
X138295298Y-100882697D01*
X138264555Y-100728135D01*
X138235814Y-100633387D01*
X138175509Y-100487801D01*
X138128844Y-100400498D01*
X138128838Y-100400488D01*
X138082465Y-100331085D01*
X137482962Y-100930588D01*
X137465925Y-100867007D01*
X137400099Y-100752993D01*
X137307007Y-100659901D01*
X137192993Y-100594075D01*
X137129410Y-100577037D01*
X137728912Y-99977534D01*
X137659511Y-99931161D01*
X137659500Y-99931155D01*
X137593545Y-99895900D01*
X137543701Y-99846937D01*
X137528241Y-99778799D01*
X137552073Y-99713119D01*
X137595702Y-99676059D01*
X137681610Y-99632287D01*
X137772745Y-99566074D01*
X137847213Y-99511971D01*
X137847215Y-99511968D01*
X137847219Y-99511966D01*
X137991966Y-99367219D01*
X137991968Y-99367215D01*
X137991971Y-99367213D01*
X138053731Y-99282206D01*
X138112287Y-99201610D01*
X138205220Y-99019219D01*
X138268477Y-98824534D01*
X138300500Y-98622352D01*
X138300500Y-98417648D01*
X138268477Y-98215466D01*
X138254904Y-98173694D01*
X138205218Y-98020776D01*
X138164445Y-97940756D01*
X138112287Y-97838390D01*
X138103508Y-97826306D01*
X137991971Y-97672786D01*
X137847213Y-97528028D01*
X137681614Y-97407715D01*
X137675006Y-97404348D01*
X137588917Y-97360483D01*
X137538123Y-97312511D01*
X137521328Y-97244690D01*
X137543865Y-97178555D01*
X137588917Y-97139516D01*
X137681610Y-97092287D01*
X137736885Y-97052128D01*
X137847213Y-96971971D01*
X137847215Y-96971968D01*
X137847219Y-96971966D01*
X137991966Y-96827219D01*
X137991968Y-96827215D01*
X137991971Y-96827213D01*
X138071790Y-96717350D01*
X138112287Y-96661610D01*
X138205220Y-96479219D01*
X138268477Y-96284534D01*
X138300500Y-96082352D01*
X138300500Y-95877648D01*
X138268477Y-95675466D01*
X138205220Y-95480781D01*
X138205218Y-95480778D01*
X138205218Y-95480776D01*
X138171503Y-95414607D01*
X138112287Y-95298390D01*
X138104556Y-95287749D01*
X137991971Y-95132786D01*
X137847213Y-94988028D01*
X137681614Y-94867715D01*
X137675006Y-94864348D01*
X137588917Y-94820483D01*
X137538123Y-94772511D01*
X137521328Y-94704690D01*
X137543865Y-94638555D01*
X137588917Y-94599516D01*
X137681610Y-94552287D01*
X137702770Y-94536913D01*
X137847213Y-94431971D01*
X137847215Y-94431968D01*
X137847219Y-94431966D01*
X137991966Y-94287219D01*
X137991968Y-94287215D01*
X137991971Y-94287213D01*
X138044732Y-94214590D01*
X138112287Y-94121610D01*
X138205220Y-93939219D01*
X138268477Y-93744534D01*
X138300500Y-93542352D01*
X138300500Y-93337648D01*
X138268477Y-93135466D01*
X138205220Y-92940781D01*
X138205218Y-92940778D01*
X138205218Y-92940776D01*
X138171503Y-92874607D01*
X138112287Y-92758390D01*
X138078191Y-92711460D01*
X137991971Y-92592786D01*
X137847213Y-92448028D01*
X137681614Y-92327715D01*
X137675006Y-92324348D01*
X137588917Y-92280483D01*
X137538123Y-92232511D01*
X137521328Y-92164690D01*
X137543865Y-92098555D01*
X137588917Y-92059516D01*
X137681610Y-92012287D01*
X137702770Y-91996913D01*
X137847213Y-91891971D01*
X137847215Y-91891968D01*
X137847219Y-91891966D01*
X137991966Y-91747219D01*
X137991968Y-91747215D01*
X137991971Y-91747213D01*
X138044732Y-91674590D01*
X138112287Y-91581610D01*
X138205220Y-91399219D01*
X138268477Y-91204534D01*
X138300500Y-91002352D01*
X138300500Y-90797648D01*
X138268477Y-90595466D01*
X138205220Y-90400781D01*
X138205218Y-90400778D01*
X138205218Y-90400776D01*
X138171503Y-90334607D01*
X138112287Y-90218390D01*
X138104556Y-90207749D01*
X137991971Y-90052786D01*
X137847213Y-89908028D01*
X137681614Y-89787715D01*
X137673410Y-89783535D01*
X137595703Y-89743941D01*
X137544908Y-89695968D01*
X137528113Y-89628147D01*
X137550650Y-89562012D01*
X137593546Y-89524099D01*
X137659503Y-89488843D01*
X137659515Y-89488837D01*
X137728913Y-89442465D01*
X137129410Y-88842962D01*
X137192993Y-88825925D01*
X137307007Y-88760099D01*
X137400099Y-88667007D01*
X137465925Y-88552993D01*
X137482962Y-88489410D01*
X138082464Y-89088913D01*
X138082465Y-89088913D01*
X138128837Y-89019515D01*
X138128838Y-89019511D01*
X138175509Y-88932198D01*
X138235814Y-88786612D01*
X138264555Y-88691864D01*
X138295298Y-88537302D01*
X138295298Y-88537299D01*
X138305000Y-88438789D01*
X138305000Y-88281210D01*
X138295298Y-88182700D01*
X138295298Y-88182697D01*
X138264555Y-88028135D01*
X138235814Y-87933387D01*
X138175509Y-87787801D01*
X138128844Y-87700498D01*
X138128838Y-87700488D01*
X138082465Y-87631085D01*
X137482962Y-88230588D01*
X137465925Y-88167007D01*
X137400099Y-88052993D01*
X137307007Y-87959901D01*
X137192993Y-87894075D01*
X137129410Y-87877037D01*
X137728912Y-87277534D01*
X137659511Y-87231161D01*
X137659500Y-87231155D01*
X137593545Y-87195900D01*
X137585427Y-87187925D01*
X137574883Y-87183646D01*
X137560950Y-87163882D01*
X137543701Y-87146937D01*
X137541183Y-87135839D01*
X137534627Y-87126539D01*
X137533591Y-87102380D01*
X137528241Y-87078799D01*
X137532122Y-87068102D01*
X137531635Y-87056733D01*
X137543824Y-87035850D01*
X137552073Y-87013119D01*
X137562031Y-87004659D01*
X137566858Y-86996392D01*
X137595700Y-86976060D01*
X137681610Y-86932287D01*
X137784321Y-86857664D01*
X137847213Y-86811971D01*
X137847215Y-86811968D01*
X137847219Y-86811966D01*
X137991966Y-86667219D01*
X137991968Y-86667215D01*
X137991971Y-86667213D01*
X138067553Y-86563181D01*
X138112287Y-86501610D01*
X138205220Y-86319219D01*
X138268477Y-86124534D01*
X138300500Y-85922352D01*
X138300500Y-85717648D01*
X138268477Y-85515466D01*
X138205220Y-85320781D01*
X138205218Y-85320778D01*
X138205218Y-85320776D01*
X138171503Y-85254607D01*
X138112287Y-85138390D01*
X138104556Y-85127749D01*
X137991971Y-84972786D01*
X137847213Y-84828028D01*
X137681614Y-84707715D01*
X137675006Y-84704348D01*
X137588917Y-84660483D01*
X137538123Y-84612511D01*
X137521328Y-84544690D01*
X137543865Y-84478555D01*
X137588917Y-84439516D01*
X137681610Y-84392287D01*
X137747773Y-84344217D01*
X137847213Y-84271971D01*
X137847215Y-84271968D01*
X137847219Y-84271966D01*
X137991966Y-84127219D01*
X137991968Y-84127215D01*
X137991971Y-84127213D01*
X138100734Y-83977511D01*
X138112287Y-83961610D01*
X138205220Y-83779219D01*
X138268477Y-83584534D01*
X138300500Y-83382352D01*
X138300500Y-83177648D01*
X138268477Y-82975466D01*
X138205220Y-82780781D01*
X138205218Y-82780778D01*
X138205218Y-82780776D01*
X138171503Y-82714607D01*
X138112287Y-82598390D01*
X138104556Y-82587749D01*
X137991971Y-82432786D01*
X137847213Y-82288028D01*
X137681614Y-82167715D01*
X137675006Y-82164348D01*
X137588917Y-82120483D01*
X137538123Y-82072511D01*
X137521328Y-82004690D01*
X137543865Y-81938555D01*
X137588917Y-81899516D01*
X137681610Y-81852287D01*
X137702770Y-81836913D01*
X137847213Y-81731971D01*
X137847215Y-81731968D01*
X137847219Y-81731966D01*
X137991966Y-81587219D01*
X137991968Y-81587215D01*
X137991971Y-81587213D01*
X138044732Y-81514590D01*
X138112287Y-81421610D01*
X138205220Y-81239219D01*
X138268477Y-81044534D01*
X138300500Y-80842352D01*
X138300500Y-80637648D01*
X138268477Y-80435466D01*
X138205220Y-80240781D01*
X138205218Y-80240778D01*
X138205218Y-80240776D01*
X138171503Y-80174607D01*
X138112287Y-80058390D01*
X138104556Y-80047749D01*
X137991971Y-79892786D01*
X137847213Y-79748028D01*
X137681614Y-79627715D01*
X137675006Y-79624348D01*
X137588917Y-79580483D01*
X137538123Y-79532511D01*
X137521328Y-79464690D01*
X137543865Y-79398555D01*
X137588917Y-79359516D01*
X137681610Y-79312287D01*
X137702770Y-79296913D01*
X137847213Y-79191971D01*
X137847215Y-79191968D01*
X137847219Y-79191966D01*
X137991966Y-79047219D01*
X137991968Y-79047215D01*
X137991971Y-79047213D01*
X138044732Y-78974590D01*
X138112287Y-78881610D01*
X138205220Y-78699219D01*
X138268477Y-78504534D01*
X138300500Y-78302352D01*
X138300500Y-78097648D01*
X138268477Y-77895466D01*
X138205220Y-77700781D01*
X138205218Y-77700778D01*
X138205218Y-77700776D01*
X138171503Y-77634607D01*
X138112287Y-77518390D01*
X138059112Y-77445200D01*
X137991971Y-77352786D01*
X137847213Y-77208028D01*
X137681614Y-77087715D01*
X137633455Y-77063177D01*
X137595703Y-77043941D01*
X137544908Y-76995968D01*
X137528113Y-76928147D01*
X137550650Y-76862012D01*
X137593546Y-76824099D01*
X137659503Y-76788843D01*
X137659515Y-76788837D01*
X137728913Y-76742465D01*
X137129410Y-76142962D01*
X137192993Y-76125925D01*
X137307007Y-76060099D01*
X137400099Y-75967007D01*
X137465925Y-75852993D01*
X137482962Y-75789410D01*
X138082464Y-76388913D01*
X138082465Y-76388913D01*
X138128837Y-76319515D01*
X138128838Y-76319511D01*
X138175509Y-76232198D01*
X138235814Y-76086612D01*
X138264555Y-75991864D01*
X138295298Y-75837302D01*
X138295298Y-75837299D01*
X138305000Y-75738789D01*
X138305000Y-75581210D01*
X138295298Y-75482700D01*
X138295298Y-75482697D01*
X138264555Y-75328135D01*
X138235814Y-75233387D01*
X138175509Y-75087801D01*
X138128844Y-75000498D01*
X138128838Y-75000488D01*
X138082465Y-74931085D01*
X137482962Y-75530588D01*
X137465925Y-75467007D01*
X137400099Y-75352993D01*
X137307007Y-75259901D01*
X137192993Y-75194075D01*
X137129410Y-75177037D01*
X137728912Y-74577534D01*
X137659511Y-74531161D01*
X137659500Y-74531155D01*
X137593545Y-74495900D01*
X137543701Y-74446937D01*
X137528241Y-74378799D01*
X137552073Y-74313119D01*
X137595702Y-74276059D01*
X137681610Y-74232287D01*
X137772745Y-74166074D01*
X137847213Y-74111971D01*
X137847215Y-74111968D01*
X137847219Y-74111966D01*
X137991966Y-73967219D01*
X137991968Y-73967215D01*
X137991971Y-73967213D01*
X138044732Y-73894590D01*
X138112287Y-73801610D01*
X138205220Y-73619219D01*
X138268477Y-73424534D01*
X138300500Y-73222352D01*
X138300500Y-73017648D01*
X138268477Y-72815466D01*
X138205220Y-72620781D01*
X138205218Y-72620778D01*
X138205218Y-72620776D01*
X138161113Y-72534217D01*
X138112287Y-72438390D01*
X138104556Y-72427749D01*
X137991971Y-72272786D01*
X137847213Y-72128028D01*
X137681614Y-72007715D01*
X137675006Y-72004348D01*
X137588917Y-71960483D01*
X137538123Y-71912511D01*
X137521328Y-71844690D01*
X137543865Y-71778555D01*
X137588917Y-71739516D01*
X137681610Y-71692287D01*
X137702770Y-71676913D01*
X137847213Y-71571971D01*
X137847215Y-71571968D01*
X137847219Y-71571966D01*
X137991966Y-71427219D01*
X137991968Y-71427215D01*
X137991971Y-71427213D01*
X138044732Y-71354590D01*
X138112287Y-71261610D01*
X138205220Y-71079219D01*
X138268477Y-70884534D01*
X138300500Y-70682352D01*
X138300500Y-70477648D01*
X138268477Y-70275466D01*
X138205220Y-70080781D01*
X138205218Y-70080778D01*
X138205218Y-70080776D01*
X138171503Y-70014607D01*
X138112287Y-69898390D01*
X138104556Y-69887749D01*
X137991971Y-69732786D01*
X137847213Y-69588028D01*
X137681614Y-69467715D01*
X137675006Y-69464348D01*
X137588917Y-69420483D01*
X137538123Y-69372511D01*
X137521328Y-69304690D01*
X137543865Y-69238555D01*
X137588917Y-69199516D01*
X137681610Y-69152287D01*
X137702770Y-69136913D01*
X137847213Y-69031971D01*
X137847215Y-69031968D01*
X137847219Y-69031966D01*
X137991966Y-68887219D01*
X137991968Y-68887215D01*
X137991971Y-68887213D01*
X138044732Y-68814590D01*
X138112287Y-68721610D01*
X138205220Y-68539219D01*
X138268477Y-68344534D01*
X138300500Y-68142352D01*
X138300500Y-67937648D01*
X138268477Y-67735466D01*
X138205220Y-67540781D01*
X138205218Y-67540778D01*
X138205218Y-67540776D01*
X138171503Y-67474607D01*
X138112287Y-67358390D01*
X138104556Y-67347749D01*
X137991971Y-67192786D01*
X137847213Y-67048028D01*
X137681614Y-66927715D01*
X137675006Y-66924348D01*
X137588917Y-66880483D01*
X137538123Y-66832511D01*
X137521328Y-66764690D01*
X137543865Y-66698555D01*
X137588917Y-66659516D01*
X137681610Y-66612287D01*
X137702770Y-66596913D01*
X137847213Y-66491971D01*
X137847215Y-66491968D01*
X137847219Y-66491966D01*
X137991966Y-66347219D01*
X137991968Y-66347215D01*
X137991971Y-66347213D01*
X138075806Y-66231822D01*
X138112287Y-66181610D01*
X138205220Y-65999219D01*
X138268477Y-65804534D01*
X138300500Y-65602352D01*
X138300500Y-65466990D01*
X150424499Y-65466990D01*
X150457117Y-65630962D01*
X150459500Y-65655154D01*
X150459500Y-73098541D01*
X150459500Y-73098543D01*
X150459499Y-73098543D01*
X150497947Y-73291829D01*
X150497950Y-73291839D01*
X150573364Y-73473907D01*
X150573371Y-73473920D01*
X150682859Y-73637780D01*
X150682860Y-73637781D01*
X150682861Y-73637782D01*
X150822218Y-73777139D01*
X150822219Y-73777139D01*
X150829286Y-73784206D01*
X150829285Y-73784206D01*
X150829289Y-73784209D01*
X153388181Y-76343102D01*
X153421666Y-76404425D01*
X153424500Y-76430783D01*
X153424500Y-76947870D01*
X153424501Y-76947876D01*
X153430908Y-77007483D01*
X153481202Y-77142328D01*
X153481206Y-77142335D01*
X153567452Y-77257544D01*
X153567455Y-77257547D01*
X153682664Y-77343793D01*
X153682671Y-77343797D01*
X153817517Y-77394091D01*
X153817516Y-77394091D01*
X153824444Y-77394835D01*
X153877127Y-77400500D01*
X155042872Y-77400499D01*
X155102483Y-77394091D01*
X155237331Y-77343796D01*
X155237335Y-77343792D01*
X155245118Y-77339544D01*
X155246190Y-77341507D01*
X155300082Y-77321401D01*
X155356394Y-77330523D01*
X155428101Y-77360225D01*
X155428109Y-77360227D01*
X155479999Y-77370549D01*
X155480000Y-77370549D01*
X155480000Y-77054230D01*
X155487819Y-77010895D01*
X155489089Y-77007488D01*
X155489091Y-77007483D01*
X155495500Y-76947873D01*
X155495499Y-76384226D01*
X155556306Y-76419333D01*
X155670756Y-76450000D01*
X155789244Y-76450000D01*
X155903694Y-76419333D01*
X155964500Y-76384226D01*
X155964500Y-76466989D01*
X155977617Y-76532929D01*
X155980000Y-76557122D01*
X155980000Y-77370549D01*
X156031890Y-77360227D01*
X156031898Y-77360225D01*
X156220252Y-77282206D01*
X156220256Y-77282204D01*
X156295658Y-77231822D01*
X156362336Y-77210944D01*
X156429716Y-77229428D01*
X156433401Y-77231796D01*
X156509507Y-77282648D01*
X156509509Y-77282649D01*
X156509513Y-77282651D01*
X156697951Y-77360704D01*
X156697956Y-77360706D01*
X156697960Y-77360706D01*
X156697961Y-77360707D01*
X156898009Y-77400500D01*
X156898012Y-77400500D01*
X157101990Y-77400500D01*
X157252560Y-77370549D01*
X157302044Y-77360706D01*
X157490493Y-77282648D01*
X157566109Y-77232123D01*
X157632786Y-77211245D01*
X157700166Y-77229729D01*
X157703891Y-77232123D01*
X157779501Y-77282644D01*
X157779507Y-77282648D01*
X157779509Y-77282649D01*
X157779513Y-77282651D01*
X157967951Y-77360704D01*
X157967956Y-77360706D01*
X157967960Y-77360706D01*
X157967961Y-77360707D01*
X158168009Y-77400500D01*
X158168012Y-77400500D01*
X158371990Y-77400500D01*
X158522560Y-77370549D01*
X158572044Y-77360706D01*
X158760493Y-77282648D01*
X158761158Y-77282204D01*
X158836109Y-77232123D01*
X158930093Y-77169325D01*
X159074325Y-77025093D01*
X159187648Y-76855493D01*
X159265706Y-76667044D01*
X159287571Y-76557122D01*
X159305500Y-76466990D01*
X159305500Y-75533009D01*
X159265707Y-75332961D01*
X159265706Y-75332960D01*
X159265706Y-75332956D01*
X159235446Y-75259901D01*
X159187651Y-75144513D01*
X159187644Y-75144500D01*
X159074325Y-74974907D01*
X159074322Y-74974903D01*
X158930096Y-74830677D01*
X158930092Y-74830674D01*
X158760499Y-74717355D01*
X158760486Y-74717348D01*
X158572048Y-74639295D01*
X158572038Y-74639292D01*
X158371990Y-74599500D01*
X158371988Y-74599500D01*
X158168012Y-74599500D01*
X158168010Y-74599500D01*
X157967961Y-74639292D01*
X157967951Y-74639295D01*
X157779509Y-74717350D01*
X157703891Y-74767877D01*
X157637213Y-74788755D01*
X157569833Y-74770270D01*
X157566109Y-74767877D01*
X157491154Y-74717794D01*
X157490493Y-74717352D01*
X157490492Y-74717351D01*
X157490490Y-74717350D01*
X157302048Y-74639295D01*
X157302038Y-74639292D01*
X157101990Y-74599500D01*
X157101988Y-74599500D01*
X156898012Y-74599500D01*
X156898010Y-74599500D01*
X156697961Y-74639292D01*
X156697951Y-74639295D01*
X156509511Y-74717349D01*
X156433438Y-74768178D01*
X156366760Y-74789054D01*
X156299380Y-74770568D01*
X156295659Y-74768177D01*
X156220254Y-74717794D01*
X156031896Y-74639773D01*
X156031893Y-74639772D01*
X155980000Y-74629449D01*
X155980000Y-75442876D01*
X155977617Y-75467068D01*
X155964500Y-75533010D01*
X155964500Y-75615773D01*
X155903694Y-75580667D01*
X155789244Y-75550000D01*
X155670756Y-75550000D01*
X155556306Y-75580667D01*
X155495499Y-75615773D01*
X155495499Y-75052128D01*
X155489091Y-74992517D01*
X155487818Y-74989103D01*
X155480000Y-74945771D01*
X155480000Y-74629450D01*
X155479999Y-74629449D01*
X155428106Y-74639772D01*
X155428099Y-74639774D01*
X155356393Y-74669476D01*
X155286924Y-74676945D01*
X155245867Y-74659074D01*
X155245114Y-74660454D01*
X155237328Y-74656202D01*
X155102482Y-74605908D01*
X155102483Y-74605908D01*
X155042883Y-74599501D01*
X155042881Y-74599500D01*
X155042873Y-74599500D01*
X155042865Y-74599500D01*
X154525783Y-74599500D01*
X154458744Y-74579815D01*
X154438102Y-74563181D01*
X152496819Y-72621898D01*
X152463334Y-72560575D01*
X152460500Y-72534217D01*
X152460500Y-66518274D01*
X152480185Y-66451235D01*
X152532989Y-66405480D01*
X152602147Y-66395536D01*
X152608682Y-66396655D01*
X152628012Y-66400500D01*
X152831990Y-66400500D01*
X152999502Y-66367179D01*
X153032044Y-66360706D01*
X153220493Y-66282648D01*
X153296558Y-66231822D01*
X153363234Y-66210944D01*
X153430614Y-66229428D01*
X153434339Y-66231822D01*
X153509742Y-66282204D01*
X153698101Y-66360225D01*
X153698109Y-66360227D01*
X153749999Y-66370549D01*
X153750000Y-66370549D01*
X153750000Y-65557122D01*
X153752383Y-65532929D01*
X153765500Y-65466989D01*
X153765500Y-65384226D01*
X153826306Y-65419333D01*
X153940756Y-65450000D01*
X154059244Y-65450000D01*
X154173694Y-65419333D01*
X154234501Y-65384226D01*
X154234501Y-65947876D01*
X154240908Y-66007483D01*
X154242181Y-66010894D01*
X154250000Y-66054229D01*
X154250000Y-66370549D01*
X154301890Y-66360227D01*
X154301894Y-66360226D01*
X154373604Y-66330523D01*
X154443074Y-66323054D01*
X154484132Y-66340926D01*
X154484886Y-66339546D01*
X154492671Y-66343797D01*
X154627517Y-66394091D01*
X154627516Y-66394091D01*
X154634444Y-66394835D01*
X154687127Y-66400500D01*
X155852872Y-66400499D01*
X155912483Y-66394091D01*
X156047331Y-66343796D01*
X156162546Y-66257546D01*
X156248796Y-66142331D01*
X156299091Y-66007483D01*
X156305500Y-65947873D01*
X156305499Y-64052128D01*
X156299091Y-63992517D01*
X156299090Y-63992515D01*
X156278318Y-63936821D01*
X156277302Y-63931191D01*
X156275523Y-63928423D01*
X156270500Y-63893488D01*
X156270500Y-63655782D01*
X156290185Y-63588743D01*
X156306819Y-63568101D01*
X160438102Y-59436819D01*
X160499425Y-59403334D01*
X160525783Y-59400500D01*
X160561990Y-59400500D01*
X160729502Y-59367179D01*
X160762044Y-59360706D01*
X160950493Y-59282648D01*
X161026109Y-59232123D01*
X161092786Y-59211245D01*
X161160166Y-59229729D01*
X161163891Y-59232123D01*
X161239500Y-59282643D01*
X161239507Y-59282648D01*
X161239509Y-59282649D01*
X161239513Y-59282651D01*
X161427951Y-59360704D01*
X161427956Y-59360706D01*
X161427960Y-59360706D01*
X161427961Y-59360707D01*
X161628009Y-59400500D01*
X161628012Y-59400500D01*
X161831990Y-59400500D01*
X161999502Y-59367179D01*
X162032044Y-59360706D01*
X162220493Y-59282648D01*
X162296558Y-59231822D01*
X162363234Y-59210944D01*
X162430614Y-59229428D01*
X162434339Y-59231822D01*
X162509742Y-59282204D01*
X162698101Y-59360225D01*
X162698109Y-59360227D01*
X162749999Y-59370549D01*
X162750000Y-59370549D01*
X162750000Y-58557122D01*
X162752383Y-58532929D01*
X162765500Y-58466989D01*
X162765500Y-58384226D01*
X162826306Y-58419333D01*
X162940756Y-58450000D01*
X163059244Y-58450000D01*
X163173694Y-58419333D01*
X163234501Y-58384226D01*
X163234501Y-58947876D01*
X163240908Y-59007483D01*
X163242181Y-59010894D01*
X163250000Y-59054229D01*
X163250000Y-59370549D01*
X163301890Y-59360227D01*
X163301899Y-59360225D01*
X163311624Y-59356197D01*
X163381093Y-59348727D01*
X163443573Y-59380000D01*
X163462182Y-59401867D01*
X163492862Y-59447784D01*
X163636537Y-59591459D01*
X163636559Y-59591479D01*
X169388181Y-65343101D01*
X169421666Y-65404424D01*
X169424500Y-65430781D01*
X169424500Y-65466988D01*
X169424500Y-65466990D01*
X169424499Y-65466990D01*
X169464292Y-65667038D01*
X169464295Y-65667048D01*
X169542348Y-65855486D01*
X169542355Y-65855499D01*
X169655674Y-66025092D01*
X169655677Y-66025096D01*
X169799903Y-66169322D01*
X169799907Y-66169325D01*
X169969500Y-66282644D01*
X169969513Y-66282651D01*
X170157951Y-66360704D01*
X170157956Y-66360706D01*
X170157960Y-66360706D01*
X170157961Y-66360707D01*
X170358009Y-66400500D01*
X170358012Y-66400500D01*
X170561990Y-66400500D01*
X170729502Y-66367179D01*
X170762044Y-66360706D01*
X170950493Y-66282648D01*
X171026109Y-66232123D01*
X171092786Y-66211245D01*
X171160166Y-66229729D01*
X171163891Y-66232123D01*
X171239500Y-66282643D01*
X171239507Y-66282648D01*
X171239509Y-66282649D01*
X171239513Y-66282651D01*
X171427951Y-66360704D01*
X171427956Y-66360706D01*
X171427960Y-66360706D01*
X171427961Y-66360707D01*
X171628009Y-66400500D01*
X171628012Y-66400500D01*
X171831990Y-66400500D01*
X171999502Y-66367179D01*
X172032044Y-66360706D01*
X172220493Y-66282648D01*
X172296558Y-66231822D01*
X172363234Y-66210944D01*
X172430614Y-66229428D01*
X172434339Y-66231822D01*
X172509742Y-66282204D01*
X172698101Y-66360225D01*
X172698109Y-66360227D01*
X172749999Y-66370549D01*
X172750000Y-66370549D01*
X172750000Y-65557122D01*
X172752383Y-65532929D01*
X172765500Y-65466989D01*
X172765500Y-65384226D01*
X172826306Y-65419333D01*
X172940756Y-65450000D01*
X173059244Y-65450000D01*
X173173694Y-65419333D01*
X173234501Y-65384226D01*
X173234501Y-65947876D01*
X173240908Y-66007483D01*
X173242181Y-66010894D01*
X173250000Y-66054229D01*
X173250000Y-66370549D01*
X173301890Y-66360227D01*
X173301894Y-66360226D01*
X173373604Y-66330523D01*
X173443074Y-66323054D01*
X173484132Y-66340926D01*
X173484886Y-66339546D01*
X173492671Y-66343797D01*
X173627517Y-66394091D01*
X173627516Y-66394091D01*
X173634444Y-66394835D01*
X173687127Y-66400500D01*
X174852872Y-66400499D01*
X174912483Y-66394091D01*
X175047331Y-66343796D01*
X175162546Y-66257546D01*
X175248796Y-66142331D01*
X175299091Y-66007483D01*
X175305500Y-65947873D01*
X175305499Y-65430780D01*
X175325183Y-65363742D01*
X175341813Y-65343105D01*
X180237139Y-60447782D01*
X180265655Y-60405104D01*
X180321545Y-60321460D01*
X180321545Y-60321459D01*
X180324091Y-60317648D01*
X180346632Y-60283914D01*
X180422051Y-60101835D01*
X180434632Y-60038582D01*
X180460500Y-59908543D01*
X180460500Y-59518274D01*
X180480185Y-59451235D01*
X180532989Y-59405480D01*
X180602147Y-59395536D01*
X180608682Y-59396655D01*
X180628012Y-59400500D01*
X180831990Y-59400500D01*
X180999502Y-59367179D01*
X181032044Y-59360706D01*
X181220493Y-59282648D01*
X181296558Y-59231822D01*
X181363234Y-59210944D01*
X181430614Y-59229428D01*
X181434339Y-59231822D01*
X181509742Y-59282204D01*
X181698101Y-59360225D01*
X181698109Y-59360227D01*
X181749999Y-59370549D01*
X181750000Y-59370549D01*
X181750000Y-58557122D01*
X181752383Y-58532929D01*
X181765500Y-58466989D01*
X181765500Y-58384226D01*
X181826306Y-58419333D01*
X181940756Y-58450000D01*
X182059244Y-58450000D01*
X182173694Y-58419333D01*
X182234501Y-58384226D01*
X182234501Y-58947876D01*
X182240908Y-59007483D01*
X182242181Y-59010894D01*
X182250000Y-59054229D01*
X182250000Y-59370549D01*
X182301890Y-59360227D01*
X182301894Y-59360226D01*
X182373604Y-59330523D01*
X182443074Y-59323054D01*
X182484132Y-59340926D01*
X182484886Y-59339546D01*
X182492671Y-59343797D01*
X182525918Y-59356197D01*
X182627517Y-59394091D01*
X182687127Y-59400500D01*
X183204217Y-59400499D01*
X183271256Y-59420183D01*
X183291898Y-59436818D01*
X187423181Y-63568101D01*
X187456666Y-63629424D01*
X187459500Y-63655782D01*
X187459500Y-64344844D01*
X187457117Y-64369036D01*
X187424500Y-64533009D01*
X187424500Y-64533010D01*
X187424500Y-64533012D01*
X187424500Y-65466988D01*
X187424500Y-65466990D01*
X187424499Y-65466990D01*
X187464292Y-65667038D01*
X187464295Y-65667048D01*
X187542348Y-65855486D01*
X187542355Y-65855499D01*
X187655674Y-66025092D01*
X187655677Y-66025096D01*
X187799903Y-66169322D01*
X187799907Y-66169325D01*
X187969500Y-66282644D01*
X187969513Y-66282651D01*
X188157951Y-66360704D01*
X188157956Y-66360706D01*
X188157960Y-66360706D01*
X188157961Y-66360707D01*
X188358009Y-66400500D01*
X188358012Y-66400500D01*
X188561990Y-66400500D01*
X188729502Y-66367179D01*
X188762044Y-66360706D01*
X188950493Y-66282648D01*
X189026109Y-66232123D01*
X189092786Y-66211245D01*
X189160166Y-66229729D01*
X189163891Y-66232123D01*
X189239500Y-66282643D01*
X189239507Y-66282648D01*
X189239509Y-66282649D01*
X189239513Y-66282651D01*
X189427951Y-66360704D01*
X189427956Y-66360706D01*
X189427960Y-66360706D01*
X189427961Y-66360707D01*
X189628009Y-66400500D01*
X189628012Y-66400500D01*
X189831990Y-66400500D01*
X189999502Y-66367179D01*
X190032044Y-66360706D01*
X190220493Y-66282648D01*
X190296558Y-66231822D01*
X190363234Y-66210944D01*
X190430614Y-66229428D01*
X190434339Y-66231822D01*
X190509742Y-66282204D01*
X190698101Y-66360225D01*
X190698109Y-66360227D01*
X190749999Y-66370549D01*
X190750000Y-66370549D01*
X190750000Y-65557122D01*
X190752383Y-65532929D01*
X190765500Y-65466989D01*
X190765500Y-65384226D01*
X190826306Y-65419333D01*
X190940756Y-65450000D01*
X191059244Y-65450000D01*
X191173694Y-65419333D01*
X191234501Y-65384226D01*
X191234501Y-65947876D01*
X191240908Y-66007483D01*
X191242181Y-66010894D01*
X191250000Y-66054229D01*
X191250000Y-66387274D01*
X191263499Y-66407092D01*
X191269500Y-66445200D01*
X191269500Y-73534218D01*
X191249815Y-73601257D01*
X191233181Y-73621899D01*
X190291899Y-74563181D01*
X190230576Y-74596666D01*
X190204218Y-74599500D01*
X190168010Y-74599500D01*
X189967961Y-74639292D01*
X189967951Y-74639295D01*
X189779509Y-74717350D01*
X189703891Y-74767877D01*
X189637213Y-74788755D01*
X189569833Y-74770270D01*
X189566109Y-74767877D01*
X189491154Y-74717794D01*
X189490493Y-74717352D01*
X189490492Y-74717351D01*
X189490490Y-74717350D01*
X189302048Y-74639295D01*
X189302038Y-74639292D01*
X189101990Y-74599500D01*
X189101988Y-74599500D01*
X188898012Y-74599500D01*
X188898010Y-74599500D01*
X188697961Y-74639292D01*
X188697951Y-74639295D01*
X188509511Y-74717349D01*
X188433438Y-74768178D01*
X188366760Y-74789054D01*
X188299380Y-74770568D01*
X188295659Y-74768177D01*
X188220254Y-74717794D01*
X188031896Y-74639773D01*
X188031893Y-74639772D01*
X187980000Y-74629449D01*
X187980000Y-75442876D01*
X187977617Y-75467068D01*
X187964500Y-75533010D01*
X187964500Y-75615773D01*
X187903694Y-75580667D01*
X187789244Y-75550000D01*
X187670756Y-75550000D01*
X187556306Y-75580667D01*
X187495499Y-75615773D01*
X187495499Y-75052128D01*
X187489091Y-74992517D01*
X187487818Y-74989103D01*
X187480000Y-74945771D01*
X187480000Y-74629450D01*
X187479999Y-74629449D01*
X187428106Y-74639772D01*
X187428099Y-74639774D01*
X187356393Y-74669476D01*
X187286924Y-74676945D01*
X187245867Y-74659074D01*
X187245114Y-74660454D01*
X187237328Y-74656202D01*
X187102482Y-74605908D01*
X187102483Y-74605908D01*
X187042883Y-74599501D01*
X187042881Y-74599500D01*
X187042873Y-74599500D01*
X187042864Y-74599500D01*
X185877129Y-74599500D01*
X185877123Y-74599501D01*
X185817516Y-74605908D01*
X185682671Y-74656202D01*
X185682664Y-74656206D01*
X185567455Y-74742452D01*
X185567452Y-74742455D01*
X185481206Y-74857664D01*
X185481202Y-74857671D01*
X185430908Y-74992517D01*
X185424501Y-75052116D01*
X185424501Y-75052123D01*
X185424500Y-75052135D01*
X185424500Y-76947870D01*
X185424501Y-76947876D01*
X185430908Y-77007481D01*
X185437477Y-77025092D01*
X185444507Y-77043942D01*
X185451682Y-77063177D01*
X185459500Y-77106511D01*
X185459500Y-84344217D01*
X185439815Y-84411256D01*
X185423181Y-84431898D01*
X183291899Y-86563181D01*
X183230576Y-86596666D01*
X183204218Y-86599500D01*
X183168010Y-86599500D01*
X182967961Y-86639292D01*
X182967951Y-86639295D01*
X182779509Y-86717350D01*
X182703891Y-86767877D01*
X182637213Y-86788755D01*
X182569833Y-86770270D01*
X182566109Y-86767877D01*
X182491154Y-86717794D01*
X182490493Y-86717352D01*
X182490492Y-86717351D01*
X182490490Y-86717350D01*
X182302048Y-86639295D01*
X182302038Y-86639292D01*
X182101990Y-86599500D01*
X182101988Y-86599500D01*
X181898012Y-86599500D01*
X181898010Y-86599500D01*
X181697961Y-86639292D01*
X181697951Y-86639295D01*
X181509511Y-86717349D01*
X181433438Y-86768178D01*
X181366760Y-86789054D01*
X181299380Y-86770568D01*
X181295659Y-86768177D01*
X181220254Y-86717794D01*
X181031896Y-86639773D01*
X181031893Y-86639772D01*
X180980000Y-86629449D01*
X180980000Y-87442876D01*
X180977617Y-87467068D01*
X180964500Y-87533010D01*
X180964500Y-87615773D01*
X180903694Y-87580667D01*
X180789244Y-87550000D01*
X180670756Y-87550000D01*
X180556306Y-87580667D01*
X180495499Y-87615773D01*
X180495499Y-87052128D01*
X180489091Y-86992517D01*
X180487818Y-86989103D01*
X180480000Y-86945771D01*
X180480000Y-86629450D01*
X180479999Y-86629449D01*
X180428106Y-86639772D01*
X180428099Y-86639774D01*
X180356393Y-86669476D01*
X180286924Y-86676945D01*
X180245867Y-86659074D01*
X180245114Y-86660454D01*
X180237328Y-86656202D01*
X180102482Y-86605908D01*
X180102483Y-86605908D01*
X180042883Y-86599501D01*
X180042881Y-86599500D01*
X180042873Y-86599500D01*
X180042864Y-86599500D01*
X178877129Y-86599500D01*
X178877123Y-86599501D01*
X178817516Y-86605908D01*
X178682671Y-86656202D01*
X178682664Y-86656206D01*
X178567455Y-86742452D01*
X178567452Y-86742455D01*
X178481206Y-86857664D01*
X178481202Y-86857671D01*
X178430908Y-86992517D01*
X178426250Y-87035850D01*
X178424501Y-87052123D01*
X178424500Y-87052135D01*
X178424500Y-88947870D01*
X178424501Y-88947876D01*
X178430908Y-89007481D01*
X178451682Y-89063177D01*
X178459500Y-89106511D01*
X178459500Y-92344217D01*
X178439815Y-92411256D01*
X178423181Y-92431898D01*
X174291899Y-96563181D01*
X174230576Y-96596666D01*
X174204218Y-96599500D01*
X174168010Y-96599500D01*
X173967961Y-96639292D01*
X173967951Y-96639295D01*
X173779509Y-96717350D01*
X173703891Y-96767877D01*
X173637213Y-96788755D01*
X173569833Y-96770270D01*
X173566109Y-96767877D01*
X173491154Y-96717794D01*
X173490493Y-96717352D01*
X173490492Y-96717351D01*
X173490490Y-96717350D01*
X173302048Y-96639295D01*
X173302038Y-96639292D01*
X173101990Y-96599500D01*
X173101988Y-96599500D01*
X172898012Y-96599500D01*
X172898010Y-96599500D01*
X172697961Y-96639292D01*
X172697951Y-96639295D01*
X172509511Y-96717349D01*
X172433438Y-96768178D01*
X172366760Y-96789054D01*
X172299380Y-96770568D01*
X172295659Y-96768177D01*
X172220254Y-96717794D01*
X172031896Y-96639773D01*
X172031893Y-96639772D01*
X171980000Y-96629449D01*
X171980000Y-97442876D01*
X171977617Y-97467068D01*
X171964500Y-97533010D01*
X171964500Y-97615773D01*
X171903694Y-97580667D01*
X171789244Y-97550000D01*
X171670756Y-97550000D01*
X171556306Y-97580667D01*
X171495499Y-97615773D01*
X171495499Y-97052128D01*
X171489091Y-96992517D01*
X171487818Y-96989103D01*
X171480000Y-96945771D01*
X171480000Y-96629450D01*
X171479999Y-96629449D01*
X171428106Y-96639772D01*
X171428099Y-96639774D01*
X171356393Y-96669476D01*
X171286924Y-96676945D01*
X171245867Y-96659074D01*
X171245114Y-96660454D01*
X171237328Y-96656202D01*
X171102482Y-96605908D01*
X171102483Y-96605908D01*
X171042883Y-96599501D01*
X171042881Y-96599500D01*
X171042873Y-96599500D01*
X171042865Y-96599500D01*
X170525783Y-96599500D01*
X170458744Y-96579815D01*
X170438102Y-96563181D01*
X166306819Y-92431898D01*
X166273334Y-92370575D01*
X166270500Y-92344217D01*
X166270500Y-88655154D01*
X166272883Y-88630962D01*
X166305500Y-88466990D01*
X166305500Y-87533009D01*
X166265707Y-87332961D01*
X166265706Y-87332960D01*
X166265706Y-87332956D01*
X166265704Y-87332951D01*
X166187651Y-87144513D01*
X166187644Y-87144500D01*
X166074325Y-86974907D01*
X166074322Y-86974903D01*
X165930096Y-86830677D01*
X165930092Y-86830674D01*
X165760499Y-86717355D01*
X165760486Y-86717348D01*
X165572048Y-86639295D01*
X165572038Y-86639292D01*
X165371990Y-86599500D01*
X165371988Y-86599500D01*
X165168012Y-86599500D01*
X165168010Y-86599500D01*
X164967961Y-86639292D01*
X164967951Y-86639295D01*
X164779509Y-86717350D01*
X164703891Y-86767877D01*
X164637213Y-86788755D01*
X164569833Y-86770270D01*
X164566109Y-86767877D01*
X164491154Y-86717794D01*
X164490493Y-86717352D01*
X164490492Y-86717351D01*
X164490490Y-86717350D01*
X164302048Y-86639295D01*
X164302038Y-86639292D01*
X164101990Y-86599500D01*
X164101988Y-86599500D01*
X163898012Y-86599500D01*
X163898010Y-86599500D01*
X163697961Y-86639292D01*
X163697951Y-86639295D01*
X163509511Y-86717349D01*
X163433438Y-86768178D01*
X163366760Y-86789054D01*
X163299380Y-86770568D01*
X163295659Y-86768177D01*
X163220254Y-86717794D01*
X163031896Y-86639773D01*
X163031893Y-86639772D01*
X162980000Y-86629449D01*
X162980000Y-87442876D01*
X162977617Y-87467068D01*
X162964500Y-87533010D01*
X162964500Y-87615773D01*
X162903694Y-87580667D01*
X162789244Y-87550000D01*
X162670756Y-87550000D01*
X162556306Y-87580667D01*
X162495499Y-87615773D01*
X162495499Y-87052128D01*
X162489091Y-86992517D01*
X162487818Y-86989103D01*
X162480000Y-86945771D01*
X162480000Y-86629450D01*
X162479999Y-86629449D01*
X162428106Y-86639772D01*
X162428099Y-86639774D01*
X162356393Y-86669476D01*
X162286924Y-86676945D01*
X162245867Y-86659074D01*
X162245114Y-86660454D01*
X162237328Y-86656202D01*
X162102482Y-86605908D01*
X162102483Y-86605908D01*
X162042883Y-86599501D01*
X162042881Y-86599500D01*
X162042873Y-86599500D01*
X162042864Y-86599500D01*
X160877129Y-86599500D01*
X160877123Y-86599501D01*
X160817516Y-86605908D01*
X160682671Y-86656202D01*
X160682664Y-86656206D01*
X160567455Y-86742452D01*
X160567452Y-86742455D01*
X160481206Y-86857664D01*
X160481202Y-86857671D01*
X160430908Y-86992517D01*
X160426250Y-87035850D01*
X160424501Y-87052123D01*
X160424500Y-87052135D01*
X160424500Y-88947870D01*
X160424501Y-88947876D01*
X160430908Y-89007483D01*
X160481202Y-89142328D01*
X160481206Y-89142335D01*
X160567452Y-89257544D01*
X160567455Y-89257547D01*
X160682664Y-89343793D01*
X160682671Y-89343797D01*
X160817517Y-89394091D01*
X160817516Y-89394091D01*
X160824444Y-89394835D01*
X160877127Y-89400500D01*
X162042872Y-89400499D01*
X162102483Y-89394091D01*
X162237331Y-89343796D01*
X162237335Y-89343792D01*
X162245118Y-89339544D01*
X162246190Y-89341507D01*
X162300082Y-89321401D01*
X162356394Y-89330523D01*
X162428101Y-89360225D01*
X162428109Y-89360227D01*
X162479999Y-89370549D01*
X162480000Y-89370549D01*
X162480000Y-89054230D01*
X162487819Y-89010895D01*
X162489089Y-89007488D01*
X162489091Y-89007483D01*
X162495500Y-88947873D01*
X162495499Y-88384226D01*
X162556306Y-88419333D01*
X162670756Y-88450000D01*
X162789244Y-88450000D01*
X162903694Y-88419333D01*
X162964500Y-88384226D01*
X162964500Y-88466989D01*
X162977617Y-88532929D01*
X162980000Y-88557122D01*
X162980000Y-89370549D01*
X163031890Y-89360227D01*
X163031898Y-89360225D01*
X163220252Y-89282206D01*
X163220256Y-89282204D01*
X163295658Y-89231822D01*
X163362336Y-89210944D01*
X163429716Y-89229428D01*
X163433401Y-89231796D01*
X163509507Y-89282648D01*
X163509509Y-89282649D01*
X163509513Y-89282651D01*
X163697951Y-89360704D01*
X163697956Y-89360706D01*
X163697960Y-89360706D01*
X163697961Y-89360707D01*
X163898009Y-89400500D01*
X163898012Y-89400500D01*
X164101988Y-89400500D01*
X164121307Y-89396657D01*
X164190898Y-89402883D01*
X164246076Y-89445745D01*
X164269322Y-89511635D01*
X164269500Y-89518274D01*
X164269500Y-92908541D01*
X164269500Y-92908543D01*
X164269499Y-92908543D01*
X164307947Y-93101829D01*
X164307950Y-93101839D01*
X164383364Y-93283907D01*
X164383371Y-93283920D01*
X164492859Y-93447780D01*
X164492860Y-93447781D01*
X164492861Y-93447782D01*
X164632218Y-93587139D01*
X164632219Y-93587139D01*
X164639286Y-93594206D01*
X164639285Y-93594206D01*
X164639289Y-93594209D01*
X169388181Y-98343102D01*
X169421666Y-98404425D01*
X169424500Y-98430783D01*
X169424500Y-98947870D01*
X169424501Y-98947876D01*
X169430908Y-99007483D01*
X169481202Y-99142328D01*
X169481206Y-99142335D01*
X169567452Y-99257544D01*
X169567455Y-99257547D01*
X169682664Y-99343793D01*
X169682671Y-99343797D01*
X169817517Y-99394091D01*
X169817516Y-99394091D01*
X169824444Y-99394835D01*
X169877127Y-99400500D01*
X171042872Y-99400499D01*
X171102483Y-99394091D01*
X171237331Y-99343796D01*
X171237335Y-99343792D01*
X171245118Y-99339544D01*
X171246190Y-99341507D01*
X171300082Y-99321401D01*
X171356394Y-99330523D01*
X171428101Y-99360225D01*
X171428109Y-99360227D01*
X171479999Y-99370549D01*
X171480000Y-99370549D01*
X171480000Y-99054230D01*
X171487819Y-99010895D01*
X171489089Y-99007488D01*
X171489091Y-99007483D01*
X171495500Y-98947873D01*
X171495499Y-98384226D01*
X171556306Y-98419333D01*
X171670756Y-98450000D01*
X171789244Y-98450000D01*
X171903694Y-98419333D01*
X171964500Y-98384226D01*
X171964500Y-98466989D01*
X171977617Y-98532929D01*
X171980000Y-98557122D01*
X171980000Y-99370549D01*
X172031890Y-99360227D01*
X172031898Y-99360225D01*
X172220252Y-99282206D01*
X172220256Y-99282204D01*
X172295658Y-99231822D01*
X172362336Y-99210944D01*
X172429716Y-99229428D01*
X172433401Y-99231796D01*
X172509507Y-99282648D01*
X172509509Y-99282649D01*
X172509513Y-99282651D01*
X172697951Y-99360704D01*
X172697956Y-99360706D01*
X172697960Y-99360706D01*
X172697961Y-99360707D01*
X172898009Y-99400500D01*
X172898012Y-99400500D01*
X173101990Y-99400500D01*
X173269331Y-99367213D01*
X173302044Y-99360706D01*
X173490493Y-99282648D01*
X173566109Y-99232123D01*
X173632786Y-99211245D01*
X173700166Y-99229729D01*
X173703891Y-99232123D01*
X173779501Y-99282644D01*
X173779507Y-99282648D01*
X173779509Y-99282649D01*
X173779513Y-99282651D01*
X173967951Y-99360704D01*
X173967956Y-99360706D01*
X173967960Y-99360706D01*
X173967961Y-99360707D01*
X174168009Y-99400500D01*
X174168012Y-99400500D01*
X174371990Y-99400500D01*
X174539331Y-99367213D01*
X174572044Y-99360706D01*
X174760493Y-99282648D01*
X174761158Y-99282204D01*
X174836109Y-99232123D01*
X174930093Y-99169325D01*
X175074325Y-99025093D01*
X175187648Y-98855493D01*
X175265706Y-98667044D01*
X175287571Y-98557122D01*
X175305500Y-98466990D01*
X175305500Y-98430782D01*
X175325185Y-98363743D01*
X175341819Y-98343101D01*
X180237139Y-93447782D01*
X180237140Y-93447781D01*
X180346632Y-93283914D01*
X180422051Y-93101835D01*
X180449054Y-92966086D01*
X180460500Y-92908541D01*
X180460500Y-92711460D01*
X180460500Y-89445200D01*
X180480000Y-89378791D01*
X180480000Y-89054230D01*
X180487819Y-89010895D01*
X180489089Y-89007488D01*
X180489091Y-89007483D01*
X180495500Y-88947873D01*
X180495499Y-88384226D01*
X180556306Y-88419333D01*
X180670756Y-88450000D01*
X180789244Y-88450000D01*
X180903694Y-88419333D01*
X180964500Y-88384226D01*
X180964500Y-88466989D01*
X180977617Y-88532929D01*
X180980000Y-88557122D01*
X180980000Y-89370549D01*
X181031890Y-89360227D01*
X181031898Y-89360225D01*
X181220252Y-89282206D01*
X181220256Y-89282204D01*
X181295658Y-89231822D01*
X181362336Y-89210944D01*
X181429716Y-89229428D01*
X181433401Y-89231796D01*
X181509507Y-89282648D01*
X181509509Y-89282649D01*
X181509513Y-89282651D01*
X181697951Y-89360704D01*
X181697956Y-89360706D01*
X181697960Y-89360706D01*
X181697961Y-89360707D01*
X181898009Y-89400500D01*
X181898012Y-89400500D01*
X182101990Y-89400500D01*
X182269502Y-89367179D01*
X182302044Y-89360706D01*
X182490493Y-89282648D01*
X182566109Y-89232123D01*
X182632786Y-89211245D01*
X182700166Y-89229729D01*
X182703891Y-89232123D01*
X182779501Y-89282644D01*
X182779507Y-89282648D01*
X182779509Y-89282649D01*
X182779513Y-89282651D01*
X182967951Y-89360704D01*
X182967956Y-89360706D01*
X182967960Y-89360706D01*
X182967961Y-89360707D01*
X183168009Y-89400500D01*
X183168012Y-89400500D01*
X183371990Y-89400500D01*
X183539502Y-89367179D01*
X183572044Y-89360706D01*
X183760493Y-89282648D01*
X183761158Y-89282204D01*
X183836109Y-89232123D01*
X183930093Y-89169325D01*
X184074325Y-89025093D01*
X184187648Y-88855493D01*
X184265706Y-88667044D01*
X184287571Y-88557122D01*
X184305500Y-88466990D01*
X184305500Y-88430782D01*
X184325185Y-88363743D01*
X184341819Y-88343101D01*
X185776005Y-86908916D01*
X187237139Y-85447782D01*
X187346632Y-85283914D01*
X187422051Y-85101835D01*
X187460500Y-84908541D01*
X187460500Y-77445200D01*
X187480000Y-77378791D01*
X187480000Y-77054230D01*
X187487819Y-77010895D01*
X187489089Y-77007488D01*
X187489091Y-77007483D01*
X187495500Y-76947873D01*
X187495499Y-76384226D01*
X187556306Y-76419333D01*
X187670756Y-76450000D01*
X187789244Y-76450000D01*
X187903694Y-76419333D01*
X187964500Y-76384226D01*
X187964500Y-76466989D01*
X187977617Y-76532929D01*
X187980000Y-76557122D01*
X187980000Y-77370549D01*
X188031890Y-77360227D01*
X188031898Y-77360225D01*
X188220252Y-77282206D01*
X188220256Y-77282204D01*
X188295658Y-77231822D01*
X188362336Y-77210944D01*
X188429716Y-77229428D01*
X188433401Y-77231796D01*
X188509507Y-77282648D01*
X188509509Y-77282649D01*
X188509513Y-77282651D01*
X188697951Y-77360704D01*
X188697956Y-77360706D01*
X188697960Y-77360706D01*
X188697961Y-77360707D01*
X188898009Y-77400500D01*
X188898012Y-77400500D01*
X189101990Y-77400500D01*
X189252560Y-77370549D01*
X189302044Y-77360706D01*
X189490493Y-77282648D01*
X189566109Y-77232123D01*
X189632786Y-77211245D01*
X189700166Y-77229729D01*
X189703891Y-77232123D01*
X189779501Y-77282644D01*
X189779507Y-77282648D01*
X189779509Y-77282649D01*
X189779513Y-77282651D01*
X189967951Y-77360704D01*
X189967956Y-77360706D01*
X189967960Y-77360706D01*
X189967961Y-77360707D01*
X190168009Y-77400500D01*
X190168012Y-77400500D01*
X190371990Y-77400500D01*
X190522560Y-77370549D01*
X190572044Y-77360706D01*
X190760493Y-77282648D01*
X190761158Y-77282204D01*
X190836109Y-77232123D01*
X190930093Y-77169325D01*
X191074325Y-77025093D01*
X191187648Y-76855493D01*
X191265706Y-76667044D01*
X191287571Y-76557122D01*
X191305500Y-76466990D01*
X191305500Y-76430781D01*
X191325185Y-76363742D01*
X191341814Y-76343105D01*
X192907778Y-74777141D01*
X192907782Y-74777139D01*
X193047139Y-74637782D01*
X193156632Y-74473914D01*
X193232051Y-74291835D01*
X193267829Y-74111969D01*
X193270500Y-74098543D01*
X193270500Y-66106511D01*
X193278318Y-66063177D01*
X193299091Y-66007483D01*
X193305500Y-65947873D01*
X193305499Y-64052128D01*
X193299091Y-63992517D01*
X193299090Y-63992515D01*
X193248797Y-63857671D01*
X193248793Y-63857664D01*
X193162547Y-63742455D01*
X193162544Y-63742452D01*
X193047335Y-63656206D01*
X193047328Y-63656202D01*
X192912482Y-63605908D01*
X192912483Y-63605908D01*
X192852883Y-63599501D01*
X192852881Y-63599500D01*
X192852873Y-63599500D01*
X192852864Y-63599500D01*
X191687129Y-63599500D01*
X191687123Y-63599501D01*
X191627516Y-63605908D01*
X191492671Y-63656202D01*
X191484890Y-63660452D01*
X191483820Y-63658492D01*
X191429891Y-63678600D01*
X191373607Y-63669476D01*
X191301900Y-63639774D01*
X191301893Y-63639772D01*
X191250000Y-63629449D01*
X191250000Y-63945771D01*
X191242182Y-63989103D01*
X191240909Y-63992515D01*
X191240908Y-63992517D01*
X191234501Y-64052116D01*
X191234500Y-64052127D01*
X191234500Y-64615773D01*
X191173694Y-64580667D01*
X191059244Y-64550000D01*
X190940756Y-64550000D01*
X190826306Y-64580667D01*
X190765500Y-64615773D01*
X190765500Y-64533011D01*
X190765499Y-64533010D01*
X190752383Y-64467068D01*
X190750000Y-64442876D01*
X190750000Y-63629450D01*
X190749999Y-63629449D01*
X190698106Y-63639772D01*
X190698103Y-63639773D01*
X190509745Y-63717794D01*
X190434339Y-63768178D01*
X190367661Y-63789055D01*
X190300281Y-63770570D01*
X190296558Y-63768177D01*
X190221154Y-63717794D01*
X190220493Y-63717352D01*
X190220492Y-63717351D01*
X190220490Y-63717350D01*
X190032048Y-63639295D01*
X190032038Y-63639292D01*
X189831990Y-63599500D01*
X189831988Y-63599500D01*
X189628012Y-63599500D01*
X189628011Y-63599500D01*
X189608688Y-63603343D01*
X189539097Y-63597114D01*
X189483920Y-63554249D01*
X189460678Y-63488359D01*
X189460500Y-63481725D01*
X189460500Y-63091456D01*
X189422052Y-62898170D01*
X189422051Y-62898169D01*
X189422051Y-62898165D01*
X189415028Y-62881210D01*
X189346635Y-62716092D01*
X189346628Y-62716079D01*
X189237140Y-62552219D01*
X189178996Y-62494075D01*
X189097782Y-62412861D01*
X189097781Y-62412860D01*
X186859907Y-60174986D01*
X194050001Y-60174986D01*
X194060494Y-60277697D01*
X194115641Y-60444119D01*
X194115643Y-60444124D01*
X194207684Y-60593345D01*
X194331654Y-60717315D01*
X194480875Y-60809356D01*
X194480880Y-60809358D01*
X194647302Y-60864505D01*
X194647309Y-60864506D01*
X194750019Y-60874999D01*
X195999999Y-60874999D01*
X196500000Y-60874999D01*
X197749972Y-60874999D01*
X197749986Y-60874998D01*
X197852697Y-60864505D01*
X198019119Y-60809358D01*
X198019124Y-60809356D01*
X198168343Y-60717316D01*
X198173084Y-60713568D01*
X198237877Y-60687424D01*
X198306520Y-60700460D01*
X198326916Y-60713568D01*
X198331656Y-60717316D01*
X198480875Y-60809356D01*
X198480880Y-60809358D01*
X198647302Y-60864505D01*
X198647309Y-60864506D01*
X198750019Y-60874999D01*
X199999999Y-60874999D01*
X200500000Y-60874999D01*
X201749972Y-60874999D01*
X201749986Y-60874998D01*
X201852697Y-60864505D01*
X202019119Y-60809358D01*
X202019124Y-60809356D01*
X202168345Y-60717315D01*
X202292315Y-60593345D01*
X202384356Y-60444124D01*
X202384358Y-60444119D01*
X202439505Y-60277697D01*
X202439506Y-60277690D01*
X202449999Y-60174986D01*
X202450000Y-60174973D01*
X202450000Y-59975000D01*
X200500000Y-59975000D01*
X200500000Y-60874999D01*
X199999999Y-60874999D01*
X200000000Y-60874998D01*
X200000000Y-59975000D01*
X196500000Y-59975000D01*
X196500000Y-60874999D01*
X195999999Y-60874999D01*
X196000000Y-60874998D01*
X196000000Y-59975000D01*
X194050001Y-59975000D01*
X194050001Y-60174986D01*
X186859907Y-60174986D01*
X186786750Y-60101829D01*
X185959934Y-59275013D01*
X194050000Y-59275013D01*
X194050000Y-59475000D01*
X196000000Y-59475000D01*
X196500000Y-59475000D01*
X200000000Y-59475000D01*
X200500000Y-59475000D01*
X202449999Y-59475000D01*
X202449999Y-59275028D01*
X202449998Y-59275013D01*
X202439505Y-59172302D01*
X202384358Y-59005880D01*
X202384356Y-59005875D01*
X202292315Y-58856654D01*
X202168345Y-58732684D01*
X202019124Y-58640643D01*
X202019119Y-58640641D01*
X201852697Y-58585494D01*
X201852690Y-58585493D01*
X201749986Y-58575000D01*
X200500000Y-58575000D01*
X200500000Y-59475000D01*
X200000000Y-59475000D01*
X200000000Y-58575000D01*
X198750028Y-58575000D01*
X198750012Y-58575001D01*
X198647302Y-58585494D01*
X198480880Y-58640641D01*
X198480875Y-58640643D01*
X198331653Y-58732685D01*
X198326911Y-58736435D01*
X198262115Y-58762576D01*
X198193473Y-58749535D01*
X198173089Y-58736435D01*
X198168346Y-58732685D01*
X198019124Y-58640643D01*
X198019119Y-58640641D01*
X197852697Y-58585494D01*
X197852690Y-58585493D01*
X197749986Y-58575000D01*
X196500000Y-58575000D01*
X196500000Y-59475000D01*
X196000000Y-59475000D01*
X196000000Y-58575000D01*
X194750028Y-58575000D01*
X194750012Y-58575001D01*
X194647302Y-58585494D01*
X194480880Y-58640641D01*
X194480875Y-58640643D01*
X194331654Y-58732684D01*
X194207684Y-58856654D01*
X194115643Y-59005875D01*
X194115641Y-59005880D01*
X194060494Y-59172302D01*
X194060493Y-59172309D01*
X194050000Y-59275013D01*
X185959934Y-59275013D01*
X184341818Y-57656897D01*
X184308333Y-57595574D01*
X184305499Y-57569216D01*
X184305499Y-57052129D01*
X184305498Y-57052123D01*
X184305497Y-57052116D01*
X184299091Y-56992517D01*
X184299090Y-56992515D01*
X184248797Y-56857671D01*
X184248793Y-56857664D01*
X184162547Y-56742455D01*
X184162544Y-56742452D01*
X184047335Y-56656206D01*
X184047328Y-56656202D01*
X183912482Y-56605908D01*
X183912483Y-56605908D01*
X183852883Y-56599501D01*
X183852881Y-56599500D01*
X183852873Y-56599500D01*
X183852864Y-56599500D01*
X182687129Y-56599500D01*
X182687123Y-56599501D01*
X182627516Y-56605908D01*
X182492671Y-56656202D01*
X182484890Y-56660452D01*
X182483820Y-56658492D01*
X182429891Y-56678600D01*
X182373607Y-56669476D01*
X182301900Y-56639774D01*
X182301893Y-56639772D01*
X182250000Y-56629449D01*
X182250000Y-56945771D01*
X182242182Y-56989103D01*
X182240909Y-56992515D01*
X182240908Y-56992517D01*
X182236580Y-57032781D01*
X182234500Y-57052127D01*
X182234500Y-57615773D01*
X182173694Y-57580667D01*
X182059244Y-57550000D01*
X181940756Y-57550000D01*
X181826306Y-57580667D01*
X181765500Y-57615773D01*
X181765500Y-57533011D01*
X181765499Y-57533010D01*
X181752383Y-57467068D01*
X181750000Y-57442876D01*
X181750000Y-56629450D01*
X181749999Y-56629449D01*
X181698106Y-56639772D01*
X181698103Y-56639773D01*
X181509745Y-56717794D01*
X181434339Y-56768178D01*
X181367661Y-56789055D01*
X181300281Y-56770570D01*
X181296558Y-56768177D01*
X181221154Y-56717794D01*
X181220493Y-56717352D01*
X181220492Y-56717351D01*
X181220490Y-56717350D01*
X181032048Y-56639295D01*
X181032038Y-56639292D01*
X180831990Y-56599500D01*
X180831988Y-56599500D01*
X180628012Y-56599500D01*
X180628010Y-56599500D01*
X180427961Y-56639292D01*
X180427951Y-56639295D01*
X180239509Y-56717350D01*
X180163891Y-56767877D01*
X180097213Y-56788755D01*
X180029833Y-56770270D01*
X180026109Y-56767877D01*
X179951154Y-56717794D01*
X179950493Y-56717352D01*
X179950492Y-56717351D01*
X179950490Y-56717350D01*
X179762048Y-56639295D01*
X179762038Y-56639292D01*
X179561990Y-56599500D01*
X179561988Y-56599500D01*
X179358012Y-56599500D01*
X179358010Y-56599500D01*
X179157961Y-56639292D01*
X179157951Y-56639295D01*
X178969513Y-56717348D01*
X178969500Y-56717355D01*
X178799907Y-56830674D01*
X178799903Y-56830677D01*
X178655677Y-56974903D01*
X178655674Y-56974907D01*
X178542355Y-57144500D01*
X178542348Y-57144513D01*
X178464295Y-57332951D01*
X178464292Y-57332961D01*
X178424500Y-57533009D01*
X178424500Y-57533010D01*
X178424500Y-57533012D01*
X178424500Y-58466988D01*
X178424500Y-58466990D01*
X178424499Y-58466990D01*
X178457117Y-58630962D01*
X178459500Y-58655154D01*
X178459500Y-59344217D01*
X178439815Y-59411256D01*
X178423181Y-59431898D01*
X174291897Y-63563181D01*
X174230574Y-63596666D01*
X174204216Y-63599500D01*
X173687129Y-63599500D01*
X173687123Y-63599501D01*
X173627516Y-63605908D01*
X173492671Y-63656202D01*
X173484890Y-63660452D01*
X173483820Y-63658492D01*
X173429891Y-63678600D01*
X173373607Y-63669476D01*
X173301900Y-63639774D01*
X173301893Y-63639772D01*
X173250000Y-63629449D01*
X173250000Y-63945771D01*
X173242182Y-63989103D01*
X173240909Y-63992515D01*
X173240908Y-63992517D01*
X173234501Y-64052116D01*
X173234500Y-64052127D01*
X173234500Y-64615773D01*
X173173694Y-64580667D01*
X173059244Y-64550000D01*
X172940756Y-64550000D01*
X172826306Y-64580667D01*
X172765500Y-64615773D01*
X172765500Y-64533011D01*
X172765499Y-64533010D01*
X172752383Y-64467068D01*
X172750000Y-64442876D01*
X172750000Y-63629450D01*
X172749999Y-63629449D01*
X172698106Y-63639772D01*
X172698103Y-63639773D01*
X172509745Y-63717794D01*
X172434339Y-63768178D01*
X172367661Y-63789055D01*
X172300281Y-63770570D01*
X172296558Y-63768177D01*
X172221154Y-63717794D01*
X172220493Y-63717352D01*
X172220492Y-63717351D01*
X172220490Y-63717350D01*
X172032048Y-63639295D01*
X172032038Y-63639292D01*
X171831990Y-63599500D01*
X171831988Y-63599500D01*
X171628012Y-63599500D01*
X171628010Y-63599500D01*
X171427961Y-63639292D01*
X171427951Y-63639295D01*
X171239509Y-63717350D01*
X171163891Y-63767877D01*
X171097213Y-63788755D01*
X171029833Y-63770270D01*
X171026109Y-63767877D01*
X170951154Y-63717794D01*
X170950493Y-63717352D01*
X170950492Y-63717351D01*
X170950490Y-63717350D01*
X170762048Y-63639295D01*
X170762038Y-63639292D01*
X170561990Y-63599500D01*
X170561988Y-63599500D01*
X170525782Y-63599500D01*
X170458743Y-63579815D01*
X170438101Y-63563181D01*
X165341818Y-58466898D01*
X165308333Y-58405575D01*
X165305499Y-58379217D01*
X165305499Y-57052129D01*
X165305498Y-57052123D01*
X165305497Y-57052116D01*
X165299091Y-56992517D01*
X165299090Y-56992515D01*
X165248797Y-56857671D01*
X165248793Y-56857664D01*
X165162547Y-56742455D01*
X165162544Y-56742452D01*
X165047335Y-56656206D01*
X165047328Y-56656202D01*
X164912482Y-56605908D01*
X164912483Y-56605908D01*
X164852883Y-56599501D01*
X164852881Y-56599500D01*
X164852873Y-56599500D01*
X164852864Y-56599500D01*
X163687129Y-56599500D01*
X163687123Y-56599501D01*
X163627516Y-56605908D01*
X163492671Y-56656202D01*
X163484890Y-56660452D01*
X163483820Y-56658492D01*
X163429891Y-56678600D01*
X163373607Y-56669476D01*
X163301900Y-56639774D01*
X163301893Y-56639772D01*
X163250000Y-56629449D01*
X163250000Y-56945771D01*
X163242182Y-56989103D01*
X163240909Y-56992515D01*
X163240908Y-56992517D01*
X163236580Y-57032781D01*
X163234500Y-57052127D01*
X163234500Y-57615773D01*
X163173694Y-57580667D01*
X163059244Y-57550000D01*
X162940756Y-57550000D01*
X162826306Y-57580667D01*
X162765500Y-57615773D01*
X162765500Y-57533011D01*
X162765499Y-57533010D01*
X162752383Y-57467068D01*
X162750000Y-57442876D01*
X162750000Y-56629450D01*
X162749999Y-56629449D01*
X162698106Y-56639772D01*
X162698103Y-56639773D01*
X162509745Y-56717794D01*
X162434339Y-56768178D01*
X162367661Y-56789055D01*
X162300281Y-56770570D01*
X162296558Y-56768177D01*
X162221154Y-56717794D01*
X162220493Y-56717352D01*
X162220492Y-56717351D01*
X162220490Y-56717350D01*
X162032048Y-56639295D01*
X162032038Y-56639292D01*
X161831990Y-56599500D01*
X161831988Y-56599500D01*
X161628012Y-56599500D01*
X161628010Y-56599500D01*
X161427961Y-56639292D01*
X161427951Y-56639295D01*
X161239509Y-56717350D01*
X161163891Y-56767877D01*
X161097213Y-56788755D01*
X161029833Y-56770270D01*
X161026109Y-56767877D01*
X160951154Y-56717794D01*
X160950493Y-56717352D01*
X160950492Y-56717351D01*
X160950490Y-56717350D01*
X160762048Y-56639295D01*
X160762038Y-56639292D01*
X160561990Y-56599500D01*
X160561988Y-56599500D01*
X160358012Y-56599500D01*
X160358010Y-56599500D01*
X160157961Y-56639292D01*
X160157951Y-56639295D01*
X159969513Y-56717348D01*
X159969500Y-56717355D01*
X159799907Y-56830674D01*
X159799903Y-56830677D01*
X159655677Y-56974903D01*
X159655674Y-56974907D01*
X159542355Y-57144500D01*
X159542348Y-57144513D01*
X159464295Y-57332951D01*
X159464292Y-57332961D01*
X159424500Y-57533009D01*
X159424500Y-57569217D01*
X159404815Y-57636256D01*
X159388182Y-57656897D01*
X154632220Y-62412859D01*
X154632218Y-62412861D01*
X154585079Y-62460000D01*
X154492859Y-62552219D01*
X154383371Y-62716079D01*
X154383364Y-62716092D01*
X154307950Y-62898160D01*
X154307947Y-62898170D01*
X154269500Y-63091456D01*
X154269500Y-63554798D01*
X154250000Y-63621206D01*
X154250000Y-63945771D01*
X154242182Y-63989103D01*
X154240909Y-63992515D01*
X154240908Y-63992517D01*
X154234501Y-64052116D01*
X154234500Y-64052127D01*
X154234500Y-64615773D01*
X154173694Y-64580667D01*
X154059244Y-64550000D01*
X153940756Y-64550000D01*
X153826306Y-64580667D01*
X153765500Y-64615773D01*
X153765500Y-64533011D01*
X153765499Y-64533010D01*
X153752383Y-64467068D01*
X153750000Y-64442876D01*
X153750000Y-63629450D01*
X153749999Y-63629449D01*
X153698106Y-63639772D01*
X153698103Y-63639773D01*
X153509745Y-63717794D01*
X153434339Y-63768178D01*
X153367661Y-63789055D01*
X153300281Y-63770570D01*
X153296558Y-63768177D01*
X153221154Y-63717794D01*
X153220493Y-63717352D01*
X153220492Y-63717351D01*
X153220490Y-63717350D01*
X153032048Y-63639295D01*
X153032038Y-63639292D01*
X152831990Y-63599500D01*
X152831988Y-63599500D01*
X152628012Y-63599500D01*
X152628010Y-63599500D01*
X152427961Y-63639292D01*
X152427951Y-63639295D01*
X152239509Y-63717350D01*
X152163891Y-63767877D01*
X152097213Y-63788755D01*
X152029833Y-63770270D01*
X152026109Y-63767877D01*
X151951154Y-63717794D01*
X151950493Y-63717352D01*
X151950492Y-63717351D01*
X151950490Y-63717350D01*
X151762048Y-63639295D01*
X151762038Y-63639292D01*
X151561990Y-63599500D01*
X151561988Y-63599500D01*
X151358012Y-63599500D01*
X151358010Y-63599500D01*
X151157961Y-63639292D01*
X151157951Y-63639295D01*
X150969513Y-63717348D01*
X150969500Y-63717355D01*
X150799907Y-63830674D01*
X150799903Y-63830677D01*
X150655677Y-63974903D01*
X150655674Y-63974907D01*
X150542355Y-64144500D01*
X150542348Y-64144513D01*
X150464295Y-64332951D01*
X150464292Y-64332961D01*
X150424500Y-64533009D01*
X150424500Y-64533010D01*
X150424500Y-64533012D01*
X150424500Y-65466988D01*
X150424500Y-65466990D01*
X150424499Y-65466990D01*
X138300500Y-65466990D01*
X138300500Y-65397648D01*
X138294551Y-65360090D01*
X138268477Y-65195465D01*
X138205218Y-65000776D01*
X138116320Y-64826306D01*
X138112287Y-64818390D01*
X138104556Y-64807749D01*
X137991971Y-64652786D01*
X137847213Y-64508028D01*
X137681614Y-64387715D01*
X137621442Y-64357056D01*
X137595703Y-64343941D01*
X137544908Y-64295968D01*
X137528113Y-64228147D01*
X137550650Y-64162012D01*
X137593546Y-64124099D01*
X137659503Y-64088843D01*
X137659515Y-64088837D01*
X137728913Y-64042465D01*
X137129410Y-63442962D01*
X137192993Y-63425925D01*
X137307007Y-63360099D01*
X137400099Y-63267007D01*
X137465925Y-63152993D01*
X137482962Y-63089410D01*
X138082464Y-63688913D01*
X138082465Y-63688913D01*
X138128837Y-63619515D01*
X138128838Y-63619511D01*
X138175509Y-63532198D01*
X138235814Y-63386612D01*
X138264555Y-63291864D01*
X138295298Y-63137302D01*
X138295298Y-63137299D01*
X138305000Y-63038789D01*
X138305000Y-62881210D01*
X138295298Y-62782700D01*
X138295298Y-62782697D01*
X138264555Y-62628135D01*
X138235814Y-62533387D01*
X138175509Y-62387801D01*
X138128844Y-62300498D01*
X138128838Y-62300488D01*
X138082465Y-62231085D01*
X137482962Y-62830588D01*
X137465925Y-62767007D01*
X137400099Y-62652993D01*
X137307007Y-62559901D01*
X137192993Y-62494075D01*
X137129410Y-62477037D01*
X137728912Y-61877534D01*
X137659511Y-61831161D01*
X137659500Y-61831155D01*
X137593545Y-61795900D01*
X137543701Y-61746937D01*
X137528241Y-61678799D01*
X137552073Y-61613119D01*
X137595702Y-61576059D01*
X137681610Y-61532287D01*
X137772745Y-61466074D01*
X137847213Y-61411971D01*
X137847215Y-61411968D01*
X137847219Y-61411966D01*
X137991966Y-61267219D01*
X137991968Y-61267215D01*
X137991971Y-61267213D01*
X138044732Y-61194590D01*
X138112287Y-61101610D01*
X138205220Y-60919219D01*
X138268477Y-60724534D01*
X138300500Y-60522352D01*
X138300500Y-60317648D01*
X138295157Y-60283914D01*
X138268477Y-60115465D01*
X138205218Y-59920776D01*
X138171503Y-59854607D01*
X138112287Y-59738390D01*
X138104556Y-59727749D01*
X137991971Y-59572786D01*
X137847213Y-59428028D01*
X137681614Y-59307715D01*
X137675006Y-59304348D01*
X137588917Y-59260483D01*
X137538123Y-59212511D01*
X137521328Y-59144690D01*
X137543865Y-59078555D01*
X137588917Y-59039516D01*
X137681610Y-58992287D01*
X137775596Y-58924003D01*
X137847213Y-58871971D01*
X137847215Y-58871968D01*
X137847219Y-58871966D01*
X137991966Y-58727219D01*
X137991968Y-58727215D01*
X137991971Y-58727213D01*
X138044732Y-58654590D01*
X138112287Y-58561610D01*
X138205220Y-58379219D01*
X138268477Y-58184534D01*
X138300500Y-57982352D01*
X138300500Y-57777648D01*
X138268477Y-57575466D01*
X138266446Y-57569216D01*
X138205218Y-57380776D01*
X138171503Y-57314607D01*
X138112287Y-57198390D01*
X138104556Y-57187749D01*
X137991971Y-57032786D01*
X137847213Y-56888028D01*
X137681613Y-56767715D01*
X137681612Y-56767714D01*
X137681610Y-56767713D01*
X137583639Y-56717794D01*
X137499223Y-56674781D01*
X137304534Y-56611522D01*
X137129995Y-56583878D01*
X137102352Y-56579500D01*
X136897648Y-56579500D01*
X136873329Y-56583351D01*
X136695465Y-56611522D01*
X136500776Y-56674781D01*
X136318386Y-56767715D01*
X136152786Y-56888028D01*
X136008028Y-57032786D01*
X135887715Y-57198386D01*
X135794781Y-57380776D01*
X135731522Y-57575465D01*
X135699500Y-57777648D01*
X135699500Y-57982351D01*
X135731522Y-58184534D01*
X135794781Y-58379223D01*
X135858691Y-58504653D01*
X135885426Y-58557122D01*
X135887715Y-58561613D01*
X136008028Y-58727213D01*
X136152786Y-58871971D01*
X136307749Y-58984556D01*
X136318390Y-58992287D01*
X136409840Y-59038883D01*
X136411080Y-59039515D01*
X136461876Y-59087490D01*
X136478671Y-59155311D01*
X136456134Y-59221446D01*
X136411080Y-59260485D01*
X136318386Y-59307715D01*
X136152786Y-59428028D01*
X136008028Y-59572786D01*
X135887715Y-59738386D01*
X135794781Y-59920776D01*
X135731522Y-60115465D01*
X135699500Y-60317648D01*
X135699500Y-60522351D01*
X135731522Y-60724534D01*
X135794781Y-60919223D01*
X135887715Y-61101613D01*
X136008028Y-61267213D01*
X136152782Y-61411967D01*
X136152787Y-61411971D01*
X136229583Y-61467767D01*
X136272249Y-61523097D01*
X136278228Y-61592710D01*
X136245622Y-61654505D01*
X136187365Y-61688233D01*
X136166973Y-61693437D01*
X136166962Y-61693441D01*
X136110415Y-61716863D01*
X136870589Y-62477037D01*
X136807007Y-62494075D01*
X136692993Y-62559901D01*
X136599901Y-62652993D01*
X136534075Y-62767007D01*
X136517037Y-62830589D01*
X135756863Y-62070415D01*
X135756862Y-62070415D01*
X135733446Y-62126947D01*
X135733431Y-62126987D01*
X135715457Y-62177939D01*
X135715455Y-62177946D01*
X135695000Y-62320219D01*
X135695000Y-63599785D01*
X135697893Y-63653762D01*
X135697893Y-63653764D01*
X135733438Y-63793030D01*
X135733442Y-63793043D01*
X135756862Y-63849584D01*
X136517037Y-63089410D01*
X136534075Y-63152993D01*
X136599901Y-63267007D01*
X136692993Y-63360099D01*
X136807007Y-63425925D01*
X136870589Y-63442962D01*
X136110414Y-64203135D01*
X136166960Y-64226557D01*
X136166986Y-64226567D01*
X136195621Y-64236669D01*
X136252294Y-64277534D01*
X136277876Y-64342552D01*
X136264246Y-64411080D01*
X136227256Y-64453924D01*
X136152782Y-64508032D01*
X136008028Y-64652786D01*
X135887715Y-64818386D01*
X135794781Y-65000776D01*
X135731522Y-65195465D01*
X135699500Y-65397648D01*
X135699500Y-65602351D01*
X135731522Y-65804534D01*
X135794781Y-65999223D01*
X135827368Y-66063177D01*
X135881453Y-66169325D01*
X135887715Y-66181613D01*
X136008028Y-66347213D01*
X136152786Y-66491971D01*
X136307749Y-66604556D01*
X136318390Y-66612287D01*
X136409840Y-66658883D01*
X136411080Y-66659515D01*
X136461876Y-66707490D01*
X136478671Y-66775311D01*
X136456134Y-66841446D01*
X136411080Y-66880485D01*
X136318386Y-66927715D01*
X136152786Y-67048028D01*
X136008028Y-67192786D01*
X135887715Y-67358386D01*
X135794781Y-67540776D01*
X135731522Y-67735465D01*
X135699500Y-67937648D01*
X135699500Y-68142351D01*
X135731522Y-68344534D01*
X135794781Y-68539223D01*
X135887715Y-68721613D01*
X136008028Y-68887213D01*
X136152786Y-69031971D01*
X136307749Y-69144556D01*
X136318390Y-69152287D01*
X136409840Y-69198883D01*
X136411080Y-69199515D01*
X136461876Y-69247490D01*
X136478671Y-69315311D01*
X136456134Y-69381446D01*
X136411080Y-69420485D01*
X136318386Y-69467715D01*
X136152786Y-69588028D01*
X136008028Y-69732786D01*
X135887715Y-69898386D01*
X135794781Y-70080776D01*
X135731522Y-70275465D01*
X135699500Y-70477648D01*
X135699500Y-70682351D01*
X135731522Y-70884534D01*
X135794781Y-71079223D01*
X135887715Y-71261613D01*
X136008028Y-71427213D01*
X136152786Y-71571971D01*
X136307749Y-71684556D01*
X136318390Y-71692287D01*
X136409840Y-71738883D01*
X136411080Y-71739515D01*
X136461876Y-71787490D01*
X136478671Y-71855311D01*
X136456134Y-71921446D01*
X136411080Y-71960485D01*
X136318386Y-72007715D01*
X136152786Y-72128028D01*
X136008028Y-72272786D01*
X135887715Y-72438386D01*
X135794781Y-72620776D01*
X135731522Y-72815465D01*
X135699500Y-73017648D01*
X135699500Y-73222351D01*
X135731522Y-73424534D01*
X135794781Y-73619223D01*
X135858691Y-73744653D01*
X135878845Y-73784206D01*
X135887715Y-73801613D01*
X136008028Y-73967213D01*
X136152782Y-74111967D01*
X136152787Y-74111971D01*
X136229583Y-74167767D01*
X136272249Y-74223097D01*
X136278228Y-74292710D01*
X136245622Y-74354505D01*
X136187365Y-74388233D01*
X136166973Y-74393437D01*
X136166962Y-74393441D01*
X136110415Y-74416863D01*
X136870589Y-75177037D01*
X136807007Y-75194075D01*
X136692993Y-75259901D01*
X136599901Y-75352993D01*
X136534075Y-75467007D01*
X136517037Y-75530589D01*
X135756863Y-74770415D01*
X135756862Y-74770415D01*
X135733446Y-74826947D01*
X135733431Y-74826987D01*
X135715457Y-74877939D01*
X135715455Y-74877946D01*
X135695000Y-75020219D01*
X135695000Y-76299785D01*
X135697893Y-76353762D01*
X135697893Y-76353764D01*
X135733438Y-76493030D01*
X135733442Y-76493043D01*
X135756862Y-76549584D01*
X136517037Y-75789410D01*
X136534075Y-75852993D01*
X136599901Y-75967007D01*
X136692993Y-76060099D01*
X136807007Y-76125925D01*
X136870589Y-76142962D01*
X136110414Y-76903135D01*
X136166960Y-76926557D01*
X136166986Y-76926567D01*
X136195621Y-76936669D01*
X136252294Y-76977534D01*
X136277876Y-77042552D01*
X136264246Y-77111080D01*
X136227256Y-77153924D01*
X136152782Y-77208032D01*
X136008028Y-77352786D01*
X135887715Y-77518386D01*
X135794781Y-77700776D01*
X135731522Y-77895465D01*
X135699500Y-78097648D01*
X135699500Y-78302351D01*
X135731522Y-78504534D01*
X135794781Y-78699223D01*
X135887715Y-78881613D01*
X136008028Y-79047213D01*
X136152786Y-79191971D01*
X136307749Y-79304556D01*
X136318390Y-79312287D01*
X136409840Y-79358883D01*
X136411080Y-79359515D01*
X136461876Y-79407490D01*
X136478671Y-79475311D01*
X136456134Y-79541446D01*
X136411080Y-79580485D01*
X136318386Y-79627715D01*
X136152786Y-79748028D01*
X136008028Y-79892786D01*
X135887715Y-80058386D01*
X135794781Y-80240776D01*
X135731522Y-80435465D01*
X135699500Y-80637648D01*
X135699500Y-80842351D01*
X135731522Y-81044534D01*
X135794781Y-81239223D01*
X135887715Y-81421613D01*
X136008028Y-81587213D01*
X136152786Y-81731971D01*
X136307749Y-81844556D01*
X136318390Y-81852287D01*
X136409840Y-81898883D01*
X136411080Y-81899515D01*
X136461876Y-81947490D01*
X136478671Y-82015311D01*
X136456134Y-82081446D01*
X136411080Y-82120485D01*
X136318386Y-82167715D01*
X136152786Y-82288028D01*
X136008028Y-82432786D01*
X135887715Y-82598386D01*
X135794781Y-82780776D01*
X135731522Y-82975465D01*
X135699500Y-83177648D01*
X135699500Y-83382351D01*
X135731522Y-83584534D01*
X135794781Y-83779223D01*
X135887715Y-83961613D01*
X136008028Y-84127213D01*
X136152786Y-84271971D01*
X136307749Y-84384556D01*
X136318390Y-84392287D01*
X136396131Y-84431898D01*
X136411080Y-84439515D01*
X136461876Y-84487490D01*
X136478671Y-84555311D01*
X136456134Y-84621446D01*
X136411080Y-84660485D01*
X136318386Y-84707715D01*
X136152786Y-84828028D01*
X136008028Y-84972786D01*
X135887715Y-85138386D01*
X135794781Y-85320776D01*
X135731522Y-85515465D01*
X135699500Y-85717648D01*
X135699500Y-85922351D01*
X135731522Y-86124534D01*
X135794781Y-86319223D01*
X135887715Y-86501613D01*
X136008028Y-86667213D01*
X136152782Y-86811967D01*
X136152787Y-86811971D01*
X136229583Y-86867767D01*
X136272249Y-86923097D01*
X136278228Y-86992710D01*
X136245622Y-87054505D01*
X136187365Y-87088233D01*
X136166973Y-87093437D01*
X136166962Y-87093441D01*
X136110415Y-87116863D01*
X136870589Y-87877037D01*
X136807007Y-87894075D01*
X136692993Y-87959901D01*
X136599901Y-88052993D01*
X136534075Y-88167007D01*
X136517037Y-88230589D01*
X135756863Y-87470415D01*
X135756862Y-87470415D01*
X135733446Y-87526947D01*
X135733431Y-87526987D01*
X135715457Y-87577939D01*
X135715455Y-87577946D01*
X135695000Y-87720219D01*
X135695000Y-88999785D01*
X135697893Y-89053762D01*
X135697893Y-89053764D01*
X135733438Y-89193030D01*
X135733442Y-89193043D01*
X135756862Y-89249584D01*
X136517037Y-88489410D01*
X136534075Y-88552993D01*
X136599901Y-88667007D01*
X136692993Y-88760099D01*
X136807007Y-88825925D01*
X136870589Y-88842962D01*
X136110414Y-89603135D01*
X136166960Y-89626557D01*
X136166986Y-89626567D01*
X136195621Y-89636669D01*
X136252294Y-89677534D01*
X136277876Y-89742552D01*
X136264246Y-89811080D01*
X136227256Y-89853924D01*
X136152782Y-89908032D01*
X136008028Y-90052786D01*
X135887715Y-90218386D01*
X135794781Y-90400776D01*
X135731522Y-90595465D01*
X135699500Y-90797648D01*
X135699500Y-91002351D01*
X135731522Y-91204534D01*
X135794781Y-91399223D01*
X135887715Y-91581613D01*
X136008028Y-91747213D01*
X136152786Y-91891971D01*
X136307749Y-92004556D01*
X136318390Y-92012287D01*
X136409840Y-92058883D01*
X136411080Y-92059515D01*
X136461876Y-92107490D01*
X136478671Y-92175311D01*
X136456134Y-92241446D01*
X136411080Y-92280485D01*
X136318386Y-92327715D01*
X136152786Y-92448028D01*
X136008028Y-92592786D01*
X135887715Y-92758386D01*
X135794781Y-92940776D01*
X135731522Y-93135465D01*
X135699500Y-93337648D01*
X135699500Y-93542351D01*
X135731522Y-93744534D01*
X135794781Y-93939223D01*
X135887715Y-94121613D01*
X136008028Y-94287213D01*
X136152786Y-94431971D01*
X136307749Y-94544556D01*
X136318390Y-94552287D01*
X136409840Y-94598883D01*
X136411080Y-94599515D01*
X136461876Y-94647490D01*
X136478671Y-94715311D01*
X136456134Y-94781446D01*
X136411080Y-94820485D01*
X136318386Y-94867715D01*
X136152786Y-94988028D01*
X136008028Y-95132786D01*
X135887715Y-95298386D01*
X135794781Y-95480776D01*
X135731522Y-95675465D01*
X135699500Y-95877648D01*
X135699500Y-96082351D01*
X135731522Y-96284534D01*
X135794781Y-96479223D01*
X135846036Y-96579815D01*
X135884957Y-96656202D01*
X135887715Y-96661613D01*
X136008028Y-96827213D01*
X136152786Y-96971971D01*
X136307749Y-97084556D01*
X136318390Y-97092287D01*
X136409840Y-97138883D01*
X136411080Y-97139515D01*
X136461876Y-97187490D01*
X136478671Y-97255311D01*
X136456134Y-97321446D01*
X136411080Y-97360485D01*
X136318386Y-97407715D01*
X136152786Y-97528028D01*
X136008028Y-97672786D01*
X135887715Y-97838386D01*
X135794781Y-98020776D01*
X135731522Y-98215465D01*
X135699500Y-98417648D01*
X135699500Y-98622351D01*
X135731522Y-98824534D01*
X135794781Y-99019223D01*
X135857507Y-99142328D01*
X135871261Y-99169322D01*
X135887715Y-99201613D01*
X136008028Y-99367213D01*
X136152782Y-99511967D01*
X136152787Y-99511971D01*
X136229583Y-99567767D01*
X136272249Y-99623097D01*
X136278228Y-99692710D01*
X136245622Y-99754505D01*
X136187365Y-99788233D01*
X136166973Y-99793437D01*
X136166962Y-99793441D01*
X136110415Y-99816863D01*
X136870589Y-100577037D01*
X136807007Y-100594075D01*
X136692993Y-100659901D01*
X136599901Y-100752993D01*
X136534075Y-100867007D01*
X136517037Y-100930589D01*
X135756863Y-100170415D01*
X135756862Y-100170415D01*
X135733446Y-100226947D01*
X135733431Y-100226987D01*
X135715457Y-100277939D01*
X135715455Y-100277946D01*
X135695000Y-100420219D01*
X135695000Y-101699785D01*
X135697893Y-101753762D01*
X135697893Y-101753764D01*
X135733438Y-101893030D01*
X135733442Y-101893043D01*
X135756862Y-101949584D01*
X136517037Y-101189410D01*
X136534075Y-101252993D01*
X136599901Y-101367007D01*
X136692993Y-101460099D01*
X136807007Y-101525925D01*
X136870589Y-101542962D01*
X136110414Y-102303135D01*
X136166960Y-102326557D01*
X136166986Y-102326567D01*
X136195621Y-102336669D01*
X136252294Y-102377534D01*
X136277876Y-102442552D01*
X136264246Y-102511080D01*
X136227256Y-102553924D01*
X136152782Y-102608032D01*
X136008028Y-102752786D01*
X135887715Y-102918386D01*
X135794781Y-103100776D01*
X135731522Y-103295465D01*
X135699500Y-103497648D01*
X135699500Y-103702351D01*
X135731522Y-103904534D01*
X135794781Y-104099223D01*
X135887715Y-104281613D01*
X136008028Y-104447213D01*
X136152782Y-104591967D01*
X136152787Y-104591971D01*
X136228272Y-104646814D01*
X136270938Y-104702143D01*
X136276917Y-104771757D01*
X136244312Y-104833552D01*
X136217320Y-104853462D01*
X136217719Y-104854112D01*
X136213573Y-104856652D01*
X136110482Y-104931552D01*
X136022490Y-104995483D01*
X136022488Y-104995485D01*
X136022487Y-104995485D01*
X135855485Y-105162487D01*
X135855485Y-105162488D01*
X135855483Y-105162490D01*
X135795862Y-105244550D01*
X135716657Y-105353566D01*
X135609433Y-105564003D01*
X135536446Y-105788631D01*
X135499500Y-106021902D01*
X132185500Y-106021902D01*
X132185500Y-105903713D01*
X132152246Y-105693757D01*
X132086557Y-105491588D01*
X131990051Y-105302184D01*
X131990049Y-105302181D01*
X131990048Y-105302179D01*
X131865109Y-105130213D01*
X131714786Y-104979890D01*
X131542820Y-104854951D01*
X131353414Y-104758444D01*
X131353413Y-104758443D01*
X131353412Y-104758443D01*
X131151243Y-104692754D01*
X131151241Y-104692753D01*
X131151240Y-104692753D01*
X130989957Y-104667208D01*
X130941287Y-104659500D01*
X130728713Y-104659500D01*
X130680042Y-104667208D01*
X130518760Y-104692753D01*
X130316585Y-104758444D01*
X130127179Y-104854951D01*
X129955213Y-104979890D01*
X129804890Y-105130213D01*
X129679951Y-105302179D01*
X129583444Y-105491585D01*
X129517753Y-105693760D01*
X129484500Y-105903713D01*
X126735500Y-105903713D01*
X126702246Y-105693757D01*
X126636557Y-105491588D01*
X126540051Y-105302184D01*
X126540049Y-105302181D01*
X126540048Y-105302179D01*
X126415109Y-105130213D01*
X126264786Y-104979890D01*
X126092820Y-104854951D01*
X125903414Y-104758444D01*
X125903413Y-104758443D01*
X125903412Y-104758443D01*
X125701243Y-104692754D01*
X125701241Y-104692753D01*
X125701240Y-104692753D01*
X125539957Y-104667208D01*
X125491287Y-104659500D01*
X125278713Y-104659500D01*
X125230042Y-104667208D01*
X125068760Y-104692753D01*
X124866585Y-104758444D01*
X124677179Y-104854951D01*
X124505213Y-104979890D01*
X124354890Y-105130213D01*
X124229951Y-105302179D01*
X124133444Y-105491585D01*
X124067753Y-105693760D01*
X124034500Y-105903713D01*
X120520500Y-105903713D01*
X120520500Y-105483384D01*
X120514086Y-105412804D01*
X120463478Y-105250394D01*
X120375472Y-105104815D01*
X120375470Y-105104813D01*
X120375469Y-105104811D01*
X120255188Y-104984530D01*
X120255185Y-104984528D01*
X120109606Y-104896522D01*
X120109604Y-104896521D01*
X120109602Y-104896520D01*
X120109603Y-104896520D01*
X120022435Y-104869358D01*
X119964287Y-104830621D01*
X119936313Y-104766595D01*
X119947395Y-104697610D01*
X119986441Y-104650654D01*
X119991727Y-104646814D01*
X120067219Y-104591966D01*
X120211966Y-104447219D01*
X120211968Y-104447215D01*
X120211971Y-104447213D01*
X120264732Y-104374590D01*
X120332287Y-104281610D01*
X120425220Y-104099219D01*
X120488477Y-103904534D01*
X120520500Y-103702352D01*
X120520500Y-103497648D01*
X120488477Y-103295466D01*
X120425220Y-103100781D01*
X120425218Y-103100778D01*
X120425218Y-103100776D01*
X120342742Y-102938909D01*
X120342741Y-102938907D01*
X120332286Y-102918388D01*
X120309835Y-102887486D01*
X124509500Y-102887486D01*
X124509500Y-103072513D01*
X124538445Y-103255265D01*
X124595619Y-103431232D01*
X124595620Y-103431235D01*
X124679622Y-103596096D01*
X124788379Y-103745787D01*
X124919213Y-103876621D01*
X125068904Y-103985378D01*
X125149763Y-104026577D01*
X125233764Y-104069379D01*
X125233767Y-104069380D01*
X125321750Y-104097967D01*
X125409736Y-104126555D01*
X125592486Y-104155500D01*
X125592487Y-104155500D01*
X125777513Y-104155500D01*
X125777514Y-104155500D01*
X125960264Y-104126555D01*
X126136235Y-104069379D01*
X126301096Y-103985378D01*
X126450787Y-103876621D01*
X126581621Y-103745787D01*
X126690378Y-103596096D01*
X126774379Y-103431235D01*
X126831555Y-103255264D01*
X126860500Y-103072514D01*
X126860500Y-102887486D01*
X129359500Y-102887486D01*
X129359500Y-103072513D01*
X129388445Y-103255265D01*
X129445619Y-103431232D01*
X129445620Y-103431235D01*
X129529622Y-103596096D01*
X129638379Y-103745787D01*
X129769213Y-103876621D01*
X129918904Y-103985378D01*
X129999763Y-104026577D01*
X130083764Y-104069379D01*
X130083767Y-104069380D01*
X130171750Y-104097967D01*
X130259736Y-104126555D01*
X130442486Y-104155500D01*
X130442487Y-104155500D01*
X130627513Y-104155500D01*
X130627514Y-104155500D01*
X130810264Y-104126555D01*
X130986235Y-104069379D01*
X131151096Y-103985378D01*
X131300787Y-103876621D01*
X131431621Y-103745787D01*
X131540378Y-103596096D01*
X131624379Y-103431235D01*
X131681555Y-103255264D01*
X131710500Y-103072514D01*
X131710500Y-102887486D01*
X131681555Y-102704736D01*
X131624379Y-102528765D01*
X131624379Y-102528764D01*
X131556110Y-102394780D01*
X131540378Y-102363904D01*
X131431621Y-102214213D01*
X131300787Y-102083379D01*
X131151096Y-101974622D01*
X130986235Y-101890620D01*
X130986232Y-101890619D01*
X130810265Y-101833445D01*
X130718889Y-101818972D01*
X130627514Y-101804500D01*
X130442486Y-101804500D01*
X130381569Y-101814148D01*
X130259734Y-101833445D01*
X130083767Y-101890619D01*
X130083764Y-101890620D01*
X129918903Y-101974622D01*
X129833499Y-102036672D01*
X129769213Y-102083379D01*
X129769211Y-102083381D01*
X129769210Y-102083381D01*
X129638381Y-102214210D01*
X129638381Y-102214211D01*
X129638379Y-102214213D01*
X129603651Y-102262012D01*
X129529622Y-102363903D01*
X129445620Y-102528764D01*
X129445619Y-102528767D01*
X129388445Y-102704734D01*
X129359500Y-102887486D01*
X126860500Y-102887486D01*
X126831555Y-102704736D01*
X126774379Y-102528765D01*
X126774379Y-102528764D01*
X126706110Y-102394780D01*
X126690378Y-102363904D01*
X126581621Y-102214213D01*
X126450787Y-102083379D01*
X126301096Y-101974622D01*
X126136235Y-101890620D01*
X126136232Y-101890619D01*
X125960265Y-101833445D01*
X125868889Y-101818972D01*
X125777514Y-101804500D01*
X125592486Y-101804500D01*
X125531569Y-101814148D01*
X125409734Y-101833445D01*
X125233767Y-101890619D01*
X125233764Y-101890620D01*
X125068903Y-101974622D01*
X124983499Y-102036672D01*
X124919213Y-102083379D01*
X124919211Y-102083381D01*
X124919210Y-102083381D01*
X124788381Y-102214210D01*
X124788381Y-102214211D01*
X124788379Y-102214213D01*
X124753651Y-102262012D01*
X124679622Y-102363903D01*
X124595620Y-102528764D01*
X124595619Y-102528767D01*
X124538445Y-102704734D01*
X124509500Y-102887486D01*
X120309835Y-102887486D01*
X120211971Y-102752786D01*
X120067217Y-102608032D01*
X119990415Y-102552232D01*
X119947750Y-102496902D01*
X119941771Y-102427288D01*
X119974377Y-102365494D01*
X120032640Y-102331765D01*
X120053039Y-102326559D01*
X120109584Y-102303136D01*
X120109584Y-102303135D01*
X119349410Y-101542962D01*
X119412993Y-101525925D01*
X119527007Y-101460099D01*
X119620099Y-101367007D01*
X119685925Y-101252993D01*
X119702962Y-101189411D01*
X120463135Y-101949584D01*
X120463136Y-101949584D01*
X120486552Y-101893053D01*
X120504544Y-101842053D01*
X120524999Y-101699780D01*
X120525000Y-101699779D01*
X120525000Y-100420224D01*
X120524999Y-100420204D01*
X120522106Y-100366237D01*
X120522106Y-100366235D01*
X120486561Y-100226969D01*
X120486559Y-100226962D01*
X120463135Y-100170414D01*
X119702962Y-100930588D01*
X119685925Y-100867007D01*
X119620099Y-100752993D01*
X119527007Y-100659901D01*
X119412993Y-100594075D01*
X119349410Y-100577037D01*
X120109584Y-99816862D01*
X120053059Y-99793449D01*
X120053048Y-99793445D01*
X120024374Y-99783329D01*
X119967703Y-99742462D01*
X119942122Y-99677443D01*
X119955754Y-99608916D01*
X119992745Y-99566074D01*
X120067215Y-99511969D01*
X120067215Y-99511968D01*
X120067219Y-99511966D01*
X120211966Y-99367219D01*
X120211968Y-99367215D01*
X120211971Y-99367213D01*
X120273731Y-99282206D01*
X120332287Y-99201610D01*
X120425220Y-99019219D01*
X120488477Y-98824534D01*
X120520500Y-98622352D01*
X120520500Y-98417648D01*
X120488477Y-98215466D01*
X120474904Y-98173694D01*
X120425218Y-98020776D01*
X120384445Y-97940756D01*
X120332287Y-97838390D01*
X120323508Y-97826306D01*
X120211971Y-97672786D01*
X120067213Y-97528028D01*
X119901614Y-97407715D01*
X119895006Y-97404348D01*
X119808917Y-97360483D01*
X119758123Y-97312511D01*
X119741328Y-97244690D01*
X119763865Y-97178555D01*
X119808917Y-97139516D01*
X119901610Y-97092287D01*
X119956885Y-97052128D01*
X120067213Y-96971971D01*
X120067215Y-96971968D01*
X120067219Y-96971966D01*
X120211966Y-96827219D01*
X120211968Y-96827215D01*
X120211971Y-96827213D01*
X120291790Y-96717350D01*
X120332287Y-96661610D01*
X120425220Y-96479219D01*
X120488477Y-96284534D01*
X120520500Y-96082352D01*
X120520500Y-95877648D01*
X120488477Y-95675466D01*
X120425220Y-95480781D01*
X120425218Y-95480778D01*
X120425218Y-95480776D01*
X120391503Y-95414607D01*
X120332287Y-95298390D01*
X120324556Y-95287749D01*
X120211971Y-95132786D01*
X120067213Y-94988028D01*
X119901614Y-94867715D01*
X119895006Y-94864348D01*
X119808917Y-94820483D01*
X119758123Y-94772511D01*
X119741328Y-94704690D01*
X119763865Y-94638555D01*
X119808917Y-94599516D01*
X119901610Y-94552287D01*
X119922770Y-94536913D01*
X120067213Y-94431971D01*
X120067215Y-94431968D01*
X120067219Y-94431966D01*
X120211966Y-94287219D01*
X120211968Y-94287215D01*
X120211971Y-94287213D01*
X120264732Y-94214590D01*
X120332287Y-94121610D01*
X120425220Y-93939219D01*
X120488477Y-93744534D01*
X120520500Y-93542352D01*
X120520500Y-93337648D01*
X120488477Y-93135466D01*
X120425220Y-92940781D01*
X120425218Y-92940778D01*
X120425218Y-92940776D01*
X120391503Y-92874607D01*
X120332287Y-92758390D01*
X120298191Y-92711460D01*
X120211971Y-92592786D01*
X120067213Y-92448028D01*
X119901614Y-92327715D01*
X119895006Y-92324348D01*
X119808917Y-92280483D01*
X119758123Y-92232511D01*
X119741328Y-92164690D01*
X119763865Y-92098555D01*
X119808917Y-92059516D01*
X119901610Y-92012287D01*
X119922770Y-91996913D01*
X120067213Y-91891971D01*
X120067215Y-91891968D01*
X120067219Y-91891966D01*
X120211966Y-91747219D01*
X120211968Y-91747215D01*
X120211971Y-91747213D01*
X120264732Y-91674590D01*
X120332287Y-91581610D01*
X120425220Y-91399219D01*
X120488477Y-91204534D01*
X120520500Y-91002352D01*
X120520500Y-90797648D01*
X120488477Y-90595466D01*
X120425220Y-90400781D01*
X120425218Y-90400778D01*
X120425218Y-90400776D01*
X120391503Y-90334607D01*
X120332287Y-90218390D01*
X120324556Y-90207749D01*
X120211971Y-90052786D01*
X120067217Y-89908032D01*
X119990415Y-89852232D01*
X119947750Y-89796902D01*
X119941771Y-89727288D01*
X119974377Y-89665494D01*
X120032640Y-89631765D01*
X120053039Y-89626559D01*
X120109584Y-89603136D01*
X120109584Y-89603135D01*
X119349410Y-88842962D01*
X119412993Y-88825925D01*
X119527007Y-88760099D01*
X119620099Y-88667007D01*
X119685925Y-88552993D01*
X119702962Y-88489411D01*
X120463135Y-89249584D01*
X120463136Y-89249584D01*
X120486552Y-89193053D01*
X120504544Y-89142053D01*
X120524999Y-88999780D01*
X120525000Y-88999779D01*
X120525000Y-87720224D01*
X120524999Y-87720204D01*
X120522106Y-87666237D01*
X120522106Y-87666235D01*
X120486561Y-87526969D01*
X120486559Y-87526962D01*
X120463135Y-87470414D01*
X119702962Y-88230588D01*
X119685925Y-88167007D01*
X119620099Y-88052993D01*
X119527007Y-87959901D01*
X119412993Y-87894075D01*
X119349410Y-87877037D01*
X120109584Y-87116862D01*
X120053059Y-87093449D01*
X120053048Y-87093445D01*
X120024374Y-87083329D01*
X119967703Y-87042462D01*
X119942122Y-86977443D01*
X119955754Y-86908916D01*
X119992745Y-86866074D01*
X120067215Y-86811969D01*
X120067215Y-86811968D01*
X120067219Y-86811966D01*
X120211966Y-86667219D01*
X120211968Y-86667215D01*
X120211971Y-86667213D01*
X120287553Y-86563181D01*
X120332287Y-86501610D01*
X120425220Y-86319219D01*
X120488477Y-86124534D01*
X120520500Y-85922352D01*
X120520500Y-85717648D01*
X120488477Y-85515466D01*
X120425220Y-85320781D01*
X120425218Y-85320778D01*
X120425218Y-85320776D01*
X120391503Y-85254607D01*
X120332287Y-85138390D01*
X120324556Y-85127749D01*
X120211971Y-84972786D01*
X120067213Y-84828028D01*
X119901614Y-84707715D01*
X119895006Y-84704348D01*
X119808917Y-84660483D01*
X119758123Y-84612511D01*
X119741328Y-84544690D01*
X119763865Y-84478555D01*
X119808917Y-84439516D01*
X119901610Y-84392287D01*
X119967773Y-84344217D01*
X120067213Y-84271971D01*
X120067215Y-84271968D01*
X120067219Y-84271966D01*
X120211966Y-84127219D01*
X120211968Y-84127215D01*
X120211971Y-84127213D01*
X120320734Y-83977511D01*
X120332287Y-83961610D01*
X120425220Y-83779219D01*
X120488477Y-83584534D01*
X120520500Y-83382352D01*
X120520500Y-83177648D01*
X120488477Y-82975466D01*
X120425220Y-82780781D01*
X120425218Y-82780778D01*
X120425218Y-82780776D01*
X120391503Y-82714607D01*
X120332287Y-82598390D01*
X120324556Y-82587749D01*
X120211971Y-82432786D01*
X120067213Y-82288028D01*
X119901614Y-82167715D01*
X119895006Y-82164348D01*
X119808917Y-82120483D01*
X119758123Y-82072511D01*
X119741328Y-82004690D01*
X119763865Y-81938555D01*
X119808917Y-81899516D01*
X119901610Y-81852287D01*
X119922770Y-81836913D01*
X120067213Y-81731971D01*
X120067215Y-81731968D01*
X120067219Y-81731966D01*
X120211966Y-81587219D01*
X120211968Y-81587215D01*
X120211971Y-81587213D01*
X120264732Y-81514590D01*
X120332287Y-81421610D01*
X120425220Y-81239219D01*
X120488477Y-81044534D01*
X120520500Y-80842352D01*
X120520500Y-80637648D01*
X120488477Y-80435466D01*
X120425220Y-80240781D01*
X120425218Y-80240778D01*
X120425218Y-80240776D01*
X120391503Y-80174607D01*
X120332287Y-80058390D01*
X120324556Y-80047749D01*
X120211971Y-79892786D01*
X120067213Y-79748028D01*
X119901614Y-79627715D01*
X119895006Y-79624348D01*
X119808917Y-79580483D01*
X119758123Y-79532511D01*
X119741328Y-79464690D01*
X119763865Y-79398555D01*
X119808917Y-79359516D01*
X119901610Y-79312287D01*
X119922770Y-79296913D01*
X120067213Y-79191971D01*
X120067215Y-79191968D01*
X120067219Y-79191966D01*
X120211966Y-79047219D01*
X120211968Y-79047215D01*
X120211971Y-79047213D01*
X120264732Y-78974590D01*
X120332287Y-78881610D01*
X120425220Y-78699219D01*
X120488477Y-78504534D01*
X120520500Y-78302352D01*
X120520500Y-78097648D01*
X120488477Y-77895466D01*
X120425220Y-77700781D01*
X120425218Y-77700778D01*
X120425218Y-77700776D01*
X120391503Y-77634607D01*
X120332287Y-77518390D01*
X120279112Y-77445200D01*
X120211971Y-77352786D01*
X120067217Y-77208032D01*
X119990415Y-77152232D01*
X119947750Y-77096902D01*
X119941771Y-77027288D01*
X119974377Y-76965494D01*
X120032640Y-76931765D01*
X120053039Y-76926559D01*
X120109584Y-76903136D01*
X120109584Y-76903135D01*
X119349410Y-76142962D01*
X119412993Y-76125925D01*
X119527007Y-76060099D01*
X119620099Y-75967007D01*
X119685925Y-75852993D01*
X119702962Y-75789411D01*
X120463135Y-76549584D01*
X120463136Y-76549584D01*
X120486552Y-76493053D01*
X120504544Y-76442053D01*
X120524999Y-76299780D01*
X120525000Y-76299779D01*
X120525000Y-75020224D01*
X120524999Y-75020204D01*
X120522106Y-74966237D01*
X120522106Y-74966235D01*
X120486561Y-74826969D01*
X120486559Y-74826962D01*
X120463135Y-74770414D01*
X119702962Y-75530588D01*
X119685925Y-75467007D01*
X119620099Y-75352993D01*
X119527007Y-75259901D01*
X119412993Y-75194075D01*
X119349410Y-75177037D01*
X120109584Y-74416862D01*
X120053059Y-74393449D01*
X120053048Y-74393445D01*
X120024374Y-74383329D01*
X119967703Y-74342462D01*
X119942122Y-74277443D01*
X119955754Y-74208916D01*
X119992745Y-74166074D01*
X120067215Y-74111969D01*
X120067215Y-74111968D01*
X120067219Y-74111966D01*
X120211966Y-73967219D01*
X120211968Y-73967215D01*
X120211971Y-73967213D01*
X120264732Y-73894590D01*
X120332287Y-73801610D01*
X120425220Y-73619219D01*
X120488477Y-73424534D01*
X120520500Y-73222352D01*
X120520500Y-73017648D01*
X120488477Y-72815466D01*
X120425220Y-72620781D01*
X120425218Y-72620778D01*
X120425218Y-72620776D01*
X120381113Y-72534217D01*
X120332287Y-72438390D01*
X120324556Y-72427749D01*
X120211971Y-72272786D01*
X120067213Y-72128028D01*
X119901614Y-72007715D01*
X119895006Y-72004348D01*
X119808917Y-71960483D01*
X119758123Y-71912511D01*
X119741328Y-71844690D01*
X119763865Y-71778555D01*
X119808917Y-71739516D01*
X119901610Y-71692287D01*
X119922770Y-71676913D01*
X120067213Y-71571971D01*
X120067215Y-71571968D01*
X120067219Y-71571966D01*
X120211966Y-71427219D01*
X120211968Y-71427215D01*
X120211971Y-71427213D01*
X120264732Y-71354590D01*
X120332287Y-71261610D01*
X120425220Y-71079219D01*
X120488477Y-70884534D01*
X120520500Y-70682352D01*
X120520500Y-70477648D01*
X120488477Y-70275466D01*
X120425220Y-70080781D01*
X120425218Y-70080778D01*
X120425218Y-70080776D01*
X120391503Y-70014607D01*
X120332287Y-69898390D01*
X120324556Y-69887749D01*
X120211971Y-69732786D01*
X120067213Y-69588028D01*
X119901614Y-69467715D01*
X119895006Y-69464348D01*
X119808917Y-69420483D01*
X119758123Y-69372511D01*
X119741328Y-69304690D01*
X119763865Y-69238555D01*
X119808917Y-69199516D01*
X119901610Y-69152287D01*
X119922770Y-69136913D01*
X120067213Y-69031971D01*
X120067215Y-69031968D01*
X120067219Y-69031966D01*
X120211966Y-68887219D01*
X120211968Y-68887215D01*
X120211971Y-68887213D01*
X120264732Y-68814590D01*
X120332287Y-68721610D01*
X120425220Y-68539219D01*
X120488477Y-68344534D01*
X120520500Y-68142352D01*
X120520500Y-67937648D01*
X120488477Y-67735466D01*
X120425220Y-67540781D01*
X120425218Y-67540778D01*
X120425218Y-67540776D01*
X120391503Y-67474607D01*
X120332287Y-67358390D01*
X120324556Y-67347749D01*
X120211971Y-67192786D01*
X120067213Y-67048028D01*
X119901614Y-66927715D01*
X119895006Y-66924348D01*
X119808917Y-66880483D01*
X119758123Y-66832511D01*
X119741328Y-66764690D01*
X119763865Y-66698555D01*
X119808917Y-66659516D01*
X119901610Y-66612287D01*
X119922770Y-66596913D01*
X120067213Y-66491971D01*
X120067215Y-66491968D01*
X120067219Y-66491966D01*
X120211966Y-66347219D01*
X120211968Y-66347215D01*
X120211971Y-66347213D01*
X120295806Y-66231822D01*
X120332287Y-66181610D01*
X120425220Y-65999219D01*
X120488477Y-65804534D01*
X120520500Y-65602352D01*
X120520500Y-65397648D01*
X120514551Y-65360090D01*
X120488477Y-65195465D01*
X120425218Y-65000776D01*
X120336320Y-64826306D01*
X120332287Y-64818390D01*
X120324556Y-64807749D01*
X120211971Y-64652786D01*
X120067217Y-64508032D01*
X119990415Y-64452232D01*
X119947750Y-64396902D01*
X119941771Y-64327288D01*
X119974377Y-64265494D01*
X120032640Y-64231765D01*
X120053039Y-64226559D01*
X120109584Y-64203136D01*
X120109584Y-64203135D01*
X119349410Y-63442962D01*
X119412993Y-63425925D01*
X119527007Y-63360099D01*
X119620099Y-63267007D01*
X119685925Y-63152993D01*
X119702962Y-63089411D01*
X120463135Y-63849584D01*
X120463136Y-63849584D01*
X120486552Y-63793053D01*
X120504544Y-63742053D01*
X120524999Y-63599780D01*
X120525000Y-63599779D01*
X120525000Y-62320214D01*
X120522106Y-62266237D01*
X120522106Y-62266235D01*
X120486561Y-62126969D01*
X120486559Y-62126962D01*
X120463135Y-62070414D01*
X119702962Y-62830588D01*
X119685925Y-62767007D01*
X119620099Y-62652993D01*
X119527007Y-62559901D01*
X119412993Y-62494075D01*
X119349410Y-62477037D01*
X120109584Y-61716862D01*
X120053059Y-61693449D01*
X120053048Y-61693445D01*
X120024374Y-61683329D01*
X119967703Y-61642462D01*
X119942122Y-61577443D01*
X119955754Y-61508916D01*
X119992745Y-61466074D01*
X120067215Y-61411969D01*
X120067215Y-61411968D01*
X120067219Y-61411966D01*
X120211966Y-61267219D01*
X120211968Y-61267215D01*
X120211971Y-61267213D01*
X120264732Y-61194590D01*
X120332287Y-61101610D01*
X120425220Y-60919219D01*
X120488477Y-60724534D01*
X120497098Y-60670104D01*
X121010000Y-60670104D01*
X121010000Y-60670105D01*
X121010000Y-65010000D01*
X135210000Y-65010000D01*
X135210000Y-60670105D01*
X135209999Y-60670104D01*
X132512194Y-58575000D01*
X130912843Y-57332951D01*
X130557944Y-57057338D01*
X130517069Y-57000672D01*
X130510000Y-56959402D01*
X130510000Y-56010000D01*
X125710000Y-56010000D01*
X125710000Y-56959402D01*
X125690315Y-57026441D01*
X125662056Y-57057338D01*
X121010000Y-60670104D01*
X120497098Y-60670104D01*
X120520500Y-60522352D01*
X120520500Y-60317648D01*
X120515157Y-60283914D01*
X120488477Y-60115465D01*
X120425218Y-59920776D01*
X120391503Y-59854607D01*
X120332287Y-59738390D01*
X120324556Y-59727749D01*
X120211971Y-59572786D01*
X120067213Y-59428028D01*
X119901614Y-59307715D01*
X119895006Y-59304348D01*
X119808917Y-59260483D01*
X119758123Y-59212511D01*
X119741328Y-59144690D01*
X119763865Y-59078555D01*
X119808917Y-59039516D01*
X119901610Y-58992287D01*
X119995596Y-58924003D01*
X120067213Y-58871971D01*
X120067215Y-58871968D01*
X120067219Y-58871966D01*
X120211966Y-58727219D01*
X120211968Y-58727215D01*
X120211971Y-58727213D01*
X120264732Y-58654590D01*
X120332287Y-58561610D01*
X120425220Y-58379219D01*
X120488477Y-58184534D01*
X120520500Y-57982352D01*
X120520500Y-57777648D01*
X120488477Y-57575466D01*
X120486446Y-57569216D01*
X120425218Y-57380776D01*
X120391503Y-57314607D01*
X120332287Y-57198390D01*
X120324556Y-57187749D01*
X120211971Y-57032786D01*
X120067213Y-56888028D01*
X119901613Y-56767715D01*
X119901612Y-56767714D01*
X119901610Y-56767713D01*
X119803639Y-56717794D01*
X119719223Y-56674781D01*
X119524534Y-56611522D01*
X119349995Y-56583878D01*
X119322352Y-56579500D01*
X119117648Y-56579500D01*
X119093329Y-56583351D01*
X118915465Y-56611522D01*
X118720776Y-56674781D01*
X118538386Y-56767715D01*
X118372786Y-56888028D01*
X118228028Y-57032786D01*
X118107715Y-57198386D01*
X118014781Y-57380776D01*
X117951522Y-57575465D01*
X117919500Y-57777648D01*
X117919500Y-57982351D01*
X117951522Y-58184534D01*
X118014781Y-58379223D01*
X118078691Y-58504653D01*
X118105426Y-58557122D01*
X118107715Y-58561613D01*
X118228028Y-58727213D01*
X118372786Y-58871971D01*
X118527749Y-58984556D01*
X118538390Y-58992287D01*
X118629840Y-59038883D01*
X118631080Y-59039515D01*
X118681876Y-59087490D01*
X118698671Y-59155311D01*
X118676134Y-59221446D01*
X118631080Y-59260485D01*
X118538386Y-59307715D01*
X118372786Y-59428028D01*
X118228028Y-59572786D01*
X118107715Y-59738386D01*
X118014781Y-59920776D01*
X117951522Y-60115465D01*
X117919500Y-60317648D01*
X117919500Y-60522351D01*
X117951522Y-60724534D01*
X118014781Y-60919223D01*
X118107715Y-61101613D01*
X118228028Y-61267213D01*
X118372786Y-61411971D01*
X118538388Y-61532286D01*
X118538390Y-61532287D01*
X118624294Y-61576057D01*
X118675090Y-61624031D01*
X118691886Y-61691852D01*
X118669349Y-61757987D01*
X118626455Y-61795899D01*
X118560497Y-61831155D01*
X118491086Y-61877534D01*
X118491085Y-61877534D01*
X119090589Y-62477037D01*
X119027007Y-62494075D01*
X118912993Y-62559901D01*
X118819901Y-62652993D01*
X118754075Y-62767007D01*
X118737037Y-62830588D01*
X118137534Y-62231085D01*
X118137534Y-62231086D01*
X118091158Y-62300493D01*
X118044490Y-62387801D01*
X117984185Y-62533387D01*
X117955444Y-62628135D01*
X117924701Y-62782697D01*
X117924701Y-62782700D01*
X117915000Y-62881210D01*
X115500500Y-62881210D01*
X115500500Y-51096579D01*
X192869361Y-51096579D01*
X192869361Y-51250000D01*
X193619361Y-51250000D01*
X193619361Y-51750000D01*
X192869361Y-51750000D01*
X192869361Y-51903420D01*
X192909709Y-52106266D01*
X192909711Y-52106274D01*
X192988861Y-52297358D01*
X192988866Y-52297368D01*
X193103771Y-52469335D01*
X193103774Y-52469339D01*
X193250021Y-52615586D01*
X193250025Y-52615589D01*
X193421992Y-52730494D01*
X193422002Y-52730499D01*
X193613084Y-52809648D01*
X193613086Y-52809649D01*
X193669361Y-52820842D01*
X193669361Y-51966988D01*
X193679301Y-51984205D01*
X193735156Y-52040060D01*
X193803565Y-52079556D01*
X193879865Y-52100000D01*
X193958857Y-52100000D01*
X194035157Y-52079556D01*
X194103566Y-52040060D01*
X194159421Y-51984205D01*
X194169361Y-51966988D01*
X194169361Y-52820842D01*
X194225635Y-52809649D01*
X194225637Y-52809648D01*
X194416719Y-52730499D01*
X194416729Y-52730494D01*
X194588696Y-52615589D01*
X194588700Y-52615586D01*
X194674166Y-52530119D01*
X194735489Y-52496633D01*
X194805180Y-52501617D01*
X194849529Y-52530118D01*
X194854483Y-52535072D01*
X194999965Y-52623019D01*
X194999964Y-52623019D01*
X195162255Y-52673590D01*
X195162254Y-52673590D01*
X195232769Y-52679998D01*
X195232787Y-52679999D01*
X195239360Y-52679998D01*
X195239361Y-52679998D01*
X195239361Y-51830000D01*
X194583361Y-51830000D01*
X194516322Y-51810315D01*
X194494551Y-51785190D01*
X194459361Y-51750000D01*
X194219361Y-51750000D01*
X194219361Y-51250000D01*
X194975361Y-51250000D01*
X195042400Y-51269685D01*
X195064170Y-51294809D01*
X195099361Y-51330000D01*
X195239361Y-51330000D01*
X195239361Y-50480000D01*
X195239360Y-50479999D01*
X195232797Y-50480000D01*
X195232778Y-50480001D01*
X195162258Y-50486408D01*
X195162253Y-50486409D01*
X194999962Y-50536981D01*
X194999960Y-50536982D01*
X194915617Y-50587969D01*
X194848062Y-50605805D01*
X194781589Y-50584287D01*
X194748364Y-50550741D01*
X194734946Y-50530659D01*
X194588700Y-50384413D01*
X194588696Y-50384410D01*
X194416729Y-50269505D01*
X194416719Y-50269500D01*
X194225633Y-50190349D01*
X194225628Y-50190347D01*
X194169361Y-50179155D01*
X194169361Y-51033011D01*
X194159421Y-51015795D01*
X194103566Y-50959940D01*
X194035157Y-50920444D01*
X193958857Y-50900000D01*
X193879865Y-50900000D01*
X193803565Y-50920444D01*
X193735156Y-50959940D01*
X193679301Y-51015795D01*
X193669361Y-51033011D01*
X193669361Y-50179156D01*
X193669360Y-50179155D01*
X193613093Y-50190347D01*
X193613088Y-50190349D01*
X193422002Y-50269500D01*
X193421992Y-50269505D01*
X193250025Y-50384410D01*
X193250021Y-50384413D01*
X193103774Y-50530660D01*
X193103771Y-50530664D01*
X192988866Y-50702631D01*
X192988861Y-50702641D01*
X192909711Y-50893725D01*
X192909709Y-50893733D01*
X192869361Y-51096579D01*
X115500500Y-51096579D01*
X115500500Y-48878711D01*
X117149500Y-48878711D01*
X117149500Y-49121288D01*
X117181161Y-49361785D01*
X117243947Y-49596104D01*
X117336773Y-49820205D01*
X117336776Y-49820212D01*
X117458064Y-50030289D01*
X117458066Y-50030292D01*
X117458067Y-50030293D01*
X117605733Y-50222736D01*
X117605739Y-50222743D01*
X117777256Y-50394260D01*
X117777263Y-50394266D01*
X117839224Y-50441810D01*
X117969711Y-50541936D01*
X118179788Y-50663224D01*
X118403900Y-50756054D01*
X118638211Y-50818838D01*
X118818586Y-50842584D01*
X118878711Y-50850500D01*
X118878712Y-50850500D01*
X119121289Y-50850500D01*
X119169388Y-50844167D01*
X119361789Y-50818838D01*
X119596100Y-50756054D01*
X119820212Y-50663224D01*
X120030289Y-50541936D01*
X120222738Y-50394265D01*
X120394265Y-50222738D01*
X120541936Y-50030289D01*
X120663224Y-49820212D01*
X120756054Y-49596100D01*
X120818838Y-49361789D01*
X120850500Y-49121288D01*
X120850500Y-48878712D01*
X120818838Y-48638211D01*
X120756054Y-48403900D01*
X120663224Y-48179788D01*
X120541936Y-47969711D01*
X120394265Y-47777262D01*
X120394260Y-47777256D01*
X120222743Y-47605739D01*
X120222736Y-47605733D01*
X120030293Y-47458067D01*
X120030292Y-47458066D01*
X120030289Y-47458064D01*
X119820212Y-47336776D01*
X119820205Y-47336773D01*
X119723168Y-47296579D01*
X192869361Y-47296579D01*
X192869361Y-47450000D01*
X193619361Y-47450000D01*
X193619361Y-47950000D01*
X192869361Y-47950000D01*
X192869361Y-48103420D01*
X192909709Y-48306266D01*
X192909711Y-48306274D01*
X192988861Y-48497358D01*
X192988866Y-48497368D01*
X193103771Y-48669335D01*
X193103774Y-48669339D01*
X193250021Y-48815586D01*
X193250025Y-48815589D01*
X193421992Y-48930494D01*
X193422002Y-48930499D01*
X193613084Y-49009648D01*
X193613086Y-49009649D01*
X193669361Y-49020842D01*
X193669361Y-48166988D01*
X193679301Y-48184205D01*
X193735156Y-48240060D01*
X193803565Y-48279556D01*
X193879865Y-48300000D01*
X193958857Y-48300000D01*
X194035157Y-48279556D01*
X194103566Y-48240060D01*
X194159421Y-48184205D01*
X194169361Y-48166988D01*
X194169361Y-49020842D01*
X194225635Y-49009649D01*
X194225637Y-49009648D01*
X194416719Y-48930499D01*
X194416729Y-48930494D01*
X194588696Y-48815589D01*
X194588700Y-48815586D01*
X194734947Y-48669339D01*
X194734950Y-48669335D01*
X194849855Y-48497368D01*
X194849860Y-48497358D01*
X194929010Y-48306274D01*
X194929012Y-48306266D01*
X194969360Y-48103420D01*
X194969361Y-48103417D01*
X194969361Y-47950000D01*
X194219361Y-47950000D01*
X194219361Y-47450000D01*
X194969361Y-47450000D01*
X194969361Y-47296583D01*
X194969360Y-47296579D01*
X201509361Y-47296579D01*
X201509361Y-47450000D01*
X202259361Y-47450000D01*
X202259361Y-47950000D01*
X201509361Y-47950000D01*
X201509361Y-48103420D01*
X201549709Y-48306266D01*
X201549711Y-48306274D01*
X201628861Y-48497358D01*
X201628866Y-48497368D01*
X201743771Y-48669335D01*
X201743774Y-48669339D01*
X201890021Y-48815586D01*
X201890025Y-48815589D01*
X202061992Y-48930494D01*
X202062002Y-48930499D01*
X202253084Y-49009648D01*
X202253086Y-49009649D01*
X202309361Y-49020842D01*
X202309361Y-48166988D01*
X202319301Y-48184205D01*
X202375156Y-48240060D01*
X202443565Y-48279556D01*
X202519865Y-48300000D01*
X202598857Y-48300000D01*
X202675157Y-48279556D01*
X202743566Y-48240060D01*
X202799421Y-48184205D01*
X202809361Y-48166988D01*
X202809361Y-49020842D01*
X202865635Y-49009649D01*
X202865637Y-49009648D01*
X203056719Y-48930499D01*
X203056729Y-48930494D01*
X203134228Y-48878711D01*
X209149500Y-48878711D01*
X209149500Y-49121288D01*
X209181161Y-49361785D01*
X209243947Y-49596104D01*
X209336773Y-49820205D01*
X209336776Y-49820212D01*
X209458064Y-50030289D01*
X209458066Y-50030292D01*
X209458067Y-50030293D01*
X209605733Y-50222736D01*
X209605739Y-50222743D01*
X209777256Y-50394260D01*
X209777263Y-50394266D01*
X209839224Y-50441810D01*
X209969711Y-50541936D01*
X210179788Y-50663224D01*
X210403900Y-50756054D01*
X210638211Y-50818838D01*
X210818586Y-50842584D01*
X210878711Y-50850500D01*
X210878712Y-50850500D01*
X211121289Y-50850500D01*
X211169388Y-50844167D01*
X211361789Y-50818838D01*
X211596100Y-50756054D01*
X211820212Y-50663224D01*
X212030289Y-50541936D01*
X212222738Y-50394265D01*
X212394265Y-50222738D01*
X212541936Y-50030289D01*
X212663224Y-49820212D01*
X212756054Y-49596100D01*
X212818838Y-49361789D01*
X212850500Y-49121288D01*
X212850500Y-48878712D01*
X212818838Y-48638211D01*
X212756054Y-48403900D01*
X212663224Y-48179788D01*
X212541936Y-47969711D01*
X212394265Y-47777262D01*
X212394260Y-47777256D01*
X212222743Y-47605739D01*
X212222736Y-47605733D01*
X212030293Y-47458067D01*
X212030292Y-47458066D01*
X212030289Y-47458064D01*
X211820212Y-47336776D01*
X211820205Y-47336773D01*
X211596104Y-47243947D01*
X211361785Y-47181161D01*
X211121289Y-47149500D01*
X211121288Y-47149500D01*
X210878712Y-47149500D01*
X210878711Y-47149500D01*
X210638214Y-47181161D01*
X210403895Y-47243947D01*
X210179794Y-47336773D01*
X210179785Y-47336777D01*
X209969706Y-47458067D01*
X209777263Y-47605733D01*
X209777256Y-47605739D01*
X209605739Y-47777256D01*
X209605733Y-47777263D01*
X209458067Y-47969706D01*
X209336777Y-48179785D01*
X209336773Y-48179794D01*
X209243947Y-48403895D01*
X209181161Y-48638214D01*
X209149500Y-48878711D01*
X203134228Y-48878711D01*
X203228696Y-48815589D01*
X203228700Y-48815586D01*
X203257315Y-48786972D01*
X203374947Y-48669339D01*
X203374950Y-48669335D01*
X203489855Y-48497368D01*
X203489860Y-48497358D01*
X203569010Y-48306274D01*
X203569012Y-48306266D01*
X203609360Y-48103420D01*
X203609361Y-48103417D01*
X203609361Y-47950000D01*
X202859361Y-47950000D01*
X202859361Y-47450000D01*
X203609361Y-47450000D01*
X203609361Y-47296583D01*
X203609360Y-47296579D01*
X203569012Y-47093733D01*
X203569010Y-47093725D01*
X203489860Y-46902641D01*
X203489855Y-46902631D01*
X203374950Y-46730664D01*
X203374947Y-46730660D01*
X203228700Y-46584413D01*
X203228696Y-46584410D01*
X203056729Y-46469505D01*
X203056719Y-46469500D01*
X202865633Y-46390349D01*
X202865628Y-46390347D01*
X202809361Y-46379155D01*
X202809361Y-47233011D01*
X202799421Y-47215795D01*
X202743566Y-47159940D01*
X202675157Y-47120444D01*
X202598857Y-47100000D01*
X202519865Y-47100000D01*
X202443565Y-47120444D01*
X202375156Y-47159940D01*
X202319301Y-47215795D01*
X202309361Y-47233011D01*
X202309361Y-46379156D01*
X202309360Y-46379155D01*
X202253093Y-46390347D01*
X202253088Y-46390349D01*
X202062002Y-46469500D01*
X202061992Y-46469505D01*
X201890025Y-46584410D01*
X201890021Y-46584413D01*
X201743774Y-46730660D01*
X201743771Y-46730664D01*
X201628866Y-46902631D01*
X201628861Y-46902641D01*
X201549711Y-47093725D01*
X201549709Y-47093733D01*
X201509361Y-47296579D01*
X194969360Y-47296579D01*
X194929012Y-47093733D01*
X194929010Y-47093725D01*
X194849860Y-46902641D01*
X194849855Y-46902631D01*
X194734950Y-46730664D01*
X194734947Y-46730660D01*
X194588700Y-46584413D01*
X194588696Y-46584410D01*
X194416729Y-46469505D01*
X194416719Y-46469500D01*
X194225633Y-46390349D01*
X194225628Y-46390347D01*
X194169361Y-46379155D01*
X194169361Y-47233011D01*
X194159421Y-47215795D01*
X194103566Y-47159940D01*
X194035157Y-47120444D01*
X193958857Y-47100000D01*
X193879865Y-47100000D01*
X193803565Y-47120444D01*
X193735156Y-47159940D01*
X193679301Y-47215795D01*
X193669361Y-47233011D01*
X193669361Y-46379156D01*
X193669360Y-46379155D01*
X193613093Y-46390347D01*
X193613088Y-46390349D01*
X193422002Y-46469500D01*
X193421992Y-46469505D01*
X193250025Y-46584410D01*
X193250021Y-46584413D01*
X193103774Y-46730660D01*
X193103771Y-46730664D01*
X192988866Y-46902631D01*
X192988861Y-46902641D01*
X192909711Y-47093725D01*
X192909709Y-47093733D01*
X192869361Y-47296579D01*
X119723168Y-47296579D01*
X119596104Y-47243947D01*
X119361785Y-47181161D01*
X119121289Y-47149500D01*
X119121288Y-47149500D01*
X118878712Y-47149500D01*
X118878711Y-47149500D01*
X118638214Y-47181161D01*
X118403895Y-47243947D01*
X118179794Y-47336773D01*
X118179785Y-47336777D01*
X117969706Y-47458067D01*
X117777263Y-47605733D01*
X117777256Y-47605739D01*
X117605739Y-47777256D01*
X117605733Y-47777263D01*
X117458067Y-47969706D01*
X117336777Y-48179785D01*
X117336773Y-48179794D01*
X117243947Y-48403895D01*
X117181161Y-48638214D01*
X117149500Y-48878711D01*
X115500500Y-48878711D01*
X115500500Y-45624500D01*
X115520185Y-45557461D01*
X115572989Y-45511706D01*
X115624500Y-45500500D01*
X214375500Y-45500500D01*
X214442539Y-45520185D01*
G37*
%TD.AperFunction*%
%TD*%
M02*
