M48
; DRILL file {KiCad 9.0.6} date 2025-11-18T14:04:45-0500
; FORMAT={-:-/ absolute / metric / decimal}
; #@! TF.CreationDate,2025-11-18T14:04:45-05:00
; #@! TF.GenerationSoftware,Kicad,Pcbnew,9.0.6
; #@! TF.FileFunction,Plated,1,2,PTH
FMAT,2
METRIC
; #@! TA.AperFunction,Plated,PTH,ComponentDrill
T1C0.600
; #@! TA.AperFunction,Plated,PTH,ComponentDrill
T2C0.900
; #@! TA.AperFunction,Plated,PTH,ComponentDrill
T3C1.000
; #@! TA.AperFunction,Plated,PTH,ViaDrill
T4C1.050
%
G90
G05
T2
X151.46Y-65.0
X152.73Y-65.0
X154.0Y-65.0
X154.46Y-76.0
X155.27Y-65.0
X155.73Y-76.0
X157.0Y-76.0
X158.27Y-76.0
X160.46Y-58.0
X161.46Y-88.0
X161.73Y-58.0
X162.73Y-88.0
X163.0Y-58.0
X164.0Y-88.0
X164.27Y-58.0
X165.27Y-88.0
X170.46Y-65.0
X170.46Y-98.0
X171.73Y-65.0
X171.73Y-98.0
X173.0Y-65.0
X173.0Y-98.0
X174.27Y-65.0
X174.27Y-98.0
X179.46Y-58.0
X179.46Y-88.0
X180.73Y-58.0
X180.73Y-88.0
X182.0Y-58.0
X182.0Y-88.0
X183.27Y-58.0
X183.27Y-88.0
X186.46Y-76.0
X187.73Y-76.0
X188.46Y-65.0
X189.0Y-76.0
X189.73Y-65.0
X190.27Y-76.0
X191.0Y-65.0
X192.27Y-65.0
T3
X119.22Y-57.88
X119.22Y-60.42
X119.22Y-62.96
X119.22Y-65.5
X119.22Y-68.04
X119.22Y-70.58
X119.22Y-73.12
X119.22Y-75.66
X119.22Y-78.2
X119.22Y-80.74
X119.22Y-83.28
X119.22Y-85.82
X119.22Y-88.36
X119.22Y-90.9
X119.22Y-93.44
X119.22Y-95.98
X119.22Y-98.52
X119.22Y-101.06
X119.22Y-103.6
X119.22Y-106.14
X137.0Y-57.88
X137.0Y-60.42
X137.0Y-62.96
X137.0Y-65.5
X137.0Y-68.04
X137.0Y-70.58
X137.0Y-73.12
X137.0Y-75.66
X137.0Y-78.2
X137.0Y-80.74
X137.0Y-83.28
X137.0Y-85.82
X137.0Y-88.36
X137.0Y-90.9
X137.0Y-93.44
X137.0Y-95.98
X137.0Y-98.52
X137.0Y-101.06
X137.0Y-103.6
X137.0Y-106.14
T4
X206.0Y-83.0
T1
G00X193.919Y-48.0
M15
G01X193.919Y-47.4
M16
G05
G00X193.919Y-51.8
M15
G01X193.919Y-51.2
M16
G05
G00X202.559Y-48.0
M15
G01X202.559Y-47.4
M16
G05
G00X202.559Y-51.8
M15
G01X202.559Y-51.2
M16
G05
M30
