%TF.GenerationSoftware,KiCad,Pcbnew,9.0.6*%
%TF.CreationDate,2025-11-18T14:04:38-05:00*%
%TF.ProjectId,hardware,68617264-7761-4726-952e-6b696361645f,rev?*%
%TF.SameCoordinates,Original*%
%TF.FileFunction,Soldermask,Bot*%
%TF.FilePolarity,Negative*%
%FSLAX46Y46*%
G04 Gerber Fmt 4.6, Leading zero omitted, Abs format (unit mm)*
G04 Created by KiCad (PCBNEW 9.0.6) date 2025-11-18 14:04:38*
%MOMM*%
%LPD*%
G01*
G04 APERTURE LIST*
G04 Aperture macros list*
%AMRoundRect*
0 Rectangle with rounded corners*
0 $1 Rounding radius*
0 $2 $3 $4 $5 $6 $7 $8 $9 X,Y pos of 4 corners*
0 Add a 4 corners polygon primitive as box body*
4,1,4,$2,$3,$4,$5,$6,$7,$8,$9,$2,$3,0*
0 Add four circle primitives for the rounded corners*
1,1,$1+$1,$2,$3*
1,1,$1+$1,$4,$5*
1,1,$1+$1,$6,$7*
1,1,$1+$1,$8,$9*
0 Add four rect primitives between the rounded corners*
20,1,$1+$1,$2,$3,$4,$5,0*
20,1,$1+$1,$4,$5,$6,$7,0*
20,1,$1+$1,$6,$7,$8,$9,0*
20,1,$1+$1,$8,$9,$2,$3,0*%
%AMFreePoly0*
4,1,37,0.800000,0.796148,0.878414,0.796148,1.032228,0.765552,1.177117,0.705537,1.307515,0.618408,1.418408,0.507515,1.505537,0.377117,1.565552,0.232228,1.596148,0.078414,1.596148,-0.078414,1.565552,-0.232228,1.505537,-0.377117,1.418408,-0.507515,1.307515,-0.618408,1.177117,-0.705537,1.032228,-0.765552,0.878414,-0.796148,0.800000,-0.796148,0.800000,-0.800000,-1.400000,-0.800000,
-1.403843,-0.796157,-1.439018,-0.796157,-1.511114,-0.766294,-1.566294,-0.711114,-1.596157,-0.639018,-1.596157,-0.603843,-1.600000,-0.600000,-1.600000,0.600000,-1.596157,0.603843,-1.596157,0.639018,-1.566294,0.711114,-1.511114,0.766294,-1.439018,0.796157,-1.403843,0.796157,-1.400000,0.800000,0.800000,0.800000,0.800000,0.796148,0.800000,0.796148,$1*%
%AMFreePoly1*
4,1,37,1.403843,0.796157,1.439018,0.796157,1.511114,0.766294,1.566294,0.711114,1.596157,0.639018,1.596157,0.603843,1.600000,0.600000,1.600000,-0.600000,1.596157,-0.603843,1.596157,-0.639018,1.566294,-0.711114,1.511114,-0.766294,1.439018,-0.796157,1.403843,-0.796157,1.400000,-0.800000,-0.800000,-0.800000,-0.800000,-0.796148,-0.878414,-0.796148,-1.032228,-0.765552,-1.177117,-0.705537,
-1.307515,-0.618408,-1.418408,-0.507515,-1.505537,-0.377117,-1.565552,-0.232228,-1.596148,-0.078414,-1.596148,0.078414,-1.565552,0.232228,-1.505537,0.377117,-1.418408,0.507515,-1.307515,0.618408,-1.177117,0.705537,-1.032228,0.765552,-0.878414,0.796148,-0.800000,0.796148,-0.800000,0.800000,1.400000,0.800000,1.403843,0.796157,1.403843,0.796157,$1*%
%AMFreePoly2*
4,1,37,0.603843,0.796157,0.639018,0.796157,0.711114,0.766294,0.766294,0.711114,0.796157,0.639018,0.796157,0.603843,0.800000,0.600000,0.800000,-0.600000,0.796157,-0.603843,0.796157,-0.639018,0.766294,-0.711114,0.711114,-0.766294,0.639018,-0.796157,0.603843,-0.796157,0.600000,-0.800000,0.000000,-0.800000,0.000000,-0.796148,-0.078414,-0.796148,-0.232228,-0.765552,-0.377117,-0.705537,
-0.507515,-0.618408,-0.618408,-0.507515,-0.705537,-0.377117,-0.765552,-0.232228,-0.796148,-0.078414,-0.796148,0.078414,-0.765552,0.232228,-0.705537,0.377117,-0.618408,0.507515,-0.507515,0.618408,-0.377117,0.705537,-0.232228,0.765552,-0.078414,0.796148,0.000000,0.796148,0.000000,0.800000,0.600000,0.800000,0.603843,0.796157,0.603843,0.796157,$1*%
%AMFreePoly3*
4,1,37,0.000000,0.796148,0.078414,0.796148,0.232228,0.765552,0.377117,0.705537,0.507515,0.618408,0.618408,0.507515,0.705537,0.377117,0.765552,0.232228,0.796148,0.078414,0.796148,-0.078414,0.765552,-0.232228,0.705537,-0.377117,0.618408,-0.507515,0.507515,-0.618408,0.377117,-0.705537,0.232228,-0.765552,0.078414,-0.796148,0.000000,-0.796148,0.000000,-0.800000,-0.600000,-0.800000,
-0.603843,-0.796157,-0.639018,-0.796157,-0.711114,-0.766294,-0.766294,-0.711114,-0.796157,-0.639018,-0.796157,-0.603843,-0.800000,-0.600000,-0.800000,0.600000,-0.796157,0.603843,-0.796157,0.639018,-0.766294,0.711114,-0.711114,0.766294,-0.639018,0.796157,-0.603843,0.796157,-0.600000,0.800000,0.000000,0.800000,0.000000,0.796148,0.000000,0.796148,$1*%
G04 Aperture macros list end*
%ADD10R,1.070000X1.800000*%
%ADD11O,1.070000X1.800000*%
%ADD12C,3.200000*%
%ADD13O,1.100000X1.700000*%
%ADD14RoundRect,0.250000X-0.537500X-1.450000X0.537500X-1.450000X0.537500X1.450000X-0.537500X1.450000X0*%
%ADD15RoundRect,0.250000X0.350000X0.450000X-0.350000X0.450000X-0.350000X-0.450000X0.350000X-0.450000X0*%
%ADD16C,2.200000*%
%ADD17C,1.850000*%
%ADD18FreePoly0,0.000000*%
%ADD19RoundRect,0.200000X-0.600000X-0.600000X0.600000X-0.600000X0.600000X0.600000X-0.600000X0.600000X0*%
%ADD20RoundRect,0.800000X-0.800000X-0.000010X0.800000X-0.000010X0.800000X0.000010X-0.800000X0.000010X0*%
%ADD21C,1.600000*%
%ADD22FreePoly1,0.000000*%
%ADD23FreePoly2,0.000000*%
%ADD24FreePoly3,0.000000*%
%ADD25RoundRect,0.250000X0.537500X1.450000X-0.537500X1.450000X-0.537500X-1.450000X0.537500X-1.450000X0*%
G04 APERTURE END LIST*
D10*
%TO.C,D1*%
X174270000Y-65000000D03*
D11*
X173000000Y-65000000D03*
X171730000Y-65000000D03*
X170460000Y-65000000D03*
%TD*%
D10*
%TO.C,D7*%
X161460000Y-88000000D03*
D11*
X162730000Y-88000000D03*
X164000000Y-88000000D03*
X165270000Y-88000000D03*
%TD*%
D10*
%TO.C,D3*%
X192270000Y-65000000D03*
D11*
X191000000Y-65000000D03*
X189730000Y-65000000D03*
X188460000Y-65000000D03*
%TD*%
D10*
%TO.C,D2*%
X183270000Y-58000000D03*
D11*
X182000000Y-58000000D03*
X180730000Y-58000000D03*
X179460000Y-58000000D03*
%TD*%
D10*
%TO.C,D4*%
X186460000Y-76000000D03*
D11*
X187730000Y-76000000D03*
X189000000Y-76000000D03*
X190270000Y-76000000D03*
%TD*%
D12*
%TO.C,H2*%
X119000000Y-112000000D03*
%TD*%
%TO.C,H3*%
X211000000Y-49000000D03*
%TD*%
D10*
%TO.C,D6*%
X170460000Y-98000000D03*
D11*
X171730000Y-98000000D03*
X173000000Y-98000000D03*
X174270000Y-98000000D03*
%TD*%
D10*
%TO.C,D5*%
X179460000Y-88000000D03*
D11*
X180730000Y-88000000D03*
X182000000Y-88000000D03*
X183270000Y-88000000D03*
%TD*%
D12*
%TO.C,H1*%
X119000000Y-49000000D03*
%TD*%
%TO.C,H4*%
X211000000Y-112000000D03*
%TD*%
D10*
%TO.C,D10*%
X164270000Y-58000000D03*
D11*
X163000000Y-58000000D03*
X161730000Y-58000000D03*
X160460000Y-58000000D03*
%TD*%
D10*
%TO.C,D9*%
X155270000Y-65000000D03*
D11*
X154000000Y-65000000D03*
X152730000Y-65000000D03*
X151460000Y-65000000D03*
%TD*%
D10*
%TO.C,D8*%
X154460000Y-76000000D03*
D11*
X155730000Y-76000000D03*
X157000000Y-76000000D03*
X158270000Y-76000000D03*
%TD*%
D13*
%TO.C,J1*%
X202559361Y-51500000D03*
X202559361Y-47700000D03*
X193919361Y-51500000D03*
X193919361Y-47700000D03*
%TD*%
D14*
%TO.C,C12*%
X161722500Y-54290000D03*
X165997500Y-54290000D03*
%TD*%
%TO.C,C5*%
X189737500Y-68800000D03*
X194012500Y-68800000D03*
%TD*%
D15*
%TO.C,R1*%
X146110000Y-57880000D03*
X144110000Y-57880000D03*
%TD*%
D14*
%TO.C,C11*%
X152722500Y-61290000D03*
X156997500Y-61290000D03*
%TD*%
D16*
%TO.C,A1*%
X125385000Y-106010000D03*
D17*
X125685000Y-102980000D03*
X130535000Y-102980000D03*
D16*
X130835000Y-106010000D03*
D18*
X118420000Y-106140000D03*
D19*
X119220000Y-106140000D03*
D20*
X118420000Y-103600000D03*
D21*
X119220000Y-103600000D03*
D22*
X118420000Y-101060000D03*
D23*
X119220000Y-101060000D03*
D20*
X118420000Y-98520000D03*
D21*
X119220000Y-98520000D03*
D20*
X118420000Y-95980000D03*
D21*
X119220000Y-95980000D03*
D20*
X118420000Y-93440000D03*
D21*
X119220000Y-93440000D03*
D20*
X118420000Y-90900000D03*
D21*
X119220000Y-90900000D03*
D22*
X118420000Y-88360000D03*
D23*
X119220000Y-88360000D03*
D20*
X118420000Y-85820000D03*
D21*
X119220000Y-85820000D03*
D20*
X118420000Y-83280000D03*
D21*
X119220000Y-83280000D03*
D20*
X118420000Y-80740000D03*
D21*
X119220000Y-80740000D03*
D20*
X118420000Y-78200000D03*
D21*
X119220000Y-78200000D03*
D22*
X118420000Y-75660000D03*
D23*
X119220000Y-75660000D03*
D20*
X118420000Y-73120000D03*
D21*
X119220000Y-73120000D03*
D20*
X118420000Y-70580000D03*
D21*
X119220000Y-70580000D03*
D20*
X118420000Y-68040000D03*
D21*
X119220000Y-68040000D03*
D20*
X118420000Y-65500000D03*
D21*
X119220000Y-65500000D03*
D22*
X118420000Y-62960000D03*
D23*
X119220000Y-62960000D03*
D20*
X118420000Y-60420000D03*
D21*
X119220000Y-60420000D03*
D20*
X118420000Y-57880000D03*
D21*
X119220000Y-57880000D03*
X137000000Y-57880000D03*
D20*
X137800000Y-57880000D03*
D21*
X137000000Y-60420000D03*
D20*
X137800000Y-60420000D03*
D24*
X137000000Y-62960000D03*
D18*
X137800000Y-62960000D03*
D21*
X137000000Y-65500000D03*
D20*
X137800000Y-65500000D03*
D21*
X137000000Y-68040000D03*
D20*
X137800000Y-68040000D03*
D21*
X137000000Y-70580000D03*
D20*
X137800000Y-70580000D03*
D21*
X137000000Y-73120000D03*
D20*
X137800000Y-73120000D03*
D24*
X137000000Y-75660000D03*
D18*
X137800000Y-75660000D03*
D21*
X137000000Y-78200000D03*
D20*
X137800000Y-78200000D03*
D21*
X137000000Y-80740000D03*
D20*
X137800000Y-80740000D03*
D21*
X137000000Y-83280000D03*
D20*
X137800000Y-83280000D03*
D21*
X137000000Y-85820000D03*
D20*
X137800000Y-85820000D03*
D24*
X137000000Y-88360000D03*
D18*
X137800000Y-88360000D03*
D21*
X137000000Y-90900000D03*
D20*
X137800000Y-90900000D03*
D21*
X137000000Y-93440000D03*
D20*
X137800000Y-93440000D03*
D21*
X137000000Y-95980000D03*
D20*
X137800000Y-95980000D03*
D21*
X137000000Y-98520000D03*
D20*
X137800000Y-98520000D03*
D24*
X137000000Y-101060000D03*
D18*
X137800000Y-101060000D03*
D21*
X137000000Y-103600000D03*
D20*
X137800000Y-103600000D03*
D21*
X137000000Y-106140000D03*
D20*
X137800000Y-106140000D03*
%TD*%
D14*
%TO.C,C7*%
X181992500Y-91670000D03*
X186267500Y-91670000D03*
%TD*%
%TO.C,C4*%
X180712500Y-61650000D03*
X184987500Y-61650000D03*
%TD*%
%TO.C,C9*%
X164002500Y-91530000D03*
X168277500Y-91530000D03*
%TD*%
%TO.C,C6*%
X188987500Y-79175000D03*
X193262500Y-79175000D03*
%TD*%
%TO.C,C8*%
X172992500Y-101630000D03*
X177267500Y-101630000D03*
%TD*%
%TO.C,C3*%
X171712500Y-70000000D03*
X175987500Y-70000000D03*
%TD*%
D25*
%TO.C,C13*%
X202137500Y-83000000D03*
X197862500Y-83000000D03*
%TD*%
D14*
%TO.C,C10*%
X157002500Y-71340000D03*
X161277500Y-71340000D03*
%TD*%
M02*
